<svg width="309" height="127" viewBox="0 0 309 127" fill="none" xmlns="http://www.w3.org/2000/svg">
<g opacity="0.7">
<path fill-rule="evenodd" clip-rule="evenodd" d="M332.357 19.6904C335.904 19.6904 339.071 21.4447 339.071 24.9873V100.955C339.071 104.497 335.904 106.976 332.357 106.976H323.405C319.858 106.976 316.691 104.497 316.691 100.955V24.9873C316.691 21.4447 319.858 19.6904 323.405 19.6904H332.357ZM303.262 19.6904C306.809 19.6904 309.976 21.4447 309.976 24.9873V100.955C309.976 104.497 306.809 106.976 303.262 106.976H294.31C290.763 106.976 287.595 104.497 287.595 100.955V24.9873C287.595 21.4447 290.763 19.6904 294.31 19.6904H303.262Z" stroke="#787878"/>
<path fill-rule="evenodd" clip-rule="evenodd" d="M298.303 34.2382C298.594 34.4727 299.047 34.4727 299.338 34.2382L306.568 27.5239H290.901L298.303 34.2382Z" fill="#787878"/>
<path fill-rule="evenodd" clip-rule="evenodd" d="M63.0333 15.1294C46.8679 15.1294 34.6372 23.016 34.6372 28.4599V90.8622C34.6372 108.004 50.1632 111.811 63.0333 111.836C76.6579 111.866 90.6428 107.241 90.6428 90.8622V28.4599C90.6428 23.016 79.1987 15.1294 63.0333 15.1294Z" stroke="#787878"/>
<path fill-rule="evenodd" clip-rule="evenodd" d="M49.461 27.8423H76.8169L77.2134 28.7276L63.107 33.4375L49.0006 28.8389L49.461 27.8423Z" fill="#787878"/>
<path fill-rule="evenodd" clip-rule="evenodd" d="M45.3115 80.4523C43.1459 80.4523 41.4048 78.696 41.4048 76.5346V50.8499C41.4048 48.6842 43.1459 46.9321 45.3115 46.9321H80.0121C82.1777 46.9321 83.9298 48.6842 83.9298 50.8499V76.5346C83.9298 78.696 82.1777 80.4523 80.0121 80.4523H45.3115Z" stroke="#787878"/>
<path fill-rule="evenodd" clip-rule="evenodd" d="M194.552 7.40783C197.844 7.47502 201.134 7.57752 204.423 7.71574C207.075 7.82728 209.723 7.99976 212.371 8.17091C215.903 8.39902 219.427 8.71198 222.903 9.40947C225.93 10.0167 228.852 10.9223 231.562 12.4423C234.429 14.0504 236.728 16.2464 238.447 19.0452C240.265 22.0053 241.275 25.2623 241.935 28.6459C242.458 31.3323 242.745 34.0472 242.966 36.7726C243.226 39.9773 243.415 43.186 243.561 46.397C243.734 50.2335 243.85 54.0717 243.908 57.9129C243.955 60.9996 243.966 64.0856 243.935 67.1718C243.91 69.5801 243.868 71.989 243.785 74.3959C243.682 77.3875 243.548 80.3784 243.392 83.3676C243.272 85.6673 243.13 87.9669 242.938 90.2615C242.617 94.0771 242.169 97.8765 241.07 101.564C239.916 105.436 238.105 108.924 235.066 111.677C233.121 113.441 230.883 114.721 228.441 115.654C225.544 116.762 222.531 117.385 219.464 117.791C216.496 118.185 213.513 118.394 210.526 118.575C208.019 118.727 205.512 118.856 203.004 118.967C200.559 119.075 198.114 119.131 195.668 119.198C190.878 119.33 186.087 119.289 181.297 119.231C178.174 119.193 175.053 119.06 171.933 118.925C169.204 118.808 166.476 118.652 163.751 118.471C159.829 118.21 155.915 117.878 152.07 117.005C149.392 116.398 146.806 115.534 144.406 114.174C141.039 112.265 138.488 109.574 136.733 106.123C135.157 103.023 134.311 99.7046 133.765 96.2955C133.32 93.5177 133.085 90.7178 132.895 87.913C132.704 85.1083 132.54 82.3026 132.421 79.4937C132.327 77.2695 132.259 75.0449 132.186 72.8202C132.034 68.2242 132.031 63.6275 132.067 59.0307C132.087 56.5832 132.149 54.1357 132.227 51.6893C132.303 49.3218 132.398 46.9541 132.535 44.5895C132.706 41.6408 132.863 38.6912 133.125 35.7477C133.421 32.4247 133.833 29.1219 134.7 25.893C135.545 22.7463 136.802 19.7881 138.835 17.2077C141.242 14.1513 144.378 12.1308 148.001 10.8109C151.114 9.67649 154.347 9.08801 157.624 8.70109C160.571 8.35308 163.53 8.1567 166.492 7.99245C169.233 7.84056 171.974 7.70791 174.717 7.59983C179.023 7.43014 183.33 7.34011 187.639 7.3988C189.944 7.3988 192.249 7.36083 194.552 7.40783Z" stroke="#787878"/>
<path fill-rule="evenodd" clip-rule="evenodd" d="M174.572 65.5714V61.0952H201.429V65.5714H174.572Z" fill="#787878"/>
<g clip-path="url(#clip0)">
<path d="M47.3535 17.7577C47.3535 26.8034 40.0205 34.1365 30.9747 34.1365C21.929 34.1365 14.5959 26.8034 14.5959 17.7577C14.5959 8.71193 21.929 1.37891 30.9747 1.37891C40.0205 1.37891 47.3535 8.71193 47.3535 17.7577Z" fill="#181818" stroke="#DBDBDB"/>
<path d="M38.2249 12.773L28.8511 22.1468L23.7513 17.0457" stroke="#DBDBDB"/>
</g>
<g clip-path="url(#clip1)">
<path d="M172.687 17.7577C172.687 26.8034 165.353 34.1365 156.308 34.1365C147.262 34.1365 139.929 26.8034 139.929 17.7577C139.929 8.71193 147.262 1.37891 156.308 1.37891C165.353 1.37891 172.687 8.71193 172.687 17.7577Z" fill="#181818" stroke="#DBDBDB"/>
<path d="M163.558 12.773L154.184 22.1468L149.084 17.0457" stroke="#DBDBDB"/>
</g>
<g clip-path="url(#clip2)">
<path d="M298.022 17.7577C298.022 26.8034 290.689 34.1365 281.644 34.1365C272.598 34.1365 265.265 26.8034 265.265 17.7577C265.265 8.71193 272.598 1.37891 281.644 1.37891C290.689 1.37891 298.022 8.71193 298.022 17.7577Z" fill="#181818" stroke="#DBDBDB"/>
<path d="M288.894 12.773L279.52 22.1468L274.42 17.0457" stroke="#DBDBDB"/>
</g>
</g>
<defs>
<clipPath id="clip0">
<rect width="34.1818" height="34.1818" fill="white" transform="translate(13.8838 0.666992)"/>
</clipPath>
<clipPath id="clip1">
<rect width="34.1818" height="34.1818" fill="white" transform="translate(139.217 0.666992)"/>
</clipPath>
<clipPath id="clip2">
<rect width="34.1818" height="34.1818" fill="white" transform="translate(264.553 0.666992)"/>
</clipPath>
</defs>
</svg>
