<svg width="196" height="166" viewBox="0 0 196 166" fill="none" xmlns="http://www.w3.org/2000/svg">
<g opacity="0.7">
<path fill-rule="evenodd" clip-rule="evenodd" d="M83.7656 17.73L223.937 17.73C227.536 17.73 230.457 20.6521 230.457 24.2525V112.306C230.457 115.907 227.536 118.829 223.937 118.829H83.7656C80.1668 118.829 77.246 115.907 77.246 112.306V24.2525C77.246 20.6521 80.1668 17.73 83.7656 17.73Z" fill="#181818"/>
<path d="M171.78 126.982V144.834C171.78 148.434 174.701 151.356 178.3 151.356H181.56V151.441H126.143L124.513 151.356H129.403C133.002 151.356 135.922 148.434 135.922 144.834V126.982M78.8759 102.522H228.827M83.7656 17.73L223.937 17.73C227.536 17.73 230.457 20.6521 230.457 24.2525V112.306C230.457 115.907 227.536 118.829 223.937 118.829H83.7656C80.1668 118.829 77.246 115.907 77.246 112.306V24.2525C77.246 20.6521 80.1668 17.73 83.7656 17.73Z" stroke="#787878"/>
<path fill-rule="evenodd" clip-rule="evenodd" d="M49.425 81.7998V83.3751C49.425 83.9531 48.4584 84.5855 48.0322 84.5855H35.5915C35.168 84.5855 34.1039 83.9531 34.1039 83.3751V81.7998H49.425ZM51.4432 147.263H32.03H51.4432ZM28.5911 81.7998H54.9963C57.3544 81.7998 59.1748 83.6745 59.1748 86.0326V146.818C59.1748 149.179 57.3544 151.441 54.9963 151.441H28.6371C26.279 151.441 24.3193 149.179 24.3193 146.818L24.3193 86.0326C24.3193 83.6745 26.2331 81.7998 28.5911 81.7998Z" fill="#181818" stroke="#787878"/>
<path d="M10.2157 157.747L10.8189 157.302L10.2157 157.747ZM186.585 70.6572L178.143 72.5924L184.04 78.9351L186.585 70.6572ZM80.8193 63.8142C53.9663 82.646 33.1827 102.023 20.5856 118.732C14.2896 127.083 10.0102 134.805 8.05972 141.487C6.11017 148.167 6.45873 153.926 9.61257 158.193L10.8189 157.302C8.05361 153.56 7.61888 148.351 9.49964 141.907C11.3795 135.467 15.5439 127.911 21.7833 119.635C34.2568 103.09 54.9093 83.8167 81.6805 65.0423L80.8193 63.8142ZM9.61257 158.193C13.0987 162.91 19.6484 165.629 28.8463 165.746C38.0569 165.862 50.0439 163.378 64.616 157.543C93.7653 145.871 133.407 120.734 182.144 75.8094L181.127 74.7065C132.468 119.559 92.9796 144.57 64.0584 156.15C49.5951 161.942 37.8116 164.359 28.8654 164.246C19.9065 164.132 13.9131 161.488 10.8189 157.302L9.61257 158.193Z" fill="url(#paint0_angular)"/>
<path d="M44.4995 130.5L53.1581 130.331L48.6826 122.917L44.4995 130.5ZM42.881 42.7005C60.5413 29.1956 85.8605 18.0913 108.589 12.5394C119.951 9.76382 130.627 8.38579 139.346 8.7733C148.105 9.16257 154.706 11.3242 158.152 15.427L159.301 14.4622C155.435 9.85985 148.282 7.66895 139.413 7.27478C130.504 6.87884 119.678 8.28647 108.233 11.0822C85.346 16.6729 59.8267 27.8538 41.9698 41.509L42.881 42.7005ZM158.152 15.427C161.398 19.2907 160.978 25.3327 156.981 33.2365C153.011 41.0869 145.646 50.4814 135.604 60.7285C115.533 81.2115 84.9123 104.956 49.8777 126.378L50.6602 127.657C85.7689 106.19 116.495 82.3724 136.676 61.7783C146.761 51.4869 154.248 41.9642 158.319 33.9134C162.364 25.9159 163.174 19.0728 159.301 14.4622L158.152 15.427Z" fill="url(#paint1_angular)"/>
</g>
<defs>
<radialGradient id="paint0_angular" cx="0" cy="0" r="1" gradientUnits="userSpaceOnUse" gradientTransform="translate(90.3193 119.754) rotate(54.4048) scale(60.6064 97.5192)">
<stop offset="0.106709" stop-color="#D8D8D8" stop-opacity="0.9"/>
<stop offset="0.523143" stop-color="#D8D8D8" stop-opacity="1"/>
<stop offset="0.838207" stop-color="#D8D8D8" stop-opacity="0.5"/>
</radialGradient>
<radialGradient id="paint1_angular" cx="0" cy="0" r="1" gradientUnits="userSpaceOnUse" gradientTransform="translate(88.1999 60.992) rotate(49.0755) scale(43.6145 86.2752)">
<stop offset="0.11393" stop-color="#DBDBDB"/>
<stop offset="0.757463" stop-color="#E4E4E4" stop-opacity="0.9"/>
<stop offset="0.907911" stop-color="#E4E4E4" stop-opacity="0.4"/>
</radialGradient>
</defs>
</svg>
