<svg width="15" height="16" viewBox="0 0 15 16" fill="none" xmlns="http://www.w3.org/2000/svg">
<path fill-rule="evenodd" clip-rule="evenodd" d="M7.50028 2.08151C8.93301 3.62213 10.8084 4.68282 12.8668 5.11691V5.20583C12.8668 8.96429 10.8949 12.4472 7.67207 14.3809L7.50036 14.484L7.32852 14.3809C4.10555 12.4471 2.1335 8.96417 2.1335 5.2056V5.1169C4.19201 4.68279 6.06744 3.62213 7.50028 2.08151ZM8.34093 15.4957L7.50038 16L6.65969 15.4956C3.04514 13.3269 0.833496 9.42082 0.833496 5.2056V4C3.09045 3.7948 5.17288 2.73857 6.66865 1.06418C6.85824 0.851953 7.03841 0.629793 7.2083 0.398177L7.50038 0L7.79152 0.39707C7.96165 0.629106 8.14208 0.851655 8.33197 1.06424C9.8276 2.73861 11.9099 3.79484 14.1668 4V5.20583C14.1668 9.42092 11.9553 13.327 8.34093 15.4957ZM4.70681 9.87368L6.58092 7.99957L4.7076 6.12625L5.62684 5.20701L7.50016 7.08033L9.37347 5.20701L10.2927 6.12625L8.4194 7.99957L10.2935 9.87368L9.37427 10.7929L7.50016 8.91881L5.62605 10.7929L4.70681 9.87368Z" fill="#ADADAD"/>
</svg>
