<svg width="15" height="16" viewBox="0 0 15 16" fill="none" xmlns="http://www.w3.org/2000/svg">
<path fill-rule="evenodd" clip-rule="evenodd" d="M14.0979 5.83016C14.1441 5.24886 14.1668 4.63969 14.1668 4.00024C13.6397 3.94163 13.1434 3.85215 12.6744 3.7318L12.5129 4.3614L12.3513 4.991C12.5125 5.03235 12.6758 5.07033 12.8414 5.10498C12.8312 5.31679 12.8181 5.5241 12.802 5.72706L13.4499 5.77861L14.0979 5.83016ZM5.95376 15.0216L6.3284 14.4904L6.70304 13.9593C6.95596 14.1376 7.22155 14.3134 7.50035 14.487C7.77913 14.3134 8.0447 14.1376 8.2976 13.9593L8.67226 14.4904L9.04692 15.0216C8.56806 15.3594 8.05291 15.6845 7.50038 16.0002C6.94783 15.6845 6.43266 15.3594 5.95376 15.0216ZM9.99169 14.2991L9.57598 13.7994L9.16028 13.2997C10.0489 12.5604 10.7486 11.7674 11.2903 10.8846L11.8443 11.2245L12.3983 11.5644C11.7743 12.5816 10.9765 13.4798 9.99169 14.2991ZM12.9601 10.5166L12.3706 10.2428L11.781 9.96907C12.203 9.06034 12.5032 8.02708 12.6795 6.82308L13.3227 6.91727L13.9658 7.01147C13.7741 8.32038 13.4426 9.47746 12.9601 10.5166ZM2.3259 3.7318C1.8569 3.85215 1.36064 3.94163 0.833496 4.00024C0.833496 4.63971 0.856216 5.24888 0.902462 5.83019L1.55041 5.77865L2.19837 5.7271C2.18222 5.52412 2.16909 5.3168 2.15896 5.10498C2.32454 5.07033 2.48787 5.03235 2.64902 4.991L2.48746 4.3614L2.3259 3.7318ZM1.03455 7.01153L1.67769 6.91733L2.32082 6.82313C2.49718 8.02715 2.79737 9.06042 3.21935 9.96916L2.62981 10.2429L2.04028 10.5167C1.55775 9.47756 1.22627 8.32046 1.03455 7.01153ZM2.60213 11.5645L3.15616 11.2246L3.71018 10.8847C4.25186 11.7675 4.95164 12.5605 5.84031 13.2997L5.42463 13.7994L5.00895 14.2991C4.02404 13.4798 3.22623 12.5817 2.60213 11.5645ZM8.45236 1.18012C8.41432 1.13879 8.37647 1.09701 8.33882 1.0548C8.19275 0.891001 8.0496 0.72056 7.90903 0.543475C7.77035 0.368782 7.63418 0.187624 7.50016 0C7.36615 0.187624 7.22997 0.368782 7.0913 0.543475C6.95072 0.72056 6.80758 0.891002 6.6615 1.0548C6.62385 1.09701 6.58601 1.13879 6.54797 1.18012L7.02622 1.62032L7.44981 2.01021C7.46512 2.02703 7.48047 2.0438 7.49585 2.06052L7.50016 2.05655L7.50447 2.06052C7.51986 2.04381 7.5352 2.02704 7.55051 2.01022L7.97411 1.62032L8.45236 1.18012ZM5.84556 1.87165L6.27697 2.35784L6.70839 2.84403C5.83197 3.62171 4.84989 4.22787 3.72484 4.65228L3.49542 4.04411L3.26601 3.43594C4.2367 3.06977 5.08295 2.54834 5.84556 1.87165ZM11.7343 3.43594L11.5049 4.04411L11.2755 4.65228C10.1504 4.22787 9.16836 3.62171 8.29194 2.84403L8.72335 2.35784L9.15477 1.87165C9.91737 2.54834 10.7636 3.06977 11.7343 3.43594Z" fill="#ADADAD"/>
</svg>
