<?xml version="1.0" encoding="UTF-8"?>
<svg width="24px" height="24px" viewBox="0 0 24 24" version="1.1" xmlns="http://www.w3.org/2000/svg" xmlns:xlink="http://www.w3.org/1999/xlink" style="background: #4B4B4B;">
    <!-- Generator: sketchtool 61.2 (101010) - https://sketch.com -->
    <title>7875A668-939D-4B2F-BA3F-4987E3CE39C6</title>
    <desc>Created with sketchtool.</desc>
    <g id="Symbols" stroke="none" stroke-width="1" fill="none" fill-rule="evenodd">
        <g id="Icon-/-Category-/-Book">
            <rect fill="none" x="0" y="0" width="24" height="24"></rect>
            <path d="M13.9414421,21.9240022 C16.7391895,20.4471365 20.7853213,20.0442044 22.7859352,19.9339448 C23.4690119,19.8962113 24,19.3219253 24,18.6335277 L24,4.3044188 C24.0003947,3.5532701 23.3792041,2.95819134 22.6342808,3.00230346 C20.4181122,3.13422563 16.0132625,3.61436436 13.2939884,5.36008612 C13.1063556,5.48057641 13,5.69475838 13,5.918674 L13,21.3518286 C13,21.8417424 13.5107673,22.1513556 13.9414421,21.9240022 Z M11,21.3533401 L11,5.9108195 C11,5.68646624 10.8940394,5.48079182 10.7060116,5.35989701 C7.98713235,3.61431513 3.58228257,3.13462904 1.366114,3.00230328 C0.621190688,2.95819469 0,3.55322577 0,4.30431428 L0,18.6326892 C0,19.3214458 0.530987908,19.8956858 1.21402516,19.9330021 C3.21546846,20.0432943 7.26365392,20.4466083 10.0613619,21.9241839 C10.4908519,22.1510636 11,21.8418893 11,21.3533401 Z" id="Book" fill="#EDEDED"></path>
        </g>
    </g>
</svg>