<svg width="16" height="16" viewBox="0 0 16 16" fill="none" xmlns="http://www.w3.org/2000/svg">
<path fill-rule="evenodd" clip-rule="evenodd" d="M6.8135 2.2026C7.14645 1.95992 7.55655 1.81672 8.0001 1.81672C8.44365 1.81672 8.85375 1.95992 9.1867 2.2026H6.8135ZM4.69972 3.5026C4.68895 3.6114 4.68343 3.72175 4.68343 3.83339C4.68343 5.66513 6.16835 7.15006 8.0001 7.15006C9.83184 7.15006 11.3168 5.66513 11.3168 3.83339C11.3168 2.00165 9.83184 0.516724 8.0001 0.516724C6.76113 0.516724 5.68083 1.19607 5.11139 2.2026H3.34291V3.5026H4.69972ZM6.01043 3.5026H9.98977C10.0075 3.61023 10.0168 3.72073 10.0168 3.83339C10.0168 4.94716 9.11387 5.85006 8.0001 5.85006C6.88632 5.85006 5.98343 4.94716 5.98343 3.83339C5.98343 3.72073 5.99267 3.61023 6.01043 3.5026ZM2.6501 14.6667C2.6501 11.712 5.04537 9.31672 8.0001 9.31672C10.9548 9.31672 13.3501 11.712 13.3501 14.6667H14.6501C14.6501 10.994 11.6728 8.01672 8.0001 8.01672C4.3274 8.01672 1.3501 10.994 1.3501 14.6667H2.6501ZM11.3334 12.6501L8.66676 12.6501V11.3501H11.3334L11.3334 12.6501Z" fill="#ADADAD"/>
</svg>
