<?xml version="1.0" encoding="UTF-8"?>
<svg width="16px" height="16px" viewBox="0 0 16 16" version="1.1" xmlns="http://www.w3.org/2000/svg" xmlns:xlink="http://www.w3.org/1999/xlink">
    <!-- Generator: sketchtool 61.2 (101010) - https://sketch.com -->
    <title>C9618616-32D4-4BF5-8664-57F18D37C87A</title>
    <desc>Created with sketchtool.</desc>
    <g id="Symbols" stroke="none" stroke-width="1" fill="none" fill-rule="evenodd">
        <g id="Icon-/-Mini-/-Reply" fill="#5AE4AA" fill-rule="nonzero">
            <path d="M7.46842878,13 C7.86196769,13 8.14977974,12.7133028 8.14977974,12.3348624 L8.14977974,10.2993119 L8.30249633,10.2993119 C10.4170338,10.2993119 11.7386197,10.8497706 12.6725404,12.5642202 C12.8722467,12.9254587 13.1365639,12.9942661 13.3891336,12.9942661 C13.7180617,12.9942661 14,12.6961009 14,12.1571101 C14,8.17201835 12.2437592,5.70642202 8.30249633,5.70642202 L8.14977974,5.70642202 L8.14977974,3.69380734 C8.14977974,3.31536697 7.86196769,3 7.45668135,3 C7.17474302,3 6.99853157,3.13188073 6.68135095,3.3956422 L2.28781204,7.39793578 C2.0763583,7.6043578 2,7.81077982 2,8 C2,8.18348624 2.08223201,8.3956422 2.28781204,8.59633028 L6.68135095,12.6387615 C6.969163,12.8738532 7.18649046,13 7.46842878,13 Z" id=""></path>
        </g>
    </g>
</svg>