<?xml version="1.0" encoding="UTF-8"?>
<svg width="24px" height="24px" viewBox="0 0 24 24" version="1.1" xmlns="http://www.w3.org/2000/svg" xmlns:xlink="http://www.w3.org/1999/xlink">
    <!-- Generator: sketchtool 61.2 (101010) - https://sketch.com -->
    <title>79425062-C381-4EF2-8E37-65B4A51A1EC6</title>
    <desc>Created with sketchtool.</desc>
    <g id="7.-Menu" stroke="none" stroke-width="1" fill="none" fill-rule="evenodd">
        <g id="Menu-/-Company-/-Hover" transform="translate(-33.000000, -213.000000)" fill="#EDEDED">
            <g id="Icon-/-Category-/-Stack" transform="translate(33.000000, 213.000000)">
                <path d="M12.4987037,11.8917606 L23.4177603,6.93844905 C24.1935306,6.58642963 24.1935306,5.41409966 23.4177603,5.06208024 L12.4992073,0.108310918 C12.3680125,0.0483440201 12.1444413,-0.000316142163 12.0002003,-0.000316142163 C11.8559593,-0.000316142163 11.6324338,0.0483440201 11.5012391,0.108310918 L0.581724687,5.06162247 C-0.194045558,5.4136419 -0.194045558,6.58642963 0.581724687,6.93844905 L11.5007355,11.8917606 C11.8195214,12.0365967 12.1799636,12.0365967 12.4987037,11.8917606 Z M12.4987037,17.9010847 L23.4182181,12.9515725 C24.1939883,12.6000109 24.1939883,11.4281387 23.4182181,11.076577 L20.6952632,9.84235753 L13.1184227,13.2769044 C12.7640229,13.4376706 12.3876047,13.5192439 11.9999714,13.5192439 C11.612338,13.5192439 11.2363776,13.4376706 10.8815201,13.2769044 L3.30513738,9.84235753 L0.581724687,11.076577 C-0.194045558,11.4281387 -0.194045558,12.6000109 0.581724687,12.9515725 L11.5007355,17.9010847 C11.8195214,18.045463 12.1799636,18.045463 12.4987037,17.9010847 Z M12.4987037,23.891732 L23.4182181,18.9421741 C24.1939883,18.5906124 24.1939883,17.4187402 23.4182181,17.0671786 L20.7055628,15.8376741 L13.1184227,19.2768901 C12.7640229,19.4376563 12.3876047,19.5192296 11.9999714,19.5192296 C11.612338,19.5192296 11.2363776,19.4376563 10.8815201,19.2768901 L3.29483773,15.8376741 L0.581724687,17.0671786 C-0.194045558,17.4187402 -0.194045558,18.5906124 0.581724687,18.9421741 L11.5007355,23.891732 C11.8195214,24.0360645 12.1799636,24.0360645 12.4987037,23.891732 Z" id="stack"></path>
            </g>
        </g>
    </g>
</svg>