<?xml version="1.0" encoding="UTF-8"?>
<svg width="48px" height="48px" viewBox="0 0 48 48" version="1.1" xmlns="http://www.w3.org/2000/svg" xmlns:xlink="http://www.w3.org/1999/xlink">
    <!-- Generator: Sketch 56.2 (81672) - https://sketch.com -->
    <title>eye grey</title>
    <desc>Created with Sketch.</desc>
    <g id="eye-grey" stroke="none" stroke-width="1" fill="none" fill-rule="evenodd">
        <g id="eye-frame-grey" fill="#8A8A8A" fill-rule="nonzero" stroke="#8A8A8A" stroke-width="0.5">
            <path d="M24,33.3333333 C18.5555556,33.3333333 13.8888889,30.2222222 10,24 C13.8888889,17.7777778 18.5555556,14.6666667 24,14.6666667 C29.4444444,14.6666667 34.1111111,17.7777778 38,24 C34.1111111,30.2222222 29.4444444,33.3333333 24,33.3333333 Z M24,16.6666667 C19.6167895,16.6666667 15.7727667,19.0412858 12.3879709,24 C15.7727667,28.9587142 19.6167895,31.3333333 24,31.3333333 C28.3832105,31.3333333 32.2272333,28.9587142 35.6120291,24 C32.2272333,19.0412858 28.3832105,16.6666667 24,16.6666667 Z M24,30 C20.6862915,30 18,27.3137085 18,24 C18,20.6862915 20.6862915,18 24,18 C27.3137085,18 30,20.6862915 30,24 C30,27.3137085 27.3137085,30 24,30 Z M24,28 C26.209139,28 28,26.209139 28,24 C28,21.790861 26.209139,20 24,20 C21.790861,20 20,21.790861 20,24 C20,26.209139 21.790861,28 24,28 Z M16,40 L16,42 L11,42 C8.23857625,42 6,39.7614237 6,37 L6,32 L8,32 L8,37 C8,38.6568542 9.34314575,40 11,40 L16,40 Z M32,40 L37,40 C38.6568542,40 40,38.6568542 40,37 L40,32 L42,32 L42,37 C42,39.7614237 39.7614237,42 37,42 L32,42 L32,40 Z M16,8 L11,8 C9.34314575,8 8,9.34314575 8,11 L8,16 L6,16 L6,11 C6,8.23857625 8.23857625,6 11,6 L16,6 L16,8 Z M32,8 L32,6 L37,6 C39.7614237,6 42,8.23857625 42,11 L42,16 L40,16 L40,11 C40,9.34314575 38.6568542,8 37,8 L32,8 Z" id="mcam-view-icon"></path>
        </g>
    </g>
</svg>