<?xml version="1.0" encoding="UTF-8"?>
<svg width="16px" height="16px" viewBox="0 0 16 16" version="1.1" xmlns="http://www.w3.org/2000/svg" xmlns:xlink="http://www.w3.org/1999/xlink">
    <!-- Generator: sketchtool 61.2 (101010) - https://sketch.com -->
    <title>5135B96E-5859-4BFC-A941-CA88540F2A75</title>
    <desc>Created with sketchtool.</desc>
    <g id="Symbols" stroke="none" stroke-width="1" fill="none" fill-rule="evenodd">
        <g id="Complete-/-Object-/-Header" transform="translate(-504.000000, -191.000000)" fill="#787878" fill-rule="nonzero">
            <g id="Group-5" transform="translate(504.000000, 88.000000)">
                <g id="Group-2" transform="translate(0.000000, 100.000000)">
                    <g id="Icon-/-Mini-/-Key" transform="translate(0.000000, 3.000033)">
                        <path d="M4.24998987,15.9999619 C4.66420397,15.9999619 4.99998808,15.6641777 4.99998808,15.2499636 L4.99998808,13.9999666 L6.2499851,13.9999666 C6.6641992,13.9999666 6.99998331,13.6641825 6.99998331,13.2499684 L6.99998331,11.9999714 L8.16321906,11.9999714 C8.34913171,11.9999714 8.60026026,11.8872092 8.7237646,11.748263 L9.47412902,10.9040573 C9.80652569,10.9668012 10.1493593,10.9999738 10.499975,10.9999738 C13.5375349,10.9999738 15.9999619,8.5375773 15.9999619,5.5000174 C15.9999619,2.45345484 13.5464765,0 10.4999444,0 C7.46238455,0 4.99998808,2.46242699 4.99998808,5.49998689 C4.99998808,6.10221934 5.0971253,6.68168573 5.27595788,7.2239818 L0.219665004,12.2802747 C0.0790403389,12.4209299 0,12.6117253 0,12.8106384 L0,15.2499636 C0,15.6641777 0.335784112,15.9999619 0.749998212,15.9999619 L4.24998987,15.9999619 Z M11.999975,5.49999404 C11.1715432,5.49999404 10.499975,4.82841866 10.499975,3.99999404 C10.499975,3.17156226 11.1715432,2.49999404 11.999975,2.49999404 C12.8283996,2.49999404 13.499975,3.17156226 13.499975,3.99999404 C13.499975,4.82841866 12.8283996,5.49999404 11.999975,5.49999404 Z" id=""></path>
                    </g>
                </g>
            </g>
        </g>
    </g>
</svg>