<svg width="88" height="88" viewBox="0 0 88 88" fill="none" xmlns="http://www.w3.org/2000/svg">
<g clip-path="url(#clip0_5347_478580)">
<path d="M57.561 34.8103L40.1439 52.2274L30.6683 42.7492" stroke="#DBDBDB" stroke-width="3"/>
</g>
<path d="M16.3404 43.8423L1.58203 44.2802M20.0006 30.1821L13.0365 26.1199M32.1473 23.1692L24.1473 9.31277M19.8763 57.9667L12.9481 61.9667M30.3404 68.0911L22.582 80.6532M44.0006 71.7513L44.0365 79.8135M63.8973 78.1618L56.1473 64.7384M57.9096 19.8423L65.6679 7.28017M44.2493 16.1821L44.2134 8.11991M68.3737 29.9667L75.3019 25.9667M71.9096 44.0911L86.6679 43.6532M68.2493 57.7513L75.2134 61.8135" stroke="#DBDBDB" stroke-width="1.5"/>
<defs>
<clipPath id="clip0_5347_478580">
<rect width="32" height="32" fill="white" transform="translate(28 28)"/>
</clipPath>
</defs>
</svg>
