<svg width="136" height="136" viewBox="0 0 136 136" fill="none" xmlns="http://www.w3.org/2000/svg">
<path d="M0 68C0 30.4446 30.4446 0 68 0C105.555 0 136 30.4446 136 68C136 105.555 105.555 136 68 136C30.4446 136 0 105.555 0 68Z" fill="#404040"/>
<path d="M80.9156 32.5785L73.3262 30.5449L71.2926 38.1343L78.882 40.1679L80.9156 32.5785Z" fill="#DBDBDB"/>
<path d="M64.6265 37.0336L57.0371 35L55.0035 42.5894L62.5929 44.623L64.6265 37.0336Z" fill="#DBDBDB"/>
<path d="M100.648 31.0429L93.3633 28.0996L90.4199 35.3846L97.705 38.328L100.648 31.0429Z" fill="#DBDBDB"/>
<path d="M95.615 65.3475L88.8105 61.4189L84.882 68.2234L91.6865 72.152L95.615 65.3475Z" fill="#DBDBDB"/>
<path d="M40 75C56.5503 71.1305 68.5503 58.1305 76 36" stroke="#DBDBDB" stroke-width="1.5"/>
<path d="M40 62C52.6437 57.6185 57.0442 48.345 59 42" stroke="#DBDBDB" stroke-width="1.5"/>
<path d="M40 104C63.2914 98.7571 79.9581 86.7571 90 68" stroke="#DBDBDB" stroke-width="1.5"/>
<path d="M40 89C65.319 81.7153 83.9857 63.0486 96 33" stroke="#DBDBDB" stroke-width="1.5"/>
<path d="M135.167 116C135.167 126.585 126.586 135.166 116.001 135.166C105.415 135.166 96.834 126.585 96.834 116C96.834 105.414 105.415 96.833 116.001 96.833C126.586 96.833 135.167 105.414 135.167 116Z" fill="#FF725C"/>
<path fill-rule="evenodd" clip-rule="evenodd" d="M114.587 116L108.223 122.364L109.637 123.779L116.001 117.415L122.364 123.778L123.778 122.364L117.415 116L123.779 109.636L122.365 108.222L116.001 114.586L109.636 108.221L108.222 109.636L114.587 116Z" fill="black"/>
</svg>
