<svg width="88" height="88" viewBox="0 0 88 88" fill="none" xmlns="http://www.w3.org/2000/svg">
<g clip-path="url(#clip0_5347_476313)">
<path d="M40.0154 7.53684L38.0613 0.226562" stroke="#DBDBDB" stroke-width="1.5"/>
<path d="M30.6278 9.66582L24.9187 3.93848" stroke="#DBDBDB" stroke-width="1.5"/>
<path d="M20.0813 16.7943L12.6191 14.7988" stroke="#DBDBDB" stroke-width="1.5"/>
<path d="M18.5677 30.1572L11.1248 32.1527" stroke="#DBDBDB" stroke-width="1.5"/>
<path d="M18.8168 48.7207L13.8452 53.6997" stroke="#DBDBDB" stroke-width="1.5"/>
<path d="M74.6054 53.7004L69.1836 48.2705" stroke="#DBDBDB" stroke-width="1.5"/>
<path d="M76.8758 32.0374L69.4329 30.042" stroke="#DBDBDB" stroke-width="1.5"/>
<path d="M75.4772 14.8848L68.0725 16.8802" stroke="#DBDBDB" stroke-width="1.5"/>
<path d="M63.5127 3.95801L57.8228 9.65657" stroke="#DBDBDB" stroke-width="1.5"/>
<path d="M50.3894 0.197266L48.4353 7.51713" stroke="#DBDBDB" stroke-width="1.5"/>
</g>
<path fill-rule="evenodd" clip-rule="evenodd" d="M28.4098 14.6427C32.4171 12.5499 37.9837 11.0098 44.302 11.0098C50.6211 11.0098 56.0413 12.5503 59.9033 14.6485C61.8328 15.6967 63.3943 16.8956 64.4831 18.1319C65.5614 19.3561 66.2361 20.6879 66.2361 21.9879V69.8677C66.2361 76.4099 63.4198 80.6814 59.2074 83.274C55.0481 85.8339 49.5908 86.7222 44.3004 86.7107H44.3005L44.302 85.9607L44.3004 86.7107C39.3133 86.7007 33.7141 85.962 29.3366 83.4921C24.8993 80.9886 21.7644 76.7268 21.7644 69.8677V21.9879C21.7644 20.6715 22.4929 19.3348 23.6252 18.1169C24.7715 16.884 26.4076 15.6883 28.4098 14.6427ZM24.7238 19.1383C23.7089 20.2298 23.2644 21.2159 23.2644 21.9879V69.8677C23.2644 76.1609 26.0858 79.9357 30.0737 82.1857C34.1211 84.4693 39.4156 85.2009 44.3035 85.2107H44.3036C49.4671 85.2219 54.6018 84.3472 58.4211 81.9966C62.1873 79.6787 64.7361 75.8923 64.7361 69.8677V21.9879C64.7361 21.1995 64.3132 20.2085 63.3575 19.1233C62.4124 18.0502 61.0034 16.9532 59.1873 15.9665C55.558 13.9948 50.3862 12.5098 44.302 12.5098C38.217 12.5098 32.8898 13.9953 29.1041 15.9723C27.2098 16.9616 25.7246 18.0619 24.7238 19.1383ZM33.8884 21.5142H54.8779L55.1821 22.1935L44.3586 25.8073L33.5352 22.2789L33.8884 21.5142ZM28.457 39.1668C28.457 37.9166 29.4598 36.9108 30.7045 36.9108H57.3294C58.5768 36.9108 59.5854 37.9194 59.5854 39.1668V58.874C59.5854 60.1187 58.5763 61.13 57.3294 61.13H30.7045C29.4604 61.13 28.457 60.1215 28.457 58.874V39.1668ZM30.7045 35.4108C28.6259 35.4108 26.957 37.0937 26.957 39.1668V58.874C26.957 60.9433 28.6254 62.63 30.7045 62.63H57.3294C59.4058 62.63 61.0854 60.9461 61.0854 58.874V39.1668C61.0854 37.091 59.4053 35.4108 57.3294 35.4108H30.7045Z" fill="#DBDBDB"/>
<defs>
<clipPath id="clip0_5347_476313">
<rect width="66" height="53.9636" fill="white" transform="translate(11.0002 0.0722656)"/>
</clipPath>
</defs>
</svg>
