<svg width="88" height="88" viewBox="0 0 88 88" fill="none" xmlns="http://www.w3.org/2000/svg">
<path fill-rule="evenodd" clip-rule="evenodd" d="M44.0002 80C63.8825 80 80.0002 63.8823 80.0002 44C80.0002 24.1178 63.8825 8 44.0002 8C24.118 8 8.00024 24.1178 8.00024 44C8.00024 63.8823 24.118 80 44.0002 80Z" stroke="#DBDBDB" stroke-width="1.5"/>
<path fill-rule="evenodd" clip-rule="evenodd" d="M37.8076 36.3478C37.8076 34.8808 38.4896 33.7152 39.6082 32.8722C40.7557 32.0075 42.3512 31.5039 44.0001 31.5039C45.7276 31.5039 47.2796 31.9134 48.3674 32.7689C49.3948 33.577 50.1926 34.9258 50.1926 37.2541C50.1926 38.1762 49.8537 38.9486 49.1968 39.7942C48.6868 40.4508 48.0753 41.0488 47.3502 41.7579C47.0622 42.0396 46.7562 42.3388 46.4316 42.6661C44.2142 44.9022 41.8008 47.86 41.8008 53.0815H44.8008C44.8008 49.0108 46.5833 46.7737 48.5618 44.7785C48.8006 44.5377 49.0539 44.2901 49.3129 44.037L49.3132 44.0367C50.0909 43.2765 50.9203 42.4659 51.566 41.6346C52.4826 40.4547 53.1926 39.0508 53.1926 37.2541C53.1926 34.1448 52.0753 31.8685 50.222 30.4109C48.4291 29.0007 46.1349 28.5039 44.0001 28.5039C41.7868 28.5039 39.536 29.1702 37.8027 30.4764C36.0406 31.8043 34.8076 33.8107 34.8076 36.3478H37.8076ZM45.3758 58.6165C45.3757 57.5119 44.4803 56.6165 43.3757 56.6165C42.2712 56.6166 41.3757 57.512 41.3758 58.6166L41.3758 58.748C41.3758 59.8526 42.2712 60.748 43.3758 60.748C44.4804 60.748 45.3758 59.8525 45.3758 58.748L45.3758 58.6165Z" fill="#DBDBDB"/>
</svg>
