<svg width="40" height="40" viewBox="0 0 40 40" fill="none" xmlns="http://www.w3.org/2000/svg">
<circle cx="20" cy="20" r="19.25" stroke="#5E5E5E" stroke-width="1.5"/>
<g clip-path="url(#clip0)">
<circle cx="20" cy="20" r="1.5" fill="#5E5E5E" stroke="#5E5E5E" stroke-width="1.5"/>
<path fill-rule="evenodd" clip-rule="evenodd" d="M9.75 20C9.75 14.3391 14.3391 9.75 20 9.75C25.6609 9.75 30.25 14.3391 30.25 20C30.25 23.7376 28.2496 27.0079 25.2609 28.7987L26.2862 29.9288C29.5703 27.8452 31.75 24.1771 31.75 20C31.75 13.5107 26.4893 8.25 20 8.25C13.5107 8.25 8.25 13.5107 8.25 20C8.25 24.1771 10.4297 27.8452 13.7138 29.9288L14.7391 28.7987C11.7504 27.0079 9.75 23.7376 9.75 20Z" fill="#5E5E5E"/>
<path fill-rule="evenodd" clip-rule="evenodd" d="M14.75 20C14.75 17.1005 17.1005 14.75 20 14.75C22.8995 14.75 25.25 17.1005 25.25 20C25.25 22.2801 23.7964 24.2208 21.7654 24.9458L22.8368 26.1267C25.1475 25.0551 26.75 22.7147 26.75 20C26.75 16.2721 23.7279 13.25 20 13.25C16.2721 13.25 13.25 16.2721 13.25 20C13.25 22.7147 14.8525 25.0551 17.1632 26.1267L18.2346 24.9458C16.2036 24.2208 14.75 22.2801 14.75 20Z" fill="#5E5E5E"/>
</g>
<defs>
<clipPath id="clip0">
<rect width="24" height="24" fill="white" transform="translate(8 8)"/>
</clipPath>
</defs>
</svg>
