<svg width="40" height="40" viewBox="0 0 40 40" fill="none" xmlns="http://www.w3.org/2000/svg">
<circle cx="20" cy="20" r="19.25" stroke="#5AE4AF" stroke-width="1.5"/>
<path fill-rule="evenodd" clip-rule="evenodd" d="M12.7621 11.0078H13.1466H26.8494H27.2339L27.4583 11.32L31.521 16.9701L31.8574 17.438L31.4919 17.8835L20.5737 31.195C20.5555 31.2202 20.5358 31.2442 20.5148 31.2667L19.9617 31.9411L19.3822 31.2301L8.50258 17.8817L8.13965 17.4365L8.47501 16.9701L12.5377 11.32L12.7621 11.0078ZM22.1642 26.8906L29.9667 17.3778L27.0714 13.3513L22.1642 26.8906ZM25.7816 12.5078L20.7304 26.4444L20.7809 12.5078H25.7816ZM19.2303 26.4869L14.2143 12.5078H19.2809L19.2303 26.4869ZM12.9237 13.3524L17.7823 26.8929L10.0282 17.3793L12.9237 13.3524Z" fill="#5AE4AF"/>
</svg>
