<svg width="40" height="40" viewBox="0 0 40 40" fill="none" xmlns="http://www.w3.org/2000/svg">
<circle cx="20" cy="20" r="19.25" stroke="#5E5E5E" stroke-width="1.5"/>
<g clip-path="url(#clip0)">
<path fill-rule="evenodd" clip-rule="evenodd" d="M12.6689 11.0035H12.2676L12.0449 11.3375L8.35654 16.8701L8.04883 17.3316L8.4001 17.761L19.4644 31.285L20.0448 31.9945L20.6253 31.2851L31.6912 17.761L32.0426 17.3317L31.7348 16.8701L28.0465 11.3375L27.8238 11.0035H27.4224H20.0457H12.6689ZM9.91233 17.2405L13.0703 12.5035H20.0457H27.021L30.179 17.2405L29.4884 18.0845C29.0059 17.856 28.3097 17.5555 27.4352 17.2557C25.6772 16.6531 23.187 16.0497 20.258 16.0497C17.3308 16.0497 14.7398 16.6524 12.8849 17.2515C11.9558 17.5515 11.207 17.8522 10.6876 18.0792C10.6653 18.0889 10.6435 18.0986 10.622 18.108L9.91233 17.2405ZM11.6106 19.3163L13.7285 21.9051C14.1107 21.7984 14.6383 21.6609 15.2651 21.5235C16.577 21.2359 18.3478 20.9433 20.1384 20.9433C21.93 20.9433 23.6576 21.2362 24.9278 21.5247C25.5132 21.6576 26.0062 21.7907 26.3695 21.8962L28.5067 19.2843C28.0983 19.1026 27.5738 18.8889 26.9488 18.6747C25.3069 18.1118 22.9836 17.5497 20.258 17.5497C17.5304 17.5497 15.0993 18.1126 13.3459 18.6789C12.6497 18.9037 12.0632 19.1282 11.6106 19.3163ZM25.3304 23.1662C25.1088 23.1087 24.8626 23.0481 24.5956 22.9875C23.3876 22.7131 21.7788 22.4433 20.1384 22.4433C18.4968 22.4433 16.842 22.7134 15.5862 22.9887C15.2891 23.0538 15.0158 23.1189 14.7718 23.1803L16.8228 25.6873C17.0389 25.6596 17.3046 25.627 17.5974 25.5944C18.3504 25.5105 19.3129 25.4231 20.0751 25.4231C20.838 25.4231 21.7842 25.5106 22.5213 25.5946C22.8035 25.6267 23.0593 25.6588 23.2683 25.6863L25.3304 23.1662ZM22.1429 27.0618C21.4621 26.988 20.6855 26.9231 20.0751 26.9231C19.4562 26.9231 18.6528 26.9898 17.9498 27.0648L20.0449 29.6257L22.1429 27.0618Z" fill="#5E5E5E"/>
</g>
<defs>
<clipPath id="clip0">
<rect width="24" height="24" fill="white" transform="translate(8 9)"/>
</clipPath>
</defs>
</svg>
