<svg width="40" height="40" viewBox="0 0 40 40" fill="none" xmlns="http://www.w3.org/2000/svg">
<circle cx="20" cy="20" r="19.25" stroke="#5AE4AA" stroke-width="1.5"/>
<path d="M25.3184 23.3377C25.8018 22.8542 26.1853 22.2803 26.4469 21.6487C26.7085 21.017 26.8432 20.3401 26.8432 19.6564C26.8432 18.9727 26.7085 18.2957 26.4469 17.6641C26.1853 17.0324 25.8018 16.4585 25.3184 15.9751" stroke="#5AE4AA" stroke-width="1.5"/>
<path d="M23.0566 21.0767C23.2431 20.8902 23.391 20.6688 23.4919 20.4252C23.5929 20.1816 23.6448 19.9205 23.6448 19.6567C23.6448 19.393 23.5929 19.1319 23.4919 18.8883C23.391 18.6447 23.2431 18.4233 23.0566 18.2368" stroke="#5AE4AA" stroke-width="1.5"/>
<path d="M14.6777 23.3381C14.1943 22.8547 13.8108 22.2808 13.5492 21.6492C13.2876 21.0175 13.1529 20.3405 13.1529 19.6569C13.1529 18.9732 13.2876 18.2962 13.5492 17.6646C13.8108 17.0329 14.1943 16.459 14.6777 15.9756" stroke="#5AE4AA" stroke-width="1.5"/>
<path d="M16.9375 21.078C16.7509 20.8913 16.6028 20.6697 16.5018 20.4259C16.4008 20.182 16.3488 19.9206 16.3488 19.6567C16.3488 19.3927 16.4008 19.1313 16.5018 18.8874C16.6028 18.6436 16.7509 18.422 16.9375 18.2354" stroke="#5AE4AA" stroke-width="1.5"/>
<rect x="31" y="11" width="18" height="22" transform="rotate(90 31 11)" stroke="#5AE4AA" stroke-width="1.5" stroke-dasharray="4 3"/>
</svg>
