<svg width="80" height="80" viewBox="0 0 80 80" fill="none" xmlns="http://www.w3.org/2000/svg">
<path d="M2.50024 33.3791V46.6208C2.50024 47.9468 3.44923 49.0884 4.76761 49.3485L14.1628 51.0448C14.4502 51.0967 14.7006 51.2717 14.8481 51.5237L17.2899 55.6947C17.446 55.9614 17.4701 56.2853 17.355 56.5722L13.7581 65.5393C13.3273 66.7953 13.8553 68.1766 15.0196 68.8396L26.6475 75.4605C27.8119 76.1235 29.2889 75.8838 30.1764 74.8878L36.7807 67.5739C36.9703 67.3639 37.2399 67.2441 37.5229 67.2441L42.4776 67.2441C42.7605 67.2441 43.0302 67.3639 43.2198 67.5739L49.8241 74.8878C50.7116 75.8838 52.1886 76.1235 53.353 75.4605L64.9809 68.8396C66.1452 68.1766 66.6732 66.7953 66.2424 65.5393L62.6455 56.5722C62.5304 56.2854 62.5545 55.9614 62.7106 55.6947L65.1524 51.5237C65.2999 51.2716 65.5503 51.0967 65.8377 51.0448L75.2329 49.3485C76.5513 49.0884 77.5002 47.9468 77.5002 46.6208V33.3791C77.5002 32.0531 76.5513 30.9115 75.2329 30.6514L65.8377 28.9551C65.5503 28.9032 65.2999 28.7283 65.1524 28.4762L62.7106 24.3052C62.5545 24.0385 62.5304 23.7146 62.6455 23.4277L66.2424 14.4607C66.6732 13.2046 66.1452 11.8233 64.9809 11.1603L53.353 4.53942C52.1886 3.87643 50.7116 4.11614 49.8241 5.11214L43.2198 12.426C43.0302 12.636 42.7605 12.7558 42.4776 12.7558L37.5229 12.7558C37.2399 12.7558 36.9703 12.636 36.7807 12.426L30.1764 5.11214C29.2889 4.11614 27.8119 3.87643 26.6475 4.53942L15.0196 11.1603C13.8553 11.8233 13.3273 13.2046 13.7581 14.4607L17.355 23.4277C17.4701 23.7146 17.446 24.0385 17.2899 24.3052L14.8481 28.4762C14.7006 28.7283 14.4502 28.9032 14.1628 28.9551L4.76761 30.6515C3.44923 30.9115 2.50024 32.0531 2.50024 33.3791Z" stroke="#DBDBDB" stroke-width="1.5"/>
<path d="M55.7856 40.0001L32.1074 53.6707L32.1074 26.3295L55.7856 40.0001Z" fill="#DBDBDB"/>
</svg>
