<svg width="40" height="40" viewBox="0 0 40 40" fill="none" xmlns="http://www.w3.org/2000/svg">
<circle cx="20" cy="20" r="19.25" stroke="#5AE4AF" stroke-width="1.5"/>
<path fill-rule="evenodd" clip-rule="evenodd" d="M20 9.75C18.3144 9.75 16.6548 10.1657 15.1682 10.9603C13.6816 11.7549 12.4139 12.9039 11.4774 14.3054C10.541 15.7069 9.96458 17.3178 9.79936 18.9953C9.63414 20.6728 9.88518 22.3652 10.5302 23.9225C11.1753 25.4798 12.1945 26.854 13.4975 27.9234C14.8005 28.9927 16.3471 29.7242 18.0003 30.053C19.6536 30.3819 21.3624 30.2979 22.9754 29.8086C24.5885 29.3193 26.0559 28.4398 27.2478 27.2478L28.3085 28.3085C26.9422 29.6748 25.2599 30.6831 23.4108 31.244C21.5618 31.805 19.6029 31.9012 17.7077 31.5242C15.8125 31.1473 14.0396 30.3087 12.5459 29.0829C11.0522 27.857 9.88388 26.2817 9.14442 24.4965C8.40496 22.7113 8.11718 20.7713 8.30658 18.8483C8.49598 16.9253 9.15671 15.0787 10.2302 13.472C11.3038 11.8654 12.757 10.5483 14.4611 9.63743C16.1652 8.72655 18.0677 8.25 20 8.25V9.75ZM25.1687 9.46782C24.4818 9.13485 23.7581 8.86694 23.0061 8.67188L22.6295 10.1238C23.2847 10.2938 23.9155 10.5273 24.5145 10.8176L25.1687 9.46782ZM28.8258 12.2321C28.3139 11.6579 27.7467 11.1348 27.133 10.6708L26.2284 11.8673C26.7641 12.2723 27.2593 12.7291 27.7062 13.2304L28.8258 12.2321ZM31.1512 16.1843C30.8961 15.4505 30.5707 14.7508 30.1834 14.093L28.8908 14.854C29.2285 15.4276 29.5121 16.0375 29.7344 16.6768L31.1512 16.1843ZM31.7917 19.5729C31.776 19.185 31.7417 18.802 31.6895 18.4248L30.2037 18.6303C30.2492 18.9595 30.2792 19.2941 30.2929 19.6335C30.3103 20.0632 30.301 20.4874 30.2665 20.9047L31.7614 21.0282C31.8009 20.5498 31.8116 20.0641 31.7917 19.5729ZM30.604 25.2195C30.8173 24.7852 31.0045 24.3362 31.1637 23.8743L29.7456 23.3856C29.6068 23.788 29.4436 24.1795 29.2577 24.5582C29.1224 24.8335 28.9752 25.102 28.8165 25.3631L30.0983 26.1422C30.2802 25.843 30.449 25.5352 30.604 25.2195ZM17 25.1962L26 20L17 14.8038L17 25.1962Z" fill="#5AE4AF"/>
</svg>
