<svg width="40" height="40" viewBox="0 0 40 40" fill="none" xmlns="http://www.w3.org/2000/svg">
<circle cx="20" cy="20" r="19.25" stroke="#5AE4AF" stroke-width="1.5"/>
<path fill-rule="evenodd" clip-rule="evenodd" d="M16.75 13.75C16.75 11.9551 18.2051 10.5 20 10.5C21.7949 10.5 23.25 11.9551 23.25 13.75C23.25 15.5449 21.7949 17 20 17C18.2051 17 16.75 15.5449 16.75 13.75ZM20 9C17.3766 9 15.25 11.1266 15.25 13.75C15.25 16.3734 17.3766 18.5 20 18.5C22.6234 18.5 24.75 16.3734 24.75 13.75C24.75 11.1266 22.6234 9 20 9ZM11.75 30C11.75 25.4437 15.4437 21.75 20 21.75C24.5563 21.75 28.25 25.4437 28.25 30H29.75C29.75 24.6152 25.3848 20.25 20 20.25C14.6152 20.25 10.25 24.6152 10.25 30H11.75Z" fill="#5AE4AF"/>
</svg>
