<svg width="40" height="40" viewBox="0 0 40 40" fill="none" xmlns="http://www.w3.org/2000/svg">
<circle cx="20" cy="20" r="19.25" stroke="#5AE4AF" stroke-width="1.5"/>
<path fill-rule="evenodd" clip-rule="evenodd" d="M20.0566 13.5721C16.1924 13.507 12.4358 14.8456 9.48364 17.3397L8.51562 16.1938C11.7452 13.4655 15.8547 12.0011 20.0818 12.0723C24.3089 12.1435 28.3668 13.7454 31.5027 16.581L30.4966 17.6936C27.6301 15.1015 23.9207 13.6372 20.0566 13.5721ZM11.9172 20.5242C14.0898 18.6889 16.8542 17.7038 19.6978 17.7517C22.5414 17.7996 25.2712 18.8772 27.3807 20.7847L28.3867 19.6721C26.0079 17.5211 22.9297 16.3059 19.7231 16.2519C16.5165 16.1979 13.3991 17.3087 10.9492 19.3784L11.9172 20.5242ZM19.8655 24.8937C18.7417 24.8748 17.6492 25.2641 16.7906 25.9894L19.7873 29.5366L22.9018 26.0924C22.0681 25.3385 20.9893 24.9127 19.8655 24.8937ZM14.8762 23.7246C16.283 22.5362 18.073 21.8983 19.9144 21.9293C21.7557 21.9603 23.5232 22.6581 24.8892 23.8932L25.8952 22.7806C24.26 21.302 22.1439 20.4666 19.9396 20.4295C17.7353 20.3924 15.5923 21.156 13.9082 22.5788L14.8762 23.7246Z" fill="#5AE4AF"/>
</svg>
