<svg width="40" height="40" viewBox="0 0 40 40" fill="none" xmlns="http://www.w3.org/2000/svg">
<circle cx="20" cy="20" r="19.25" stroke="#5AE4AA" stroke-width="1.5"/>
<path fill-rule="evenodd" clip-rule="evenodd" d="M13.0139 11.0176H12.6313L12.4067 11.3273L8.39179 16.8638C8.38101 16.8776 8.3707 16.8918 8.36089 16.9064L8.03711 17.3529L8.38738 17.7798C8.39784 17.7935 8.40876 17.8068 8.42012 17.8197L19.4515 31.2654L20.0332 31.9744L20.5668 31.3198C20.6026 31.284 20.6349 31.2445 20.6629 31.2019L26.9759 23.4586C27.0504 23.3966 27.1126 23.3205 27.1586 23.2345L31.5904 17.7985L31.955 17.3514L31.6163 16.8843L27.5865 11.3273L27.3619 11.0176H26.9793H20.0363H13.0139ZM26.1224 22.1317L29.43 18.0746H20.7863V22.1317H26.1224ZM19.2863 22.1317V18.0746H10.5695L13.8981 22.1317H19.2863ZM15.1287 23.6317H19.2863V28.6991L15.1287 23.6317ZM20.7863 23.6317H24.8994L20.7863 28.6768V23.6317ZM10.4544 16.5746H19.2863V12.5176H13.3964L10.4544 16.5746ZM20.7863 16.5746H29.5388L26.5967 12.5176H20.7863V16.5746Z" fill="#5AE4AA"/>
</svg>
