<svg width="40" height="40" viewBox="0 0 40 40" fill="none" xmlns="http://www.w3.org/2000/svg">
<circle cx="20" cy="20" r="19.25" stroke="#5E5E5E" stroke-width="1.5"/>
<path d="M23.6966 9.97397L20.7988 9.19751L20.0224 12.0953L22.9201 12.8717L23.6966 9.97397Z" fill="#5E5E5E"/>
<path d="M18.3372 9.77646L15.4395 9L14.663 11.8978L17.5608 12.6742L18.3372 9.77646Z" fill="#5E5E5E"/>
<path d="M29.555 10.1238L26.7734 9L25.6496 11.7816L28.4312 12.9054L29.555 10.1238Z" fill="#5E5E5E"/>
<path d="M29.0492 20.4509L26.4512 18.9509L24.9512 21.549L27.5492 23.049L29.0492 20.4509Z" fill="#5E5E5E"/>
<path d="M11.5723 22.0666C16.3491 20.9701 19.8127 17.2864 21.9628 11.0155" stroke="#5E5E5E" stroke-width="1.5"/>
<path d="M11.5723 17.0395C15.2455 15.7643 15.9318 12.3466 16.5 10.5" stroke="#5E5E5E" stroke-width="1.5"/>
<path d="M13 31C19.5216 29.5436 24.1883 26.2103 27 21" stroke="#5E5E5E" stroke-width="1.5"/>
<path d="M11.5723 26.8982C18.8635 24.8094 24.239 19.4572 27.6988 10.8416" stroke="#5E5E5E" stroke-width="1.5"/>
</svg>
