<svg width="24" height="24" viewBox="0 0 24 24" fill="none" xmlns="http://www.w3.org/2000/svg">
<path fill-rule="evenodd" clip-rule="evenodd" d="M1.77702 11.25H5.26325C5.36405 8.40474 6.03503 5.81318 7.09894 3.86269C7.34544 3.41076 7.61801 2.98551 7.91464 2.59651C4.50414 4.08026 2.05797 7.36505 1.77702 11.25ZM12 0.25C5.51065 0.25 0.25 5.51065 0.25 12C0.25 18.4893 5.51065 23.75 12 23.75C12.2519 23.75 12.502 23.7421 12.75 23.7264V22.1385V12.75V12.7075H23.729C23.743 12.4735 23.75 12.2376 23.75 12C23.75 5.51065 18.4893 0.25 12 0.25ZM11.25 1.86151C10.2405 2.16152 9.2415 3.06715 8.41578 4.58096C7.48814 6.28164 6.86458 8.61815 6.76424 11.25H11.25V1.86151ZM11.25 12.75H6.76424C6.86458 15.3818 7.48814 17.7184 8.41578 19.419C9.2415 20.9328 10.2405 21.8385 11.25 22.1385V12.75ZM7.91464 21.4035C7.61802 21.0145 7.34544 20.5892 7.09894 20.1373C6.03503 18.1868 5.36405 15.5953 5.26325 12.75H1.77702C2.05797 16.6349 4.50414 19.9197 7.91464 21.4035ZM17.2358 11.25H12.75V1.86151C13.7595 2.16152 14.7585 3.06715 15.5842 4.58096C16.5119 6.28164 17.1354 8.61815 17.2358 11.25ZM18.7368 11.25C18.6359 8.40474 17.965 5.81318 16.9011 3.86269C16.6546 3.41076 16.382 2.98551 16.0854 2.59651C19.4959 4.08026 21.942 7.36505 22.223 11.25H18.7368ZM21.8793 23.0362L18.9091 20.0661L15.939 23.0362L14.8783 21.9756L17.8485 19.0054L14.8793 16.0362L15.9399 14.9756L18.9091 17.9448L21.8783 14.9756L22.939 16.0362L19.9698 19.0054L22.9399 21.9756L21.8793 23.0362Z" fill="#303030"/>
</svg>
