<svg width="24" height="24" viewBox="0 0 24 24" fill="none" xmlns="http://www.w3.org/2000/svg">
<path fill-rule="evenodd" clip-rule="evenodd" d="M12.25 3.92309C12.25 1.85202 13.9289 0.173096 16 0.173096C18.0711 0.173096 19.75 1.85203 19.75 3.9231V20.077C19.75 22.148 18.0711 23.827 16 23.827C13.9289 23.827 12.25 22.148 12.25 20.077V12.583H9.64245C9.36238 14.3772 7.81026 15.75 5.9375 15.75H4.3125H2V14.25H4.3125H5.9375C7.18014 14.25 8.1875 13.2426 8.1875 12C8.1875 10.7574 7.18014 9.75 5.9375 9.75H4.3125H2V8.25H4.3125H5.9375C7.69223 8.25 9.16546 9.45521 9.57457 11.083H12.25V3.92309ZM16 1.6731C14.7574 1.6731 13.75 2.68045 13.75 3.92309V20.077C13.75 21.3196 14.7574 22.327 16 22.327C17.2426 22.327 18.25 21.3196 18.25 20.077V3.9231C18.25 2.68045 17.2426 1.6731 16 1.6731Z" fill="#303030"/>
</svg>
