<svg width="24" height="24" viewBox="0 0 24 24" fill="none" xmlns="http://www.w3.org/2000/svg">
<path fill-rule="evenodd" clip-rule="evenodd" d="M4.76247 2.00806H5.14695H18.8498H19.2342L19.4587 2.32021L23.5213 7.9703L23.8578 8.43819L23.4923 8.88378L12.574 22.1953C12.5559 22.2205 12.5362 22.2444 12.5152 22.267L11.9621 22.9413L11.3826 22.2303L0.502945 8.88198L0.140015 8.4367L0.475375 7.9703L4.53802 2.32021L4.76247 2.00806ZM14.1645 17.8909L21.967 8.37809L19.0718 4.35152L14.1645 17.8909ZM17.782 3.50806L12.7308 17.4446L12.7813 3.50806H17.782ZM11.2306 17.4871L6.21469 3.50806H11.2813L11.2306 17.4871ZM4.92411 4.35267L9.7827 17.8932L2.02859 8.37959L4.92411 4.35267Z" fill="#303030"/>
</svg>
