<svg width="24" height="24" viewBox="0 0 24 24" fill="none" xmlns="http://www.w3.org/2000/svg">
<g clip-path="url(#clip0_2678_31257)">
<path fill-rule="evenodd" clip-rule="evenodd" d="M12.7501 0V0.75V2.75V3.5H11.2501V2.75V0.75V0H12.7501ZM6.25011 11.25C6.25011 8.07437 8.82448 5.5 12.0001 5.5C15.1758 5.5 17.7501 8.07436 17.7501 11.25V13H16.2501V11.25C16.2501 8.90279 14.3473 7 12.0001 7C9.6529 7 7.75011 8.90279 7.75011 11.25V17.4956H12V18.9956H6.00011C5.72397 18.9956 5.50011 19.2195 5.50011 19.4956V21.4999H12V22.9999H5.50011H4.00011V21.4999V19.4956C4.00011 18.391 4.89554 17.4956 6.00011 17.4956H6.25011V11.25ZM20.091 4.17974L20.6213 3.64941L19.5607 2.58875L19.0303 3.11908L18.0303 4.11908L17.5 4.64941L18.5607 5.71007L19.091 5.17974L20.091 4.17974ZM4.50011 2.83875L5.03044 3.36908L6.03044 4.36908L6.56077 4.89941L5.50011 5.96007L4.96978 5.42974L3.96978 4.42974L3.43945 3.89941L4.50011 2.83875ZM10.6008 11.9121C10.6008 10.9025 11.4193 10.084 12.4289 10.084H13.1789V8.58398H12.4289C10.5908 8.58398 9.10079 10.074 9.10079 11.9121V12.6621H10.6008V11.9121Z" fill="#303030"/>
<path fill-rule="evenodd" clip-rule="evenodd" d="M23.7063 17.4749L21.2314 15L19.8172 16.4142L22.2921 18.8891L23.7063 17.4749ZM21.585 19.5962L19.1101 17.1213L15.5746 20.6569L15.2373 23.4691L18.0495 23.1317L21.585 19.5962Z" fill="#303030"/>
</g>
<defs>
<clipPath id="clip0_2678_31257">
<rect width="24" height="24" fill="white"/>
</clipPath>
</defs>
</svg>
