<svg width="24" height="24" viewBox="0 0 24 24" fill="none" xmlns="http://www.w3.org/2000/svg">
<path fill-rule="evenodd" clip-rule="evenodd" d="M8.75 5C8.75 3.20507 10.2051 1.75 12 1.75C13.7949 1.75 15.25 3.20507 15.25 5V8.25H8.75V5ZM7.25 8.25V5C7.25 2.37665 9.37665 0.25 12 0.25C14.6234 0.25 16.75 2.37665 16.75 5V8.25H19C19.9665 8.25 20.75 9.0335 20.75 10V21.25C20.75 22.2165 19.9665 23 19 23H5C4.0335 23 3.25 22.2165 3.25 21.25V10C3.25 9.0335 4.0335 8.25 5 8.25H7.25ZM4.75 10C4.75 9.86193 4.86193 9.75 5 9.75H19C19.1381 9.75 19.25 9.86193 19.25 10V21.25C19.25 21.3881 19.1381 21.5 19 21.5H5C4.86193 21.5 4.75 21.3881 4.75 21.25V10ZM11.0748 12.5333C10.8612 12.6942 10.75 12.8964 10.75 13.1494H9.25C9.25 12.3613 9.63672 11.7388 10.1721 11.3353C10.693 10.9428 11.3568 10.75 12 10.75C12.6039 10.75 13.2894 10.8897 13.8402 11.3228C14.4212 11.7797 14.75 12.4829 14.75 13.385C14.75 13.9571 14.5209 14.3979 14.2514 14.7448C14.0667 14.9825 13.8235 15.2201 13.6181 15.4208L13.618 15.4209C13.5547 15.4827 13.4949 15.541 13.4416 15.5948C12.9559 16.0846 12.5682 16.5797 12.5682 17.5H11.0682C11.0682 16.0044 11.7714 15.1488 12.3765 14.5386C12.4732 14.4411 12.5592 14.357 12.6368 14.2811L12.6369 14.2811C12.8157 14.1062 12.95 13.9749 13.0668 13.8245C13.2064 13.6448 13.25 13.5198 13.25 13.385C13.25 12.8734 13.0809 12.634 12.9129 12.5019C12.7147 12.346 12.4003 12.25 12 12.25C11.639 12.25 11.3029 12.3614 11.0748 12.5333ZM12.8047 19.4414C12.8047 18.8891 12.3569 18.4414 11.8046 18.4414C11.2524 18.4414 10.8047 18.8892 10.8047 19.4414L10.8047 19.4756C10.8047 20.0279 11.2524 20.4756 11.8047 20.4756C12.357 20.4756 12.8047 20.0278 12.8047 19.4755L12.8047 19.4414Z" fill="#303030"/>
</svg>
