<svg width="24" height="24" viewBox="0 0 24 24" fill="none" xmlns="http://www.w3.org/2000/svg">
<path fill-rule="evenodd" clip-rule="evenodd" d="M1.25 2C1.25 1.58579 1.58579 1.25 2 1.25H22C22.4142 1.25 22.75 1.58579 22.75 2V13H19.9393L17.9999 11.0607L15.5303 13.5303L14.9999 14.0607L14.4696 13.5303L8.99994 8.06066L2.75 14.3106V21.25H13V22.75H2C1.58579 22.75 1.25 22.4142 1.25 22V2ZM2.75 2.75V12.1893L8.46961 6.46967L8.99994 5.93934L9.53027 6.46967L14.9999 11.9393L17.4696 9.46967L17.9999 8.93934L18.5303 9.46967L21.25 12.1894V2.75H2.75ZM15.9999 8C17.1045 8 17.9999 7.10457 17.9999 6C17.9999 4.89543 17.1045 4 15.9999 4C14.8954 4 13.9999 4.89543 13.9999 6C13.9999 7.10457 14.8954 8 15.9999 8Z" fill="#303030"/>
<path fill-rule="evenodd" clip-rule="evenodd" d="M19.0001 20.8108L16.0304 23.7804L14.9698 22.7198L17.9395 19.7501L14.9697 16.7804L16.0304 15.7197L19.0001 18.6895L21.9698 15.7198L23.0304 16.7804L20.0608 19.7501L23.0304 22.7197L21.9697 23.7804L19.0001 20.8108Z" fill="#303030"/>
</svg>
