<svg width="24" height="24" viewBox="0 0 24 24" fill="none" xmlns="http://www.w3.org/2000/svg">
<path fill-rule="evenodd" clip-rule="evenodd" d="M12.75 0.75V0H11.25V0.75V2.75V3.5H12.75V2.75V0.75ZM12 5.5C8.82435 5.5 6.24999 8.07437 6.24999 11.25V17.4956H5.99999C4.89542 17.4956 3.99999 18.391 3.99999 19.4956V21.4999V22.9999H5.49999H18.5H20V21.4999V19.4956C20 18.391 19.1046 17.4956 18 17.4956H17.75V11.25C17.75 8.07436 15.1756 5.5 12 5.5ZM16.25 17.4956V11.25C16.25 8.90279 14.3472 7 12 7C9.65278 7 7.74999 8.90279 7.74999 11.25V17.4956H16.25ZM20.6212 3.64941L20.0909 4.17974L19.0909 5.17974L18.5605 5.71007L17.4999 4.64941L18.0302 4.11908L19.0302 3.11908L19.5605 2.58875L20.6212 3.64941ZM5.03032 3.36908L4.49999 2.83875L3.43933 3.89941L3.96966 4.42974L4.96966 5.42974L5.49999 5.96007L6.56065 4.89941L6.03032 4.36908L5.03032 3.36908ZM12.4288 10.084C11.4191 10.084 10.6007 10.9025 10.6007 11.9121V12.6621H9.10067V11.9121C9.10067 10.074 10.5907 8.58398 12.4288 8.58398H13.1788V10.084H12.4288ZM5.49999 19.4956C5.49999 19.2195 5.72385 18.9956 5.99999 18.9956H18C18.2761 18.9956 18.5 19.2195 18.5 19.4956V21.4999H5.49999V19.4956Z" fill="#303030"/>
</svg>
