<svg width="24" height="25" viewBox="0 0 24 25" fill="none" xmlns="http://www.w3.org/2000/svg">
<path fill-rule="evenodd" clip-rule="evenodd" d="M3.75 1.25H3V2V22.5V23.25H3.75H13V21.75H4.5V2.75H15.0288H19.4998V13.25H20.9998V2V1.25H20.2498H15.0288H3.75Z" fill="#303030"/>
<path fill-rule="evenodd" clip-rule="evenodd" d="M17 7.25H7.00002V8.75H17V7.25ZM13 11.5L7 11.5002L7.00004 13.0002L13 13L13 11.5Z" fill="#303030"/>
<path fill-rule="evenodd" clip-rule="evenodd" d="M19.0001 21.0608L16.0304 24.0304L14.9698 22.9698L17.9395 20.0001L14.9697 17.0304L16.0304 15.9697L19.0001 18.9395L21.9698 15.9698L23.0304 17.0304L20.0608 20.0001L23.0304 22.9697L21.9697 24.0304L19.0001 21.0608Z" fill="#303030"/>
</svg>
