<svg width="24" height="25" viewBox="0 0 24 25" fill="none" xmlns="http://www.w3.org/2000/svg">
<path fill-rule="evenodd" clip-rule="evenodd" d="M3.75 1.25H3V2V22.5V23.25H3.75H13V21.75H4.5V2.75H15.0288H19.4998V13.25H20.9998V2V1.25H20.2498H15.0288H3.75Z" fill="#303030"/>
<path fill-rule="evenodd" clip-rule="evenodd" d="M23.7063 17.4749L21.2314 15L19.8172 16.4142L22.2921 18.8891L23.7063 17.4749ZM21.585 19.5962L19.1101 17.1213L15.5746 20.6569L15.2373 23.4691L18.0495 23.1317L21.585 19.5962Z" fill="#303030"/>
<path fill-rule="evenodd" clip-rule="evenodd" d="M17 7.25H7.00002V8.75H17V7.25ZM13 11.5L7 11.5002L7.00004 13.0002L13 13L13 11.5Z" fill="#303030"/>
</svg>
