<svg width="24" height="24" viewBox="0 0 24 24" fill="none" xmlns="http://www.w3.org/2000/svg">
<path fill-rule="evenodd" clip-rule="evenodd" d="M11.25 1L11.25 13H12.75L12.75 1H11.25ZM2.75 13C2.75 10.187 4.00476 7.66779 5.98776 5.97012L5.01224 4.83066C2.71058 6.80115 1.25 9.73039 1.25 13C1.25 18.937 6.06294 23.75 12 23.75C17.9371 23.75 22.75 18.937 22.75 13C22.75 9.73039 21.2894 6.80115 18.9878 4.83066L18.0122 5.97012C19.9952 7.66779 21.25 10.187 21.25 13C21.25 18.1086 17.1086 22.25 12 22.25C6.89137 22.25 2.75 18.1086 2.75 13Z" fill="#303030"/>
</svg>
