<svg width="24" height="25" viewBox="0 0 24 25" fill="none" xmlns="http://www.w3.org/2000/svg">
<g clip-path="url(#clip0_2678_31346)">
<path fill-rule="evenodd" clip-rule="evenodd" d="M8.75 6C8.75 4.20507 10.2051 2.75 12 2.75C13.7949 2.75 15.25 4.20507 15.25 6C15.25 7.79493 13.7949 9.25 12 9.25C10.2051 9.25 8.75 7.79493 8.75 6ZM12 1.25C9.37665 1.25 7.25 3.37665 7.25 6C7.25 8.62335 9.37665 10.75 12 10.75C14.6234 10.75 16.75 8.62335 16.75 6C16.75 3.37665 14.6234 1.25 12 1.25ZM12 14C13.5512 14 15.0023 14.4281 16.2418 15.1726L17.2729 14.0474C15.7527 13.0682 13.9427 12.5 12 12.5C6.61522 12.5 2.25 16.8652 2.25 22.25H3.75C3.75 17.6937 7.44365 14 12 14Z" fill="#303030"/>
<path fill-rule="evenodd" clip-rule="evenodd" d="M23.7063 17.4749L21.2314 15L19.8172 16.4142L22.2921 18.8891L23.7063 17.4749ZM21.585 19.5962L19.1101 17.1213L15.5746 20.6569L15.2373 23.4691L18.0495 23.1317L21.585 19.5962Z" fill="#303030"/>
</g>
<defs>
<clipPath id="clip0_2678_31346">
<rect width="24" height="24" fill="white" transform="translate(0 0.25)"/>
</clipPath>
</defs>
</svg>
