<svg width="24" height="24" viewBox="0 0 24 24" fill="none" xmlns="http://www.w3.org/2000/svg">
<path fill-rule="evenodd" clip-rule="evenodd" d="M8.75 5.75C8.75 3.95507 10.2051 2.5 12 2.5C13.7949 2.5 15.25 3.95507 15.25 5.75C15.25 7.54493 13.7949 9 12 9C10.2051 9 8.75 7.54493 8.75 5.75ZM12 1C9.37665 1 7.25 3.12665 7.25 5.75C7.25 8.37335 9.37665 10.5 12 10.5C14.6234 10.5 16.75 8.37335 16.75 5.75C16.75 3.12665 14.6234 1 12 1ZM14.4616 14.1235L15.1709 12.7772C14.1768 12.4355 13.1101 12.25 12 12.25C6.61522 12.25 2.25 16.6152 2.25 22H3.75C3.75 17.4437 7.44365 13.75 12 13.75C12.8574 13.75 13.6842 13.8808 14.4616 14.1235Z" fill="#303030"/>
<path fill-rule="evenodd" clip-rule="evenodd" d="M19.0001 20.8108L16.0304 23.7804L14.9698 22.7198L17.9395 19.7501L14.9697 16.7804L16.0304 15.7197L19.0001 18.6895L21.9698 15.7198L23.0304 16.7804L20.0608 19.7501L23.0304 22.7197L21.9697 23.7804L19.0001 20.8108Z" fill="#303030"/>
</svg>
