<svg width="24" height="24" viewBox="0 0 24 24" fill="none" xmlns="http://www.w3.org/2000/svg">
<path d="M9.75 16C11.7271 16 13.4064 14.7249 14.0105 12.9523M9.75 16C9.58099 16 9.41417 15.9907 9.25 15.9725M9.75 16L9.25 15.9725M13.25 13C13.5076 13 13.7614 12.9838 14.0105 12.9523M14.0105 12.9523C16.9652 12.5785 19.25 10.0561 19.25 7C19.25 3.68629 16.5637 1 13.25 1C9.93629 1 7.25 3.68629 7.25 7C7.25 7.2467 7.26489 7.48992 7.29382 7.72881C6.06328 8.5319 5.25 9.92097 5.25 11.5C5.25 11.669 5.25 12 5.25 12V21.75C5.25 22.0261 5.47386 22.25 5.75 22.25H8.75C9.02614 22.25 9.25 22.0261 9.25 21.75V15.9725" stroke="#303030" stroke-width="1.5"/>
</svg>
