<svg width="24" height="24" viewBox="0 0 24 24" fill="none" xmlns="http://www.w3.org/2000/svg">
<path fill-rule="evenodd" clip-rule="evenodd" d="M7.7254 4.52441C3.59663 4.52441 0.249603 7.87144 0.249603 12.0002C0.249603 16.129 3.59663 19.476 7.7254 19.476H16.2738C20.4026 19.476 23.7496 16.129 23.7496 12.0002C23.7496 7.87144 20.4026 4.52441 16.2738 4.52441H7.7254ZM1.7496 12.0002C1.7496 8.69987 4.42506 6.02441 7.7254 6.02441H16.2738C19.5741 6.02441 22.2496 8.69987 22.2496 12.0002C22.2496 15.3006 19.5741 17.976 16.2738 17.976H7.7254C4.42506 17.976 1.7496 15.3006 1.7496 12.0002ZM10.293 12C10.293 13.3807 9.17368 14.5 7.79297 14.5C6.41226 14.5 5.29297 13.3807 5.29297 12C5.29297 10.6193 6.41226 9.5 7.79297 9.5C9.17368 9.5 10.293 10.6193 10.293 12ZM11.793 12C11.793 14.2091 10.0021 16 7.79297 16C5.58383 16 3.79297 14.2091 3.79297 12C3.79297 9.79086 5.58383 8 7.79297 8C10.0021 8 11.793 9.79086 11.793 12Z" fill="#303030"/>
</svg>
