<svg width="24" height="24" viewBox="0 0 24 24" fill="none" xmlns="http://www.w3.org/2000/svg">
<path fill-rule="evenodd" clip-rule="evenodd" d="M6 3.97852C6 1.90745 7.67893 0.228516 9.75 0.228516C11.8211 0.228516 13.5 1.90745 13.5 3.97852L13.5 13.7129C14.7235 14.7664 15.5 16.3286 15.5 18.0719C15.5 21.2475 12.9256 23.8219 9.75 23.8219C6.57436 23.8219 4 21.2475 4 18.0719C4 16.3286 4.77665 14.7667 6 13.7133L6 3.97852ZM9.75 1.72852C8.50736 1.72852 7.5 2.73587 7.5 3.97852L7.5 14.0719V14.4465L7.20046 14.6716C6.1665 15.4483 5.5 16.6821 5.5 18.0719C5.5 20.4191 7.40279 22.3219 9.75 22.3219C12.0972 22.3219 14 20.4191 14 18.0719C14 16.6819 13.3335 15.4479 12.2996 14.6712L12 14.4462V14.0715L12 3.97852C12 2.73588 10.9926 1.72852 9.75 1.72852ZM10.5 15.4315V6.31006H8.99999V15.4317C7.88786 15.756 7.07532 16.7831 7.07532 18C7.07532 19.4774 8.27295 20.675 9.75031 20.675C11.2277 20.675 12.4253 19.4774 12.4253 18C12.4253 16.7829 11.6125 15.7556 10.5 15.4315ZM17.5 3.5C17.5 3.08579 17.8358 2.75 18.25 2.75C18.6642 2.75 19 3.08579 19 3.5C19 3.91421 18.6642 4.25 18.25 4.25C17.8358 4.25 17.5 3.91421 17.5 3.5ZM18.25 1.25C17.0074 1.25 16 2.25736 16 3.5C16 4.74264 17.0074 5.75 18.25 5.75C19.4926 5.75 20.5 4.74264 20.5 3.5C20.5 2.25736 19.4926 1.25 18.25 1.25Z" fill="#303030"/>
</svg>
