<svg width="24" height="24" viewBox="0 0 24 24" fill="none" xmlns="http://www.w3.org/2000/svg">
<path d="M3.61609 22.3045L4.08141 21.7886L5.63992 20.0292C5.8211 20.078 6.004 20.1224 6.18853 20.1622C6.95674 20.328 7.75302 20.4152 8.56906 20.4152C14.9475 20.4152 20.1183 15.0878 20.1183 8.51599C20.1183 8.06796 20.0943 7.62572 20.0475 7.19055C20.0012 6.7601 19.9326 6.33658 19.8429 5.92123L21.9303 3.9397" stroke="#303030" stroke-width="1.5"/>
<path fill-rule="evenodd" clip-rule="evenodd" d="M19.6043 2.41357H23.4586V6.26789L19.6043 2.41357Z" fill="#303030"/>
<path d="M11.1667 8.49992C11.1667 9.97268 9.97276 11.1666 8.5 11.1666C7.02724 11.1666 5.83333 9.97268 5.83333 8.49992C5.83333 7.02716 7.02724 5.83325 8.5 5.83325C9.97276 5.83325 11.1667 7.02716 11.1667 8.49992Z" stroke="#303030" stroke-width="1.5"/>
<path d="M1 7.17574V9.8241C1 10.0893 1.1898 10.3176 1.45347 10.3696L3.12119 10.6707C3.31279 10.7053 3.4797 10.822 3.57806 10.99L3.84242 11.4416C3.94652 11.6194 3.96254 11.8353 3.88583 12.0266L3.25157 13.6078C3.1654 13.859 3.271 14.1353 3.50388 14.2679L5.82946 15.592C6.06233 15.7246 6.35773 15.6767 6.53523 15.4775L7.7171 14.1686C7.84351 14.0286 8.02329 13.9487 8.2119 13.9487L8.7881 13.9487C8.97671 13.9487 9.15649 14.0286 9.2829 14.1686L10.4648 15.4775C10.6423 15.6767 10.9377 15.7246 11.1705 15.592L13.4961 14.2679C13.729 14.1353 13.8346 13.859 13.7484 13.6078L13.1142 12.0266C13.0375 11.8353 13.0535 11.6194 13.1576 11.4416L13.4219 10.99C13.5203 10.822 13.6872 10.7053 13.8788 10.6707L15.5465 10.3696C15.8102 10.3176 16 10.0893 16 9.82409V7.17574C16 6.91055 15.8102 6.68222 15.5465 6.63022L13.8788 6.3291C13.6872 6.29451 13.5203 6.17788 13.4219 6.00985L13.1576 5.55828C13.0535 5.38046 13.0375 5.16451 13.1142 4.97328L13.7484 3.39206C13.8346 3.14085 13.729 2.86458 13.4961 2.73199L11.1705 1.40781C10.9377 1.27521 10.6423 1.32316 10.4648 1.52235L9.2829 2.83121C9.15649 2.9712 8.97671 3.05109 8.7881 3.05109L8.2119 3.05109C8.02329 3.05109 7.84351 2.9712 7.7171 2.83121L6.53524 1.52235C6.35773 1.32316 6.06233 1.27521 5.82946 1.40781L3.50388 2.73199C3.27101 2.86458 3.16541 3.14085 3.25157 3.39206L3.88584 4.97328C3.96254 5.16451 3.94652 5.38046 3.84242 5.55828L3.57806 6.00985C3.4797 6.17788 3.31279 6.29451 3.12119 6.3291L1.45347 6.63022C1.1898 6.68222 1 6.91055 1 7.17574Z" stroke="#303030" stroke-width="1.5"/>
</svg>
