<svg width="24" height="24" viewBox="0 0 24 24" fill="none" xmlns="http://www.w3.org/2000/svg">
<path fill-rule="evenodd" clip-rule="evenodd" d="M2.5 5C2.5 3.20507 3.95507 1.75 5.75 1.75C7.54493 1.75 9 3.20507 9 5V8.25H7.25C6.2835 8.25 5.5 9.0335 5.5 10V21.25C5.5 22.2165 6.2835 23 7.25 23H21.25C22.2165 23 23 22.2165 23 21.25V10C23 9.0335 22.2165 8.25 21.25 8.25H10.5V5C10.5 2.37665 8.37335 0.25 5.75 0.25C3.12665 0.25 1 2.37665 1 5V9H2.5V5ZM7 10C7 9.86193 7.11193 9.75 7.25 9.75H21.25C21.3881 9.75 21.5 9.86193 21.5 10V21.25C21.5 21.3881 21.3881 21.5 21.25 21.5H7.25C7.11193 21.5 7 21.3881 7 21.25V10Z" fill="#303030"/>
</svg>
