<svg width="24" height="24" viewBox="0 0 24 24" fill="none" xmlns="http://www.w3.org/2000/svg">
<g clip-path="url(#clip0_660_39829)">
<path d="M10.5714 0L11.3194 0.0556497L9.92696 -0.383613L10.5714 0ZM2 14.4L1.35553 14.0164L0.680761 15.15H2V14.4ZM13.4286 14.4H14.1786V13.65H13.4286V14.4ZM13.4286 24H12.6786V26.7263L14.073 24.3836L13.4286 24ZM22 9.6L22.6445 9.98361L23.3192 8.85H22V9.6ZM9.85714 9.6L9.10921 9.54435L9.04927 10.35H9.85714V9.6ZM9.92696 -0.383613L1.35553 14.0164L2.64447 14.7836L11.2159 0.383613L9.92696 -0.383613ZM2 15.15H13.4286V13.65H2V15.15ZM12.6786 14.4V24H14.1786V14.4H12.6786ZM14.073 24.3836L22.6445 9.98361L21.3555 9.21639L12.7841 23.6164L14.073 24.3836ZM22 8.85H9.85714V10.35H22V8.85ZM10.6051 9.65565L11.3194 0.0556497L9.8235 -0.0556497L9.10921 9.54435L10.6051 9.65565Z" fill="#303030"/>
</g>
<defs>
<clipPath id="clip0_660_39829">
<rect width="24" height="24" fill="white"/>
</clipPath>
</defs>
</svg>
