<svg width="24" height="24" viewBox="0 0 24 24" fill="none" xmlns="http://www.w3.org/2000/svg">
<path fill-rule="evenodd" clip-rule="evenodd" d="M12.0569 4.57209C8.19279 4.50701 4.43621 5.84565 1.484 8.33968L0.515991 7.19383C3.74554 4.4655 7.85504 3.00111 12.0822 3.0723C16.3093 3.14349 20.3672 4.74543 23.503 7.58096L22.497 8.69356C19.6304 6.10154 15.921 4.63717 12.0569 4.57209ZM3.91759 11.5242C6.09012 9.68888 8.85459 8.70378 11.6982 8.75167C14.5418 8.79956 17.2715 9.87718 19.381 11.7847L20.3871 10.6721C18.0083 8.52108 14.9301 7.30588 11.7235 7.25188C8.51683 7.19788 5.39945 8.30873 2.94958 10.3784L3.91759 11.5242ZM11.8659 15.8937C10.7421 15.8748 9.64959 16.2641 8.79101 16.9894L11.7877 20.5366L14.9021 17.0924C14.0685 16.3385 12.9897 15.9127 11.8659 15.8937ZM6.87658 14.7246C8.28335 13.5362 10.0734 12.8983 11.9147 12.9293C13.756 12.9603 15.5236 13.6581 16.8896 14.8932L17.8956 13.7806C16.2603 12.302 14.1443 11.4666 11.94 11.4295C9.73566 11.3924 7.59268 12.156 5.90857 13.5788L6.87658 14.7246Z" fill="#303030"/>
</svg>
