<?xml version="1.0" encoding="UTF-8"?>
<!-- Created with Inkscape (http://www.inkscape.org/) -->
<svg id="svgAACrepairVice" width="198px" height="198px" version="1.1" viewBox="0 0 198 198" xmlns="http://www.w3.org/2000/svg">
				<defs>
								<filter id="filter48301" x="-.068514" y="-.068552" width="1.137" height="1.1371" style="color-interpolation-filters:sRGB">
												<feGaussianBlur stdDeviation="6.3930096"/>
								</filter>
								<filter id="filter979" x="-.17568" y="-.26334" width="1.3514" height="1.5267" style="color-interpolation-filters:sRGB">
												<feGaussianBlur stdDeviation="2.9509201"/>
								</filter>
								<filter id="filter986" x="-.21283" y="-.33131" width="1.4257" height="1.6626" style="color-interpolation-filters:sRGB">
												<feGaussianBlur stdDeviation="3.1140502"/>
								</filter>
				</defs>
				<path id="viceBlackBgBlur" transform="matrix(.76732 0 0 .76729 -92.328 -60.41)" d="m308.13 96.197c-6.2312 0.96295-12.362 2.4647-18.507 3.8587-17.317 4.0645-34.376 9.1215-51.525 13.83-9.0123 2.5073-18.025 5.0146-27.037 7.522-2.0959-2.0057-5.2129-2.9846-8.0432-2.1665-2.7662 0.67152-4.9526 2.626-7.3014 4.0044-3.3736 1.9121-7.0493 3.7441-11.033 3.5928-5.9373 0.10487-11.874-0.43672-17.809-0.17333-4.2966 0.23499-8.4556 1.5834-12.378 3.2864-5.3336 2.3568-10.057 6.1072-13.485 10.829-3.2144 4.3887-4.0444 10.532-1.67 15.487 2.0479 4.2785 6.3201 7.0699 10.761 8.3912 5.6733 1.6678 11.75 1.6966 17.539 0.6362 7.0305-1.3045 13.225-5.2011 18.836-9.4636 2.6369-1.954 5.5825-3.6952 8.9009-4.0906 3.1101-0.49696 6.0726-0.50121 9.2134-0.64899 2.3769-0.16294 4.7889-0.19975 7.1188-0.73483 3.0406-0.80025 5.189-3.6145 5.9432-6.5674 3.8358-1.1281 7.6873-2.1997 11.539-3.2715-0.92423 1.2085-1.8505 2.4155-2.7734 3.625v26.932c-3.7135 0.093-7.4271 0.18685-11.141 0.2793-0.1012 3.5559-0.199 7.112-0.29883 10.668-9.2524 1.7761-18.32 5.2938-25.762 11.166-7.5272 5.8581-13.452 13.704-17.15 22.489-0.26916 0.36673-0.25494 1.1558-0.84832 1.0631-4.2915 0.32495-8.6798-0.0558-12.886 1.0088-1.9617 0.71184-3.0136 2.7837-3.2782 4.7462-3.9586 0.0979-7.9647-0.19961-11.891 0.45118-2.1665 0.4952-4.0518 2.3206-4.2481 4.5926-0.56026 3.2549-0.35415 6.5771-0.44295 9.8647-0.0676 10.204-0.12558 20.413 0.16053 30.613 0.11668 1.6871 0.10066 3.5081 0.97783 5.0075 1.0948 1.6827 3.1906 2.2316 5.0858 2.2742 0.94976 0.10704 2.0486 0.1155 2.9025 0.19258 6.7089 0.49359 7.3109-1.2055 7.3184 8.418v4.6016c-3.9351 0.0461-7.8953-0.16499-11.809 0.32031-2.2619 0.47883-4.1823 2.4639-4.2813 4.824-0.50468 3.7296-0.36073 7.5076-0.417 11.262 0.0236 3.5785 0.0489 7.1847 0.60732 10.724 0.44352 1.8573 2.1729 3.3879 4.1322 3.2986 4.6651 0.35815 9.3507 0.26123 14.026 0.36255 26.8 0.31059 53.603 0.26067 80.404 0.22886 16.444-0.0535 32.89-0.0937 49.33-0.45618 1.4074-0.12213 2.9078-0.0351 4.2153-0.63526 1.467-0.73139 2.1755-2.3805 2.2504-3.9499 0.395-3.5166 0.32757-7.0664 0.42599-10.6 0.0277-3.607 0.0534-7.23-0.31399-10.82-0.99608-5.1443-7.2472-4.5815-11.283-4.6266-0.10838-4.3155-0.0743-8.6527-0.69531-12.934h30.088c3.4659-1.8695 6.8883-3.9316 9.656-6.772 2.7132-2.5916 5.1141-5.519 7.0588-8.73 0.7172 0.0224 1.435 3e-3 2.1524-2e-3 0.071 2.2183 0.63628 4.8151 2.7383 5.9824 0.82973 0.48143 1.7679 0.75207 2.7148 0.87891v30.65c-2.3551 2e-3 -4.9766 0.78286-6.2304 2.9358-1.4957 2.4444-1.0794 5.4284-1.0429 8.1526 0.0683 2.2554 0.51573 4.8825 2.5428 6.2221 1.927 1.1799 4.2779 0.90354 6.4344 1.0781 5.912 0.17972 11.836 0.15458 17.742-0.17952 1.8129-0.12346 3.9399-0.27668 5.1112-1.8751 1.4616-1.9188 1.3081-4.4617 1.4423-6.7417 0.0172-2.2077-0.0759-4.4939-0.87001-6.5747-0.91303-1.875-3.0261-2.7465-5.0059-2.8906-0.45704-0.14074-1.3578 0.1731-1.123-0.58984v-30.338c2.0459-0.4749 3.9224-2.1744 4.006-4.3697 0.57597-4.3128 0.42789-8.6781 0.51577-13.018 0.0301-5.2969 0.0196-10.61-0.50677-15.884-0.28553-1.8847-1.7038-3.5352-3.5713-3.996-0.74124-6e-3 -0.34685-0.84442-0.44362-1.3303v-27.655c2.1933-0.0719 4.7565-0.61342 5.9316-2.6777 1.1416-2.059 0.97255-4.5123 1.0601-6.7873-0.02-2.114-0.0841-4.3463-1.0414-6.2729-0.95591-1.6849-2.9686-2.4051-4.8239-2.3547-6.2528-0.4939-12.535-0.38598-18.8-0.25594-1.7971 0.0989-3.6553 0.10515-5.3715 0.68654-2.1644 0.96518-3.1495 3.4514-3.111 5.702-0.13589 2.579-0.23806 5.2154 0.32975 7.7492 0.69178 2.3062 2.8907 4.0221 5.2965 4.135 0.50713 0.0644 1.0185 0.0965 1.5296 0.10324v22.26c-0.62124-8.4279-2.6882-16.986-7.485-24.058-4.1088-6.1024-10.105-10.822-16.848-13.709-1.9769-0.87001-4.0054-1.6183-6.0556-2.2963-0.18234-3.778-0.36425-7.556-0.54688-11.334-3.692-0.0932-7.3841-0.18619-11.076-0.2793-0.0872-14.256-0.17479-28.512-0.26172-42.768-6.6621-0.0779-13.324-0.1515-19.986-0.23242 11.995-3.469 23.928-7.1654 35.715-11.288 2.2556-0.83831 4.6567-1.5394 6.7478-2.8 1.6236-1.1059 2.4842-3.1486 2.1644-5.084-0.25282-2.2962-1.0186-4.4946-1.5777-6.7267-0.55363-1.8376-1.0876-3.8267-2.4655-5.2303-1.68-1.4432-4.0359-1.0396-6.0735-1.2075-0.0969 0.02939-0.0103 0.35152-0.0398 0.45944z" style="fill:#000000;filter:url(#filter48301);stroke-width:1.3032"/>
				<path id="viceWhiteBg" d="m141.26 10.155c-4.7813 0.73886-9.4855 1.8911-14.2 2.9607-13.288 3.1186-26.377 6.9989-39.535 10.612-6.9153 1.9238-13.83 3.8476-20.745 5.7715-1.6082-1.539-3.9998-2.2902-6.1716-1.6623-2.1225 0.51524-3.8001 2.0149-5.6024 3.0725-2.5885 1.4671-5.409 2.8727-8.4657 2.7568-4.5557 0.08046-9.111-0.33508-13.665-0.13299-3.2969 0.1803-6.488 1.2149-9.498 2.5215-4.0926 1.8084-7.7169 4.686-10.347 8.3094-2.4664 3.3675-3.1033 8.0807-1.2814 11.883 1.5713 3.2827 4.8494 5.4246 8.2567 6.4385 4.353 1.2797 9.0158 1.3018 13.458 0.48814 5.3946-1.0009 10.148-3.9908 14.453-7.2612 2.0233-1.4993 4.2835-2.8352 6.8298-3.1385 2.3865-0.38132 4.6597-0.38458 7.0695-0.49797 1.8238-0.12502 3.6745-0.15326 5.4623-0.56383 2.3331-0.61403 3.9816-2.7734 4.5602-5.039 2.9433-0.86554 5.8986-1.6878 8.854-2.5103-0.70917 0.92729-1.4199 1.8534-2.128 2.7814v20.664c-2.8494 0.07136-5.6988 0.14337-8.5484 0.21431-0.07766 2.7285-0.15268 5.457-0.22929 8.1853-7.0995 1.3628-14.057 4.0618-19.767 8.5672-5.7757 4.4948-10.322 10.515-13.159 17.255-0.20652 0.28139-0.19561 0.8868-0.65092 0.81572-3.2928 0.24933-6.6601-0.0428-9.8873 0.77409-1.5052 0.54619-2.3124 2.1359-2.5155 3.6417-3.0375 0.0751-6.1115-0.15317-9.1237 0.34618-1.6624 0.37996-3.1089 1.7805-3.2596 3.5238-0.42989 2.4973-0.27175 5.0466-0.33989 7.5691-0.05187 7.8294-0.09636 15.663 0.12318 23.488 0.08953 1.2945 0.07724 2.6918 0.75029 3.8423 0.84005 1.2911 2.4482 1.7123 3.9024 1.745 0.72876 0.0821 1.5719 0.0886 2.2271 0.14777 5.1479 0.37874 5.6098-0.92499 5.6155 6.459v3.5307c-3.0194 0.0354-6.0581-0.1266-9.0607 0.24577-1.7356 0.36739-3.2092 1.8905-3.285 3.7014-0.38725 2.8616-0.2768 5.7604-0.31997 8.6409 0.01811 2.7457 0.03752 5.5128 0.46601 8.2282 0.34032 1.4251 1.6673 2.5995 3.1706 2.531 38.68 0.0658 73.776 0.46568 110.31 0.10377 1.08-0.0937 2.2312-0.0269 3.2344-0.48743 1.1256-0.56119 1.6693-1.8265 1.7267-3.0306 0.30309-2.6982 0.25134-5.4219 0.32686-8.133 0.0213-2.7677 0.041-5.5475-0.24092-8.3022-0.7643-3.9471-5.5609-3.5154-8.6575-3.55-0.0832-3.3112-0.057-6.6391-0.53351-9.9237h23.087c2.6595-1.4344 5.2855-3.0167 7.4092-5.1961 2.0819-1.9885 3.9242-4.2347 5.4163-6.6984 0.55031 0.0172 1.1011 2e-3 1.6515-2e-3 0.0545 1.702 0.48822 3.6946 2.1011 4.5902 0.63666 0.3694 1.3566 0.57704 2.0831 0.67437v23.517c-1.8071 2e-3 -3.8185 0.60067-4.7807 2.2526-1.1477 1.8756-0.8282 4.1652-0.8002 6.2553 0.0524 1.7305 0.39572 3.7463 1.9511 4.7742 1.4786 0.90532 3.2824 0.69327 4.9372 0.82721 4.5364 0.1379 9.0821 0.1186 13.613-0.13774 1.3911-0.0947 3.0231-0.2123 3.9219-1.4388 1.1215-1.4723 1.0038-3.4234 1.1067-5.1729 0.0131-1.694-0.0582-3.4481-0.66757-5.0447-0.70057-1.4386-2.322-2.1074-3.8411-2.218-0.3507-0.10799-1.0419 0.13282-0.86173-0.45257v-23.277c1.5698-0.36438 3.0098-1.6684 3.0738-3.3529 0.44195-3.3092 0.32832-6.6586 0.39576-9.9885 0.0231-4.0642 0.015-8.1412-0.38885-12.188-0.2191-1.4461-1.3073-2.7125-2.7403-3.0661-0.56877-5e-3 -0.26615-0.64791-0.3404-1.0207v-21.219c1.683-0.05516 3.6497-0.47067 4.5514-2.0547 0.87592-1.5799 0.74625-3.4622 0.81344-5.2078-0.0154-1.6221-0.0645-3.3348-0.7991-4.8131-0.73348-1.2928-2.2778-1.8454-3.7014-1.8068-4.7979-0.37896-9.618-0.29615-14.425-0.19638-1.3789 0.0759-2.8047 0.08067-4.1217 0.52677-1.6608 0.74056-2.4166 2.6483-2.3871 4.375-0.10428 1.9789-0.18267 4.0017 0.25302 5.9458 0.53081 1.7695 2.2181 3.086 4.064 3.1728 0.38914 0.04941 0.78149 0.07405 1.1737 0.07922v17.08c-0.47667-6.4666-2.0626-13.033-5.7433-18.459-3.1528-4.6823-7.7538-8.3039-12.928-10.518-1.5169-0.66754-3.0734-1.2417-4.6466-1.7619-0.1399-2.8988-0.27948-5.7977-0.41961-8.6965-2.833-0.07151-5.666-0.14286-8.4989-0.21431-0.0669-10.938-0.13412-21.876-0.20082-32.815-5.112-0.05977-10.224-0.11624-15.336-0.17833 9.2035-2.6616 18.36-5.4978 27.405-8.661 1.7307-0.64322 3.573-1.1811 5.1776-2.1484 1.2458-0.84856 1.9061-2.4159 1.6607-3.901-0.194-1.7619-0.78157-3.4487-1.2106-5.1612-0.42481-1.4099-0.83449-2.9361-1.8918-4.0132-1.289-1.1073-3.0968-0.79763-4.6603-0.92649-0.0743 0.022543-8e-3 0.26971-0.0305 0.35252z" style="fill:#ffffff;stroke-width:.99998"/>
				<path id="viceBlackBg" d="m14.036 161.29c4.9066-0.23244 6.9717-0.1997 12.728-0.50962v-16.113c-3.9436-0.3448-8.4548 0.6392-12.2-0.46037-0.34354-0.34353-0.46039-4.5721-0.46039-16.661 0-14.216 0.07381-16.275 0.60288-16.804 3.6957-0.25595 6.2694 0.017 12.058-0.60287v-1.6794c0-0.92367 0.22738-1.8681 0.50529-2.0988 0.2964-0.24598 2.6982-0.46365 5.8095-0.52654 4.2499-0.0859 5.3634-0.22159 5.6018-0.68266 0.16364-0.3165 0.90692-1.9124 1.6517-3.5465 3.684-8.0828 10.177-14.801 18.083-18.711 4.8357-2.0967 9.4381-3.5117 14.361-4.277 0.07267-2.6005 0.14532-5.201 0.21799-7.8017 2.8775-0.07233 5.7548-0.14465 8.6323-0.21696v-22.617l3.4364-4.4886c1.8901-2.4688 3.3964-4.5286 3.3474-4.5777-0.04896-0.04895-2.5017 0.58988-5.4506 1.4196-2.9489 0.82973-7.304 2.0478-9.6777 2.7068-4.0179 1.1153-4.3161 1.2639-4.3161 2.1503 0 1.3468-1.1232 3.0819-2.2792 3.5209-0.54008 0.20502-3.4852 0.45539-6.5449 0.55637-7.5954 0.25068-9.7489 0.93699-14.8 4.7167-6.5586 4.9077-11.253 6.6633-17.817 6.6633-8.8782 0-14.302-3.9225-13.723-9.9235 0.2577-2.6676 1.3288-4.5791 4.1149-7.3437 2.9111-2.8887 6.6657-4.926 11.363-6.1655 2.7973-0.73819 3.7072-0.78491 11.104-0.57042 6.8166 0.19768 8.3816 0.13716 10.167-0.39313 2.6106-0.77548 5.7277-2.3449 8.2473-4.1527 2.4917-1.7875 4.3588-1.8724 5.9603-0.27105l1.1043 1.1043 16.226-4.5159c8.9245-2.4838 21.838-6.075 28.695-7.9806 14.154-3.933 32.399-8.0126 33.129-7.4073 0.25311 0.21004 0.88444 2.0492 1.403 4.087 0.88998 3.4975 0.90536 3.7326 0.27483 4.1935-1.4359 1.0499-21.857 7.6655-34.424 11.152-7.2798 2.0197-14.186 3.9656-15.346 4.3243-2.0759 0.64151-1.8405 0.65513 14.579 0.84386l16.689 0.19182 0.10004 16.388 0.10001 16.388c2.8746 0.07231 5.7492 0.14459 8.624 0.21687l0.38364 7.9463 3.0693 1.0333c13.865 4.6677 20.304 14.888 20.326 32.261 4e-3 3.2706-0.11761 6.5076-0.27058 7.1934-0.26537 1.1896-0.22576 1.2468 0.86323 1.2468 1.1349 0 1.1414-0.0127 1.1414-2.2251 0-1.2238 0.20718-2.4323 0.46039-2.6854 0.25321-0.2532 1.2028-0.46037 2.1102-0.46037h1.6497v-28.005l-2.206-0.0062c-3.2256-0.0086-3.357-0.166-3.357-4.0224 0-2.5062 0.13699-3.3755 0.57548-3.6528 0.88683-0.56059 17.771-0.48246 18.339 0.08484 0.61865 0.61864 0.61865 6.5171 0 7.1357-0.25321 0.25322-1.4617 0.46037-2.6855 0.46037h-2.2252v28.005h1.2661c0.69632 0 1.4732 0.20718 1.7264 0.46037 0.65655 0.65653 0.65655 21.441 0 22.098-0.25321 0.2532-1.0301 0.46037-1.7264 0.46037h-1.2661v29.541h2.2252c1.2238 0 2.4324 0.20716 2.6855 0.46037 0.61865 0.61864 0.61865 6.5171 0 7.1357-0.56561 0.56559-17.451 0.64578-18.335 0.0871-0.41787-0.26419-0.59196-1.1918-0.6464-3.4446-0.0932-3.855 0.21059-4.2388 3.3558-4.2388h2.2745v-29.541h-1.6497c-0.90735 0-1.8569-0.20716-2.1102-0.46037-0.25321-0.2532-0.46039-1.4617-0.46039-2.6854v-2.2251h-6.413l-1.4178 2.2969c-2.8795 4.1389-6.2719 7.1849-10.486 9.5961h-64.216c0.07938 0.94488 0.15876 1.8898 0.23815 2.8346l19.013-0.10662c16.294-0.0914 19.866 0.22122 19.866 0.22122 0.34018 4.6476 0.23834 7.9076 0.35275 12.972 3.2022 0.25339 6.1338 0.39566 8.5672 0.95912 0.45221 0.67216 0.22536 17.292 0.22536 17.292s-112.33 0.29897-113.02-0.38749c-0.13951-5.1335-0.15002-11.802-0.10198-17.162z" style="fill:#323232;stroke-width:.99998"/>
				<g id="gFileBladeDark" transform="matrix(2.0511,0,0,2.0512,-2.8934,48.611)" style="stroke-width:.48752">
								<path id="vicePath411_id" d="m69.21-13.661c0.02125-0.01586-0.07168-0.40427-0.2065-0.86307-0.20536-0.69881-0.32929-0.84417-0.76364-0.89565-0.50317-0.05964-0.51467-0.04107-0.38918 0.62783 0.07113 0.37911 0.2072 0.8941 0.30238 1.1444 0.15292 0.40219 0.22223 0.42956 0.59568 0.23525 0.23244-0.12094 0.44001-0.23289 0.46126-0.24878z" style="fill:#848484;stroke-width:.48752"/>
								<path id="vicePath407_id" d="m64.151-11.824 0.40417-0.10841-0.33462-1.2067c-0.18404-0.66366-0.36959-1.2416-0.41234-1.2844-0.1756-0.17559-0.9031 0.15857-0.9031 0.41481 0 0.44771 0.57618 2.2984 0.7147 2.2956 0.06986-0.0015 0.30889-0.05134 0.53119-0.11097z" style="fill:#848484;stroke-width:.48752"/>
								<path id="vicePath403_id" d="m59.692-10.501c0.03345-0.02922-0.09956-0.62896-0.29553-1.3328-0.28793-1.034-0.43438-1.2911-0.76305-1.3395-0.22834-0.03363-0.45247 0.05931-0.51102 0.21187-0.09045 0.23569 0.36907 2.198 0.61223 2.6144 0.07306 0.12511 0.76549 0.01377 0.95737-0.15396z" style="fill:#848484;stroke-width:.48752"/>
								<path id="vicePath399_id" d="m54.656-9.0765c0.37254-0.23586-0.28692-2.8226-0.71851-2.8183-0.76254 0.0075-0.82626 0.26939-0.40389 1.6598 0.39416 1.2976 0.5875 1.4971 1.1224 1.1585z" style="fill:#848484;stroke-width:.48752"/>
								<path id="vicePath395_id" d="m49.872-7.7025c0.24052-0.092286 0.2272-0.28664-0.09933-1.4495-0.2074-0.73861-0.39975-1.3681-0.42744-1.3988-0.02768-0.03071-0.26038-3e-3 -0.51707 0.06127-0.41623 0.10446-0.45168 0.18133-0.32772 0.71048 0.50872 2.1716 0.63311 2.3599 1.3716 2.0766z" style="fill:#848484;stroke-width:.48752"/>
								<path id="vicePath391_id" d="m45.179-6.854c-0.02708-0.23158-0.18137-0.87545-0.34284-1.4308-0.26135-0.89894-0.33806-0.99611-0.69892-0.88533-0.58249 0.17881-0.58282 0.17987-0.35741 1.1542 0.38348 1.6575 0.54216 1.9288 1.0215 1.7459 0.29663-0.11316 0.41189-0.29137 0.37765-0.58392z" style="fill:#848484;stroke-width:.48752"/>
								<path id="vicePath387_id" d="m40.153-5.0295c0.31064-0.22713 0.30904-0.30439-0.03184-1.543-0.32748-1.1899-0.39792-1.2982-0.80565-1.2389-0.24573 0.035761-0.48065 0.097691-0.52204 0.13759-0.07227 0.069678 0.51378 2.4547 0.67406 2.7431 0.11244 0.20237 0.31308 0.17345 0.68547-0.098825z" style="fill:#848484;stroke-width:.48752"/>
				</g>
				<g id="gFileBladeLight" transform="matrix(2.0511,0,0,2.0512,-2.8934,48.611)" style="stroke-width:.48752">
								<path id="vicePath413_id" d="m71.06-14.601c-0.2161-0.86094-0.47683-1.411-0.66882-1.411-0.24968 0-0.24389 0.54255 0.01369 1.2813 0.25016 0.71756 0.8316 0.83265 0.65515 0.12968z" style="fill:#b8b8b8;stroke-width:.48752"/>
								<path id="vicePath409_id" d="m66.661-12.646c0.2411 0 0.21483-0.34816-0.10839-1.4365-0.25358-0.85382-0.32452-0.93478-0.74819-0.85379-0.52123 0.09963-0.57803 0.39462-0.26453 1.3739 0.11193 0.34967 0.2389 0.74971 0.28215 0.88897 0.0445 0.1433 0.20635 0.20419 0.37292 0.14028 0.16186-0.06211 0.37158-0.11292 0.46604-0.11292z" style="fill:#b8b8b8;stroke-width:.48752"/>
								<path id="vicePath405_id" d="m62.047-11.124c0.1049-0.16972-0.50977-2.5773-0.70881-2.7763-0.06354-0.06353-0.31824-0.02316-0.56599 0.08971l-0.45046 0.20523 0.38551 1.3214c0.33229 1.139 0.44449 1.3214 0.81273 1.3214 0.23497 0 0.47214-0.07266 0.52703-0.16148z" style="fill:#b8b8b8;stroke-width:.48752"/>
								<path id="vicePath401_id" d="m57.278-10.002c-0.0082-0.16803-0.15837-0.8105-0.33363-1.4277-0.28454-1.002-0.36683-1.1168-0.76843-1.0714-0.24737 0.02794-0.48883 0.08985-0.53657 0.13759-0.07584 0.07583 0.48043 2.425 0.647 2.7323 0.13537 0.24976 1.0061-0.07582 0.99164-0.37079z" style="fill:#b8b8b8;stroke-width:.48752"/>
								<path id="vicePath397_id" d="m52.116-8.3312 0.45824-0.17421-0.3505-1.2639c-0.40994-1.4782-0.49214-1.583-1.069-1.3619-0.29421 0.11276-0.40298 0.27201-0.33792 0.4948 0.05276 0.18069 0.23292 0.81248 0.40036 1.404 0.16744 0.59149 0.33507 1.0754 0.37251 1.0754s0.27428-0.078393 0.52631-0.17421z" style="fill:#b8b8b8;stroke-width:.48752"/>
								<path id="vicePath393_id" d="m47.72-7.1256c0.03322-0.033217-0.11747-0.65762-0.33487-1.3876-0.29059-0.97566-0.47987-1.3264-0.71469-1.3243-0.6873 0.00617-0.73679 0.23829-0.35093 1.6461 0.36058 1.3156 0.39368 1.3637 0.85757 1.2473 0.26539-0.066603 0.5097-0.14827 0.54292-0.18149z" style="fill:#b8b8b8;stroke-width:.48752"/>
								<path id="vicePath389_id" d="m42.672-5.7022c0.20469-0.12975 0.18778-0.3877-0.09469-1.4443-0.34246-1.281-0.61564-1.5689-1.1576-1.2199-0.2127 0.13694-0.19809 0.38481 0.08819 1.496 0.3436 1.3337 0.56018 1.551 1.1641 1.1682z" style="fill:#b8b8b8;stroke-width:.48752"/>
								<path id="vicePath385_id" d="m36.671-4.0303c0.74585-0.21826 1.3561-0.48747 1.3561-0.59825 0-0.2436-0.56992-2.4748-0.65401-2.5604-0.09257-0.094239-3.1595 0.74583-3.3482 0.91711-0.14455 0.13122 0.30648 2.2046 0.5782 2.658 0.0965 0.16102 0.09049 0.16223 2.0679-0.41643z" style="fill:#a0a0a0;stroke-width:.48752"/>
				</g>
				<path id="viceFileShaft" d="m33.194 57.149c3.0566-0.74598 6.2585-2.4048 9.8562-5.1063 3.8083-2.8596 5.6139-3.8776 8.2323-4.6415 2.5803-0.75279 7.7741-1.3822 10.914-1.3227 3.7494 0.07105 3.6998 0.08012 3.7012-0.67558 0.0023-1.2255-2.768-11.021-3.2666-11.551-0.40905-0.43502-0.88604-0.2525-2.8818 1.1027-6.3215 4.2928-10.273 5.2743-18.407 4.5719-4.3108-0.37227-6.2411-0.37947-8.5754-0.03192-11.122 1.6558-19.395 10.258-14.741 15.325 1.0677 1.1624 3.6245 2.3472 6.0021 2.7812 2.1212 0.3872 6.6394 0.16434 9.1651-0.45208z" style="fill:#008080;stroke-width:.99998"/>
				<g id="gViceBlocks" transform="matrix(2.0511,0,0,2.0512,-2.8934,48.611)" style="stroke-width:.48752">
								<path id="vicePath373_id" d="m66.459 12.043h-2.9928v6.3591h2.9928z" style="fill:#818181;stroke-width:.48752"/>
								<path id="vicePath371_id" d="m41.207 12.043h-2.9928v6.3591h2.9928z" style="fill:#818181;stroke-width:.48752"/>
				</g>
				<g id="gFileSheet" transform="matrix(2.0511,0,0,2.0512,-2.8934,48.611)" style="stroke-width:.48752">
								<g id="gFileSheetLight" style="stroke-width:.48752">
												<path id="vicePath383_id" d="m49.604-3.9597c-3.1265 0.12062-3.4648 0.29884-5.8018 2.5242 2.0529-0.90683 3.6966-1.6095 5.8018-2.5242z" style="fill:#f09753;stroke-width:.48752"/>
												<path id="vicePath377_id" d="m62.063 5.3298c0.01489-1.9309 0.0086-3.8567 0.01418-5.8184-7.7819 3.2596-9.7212 4.1316-19.374 8.2778-0.0631 2.4008 0.0044 3.8468 0.0171 5.8888 6.979-2.9943 12.765-5.5274 19.342-8.3482z" style="fill:#f09753;stroke-width:.48752"/>
												<path id="vicePath365_id" d="m62.063 20.282c-0.06301-1.7085 0.16161-4.4918-0.07785-5.753-6.3745 2.7009-12.889 5.4274-19.235 8.1953-0.08912 1.0446-0.2618 2.2779-0.17942 3.3078 2.1214 0.29089 3.695 0.03815 6.0249 0.03786 4.4893-1.9294 8.9782-3.8585 13.467-5.7879z" style="fill:#f09753;stroke-width:.48752"/>
								</g>
								<g id="gFileSheetDark" style="stroke-width:.48752">
												<path id="vicePath379_id" d="m62.063-2.093c0.03769-0.64974 0.07539-1.2995 0.11308-1.9492h-8.522l-11.005 4.6928c0.03897 1.7252-0.02103 4.139 0.1016 5.543 6.4841-2.7779 13.376-5.7468 19.313-8.2865z" style="fill:#ec7d28;stroke-width:.48752"/>
												<path id="vicePath369_id" d="m49.905 18.057c3.6007-1.5492 7.8093-3.3624 9.3524-4.0293l2.8057-1.2126 0.05163-2.9342c0.04815-2.7363 0.02922-2.9276-0.28057-2.8359-0.18271 0.054068-3.5728 1.4992-7.5335 3.2114s-8.2313 3.551-9.4901 4.0863l-2.2888 0.97319-0.0026 2.9411-0.0026 2.9412 0.42086-0.16217c0.23147-0.0892 3.3669-1.4297 6.9675-2.979z" style="fill:#ec7d28;stroke-width:.48752"/>
												<path id="vicePath367_id" d="m62.012 21.955c-3.2751 1.3078-5.822 2.6883-9.2638 4.1592 6.0367-0.33126 8.1948-0.15412 9.2638-4.1591z" style="fill:#ec7d28;stroke-width:.48752"/>
								</g>
				</g>
				<path id="path983" d="m113.08 38.992c-1.4741 0.20813-3.2149-0.25353-4.3963 0.90906-0.66653 0.61414-1.2096 1.4366-1.2794 2.3605-1.1864-1.1655-3.2697-0.67143-4.0527 0.7207-0.55924 0.80222-1.043 1.6536-1.5312 2.5-0.39143-1.3742-2.014-1.9035-3.2871-1.502-1.5241 0.3297-2.9202 1.0737-4.2539 1.8398-0.718 0.14062-1.319 0.64356-1.8223 1.0996-1.746-0.04022-2.8555 1.6369-3.1743 3.1757-0.14557 0.28383-0.05059 1.5916-0.21528 0.73548-0.50207-1.4704-2.4352-1.9836-3.6865-1.1391-1.1888 0.64585-1.7061 2.0401-1.5911 3.3381-0.02206 2.0351-0.16657 4.0635-0.30934 6.0914-0.07544 1.6018 1.6812 2.8403 3.1737 2.2965 1.4328-0.40648 2.3562-1.8865 2.2401-3.3477-0.0817-0.74969 0.34715-0.8505 0.56142-0.13319 0.86619 1.5112 3.1578 1.369 4.2156 0.13908 0.30188-0.42127 0.92368-0.01079 1.3793-0.20306 1.6953-0.35163 3.3-1.092 4.8164-1.9102 0.54297-0.22721 0.71101-1.03 1.373-0.88281 1.4608-0.16966 2.4355-1.446 2.8956-2.746 0.13563-0.65377 0.57892-0.77629 0.92274-0.17784 1.1739 1.09 3.0978 0.6309 3.9707-0.61133 0.37463-0.13786 0.96691-0.03297 1.4299-0.11002 3.581-0.39367 6.9203-2.9894 7.9178-6.4974 0.59507-1.8645-0.0383-4.1387-1.8119-5.1181-1.0435-0.62897-2.2786-0.85645-3.485-0.82719z" style="fill-rule:evenodd;fill:#ff2a2a;filter:url(#filter986);stroke-dashoffset:20.001;stroke-linecap:round;stroke-linejoin:round;stroke-width:.5"/>
				<path id="viceWhitheHoleMiddle" d="m134.44 109.34c2.2238-1.3744 3.6436-5.3331 3.0492-8.5018-0.37742-2.0117-2.5899-4.2854-5.6696-5.826-1.4985-0.74965-3.1331-1.363-3.6321-1.363h-0.90759l-1.8173 5.1315c-0.68927 1.9463-2.9577 4.3284-5.5414 4.6341-11.775 1.3935-37.172 1.9481-37.837 1.2835-0.31382-0.31381-0.46039-2.1542-0.46039-5.7805v-5.3202l-0.86323 0.2677c-2.2935 0.7113-5.329 2.6046-6.7331 4.1998-2.3848 2.7092-2.7253 5.6094-1.2271 10.45l0.50463 1.6305h29.915c29.725 0 29.923-5e-3 31.22-0.80596z" style="fill:#ffffff;stroke-width:.99998"/>
				<g id="gViceUpperCrank" transform="matrix(2.0511,0,0,2.0512,-2.8934,48.611)" style="stroke-width:.48752">
								<path id="vicePath375_id" d="m87.588 16.271c-2.2163-8e-3 -4.5536-0.03533-6.6975-0.01666-0.06745 0.34548-0.02954 0.64582-0.02954 1.0253h6.7337c0.0024-0.33624-0.0025-0.67242-0.0067-1.0086z" style="fill:#cacaca;stroke-width:.48752"/>
								<path id="vicePath361_id" d="m84.789 25.603v-6.8267h-1.3093v6.702c0 3.6861 0.05611 6.7582 0.1247 6.8267 0.06858 0.06858 0.36318 0.12469 0.65467 0.12469h0.52997z" style="fill:#c8c8c8;stroke-width:.48752"/>
				</g>
				<path id="viceCrankShaft" d="m161.43 126.81v-3.2842l-1.3908 0.11905c-1.3636 0.11676-1.4112 0.17706-2.4357 3.0864-0.57472 1.632-0.95595 3.0563-0.84716 3.165 0.10879 0.10879 1.2049 0.19779 2.4357 0.19779h2.238z" style="fill:#7a7a7a;stroke-width:.99998"/>
				<path id="viceCrankSocket" d="m174.66 126.64v-8.6321h-10.359l-0.10378 8.2388c-0.0571 4.5313-0.0174 8.4639 0.0882 8.7391 0.14739 0.38411 1.3739 0.47537 5.2832 0.39313l5.0912-0.10711z" style="fill:#a6a6a6;stroke-width:.99998"/>
				<g id="gViceClawOne" transform="matrix(2.0511,0,0,2.0512,-2.8934,48.611)" style="stroke-width:.48752">
								<path id="vicePath355_id" d="m72.189 44.576c1.5465-1.2008 2.7579-2.7756 3.8048-4.9462 2.0788-4.3096 2.5221-9.16 1.2908-14.121-0.76992-3.102-2.0825-5.2805-4.1314-6.8569-1.114-0.85714-3.2376-1.9309-4.4967-2.2736l-0.70143-0.19095v1.4c0 2.111-0.01388 2.1235-2.3506 2.1235-1.6276 0-1.9829 0.0512-2.0782 0.29943-0.14332 0.37344 0.15201 0.56208 1.123 0.71734 1.6585 0.26518 4.0492 1.995 4.7985 3.472 0.51575 1.0167 0.60519 1.7383 0.3737 3.0148-0.25353 1.398-0.58045 2.0976-1.373 2.9381-1.2356 1.3103-0.3659 1.2378-16.073 1.3414l-14.177 0.09352 1.6996 1.6677v6.0085c0 3.3047 0.05833 6.0668 0.12963 6.1381 0.07129 0.07129 7.0899 0.10636 15.597 0.07793l15.467-0.05169z" style="fill:#939393;stroke-width:.48752"/>
								<path id="vicePath353_id" d="m14.459 38.464v-6.9697h-4.6762v14.055l4.6762-0.11522z" style="fill:#939393;stroke-width:.48752"/>
				</g>
				<path id="viceClawTwo" d="m76.256 132.94v-14.421l-1.9441-2.1716c-3.8667-4.319-5.9923-10.76-5.0055-15.169 0.94646-4.2292 4.4673-7.7373 9.6482-9.6132 1.8416-0.6668 2.4808-1.0823 2.4808-1.6123-2.6611-1.4457-4.5108-0.919-8.4405-1.0976-0.07583-2.3218-0.10559-4.6665-0.36555-6.9671-0.24582-0.68633-6.6796 0.82895-10.814 2.547-6.0979 2.5338-10.939 6.3749-15.154 12.024-2.1982 2.9457-4.3516 7.0104-5.3216 10.044-0.26986 0.84401-0.68142 1.6614-0.91461 1.8164-3.7361 0.4109-6.6179 0.28908-10.591 0.2939v38.747h46.423z" style="fill:#aeaeae;stroke-width:.99998"/>
				<g id="gViceScrews" transform="matrix(2.0511,0,0,2.0512,-2.8934,48.611)" style="stroke-width:.48752">
								<path id="vicePath349_id" d="m53.178 54.599c-1.2854-2.0578-3.2084-2.1692-4.2881-0.14323 0.14517 0.18708 0.6972 0.01656 2.0302 0.01656 1.1831 0 2.2579 0.17452 2.2579 0.12666z" style="fill:#d7d7d7;stroke-width:.48752"/>
								<path id="vicePath347_id" d="m24.21 54.359c-1.1134-1.66-3.3113-1.5161-4.1626 0 0.71592 0.0648 1.3586 0.0082 1.9615 0.0075 0.776-9.46e-4 1.486 0.03795 2.2011-0.0075z" style="fill:#d7d7d7;stroke-width:.48752"/>
				</g>
				<path id="viceTopPlate" d="m35.329 159.69c2.7456-7.1363 11.523-6.9458 14.275 0.0424l0.2633 1.055h44.267l0.47206-1.3054c1.1011-3.045 3.6801-4.8328 6.9715-4.8328 3.2065 0 5.853 1.7576 7.0845 4.7048l0.59894 1.4334h6.1281v-10.358c-30.067 0.15497-57.037 0-85.555 0v10.358c1.7835-0.0752 5.1805 0.43826 5.4947-1.0974z" style="fill:#8d8d8d;stroke-width:.99998"/>
				<g id="gViceLowerCrank" transform="matrix(2.0511,0,0,2.0512,-2.8934,48.611)" style="stroke-width:.48752">
								<path id="vicePath343_id" d="m84.789 50.852v-7.2008h-1.3093v14.402h1.3093z" style="fill:#989898;stroke-width:.48752"/>
								<path id="vicePath341_id" d="m87.561 60.064 0.05919-0.51434h-6.7586v1.0667l6.6402-0.038z" style="fill:#8f8f8f;stroke-width:.48752"/>
				</g>
				<path id="viceBasePlate" d="m124.21 169.8v-5.9464h-107.04v11.893h107.04z" style="fill:#f28868;stroke-width:.99998"/>
				<path id="path548" d="m97.536 46.205c-0.34169 0.14522-0.70605 0.3253-1.0931 0.53992-0.38218 0.20931-0.7854 0.45251-1.2113 0.73058-0.1328-0.02795-0.28014-0.0088-0.44046 0.05911-0.50848 0.21558-0.76596 0.5799-0.77732 1.0951-0.0032 0.11855 0.0113 0.28835 0.04211 0.50664 0.03239 0.21493 0.04533 0.38201 0.04211 0.50039-0.0096 0.44979-0.05831 1.1439-0.14898 2.0817-0.08909 0.93106-0.13926 1.6207-0.14898 2.071-0.02262 1.084 0.16031 1.7087 0.54734 1.8743 0.35141 0.15036 1.1174-0.01316 2.3028-0.49252 1.1514-0.46569 1.9125-0.80511 2.2817-1.0184 0.43399-0.2493 0.65586-0.56576 0.66558-0.94648 0.0064-0.22795-0.0761-0.3685-0.24615-0.42361-0.14898-0.05043-0.33036-0.03277-0.54411 0.05446-0.06965 0.0286-0.17652 0.08193-0.32064 0.1608-0.14413 0.07887-0.25425 0.13333-0.32711 0.16321-0.22834 0.09285-0.57003 0.23775-1.0267 0.43437-0.45829 0.1963-0.79834 0.34136-1.0251 0.43339-0.41779 0.17044-0.64775 0.24224-0.6866 0.21478-0.08097-0.05685-0.11499-0.41733-0.10041-1.078 0.0064-0.26312 0.02754-0.61364 0.06317-1.053 1.0429-0.50793 1.8267-0.897 2.3497-1.1667 0.58622-0.2893 1.0283-0.5065 1.3247-0.64897 0.47123-0.24899 0.71252-0.57701 0.72224-0.98438 0.0064-0.2122-0.06638-0.34988-0.21862-0.41187-0.1522-0.06522-0.33844-0.05173-0.55706 0.03918-0.18784 0.07855-0.63803 0.29751-1.3425 0.65508-1.2307 0.62343-1.9465 0.98343-2.1505 1.0819 0.05182-0.90183 0.0842-1.5792 0.09394-2.0311 0.35627-0.23052 0.6931-0.43227 1.0089-0.6056 0.31578-0.17381 0.61211-0.31983 0.88903-0.43597 0.56356-0.23726 1.1433-0.40561 1.7392-0.50698 0.08097-0.01382 0.16031-0.0371 0.2332-0.06842 0.23156-0.0967 0.42104-0.25398 0.57489-0.47469 0.13765-0.19405 0.20889-0.38215 0.21214-0.56128 0.0101-0.31694-0.15707-0.46168-0.49553-0.43726-0.55706 0.03824-1.3004 0.25494-2.2315 0.64947zm13.342-5.4008c-0.23483 0.09926-0.4583 0.28882-0.67207 0.57092-0.21213 0.27823-0.32224 0.51357-0.3287 0.70761-0.013 0.39179-0.026 0.97603-0.0357 1.7514-8e-3 0.77282-0.0195 1.3548-0.0324 1.7447-0.0114 0.351-0.0485 0.884-0.11015 1.6006-0.06 0.7142-0.0956 1.2472-0.10687 1.5964-6e-3 0.19566 0.0663 0.33059 0.21702 0.40721 0.14896 0.0731 0.33842 0.06458 0.56676-0.02377l2e-3 -9.58e-4c0.25099 0.04274 0.59756 0.02136 1.0412-0.0686 0.36761-0.07631 0.69472-0.17285 0.98137-0.28835 1.1805-0.47757 2.1068-1.0405 2.7788-1.6883 0.59917-0.57863 1.0817-1.2196 1.4429-1.9232 0.36276-0.6946 0.55384-1.3513 0.57974-1.9691 0.0404-1.0263-0.4178-1.7585-1.3716-2.1942-0.79834-0.36561-1.7716-0.47275-2.9181-0.32288-0.11336 0.01624-0.46962 0.02201-1.0688 0.01671-0.51496 6.43e-4 -0.83723 0.02891-0.96518 0.0837zm-24.285 10.294c-0.20404 0.08594-0.37408 0.22056-0.51334 0.40432-0.13765 0.18377-0.2089 0.36754-0.21051 0.54987-0.0064 0.42425-0.02591 1.0673-0.05992 1.9293-0.03239 0.85748-0.05182 1.4973-0.05831 1.9192-0.0047 0.33253-0.04371 0.84206-0.1166 1.5286-0.06801 0.68401-0.10364 1.1907-0.10849 1.5217-0.0032 0.18024 0.06316 0.30554 0.19596 0.37525 0.1328 0.06972 0.3012 0.06329 0.50201-0.01831 0.20243-0.08161 0.37083-0.21092 0.50848-0.39067 0.13765-0.17991 0.20729-0.36112 0.21051-0.54199 0.0047-0.29284 0.02914-0.67678 0.07125-1.1522 0.05019-0.54152 0.07935-0.92512 0.09068-1.1526 0.67366-0.39566 1.3506-0.79115 2.0291-1.1862 0.8194-0.47662 1.5109-0.84271 2.0712-1.0969-0.0096 0.14988-0.01949 0.32095-0.02262 0.51132-0.0047 0.24369 0.0017 0.604 0.01297 1.0822 0.0161 0.47628 0.01949 0.83645 0.01464 1.0795-0.0032 0.17959 0.07125 0.29878 0.22184 0.35967 0.15059 0.06442 0.33197 0.05301 0.54248-0.03229 0.20728-0.08386 0.38219-0.21702 0.52467-0.40031 0.14252-0.18345 0.21376-0.3669 0.21701-0.55066 0.0047-0.244-0.0064-0.60014-0.03565-1.0692-0.02914-0.46922-0.04211-0.82521-0.03722-1.0699 0.0064-0.31854 0.03399-0.7995 0.0826-1.4424 0.04698-0.64367 0.0745-1.1261 0.08097-1.4459 0.0017-0.09445 0.01464-0.24336 0.03724-0.44642 0.02431-0.20803 0.03887-0.35823 0.04051-0.45268 0.0032-0.18216 0.04533-0.41237 0.12147-0.68914 0.0161-0.05686 0.02431-0.11036 0.02431-0.16112 0.0047-0.1926-0.07126-0.32064-0.22673-0.38201-0.14574-0.05575-0.31578-0.04306-0.50523 0.03759-0.25586 0.10811-0.48582 0.41172-0.69471 0.91099-0.1668 0.40449-0.25909 0.7391-0.27206 1.0008-0.0502 0.99708-0.0826 1.6086-0.10202 1.839-0.58136 0.26169-1.2728 0.62665-2.0728 1.0909l-2.0323 1.1981c0-0.11454 0.0113-0.2856 0.03563-0.51292 0.02754-0.24546 0.04211-0.4085 0.04211-0.49139 0.0047-0.25205 0.01949-0.63453 0.04533-1.1466 0.02917-0.51726 0.04533-0.90166 0.04858-1.1547 0.0032-0.18297-0.06155-0.31019-0.19596-0.37878-0.13441-0.06859-0.30444-0.05911-0.50687 0.02698zm19.219-7.7461c-0.22183 0.09364-0.83073 1.004-1.8185 2.72-0.68501 1.1887-1.302 2.3145-1.8591 3.3818-0.35141 0.2363-0.536 0.43984-0.55545 0.61076-9e-3 0.09575 8e-3 0.18634 0.0584 0.27116-0.57326 1.2335-0.8599 1.9357-0.86474 2.1098-5e-3 0.1979 0.0728 0.32737 0.23319 0.39067 0.16031 0.05992 0.3433 0.04867 0.54897-0.03439 0.28987-0.11807 0.52146-0.33236 0.69311-0.6456 0.44857-0.93154 0.76432-1.6228 0.94732-2.0719 0.3174-0.18136 0.77731-0.41428 1.3765-0.69718 0.638-0.29942 1.0979-0.52658 1.3813-0.68031 0.12793 0.47452 0.28502 0.87693 0.4745 1.2034 0.28499 0.5097 0.57972 0.70792 0.88095 0.59596 0.21049-0.0784 0.4016-0.21976 0.57163-0.42215 0.17327-0.20401 0.26234-0.40674 0.26881-0.60849 5e-3 -0.14955-0.0567-0.34618-0.18623-0.58906-0.15707-0.29284-0.24614-0.48175-0.27044-0.56818-0.29634-1.1535-0.54574-2.1839-0.74817-3.0921-0.1425-0.67885-0.24615-1.1902-0.3109-1.5322-0.12794-0.40578-0.40001-0.51999-0.82105-0.342zm5.6418-0.98183c1.2372-0.06072 2.0436-0.06153 2.4193-0.0049 1.1255 0.16514 1.6728 0.68945 1.6388 1.5725-0.0147 0.37702-0.13441 0.78358-0.3595 1.2178-0.21861 0.43213-0.50687 0.82087-0.86797 1.1664-0.37895 0.36336-0.9927 0.71838-1.8412 1.0637-0.24291 0.09896-0.46152 0.16851-0.66072 0.20755-0.19272 0.03406-0.36275 0.03615-0.51174 0.01046zm-6.1149 3.6697c0.13765 0.65654 0.24615 1.1907 0.32388 1.6043-0.11173 0.05943-0.37894 0.18923-0.80644 0.38924-0.3595 0.16963-0.62671 0.30778-0.79836 0.41268 0.54248-1.0141 0.97-1.817 1.2809-2.4061z" style="fill-rule:evenodd;fill:#00ff00;stroke-dashoffset:20.001;stroke-linecap:round;stroke-linejoin:round;stroke-width:.5"/>
				<path id="path5216" d="m84.663 91.646c-0.13138 1.1008-0.64435 0.60972-0.79271 1.7225l-0.42564-23.472c0.13455-5.3461 1.1717-6.8356 1.5596-3.59 0.68155 5.7026 0.67422 21.612-0.3413 25.34z" style="fill-rule:evenodd;fill:#323232;stroke-width:.99997"/>
				<path id="path299" d="m120.74 48.482c-1.719 0.24686-2.4326 2.0246-3.2754 3.3106-0.38775 0.65482-0.76856 1.3136-1.1349 1.9807-0.14133-1.6373-2.0671-2.629-3.5256-1.955-1.991 0.73502-3.9557 1.5359-5.8978 2.3916-1.2701 0.40661-2.75 0.75315-3.4238 2.0437-0.27446 0.49628-0.31201 1.1465-0.95172 0.58746-1.363-0.45764-2.7936 0.39547-3.4133 1.615-1.124 1.7884-2.1006 3.665-3.066 5.5423-1.3519-1.8594-3.8435-2.3521-6.0099-2.1095-1.2454-0.09666-2.6812-0.09497-3.5735 0.93231-0.95068 0.88684-1.2922 2.2063-1.1614 3.4703 0.05153 2.1893-0.0699 4.3734-0.16182 6.5589-0.04966 1.5382 1.5146 2.7627 2.9977 2.4357 2.3444-0.02754 4.5848-1.2107 6.234-2.8282 0.42859-0.33857 0.654-1.2114 1.2698-0.71534 1.6997 0.45304 3.3637-0.86519 3.8633-2.4442 0.32496-0.54326 0.35102-1.3618 1.0699-1.5231 0.70823 1.3121 2.515 1.8789 3.7748 1.0045 1.4363-0.84084 2.1312-2.8073 1.2576-4.2906-0.54087-1.2712-0.69307-2.6815-1.041-4.0167-0.21405-0.5949 0.74702 0.102 1.1128-0.1223 0.65557-0.21078 0.97596-0.11571 0.84577 0.63893 0.013 1.1369 0.0437 2.2728-0.0232 3.4035 0.1467 1.5912 1.9681 2.595 3.4224 2.0126 1.8854-0.62515 2.7191-2.8128 2.3982-4.6572 0.0159-1.2634-0.0543-2.525-0.11591-3.7864 0.65836-0.23209 1.4355-0.53879 2.011-0.75727-0.5992 0.63308-0.4325 1.5464-0.87162 2.2529-0.52591 1.0944-1.0542 2.4811-0.24415 3.5813 0.94424 1.4716 3.1895 1.3341 4.3102 0.14064 0.91073-0.81036 1.135-2.126 1.7916-3.0693 0.57196-0.52951 0.84695-0.12055 1.2068 0.36836 1.0601 1.1792 2.9999 0.97988 4.0108-0.1576 1.1369-1.0158 1.3547-2.7838 0.54301-4.0647-0.62559-1.9521-0.91842-4.0092-1.3773-6.008-0.37107-1.1903-1.6131-1.9867-2.8514-1.7657zm-29.843 19.202c0.66987-0.08562-0.32398 1.3263-0.02115 0.23768 0.02362-0.05525-0.0321-0.21456 0.02115-0.23768z" style="fill-rule:evenodd;fill:#ff2a2a;filter:url(#filter979);mix-blend-mode:normal;stroke-dashoffset:20.001;stroke-linecap:round;stroke-linejoin:round;stroke-width:.5"/>
				<path id="path965" d="m86.915 64.188c-0.24991 0.1107-0.48824 0.3317-0.7149 0.66258-0.22474 0.32632-0.33711 0.60576-0.34098 0.83871-0.0059 0.47012-0.0075 1.1714-0.0037 2.1026 0.0075 0.92848 0.0075 1.626 2e-3 2.0939-0.0059 0.42124-0.03682 1.0615-0.08911 1.9202-0.04842 0.85585-0.07751 1.4933-0.08333 1.9126-2e-3 0.23477 0.07752 0.40112 0.24217 0.49863 0.16275 0.09356 0.3681 0.09075 0.61222-8e-3 0.27316 0.06064 0.64904 0.04448 1.1276-0.04788 0.39522-0.07859 0.74589-0.1819 1.052-0.31035 1.267-0.53135 2.255-1.174 2.9679-1.9277 0.63547-0.67317 1.1431-1.4257 1.5189-2.2572 0.37584-0.82076 0.57153-1.6016 0.5851-2.3424 0.02328-1.2304-0.48434-2.1264-1.5228-2.6847-0.86795-0.46811-1.9219-0.63248-3.1561-0.49484-0.12206 0.01536-0.50759 0.0084-1.1566-0.02015-0.5541-0.01814-0.90089 0.0032-1.0404 0.06423zm18.21-7.7473c-0.2538 0.11868-0.4669 0.30896-0.63739 0.57084-0.16464 0.25191-0.25186 0.49027-0.25768 0.71545-0.0118 0.45856 0.23057 0.63906 0.72459 0.54094 0.5851-0.11549 1.3794-0.39253 2.3888-0.83194l0.35261-0.15398c6e-3 0.43581 0.0466 1.2131 0.12207 2.331 0.0679 0.97215 0.0931 1.754 0.0756 2.3458-6e-3 0.20743-2e-3 0.51061 0.0137 0.90911 0.0214 0.39652 0.0271 0.69611 0.0214 0.89874-2e-3 0.06602-0.0135 0.16754-0.0406 0.30516-0.0271 0.13264-0.0406 0.22977-0.0427 0.2914-7e-3 0.25949 0.0931 0.43063 0.30029 0.51279 0.18596 0.07399 0.40295 0.05844 0.6529-0.04647 0.34485-0.145 0.61414-0.42664 0.8118-0.8449 0.15304-0.32651 0.23442-0.65542 0.2441-0.98712 4e-3 -0.15039-6e-3 -0.367-0.0291-0.64982-0.0233-0.28304-0.031-0.50002-0.0271-0.65063 0.0193-0.66459-2e-3 -1.5494-0.064-2.6538-0.0658-1.2532-0.10073-2.1304-0.10463-2.6306 0.38361-0.17173 0.93963-0.39153 1.6681-0.66041 0.75754-0.28184 1.3174-0.50144 1.6778-0.6586 0.27703-0.12087 0.51147-0.30957 0.70327-0.56565 0.19567-0.26288 0.29839-0.52276 0.30612-0.77946 8e-3 -0.2567-0.0795-0.43163-0.26543-0.52377-0.18016-0.09414-0.40878-0.08038-0.68584 0.04169-0.35262 0.15438-0.87765 0.36341-1.577 0.6261-0.69746 0.2577-1.2206 0.46293-1.5693 0.61593-0.27897 0.12247-0.69551 0.31054-1.2535 0.56407-0.55022 0.25052-0.96482 0.43701-1.2399 0.55846-0.27704 0.12147-0.63937 0.2561-1.085 0.4039-0.55798 0.17931-0.91446 0.29878-1.0714 0.35923-0.0387 0.01395-0.0757 0.02952-0.11236 0.04668zm-4.6284 2.2778c-0.25574 0.11249-0.9532 1.2384-2.0885 3.3677-0.78466 1.4748-1.4957 2.8741-2.1331 4.1996-0.40492 0.28861-0.61804 0.53951-0.63935 0.75335-0.01169 0.11967 0.01169 0.23356 0.06973 0.34106-0.65483 1.5336-0.98419 2.4068-0.98806 2.6248-0.0059 0.24812 0.08526 0.41366 0.27124 0.49646 0.18597 0.07858 0.39717 0.06782 0.63547-0.03191 0.33518-0.14142 0.60253-0.40669 0.79822-0.79563 0.51341-1.1576 0.8757-2.0169 1.0869-2.576 0.36618-0.2202 0.89507-0.50103 1.5867-0.8425 0.73815-0.36121 1.2709-0.63566 1.5964-0.82216 0.1511 0.59756 0.33711 1.1032 0.55993 1.5165 0.33322 0.64505 0.67421 0.90075 1.023 0.7669 0.24216-0.09375 0.46112-0.26528 0.65679-0.51499 0.19955-0.25191 0.30223-0.50404 0.30805-0.75653 6e-3 -0.18749-0.0678-0.43481-0.21892-0.74198-0.18404-0.3706-0.28867-0.61033-0.31772-0.71924-0.34872-1.4522-0.64517-2.7495-0.88347-3.8922-0.16857-0.85407-0.29059-1.4965-0.36809-1.9267-0.1492-0.5112-0.46887-0.65999-0.95514-0.44638zm20.112-8.8314c-0.27705 0.12127-1.0404 1.307-2.2823 3.546-0.8602 1.5508-1.641 3.0213-2.3423 4.4136-0.43783 0.30698-0.66841 0.57165-0.69355 0.79504-0.0136 0.12506 0.01 0.24353 0.0697 0.35463-0.72074 1.6092-1.083 2.5247-1.0908 2.7523-0.01 0.2587 0.0853 0.43024 0.28481 0.51379 0.19761 0.07938 0.42428 0.06542 0.68001-0.04189 0.3623-0.15238 0.65096-0.43303 0.86605-0.8415 0.56572-1.2149 0.96482-2.1166 1.1973-2.703 0.39521-0.23516 0.96673-0.53575 1.7127-0.90214 0.7943-0.38754 1.3678-0.68153 1.7204-0.88099 0.15484 0.6215 0.34875 1.1463 0.58122 1.5743 0.34872 0.66838 0.71102 0.93046 1.0869 0.78585 0.2615-0.10133 0.49985-0.28362 0.71102-0.5471 0.21711-0.26588 0.33131-0.53034 0.34097-0.79423 8e-3 -0.19547-0.0675-0.45256-0.22468-0.7711-0.19164-0.38414-0.30221-0.63287-0.33125-0.74616-0.35649-1.5107-0.65679-2.8605-0.89897-4.0496-0.16869-0.88896-0.29257-1.5578-0.37001-2.0057-0.15289-0.53174-0.49407-0.68215-1.0172-0.45175zm-33.039 16.206c1.3329-0.02754 2.2048-5.98e-4 2.6116 0.08138 1.2186 0.23955 1.8211 0.88977 1.8018 1.9487-0.0075 0.45217-0.12983 0.93525-0.36231 1.4487-0.22861 0.51081-0.53279 0.96736-0.91446 1.3693-0.40104 0.42266-1.0578 0.82634-1.9665 1.2109-0.26155 0.11008-0.4979 0.18488-0.71102 0.22479-0.2073 0.03389-0.3933 0.03249-0.5541-0.0036zm12.397-4.017c0.16274 0.82614 0.29059 1.4989 0.38361 2.0191-0.12783 0.072-0.43786 0.22897-0.92995 0.47012-0.41848 0.20464-0.72459 0.3706-0.9222 0.49824 0.62191-1.2592 1.1121-2.2556 1.4686-2.9875zm20.029-8.6764c0.16457 0.85987 0.29448 1.5602 0.38747 2.1017-0.13945 0.07698-0.47468 0.24533-1.0055 0.50423-0.44948 0.2196-0.78078 0.39733-0.99388 0.53355 0.68196-1.3232 1.2206-2.3703 1.6119-3.1394z" style="fill-rule:evenodd;fill:#00ff00;stroke-dashoffset:20.001;stroke-linecap:round;stroke-linejoin:round;stroke-width:.5"/>
				<path id="path4731" d="m125.75 62.454c-2.68 12.685-1.8567 21.542-0.56945 31.106z" style="fill-rule:evenodd;fill:#323232;stroke-width:.99998"/>
</svg>
