<svg width="24" height="24" viewBox="0 0 24 24" fill="none" xmlns="http://www.w3.org/2000/svg">
<path d="M0 12C0 5.37258 5.37258 0 12 0C18.6274 0 24 5.37258 24 12C24 18.6274 18.6274 24 12 24C5.37258 24 0 18.6274 0 12Z" fill="#F8DF52"/>
<path fill-rule="evenodd" clip-rule="evenodd" d="M6.89007 16.1954H4.81348V15.6523L6.23243 14.2743V10.5296C6.23243 8.39073 7.52471 6.66658 9.57077 6.18245V5.70083C9.57077 5.1498 10.0624 4.6665 10.6268 4.6665C11.19 4.6665 11.6829 5.1498 11.6829 5.70083V6.18245C13.0095 6.49601 14.0526 7.33133 14.6224 8.46306C14.9309 9.0768 15.1011 9.77749 15.1011 10.5296V14.2743L16.5196 15.6523V16.1954H6.89007Z" stroke="black" stroke-width="1.3"/>
<path fill-rule="evenodd" clip-rule="evenodd" d="M8.94238 18.1599C8.94238 19.0728 9.72866 19.7178 10.712 19.7178C11.6799 19.7178 12.3907 19.0837 12.3907 18.1599V17.9653H8.94238V18.1599Z" fill="black"/>
<path fill-rule="evenodd" clip-rule="evenodd" d="M18.5502 8L18.5502 13.3333H19.8502L19.8502 8H18.5502ZM19.9502 15.3313C19.9502 14.9171 19.6144 14.5814 19.2001 14.5814C18.7859 14.5814 18.4502 14.9172 18.4502 15.3314V15.3542C18.4502 15.7684 18.786 16.1042 19.2002 16.1042C19.6145 16.1041 19.9502 15.7683 19.9502 15.3541L19.9502 15.3313Z" fill="black"/>
</svg>
