<svg width="40" height="40" viewBox="0 0 40 40" fill="none" xmlns="http://www.w3.org/2000/svg">
<path fill-rule="evenodd" clip-rule="evenodd" d="M17.7152 5.30421C18.4357 5.29767 19.1965 5.29547 20.0004 5.29547C20.8044 5.29547 21.5652 5.29767 22.2857 5.30421L22.2993 3.80428C21.5726 3.79768 20.8068 3.79547 20.0004 3.79547C19.1941 3.79547 18.4283 3.79768 17.7016 3.80428L17.7152 5.30421ZM26.7978 5.45547C28.6386 5.59082 30.0135 5.83346 31.0556 6.24126L31.6022 4.84441C30.3515 4.35499 28.8004 4.09867 26.9078 3.95951L26.7978 5.45547ZM8.94532 6.24126C9.9874 5.83346 11.3623 5.59082 13.2031 5.45547L13.0931 3.95951C11.2005 4.09867 9.64934 4.35499 8.39869 4.84441L8.94532 6.24126ZM5.45589 13.2026C5.59125 11.3619 5.83389 9.98697 6.24168 8.9449L4.84483 8.39826C4.35541 9.64892 4.09909 11.2001 3.95993 13.0926L5.45589 13.2026ZM33.7592 8.9449C34.167 9.98697 34.4096 11.3619 34.545 13.2026L36.041 13.0926C35.9018 11.2001 35.6455 9.64892 35.1561 8.39826L33.7592 8.9449ZM34.6962 17.7148C34.7028 18.4353 34.705 19.1961 34.705 20C34.705 20.8039 34.7028 21.5648 34.6962 22.2853L36.1962 22.2989C36.2028 21.5721 36.205 20.8064 36.205 20C36.205 19.1937 36.2028 18.4279 36.1962 17.7011L34.6962 17.7148ZM5.2959 20C5.2959 19.1961 5.2981 18.4353 5.30464 17.7148L3.8047 17.7011C3.7981 18.4279 3.7959 19.1937 3.7959 20C3.7959 20.8064 3.7981 21.5721 3.8047 22.2989L5.30464 22.2853C5.2981 21.5648 5.2959 20.8039 5.2959 20ZM6.24168 31.0551C5.83389 30.0131 5.59125 28.6381 5.45589 26.7974L3.95993 26.9074C4.09909 28.7999 4.35541 30.3511 4.84483 31.6018L6.24168 31.0551ZM34.545 26.7974C34.4096 28.6381 34.167 30.0131 33.7592 31.0551L35.1561 31.6018C35.6455 30.3511 35.9018 28.7999 36.041 26.9074L34.545 26.7974ZM13.2031 34.5446C11.3623 34.4092 9.9874 34.1666 8.94532 33.7588L8.39869 35.1556C9.64934 35.645 11.2005 35.9014 13.0931 36.0405L13.2031 34.5446ZM31.0556 33.7588C30.0135 34.1666 28.6386 34.4092 26.7978 34.5446L26.9078 36.0405C28.8004 35.9014 30.3515 35.645 31.6022 35.1556L31.0556 33.7588ZM20.0004 34.7046C19.1965 34.7046 18.4357 34.7024 17.7152 34.6958L17.7016 36.1958C18.4283 36.2024 19.1941 36.2046 20.0004 36.2046C20.8068 36.2046 21.5726 36.2024 22.2993 36.1958L22.2857 34.6958C21.5652 34.7024 20.8044 34.7046 20.0004 34.7046ZM16.2821 19.3803V20.6198H23.7188V19.3803H16.2821Z" fill="#DBDBDB"/>
</svg>
