<svg width="169" height="126" viewBox="0 0 169 126" fill="none" xmlns="http://www.w3.org/2000/svg">
<path fill-rule="evenodd" clip-rule="evenodd" d="M48.3124 6H78.1213L92 16.4248V108.922L79.7467 120H49.0643H13.2533L0.999996 108.922V16.4248L14.8786 6H48.3124Z" stroke="#787878" stroke-width="1.6" stroke-dasharray="4 4"/>
<path fill-rule="evenodd" clip-rule="evenodd" d="M119.688 1H152.5L167.777 12.339V112.948L154.29 124.998H120.516H81.0971L67.6093 112.948V12.339L82.8862 1H119.688Z" fill="#262626" stroke="#DBDBDB" stroke-width="1.6"/>
<path d="M67.6104 12.3413L98.1641 107.792L81.0981 125" stroke="#DBDBDB" stroke-width="1.6"/>
<path d="M167.605 12.3413L137.052 107.792L154.118 125" stroke="#DBDBDB" stroke-width="1.6"/>
<path fill-rule="evenodd" clip-rule="evenodd" d="M102.844 102.678V97.7181H132.603V102.678H102.844Z" fill="#DBDBDB"/>
<path d="M98.1641 107.787H137.049" stroke="#DBDBDB" stroke-width="1.6"/>
<path d="M110.281 1L114.239 8.43986H121.193L125.161 1" stroke="#DBDBDB" stroke-width="1.6"/>
<path d="M110.281 124.997L114.239 117.558H121.193L125.161 124.997" stroke="#DBDBDB" stroke-width="1.6"/>
<path d="M92.7222 57L105.722 63.25L92.7222 69.5L92.722 64.099H50V62.4H92.722L92.7222 57Z" fill="#5AE4AF"/>
</svg>
