<svg width="170" height="126" viewBox="0 0 170 126" fill="none" xmlns="http://www.w3.org/2000/svg">
<path fill-rule="evenodd" clip-rule="evenodd" d="M49.0116 6H78.8206L92.6992 16.4248V108.922L80.4459 120H49.7635H13.9525L1.69921 108.922V16.4248L15.5779 6H49.0116Z" stroke="#787878" stroke-width="1.6" stroke-dasharray="4 4"/>
<path fill-rule="evenodd" clip-rule="evenodd" d="M120.688 1H153.5L168.777 12.339V112.948L155.29 124.998H121.516H82.0971L68.6093 112.948V12.339L83.8862 1H120.688Z" fill="#262626" stroke="#DBDBDB" stroke-width="1.6"/>
<path d="M68.6104 12.3413L99.1641 107.792L82.0981 125" stroke="#DBDBDB" stroke-width="1.6"/>
<path d="M168.605 12.3413L138.052 107.792L155.118 125" stroke="#DBDBDB" stroke-width="1.6"/>
<path fill-rule="evenodd" clip-rule="evenodd" d="M103.844 102.678V97.7183H133.603V102.678H103.844Z" fill="#DBDBDB"/>
<path d="M99.1641 107.787H138.049" stroke="#DBDBDB" stroke-width="1.6"/>
<path d="M111.281 1L115.239 8.43986H122.193L126.161 1" stroke="#DBDBDB" stroke-width="1.6"/>
<path d="M111.281 124.997L115.239 117.558H122.193L126.161 124.997" stroke="#DBDBDB" stroke-width="1.6"/>
<path d="M88.1666 63C88.1666 73.5855 79.5854 82.1667 68.9999 82.1667C58.4145 82.1667 49.8333 73.5855 49.8333 63C49.8333 52.4146 58.4145 43.8334 68.9999 43.8334C79.5854 43.8334 88.1666 52.4146 88.1666 63Z" fill="#ADF75E"/>
<path d="M77.4842 57.1667L66.5148 68.1361L60.547 62.1667" stroke="black" stroke-width="2"/>
</svg>
