<?xml version="1.0" encoding="UTF-8"?>
<svg width="40px" height="40px" viewBox="0 0 40 40" version="1.1" xmlns="http://www.w3.org/2000/svg" xmlns:xlink="http://www.w3.org/1999/xlink">
    <!-- Generator: Sketch 62 (91390) - https://sketch.com -->
    <title>Indicator / a.HubStatus-Сonvex</title>
    <desc>Created with Sketch.</desc>
    <defs>
        <linearGradient x1="50%" y1="0%" x2="50%" y2="100%" id="linearGradient-1">
            <stop stop-color="#3D3D3D" offset="0%"></stop>
            <stop stop-color="#242424" offset="100%"></stop>
        </linearGradient>
    </defs>
    <g id="5.-Objects" stroke="none" stroke-width="1" fill="none" fill-rule="evenodd">
        <g id="Indicator-/-a.HubStatus-Сonvex" fill="url(#linearGradient-1)">
            <path d="M22.3419596,0.00964044263 C23.5183939,0.033655894 24.6947332,0.0702960688 25.870361,0.119703351 C26.8179796,0.159570899 27.7647916,0.221223214 28.7113665,0.282400915 C29.9737667,0.363939542 31.2331781,0.475805982 32.4759372,0.725120539 C33.5578183,0.942161368 34.6022198,1.26589535 35.5708555,1.80918561 C36.5956157,2.38399021 37.4176537,3.16895375 38.0321304,4.16939189 C38.6819517,5.22744813 39.0429899,6.39167545 39.2786373,7.60113344 C39.465751,8.56137181 39.5682745,9.53181436 39.6472664,10.5060064 C39.7402065,11.6514864 39.8078122,12.7984378 39.8598093,13.946196 C39.9218642,15.3175448 39.9631867,16.6895105 39.9841089,18.0625203 C40.000951,19.1658547 40.0048887,20.2689518 39.9935974,21.3720963 C39.9848205,22.2329506 39.9697338,23.0939947 39.9401296,23.9543269 C39.9033616,25.0236789 39.855492,26.0927462 39.7996046,27.1612439 C39.7566216,27.9832748 39.7059529,28.8052582 39.6371137,29.6254381 C39.5226821,30.9893354 39.362421,32.3473949 38.9695488,33.6654445 C38.5570828,35.0495603 37.9097759,36.2961331 36.8235774,37.2805293 C36.1283061,37.9107213 35.3283289,38.3684862 34.4554798,38.7020922 C33.4198552,39.097825 32.3427183,39.3206087 31.2466993,39.4658879 C30.1856454,39.6065634 29.1193254,39.6812676 28.0516296,39.7460998 C27.155676,39.8004431 26.2595327,39.8464332 25.3628674,39.8860159 C24.4890696,39.924602 23.614987,39.9447257 22.740857,39.9687411 C21.0284636,40.0157279 19.3159279,40.0012047 17.6037243,39.9803691 C16.487732,39.9667952 15.3719293,39.9192864 14.2567435,39.871208 C13.2812761,39.8292047 12.3061882,39.77358 11.3319543,39.7088427 C9.93035747,39.615676 8.5309904,39.4967853 7.15667303,39.1849641 C6.19966081,38.9678758 5.27505189,38.6589972 4.41743193,38.1728979 C3.21371816,37.4905933 2.30201363,36.5287413 1.67468007,35.2949356 C1.11129914,34.1870924 0.808757649,33.000843 0.613626216,31.7822724 C0.454598606,30.7893806 0.370482868,29.7885628 0.302545058,28.7859889 C0.234607248,27.7834625 0.175873303,26.7805563 0.133269844,25.7765111 C0.0995381526,24.9814858 0.0753898668,24.186318 0.0491541065,23.3911029 C-0.0050727906,21.7482751 -0.00611652791,20.1052101 0.00688274576,18.4620976 C0.0137619234,17.5872422 0.0359176198,16.7123869 0.0640510843,15.8379112 C0.0912831394,14.991675 0.125014831,14.1453439 0.173975599,13.3001045 C0.235034231,12.2461299 0.29111139,11.1917756 0.384905419,10.1396521 C0.49074987,8.95183647 0.637964273,7.77128244 0.947859366,6.61711693 C1.24987899,5.49233002 1.69935022,4.43493824 2.42583883,3.51257404 C3.28630535,2.42006085 4.40727921,1.69784124 5.7022251,1.22607526 C6.81522861,0.820565347 7.97078813,0.610216572 9.14209859,0.47191415 C10.1954667,0.347517909 11.2530573,0.277322549 12.3117865,0.218612838 C13.2915711,0.164317035 14.2714507,0.11690313 15.2519944,0.0782695783 C16.7911274,0.0176139522 18.330545,-0.0145648542 19.8708166,0.00641306972 C20.6945626,0.00641306972 21.5185457,-0.00716088104 22.3419596,0.00964044263 Z" id="Fill-1"></path>
        </g>
    </g>
</svg>