<svg width="88" height="88" viewBox="0 0 88 88" fill="none" xmlns="http://www.w3.org/2000/svg">
<path d="M66 74V20C66 18 67.5 16 70 16H76C78.5 16 80 17.5 80 20V74C80 76.5 78.5 78 76 78H70C67.5 78 66 76.5 66 74Z" stroke="#DBDBDB" stroke-width="1.5"/>
<path d="M52 74C52 76.5 53.5 78 56 78H62C64.5 78 66 76.5 66 74V20C66 17.5 64.5 16 62 16H56C54.9153 16 54.0188 16.3765 53.3514 16.9662" stroke="#DBDBDB" stroke-width="1.5"/>
<path fill-rule="evenodd" clip-rule="evenodd" d="M13.7256 10.7864C17.627 8.74896 23.0454 7.25 29.1951 7.25C35.3455 7.25 40.6217 8.74941 44.3818 10.7922C46.2604 11.8128 47.7814 12.9805 48.8426 14.1854C49.8932 15.3782 50.553 16.6783 50.553 17.95V64.5276C50.553 70.8989 47.8097 75.0609 43.7057 77.5867C39.655 80.0798 34.3417 80.9442 29.1934 80.9329H29.1936L29.1951 80.1829L29.1934 80.9329C24.3407 80.9232 18.8896 80.2045 14.6266 77.7993C10.3039 75.3604 7.25 71.2079 7.25 64.5276V17.95C7.25 16.662 7.96255 15.3569 9.06567 14.1704C10.1828 12.9689 11.7764 11.8044 13.7256 10.7864ZM10.1642 15.1918C9.17858 16.2519 8.75 17.2063 8.75 17.95V64.5276C8.75 70.6419 11.4904 74.3075 15.3637 76.4929C19.2966 78.7118 24.443 79.4234 29.1966 79.4329H29.1967C34.218 79.4439 39.2087 78.5931 42.9195 76.3092C46.5772 74.0581 49.053 70.3813 49.053 64.5276V17.95C49.053 17.19 48.6451 16.2305 47.717 15.1768C46.7995 14.1351 45.4309 13.0692 43.6658 12.1103C40.1384 10.1939 35.1106 8.75 29.1951 8.75C23.2787 8.75 18.0996 10.1944 14.42 12.116C12.5786 13.0777 11.1359 14.1467 10.1642 15.1918ZM19.0647 17.4893H39.4833L39.7792 18.1501L29.2501 21.6656L18.721 18.2331L19.0647 17.4893ZM13.8013 34.662C13.8013 33.457 14.7678 32.4878 15.9673 32.4878H41.8681C43.0704 32.4878 44.0424 33.4598 44.0424 34.662V53.8333C44.0424 55.0329 43.0698 56.0075 41.8681 56.0075H15.9673C14.7684 56.0075 13.8013 55.0356 13.8013 53.8333V34.662ZM15.9673 30.9878C13.9339 30.9878 12.3013 32.6341 12.3013 34.662V53.8333C12.3013 55.8575 13.9334 57.5075 15.9673 57.5075H41.8681C43.8993 57.5075 45.5424 55.8602 45.5424 53.8333V34.662C45.5424 32.6314 43.8988 30.9878 41.8681 30.9878H15.9673Z" fill="#DBDBDB"/>
</svg>
