<svg width="24" height="24" viewBox="0 0 24 24" fill="none" xmlns="http://www.w3.org/2000/svg">
<g clip-path="url(#clip0_660_39857)">
<path fill-rule="evenodd" clip-rule="evenodd" d="M14.2156 1.50001C14.2156 1.20383 14.0413 0.935388 13.7707 0.814889C13.5002 0.69439 13.184 0.744407 12.9639 0.942543L5.6778 7.50001H1.71561C1.30139 7.50001 0.965607 7.8358 0.965607 8.25001V15.75C0.965607 16.1642 1.30139 16.5 1.71561 16.5H5.6778L12.9639 23.0575C13.184 23.2556 13.5002 23.3056 13.7707 23.1851C14.0413 23.0646 14.2156 22.7962 14.2156 22.5V1.50001ZM6.46733 8.80748L12.7156 3.18404V20.816L6.46733 15.1925C6.32961 15.0686 6.15089 15 5.96561 15H2.46561V9.00001H5.96561C6.15089 9.00001 6.32961 8.93143 6.46733 8.80748ZM16.016 14.9268L18.9476 11.9953L16.0257 9.07337L17.0863 8.01271L20.0082 10.9346L22.9301 8.01271L23.9908 9.07337L21.0689 11.9953L24.0005 14.9268L22.9398 15.9875L20.0082 13.0559L17.0767 15.9875L16.016 14.9268Z" fill="#303030"/>
</g>
<defs>
<clipPath id="clip0_660_39857">
<rect width="24" height="24" fill="white"/>
</clipPath>
</defs>
</svg>
