<svg xmlns="http://www.w3.org/2000/svg" width="24" height="24" fill="none" viewBox="0 0 24 24">
    <path fill="transparent" fill-rule="evenodd" d="M12 24c6.627 0 12-5.373 12-12S18.627 0 12 0 0 5.373 0 12s5.373 12 12 12z" clip-rule="evenodd"/>
    <path fill="#8D8D8D" fill-rule="evenodd" d="M14.152 5l4.686.704-1.594 1.595c1.14 1.25 1.836 2.915 1.836 4.741 0 3.888-3.152 7.04-7.04 7.04S5 15.928 5 12.04c0-1.944.788-3.704 2.062-4.978l.995.997c-1.019 1.019-1.649 2.426-1.649 3.981 0 3.11 2.522 5.632 5.632 5.632s5.632-2.522 5.632-5.632c0-1.438-.539-2.75-1.425-3.744l-1.391 1.39L14.152 5z" clip-rule="evenodd"/>
</svg>
