<?xml version="1.0" encoding="UTF-8"?>
<svg width="48px" height="48px" viewBox="0 0 48 48" version="1.1" xmlns="http://www.w3.org/2000/svg" xmlns:xlink="http://www.w3.org/1999/xlink">
    <!-- Generator: sketchtool 61.2 (101010) - https://sketch.com -->
    <title>2C1193DF-CC53-4B3B-BB0B-D192192F6DC6</title>
    <desc>Created with sketchtool.</desc>
    <g id="Symbols" stroke="none" stroke-width="1" fill="none" fill-rule="evenodd">
        <g id="Icon-/-Incident-/-a.Sleep" fill="#F7F7F7" fill-rule="nonzero">
            <path d="M29,15 L29,20.3658537 C29,20.9800143 28.7036117,21.5583329 28.2,21.9268293 L25.367,24 L28.2,26.0731707 C28.6578288,26.4081674 28.9443986,26.916571 28.9927185,27.4676674 L29,27.6341463 L29,33 L19,33 L19,27.6341463 C19,27.0199857 19.2963883,26.4416671 19.8,26.0731707 L19.8,26.0731707 L22.633,24 L19.8,21.9268293 C19.2963883,21.5583329 19,20.9800143 19,20.3658537 L19,15 L29,15 Z M24,25 L21,27.3478261 L21,31 L27,31 L27,27.3478261 L24,25 Z M27,17 L21,17 L21,20.6521739 L24,23 L27,20.6521739 L27,17 Z" id="Combined-Shape"></path>
        </g>
    </g>
</svg>