<?xml version="1.0" encoding="UTF-8"?>
<svg width="24px" height="24px" viewBox="0 0 24 24" version="1.1" xmlns="http://www.w3.org/2000/svg" xmlns:xlink="http://www.w3.org/1999/xlink" style="background: #181818;">
    <!-- Generator: sketchtool 61 (101010) - https://sketch.com -->
    <title>FBCB0406-4109-4360-8498-C4CE47AFEAC8</title>
    <desc>Created with sketchtool.</desc>
    <g id="Symbols" stroke="none" stroke-width="1" fill="none" fill-rule="evenodd">
        <g id="Icon-/-a.HubStatusIcon-Panic">
            <rect fill="none" x="0" y="0" width="24" height="24"></rect>
            <path d="M5.23674368,12.0000341 C5.23674368,15.7293035 8.27071349,18.7639894 11.999983,18.7639894 C15.7292525,18.7639894 18.7625062,15.7293035 18.7625062,12.0000341 C18.7625062,8.27076458 15.7292525,5.23751083 11.999983,5.23751083 C8.27071349,5.23751083 5.23674368,8.27076458 5.23674368,12.0000341 Z M12,3 C16.962077,3 21,7.03792299 21,12 C21,16.9635773 16.962077,21 12,21 C7.03717286,21 3,16.9635773 3,12 C3,7.03792299 7.03717286,3 12,3 Z M12.6766128,15.3587265 C12.3195533,15.0084181 11.6804467,15.0084181 11.3233872,15.3587265 C11.1441074,15.5380063 11.0420903,15.7870478 11.0420903,16.0428405 C11.0420903,16.291882 11.1441074,16.5409235 11.3233872,16.7194532 C11.501917,16.897983 11.7509585,17 12,17 C12.2490415,17 12.498083,16.897983 12.6766128,16.7194532 C12.8551425,16.5409235 12.9579097,16.291882 12.9579097,16.0428405 C12.9579097,15.7870478 12.8551425,15.5380063 12.6766128,15.3587265 Z M12,7 C11.4711619,7 11.0420903,7.42832139 11.0420903,7.95790965 L11.0420903,7.95790965 L11.0425404,13.1514836 C11.0425404,13.6803217 11.4716119,14.1086431 12.0004501,14.1086431 C12.5292882,14.1086431 12.9583597,13.6803217 12.9583597,13.1514836 L12.9583597,13.1514836 L12.9579097,7.95790965 C12.9579097,7.42832139 12.5288381,7 12,7 Z" id="Combined-Shape" fill="#EA5949"></path>
        </g>
        <g id="Titles" transform="translate(-2096.000000, -786.000000)"></g>
    </g>
</svg>