<?xml version="1.0" encoding="UTF-8"?>
<svg width="24px" height="24px" viewBox="0 0 24 24" version="1.1" xmlns="http://www.w3.org/2000/svg" xmlns:xlink="http://www.w3.org/1999/xlink" style="background: #181818;">
    <!-- Generator: sketchtool 61 (101010) - https://sketch.com -->
    <title>8813BC9D-FCBE-4FA8-A2B4-A80A958EA092</title>
    <desc>Created with sketchtool.</desc>
    <g id="Symbols" stroke="none" stroke-width="1" fill="none" fill-rule="evenodd">
        <g id="Icon-/-a.HubStatusIcon-NightMode">
            <rect fill="none" x="0" y="0" width="24" height="24"></rect>
            <path d="M12,21 C7.02975,21 3,16.97025 3,12 C3,7.02975 7.02975,3 12,3 C16.97025,3 21,7.02975 21,12 C21,16.97025 16.97025,21 12,21 M12,5.25 C15.72825,5.25 18.75,8.27175 18.75,12 C18.75,15.72825 15.72825,18.75 12,18.75 C8.27175,18.75 5.25,15.72825 5.25,12 C5.25,8.27175 8.27175,5.25 12,5.25 Z M12,8.0625 C10.219125,8.0625 8.731875,9.25275 8.245875,10.875 L9.424875,10.875 C9.859125,9.88275 10.846875,9.1875 12,9.1875 C13.553625,9.1875 14.8125,10.446375 14.8125,12 C14.8125,13.553625 13.553625,14.8125 12,14.8125 C10.846875,14.8125 9.859125,14.11725 9.424875,13.125 L8.245875,13.125 C8.731875,14.74725 10.219125,15.9375 12,15.9375 C14.174625,15.9375 15.9375,14.174625 15.9375,12 C15.9375,9.825375 14.174625,8.0625 12,8.0625 Z" id="Combined-Shape" fill="#5AE4AA"></path>
        </g>
        <g id="Titles" transform="translate(-2096.000000, -538.000000)"></g>
    </g>
</svg>