<?xml version="1.0" encoding="UTF-8"?>
<svg width="24px" height="24px" viewBox="0 0 24 24" version="1.1" xmlns="http://www.w3.org/2000/svg" xmlns:xlink="http://www.w3.org/1999/xlink" style="background: #181818;">
    <!-- Generator: sketchtool 61 (101010) - https://sketch.com -->
    <title>448C8960-2A21-4E41-B752-450307DA2209</title>
    <desc>Created with sketchtool.</desc>
    <g id="Symbols" stroke="none" stroke-width="1" fill="none" fill-rule="evenodd">
        <g id="Icon-/-a.HubStatusIcon-Disarmed">
            <rect fill="none" x="0" y="0" width="24" height="24"></rect>
            <path d="M12.0124375,3 C8.2436875,3 5.0138125,5.331 3.6750625,8.625 L6.1759375,8.625 C7.3448125,6.61125 9.5205625,5.25 12.0124375,5.25 C15.7350625,5.25 18.7624375,8.277375 18.7624375,12 C18.7624375,15.7215 15.7350625,18.75 12.0124375,18.75 C9.5205625,18.75 7.3448125,17.38875 6.1759375,15.375 L3.6750625,15.375 C5.0138125,18.669 8.2436875,21 12.0124375,21 C16.9748125,21 21.0124375,16.962375 21.0124375,12 C21.0124375,7.037625 16.9748125,3 12.0124375,3" id="Fill-1" fill="#ADADAD"></path>
        </g>
        <g id="Titles" transform="translate(-2096.000000, -290.000000)"></g>
    </g>
</svg>