<svg width="40" height="40" viewBox="0 0 40 40" fill="none" xmlns="http://www.w3.org/2000/svg">
<circle cx="20" cy="20" r="19.25" stroke="#5AE4AF" stroke-width="1.5"/>
<path fill-rule="evenodd" clip-rule="evenodd" d="M20.0013 10.5C15.8606 10.5 12.3535 13.2212 11.1746 16.9747L9.74357 16.5253C11.1132 12.1646 15.1867 9 20.0013 9C24.1204 9 27.697 11.3163 29.5021 14.7162V11.5H31.0021V16.75V17.5H30.2521H25.0021V16H28.4598C27.0209 12.7592 23.7741 10.5 20.0013 10.5ZM10.5007 25.2838V28.5H9.00071V23.25V22.5H9.75071H15.0007V24H11.5429C12.9818 27.2408 16.2286 29.5 20.0015 29.5C24.1422 29.5 27.6492 26.7788 28.8281 23.0253L30.2592 23.4747C28.8896 27.8354 24.8161 31 20.0015 31C15.8824 31 12.3058 28.6837 10.5007 25.2838ZM17 25.1962L26 20L17 14.8038L17 25.1962Z" fill="#5AE4AF"/>
</svg>
