<svg width="40" height="40" viewBox="0 0 40 40" fill="none" xmlns="http://www.w3.org/2000/svg">
<circle cx="20" cy="20" r="19.25" stroke="#5AE4AA" stroke-width="1.5"/>
<g clip-path="url(#clip0)">
<path d="M25.0937 20L16.8437 25.1962L16.8437 14.8038L25.0937 20Z" fill="#5AE4AA"/>
<path fill-rule="evenodd" clip-rule="evenodd" d="M29.0145 20.0015C28.9827 21.0878 28.9722 21.8431 28.9348 22.5973C28.9055 23.1921 28.8475 23.786 28.7944 24.3799C28.7281 25.1222 28.6165 25.8591 28.4254 26.5843C28.2623 27.2027 28.0464 27.8049 27.6979 28.3615C27.0858 29.3395 26.1678 29.9745 24.9948 30.3216C24.431 30.4885 23.8516 30.5877 23.2644 30.6585C21.7976 30.8355 20.3227 30.8301 18.8485 30.806C18.0235 30.7925 17.2004 30.7274 16.3825 30.6145C15.6041 30.507 14.8487 30.3373 14.1458 30.0061C13.0988 29.5126 12.3909 28.7484 11.9567 27.7662C11.6531 27.0795 11.4522 26.3674 11.3473 25.6353C11.2607 25.0318 11.1847 24.4266 11.1265 23.8203C11.0765 23.3006 11.0415 22.7786 11.0294 22.257C11.0028 21.1118 10.9815 19.9664 10.9847 18.821C10.9866 18.1776 11.039 17.5343 11.0737 16.8911C11.0942 16.5129 11.108 16.1335 11.1549 15.7578C11.2286 15.1643 11.3189 14.5724 11.4183 13.982C11.5192 13.3831 11.7074 12.8041 11.9536 12.2403C12.5537 10.8668 13.6672 10.0137 15.2216 9.6078C15.7923 9.4588 16.3774 9.38215 16.966 9.31678C18.2969 9.16876 19.6335 9.17085 20.9697 9.19246C21.6083 9.20277 22.2472 9.24626 22.8832 9.30159C23.8425 9.38535 24.7849 9.54508 25.6659 9.92251C26.7705 10.3958 27.5206 11.1676 27.9869 12.1768C28.2708 12.7909 28.4598 13.4296 28.5732 14.086C28.6539 14.553 28.7323 15.0209 28.788 15.4906C28.8395 15.9253 28.8719 16.3627 28.891 16.7996C28.9426 17.9768 28.9824 19.1542 29.0145 20.0015Z" stroke="#5AE4AA" stroke-width="1.5"/>
</g>
<defs>
<clipPath id="clip0">
<rect width="24" height="24" fill="white" transform="translate(8 8)"/>
</clipPath>
</defs>
</svg>
