<svg width="214" height="190" viewBox="0 0 214 190" fill="none" xmlns="http://www.w3.org/2000/svg">
<g opacity="0.5">
<path fill-rule="evenodd" clip-rule="evenodd" d="M132.295 71.5013L152.593 106.592C153.353 107.908 152.917 109.238 151.396 109.238H110.819C109.3 109.238 108.491 107.908 109.254 106.592L129.53 71.5013C130.29 70.1851 131.535 70.1851 132.295 71.5013Z" stroke="#DBDBDB"/>
<path fill-rule="evenodd" clip-rule="evenodd" d="M131.6 96.677C131.563 97.0345 130.328 96.9794 130.296 96.677L129.103 84.5172C129.003 83.4986 129.749 82.5914 130.768 82.4898C131.787 82.3906 132.695 83.1362 132.794 84.1549C132.806 84.2761 132.804 84.4034 132.794 84.5172L131.6 96.677ZM129.103 100.811C129.103 99.7928 129.927 98.9652 130.948 98.9652C131.97 98.9652 132.796 99.7928 132.796 100.811C132.796 101.834 131.97 102.66 130.948 102.66C129.927 102.66 129.103 101.834 129.103 100.811Z" fill="#DBDBDB"/>
<path opacity="0.54" fill-rule="evenodd" clip-rule="evenodd" d="M133.509 129.05C131.957 129.95 130.043 129.95 128.491 129.05L102.884 114.198C101.342 113.303 100.392 111.655 100.392 109.872L100.392 80.1281C100.392 78.3453 101.342 76.6974 102.884 75.8029L128.491 60.9506C130.043 60.0508 131.957 60.0508 133.509 60.9506L159.116 75.8029C160.658 76.6974 161.607 78.3453 161.607 80.1281L161.607 109.872C161.607 111.655 160.658 113.303 159.116 114.198L133.509 129.05Z" stroke="#ADADAD"/>
<path fill-rule="evenodd" clip-rule="evenodd" d="M180.835 91.1728C181.85 93.6231 181.85 96.3762 180.835 98.8265L168.945 127.533C167.93 129.983 165.983 131.93 163.533 132.945L134.827 144.835C132.376 145.85 129.623 145.85 127.173 144.835L98.4669 132.945C96.0166 131.93 94.0699 129.983 93.055 127.533L81.1645 98.8265C80.1495 96.3762 80.1495 93.6231 81.1645 91.1728L93.055 62.4667C94.0699 60.0164 96.0166 58.0696 98.4669 57.0547L127.173 45.1642C129.623 44.1493 132.376 44.1493 134.827 45.1642L163.533 57.0547C165.983 58.0696 167.93 60.0164 168.945 62.4667L180.835 91.1728Z" stroke="#787878"/>
<path fill-rule="evenodd" clip-rule="evenodd" d="M180.835 91.1728C181.85 93.6231 181.85 96.3762 180.835 98.8265L168.945 127.533C167.93 129.983 165.983 131.93 163.533 132.945L134.827 144.835C132.376 145.85 129.623 145.85 127.173 144.835L98.4669 132.945C96.0166 131.93 94.0699 129.983 93.055 127.533L81.1645 98.8265C80.1495 96.3762 80.1495 93.6231 81.1645 91.1728L93.055 62.4667C94.0699 60.0164 96.0166 58.0696 98.4669 57.0547L127.173 45.1642C129.623 44.1493 132.376 44.1493 134.827 45.1642L163.533 57.0547C165.983 58.0696 167.93 60.0164 168.945 62.4667L180.835 91.1728Z" stroke="#E4E4E4" stroke-opacity="0.1"/>
<circle cx="131" cy="94.9997" r="68.5607" stroke="#787878"/>
<circle cx="131" cy="94.9997" r="68.5607" stroke="#E4E4E4" stroke-opacity="0.38"/>
<circle opacity="0.9" cx="131" cy="94.9996" r="97.9439" stroke="#DBDBDB"/>
<circle cx="131" cy="95" r="130.5" stroke="#DBDBDB"/>
</g>
</svg>
