<svg width="88" height="88" viewBox="0 0 88 88" fill="none" xmlns="http://www.w3.org/2000/svg">
<path d="M28 44L60 44" stroke="#DBDBDB" stroke-width="1.5"/>
<path fill-rule="evenodd" clip-rule="evenodd" d="M64 44C64 17 60 14 44 14C28 14 24 17 24 44C24 71 28 74 44 74C60 74 64 71 64 44ZM60 44C60 21 58.9333 18 44 18C29.0667 18 28 21 28 44C28 67 29.0667 70 44 70C58.9333 70 60 67 60 44Z" fill="#DBDBDB"/>
<path d="M44 4C69.8889 4 73 14 73 44C73 74 70 84 44 84C18 84 15 74 15 44C15 14 18.1111 4 44 4Z" stroke="#DBDBDB" stroke-width="1.5"/>
</svg>
