<svg width="24" height="24" viewBox="0 0 24 24" fill="none" xmlns="http://www.w3.org/2000/svg">
<path d="M13.2295 1.50506L13.2448 0.755217L13.2448 0.755217L13.2295 1.50506ZM15.0819 1.56284L15.1135 0.813507L15.1134 0.813506L15.0819 1.56284ZM16.5735 1.64826L16.5251 2.3967L16.5251 2.3967L16.5735 1.64826ZM18.5499 1.88069L18.6974 1.14534V1.14534L18.5499 1.88069ZM20.1747 2.44982L20.5416 1.7957L20.5416 1.79569L20.1747 2.44982ZM21.4669 3.68893L22.106 3.29642L22.1059 3.2964L21.4669 3.68893ZM22.1213 5.4906L21.3851 5.63403L21.3851 5.63404L22.1213 5.4906ZM22.3148 7.01565L21.5673 7.07627L21.5673 7.07631L22.3148 7.01565ZM22.4264 8.82175L23.1756 8.78785L23.1756 8.78781L22.4264 8.82175ZM22.4917 10.9828L21.7417 10.9942V10.9943L22.4917 10.9828ZM22.4966 12.7204L21.7467 12.7127L21.7467 12.7127L22.4966 12.7204ZM22.4686 14.076L21.719 14.0502L21.719 14.0502L22.4686 14.076ZM22.3948 15.7597L21.6458 15.7205L21.6458 15.7205L22.3948 15.7597ZM22.3095 17.0534L21.5621 16.9906L21.5621 16.9907L22.3095 17.0534ZM21.959 19.1744L21.2403 18.9601L21.2402 18.9602L21.959 19.1744ZM20.8324 21.0723L20.3287 20.5165L20.3287 20.5166L20.8324 21.0723ZM19.5891 21.8186L19.8568 22.5192L19.8569 22.5192L19.5891 21.8186ZM17.9045 22.2196L17.806 21.4761L17.8059 21.4761L17.9045 22.2196ZM16.2271 22.3667L16.2725 23.1153L16.2726 23.1153L16.2271 22.3667ZM14.8155 22.4402L14.7824 21.6909H14.7824L14.8155 22.4402ZM13.4389 22.4836L13.4595 23.2333H13.4595L13.4389 22.4836ZM10.742 22.4897L10.7511 21.7397H10.7511L10.742 22.4897ZM8.98479 22.4324L9.01709 21.6831L9.01705 21.6831L8.98479 22.4324ZM7.44928 22.3471L7.39953 23.0955L7.39955 23.0955L7.44928 22.3471ZM5.25725 22.0721L5.4232 21.3407L5.42317 21.3407L5.25725 22.0721ZM3.81915 21.5408L3.44931 22.1932L3.44933 22.1932L3.81915 21.5408ZM2.37921 20.0298L3.04775 19.6899L3.04773 19.6899L2.37921 20.0298ZM1.82215 18.1857L2.56272 18.0671L2.56272 18.0671L1.82215 18.1857ZM1.65884 16.6126L2.40712 16.5619L2.40712 16.5619L1.65884 16.6126ZM1.56997 15.0327L0.820641 15.0645L0.820641 15.0645L1.56997 15.0327ZM1.52581 13.7803L2.2754 13.7556L2.2754 13.7556L1.52581 13.7803ZM1.50361 11.1926L2.25359 11.1985L2.25359 11.1985L1.50361 11.1926ZM1.53363 9.8149L0.784015 9.79078L0.784015 9.79079L1.53363 9.8149ZM1.59134 8.48255L0.842593 8.43918L0.842592 8.43918L1.59134 8.48255ZM1.70208 6.82332L2.44911 6.88991L2.44912 6.88988L1.70208 6.82332ZM1.99763 4.97399L1.27328 4.77949L1.27328 4.7795L1.99763 4.97399ZM2.77357 3.3441L3.36275 3.80817L3.36276 3.80816L2.77357 3.3441ZM4.49367 2.14369L4.7504 2.84838L4.75041 2.84838L4.49367 2.14369ZM6.2996 1.74775L6.38755 2.49258L6.38756 2.49258L6.2996 1.74775ZM7.96369 1.61477L7.92219 0.865921L7.92216 0.865922L7.96369 1.61477ZM9.5073 1.54109L9.53682 2.29051L9.53683 2.29051L9.5073 1.54109ZM11.9322 1.50337L11.922 2.25337H11.9322V1.50337ZM9.5 11.25C9.08579 11.25 8.75 11.5858 8.75 12C8.75 12.4142 9.08579 12.75 9.5 12.75V11.25ZM14.5 12.75C14.9142 12.75 15.25 12.4142 15.25 12C15.25 11.5858 14.9142 11.25 14.5 11.25V12.75ZM13.2142 2.2549C13.8265 2.2674 14.4387 2.28647 15.0504 2.31218L15.1134 0.813506C14.4908 0.787339 13.8678 0.767935 13.2448 0.755217L13.2142 2.2549ZM15.0504 2.31218C15.538 2.33269 16.0264 2.36447 16.5251 2.3967L16.6218 0.899822C16.1267 0.867818 15.6209 0.834856 15.1135 0.813507L15.0504 2.31218ZM16.5251 2.3967C17.1793 2.43895 17.8002 2.49524 18.4023 2.61604L18.6974 1.14534C17.9946 1.00435 17.2932 0.943184 16.6218 0.89982L16.5251 2.3967ZM18.4023 2.61604C18.9222 2.72033 19.3893 2.86923 19.8078 3.10396L20.5416 1.79569C19.943 1.45996 19.3135 1.26894 18.6974 1.14534L18.4023 2.61604ZM19.8078 3.10395C20.2358 3.344 20.573 3.66668 20.8278 4.08146L22.1059 3.2964C21.7155 2.66072 21.1896 2.15919 20.5416 1.7957L19.8078 3.10395ZM20.8278 4.08144C21.1051 4.53291 21.2711 5.0488 21.3851 5.63403L22.8574 5.34716C22.724 4.66246 22.511 3.95591 22.106 3.29642L20.8278 4.08144ZM21.3851 5.63404C21.4754 6.09753 21.5266 6.57475 21.5673 7.07627L23.0624 6.95504C23.0201 6.43366 22.9636 5.89191 22.8574 5.34715L21.3851 5.63404ZM21.5673 7.07631C21.6152 7.6668 21.6502 8.25979 21.6772 8.8557L23.1756 8.78781C23.148 8.17857 23.112 7.56726 23.0624 6.955L21.5673 7.07631ZM21.6772 8.85566C21.7094 9.56807 21.7309 10.2809 21.7417 10.9942L23.2416 10.9714C23.2305 10.2431 23.2086 9.51536 23.1756 8.78785L21.6772 8.85566ZM21.7417 10.9943C21.7505 11.5677 21.7525 12.1404 21.7467 12.7127L23.2466 12.728C23.2526 12.142 23.2505 11.5565 23.2416 10.9714L21.7417 10.9943ZM21.7467 12.7127C21.7421 13.1612 21.7343 13.6068 21.719 14.0502L23.2181 14.1018C23.2339 13.6419 23.242 13.1834 23.2466 12.728L21.7467 12.7127ZM21.719 14.0502C21.6999 14.6065 21.675 15.1632 21.6458 15.7205L23.1438 15.7988C23.1733 15.2341 23.1986 14.6684 23.2181 14.1018L21.719 14.0502ZM21.6458 15.7205C21.6235 16.1477 21.5974 16.5708 21.5621 16.9906L23.0569 17.1161C23.0939 16.6748 23.121 16.2347 23.1438 15.7988L21.6458 15.7205ZM21.5621 16.9907C21.503 17.6957 21.4235 18.3452 21.2403 18.9601L22.6778 19.3886C22.907 18.6195 22.9959 17.8431 23.0569 17.1161L21.5621 16.9907ZM21.2402 18.9602C21.0499 19.5988 20.7685 20.118 20.3287 20.5165L21.336 21.628C22.0368 20.9929 22.435 20.2033 22.6778 19.3885L21.2402 18.9602ZM20.3287 20.5166C20.0437 20.7749 19.7078 20.9703 19.3214 21.118L19.8569 22.5192C20.387 22.3166 20.891 22.0314 21.3361 21.628L20.3287 20.5166ZM19.3214 21.118C18.8511 21.2977 18.3477 21.4043 17.806 21.4761L18.0031 22.9631C18.6122 22.8824 19.2398 22.755 19.8568 22.5192L19.3214 21.118ZM17.8059 21.4761C17.2772 21.5462 16.74 21.5842 16.1816 21.6181L16.2726 23.1153C16.8353 23.0812 17.4178 23.0407 18.0031 22.9631L17.8059 21.4761ZM16.1817 21.6181C15.7159 21.6463 15.2496 21.6703 14.7824 21.6909L14.8486 23.1894C15.3229 23.1685 15.7975 23.1441 16.2725 23.1153L16.1817 21.6181ZM14.7824 21.6909C14.3318 21.7108 13.8819 21.7211 13.4184 21.7339L13.4595 23.2333C13.9138 23.2208 14.3818 23.21 14.8486 23.1894L14.7824 21.6909ZM13.4184 21.7339C12.5357 21.7581 11.6498 21.7507 10.7511 21.7397L10.7328 23.2396C11.6319 23.2506 12.5442 23.2584 13.4595 23.2333L13.4184 21.7339ZM10.7511 21.7397C10.1786 21.7328 9.60411 21.7084 9.01709 21.6831L8.95249 23.1817C9.53642 23.2069 10.1335 23.2323 10.7328 23.2396L10.7511 21.7397ZM9.01705 21.6831C8.51185 21.6613 8.00586 21.6325 7.499 21.5988L7.39955 23.0955C7.91564 23.1298 8.43349 23.1593 8.95253 23.1817L9.01705 21.6831ZM7.49902 21.5988C6.76662 21.5501 6.08278 21.4903 5.4232 21.3407L5.0913 22.8035C5.87476 22.9813 6.66026 23.0464 7.39953 23.0955L7.49902 21.5988ZM5.42317 21.3407C4.96738 21.2373 4.55659 21.0967 4.18898 20.8883L3.44933 22.1932C3.98221 22.4953 4.54226 22.679 5.09134 22.8035L5.42317 21.3407ZM4.18899 20.8883C3.68702 20.6038 3.31136 20.2084 3.04775 19.6899L1.71066 20.3698C2.10575 21.1468 2.68739 21.7614 3.44931 22.1932L4.18899 20.8883ZM3.04773 19.6899C2.8006 19.2039 2.6585 18.6652 2.56272 18.0671L1.08159 18.3043C1.1907 18.9857 1.36627 19.6925 1.71069 20.3698L3.04773 19.6899ZM2.56272 18.0671C2.48478 17.5805 2.4424 17.0826 2.40712 16.5619L0.910552 16.6634C0.946606 17.1954 0.992547 17.7484 1.08159 18.3043L2.56272 18.0671ZM2.40712 16.5619C2.37175 16.0401 2.34132 15.5201 2.31929 15.0009L0.820641 15.0645C0.843344 15.5995 0.874583 16.1326 0.910552 16.6634L2.40712 16.5619ZM2.31929 15.0009C2.30178 14.5881 2.28926 14.1758 2.2754 13.7556L0.776214 13.8051C0.789897 14.2198 0.802737 14.6425 0.820641 15.0645L2.31929 15.0009ZM2.2754 13.7556C2.24743 12.9084 2.24679 12.0578 2.25359 11.1985L0.753637 11.1867C0.746785 12.0527 0.74724 12.9273 0.776214 13.8051L2.2754 13.7556ZM2.25359 11.1985C2.25714 10.7476 2.26857 10.295 2.28324 9.83902L0.784015 9.79079C0.769144 10.253 0.757315 10.719 0.753637 11.1867L2.25359 11.1985ZM2.28324 9.83902C2.29742 9.39832 2.31488 8.96094 2.34008 8.52593L0.842592 8.43918C0.816382 8.89167 0.798427 9.34294 0.784015 9.79078L2.28324 9.83902ZM2.34008 8.52593C2.37247 7.96694 2.40117 7.42775 2.44911 6.88991L0.955038 6.75672C0.904501 7.32361 0.874321 7.8915 0.842593 8.43918L2.34008 8.52593ZM2.44912 6.88988C2.50346 6.27997 2.57623 5.71126 2.72197 5.16847L1.27328 4.7795C1.09363 5.44859 1.01182 6.11945 0.955035 6.75675L2.44912 6.88988ZM2.72197 5.16848C2.86303 4.64314 3.0623 4.18963 3.36275 3.80817L2.18438 2.88003C1.72202 3.46706 1.44934 4.1238 1.27328 4.77949L2.72197 5.16848ZM3.36276 3.80816C3.71198 3.36476 4.17454 3.05817 4.7504 2.84838L4.23694 1.439C3.4531 1.72456 2.73864 2.17631 2.18437 2.88005L3.36276 3.80816ZM4.75041 2.84838C5.25795 2.66346 5.80063 2.56188 6.38755 2.49258L6.21166 1.00293C5.56869 1.07885 4.89804 1.19813 4.23692 1.439L4.75041 2.84838ZM6.38756 2.49258C6.91674 2.43009 7.45317 2.39423 8.00521 2.36362L7.92216 0.865922C7.36254 0.896955 6.7885 0.934808 6.21164 1.00293L6.38756 2.49258ZM8.00519 2.36362C8.51609 2.33531 9.0265 2.31062 9.53682 2.29051L9.47777 0.791673C8.95852 0.812132 8.44006 0.837222 7.92219 0.865921L8.00519 2.36362ZM9.53683 2.29051C10.3359 2.25902 11.1303 2.24251 11.922 2.2533L11.9424 0.753436C11.1168 0.742192 10.2947 0.759477 9.47776 0.791673L9.53683 2.29051ZM11.9322 2.25337C12.3816 2.25337 12.7917 2.24628 13.2142 2.25491L13.2448 0.755217C12.8028 0.746198 12.3477 0.753367 11.9322 0.753367V2.25337ZM9.5 12.75H14.5V11.25H9.5V12.75Z" fill="#ADADAD"/>
</svg>
