<svg width="103" height="128" viewBox="0 0 103 128" fill="none" xmlns="http://www.w3.org/2000/svg">
<rect x="50" y="51" width="2" height="13" fill="#5AE4AF"/>
<path fill-rule="evenodd" clip-rule="evenodd" d="M83 64C83 46.3269 68.6731 32 51 32C33.3269 32 19 46.3269 19 64C19 81.6731 33.3269 96 51 96C68.6731 96 83 81.6731 83 64ZM20.7 64C20.7 47.2658 34.2658 33.7 51 33.7C67.7342 33.7 81.3 47.2658 81.3 64C81.3 80.7342 67.7342 94.3 51 94.3C34.2658 94.3 20.7 80.7342 20.7 64Z" fill="#DBDBDB"/>
<path fill-rule="evenodd" clip-rule="evenodd" d="M48 53.4141C43.383 54.7199 40 58.9649 40 64C40 70.0751 44.9249 75 51 75C57.0751 75 62 70.0751 62 64C62 58.9649 58.617 54.7199 54 53.4141V55.1945C57.6642 56.4425 60.3 59.9134 60.3 64C60.3 69.1362 56.1362 73.3 51 73.3C45.8638 73.3 41.7 69.1362 41.7 64C41.7 59.9134 44.3358 56.4425 48 55.1945V53.4141Z" fill="#5AE4AF"/>
<path fill-rule="evenodd" clip-rule="evenodd" d="M53.5116 1H86.5962L102 12.5221V114.756L88.4002 127H54.3461H14.5998L1 114.756V12.5221L16.4038 1H53.5116Z" stroke="#787878" stroke-width="1.6" stroke-dasharray="4 4"/>
</svg>
