<svg width="88" height="88" viewBox="0 0 88 88" fill="none" xmlns="http://www.w3.org/2000/svg">
<path fill-rule="evenodd" clip-rule="evenodd" d="M42.3613 6.06114C43.0755 6.02091 43.8014 6 44.5376 6C45.2614 6 45.9733 6.02021 46.6723 6.05913L46.5889 7.55681C45.9176 7.51943 45.2335 7.5 44.5376 7.5C43.8298 7.5 43.132 7.5201 42.4457 7.55877L42.3613 6.06114ZM50.9159 6.54154C52.3846 6.7968 53.7751 7.13407 55.0754 7.53549L54.6329 8.96874C53.3942 8.58632 52.0657 8.26386 50.659 8.01939L50.9159 6.54154ZM33.7966 7.55532C35.1279 7.15181 36.546 6.81204 38.0363 6.55401L38.2922 8.03202C36.8622 8.27961 35.5039 8.60522 34.2317 8.99083L33.7966 7.55532ZM59.0776 9.0955C60.4926 9.77748 61.7368 10.5375 62.7808 11.338L61.8681 12.5284C60.9151 11.7976 59.7604 11.0897 58.4263 10.4467L59.0776 9.0955ZM25.8997 11.3235C26.9805 10.5337 28.2613 9.7832 29.7077 9.10851L30.3418 10.4679C28.9721 11.1068 27.7772 11.8093 26.7847 12.5346L25.8997 11.3235ZM22 16.9782C22 16.1708 22.2754 15.359 22.7362 14.5834L24.0258 15.3496C23.6603 15.9647 23.5 16.5128 23.5 16.9782V19.3722H22V16.9782ZM65.7985 14.6281C66.2234 15.3953 66.4717 16.1913 66.4717 16.9782V19.3722H64.9717V16.9782C64.9717 16.5075 64.822 15.961 64.4863 15.3549L65.7985 14.6281ZM22 28.9481V24.1601H23.5V28.9481H22ZM66.4717 24.1601V28.9481H64.9717V24.1601H66.4717ZM22 38.524V33.7361H23.5V38.524H22ZM66.4717 33.7361V38.524H64.9717V33.7361H66.4717ZM22 48.1V43.312H23.5V48.1H22ZM66.4717 43.312V48.1H64.9717V43.312H66.4717ZM22 57.6759V52.888H23.5V57.6759H22ZM66.4717 52.888V57.6759H64.9717V52.888H66.4717ZM22 64.8579V62.4639H23.5V64.8579C23.5 65.726 23.5537 66.5442 23.656 67.3153L22.169 67.5125C22.0576 66.6721 22 65.7879 22 64.8579ZM66.4717 62.4639V64.8579C66.4717 65.7693 66.4171 66.6383 66.3111 67.4663L64.8232 67.2758C64.9207 66.5146 64.9717 65.7094 64.9717 64.8579V62.4639H66.4717ZM64.8194 72.5079C63.9949 74.154 62.8931 75.5372 61.5851 76.6877L60.5944 75.5614C61.7655 74.5313 62.7449 73.3002 63.4782 71.8361L64.8194 72.5079ZM27.1302 76.8043C25.7717 75.6691 24.6139 74.2905 23.7437 72.6281L25.0726 71.9324C25.8449 73.4076 26.8732 74.6347 28.092 75.6533L27.1302 76.8043ZM57.1381 79.463C55.5874 80.1404 53.9185 80.6402 52.1901 80.9934L51.8898 79.5238C53.5336 79.1878 55.0993 78.7167 56.5377 78.0884L57.1381 79.463ZM36.7589 81.0012C35.0196 80.6627 33.3126 80.1821 31.7112 79.5191L32.2851 78.1332C33.7768 78.7508 35.3847 79.2056 37.0454 79.5288L36.7589 81.0012ZM44.536 81.7009C43.6831 81.6992 42.8144 81.6762 41.9385 81.6271L42.0224 80.1295C42.8693 80.1769 43.711 80.1993 44.5391 80.2009H44.5392C45.3639 80.2027 46.1893 80.1819 47.0101 80.1359L47.0941 81.6335C46.2425 81.6813 45.3879 81.7028 44.536 81.7009ZM44.536 81.7009L44.5376 80.9509L44.5361 81.7009H44.536ZM34.124 16.5044H55.1135L55.4177 17.1837L44.5942 20.7975L33.7707 17.2691L34.124 16.5044ZM28.6926 34.157C28.6926 32.9069 29.6954 31.9011 30.9401 31.9011H57.565C58.8124 31.9011 59.821 32.9096 59.821 34.157V53.8643C59.821 55.109 58.8119 56.1203 57.565 56.1203H30.9401C29.696 56.1203 28.6926 55.1117 28.6926 53.8643V34.157ZM30.9401 30.4011C28.8615 30.4011 27.1926 32.084 27.1926 34.157V53.8643C27.1926 55.9336 28.861 57.6203 30.9401 57.6203H57.565C59.6414 57.6203 61.321 55.9363 61.321 53.8643V34.157C61.321 32.0812 59.6409 30.4011 57.565 30.4011H30.9401Z" fill="#DBDBDB"/>
</svg>
