<svg width="88" height="88" viewBox="0 0 88 88" fill="none" xmlns="http://www.w3.org/2000/svg">
<path fill-rule="evenodd" clip-rule="evenodd" d="M64.2759 44C68.5418 44 72 47.1145 72 50.9565V77.0435C72 80.8855 68.5418 84 64.2759 84H23.7241C19.4582 84 16 80.8855 16 77.0435V50.9565C16 47.1145 19.4582 44 23.7241 44H64.2759Z" stroke="#DBDBDB" stroke-width="1.5"/>
<path d="M28 38L28 20C28 11.1634 35.1634 4 44 4V4C52.8366 4 60 11.1634 60 20V38" stroke="#DBDBDB" stroke-width="1.5"/>
<path d="M44 53L44.0055 63.9905L53.5263 58.5L44.011 64L53.5263 69.5L44.0055 64.0095L44 75L43.9945 64.0095L34.4737 69.5L43.989 64L34.4737 58.5L43.9945 63.9905L44 53Z" fill="#DBDBDB" stroke="#DBDBDB" stroke-width="3"/>
</svg>
