<svg width="136" height="136" viewBox="0 0 136 136" fill="none" xmlns="http://www.w3.org/2000/svg">
<path d="M0 68C0 30.4446 30.4446 0 68 0V0C105.555 0 136 30.4446 136 68V68C136 105.555 105.555 136 68 136V136C30.4446 136 0 105.555 0 68V68Z" fill="#404040"/>
<path d="M48 88H72.3077M48 80H75.5385M48 72H88M96 104V32H40V104H96Z" stroke="#DBDBDB" stroke-width="1.5"/>
<path d="M68.0869 62.1763C68.0624 62.1854 68.0392 62.1938 68.0173 62.2017C67.994 62.1924 67.9692 62.1823 67.9428 62.1716C67.7354 62.0868 67.4359 61.9584 67.0751 61.7865C66.3516 61.4418 65.392 60.927 64.4373 60.2453C62.4932 58.8572 60.75 56.9112 60.75 54.4344V46.6427L68.0029 44.7745L75.25 46.6426V54.4344C75.25 57.0902 73.4971 59.0352 71.5743 60.3679C70.6246 61.0261 69.6699 61.508 68.9498 61.8256C68.5909 61.9839 68.293 62.1002 68.0869 62.1763Z" fill="#DBDBDB" stroke="#DBDBDB" stroke-width="1.5"/>
<path d="M135.166 116C135.166 126.586 126.585 135.167 116 135.167C105.414 135.167 96.833 126.586 96.833 116C96.833 105.415 105.414 96.8335 116 96.8335C126.585 96.8335 135.166 105.415 135.166 116Z" fill="#ADF75E"/>
<path d="M124.484 110.167L113.515 121.136L107.547 115.167" stroke="black" stroke-width="2"/>
</svg>
