<svg width="375" height="166" viewBox="0 0 375 166" fill="none" xmlns="http://www.w3.org/2000/svg">
<path d="M159 54H131C129.895 54 129 54.8954 129 56V92M215 54H244C245.105 54 246 54.8954 246 56V138C246 139.104 245.105 140 244 140H205M129 110V138C129 139.104 129.895 140 131 140H168" stroke="#DBDBDB" stroke-width="1.5"/>
<path fill-rule="evenodd" clip-rule="evenodd" d="M188.115 16H207L215 22V78L207 85H188.578H167L159 78V22L167 16H188.115Z" stroke="#DBDBDB" stroke-width="1.5"/>
<path d="M159 22L176 75L167 85" stroke="#DBDBDB" stroke-width="1.5"/>
<path d="M215 22L198 75L207 85" stroke="#DBDBDB" stroke-width="1.5"/>
<path fill-rule="evenodd" clip-rule="evenodd" d="M179 72V69H195V72H179Z" fill="#DBDBDB"/>
<path d="M176 75H198" stroke="#DBDBDB" stroke-width="1.5"/>
<path d="M183 16L185.128 20H188.867L191 16" stroke="#DBDBDB" stroke-width="1.5"/>
<path d="M183 85L185.128 81H188.867L191 85" stroke="#DBDBDB" stroke-width="1.5"/>
<path d="M226.117 48.0801V49H220.34V48.0801H226.117ZM225.93 41.2891L220.609 49H219.912V48.1562L225.227 40.4688H225.93V41.2891ZM225.449 40.4688V41.3945H219.988V40.4688H225.449Z" fill="#DBDBDB"/>
<path d="M134.363 45.2871H135.488C135.43 45.8262 135.275 46.3086 135.025 46.7344C134.775 47.1602 134.422 47.498 133.965 47.748C133.508 47.9941 132.938 48.1172 132.254 48.1172C131.754 48.1172 131.299 48.0234 130.889 47.8359C130.482 47.6484 130.133 47.3828 129.84 47.0391C129.547 46.6914 129.32 46.2754 129.16 45.791C129.004 45.3027 128.926 44.7598 128.926 44.1621V43.3125C128.926 42.7148 129.004 42.1738 129.16 41.6895C129.32 41.2012 129.549 40.7832 129.846 40.4355C130.146 40.0879 130.508 39.8203 130.93 39.6328C131.352 39.4453 131.826 39.3516 132.354 39.3516C132.998 39.3516 133.543 39.4727 133.988 39.7148C134.434 39.957 134.779 40.293 135.025 40.7227C135.275 41.1484 135.43 41.6426 135.488 42.2051H134.363C134.309 41.8066 134.207 41.4648 134.059 41.1797C133.91 40.8906 133.699 40.668 133.426 40.5117C133.152 40.3555 132.795 40.2773 132.354 40.2773C131.975 40.2773 131.641 40.3496 131.352 40.4941C131.066 40.6387 130.826 40.8438 130.631 41.1094C130.439 41.375 130.295 41.6934 130.197 42.0645C130.1 42.4355 130.051 42.8477 130.051 43.3008V44.1621C130.051 44.5801 130.094 44.9727 130.18 45.3398C130.27 45.707 130.404 46.0293 130.584 46.3066C130.764 46.584 130.992 46.8027 131.27 46.9629C131.547 47.1191 131.875 47.1973 132.254 47.1973C132.734 47.1973 133.117 47.1211 133.402 46.9688C133.688 46.8164 133.902 46.5977 134.047 46.3125C134.195 46.0273 134.301 45.6855 134.363 45.2871ZM143.598 43.4648V44.0039C143.598 44.6445 143.518 45.2188 143.357 45.7266C143.197 46.2344 142.967 46.666 142.666 47.0215C142.365 47.377 142.004 47.6484 141.582 47.8359C141.164 48.0234 140.695 48.1172 140.176 48.1172C139.672 48.1172 139.209 48.0234 138.787 47.8359C138.369 47.6484 138.006 47.377 137.697 47.0215C137.393 46.666 137.156 46.2344 136.988 45.7266C136.82 45.2188 136.736 44.6445 136.736 44.0039V43.4648C136.736 42.8242 136.818 42.252 136.982 41.748C137.15 41.2402 137.387 40.8086 137.691 40.4531C137.996 40.0938 138.357 39.8203 138.775 39.6328C139.197 39.4453 139.66 39.3516 140.164 39.3516C140.684 39.3516 141.152 39.4453 141.57 39.6328C141.992 39.8203 142.354 40.0938 142.654 40.4531C142.959 40.8086 143.191 41.2402 143.352 41.748C143.516 42.252 143.598 42.8242 143.598 43.4648ZM142.479 44.0039V43.4531C142.479 42.9453 142.426 42.4961 142.32 42.1055C142.219 41.7148 142.068 41.3867 141.869 41.1211C141.67 40.8555 141.426 40.6543 141.137 40.5176C140.852 40.3809 140.527 40.3125 140.164 40.3125C139.812 40.3125 139.494 40.3809 139.209 40.5176C138.928 40.6543 138.686 40.8555 138.482 41.1211C138.283 41.3867 138.129 41.7148 138.02 42.1055C137.91 42.4961 137.855 42.9453 137.855 43.4531V44.0039C137.855 44.5156 137.91 44.9688 138.02 45.3633C138.129 45.7539 138.285 46.084 138.488 46.3535C138.695 46.6191 138.939 46.8203 139.221 46.957C139.506 47.0938 139.824 47.1621 140.176 47.1621C140.543 47.1621 140.869 47.0938 141.154 46.957C141.439 46.8203 141.68 46.6191 141.875 46.3535C142.074 46.084 142.225 45.7539 142.326 45.3633C142.428 44.9688 142.479 44.5156 142.479 44.0039ZM145.648 39.4688H146.744L149.539 46.4238L152.328 39.4688H153.43L149.961 48H149.105L145.648 39.4688ZM145.291 39.4688H146.258L146.416 44.6719V48H145.291V39.4688ZM152.814 39.4688H153.781V48H152.656V44.6719L152.814 39.4688Z" fill="#DBDBDB"/>
<path d="M140.6 103.844C140.6 103.645 140.568 103.469 140.506 103.316C140.447 103.16 140.342 103.02 140.189 102.895C140.041 102.77 139.834 102.65 139.568 102.537C139.307 102.424 138.975 102.309 138.572 102.191C138.15 102.066 137.77 101.928 137.43 101.775C137.09 101.619 136.799 101.441 136.557 101.242C136.314 101.043 136.129 100.814 136 100.557C135.871 100.299 135.807 100.004 135.807 99.6719C135.807 99.3398 135.875 99.0332 136.012 98.752C136.148 98.4707 136.344 98.2266 136.598 98.0195C136.855 97.8086 137.162 97.6445 137.518 97.5273C137.873 97.4102 138.27 97.3516 138.707 97.3516C139.348 97.3516 139.891 97.4746 140.336 97.7207C140.785 97.9629 141.127 98.2812 141.361 98.6758C141.596 99.0664 141.713 99.4844 141.713 99.9297H140.588C140.588 99.6094 140.52 99.3262 140.383 99.0801C140.246 98.8301 140.039 98.6348 139.762 98.4941C139.484 98.3496 139.133 98.2773 138.707 98.2773C138.305 98.2773 137.973 98.3379 137.711 98.459C137.449 98.5801 137.254 98.7441 137.125 98.9512C137 99.1582 136.938 99.3945 136.938 99.6602C136.938 99.8398 136.975 100.004 137.049 100.152C137.127 100.297 137.246 100.432 137.406 100.557C137.57 100.682 137.777 100.797 138.027 100.902C138.281 101.008 138.584 101.109 138.936 101.207C139.42 101.344 139.838 101.496 140.189 101.664C140.541 101.832 140.83 102.021 141.057 102.232C141.287 102.439 141.457 102.676 141.566 102.941C141.68 103.203 141.736 103.5 141.736 103.832C141.736 104.18 141.666 104.494 141.525 104.775C141.385 105.057 141.184 105.297 140.922 105.496C140.66 105.695 140.346 105.85 139.979 105.959C139.615 106.064 139.209 106.117 138.76 106.117C138.365 106.117 137.977 106.062 137.594 105.953C137.215 105.844 136.869 105.68 136.557 105.461C136.248 105.242 136 104.973 135.812 104.652C135.629 104.328 135.537 103.953 135.537 103.527H136.662C136.662 103.82 136.719 104.072 136.832 104.283C136.945 104.49 137.1 104.662 137.295 104.799C137.494 104.936 137.719 105.037 137.969 105.104C138.223 105.166 138.486 105.197 138.76 105.197C139.154 105.197 139.488 105.143 139.762 105.033C140.035 104.924 140.242 104.768 140.383 104.564C140.527 104.361 140.6 104.121 140.6 103.844ZM146.459 97.4219V106H145.375V98.7754L143.189 99.5723V98.5938L146.289 97.4219H146.459Z" fill="#DBDBDB"/>
<path d="M129 92V109" stroke="#DBDBDB" stroke-width="1.5"/>
<circle cx="129" cy="109" r="2" fill="#DBDBDB"/>
<circle cx="129" cy="92" r="2" fill="#DBDBDB"/>
<rect x="168" y="129" width="37" height="22" rx="2" fill="#ADF75E"/>
<path d="M180.925 136.18H183.514C184.101 136.18 184.597 136.269 185.001 136.448C185.41 136.627 185.719 136.892 185.931 137.243C186.146 137.59 186.253 138.018 186.253 138.527C186.253 138.885 186.18 139.213 186.033 139.51C185.889 139.803 185.682 140.054 185.41 140.262C185.141 140.466 184.819 140.618 184.443 140.718L184.153 140.831H181.72L181.709 139.988H183.546C183.918 139.988 184.228 139.923 184.475 139.794C184.722 139.662 184.908 139.485 185.034 139.263C185.159 139.041 185.222 138.795 185.222 138.527C185.222 138.226 185.163 137.963 185.044 137.737C184.926 137.512 184.74 137.338 184.486 137.216C184.235 137.091 183.911 137.028 183.514 137.028H181.961V144H180.925V136.18ZM185.496 144L183.594 140.455L184.674 140.45L186.602 143.936V144H185.496ZM190.711 136.137V144H189.717V137.377L187.714 138.108V137.211L190.555 136.137H190.711Z" fill="black"/>
</svg>
