<svg width="376" height="166" viewBox="0 0 376 166" fill="none" xmlns="http://www.w3.org/2000/svg">
<path d="M159.5 54H95.5C94.3954 54 93.5 54.8954 93.5 56V92M215.5 54H280.5C281.605 54 282.5 54.8954 282.5 56V138C282.5 139.104 281.605 140 280.5 140H269.5M93.5 110V138C93.5 139.104 94.3954 140 95.5 140H106.5M143.5 140H169.5M206.5 140H232.5" stroke="#DBDBDB" stroke-width="1.5"/>
<path fill-rule="evenodd" clip-rule="evenodd" d="M188.615 16H207.5L215.5 22V78L207.5 85H189.078H167.5L159.5 78V22L167.5 16H188.615Z" stroke="#DBDBDB" stroke-width="1.5"/>
<path d="M159.5 22L176.5 75L167.5 85" stroke="#DBDBDB" stroke-width="1.5"/>
<path d="M215.5 22L198.5 75L207.5 85" stroke="#DBDBDB" stroke-width="1.5"/>
<path fill-rule="evenodd" clip-rule="evenodd" d="M179.5 72V69H195.5V72H179.5Z" fill="#DBDBDB"/>
<path d="M176.5 75H198.5" stroke="#DBDBDB" stroke-width="1.5"/>
<path d="M183.5 16L185.628 20H189.367L191.5 16" stroke="#DBDBDB" stroke-width="1.5"/>
<path d="M183.5 85L185.628 81H189.367L191.5 85" stroke="#DBDBDB" stroke-width="1.5"/>
<path d="M226.617 48.0801V49H220.84V48.0801H226.617ZM226.43 41.2891L221.109 49H220.412V48.1562L225.727 40.4688H226.43V41.2891ZM225.949 40.4688V41.3945H220.488V40.4688H225.949Z" fill="#DBDBDB"/>
<path d="M134.863 45.2871H135.988C135.93 45.8262 135.775 46.3086 135.525 46.7344C135.275 47.1602 134.922 47.498 134.465 47.748C134.008 47.9941 133.438 48.1172 132.754 48.1172C132.254 48.1172 131.799 48.0234 131.389 47.8359C130.982 47.6484 130.633 47.3828 130.34 47.0391C130.047 46.6914 129.82 46.2754 129.66 45.791C129.504 45.3027 129.426 44.7598 129.426 44.1621V43.3125C129.426 42.7148 129.504 42.1738 129.66 41.6895C129.82 41.2012 130.049 40.7832 130.346 40.4355C130.646 40.0879 131.008 39.8203 131.43 39.6328C131.852 39.4453 132.326 39.3516 132.854 39.3516C133.498 39.3516 134.043 39.4727 134.488 39.7148C134.934 39.957 135.279 40.293 135.525 40.7227C135.775 41.1484 135.93 41.6426 135.988 42.2051H134.863C134.809 41.8066 134.707 41.4648 134.559 41.1797C134.41 40.8906 134.199 40.668 133.926 40.5117C133.652 40.3555 133.295 40.2773 132.854 40.2773C132.475 40.2773 132.141 40.3496 131.852 40.4941C131.566 40.6387 131.326 40.8438 131.131 41.1094C130.939 41.375 130.795 41.6934 130.697 42.0645C130.6 42.4355 130.551 42.8477 130.551 43.3008V44.1621C130.551 44.5801 130.594 44.9727 130.68 45.3398C130.77 45.707 130.904 46.0293 131.084 46.3066C131.264 46.584 131.492 46.8027 131.77 46.9629C132.047 47.1191 132.375 47.1973 132.754 47.1973C133.234 47.1973 133.617 47.1211 133.902 46.9688C134.188 46.8164 134.402 46.5977 134.547 46.3125C134.695 46.0273 134.801 45.6855 134.863 45.2871ZM144.098 43.4648V44.0039C144.098 44.6445 144.018 45.2188 143.857 45.7266C143.697 46.2344 143.467 46.666 143.166 47.0215C142.865 47.377 142.504 47.6484 142.082 47.8359C141.664 48.0234 141.195 48.1172 140.676 48.1172C140.172 48.1172 139.709 48.0234 139.287 47.8359C138.869 47.6484 138.506 47.377 138.197 47.0215C137.893 46.666 137.656 46.2344 137.488 45.7266C137.32 45.2188 137.236 44.6445 137.236 44.0039V43.4648C137.236 42.8242 137.318 42.252 137.482 41.748C137.65 41.2402 137.887 40.8086 138.191 40.4531C138.496 40.0938 138.857 39.8203 139.275 39.6328C139.697 39.4453 140.16 39.3516 140.664 39.3516C141.184 39.3516 141.652 39.4453 142.07 39.6328C142.492 39.8203 142.854 40.0938 143.154 40.4531C143.459 40.8086 143.691 41.2402 143.852 41.748C144.016 42.252 144.098 42.8242 144.098 43.4648ZM142.979 44.0039V43.4531C142.979 42.9453 142.926 42.4961 142.82 42.1055C142.719 41.7148 142.568 41.3867 142.369 41.1211C142.17 40.8555 141.926 40.6543 141.637 40.5176C141.352 40.3809 141.027 40.3125 140.664 40.3125C140.312 40.3125 139.994 40.3809 139.709 40.5176C139.428 40.6543 139.186 40.8555 138.982 41.1211C138.783 41.3867 138.629 41.7148 138.52 42.1055C138.41 42.4961 138.355 42.9453 138.355 43.4531V44.0039C138.355 44.5156 138.41 44.9688 138.52 45.3633C138.629 45.7539 138.785 46.084 138.988 46.3535C139.195 46.6191 139.439 46.8203 139.721 46.957C140.006 47.0938 140.324 47.1621 140.676 47.1621C141.043 47.1621 141.369 47.0938 141.654 46.957C141.939 46.8203 142.18 46.6191 142.375 46.3535C142.574 46.084 142.725 45.7539 142.826 45.3633C142.928 44.9688 142.979 44.5156 142.979 44.0039ZM146.148 39.4688H147.244L150.039 46.4238L152.828 39.4688H153.93L150.461 48H149.605L146.148 39.4688ZM145.791 39.4688H146.758L146.916 44.6719V48H145.791V39.4688ZM153.314 39.4688H154.281V48H153.156V44.6719L153.314 39.4688Z" fill="#DBDBDB"/>
<path d="M105.1 103.844C105.1 103.645 105.068 103.469 105.006 103.316C104.947 103.16 104.842 103.02 104.689 102.895C104.541 102.77 104.334 102.65 104.068 102.537C103.807 102.424 103.475 102.309 103.072 102.191C102.65 102.066 102.27 101.928 101.93 101.775C101.59 101.619 101.299 101.441 101.057 101.242C100.814 101.043 100.629 100.814 100.5 100.557C100.371 100.299 100.307 100.004 100.307 99.6719C100.307 99.3398 100.375 99.0332 100.512 98.752C100.648 98.4707 100.844 98.2266 101.098 98.0195C101.355 97.8086 101.662 97.6445 102.018 97.5273C102.373 97.4102 102.77 97.3516 103.207 97.3516C103.848 97.3516 104.391 97.4746 104.836 97.7207C105.285 97.9629 105.627 98.2812 105.861 98.6758C106.096 99.0664 106.213 99.4844 106.213 99.9297H105.088C105.088 99.6094 105.02 99.3262 104.883 99.0801C104.746 98.8301 104.539 98.6348 104.262 98.4941C103.984 98.3496 103.633 98.2773 103.207 98.2773C102.805 98.2773 102.473 98.3379 102.211 98.459C101.949 98.5801 101.754 98.7441 101.625 98.9512C101.5 99.1582 101.438 99.3945 101.438 99.6602C101.438 99.8398 101.475 100.004 101.549 100.152C101.627 100.297 101.746 100.432 101.906 100.557C102.07 100.682 102.277 100.797 102.527 100.902C102.781 101.008 103.084 101.109 103.436 101.207C103.92 101.344 104.338 101.496 104.689 101.664C105.041 101.832 105.33 102.021 105.557 102.232C105.787 102.439 105.957 102.676 106.066 102.941C106.18 103.203 106.236 103.5 106.236 103.832C106.236 104.18 106.166 104.494 106.025 104.775C105.885 105.057 105.684 105.297 105.422 105.496C105.16 105.695 104.846 105.85 104.479 105.959C104.115 106.064 103.709 106.117 103.26 106.117C102.865 106.117 102.477 106.062 102.094 105.953C101.715 105.844 101.369 105.68 101.057 105.461C100.748 105.242 100.5 104.973 100.312 104.652C100.129 104.328 100.037 103.953 100.037 103.527H101.162C101.162 103.82 101.219 104.072 101.332 104.283C101.445 104.49 101.6 104.662 101.795 104.799C101.994 104.936 102.219 105.037 102.469 105.104C102.723 105.166 102.986 105.197 103.26 105.197C103.654 105.197 103.988 105.143 104.262 105.033C104.535 104.924 104.742 104.768 104.883 104.564C105.027 104.361 105.1 104.121 105.1 103.844ZM110.959 97.4219V106H109.875V98.7754L107.689 99.5723V98.5938L110.789 97.4219H110.959Z" fill="#DBDBDB"/>
<path d="M186.1 103.844C186.1 103.645 186.068 103.469 186.006 103.316C185.947 103.16 185.842 103.02 185.689 102.895C185.541 102.77 185.334 102.65 185.068 102.537C184.807 102.424 184.475 102.309 184.072 102.191C183.65 102.066 183.27 101.928 182.93 101.775C182.59 101.619 182.299 101.441 182.057 101.242C181.814 101.043 181.629 100.814 181.5 100.557C181.371 100.299 181.307 100.004 181.307 99.6719C181.307 99.3398 181.375 99.0332 181.512 98.752C181.648 98.4707 181.844 98.2266 182.098 98.0195C182.355 97.8086 182.662 97.6445 183.018 97.5273C183.373 97.4102 183.77 97.3516 184.207 97.3516C184.848 97.3516 185.391 97.4746 185.836 97.7207C186.285 97.9629 186.627 98.2812 186.861 98.6758C187.096 99.0664 187.213 99.4844 187.213 99.9297H186.088C186.088 99.6094 186.02 99.3262 185.883 99.0801C185.746 98.8301 185.539 98.6348 185.262 98.4941C184.984 98.3496 184.633 98.2773 184.207 98.2773C183.805 98.2773 183.473 98.3379 183.211 98.459C182.949 98.5801 182.754 98.7441 182.625 98.9512C182.5 99.1582 182.438 99.3945 182.438 99.6602C182.438 99.8398 182.475 100.004 182.549 100.152C182.627 100.297 182.746 100.432 182.906 100.557C183.07 100.682 183.277 100.797 183.527 100.902C183.781 101.008 184.084 101.109 184.436 101.207C184.92 101.344 185.338 101.496 185.689 101.664C186.041 101.832 186.33 102.021 186.557 102.232C186.787 102.439 186.957 102.676 187.066 102.941C187.18 103.203 187.236 103.5 187.236 103.832C187.236 104.18 187.166 104.494 187.025 104.775C186.885 105.057 186.684 105.297 186.422 105.496C186.16 105.695 185.846 105.85 185.479 105.959C185.115 106.064 184.709 106.117 184.26 106.117C183.865 106.117 183.477 106.062 183.094 105.953C182.715 105.844 182.369 105.68 182.057 105.461C181.748 105.242 181.5 104.973 181.312 104.652C181.129 104.328 181.037 103.953 181.037 103.527H182.162C182.162 103.82 182.219 104.072 182.332 104.283C182.445 104.49 182.6 104.662 182.795 104.799C182.994 104.936 183.219 105.037 183.469 105.104C183.723 105.166 183.986 105.197 184.26 105.197C184.654 105.197 184.988 105.143 185.262 105.033C185.535 104.924 185.742 104.768 185.883 104.564C186.027 104.361 186.1 104.121 186.1 103.844ZM193.986 105.109V106H188.402V105.221L191.197 102.109C191.541 101.727 191.807 101.402 191.994 101.137C192.186 100.867 192.318 100.627 192.393 100.416C192.471 100.201 192.51 99.9824 192.51 99.7598C192.51 99.4785 192.451 99.2246 192.334 98.998C192.221 98.7676 192.053 98.584 191.83 98.4473C191.607 98.3105 191.338 98.2422 191.021 98.2422C190.643 98.2422 190.326 98.3164 190.072 98.4648C189.822 98.6094 189.635 98.8125 189.51 99.0742C189.385 99.3359 189.322 99.6367 189.322 99.9766H188.238C188.238 99.4961 188.344 99.0566 188.555 98.6582C188.766 98.2598 189.078 97.9434 189.492 97.709C189.906 97.4707 190.416 97.3516 191.021 97.3516C191.561 97.3516 192.021 97.4473 192.404 97.6387C192.787 97.8262 193.08 98.0918 193.283 98.4355C193.49 98.7754 193.594 99.1738 193.594 99.6309C193.594 99.8809 193.551 100.135 193.465 100.393C193.383 100.646 193.268 100.9 193.119 101.154C192.975 101.408 192.805 101.658 192.609 101.904C192.418 102.15 192.213 102.393 191.994 102.631L189.709 105.109H193.986Z" fill="#DBDBDB"/>
<path d="M250.1 103.844C250.1 103.645 250.068 103.469 250.006 103.316C249.947 103.16 249.842 103.02 249.689 102.895C249.541 102.77 249.334 102.65 249.068 102.537C248.807 102.424 248.475 102.309 248.072 102.191C247.65 102.066 247.27 101.928 246.93 101.775C246.59 101.619 246.299 101.441 246.057 101.242C245.814 101.043 245.629 100.814 245.5 100.557C245.371 100.299 245.307 100.004 245.307 99.6719C245.307 99.3398 245.375 99.0332 245.512 98.752C245.648 98.4707 245.844 98.2266 246.098 98.0195C246.355 97.8086 246.662 97.6445 247.018 97.5273C247.373 97.4102 247.77 97.3516 248.207 97.3516C248.848 97.3516 249.391 97.4746 249.836 97.7207C250.285 97.9629 250.627 98.2812 250.861 98.6758C251.096 99.0664 251.213 99.4844 251.213 99.9297H250.088C250.088 99.6094 250.02 99.3262 249.883 99.0801C249.746 98.8301 249.539 98.6348 249.262 98.4941C248.984 98.3496 248.633 98.2773 248.207 98.2773C247.805 98.2773 247.473 98.3379 247.211 98.459C246.949 98.5801 246.754 98.7441 246.625 98.9512C246.5 99.1582 246.438 99.3945 246.438 99.6602C246.438 99.8398 246.475 100.004 246.549 100.152C246.627 100.297 246.746 100.432 246.906 100.557C247.07 100.682 247.277 100.797 247.527 100.902C247.781 101.008 248.084 101.109 248.436 101.207C248.92 101.344 249.338 101.496 249.689 101.664C250.041 101.832 250.33 102.021 250.557 102.232C250.787 102.439 250.957 102.676 251.066 102.941C251.18 103.203 251.236 103.5 251.236 103.832C251.236 104.18 251.166 104.494 251.025 104.775C250.885 105.057 250.684 105.297 250.422 105.496C250.16 105.695 249.846 105.85 249.479 105.959C249.115 106.064 248.709 106.117 248.26 106.117C247.865 106.117 247.477 106.062 247.094 105.953C246.715 105.844 246.369 105.68 246.057 105.461C245.748 105.242 245.5 104.973 245.312 104.652C245.129 104.328 245.037 103.953 245.037 103.527H246.162C246.162 103.82 246.219 104.072 246.332 104.283C246.445 104.49 246.6 104.662 246.795 104.799C246.994 104.936 247.219 105.037 247.469 105.104C247.723 105.166 247.986 105.197 248.26 105.197C248.654 105.197 248.988 105.143 249.262 105.033C249.535 104.924 249.742 104.768 249.883 104.564C250.027 104.361 250.1 104.121 250.1 103.844ZM253.979 101.201H254.752C255.131 101.201 255.443 101.139 255.689 101.014C255.939 100.885 256.125 100.711 256.246 100.492C256.371 100.27 256.434 100.02 256.434 99.7422C256.434 99.4141 256.379 99.1387 256.27 98.916C256.16 98.6934 255.996 98.5254 255.777 98.4121C255.559 98.2988 255.281 98.2422 254.945 98.2422C254.641 98.2422 254.371 98.3027 254.137 98.4238C253.906 98.541 253.725 98.709 253.592 98.9277C253.463 99.1465 253.398 99.4043 253.398 99.7012H252.314C252.314 99.2676 252.424 98.873 252.643 98.5176C252.861 98.1621 253.168 97.8789 253.562 97.668C253.961 97.457 254.422 97.3516 254.945 97.3516C255.461 97.3516 255.912 97.4434 256.299 97.627C256.686 97.8066 256.986 98.0762 257.201 98.4355C257.416 98.791 257.523 99.2344 257.523 99.7656C257.523 99.9805 257.473 100.211 257.371 100.457C257.273 100.699 257.119 100.926 256.908 101.137C256.701 101.348 256.432 101.521 256.1 101.658C255.768 101.791 255.369 101.857 254.904 101.857H253.979V101.201ZM253.979 102.092V101.441H254.904C255.447 101.441 255.896 101.506 256.252 101.635C256.607 101.764 256.887 101.936 257.09 102.15C257.297 102.365 257.441 102.602 257.523 102.859C257.609 103.113 257.652 103.367 257.652 103.621C257.652 104.02 257.584 104.373 257.447 104.682C257.314 104.99 257.125 105.252 256.879 105.467C256.637 105.682 256.352 105.844 256.023 105.953C255.695 106.062 255.338 106.117 254.951 106.117C254.58 106.117 254.23 106.064 253.902 105.959C253.578 105.854 253.291 105.701 253.041 105.502C252.791 105.299 252.596 105.051 252.455 104.758C252.314 104.461 252.244 104.123 252.244 103.744H253.328C253.328 104.041 253.393 104.301 253.521 104.523C253.654 104.746 253.842 104.92 254.084 105.045C254.33 105.166 254.619 105.227 254.951 105.227C255.283 105.227 255.568 105.17 255.807 105.057C256.049 104.939 256.234 104.764 256.363 104.529C256.496 104.295 256.562 104 256.562 103.645C256.562 103.289 256.488 102.998 256.34 102.771C256.191 102.541 255.98 102.371 255.707 102.262C255.438 102.148 255.119 102.092 254.752 102.092H253.979Z" fill="#DBDBDB"/>
<path d="M276.5 140V119C276.5 117.895 275.605 117 274.5 117H259.5M225.5 140V119C225.5 117.895 226.395 117 227.5 117H241.5" stroke="#DBDBDB" stroke-width="1.5"/>
<path d="M213.5 140V119C213.5 117.895 212.605 117 211.5 117H196.5M162.5 140V119C162.5 117.895 163.395 117 164.5 117H178.5" stroke="#DBDBDB" stroke-width="1.5"/>
<path d="M93.5 92V109" stroke="#DBDBDB" stroke-width="1.5"/>
<circle cx="93.5" cy="109" r="2" fill="#DBDBDB"/>
<circle cx="93.5" cy="92" r="2" fill="#DBDBDB"/>
<path d="M195.5 110L180.5 117L179.5 117" stroke="#DBDBDB" stroke-width="1.5"/>
<circle cx="196.5" cy="117" r="2" fill="#DBDBDB"/>
<circle cx="179.5" cy="117" r="2" fill="#DBDBDB"/>
<path d="M242.5 117L259.5 117" stroke="#DBDBDB" stroke-width="1.5"/>
<circle cx="259.5" cy="117" r="2" fill="#DBDBDB"/>
<circle cx="242.5" cy="117" r="2" fill="#DBDBDB"/>
<rect x="106.5" y="129" width="37" height="22" rx="2" fill="#ADF75E"/>
<path d="M119.425 136.18H122.014C122.601 136.18 123.097 136.269 123.501 136.448C123.91 136.627 124.219 136.892 124.431 137.243C124.646 137.59 124.753 138.018 124.753 138.527C124.753 138.885 124.68 139.213 124.533 139.51C124.389 139.803 124.182 140.054 123.91 140.262C123.641 140.466 123.319 140.618 122.943 140.718L122.653 140.831H120.22L120.209 139.988H122.046C122.418 139.988 122.728 139.923 122.975 139.794C123.222 139.662 123.408 139.485 123.534 139.263C123.659 139.041 123.722 138.795 123.722 138.527C123.722 138.226 123.663 137.963 123.544 137.737C123.426 137.512 123.24 137.338 122.986 137.216C122.735 137.091 122.411 137.028 122.014 137.028H120.461V144H119.425V136.18ZM123.996 144L122.094 140.455L123.174 140.45L125.102 143.936V144H123.996ZM129.211 136.137V144H128.217V137.377L126.214 138.108V137.211L129.055 136.137H129.211Z" fill="black"/>
<rect x="169.5" y="129" width="37" height="22" rx="2" fill="#ADF75E"/>
<path d="M182.425 136.18H185.014C185.601 136.18 186.097 136.269 186.501 136.448C186.91 136.627 187.219 136.892 187.431 137.243C187.646 137.59 187.753 138.018 187.753 138.527C187.753 138.885 187.68 139.213 187.533 139.51C187.389 139.803 187.182 140.054 186.91 140.262C186.641 140.466 186.319 140.618 185.943 140.718L185.653 140.831H183.22L183.209 139.988H185.046C185.418 139.988 185.728 139.923 185.975 139.794C186.222 139.662 186.408 139.485 186.534 139.263C186.659 139.041 186.722 138.795 186.722 138.527C186.722 138.226 186.663 137.963 186.544 137.737C186.426 137.512 186.24 137.338 185.986 137.216C185.735 137.091 185.411 137.028 185.014 137.028H183.461V144H182.425V136.18ZM186.996 144L185.094 140.455L186.174 140.45L188.102 143.936V144H186.996ZM194.069 143.184V144H188.951V143.286L191.513 140.434C191.828 140.083 192.071 139.785 192.243 139.542C192.419 139.295 192.54 139.075 192.608 138.881C192.68 138.684 192.716 138.484 192.716 138.28C192.716 138.022 192.662 137.789 192.555 137.582C192.451 137.37 192.297 137.202 192.093 137.077C191.889 136.951 191.642 136.889 191.352 136.889C191.004 136.889 190.714 136.957 190.481 137.093C190.252 137.225 190.08 137.411 189.966 137.651C189.851 137.891 189.794 138.167 189.794 138.479H188.8C188.8 138.038 188.897 137.635 189.09 137.27C189.284 136.905 189.57 136.615 189.95 136.4C190.329 136.181 190.797 136.072 191.352 136.072C191.846 136.072 192.268 136.16 192.619 136.335C192.97 136.507 193.239 136.751 193.425 137.066C193.615 137.377 193.709 137.743 193.709 138.162C193.709 138.391 193.67 138.624 193.591 138.86C193.516 139.093 193.41 139.325 193.274 139.558C193.142 139.791 192.986 140.02 192.807 140.246C192.632 140.471 192.444 140.693 192.243 140.912L190.148 143.184H194.069Z" fill="black"/>
<rect x="233.25" y="129.75" width="35.5" height="20.5" rx="1.25" stroke="#DBDBDB" stroke-width="1.5"/>
<path d="M245.425 136.18H248.014C248.601 136.18 249.097 136.269 249.501 136.448C249.91 136.627 250.219 136.892 250.431 137.243C250.646 137.59 250.753 138.018 250.753 138.527C250.753 138.885 250.68 139.213 250.533 139.51C250.389 139.803 250.182 140.054 249.91 140.262C249.641 140.466 249.319 140.618 248.943 140.718L248.653 140.831H246.22L246.209 139.988H248.046C248.418 139.988 248.728 139.923 248.975 139.794C249.222 139.662 249.408 139.485 249.534 139.263C249.659 139.041 249.722 138.795 249.722 138.527C249.722 138.226 249.663 137.963 249.544 137.737C249.426 137.512 249.24 137.338 248.986 137.216C248.735 137.091 248.411 137.028 248.014 137.028H246.461V144H245.425V136.18ZM249.996 144L248.094 140.455L249.174 140.45L251.102 143.936V144H249.996ZM253.396 139.601H254.104C254.452 139.601 254.738 139.544 254.964 139.429C255.193 139.311 255.363 139.152 255.474 138.951C255.589 138.747 255.646 138.518 255.646 138.264C255.646 137.963 255.596 137.71 255.496 137.506C255.395 137.302 255.245 137.148 255.044 137.044C254.844 136.941 254.59 136.889 254.282 136.889C254.002 136.889 253.755 136.944 253.541 137.055C253.329 137.163 253.163 137.317 253.041 137.517C252.923 137.718 252.864 137.954 252.864 138.226H251.87C251.87 137.829 251.97 137.467 252.171 137.141C252.371 136.815 252.653 136.556 253.014 136.362C253.379 136.169 253.802 136.072 254.282 136.072C254.754 136.072 255.168 136.156 255.522 136.325C255.877 136.489 256.153 136.736 256.35 137.066C256.547 137.392 256.645 137.798 256.645 138.285C256.645 138.482 256.598 138.693 256.505 138.919C256.416 139.141 256.274 139.349 256.081 139.542C255.891 139.735 255.644 139.895 255.34 140.02C255.035 140.142 254.67 140.203 254.244 140.203H253.396V139.601ZM253.396 140.417V139.821H254.244C254.742 139.821 255.154 139.88 255.479 139.999C255.805 140.117 256.061 140.274 256.248 140.471C256.437 140.668 256.57 140.885 256.645 141.121C256.724 141.354 256.763 141.587 256.763 141.819C256.763 142.185 256.701 142.509 256.575 142.792C256.453 143.074 256.28 143.314 256.054 143.511C255.832 143.708 255.571 143.857 255.27 143.957C254.969 144.057 254.642 144.107 254.287 144.107C253.947 144.107 253.626 144.059 253.326 143.962C253.028 143.866 252.765 143.726 252.536 143.543C252.307 143.357 252.128 143.13 251.999 142.861C251.87 142.589 251.806 142.279 251.806 141.932H252.799C252.799 142.204 252.858 142.442 252.977 142.646C253.098 142.851 253.27 143.01 253.492 143.125C253.718 143.236 253.983 143.291 254.287 143.291C254.591 143.291 254.853 143.239 255.071 143.135C255.293 143.028 255.463 142.867 255.582 142.652C255.703 142.437 255.764 142.167 255.764 141.841C255.764 141.515 255.696 141.248 255.56 141.041C255.424 140.829 255.231 140.674 254.98 140.573C254.733 140.469 254.441 140.417 254.104 140.417H253.396Z" fill="#DBDBDB"/>
</svg>
