<svg xmlns="http://www.w3.org/2000/svg" width="16" height="16" fill="none" viewBox="0 0 16 16">
    <g fill="#FF725C" clip-path="url(#clip0)">
        <path fill-rule="evenodd" d="M7.637 8.61c0 .268.216.485.484.485.267 0 .484-.217.484-.484V4.62c0-.267-.217-.483-.484-.483-.268 0-.484.216-.484.484V8.61zm-.081 1.536c0 .29.235.526.525.526h.078c.29 0 .526-.236.526-.526 0-.29-.235-.526-.526-.526h-.078c-.29 0-.525.236-.525.526z" clip-rule="evenodd"/>
        <path d="M8.12 9.058c-.247 0-.447-.2-.447-.447H7.6c0 .287.233.52.52.52v-.073zm.448-.447c0 .247-.2.447-.447.447v.073c.287 0 .52-.233.52-.52h-.073zm0-3.99v3.99h.073V4.62h-.073zm-.447-.447c.247 0 .447.2.447.448h.073c0-.288-.233-.52-.52-.52v.072zm-.448.448c0-.247.2-.448.448-.448v-.073c-.288 0-.521.233-.521.52h.073zm0 3.989V4.62H7.6v3.99h.073zm.408 2.024c-.27 0-.489-.219-.489-.489H7.52c0 .31.252.562.562.562v-.073zm.078 0h-.078v.073h.078v-.073zm.49-.489c0 .27-.22.49-.49.49v.072c.31 0 .563-.251.563-.562h-.074zm-.49-.489c.27 0 .49.219.49.49h.073c0-.311-.252-.563-.563-.563v.073zm-.078 0h.078v-.073h-.078v.073zm-.489.49c0-.271.22-.49.49-.49v-.073c-.311 0-.563.252-.563.562h.073z"/>
        <path fill-rule="evenodd" d="M6.263 3.168c-1.047.376-1.943 1.082-2.554 2.01-.61.93-.903 2.033-.834 3.143.07 1.11.497 2.167 1.22 3.013.721.846 1.698 1.434 2.784 1.677 1.085.243 2.22.127 3.233-.33 1.014-.458 1.852-1.232 2.388-2.207.536-.974.74-2.096.584-3.197-.157-1.101-.666-2.122-1.453-2.908-.204-.204-.204-.534 0-.738.204-.204.534-.204.738 0 .946.946 1.56 2.174 1.748 3.499.188 1.325-.058 2.675-.703 3.847-.645 1.173-1.653 2.104-2.872 2.655-1.22.55-2.585.69-3.891.398-1.306-.293-2.482-1-3.35-2.019-.87-1.018-1.384-2.29-1.467-3.625-.084-1.336.268-2.662 1.003-3.78.735-1.118 1.814-1.968 3.073-2.42l.353.982z" clip-rule="evenodd"/>
        <path d="M6.914 1.836L5.462 5.681 2.859 2.5l4.055-.665z"/>
    </g>
    <defs>
        <clipPath id="clip0">
            <path fill="#fff" d="M0 0H16V16H0z"/>
        </clipPath>
    </defs>
</svg>
