<svg width="136" height="136" viewBox="0 0 136 136" fill="none" xmlns="http://www.w3.org/2000/svg">
<path d="M0 68C0 30.4446 30.4446 0 68 0V0C105.555 0 136 30.4446 136 68V68C136 105.555 105.555 136 68 136V136C30.4446 136 0 105.555 0 68V68Z" fill="#404040"/>
<path fill-rule="evenodd" clip-rule="evenodd" d="M68.0007 50.3353C71.5048 50.3353 74.3454 47.4947 74.3454 43.9906C74.3454 40.4866 71.5048 37.646 68.0007 37.646C64.4967 37.646 61.6561 40.4866 61.6561 43.9906C61.6561 47.4947 64.4967 50.3353 68.0007 50.3353ZM68.0007 51.8353C72.3332 51.8353 75.8454 48.3231 75.8454 43.9906C75.8454 39.6582 72.3332 36.146 68.0007 36.146C63.6683 36.146 60.1561 39.6582 60.1561 43.9906C60.1561 48.3231 63.6683 51.8353 68.0007 51.8353ZM43.4373 50.3353C46.9414 50.3353 49.782 47.4947 49.782 43.9907C49.782 40.4866 46.9414 37.646 43.4373 37.646C39.9333 37.646 37.0927 40.4866 37.0927 43.9907C37.0927 47.4947 39.9333 50.3353 43.4373 50.3353ZM43.4373 51.8353C47.7698 51.8353 51.282 48.3231 51.282 43.9907C51.282 39.6582 47.7698 36.146 43.4373 36.146C39.1048 36.146 35.5927 39.6582 35.5927 43.9907C35.5927 48.3231 39.1048 51.8353 43.4373 51.8353ZM43.4364 74.3447C46.9405 74.3447 49.7811 71.5041 49.7811 68C49.7811 64.496 46.9405 61.6554 43.4364 61.6554C39.9324 61.6554 37.0918 64.496 37.0918 68C37.0918 71.5041 39.9324 74.3447 43.4364 74.3447ZM43.4364 75.8447C47.7689 75.8447 51.2811 72.3325 51.2811 68C51.2811 63.6675 47.7689 60.1554 43.4364 60.1554C39.104 60.1554 35.5918 63.6675 35.5918 68C35.5918 72.3325 39.104 75.8447 43.4364 75.8447ZM49.7811 92.0094C49.7811 95.5135 46.9405 98.354 43.4364 98.354C39.9324 98.354 37.0918 95.5135 37.0918 92.0094C37.0918 88.5053 39.9324 85.6647 43.4364 85.6647C46.9405 85.6647 49.7811 88.5053 49.7811 92.0094ZM51.2811 92.0094C51.2811 96.3419 47.7689 99.854 43.4364 99.854C39.104 99.854 35.5918 96.3419 35.5918 92.0094C35.5918 87.6769 39.104 84.1647 43.4364 84.1647C47.7689 84.1647 51.2811 87.6769 51.2811 92.0094ZM68.0007 75.8447C72.3332 75.8447 75.8454 72.3325 75.8454 68C75.8454 63.6675 72.3332 60.1554 68.0007 60.1554C63.6683 60.1554 60.1561 63.6675 60.1561 68C60.1561 72.3325 63.6683 75.8447 68.0007 75.8447ZM68.0007 98.354C71.5048 98.354 74.3454 95.5135 74.3454 92.0094C74.3454 88.5053 71.5048 85.6647 68.0007 85.6647C64.4967 85.6647 61.6561 88.5053 61.6561 92.0094C61.6561 95.5135 64.4967 98.354 68.0007 98.354ZM68.0007 99.854C72.3332 99.854 75.8454 96.3419 75.8454 92.0094C75.8454 87.6769 72.3332 84.1647 68.0007 84.1647C63.6683 84.1647 60.1561 87.6769 60.1561 92.0094C60.1561 96.3419 63.6683 99.854 68.0007 99.854ZM92.565 51.8353C96.8975 51.8353 100.41 48.3231 100.41 43.9906C100.41 39.6582 96.8975 36.146 92.565 36.146C88.2326 36.146 84.7204 39.6582 84.7204 43.9906C84.7204 48.3231 88.2326 51.8353 92.565 51.8353ZM100.41 68C100.41 72.3325 96.8975 75.8447 92.565 75.8447C88.2326 75.8447 84.7204 72.3325 84.7204 68C84.7204 63.6675 88.2326 60.1554 92.565 60.1554C96.8975 60.1554 100.41 63.6675 100.41 68ZM98.9097 92.0094C98.9097 95.5135 96.0691 98.354 92.565 98.354C89.061 98.354 86.2204 95.5135 86.2204 92.0094C86.2204 88.5053 89.061 85.6647 92.565 85.6647C96.0691 85.6647 98.9097 88.5053 98.9097 92.0094ZM100.41 92.0094C100.41 96.3419 96.8975 99.854 92.565 99.854C88.2326 99.854 84.7204 96.3419 84.7204 92.0094C84.7204 87.6769 88.2326 84.1647 92.565 84.1647C96.8975 84.1647 100.41 87.6769 100.41 92.0094Z" fill="#DBDBDB"/>
</svg>
