<svg xmlns="http://www.w3.org/2000/svg" width="96" height="96" viewBox="0 0 96 96">
    <g fill="#FFF">
        <path d="M19.5 28.5l4.816 1.25.924 7.803 20.866 9.02V52.5L20.85 39.225 19.5 28.5zm57 0l-1.22 10.725L50.07 52.5v-5.927l20.806-9.02.806-7.804L76.5 28.5zm-8.193 2.133L67.929 36l-19.782 7.434L28.306 36l-.437-5.366 20.278 5.255 20.16-5.255zM31.293 76.5l2.805-4.29s1.155-1.485 1.155-3.3c0-2.227-1.733-3.96-3.96-3.96-2.228 0-3.96 1.733-3.96 3.96 0 2.145 1.65 3.795 3.3 3.795.66 0 1.155-.412 1.155-.412h.165L29.148 76.5h2.145zm0-5.445c-1.073 0-1.898-.825-1.898-2.145s.825-2.145 1.898-2.145c1.072 0 1.897.825 1.897 2.145s-.825 2.145-1.897 2.145zM49.035 76.5l-.005-1.815V64.95h-.33l-4.125 2.392.825 1.403 1.485-.825h.165v6.765l.005 1.815h1.98zm15.18 0l-.005-1.815V64.95h-.33l-4.125 2.392.825 1.403 1.485-.825h.165v6.765l.02 1.815h1.965z"/>
    </g>
</svg>
