<svg xmlns="http://www.w3.org/2000/svg" width="24" height="24" fill="none" viewBox="0 0 24 24">
    <path fill="#FF725C" d="M6 6H18V7H6zM6 17H18V18H6zM11.252 9.84H9.58V15h-.924V9.84H7V9h4.252v.84zM13.928 12.688H12.89V15h-.932V9h1.885c.618 0 1.096.155 1.432.466.336.31.504.76.504 1.347 0 .401-.087.738-.261 1.01-.172.269-.413.476-.722.622L16 14.946V15h-.998l-1.074-2.312zm-1.038-.836h.957c.314 0 .56-.088.736-.264.176-.179.265-.422.265-.73 0-.32-.082-.57-.247-.745-.162-.176-.405-.267-.729-.272h-.982v2.01z"/>
</svg>
