<?xml version="1.0" encoding="UTF-8"?>
<svg width="24px" height="24px" viewBox="0 0 24 24" version="1.1" xmlns="http://www.w3.org/2000/svg" xmlns:xlink="http://www.w3.org/1999/xlink" style="background: #4B4B4B;">
    <!-- Generator: sketchtool 61.2 (101010) - https://sketch.com -->
    <title>23386668-8E9B-4E74-8826-EE7190C62629</title>
    <desc>Created with sketchtool.</desc>
    <g id="Symbols" stroke="none" stroke-width="1" fill="none" fill-rule="evenodd">
        <g id="Icon-/-Category-/-Company-Add">
            <rect fill="none" x="0" y="0" width="24" height="24"></rect>
            <g id="Group" transform="translate(0.000000, 1.000000)" fill="#EDEDED">
                <path d="M21.179457,0 C23.0522976,0 24,0.923954373 24,2.85171103 L24,2.85171103 L24,19.1596958 C24,21.0874525 23.0522976,22 21.179457,22 L21.179457,22 L2.82054295,22 C0.958984605,22 0,21.0874525 0,19.1596958 L0,19.1596958 L0,2.85171103 C0,0.923954373 0.958984605,0 2.82054295,0 L2.82054295,0 Z M13,5 L11,5 L11,9.999 L6,10 L6,12 L11,11.999 L11,17 L13,17 L13,12 L18,12 L18,10 L13,10 L13,5 Z" id="Combined-Shape"></path>
            </g>
        </g>
    </g>
</svg>