<svg xmlns="http://www.w3.org/2000/svg" width="40" height="40" viewBox="0 0 40 40">
    <g fill="none" fill-rule="evenodd" transform="translate(-4 -3)">
        <circle cx="24" cy="23" r="19.5" stroke="#EA5949" opacity=".3"/>
        <path fill="#EA5949" fill-rule="nonzero" d="M15.82 41.255l.408-.913c1.229.55 2.51.964 3.928 1.265 3.21.664 6.471.488 9.532-.475l.3.954c-3.222 1.014-6.656 1.199-10.037.5-1.49-.317-2.838-.753-4.132-1.331zM4.732 28.38l.963-.27c1.244 4.44 4.073 8.303 7.94 10.82l-.546.839c-4.071-2.65-7.048-6.716-8.357-11.39zm2.826-16.777l.822.57c-1.43 2.06-2.437 4.387-2.98 6.945-.427 2.045-.515 4.114-.271 6.146l-.993.12c-.256-2.14-.164-4.318.285-6.472.572-2.69 1.632-5.14 3.137-7.31zm14.644-8.527l.09.996c-4.602.413-8.903 2.508-12.08 5.85l-.724-.689c3.343-3.517 7.87-5.722 12.714-6.157z"/>
        <path fill="#FF725C" fill-rule="nonzero" d="M28.062 30c.725 0 1.313-.588 1.313-1.313V19.5h.437c.242 0 .438-.196.438-.438v-.437c0-.242-.196-.438-.438-.438H27.56l-.93-1.55c-.19-.316-.617-.58-1-.629L25.503 16h-2.756c-.41 0-.915.285-1.126.637l-.93 1.55h-2.254c-.241 0-.437.196-.437.438v.437c0 .242.196.438.437.438h.438v9.187c0 .725.588 1.313 1.312 1.313h7.875zm-2.034-11.813h-3.806l.477-.795c.02-.033.06-.061.1-.073l.04-.007h2.571c.052 0 .115.036.141.08l.477.795zm2.034 10.5h-7.875V19.5h7.875v9.187zm-2.078-1.312c.181 0 .328-.147.328-.328V21.14c0-.182-.147-.329-.328-.329h-.656c-.181 0-.328.147-.328.329v5.906c0 .181.147.328.328.328h.656zm-3.062 0c.181 0 .328-.147.328-.328V21.14c0-.182-.147-.329-.328-.329h-.656c-.182 0-.329.147-.329.329v5.906c0 .181.147.328.329.328h.656z"/>
    </g>
</svg>
