<svg xmlns="http://www.w3.org/2000/svg" width="24" height="24" viewBox="0 0 24 24">
    <path fill="#5AE4AA" fill-rule="evenodd" d="M11.616 15.82c.095.114.236.18.384.18.148 0 .29-.066.384-.18l5-6c.177-.212.148-.527-.064-.704-.212-.177-.527-.148-.704.064L12.5 14.119V3.5c0-.276-.224-.5-.5-.5s-.5.224-.5.5v10.619l-4.116-4.94c-.177-.211-.492-.24-.704-.063-.212.177-.24.492-.064.704l5 6zM5.5 13.5c0-.276-.224-.5-.5-.5s-.5.224-.5.5v3C4.5 18.985 6.515 21 9 21h6c2.485 0 4.5-2.015 4.5-4.5v-3c0-.276-.224-.5-.5-.5s-.5.224-.5.5v3c0 1.933-1.567 3.5-3.5 3.5H9c-1.933 0-3.5-1.567-3.5-3.5v-3z"/>
</svg>
