<?xml version="1.0" encoding="UTF-8"?>
<svg width="40px" height="40px" viewBox="0 0 40 40" version="1.1" xmlns="http://www.w3.org/2000/svg" xmlns:xlink="http://www.w3.org/1999/xlink">
    <!-- Generator: Sketch 61.2 (89653) - https://sketch.com -->
    <title>Cell / a.PlaceholderIcon</title>
    <desc>Created with Sketch.</desc>
    <g id="2.-Company" stroke="none" stroke-width="1" fill="none" fill-rule="evenodd">
        <g id="Artboard" transform="translate(-8.000000, -8.000000)" fill="#F7F7F7" fill-rule="nonzero">
            <g id="Navigation-/-m.PrimaryNavigationItem:Selected">
                <g id="Icon-/-Category-/-Gbr" transform="translate(8.000000, 8.000000)">
                    <path d="M12.4999702,31.3332666 C13.3282458,31.3332666 13.9999666,30.6615458 13.9999666,29.8332702 L13.9999666,28.3332737 L25.999938,28.3332737 L25.999938,29.8332702 C25.999938,30.6615458 26.6716588,31.3332666 27.4999344,31.3332666 L28.9999309,31.3332666 C29.8282065,31.3332666 30.4999273,30.6615458 30.4999273,29.8332702 L30.4999273,27.9170302 C31.3928847,27.397195 31.9999237,26.4404712 31.9999237,25.3332809 L31.9999237,23.0832862 C31.9999237,21.6521831 30.996325,20.4601693 29.6561793,20.1601517 L28.6249318,16.1832935 C28.1749511,14.5332883 26.6749547,13.3333166 25.0249495,13.3333166 L24.4999416,13.3333166 L24.4999416,11.8333166 C24.4999416,11.0050375 23.8282208,10.3333166 22.9999452,10.3333166 L16.9999595,10.3333166 C16.1716839,10.3333166 15.499963,11.0050375 15.499963,11.8333166 L15.499963,13.3333166 L14.9749551,13.3333166 C13.3249499,13.3333166 11.8249535,14.5332883 11.3749729,16.1832935 L10.3437253,20.1601517 C9.00357961,20.4601693 7.99998093,21.6521831 7.99998093,23.0832862 L7.99998093,25.3332809 C7.99998093,26.440929 8.60701988,27.3976528 9.49998093,27.9170302 L9.49998093,29.8332702 C9.49998093,30.6615458 10.1716982,31.3332666 10.9999809,31.3332666 L12.4999702,31.3332666 Z M26.5366646,20.0832934 L13.46324,20.0832934 L14.2694972,16.9726593 C14.3740502,16.5901987 14.7190201,16.3333023 14.9754129,16.3333023 L25.0254073,16.3333023 C25.2818001,16.3333023 25.6268157,16.5901987 25.721481,16.9361299 L26.5366646,20.0832934 Z M12.4999738,25.333288 C11.6716946,25.333288 10.9999738,24.6615601 10.9999738,23.833288 C10.9999738,23.0050088 11.6716946,22.333288 12.4999738,22.333288 C13.3282458,22.333288 13.9999738,23.0050088 13.9999738,23.833288 C13.9999738,24.6615601 13.3282458,25.333288 12.4999738,25.333288 Z M27.499938,25.333288 C26.6716588,25.333288 25.999938,24.6615601 25.999938,23.833288 C25.999938,23.0050088 26.6716588,22.333288 27.499938,22.333288 C28.32821,22.333288 28.999938,23.0050088 28.999938,23.833288 C28.999938,24.6615601 28.32821,25.333288 27.499938,25.333288 Z" id="gbr-icon"></path>
                </g>
            </g>
        </g>
    </g>
</svg>