<?xml version="1.0" encoding="UTF-8"?>
<svg width="24px" height="24px" viewBox="0 0 24 24" version="1.1" xmlns="http://www.w3.org/2000/svg" xmlns:xlink="http://www.w3.org/1999/xlink" style="background: #4B4B4B;">
    <!-- Generator: sketchtool 61.2 (101010) - https://sketch.com -->
    <title>F5366EC0-4C2C-4C66-871C-5A45FB09C1F5</title>
    <desc>Created with sketchtool.</desc>
    <g id="Symbols" stroke="none" stroke-width="1" fill="none" fill-rule="evenodd">
        <g id="Icon-/-Category-/-Monitor">
            <rect fill="none" x="0" y="0" width="24" height="24"></rect>
            <g id="Group" transform="translate(0.000000, 2.000000)" fill="#EDEDED">
                <path d="M21.179457,16 C23.0522976,16 24,15.0874525 24,13.1596958 L24,2.85171103 C24,0.923954373 23.0522976,0 21.179457,0 L2.82054295,0 C0.958984605,0 0,0.923954373 0,2.85171103 L0,13.1596958 C0,15.0874525 0.958984605,16 2.82054295,16 L21.179457,16 Z" id="Path"></path>
                <path d="M18.0305011,20 C18.5642702,20 19,19.5555556 19,19 C19,18.4444444 18.5642702,18 18.0305011,18 L5.98039216,18 C5.43572985,18 5,18.4444444 5,19 C5,19.5555556 5.43572985,20 5.98039216,20 L18.0305011,20 Z" id="Path"></path>
            </g>
        </g>
    </g>
</svg>