<svg width="64" height="64" viewBox="0 0 64 64" fill="none" xmlns="http://www.w3.org/2000/svg">
<path d="M0 2C0 0.895431 0.895431 0 2 0H62C63.1046 0 64 0.895431 64 2V62C64 63.1046 63.1046 64 62 64H2C0.895431 64 0 63.1046 0 62V2Z" fill="#181818"/>
<path fill-rule="evenodd" clip-rule="evenodd" d="M40.0714 42C40.86 42 41.5 41.36 41.5 40.5714V23.4286C41.5 22.64 40.86 22 40.0714 22H22.9286C22.14 22 21.5 22.64 21.5 23.4286V40.5714C21.5 41.36 22.14 42 22.9286 42H40.0714Z" stroke="#787878" stroke-width="1.5"/>
<path d="M21.5 35.9996H22.5L26.5 29.9996L29.5 32.9996L34.5 28L40.5 35.9996H41.5V37.9998H21.5V35.9996Z" fill="#787878"/>
<path fill-rule="evenodd" clip-rule="evenodd" d="M27.5 28C28.604 28 29.5 27.104 29.5 26C29.5 24.896 28.604 24 27.5 24C26.396 24 25.5 24.896 25.5 26C25.5 27.104 26.396 28 27.5 28Z" fill="#787878"/>
</svg>
