<svg xmlns="http://www.w3.org/2000/svg" width="24" height="24" fill="none" viewBox="0 0 24 24">
    <path fill="#FF725C" fill-rule="evenodd" d="M12.562 3.017L11.5 2.952V7.5h2V5.16C16.645 5.848 19 8.65 19 12c0 3.866-3.134 7-7 7s-7-3.134-7-7c0-2.39 1.197-4.501 3.029-5.765l.823-.569-1.137-1.645-.823.568C4.543 6.21 3 8.925 3 11.999c0 4.971 4.03 9 9 9s9-4.029 9-9c0-4.781-3.729-8.691-8.438-8.982zM10.314 7.92l-.582-.814-1.627 1.162.581.814 2.5 3.5.582.814 1.627-1.163-.581-.813-2.5-3.5z" clip-rule="evenodd"/>
</svg>
