<?xml version="1.0" encoding="UTF-8"?>
<svg width="40px" height="40px" viewBox="0 0 40 40" version="1.1" xmlns="http://www.w3.org/2000/svg" xmlns:xlink="http://www.w3.org/1999/xlink">
    <!-- Generator: Sketch 61.2 (89653) - https://sketch.com -->
    <title>Cell / a.PlaceholderIcon</title>
    <desc>Created with Sketch.</desc>
    <g id="2.-Company" stroke="none" stroke-width="1" fill="none" fill-rule="evenodd">
        <g id="Artboard" transform="translate(-8.000000, -8.000000)" fill="#F7F7F7" fill-rule="nonzero">
            <g id="Navigation-/-m.PrimaryNavigationItem">
                <g id="Icon-/-Category-/-Workers-icon" transform="translate(8.000000, 8.000000)">
                    <path d="M29.5311796,29.4999416 C30.6180911,29.4999416 31.4999249,28.6181078 31.4999249,27.5311963 L31.4999249,13.0937307 C31.4999249,12.0068192 30.6180911,11.1249854 29.5311796,11.1249854 L9.84372653,11.1249854 C8.75681506,11.1249854 7.87498122,12.0068192 7.87498122,13.0937307 L7.87498122,27.5311963 C7.87498122,28.6181078 8.75681506,29.4999416 9.84372653,29.4999416 L29.5311796,29.4999416 Z M15.093714,20.3124635 C13.6458739,20.3124635 12.4687203,19.1353099 12.4687203,17.6874698 C12.4687203,16.2396297 13.6458739,15.062476 15.093714,15.062476 C16.5415541,15.062476 17.7187078,16.2396297 17.7187078,17.6874698 C17.7187078,19.1353099 16.5415541,20.3124635 15.093714,20.3124635 Z M28.5468069,17.6874698 L22.640571,17.6874698 C22.4600867,17.6874698 22.3124468,17.5398299 22.3124468,17.3593455 L22.3124468,16.7030971 C22.3124468,16.5226128 22.4600867,16.3749729 22.640571,16.3749729 L28.5468069,16.3749729 C28.7272913,16.3749729 28.8749312,16.5226128 28.8749312,16.7030971 L28.8749312,17.3593455 C28.8749312,17.5398299 28.7272913,17.6874698 28.5468069,17.6874698 Z M28.5468069,20.3124635 L22.640571,20.3124635 C22.4600867,20.3124635 22.3124468,20.1648236 22.3124468,19.9843393 L22.3124468,19.3280908 C22.3124468,19.1476065 22.4600867,18.9999666 22.640571,18.9999666 L28.5468069,18.9999666 C28.7272913,18.9999666 28.8749312,19.1476065 28.8749312,19.3280908 L28.8749312,19.9843393 C28.8749312,20.1648236 28.7272913,20.3124635 28.5468069,20.3124635 Z M18.7686892,25.562451 L11.4187388,25.562451 C10.9101302,25.562451 10.499975,25.2097335 10.499975,24.7749448 L10.499975,23.9874387 C10.499975,22.683153 11.7345263,21.6249604 13.2562264,21.6249604 L13.461304,21.6249604 C13.965787,21.8341235 14.5154111,21.9530846 15.093714,21.9530846 C15.6720169,21.9530846 16.2257265,21.8341235 16.726124,21.6249604 L16.9312016,21.6249604 C18.4529017,21.6249604 19.6874531,22.683153 19.6874531,23.9874387 L19.6874531,24.7749448 C19.6874531,25.2097335 19.2772978,25.562451 18.7686892,25.562451 Z M28.5468069,22.9374572 L22.640571,22.9374572 C22.4600867,22.9374572 22.3124468,22.7898174 22.3124468,22.609333 L22.3124468,21.9530846 C22.3124468,21.7726002 22.4600867,21.6249604 22.640571,21.6249604 L28.5468069,21.6249604 C28.7272913,21.6249604 28.8749312,21.7726002 28.8749312,21.9530846 L28.8749312,22.609333 C28.8749312,22.7898174 28.7272913,22.9374572 28.5468069,22.9374572 Z" id="workers-icon"></path>
                </g>
            </g>
        </g>
    </g>
</svg>