<svg width="72" height="72" viewBox="0 0 72 72" fill="none" xmlns="http://www.w3.org/2000/svg">
<path id="Combined Shape" fill-rule="evenodd" clip-rule="evenodd" d="M36 63C21.0892 63 9 50.9108 9 36C9 21.0892 21.0892 9 36 9C50.9108 9 63 21.0892 63 36C63 50.9108 50.9108 63 36 63ZM36 56.25C47.1848 56.25 56.25 47.1848 56.25 36C56.25 24.8152 47.1848 15.75 36 15.75C24.8152 15.75 15.75 24.8152 15.75 36C15.75 47.1848 24.8152 56.25 36 56.25ZM36 24.1875C30.6574 24.1875 26.1956 27.7582 24.7376 32.625H28.2746C29.5774 29.6483 32.5406 27.5625 36 27.5625C40.6609 27.5625 44.4375 31.3391 44.4375 36C44.4375 40.6609 40.6609 44.4375 36 44.4375C32.5406 44.4375 29.5774 42.3518 28.2746 39.375H24.7376C26.1956 44.2417 30.6574 47.8125 36 47.8125C42.5239 47.8125 47.8125 42.5239 47.8125 36C47.8125 29.4761 42.5239 24.1875 36 24.1875Z" fill="#5AE4AA"/>
</svg>
