<svg width="24" height="24" viewBox="0 0 24 24" fill="none" xmlns="http://www.w3.org/2000/svg">
<path fill-rule="evenodd" clip-rule="evenodd" d="M21.9321 7.74698C17.9959 7.38916 14.3949 5.39725 12.0002 2.2636C9.74436 5.21528 6.41827 7.15393 2.75 7.66821V19.0001H1.25V7.00006V6.31515L1.93209 6.25314C5.53248 5.92579 8.81916 4.06878 10.9575 1.15372L11.3586 0.606868L11.3586 0.606861C11.6766 0.173313 12.3242 0.173367 12.6421 0.607004L13.0419 1.1522C15.1799 4.06815 18.467 5.9258 22.0679 6.25314L21.9321 7.74698ZM13.6964 8.72146L13 6.98057L12.3036 8.72146L10.7261 12.6654L8.53033 10.4697L6.87545 8.8148L7.2602 11.1233L8.07215 15.9949L5.1819 15.2724L3.59992 14.8769L4.32918 16.3354L6.13453 19.9461L4.37596 22.584L5.62404 23.416L7.62404 20.416L7.86547 20.0539L7.67082 19.6646L6.40008 17.1231L8.8181 17.7276L9.92785 18.005L9.7398 16.8767L9.12455 13.1852L10.4697 14.5303L11.2739 15.3346L11.6964 14.2785L13 11.0194L14.3036 14.2785L14.7261 15.3346L15.5303 14.5303L16.8755 13.1852L16.2602 16.8767L16.0721 18.005L17.1819 17.7276L19.5999 17.1231L18.3292 19.6646L18.1345 20.0539L18.376 20.416L20.376 23.416L21.624 22.584L19.8655 19.9461L21.6708 16.3354L22.4001 14.8769L20.8181 15.2724L17.9279 15.9949L18.7398 11.1233L19.1245 8.8148L17.4697 10.4697L15.2739 12.6654L13.6964 8.72146Z" fill="#303030"/>
</svg>
