<svg width="24" height="24" viewBox="0 0 24 24" fill="none" xmlns="http://www.w3.org/2000/svg">
<path fill-rule="evenodd" clip-rule="evenodd" d="M9.5 1C9.5 0.447716 9.94772 0 10.5 0H13.5C14.0523 0 14.5 0.447715 14.5 1V2L9.5 2V1ZM6.99023 3.75049C6.99023 3.61242 7.10216 3.50049 7.24023 3.50049H16.76C16.8981 3.50049 17.01 3.61242 17.01 3.75049V22.0461C17.01 22.1842 16.8981 22.2961 16.76 22.2961L7.24024 22.2961C7.10216 22.2961 6.99024 22.1842 6.99024 22.0461L6.99023 3.75049ZM7.24023 2.00049C6.27374 2.00049 5.49023 2.78399 5.49023 3.75049V22.0461C5.49023 23.0126 6.27374 23.7961 7.24024 23.7961L16.76 23.7961C17.7265 23.7961 18.51 23.0126 18.51 22.0461V3.75049C18.51 2.78399 17.7265 2.00049 16.76 2.00049H7.24023Z" fill="#303030"/>
</svg>
