<svg width="24" height="24" viewBox="0 0 24 24" fill="none" xmlns="http://www.w3.org/2000/svg">
<path fill-rule="evenodd" clip-rule="evenodd" d="M6.33528 18.2931H3.2204V17.4785L5.34883 15.4115V9.79442C5.34883 6.5861 7.28724 3.99988 10.3563 3.27368V2.55124C10.3563 1.7247 11.0938 0.999756 11.9404 0.999756C12.7852 0.999756 13.5245 1.7247 13.5245 2.55124V3.27368C15.5144 3.74401 17.079 4.99699 17.9338 6.69459C18.3966 7.6152 18.6518 8.66624 18.6518 9.79442V15.4115L20.7796 17.4785V18.2931H6.33528Z" stroke="#303030" stroke-width="1.5"/>
<path d="M6.28496 0.775635C2.63931 2.50236 0.750588 6.09175 1.19427 10.0518" stroke="#303030" stroke-width="1.5"/>
<path d="M17.7914 0.775635C21.4479 2.50751 23.337 6.11317 22.8781 10.0873" stroke="#303030" stroke-width="1.5"/>
<path fill-rule="evenodd" clip-rule="evenodd" d="M9.41406 21.2401C9.41406 22.6095 10.5935 23.5769 12.0685 23.5769C13.5203 23.5769 14.5865 22.6258 14.5865 21.2401V20.9482H9.41406V21.2401Z" fill="#303030"/>
</svg>
