<svg width="24" height="25" viewBox="0 0 24 25" fill="none" xmlns="http://www.w3.org/2000/svg">
<g clip-path="url(#clip0_2010_29662)">
<path fill-rule="evenodd" clip-rule="evenodd" d="M1.75 12.25C1.75 6.58908 6.33908 2 12 2C17.6609 2 22.25 6.58908 22.25 12.25C22.25 17.9109 17.6609 22.5 12 22.5C6.33908 22.5 1.75 17.9109 1.75 12.25ZM12 0.5C5.51065 0.5 0.25 5.76065 0.25 12.25C0.25 18.7393 5.51065 24 12 24C18.4893 24 23.75 18.7393 23.75 12.25C23.75 5.76065 18.4893 0.5 12 0.5ZM7.45862 11.2197L10.509 14.2709L16.5602 8.21967L17.6209 9.28033L11.0392 15.862L10.5088 16.3924L9.97851 15.8619L6.39782 12.2803L7.45862 11.2197Z" fill="#303030"/>
</g>
<defs>
<clipPath id="clip0_2010_29662">
<rect width="24" height="24" fill="white" transform="translate(0 0.25)"/>
</clipPath>
</defs>
</svg>
