<svg width="24" height="24" viewBox="0 0 24 24" fill="none" xmlns="http://www.w3.org/2000/svg">
<g clip-path="url(#clip0_2678_31459)">
<path fill-rule="evenodd" clip-rule="evenodd" d="M1.75 12C1.75 6.33908 6.33908 1.75 12 1.75C17.6609 1.75 22.25 6.33908 22.25 12C22.25 12.3374 22.2337 12.671 22.2018 13H23.708C23.7358 12.6704 23.75 12.3368 23.75 12C23.75 5.51065 18.4893 0.25 12 0.25C5.51065 0.25 0.25 5.51065 0.25 12C0.25 18.4893 5.51065 23.75 12 23.75C12.3368 23.75 12.6704 23.7358 13 23.708V22.2018C12.671 22.2337 12.3374 22.25 12 22.25C6.33908 22.25 1.75 17.6609 1.75 12ZM10 10.0186V11.5186H11.25V17.9999H12.75V10.7686L12.75 10.0186H12H10ZM12 5.94407C12.5523 5.94407 13 6.39178 13 6.94407V7.05613C13 7.60841 12.5523 8.05613 12 8.05612C11.4477 8.05612 11 7.60841 11 7.05612V6.94406C11 6.39178 11.4477 5.94406 12 5.94407Z" fill="#303030"/>
<path fill-rule="evenodd" clip-rule="evenodd" d="M23.7063 17.4749L21.2314 15L19.8172 16.4142L22.2921 18.8891L23.7063 17.4749ZM21.585 19.5962L19.1101 17.1213L15.5746 20.6569L15.2373 23.4691L18.0495 23.1317L21.585 19.5962Z" fill="#303030"/>
</g>
<defs>
<clipPath id="clip0_2678_31459">
<rect width="24" height="24" fill="white"/>
</clipPath>
</defs>
</svg>
