<svg width="24" height="24" viewBox="0 0 24 24" fill="none" xmlns="http://www.w3.org/2000/svg">
<g clip-path="url(#clip0_2032_31273)">
<path fill-rule="evenodd" clip-rule="evenodd" d="M15 0H9V1.25013H2V2.75013H22V1.25013H15V0ZM4 4.56724H3.22444L3.25042 5.34236L3.84301 23.0251L3.86731 23.75H4.59259H19.4074H20.1327L20.157 23.0251L20.7496 5.34236L20.7756 4.56724H20H4ZM5.31788 22.25L4.77556 6.06724H19.2244L18.6821 22.25H5.31788ZM7.25 8.00013V20.0001H8.75V8.00013H7.25ZM11.25 20.0001V8.00013H12.75V20.0001H11.25ZM15.25 8.00013V20.0001H16.75V8.00013H15.25Z" fill="#303030"/>
</g>
<defs>
<clipPath id="clip0_2032_31273">
<rect width="24" height="24" fill="white"/>
</clipPath>
</defs>
</svg>
