<svg width="24" height="24" viewBox="0 0 24 24" fill="none" xmlns="http://www.w3.org/2000/svg">
<g clip-path="url(#clip0_660_39519)">
<path fill-rule="evenodd" clip-rule="evenodd" d="M6 2.04688H5.25V2.79688V6.04049H1.75H1V6.79049V21.25V22H1.75H12.6957V20.5H10.5V15H9V20.5H6V15H4.5V20.5H2.5V7.54049H6H6.75V6.79049V3.54688H17.2212V6.79049V7.54049H17.9712H21.5V14H23V6.79049V6.04049H22.25H18.7212V2.79688V2.04688H17.9712H6ZM22.001 24.0607L19.0308 21.0905L16.0607 24.0607L15 23L17.9702 20.0298L15.001 17.0607L16.0616 16L19.0308 18.9692L22 16L23.0607 17.0607L20.0915 20.0298L23.0616 23L22.001 24.0607Z" fill="#303030"/>
</g>
<defs>
<clipPath id="clip0_660_39519">
<rect width="24" height="24" fill="white"/>
</clipPath>
</defs>
</svg>
