<svg width="24" height="24" viewBox="0 0 24 24" fill="none" xmlns="http://www.w3.org/2000/svg">
<path fill-rule="evenodd" clip-rule="evenodd" d="M1.75 12C1.75 6.33908 6.33908 1.75 12 1.75C17.6609 1.75 22.25 6.33908 22.25 12C22.25 17.6609 17.6609 22.25 12 22.25C6.33908 22.25 1.75 17.6609 1.75 12ZM12 0.25C5.51065 0.25 0.25 5.51065 0.25 12C0.25 18.4893 5.51065 23.75 12 23.75C18.4893 23.75 23.75 18.4893 23.75 12C23.75 5.51065 18.4893 0.25 12 0.25ZM11.25 5V10.6619L9.03184 8.43114L7.96816 9.48878L11.4682 13.0087L12 13.5436L12.5318 13.0087L16.0318 9.48878L14.9682 8.43114L12.75 10.6619V5H11.25ZM9.03184 13.9512L12 16.9363L14.9682 13.9512L16.0318 15.0089L12.5318 18.5288L12 19.0637L11.4682 18.5288L7.96816 15.0089L9.03184 13.9512Z" fill="#303030"/>
</svg>
