<svg width="24" height="24" viewBox="0 0 24 24" fill="none" xmlns="http://www.w3.org/2000/svg">
<path d="M18.5 22.5C20.4298 22.5 22 20.8197 22 18.7541C22 16.136 19.9956 13.4883 18.5608 11.5C17.0981 13.4431 15 16.1697 15 18.7544C15 20.8197 16.5702 22.5 18.5 22.5Z" stroke="#303030" stroke-width="1.5"/>
<path d="M1 15.5L1.55926 14.7543C3.84988 11.7002 7.97936 10.6901 11.4211 12.3421L13 13.1" stroke="#303030" stroke-width="1.5" stroke-linejoin="round"/>
<path d="M1 9.5L1.55926 8.75432C3.84988 5.70015 7.97936 4.6901 11.4211 6.34213L12.3819 6.8033C15.6853 8.38894 19.6437 7.52756 21.9895 4.71259L23 3.5" stroke="#303030" stroke-width="1.5" stroke-linejoin="round"/>
<path d="M1 21.5L1.55926 20.7543C3.84988 17.7002 7.97936 16.6901 11.4211 18.3421L11.75 18.5" stroke="#303030" stroke-width="1.5" stroke-linejoin="round"/>
</svg>
