<svg width="24" height="24" viewBox="0 0 24 24" fill="none" xmlns="http://www.w3.org/2000/svg">
<path fill-rule="evenodd" clip-rule="evenodd" d="M12 2.5C11.064 2.5 10.2205 2.89564 9.62747 3.52881H14.3725C13.7795 2.89564 12.936 2.5 12 2.5ZM7.25 5.75C7.25 5.50482 7.26858 5.26398 7.3044 5.02881H5.01422V3.52881H7.80026C8.59745 2.02464 10.1791 1 12 1C14.6234 1 16.75 3.12665 16.75 5.75C16.75 8.37335 14.6234 10.5 12 10.5C9.37665 10.5 7.25 8.37335 7.25 5.75ZM15.25 5.75C15.25 5.50214 15.2223 5.26077 15.1697 5.02881H8.8303C8.77775 5.26077 8.75 5.50214 8.75 5.75C8.75 7.54493 10.2051 9 12 9C13.7949 9 15.25 7.54493 15.25 5.75ZM12 13.75C7.44365 13.75 3.75 17.4437 3.75 22H2.25C2.25 16.6152 6.61522 12.25 12 12.25C13.0912 12.25 14.1405 12.4292 15.1201 12.7599L14.4414 14.1172C13.6699 13.8785 12.8499 13.75 12 13.75Z" fill="#303030"/>
<path fill-rule="evenodd" clip-rule="evenodd" d="M18.2498 15.2642C18.2498 14.5738 18.8094 14.0142 19.4998 14.0142H19.7641C20.3085 14.0142 20.7498 14.4555 20.7498 14.9998H22.2498C22.2498 13.627 21.1369 12.5142 19.7641 12.5142H19.4998C17.981 12.5142 16.7498 13.7454 16.7498 15.2642V17.0396H16.3786C15.6771 17.0396 15.1084 17.515 15.1084 18.1014V21.9367C15.1084 22.5232 15.6771 22.9986 16.3786 22.9986H22.7295C23.431 22.9986 23.9997 22.5232 23.9997 21.9367V18.1014C23.9997 17.515 23.431 17.0396 22.7295 17.0396H18.2498V15.2642Z" fill="#303030"/>
</svg>
