<svg width="24" height="24" viewBox="0 0 24 24" fill="none" xmlns="http://www.w3.org/2000/svg">
<g clip-path="url(#clip0_660_39378)">
<path fill-rule="evenodd" clip-rule="evenodd" d="M4.66882 2.00342H4.26743L4.04478 2.33739L0.35642 7.86995L0.0487061 8.33152L0.399973 8.76088L11.4642 22.2849L12.0447 22.9944L12.6252 22.2849L23.6911 8.76092L24.0424 8.33156L23.7347 7.86995L20.0463 2.33739L19.8237 2.00342H19.4223H12.0456H4.66882ZM1.91221 8.24043L5.07021 3.50342H12.0456H19.0209L22.1789 8.24039L21.4883 9.08439C21.0057 8.8559 20.3095 8.55533 19.4351 8.25559C17.6771 7.65296 15.1869 7.04962 12.2578 7.04962C9.33071 7.04962 6.7397 7.65225 4.88473 8.25136C3.95568 8.55142 3.20684 8.85204 2.68745 9.07909C2.66518 9.08883 2.64333 9.09843 2.6219 9.10789L1.91221 8.24043ZM3.61045 10.3162L5.7284 12.905C6.11056 12.7982 6.63818 12.6608 7.26495 12.5234C8.57683 12.2358 10.3477 11.9432 12.1382 11.9431C13.9299 11.9431 15.6574 12.2361 16.9277 12.5246C17.5131 12.6575 18.0061 12.7906 18.3694 12.8961L20.5066 10.2842C20.0982 10.1025 19.5737 9.88877 18.9487 9.67453C17.3068 9.11172 14.9835 8.54962 12.2578 8.54962C9.53029 8.54962 7.0992 9.11243 5.34575 9.67876C4.6496 9.9036 4.06305 10.1281 3.61045 10.3162ZM17.3302 14.1661C17.1087 14.1085 16.8624 14.048 16.5955 13.9873C15.3875 13.713 13.7786 13.4431 12.1382 13.4431C10.4967 13.4432 8.84189 13.7133 7.58612 13.9886C7.28902 14.0537 7.01564 14.1188 6.77163 14.1802L8.8227 16.6872C9.03882 16.6595 9.30447 16.6269 9.59732 16.5943C10.3503 16.5104 11.3128 16.423 12.075 16.423C12.8378 16.423 13.7841 16.5105 14.5212 16.5945C14.8033 16.6266 15.0591 16.6587 15.2681 16.6862L17.3302 14.1661ZM14.1427 18.0616C13.462 17.9879 12.6853 17.923 12.075 17.923C11.4561 17.923 10.6527 17.9897 9.94966 18.0647L12.0448 20.6256L14.1427 18.0616Z" fill="#303030"/>
</g>
<defs>
<clipPath id="clip0_660_39378">
<rect width="24" height="24" fill="white"/>
</clipPath>
</defs>
</svg>
