<svg width="24" height="24" viewBox="0 0 24 24" fill="none" xmlns="http://www.w3.org/2000/svg">
<g clip-path="url(#clip0_2678_31379)">
<path fill-rule="evenodd" clip-rule="evenodd" d="M1.25 2C1.25 1.58579 1.58579 1.25 2 1.25H22C22.4142 1.25 22.75 1.58579 22.75 2V13H19.9393L17.9999 11.0607L15.5303 13.5303L14.9999 14.0607L14.4696 13.5303L8.99994 8.06066L2.75 14.3106V21.25H13V22.75H2C1.58579 22.75 1.25 22.4142 1.25 22V2ZM2.75 2.75V12.1893L8.46961 6.46967L8.99994 5.93934L9.53027 6.46967L14.9999 11.9393L17.4696 9.46967L17.9999 8.93934L18.5303 9.46967L21.25 12.1894V2.75H2.75ZM15.9999 8C17.1045 8 17.9999 7.10457 17.9999 6C17.9999 4.89543 17.1045 4 15.9999 4C14.8954 4 13.9999 4.89543 13.9999 6C13.9999 7.10457 14.8954 8 15.9999 8Z" fill="#303030"/>
<path fill-rule="evenodd" clip-rule="evenodd" d="M23.7063 17.2249L21.2314 14.75L19.8172 16.1642L22.2921 18.6391L23.7063 17.2249ZM21.585 19.3462L19.1101 16.8713L15.5746 20.4069L15.2373 23.2191L18.0495 22.8817L21.585 19.3462Z" fill="#303030"/>
</g>
<defs>
<clipPath id="clip0_2678_31379">
<rect width="24" height="24" fill="white"/>
</clipPath>
</defs>
</svg>
