<svg width="24" height="25" viewBox="0 0 24 25" fill="none" xmlns="http://www.w3.org/2000/svg">
<g clip-path="url(#clip0_2678_31313)">
<path fill-rule="evenodd" clip-rule="evenodd" d="M11.9999 0.711426L12.5188 1.20873L23.4753 11.7087L24.8049 12.983H18.8151V12.2502V11.5002H19.5651H21.0898L11.9999 2.78902L2.9099 11.5002H4.43463H5.18463V12.2502V21.7502H9.13029H12.5216V23.2502H9.13029H4.43463H3.68463H0.999866V21.7502H3.68463V13.0002H1.04333H-0.823242L0.524401 11.7087L11.4809 1.20873L11.9999 0.711426Z" fill="#303030"/>
<path fill-rule="evenodd" clip-rule="evenodd" d="M13 10.25C13 9.69772 12.5523 9.25 12 9.25C11.4478 9.25 11 9.69771 11 10.25L11 10.3621C11 10.9143 11.4478 11.3621 12 11.3621C12.5523 11.3621 13 10.9143 13 10.3621L13 10.25ZM12 12.8243H9.91309V14.3243H11.25L11.25 18.2501H12.75V13.5743V12.8243H12Z" fill="#303030"/>
<path fill-rule="evenodd" clip-rule="evenodd" d="M23.7063 17.4749L21.2314 15L19.8172 16.4142L22.2921 18.8891L23.7063 17.4749ZM21.585 19.5962L19.1101 17.1213L15.5746 20.6569L15.2373 23.4691L18.0495 23.1317L21.585 19.5962Z" fill="#303030"/>
</g>
<defs>
<clipPath id="clip0_2678_31313">
<rect width="24" height="24" fill="white" transform="translate(0 0.25)"/>
</clipPath>
</defs>
</svg>
