<svg width="24" height="24" viewBox="0 0 24 24" fill="none" xmlns="http://www.w3.org/2000/svg">
<path fill-rule="evenodd" clip-rule="evenodd" d="M12.5169 1.51695L12 1L11.4831 1.51695L1.24802 11.752L0 13H1.76497H4.20188V21.5292H1.76497V22.9913H4.20188H4.93295H9.3194H10.0505H13.9495H14.6806H19.067H19.7981H22.235V21.5292H19.7981V13H22.235H24L22.752 11.752L12.5169 1.51695ZM18.336 21.5292V12.2689V11.5379H19.067H20.4701L12 3.06779L3.52994 11.5379H4.93295H5.66403V12.2689V21.5292H8.58832V16.4117V15.6806H9.3194H12H14.6806H15.4117V16.4117V21.5292H18.336ZM13.9495 21.5292V17.1428H12H10.0505V21.5292H13.9495Z" fill="#303030"/>
</svg>
