<svg width="24" height="24" viewBox="0 0 24 24" fill="none" xmlns="http://www.w3.org/2000/svg">
<path fill-rule="evenodd" clip-rule="evenodd" d="M12 1.75C6.33908 1.75 1.75 6.33908 1.75 12C1.75 17.6609 6.33908 22.25 12 22.25C17.6609 22.25 22.25 17.6609 22.25 12C22.25 6.33908 17.6609 1.75 12 1.75ZM0.25 12C0.25 5.51065 5.51065 0.25 12 0.25C18.4893 0.25 23.75 5.51065 23.75 12C23.75 18.4893 18.4893 23.75 12 23.75C5.51065 23.75 0.25 18.4893 0.25 12ZM10.4658 7.97682C10.0866 8.26265 9.86523 8.64719 9.86523 9.13043H8.36523C8.36523 8.11212 8.86208 7.30717 9.56308 6.7789C10.2497 6.26149 11.1347 6.00146 11.9999 6.00146C12.8259 6.00146 13.7327 6.19323 14.4491 6.75669C15.1957 7.34389 15.6346 8.25547 15.6346 9.47029C15.6346 10.1987 15.3452 10.7646 14.9852 11.228C14.7344 11.5509 14.4092 11.8687 14.1155 12.1557L14.1154 12.1558C14.0203 12.2487 13.9286 12.3384 13.8437 12.424C13.1167 13.1571 12.4877 13.951 12.4877 15.4056H10.9877C10.9877 13.3756 11.9322 12.2214 12.7786 11.3678C12.9064 11.2389 13.0245 11.1235 13.1339 11.0164L13.1341 11.0162L13.1341 11.0162L13.1341 11.0162C13.4014 10.7549 13.6177 10.5433 13.8006 10.3078C14.0307 10.0116 14.1346 9.76143 14.1346 9.47029C14.1346 8.64599 13.8554 8.19815 13.5218 7.93572C13.1579 7.64955 12.6223 7.50146 11.9999 7.50146C11.4169 7.50146 10.8595 7.68014 10.4658 7.97682ZM12.7658 17.4812C12.7658 16.9289 12.3181 16.4812 11.7658 16.4812C11.2135 16.4812 10.7658 16.929 10.7658 17.4812L10.7658 17.5305C10.7658 18.0828 11.2136 18.5305 11.7659 18.5305C12.3181 18.5305 12.7658 18.0827 12.7658 17.5305L12.7658 17.4812Z" fill="#303030"/>
</svg>
