<svg width="24" height="24" viewBox="0 0 24 24" fill="none" xmlns="http://www.w3.org/2000/svg">
<path fill-rule="evenodd" clip-rule="evenodd" d="M4.68567 21.454H1.43555L1.43555 22.954H6.68555H7.43555V22.204L7.43555 16.954H5.93555L5.93555 20.5642C5.59835 20.2616 5.26311 19.9355 5.03452 19.7033L5.02449 19.6931L5.01409 19.6833C3.00578 17.7927 1.75 15.0985 1.75 12.1055C1.75 6.37954 6.34581 1.75 12 1.75C17.6542 1.75 22.25 6.37953 22.25 12.1055C22.25 16.1324 19.9757 19.6203 16.656 21.3335L17.344 22.6665C21.1477 20.7034 23.75 16.7099 23.75 12.1055C23.75 5.56463 18.4961 0.25 12 0.25C5.50392 0.25 0.25 5.56463 0.25 12.1055C0.25 15.5215 1.68296 18.6022 3.97546 20.7656C4.16253 20.9554 4.4146 21.2024 4.68567 21.454ZM11.25 14.0019V6.00195H12.75V14.0019H11.25ZM13 17.0664C13 16.5141 12.5523 16.0664 12 16.0664C11.4477 16.0664 11 16.5141 11 17.0664V17.1017C11 17.654 11.4477 18.1017 12 18.1017C12.5523 18.1017 13 17.654 13 17.1017V17.0664Z" fill="#303030"/>
</svg>
