<svg width="24" height="24" viewBox="0 0 24 24" fill="none" xmlns="http://www.w3.org/2000/svg">
<path fill-rule="evenodd" clip-rule="evenodd" d="M1.43555 21.454H4.68567C4.4146 21.2024 4.16253 20.9554 3.97546 20.7656C1.68296 18.6022 0.25 15.5215 0.25 12.1055C0.25 5.56463 5.50392 0.25 12 0.25C18.4961 0.25 23.75 5.56463 23.75 12.1055C23.75 16.7099 21.1477 20.7034 17.344 22.6665L16.656 21.3335C19.9757 19.6203 22.25 16.1324 22.25 12.1055C22.25 6.37953 17.6542 1.75 12 1.75C6.34581 1.75 1.75 6.37954 1.75 12.1055C1.75 15.0985 3.00578 17.7927 5.01409 19.6833L5.02449 19.6931L5.03452 19.7033C5.26311 19.9355 5.59835 20.2616 5.93555 20.5642L5.93555 16.954H7.43555L7.43555 22.204V22.954H6.68555H1.43555L1.43555 21.454ZM7.45862 10.9693L10.509 14.0204L16.5602 7.96918L17.6209 9.02984L11.0392 15.6115L10.5088 16.1419L9.97851 15.6114L6.39782 12.0298L7.45862 10.9693Z" fill="#303030"/>
</svg>
