<svg width="24" height="24" viewBox="0 0 24 24" fill="none" xmlns="http://www.w3.org/2000/svg">
<path fill-rule="evenodd" clip-rule="evenodd" d="M2.5 0.75C1.5335 0.75 0.75 1.5335 0.75 2.5V5.5C0.75 6.38162 1.40193 7.11097 2.25 7.23228V12.3333V22C2.25 22.9665 3.0335 23.75 4 23.75H20C20.9665 23.75 21.75 22.9665 21.75 22V12.3333V7.23228C22.5981 7.11097 23.25 6.38162 23.25 5.5V2.5C23.25 1.5335 22.4665 0.75 21.5 0.75H2.5ZM20.25 7.25H3.75V8.91494H20.25V7.25ZM2.25 2.5C2.25 2.36193 2.36193 2.25 2.5 2.25H21.5C21.6381 2.25 21.75 2.36193 21.75 2.5V5.5C21.75 5.63807 21.6381 5.75 21.5 5.75H2.5C2.36193 5.75 2.25 5.63807 2.25 5.5V2.5ZM3.75 12.3148V10.4149H20.25V12.3148H3.75ZM3.75 13.8148V15.7147H20.25V13.8148H3.75ZM3.75 17.2147H20.25V19.1147H3.75V17.2147ZM3.75 20.6147V22C3.75 22.1381 3.86193 22.25 4 22.25H20C20.1381 22.25 20.25 22.1381 20.25 22V20.6147H3.75Z" fill="#303030"/>
</svg>
