<svg width="24" height="25" viewBox="0 0 24 25" fill="none" xmlns="http://www.w3.org/2000/svg">
<g clip-path="url(#clip0_2011_29699)">
<path fill-rule="evenodd" clip-rule="evenodd" d="M1.75146 12.25C1.75146 6.58908 6.34055 2 12.0015 2C17.6624 2 22.2515 6.58908 22.2515 12.25C22.2515 17.9109 17.6624 22.5 12.0015 22.5C6.34055 22.5 1.75146 17.9109 1.75146 12.25ZM12.0015 0.5C5.51212 0.5 0.251465 5.76065 0.251465 12.25C0.251465 18.7393 5.51212 24 12.0015 24C18.4908 24 23.7515 18.7393 23.7515 12.25C23.7515 5.76065 18.4908 0.5 12.0015 0.5ZM8.99993 17.4462L17.9999 12.25L8.99993 7.05385L8.99993 17.4462Z" fill="#303030"/>
</g>
<defs>
<clipPath id="clip0_2011_29699">
<rect width="24" height="24" fill="white" transform="translate(0 0.25)"/>
</clipPath>
</defs>
</svg>
