<svg width="24" height="24" viewBox="0 0 24 24" fill="none" xmlns="http://www.w3.org/2000/svg">
<path fill-rule="evenodd" clip-rule="evenodd" d="M16.3594 2.12363C16.3595 2.12382 16.3597 2.12405 16.9258 1.63202C17.4918 1.13998 17.4921 1.14029 17.4924 1.14064L17.4932 1.14155L17.4954 1.14409L17.5022 1.15204L17.5253 1.17931C17.5449 1.20251 17.5725 1.2357 17.6073 1.27857C17.677 1.36428 17.7758 1.48877 17.8968 1.64948C18.1389 1.97075 18.4708 2.43772 18.8385 3.02995C19.5724 4.2122 20.4566 5.90598 21.0475 7.94585C22.2374 12.0536 22.2259 17.5507 17.492 23.0012L16.3595 22.0176C20.6958 17.0249 20.6843 12.0833 19.6067 8.36321C19.0638 6.48913 18.2473 4.92165 17.5641 3.82113C17.2232 3.27198 16.9173 2.84219 16.6988 2.55203C16.5895 2.40704 16.5023 2.29715 16.4435 2.22492C16.4142 2.18882 16.392 2.16214 16.3777 2.14522L16.3624 2.1272L16.3595 2.12375L16.3594 2.12363ZM4.25 4.99994C4.25 3.48115 5.48122 2.24994 7 2.24994C8.51878 2.24994 9.75 3.48115 9.75 4.99994V18.9999C9.75 20.5187 8.51878 21.7499 7 21.7499C5.48122 21.7499 4.25 20.5187 4.25 18.9999V4.99994ZM7 3.74994C6.30964 3.74994 5.75 4.30958 5.75 4.99994V18.9999C5.75 19.6903 6.30964 20.2499 7 20.2499C7.69036 20.2499 8.25 19.6903 8.25 18.9999V4.99994C8.25 4.30958 7.69036 3.74994 7 3.74994ZM13 5.07147C12.4602 5.59219 12.46 5.59195 12.4598 5.59174L12.461 5.59299L12.4711 5.60371C12.4808 5.61412 12.4964 5.63104 12.5174 5.65423C12.5592 5.70063 12.6222 5.77207 12.7015 5.86685C12.8601 6.05659 13.0829 6.33873 13.3316 6.69969C13.8309 7.42434 14.424 8.45171 14.8172 9.67488C15.2096 10.8953 15.3987 12.2966 15.1112 13.7876C14.8248 15.2728 14.0564 16.8948 12.46 18.551L13.54 19.592C15.3186 17.7467 16.2377 15.8678 16.5841 14.0716C16.9294 12.281 16.6967 10.62 16.2453 9.21581C15.7947 7.81436 15.1222 6.65479 14.5668 5.84865C14.2882 5.44422 14.0364 5.12502 13.8523 4.90475C13.7601 4.79452 13.6847 4.7088 13.631 4.64929C13.6041 4.61952 13.5827 4.59629 13.5673 4.5798L13.5488 4.56015L13.543 4.55416L13.5411 4.55213L13.5404 4.55136C13.5401 4.55104 13.5398 4.55075 13 5.07147Z" fill="#303030"/>
</svg>
