<svg width="24" height="24" viewBox="0 0 24 24" fill="none" xmlns="http://www.w3.org/2000/svg">
<g clip-path="url(#clip0_2627_32728)">
<path fill-rule="evenodd" clip-rule="evenodd" d="M11.9633 0.0509587C11.9817 0.0259791 12.019 0.0259833 12.0373 0.0509667L12.1233 0.168323L12.437 0.59615C12.5908 0.805889 12.7502 1.01046 12.9149 1.20971L12.9461 1.24726C15.2066 3.96118 18.4602 5.67876 22 6.00055V7.80929C22 14.1319 18.6827 19.991 13.2611 23.244L12.0003 24.0005L10.7393 23.244C5.31747 19.991 2 14.1318 2 7.80895V6.00055C5.53994 5.67869 8.79366 3.96112 11.0544 1.24718L11.0856 1.2096C11.2498 1.01091 11.4088 0.806929 11.5622 0.59781L11.8773 0.168297L11.9633 0.0509587ZM20.5 7.30635C17.2015 6.69481 14.2037 4.98306 12.0002 2.45003C9.79644 4.98305 6.79855 6.69476 3.5 7.30634V7.80895C3.5 13.6049 6.54102 18.9758 11.511 21.9577L12.0003 22.2513L12.4894 21.9578C17.4592 18.9758 20.5 13.605 20.5 7.80929V7.30635ZM9.23034 11.4913L11.2606 13.5215L15.8513 8.93072L16.912 9.99138L11.7909 15.1125L11.2606 15.6428L10.7302 15.1125L8.16968 12.5519L9.23034 11.4913Z" fill="#303030"/>
</g>
<defs>
<clipPath id="clip0_2627_32728">
<rect width="24" height="24" fill="white"/>
</clipPath>
</defs>
</svg>
