<svg width="24" height="24" viewBox="0 0 24 24" fill="none" xmlns="http://www.w3.org/2000/svg">
<g clip-path="url(#clip0_2627_32618)">
<path fill-rule="evenodd" clip-rule="evenodd" d="M12.0373 0.0509667C12.019 0.0259833 11.9817 0.0259791 11.9633 0.0509587L11.8773 0.168297L11.5622 0.59781C11.4088 0.806929 11.2498 1.01091 11.0856 1.2096L11.0544 1.24718C8.79366 3.96112 5.53994 5.67869 2 6.00055V7.80895C2 14.1318 5.31747 19.991 10.7393 23.244L12.0003 24.0005L13.2611 23.244C18.6827 19.991 22 14.1319 22 7.80929V6.00055C18.4602 5.67876 15.2066 3.96118 12.9461 1.24726L12.9149 1.20971C12.7502 1.01046 12.5908 0.805889 12.437 0.59615L12.1233 0.168323L12.0373 0.0509667ZM12.0002 2.45003C14.2037 4.98306 17.2015 6.69481 20.5 7.30635V7.80929C20.5 13.605 17.4592 18.9758 12.4894 21.9578L12.0003 22.2513L11.511 21.9577C6.54102 18.9758 3.5 13.6049 3.5 7.80895V7.30634C6.79855 6.69476 9.79644 4.98305 12.0002 2.45003ZM9.25 16.0001V9.00011H10.75V16.0001H9.25ZM13.25 9.00011V16.0001H14.75V9.00011H13.25Z" fill="#303030"/>
</g>
<defs>
<clipPath id="clip0_2627_32618">
<rect width="24" height="24" fill="white"/>
</clipPath>
</defs>
</svg>
