<svg width="24" height="24" viewBox="0 0 24 24" fill="none" xmlns="http://www.w3.org/2000/svg">
<path fill-rule="evenodd" clip-rule="evenodd" d="M9.62802 2.18579H2.47876V0.685791H10.378H11.128V1.43579V9.97989H9.62802V2.18579ZM6.96253 12.8249H14.1201V14.3249H6.21253H5.46253V13.5749V5.19197H6.96253V12.8249ZM19.5932 2.35986H23.4576V6.22431L22.0444 4.81112L20.6486 6.13624C20.7044 6.44356 20.7494 6.75472 20.7832 7.06928C20.833 7.53219 20.8586 8.00237 20.8586 8.47842C20.8586 15.4604 15.3594 21.159 8.52893 21.159C7.65715 21.159 6.80573 21.0658 5.98387 20.8884C5.93994 20.8789 5.89609 20.8691 5.85234 20.8592L4.59089 22.2832L4.58643 22.2883L4.58641 22.2882L4.11986 22.8055L3.00601 21.8008L3.47029 21.2861L5.03068 19.5246L5.33866 19.1769L5.78714 19.2977C5.95665 19.3433 6.12777 19.3849 6.30041 19.4221C7.01901 19.5773 7.76433 19.659 8.52893 19.659C14.489 19.659 19.3586 14.6745 19.3586 8.47842C19.3586 8.05605 19.3359 7.63942 19.2918 7.2297C19.2482 6.82443 19.1837 6.42584 19.0993 6.03509L19.0104 5.62309L19.3161 5.3329L20.9834 3.7501L19.5932 2.35986Z" fill="#303030"/>
</svg>
