<svg width="24" height="24" viewBox="0 0 24 24" fill="none" xmlns="http://www.w3.org/2000/svg">
<path fill-rule="evenodd" clip-rule="evenodd" d="M8.48873 0.513916H7.74V1.21998C7.73916 1.23452 7.73873 1.24917 7.73873 1.26392V3.33461V4.08461H9.23873V3.33461V2.05659C12.4745 2.42785 14.9874 5.17614 14.9874 8.51136C14.9874 12.0998 12.0784 15.0088 8.49 15.0088C4.90156 15.0088 1.99255 12.0998 1.99255 8.51136C1.99255 6.33985 3.05707 4.41701 4.69603 3.23598L5.30451 2.79751L4.42758 1.58056L3.8191 2.01902C1.80573 3.46985 0.492554 5.83726 0.492554 8.51136C0.492554 12.9282 4.07313 16.5088 8.49 16.5088C12.9069 16.5088 16.4874 12.9282 16.4874 8.51136C16.4874 4.09449 12.9069 0.513916 8.49 0.513916H8.48873ZM6.60433 5.58448L7.09022 6.1558L9.38353 8.85234L9.86942 9.42366L8.72677 10.3954L8.24088 9.82412L5.94757 7.12758L5.46168 6.55626L6.60433 5.58448ZM19.5797 2.28809H23.4577V6.16605L22.038 4.74634L20.6365 6.07678C20.6926 6.38556 20.7379 6.69822 20.7719 7.01429C20.8219 7.47872 20.8475 7.95046 20.8475 8.42808C20.8475 15.4331 15.3301 21.1504 8.47733 21.1504C7.60269 21.1504 6.74848 21.0569 5.92392 20.8789C5.87934 20.8692 5.83485 20.8594 5.79044 20.8493L4.52356 22.2794L4.51909 22.2845L4.51907 22.2844L4.05089 22.8035L2.93704 21.7988L3.40305 21.2822L3.40522 21.2798L4.96881 19.5146L5.27679 19.1669L5.72527 19.2877C5.89541 19.3336 6.06718 19.3752 6.24047 19.4126C6.96176 19.5684 7.70988 19.6504 8.47733 19.6504C14.4598 19.6504 19.3475 14.6472 19.3475 8.42808C19.3475 8.00414 19.3247 7.58595 19.2805 7.17471C19.2368 6.76793 19.172 6.36785 19.0873 5.97564L18.9984 5.56365L19.304 5.27346L20.977 3.68532L19.5797 2.28809Z" fill="#303030"/>
</svg>
