<svg width="24" height="24" viewBox="0 0 24 24" fill="none" xmlns="http://www.w3.org/2000/svg">
<path fill-rule="evenodd" clip-rule="evenodd" d="M12.7494 0.25V0.27354C18.8896 0.660019 23.75 5.76242 23.75 12C23.75 18.4894 18.4893 23.75 12 23.75C5.51065 23.75 0.25 18.4894 0.25 12C0.25 8.07146 2.17874 4.59334 5.13765 2.46117L5.74613 2.0227L6.62306 3.23966L6.01458 3.67812C3.43008 5.54051 1.75 8.57405 1.75 12C1.75 17.6609 6.33908 22.25 12 22.25C17.6609 22.25 22.25 17.6609 22.25 12C22.25 6.59114 18.0605 2.16078 12.7494 1.77701V4V4.75H11.2494V4V1V0.25H12.7494ZM9.58081 8.67636L9.09492 8.10503L7.95228 9.07681L8.43817 9.64814L11.9189 13.7409L12.4048 14.3122L13.5474 13.3404L13.0615 12.7691L9.58081 8.67636Z" fill="#303030"/>
</svg>
