<svg width="24" height="24" viewBox="0 0 24 24" fill="none" xmlns="http://www.w3.org/2000/svg">
<path fill-rule="evenodd" clip-rule="evenodd" d="M12 1.75C10.2051 1.75 8.75 3.20507 8.75 5V8.25H15.25V5C15.25 3.20507 13.7949 1.75 12 1.75ZM7.25 5V8.25H5C4.0335 8.25 3.25 9.0335 3.25 10V21.25C3.25 22.2165 4.0335 23 5 23H19C19.9665 23 20.75 22.2165 20.75 21.25V10C20.75 9.0335 19.9665 8.25 19 8.25H16.75V5C16.75 2.37665 14.6234 0.25 12 0.25C9.37665 0.25 7.25 2.37665 7.25 5ZM5 9.75C4.86193 9.75 4.75 9.86193 4.75 10V21.25C4.75 21.3881 4.86193 21.5 5 21.5H19C19.1381 21.5 19.25 21.3881 19.25 21.25V10C19.25 9.86193 19.1381 9.75 19 9.75H5ZM9 15.4986L11.1215 16.102L9.63774 17.9254L10.7636 18.683L11.961 16.7791L13.1518 18.75L14.2777 17.9589L12.8525 16.1824L15 15.5791L14.577 14.2986L12.5597 15.1567L12.7289 12.75H11.3362L11.4989 15.1098L9.42299 14.2316L9 15.4986Z" fill="#ADADAD"/>
</svg>
