<svg width="24" height="24" viewBox="0 0 24 24" fill="none" xmlns="http://www.w3.org/2000/svg">
<path fill-rule="evenodd" clip-rule="evenodd" d="M8.75 5.75C8.75 3.95507 10.2051 2.5 12 2.5C13.7949 2.5 15.25 3.95507 15.25 5.75C15.25 7.54493 13.7949 9 12 9C10.2051 9 8.75 7.54493 8.75 5.75ZM12 1C9.37665 1 7.25 3.12665 7.25 5.75C7.25 8.37335 9.37665 10.5 12 10.5C14.6234 10.5 16.75 8.37335 16.75 5.75C16.75 3.12665 14.6234 1 12 1ZM14.6749 14.1933L15.3265 12.8322C14.2885 12.4555 13.1682 12.25 12 12.25C6.61522 12.25 2.25 16.6152 2.25 22H3.75C3.75 17.4437 7.44365 13.75 12 13.75C12.9363 13.75 13.8361 13.906 14.6749 14.1933ZM15.1087 18.1015C15.1087 17.515 15.6774 17.0396 16.3789 17.0396H16.75V15.2643C16.75 13.7455 17.9812 12.5143 19.5 12.5143C21.0188 12.5143 22.25 13.7455 22.25 15.2643V17.0396H22.7298C23.4313 17.0396 24 17.5151 24 18.1015V21.9368C24 22.5232 23.4313 22.9987 22.7298 22.9987H16.3789C15.6774 22.9987 15.1087 22.5232 15.1087 21.9368V18.1015ZM20.75 17.0396V15.2643C20.75 14.574 20.1904 14.0143 19.5 14.0143C18.8096 14.0143 18.25 14.574 18.25 15.2643V17.0396H20.75Z" fill="#303030"/>
</svg>
