<svg width="24" height="24" viewBox="0 0 24 24" fill="none" xmlns="http://www.w3.org/2000/svg">
<g clip-path="url(#clip0_660_39498)">
<path fill-rule="evenodd" clip-rule="evenodd" d="M12.0566 4.57209C8.19243 4.50701 4.43584 5.84565 1.48364 8.33968L0.515625 7.19383C3.74517 4.4655 7.85467 3.00111 12.0818 3.0723C16.3089 3.14349 20.3668 4.74543 23.5027 7.58096L22.4966 8.69356C19.6301 6.10153 15.9207 4.63717 12.0566 4.57209ZM3.91723 11.5242C6.08976 9.68888 8.85422 8.70378 11.6978 8.75167C14.5414 8.79956 17.2712 9.87718 19.3807 11.7847L20.3867 10.6721C18.0079 8.52108 14.9297 7.30588 11.7231 7.25188C8.51647 7.19788 5.39909 8.30873 2.94922 10.3784L3.91723 11.5242ZM11.8655 15.8937C10.7417 15.8748 9.64922 16.2641 8.79065 16.9894L11.7873 20.5366L12.0493 20.2469V15.9005C11.9882 15.897 11.9269 15.8948 11.8655 15.8937ZM17.8952 13.7806L17.6969 14H15.6799C14.547 13.3252 13.2501 12.9518 11.9144 12.9293C10.073 12.8983 8.28298 13.5362 6.87621 14.7246L5.9082 13.5788C7.59231 12.156 9.73529 11.3924 11.9396 11.4295C14.1439 11.4666 16.26 12.302 17.8952 13.7806ZM22.001 24.0607L19.0308 21.0905L16.0607 24.0607L15 23L17.9702 20.0298L15.001 17.0607L16.0616 16L19.0308 18.9692L22 16L23.0607 17.0607L20.0915 20.0298L23.0616 23L22.001 24.0607Z" fill="#303030"/>
</g>
<defs>
<clipPath id="clip0_660_39498">
<rect width="24" height="24" fill="white"/>
</clipPath>
</defs>
</svg>
