<svg width="24" height="24" viewBox="0 0 24 24" fill="none" xmlns="http://www.w3.org/2000/svg">
<path fill-rule="evenodd" clip-rule="evenodd" d="M5.014 2.01733H4.63143L4.40684 2.32704L0.391912 7.86352C0.381129 7.87734 0.37082 7.89156 0.361009 7.90613L0.0372314 8.35261L0.387505 8.77955C0.397965 8.79323 0.408886 8.80654 0.420244 8.81945L11.4516 22.2652L12.0333 22.9741L12.5669 22.3196C12.6028 22.2837 12.635 22.2442 12.663 22.2017L18.976 14.4583C19.0505 14.3964 19.1128 14.3203 19.1587 14.2342L23.5905 8.79828L23.9551 8.35112L23.6164 7.88406L19.5866 2.32704L19.362 2.01733H18.9794H12.0364H5.014ZM18.1225 13.1314L21.4301 9.07439H12.7864V13.1314H18.1225ZM11.2864 13.1314V9.07439H2.56964L5.8982 13.1314H11.2864ZM7.12885 14.6314H11.2864V19.6989L7.12885 14.6314ZM12.7864 14.6314H16.8996L12.7864 19.6766V14.6314ZM2.45448 7.57439H11.2864V3.51733H5.39656L2.45448 7.57439ZM12.7864 7.57439H21.5389L18.5969 3.51733H12.7864V7.57439Z" fill="#303030"/>
</svg>
