<svg width="376" height="166" viewBox="0 0 376 166" fill="none" xmlns="http://www.w3.org/2000/svg">
<rect width="375" height="166" transform="translate(0.5)" fill="#333333"/>
<path d="M159.5 54H131.5C130.395 54 129.5 54.8954 129.5 56V138C129.5 139.104 130.395 140 131.5 140H168.5M215.5 54H244.5C245.605 54 246.5 54.8954 246.5 56V138C246.5 139.104 245.605 140 244.5 140H205.5" stroke="#DBDBDB" stroke-width="1.5"/>
<path fill-rule="evenodd" clip-rule="evenodd" d="M188.615 16H207.5L215.5 22V78L207.5 85H189.078H167.5L159.5 78V22L167.5 16H188.615Z" stroke="#DBDBDB" stroke-width="1.5"/>
<path d="M159.5 22.0002L176.5 75.0002L167.5 85.0002" stroke="#DBDBDB" stroke-width="1.5"/>
<path d="M215.5 22.0002L198.5 75.0002L207.5 85.0002" stroke="#DBDBDB" stroke-width="1.5"/>
<path fill-rule="evenodd" clip-rule="evenodd" d="M179.5 72V69H195.5V72H179.5Z" fill="#DBDBDB"/>
<path d="M176.5 75H198.5" stroke="#DBDBDB" stroke-width="1.5"/>
<path d="M183.5 16L185.628 20H189.367L191.5 16" stroke="#DBDBDB" stroke-width="1.5"/>
<path d="M183.5 85L185.628 81H189.367L191.5 85" stroke="#DBDBDB" stroke-width="1.5"/>
<path d="M226.617 48.0801V49H220.84V48.0801H226.617ZM226.43 41.2891L221.109 49H220.412V48.1562L225.727 40.4688H226.43V41.2891ZM225.949 40.4688V41.3945H220.488V40.4688H225.949Z" fill="#DBDBDB"/>
<path d="M134.863 45.2871H135.988C135.93 45.8262 135.775 46.3086 135.525 46.7344C135.275 47.1602 134.922 47.498 134.465 47.748C134.008 47.9941 133.438 48.1172 132.754 48.1172C132.254 48.1172 131.799 48.0234 131.389 47.8359C130.982 47.6484 130.633 47.3828 130.34 47.0391C130.047 46.6914 129.82 46.2754 129.66 45.791C129.504 45.3027 129.426 44.7598 129.426 44.1621V43.3125C129.426 42.7148 129.504 42.1738 129.66 41.6895C129.82 41.2012 130.049 40.7832 130.346 40.4355C130.646 40.0879 131.008 39.8203 131.43 39.6328C131.852 39.4453 132.326 39.3516 132.854 39.3516C133.498 39.3516 134.043 39.4727 134.488 39.7148C134.934 39.957 135.279 40.293 135.525 40.7227C135.775 41.1484 135.93 41.6426 135.988 42.2051H134.863C134.809 41.8066 134.707 41.4648 134.559 41.1797C134.41 40.8906 134.199 40.668 133.926 40.5117C133.652 40.3555 133.295 40.2773 132.854 40.2773C132.475 40.2773 132.141 40.3496 131.852 40.4941C131.566 40.6387 131.326 40.8438 131.131 41.1094C130.939 41.375 130.795 41.6934 130.697 42.0645C130.6 42.4355 130.551 42.8477 130.551 43.3008V44.1621C130.551 44.5801 130.594 44.9727 130.68 45.3398C130.77 45.707 130.904 46.0293 131.084 46.3066C131.264 46.584 131.492 46.8027 131.77 46.9629C132.047 47.1191 132.375 47.1973 132.754 47.1973C133.234 47.1973 133.617 47.1211 133.902 46.9688C134.188 46.8164 134.402 46.5977 134.547 46.3125C134.695 46.0273 134.801 45.6855 134.863 45.2871ZM144.098 43.4648V44.0039C144.098 44.6445 144.018 45.2188 143.857 45.7266C143.697 46.2344 143.467 46.666 143.166 47.0215C142.865 47.377 142.504 47.6484 142.082 47.8359C141.664 48.0234 141.195 48.1172 140.676 48.1172C140.172 48.1172 139.709 48.0234 139.287 47.8359C138.869 47.6484 138.506 47.377 138.197 47.0215C137.893 46.666 137.656 46.2344 137.488 45.7266C137.32 45.2188 137.236 44.6445 137.236 44.0039V43.4648C137.236 42.8242 137.318 42.252 137.482 41.748C137.65 41.2402 137.887 40.8086 138.191 40.4531C138.496 40.0938 138.857 39.8203 139.275 39.6328C139.697 39.4453 140.16 39.3516 140.664 39.3516C141.184 39.3516 141.652 39.4453 142.07 39.6328C142.492 39.8203 142.854 40.0938 143.154 40.4531C143.459 40.8086 143.691 41.2402 143.852 41.748C144.016 42.252 144.098 42.8242 144.098 43.4648ZM142.979 44.0039V43.4531C142.979 42.9453 142.926 42.4961 142.82 42.1055C142.719 41.7148 142.568 41.3867 142.369 41.1211C142.17 40.8555 141.926 40.6543 141.637 40.5176C141.352 40.3809 141.027 40.3125 140.664 40.3125C140.312 40.3125 139.994 40.3809 139.709 40.5176C139.428 40.6543 139.186 40.8555 138.982 41.1211C138.783 41.3867 138.629 41.7148 138.52 42.1055C138.41 42.4961 138.355 42.9453 138.355 43.4531V44.0039C138.355 44.5156 138.41 44.9688 138.52 45.3633C138.629 45.7539 138.785 46.084 138.988 46.3535C139.195 46.6191 139.439 46.8203 139.721 46.957C140.006 47.0938 140.324 47.1621 140.676 47.1621C141.043 47.1621 141.369 47.0938 141.654 46.957C141.939 46.8203 142.18 46.6191 142.375 46.3535C142.574 46.084 142.725 45.7539 142.826 45.3633C142.928 44.9688 142.979 44.5156 142.979 44.0039ZM146.148 39.4688H147.244L150.039 46.4238L152.828 39.4688H153.93L150.461 48H149.605L146.148 39.4688ZM145.791 39.4688H146.758L146.916 44.6719V48H145.791V39.4688ZM153.314 39.4688H154.281V48H153.156V44.6719L153.314 39.4688Z" fill="#DBDBDB"/>
<path d="M212.5 140V119C212.5 117.895 211.605 117 210.5 117H195.5M161.5 140V119C161.5 117.895 162.395 117 163.5 117H177.5" stroke="#DBDBDB" stroke-width="1.5"/>
<path d="M194.5 110L179.5 117L178.5 117" stroke="#DBDBDB" stroke-width="1.5"/>
<circle cx="195.5" cy="117" r="2" fill="#DBDBDB"/>
<circle cx="178.5" cy="117" r="2" fill="#DBDBDB"/>
<path d="M181.425 136.18H184.014C184.601 136.18 185.097 136.269 185.501 136.448C185.91 136.627 186.219 136.892 186.431 137.243C186.646 137.59 186.753 138.018 186.753 138.527C186.753 138.885 186.68 139.213 186.533 139.51C186.389 139.803 186.182 140.054 185.91 140.262C185.641 140.466 185.319 140.618 184.943 140.718L184.653 140.831H182.22L182.209 139.988H184.046C184.418 139.988 184.728 139.923 184.975 139.794C185.222 139.662 185.408 139.485 185.534 139.263C185.659 139.041 185.722 138.795 185.722 138.527C185.722 138.226 185.663 137.963 185.544 137.737C185.426 137.512 185.24 137.338 184.986 137.216C184.735 137.091 184.411 137.028 184.014 137.028H182.461V144H181.425V136.18ZM185.996 144L184.094 140.455L185.174 140.45L187.102 143.936V144H185.996ZM191.211 136.137V144H190.217V137.377L188.214 138.108V137.211L191.055 136.137H191.211Z" fill="#DBDBDB"/>
<path d="M170.5 130.75H203.5V129.25H170.5V130.75ZM204.75 132V148H206.25V132H204.75ZM203.5 149.25H170.5V150.75H203.5V149.25ZM169.25 148V132H167.75V148H169.25ZM170.5 149.25C169.81 149.25 169.25 148.69 169.25 148H167.75C167.75 149.519 168.981 150.75 170.5 150.75V149.25ZM204.75 148C204.75 148.69 204.19 149.25 203.5 149.25V150.75C205.019 150.75 206.25 149.519 206.25 148H204.75ZM203.5 130.75C204.19 130.75 204.75 131.31 204.75 132H206.25C206.25 130.481 205.019 129.25 203.5 129.25V130.75ZM170.5 129.25C168.981 129.25 167.75 130.481 167.75 132H169.25C169.25 131.31 169.81 130.75 170.5 130.75V129.25Z" fill="#DBDBDB"/>
</svg>
