<svg width="16" height="16" viewBox="0 0 16 16" fill="none" xmlns="http://www.w3.org/2000/svg">
<path fill-rule="evenodd" clip-rule="evenodd" d="M1.31666 7.99993C1.31666 4.30883 4.30889 1.3166 8 1.3166C11.6911 1.3166 14.6833 4.30883 14.6833 7.99993C14.6833 11.691 11.6911 14.6833 8 14.6833C4.30889 14.6833 1.31666 11.691 1.31666 7.99993ZM8 0.0166016C3.59092 0.0166016 0.0166626 3.59086 0.0166626 7.99993C0.0166626 12.409 3.59092 15.9833 8 15.9833C12.4091 15.9833 15.9833 12.409 15.9833 7.99993C15.9833 3.59086 12.4091 0.0166016 8 0.0166016ZM5.61403 7.54361H5.09941V8.34931H5.61069C6.14536 8.34931 6.41269 8.60837 6.41269 9.1265C6.41269 9.3404 6.34697 9.51271 6.21553 9.64343C6.08632 9.77177 5.90699 9.83594 5.67752 9.83594C5.47702 9.83594 5.30771 9.77415 5.16959 9.65056C5.03369 9.52697 4.96574 9.36773 4.96574 9.17284H4C4 9.62204 4.15371 9.9833 4.46115 10.2566C4.77081 10.5299 5.16847 10.6666 5.65413 10.6666C6.17321 10.6666 6.5898 10.5276 6.90392 10.2495C7.22027 9.97141 7.37844 9.60184 7.37844 9.14076C7.37844 8.85555 7.31049 8.60837 7.1746 8.39922C7.04093 8.19007 6.83709 8.03321 6.56307 7.92863C6.78362 7.82168 6.96184 7.66838 7.09774 7.46874C7.23364 7.2691 7.30158 7.05044 7.30158 6.81277C7.30158 6.35169 7.15566 5.99043 6.86382 5.72899C6.57198 5.46518 6.16875 5.33327 5.65413 5.33327C5.35783 5.33327 5.08604 5.39387 4.83876 5.51509C4.5937 5.6363 4.40211 5.80504 4.26399 6.02133C4.12809 6.23523 4.06015 6.47765 4.06015 6.7486H5.02589C5.02589 6.5751 5.08827 6.43487 5.21303 6.32792C5.33778 6.21859 5.49262 6.16393 5.67752 6.16393C5.88248 6.16393 6.04288 6.22216 6.15873 6.33862C6.2768 6.45507 6.33584 6.61788 6.33584 6.82703C6.33584 7.04331 6.2768 7.21681 6.15873 7.34753C6.04065 7.47825 5.85909 7.54361 5.61403 7.54361ZM11.2347 10.4777C11.5645 10.3493 11.8195 10.1699 12 9.93933V7.86803H10.0852V8.65591H10.9975V9.55074C10.8371 9.72186 10.5686 9.80742 10.1921 9.80742C9.81787 9.80742 9.53383 9.66838 9.34001 9.39031C9.1462 9.11224 9.04929 8.70106 9.04929 8.1568V7.82525C9.05151 7.28573 9.14174 6.87932 9.31996 6.606C9.49819 6.33267 9.75772 6.19601 10.0986 6.19601C10.3659 6.19601 10.5753 6.26494 10.7268 6.40279C10.8805 6.54064 10.9797 6.7581 11.0242 7.05519H12C11.9398 6.49429 11.7471 6.06767 11.4219 5.77534C11.0966 5.48062 10.6455 5.33327 10.0685 5.33327C9.65413 5.33327 9.29212 5.43428 8.98245 5.6363C8.67502 5.83594 8.43887 6.1259 8.27401 6.50617C8.11139 6.88407 8.03007 7.33208 8.03007 7.8502V8.20314C8.03453 8.70701 8.12252 9.14551 8.29406 9.51865C8.46783 9.8918 8.71289 10.177 9.02924 10.3743C9.34781 10.5692 9.71762 10.6666 10.1387 10.6666C10.5397 10.6666 10.905 10.6036 11.2347 10.4777Z" fill="#303030"/>
</svg>
