<svg width="16" height="16" viewBox="0 0 16 16" fill="none" xmlns="http://www.w3.org/2000/svg">
<path fill-rule="evenodd" clip-rule="evenodd" d="M1.31666 7.99993C1.31666 4.30883 4.30889 1.3166 8 1.3166C11.6911 1.3166 14.6833 4.30883 14.6833 7.99993C14.6833 11.691 11.6911 14.6833 8 14.6833C4.30889 14.6833 1.31666 11.691 1.31666 7.99993ZM8 0.0166016C3.59092 0.0166016 0.0166626 3.59086 0.0166626 7.99993C0.0166626 12.409 3.59092 15.9833 8 15.9833C12.4091 15.9833 15.9833 12.409 15.9833 7.99993C15.9833 3.59086 12.4091 0.0166016 8 0.0166016ZM11.2376 10.4777C11.5661 10.3493 11.8202 10.1699 12 9.93933V7.86803H10.0924V8.65591H11.0012V9.55074C10.8414 9.72186 10.574 9.80742 10.1989 9.80742C9.82605 9.80742 9.54307 9.66838 9.34998 9.39031C9.15688 9.11224 9.06034 8.70106 9.06034 8.1568V7.82525C9.06256 7.28573 9.15244 6.87932 9.33 6.606C9.50756 6.33267 9.76612 6.19601 10.1057 6.19601C10.372 6.19601 10.5807 6.26494 10.7316 6.40279C10.8847 6.54064 10.9835 6.7581 11.0279 7.05519H12C11.9401 6.49429 11.7481 6.06767 11.424 5.77534C11.1 5.48062 10.6506 5.33327 10.0757 5.33327C9.66292 5.33327 9.30226 5.43428 8.99375 5.6363C8.68747 5.83594 8.45221 6.1259 8.28797 6.50617C8.12595 6.88407 8.04494 7.33208 8.04494 7.8502V8.20314C8.04938 8.70701 8.13705 9.14551 8.30794 9.51865C8.48106 9.8918 8.7252 10.177 9.04036 10.3743C9.35774 10.5692 9.72617 10.6666 10.1456 10.6666C10.5451 10.6666 10.9091 10.6036 11.2376 10.4777ZM7.54223 8.64165H6.99292V5.40457H6.0208L4 8.82347L4.04327 9.47231H6.03079V10.5953H6.99292V9.47231H7.54223V8.64165ZM6.03079 8.64165H4.9588L5.96754 6.92685L6.03079 6.8092V8.64165Z" fill="#303030"/>
</svg>
