<svg width="16" height="16" viewBox="0 0 16 16" fill="none" xmlns="http://www.w3.org/2000/svg">
<g clip-path="url(#clip0_660_40955)">
<path fill-rule="evenodd" clip-rule="evenodd" d="M14.894 2.19706C14.894 2.76608 14.4327 3.22737 13.8637 3.22737C13.2947 3.22737 12.8334 2.76608 12.8334 2.19706C12.8334 1.62803 13.2947 1.16675 13.8637 1.16675C14.4327 1.16675 14.894 1.62803 14.894 2.19706ZM9.72763 11.6268L8.96386 11.2113L8.28816 11.7585C7.55206 12.3546 6.6451 12.7001 5.66673 12.7001C3.32409 12.7001 1.30006 10.6668 1.30006 8.00008C1.30006 5.33333 3.32409 3.30008 5.66673 3.30008C6.993 3.30008 8.19919 3.93786 9.01322 4.98161L9.55379 5.67474L10.3984 5.43127C10.6937 5.34613 11.0071 5.30008 11.3334 5.30008C13.1928 5.30008 14.7001 6.80739 14.7001 8.66675C14.7001 10.5261 13.1928 12.0334 11.3334 12.0334C10.7493 12.0334 10.2036 11.8858 9.72763 11.6268ZM5.66673 2.00008C7.42652 2.00008 8.99896 2.84945 10.0383 4.18213C10.4495 4.0636 10.884 4.00008 11.3334 4.00008C13.9107 4.00008 16.0001 6.08942 16.0001 8.66675C16.0001 11.2441 13.9107 13.3334 11.3334 13.3334C10.5269 13.3334 9.7682 13.1288 9.10634 12.7687C8.15256 13.5412 6.96026 14.0001 5.66673 14.0001C2.53711 14.0001 6.10352e-05 11.3138 6.10352e-05 8.00008C6.10352e-05 4.68637 2.53711 2.00008 5.66673 2.00008ZM8.85006 8.66675C8.85006 7.38729 9.88727 6.35008 11.1667 6.35008C12.4462 6.35008 13.4834 7.38729 13.4834 8.66675C13.4834 9.94621 12.4462 10.9834 11.1667 10.9834C9.88727 10.9834 8.85006 9.94621 8.85006 8.66675ZM11.1667 7.65008C10.6052 7.65008 10.1501 8.10526 10.1501 8.66675C10.1501 9.22824 10.6052 9.68341 11.1667 9.68341C11.7282 9.68341 12.1834 9.22824 12.1834 8.66675C12.1834 8.10526 11.7282 7.65008 11.1667 7.65008ZM7.63153 6.21285C6.61395 5.17057 4.95751 5.17057 3.93992 6.21285C2.93083 7.24642 2.93083 8.91586 3.93992 9.94943C4.95751 10.9917 6.61395 10.9917 7.63153 9.94943L6.70134 9.04127C6.19384 9.56109 5.37761 9.56109 4.87011 9.04127C4.3541 8.51275 4.3541 7.64953 4.87011 7.121C5.37761 6.60118 6.19384 6.60118 6.70134 7.121L7.63153 6.21285Z" fill="#303030"/>
</g>
<defs>
<clipPath id="clip0_660_40955">
<rect width="16" height="16" fill="white"/>
</clipPath>
</defs>
</svg>
