<svg width="16" height="16" viewBox="0 0 16 16" fill="none" xmlns="http://www.w3.org/2000/svg">
<g clip-path="url(#clip0_4296_365099)">
<path fill-rule="evenodd" clip-rule="evenodd" d="M13.499 4.99976C14.8797 4.99976 15.999 3.88047 15.999 2.49976C15.999 1.11904 14.8797 -0.000244141 13.499 -0.000244141C12.1182 -0.000244141 10.999 1.11904 10.999 2.49976C10.999 3.88047 12.1182 4.99976 13.499 4.99976ZM4.49896 0.516623H9.99896V1.81662H4.49896C3.01699 1.81662 1.81562 3.01799 1.81562 4.49996V11.5C1.81562 12.9819 3.01699 14.1833 4.49896 14.1833H11.499C12.9809 14.1833 14.1823 12.9819 14.1823 11.5V5.99996H15.4823V11.5C15.4823 13.6999 13.6989 15.4833 11.499 15.4833H4.49896C2.29902 15.4833 0.515625 13.6999 0.515625 11.5V4.49996C0.515625 2.30002 2.29902 0.516623 4.49896 0.516623ZM7.34896 9.33329L7.34896 3.99996H8.64896L8.64896 9.33329L7.34896 9.33329ZM8.74896 11.3332C8.74893 10.919 8.41313 10.5833 7.99891 10.5833C7.5847 10.5833 7.24893 10.9191 7.24896 11.3333L7.24896 11.3561C7.24899 11.7703 7.58479 12.1061 7.99901 12.1061C8.41322 12.1061 8.74899 11.7702 8.74896 11.356L8.74896 11.3332Z" fill="#5AE4AF"/>
</g>
<defs>
<clipPath id="clip0_4296_365099">
<rect width="16" height="16" fill="white"/>
</clipPath>
</defs>
</svg>
