<svg width="16" height="16" viewBox="0 0 16 18" fill="none" xmlns="http://www.w3.org/2000/svg">
<path fill-rule="evenodd" clip-rule="evenodd" d="M8.01668 3.61533C8.01668 2.15178 9.20312 0.965332 10.6667 0.965332C12.1302 0.965332 13.3167 2.15178 13.3167 3.61533V14.3846C13.3167 15.8481 12.1302 17.0346 10.6667 17.0346C9.20312 17.0346 8.01668 15.8481 8.01668 14.3846V9.53861H6.55356C6.30468 10.7439 5.23732 11.6499 3.95834 11.6499H2.87501H1.33334L1.33334 10.3499H2.87501H3.95834C4.70393 10.3499 5.30834 9.74552 5.30834 8.99993C5.30834 8.25435 4.70393 7.64993 3.95834 7.64993H2.87501H1.33334V6.34993H2.87501H3.95834C5.15727 6.34993 6.17024 7.14612 6.49735 8.23861H8.01668V3.61533ZM10.6667 2.26533C9.92109 2.26533 9.31668 2.86975 9.31668 3.61533V14.3846C9.31668 15.1302 9.92109 15.7346 10.6667 15.7346C11.4123 15.7346 12.0167 15.1302 12.0167 14.3846V3.61533C12.0167 2.86975 11.4123 2.26533 10.6667 2.26533Z" fill="#303030"/>
</svg>
