<svg width="16" height="16" viewBox="0 0 16 16" fill="none" xmlns="http://www.w3.org/2000/svg">
<g clip-path="url(#clip0)">
<path d="M5.09359 2.12272L3.68795 3.38686L3.48734 3.1638L5.07833 1.73297C5.10587 1.7082 5.14159 1.6945 5.17863 1.6945L8.67534 1.6944C8.71035 1.6944 8.74426 1.70664 8.77118 1.72901L11.8956 4.32396C11.93 4.35247 11.9498 4.39478 11.9498 4.4394L11.949 7.20094L11.9488 7.70109H12.449L14.7717 7.70109V8.00109L11.7988 8.00109C11.759 8.00109 11.7208 7.98528 11.6927 7.95714C11.6646 7.929 11.6488 7.89084 11.6488 7.85105L11.6493 5.95558L11.6497 4.78922L10.8047 5.59319L7.24005 8.98478L6.86111 9.34532L7.23836 9.70763C7.53604 9.99352 7.86345 10.3012 8.18831 10.6062L8.52236 10.2504L8.18832 10.6062L8.23659 10.6516L8.57883 10.287L8.2366 10.6516C8.73064 11.1154 9.21312 11.5684 9.5645 11.9198C9.59222 11.9475 9.60799 11.985 9.60842 12.0242L9.63126 14.0983L9.63128 14.1011L9.63129 14.1027V14.104V15.5665H9.33129V14.1063H9.33132L9.33126 14.1008L9.31138 12.295L9.3091 12.0876L9.16069 11.9427C8.83762 11.6273 8.43654 11.2508 8.02369 10.8632L8.02059 10.8603L7.98297 10.8249C7.47215 10.3453 6.94821 9.85279 6.54224 9.44681L4.60537 7.50994C4.54679 7.45137 4.54679 7.35639 4.60537 7.29781L6.7798 5.12338L6.99194 5.33551L5.27712 7.05032L4.92357 7.40388L5.27712 7.75743L6.30605 8.78635L6.65091 9.13122L7.00425 8.79504L11.1668 4.83457L11.5742 4.44696L11.1416 4.08769L8.76009 2.10977L8.62118 1.9944L8.44062 1.99441L5.42792 1.99449L5.23616 1.9945L5.09359 2.12272ZM4.35078 13.4029L4.35078 10.724H4.65078L4.65078 14.0529C4.65078 14.1358 4.58363 14.2029 4.50078 14.2029H1.16669V13.9029H3.85078H4.35078V13.4029ZM14.7723 1.46061C14.7723 1.99114 14.3422 2.42122 13.8117 2.42122C13.2811 2.42122 12.8511 1.99114 12.8511 1.46061C12.8511 0.930079 13.2811 0.5 13.8117 0.5C14.3422 0.5 14.7723 0.930079 14.7723 1.46061Z" fill="#FF725C" stroke="#FF725C"/>
</g>
<defs>
<clipPath id="clip0">
<rect width="16" height="16" fill="white"/>
</clipPath>
</defs>
</svg>
