<svg width="16" height="16" viewBox="0 0 16 16" fill="none" xmlns="http://www.w3.org/2000/svg">
<path fill-rule="evenodd" clip-rule="evenodd" d="M6.26867 1.60719H1.6525V0.30719H6.91867H7.56867V0.95719V6.65325H6.26867V1.60719ZM4.79168 8.3999H9.41338V9.6999H4.14168H3.49168V9.0499V3.46131H4.79168V8.3999ZM13.0621 1.57324H15.6384V4.14954L14.8024 3.31351L13.9274 4.1441C13.9588 4.32646 13.9846 4.51076 14.0046 4.69681C14.0384 5.01073 14.0557 5.32954 14.0557 5.65228C14.0557 10.3855 10.3266 14.256 5.68594 14.256C5.09404 14.256 4.51582 14.1927 3.95758 14.0722L3.95527 14.0717L3.17287 14.9549L3.169 14.9593L3.16898 14.9593L2.85795 15.3041L1.89261 14.4334L2.20167 14.0908L3.2415 12.9169L3.50841 12.6156L3.89709 12.7203C4.00767 12.7501 4.1193 12.7772 4.23192 12.8015C4.70066 12.9027 5.18693 12.956 5.68594 12.956C9.57231 12.956 12.7557 9.70442 12.7557 5.65228C12.7557 5.37607 12.7409 5.10367 12.7121 4.83584C12.6836 4.57092 12.6414 4.3104 12.5863 4.05504L12.5092 3.69797L12.7741 3.44648L13.8828 2.39396L13.0621 1.57324Z" fill="#FF725C"/>
</svg>
