<svg width="16" height="16" viewBox="0 0 16 16" fill="none" xmlns="http://www.w3.org/2000/svg">
<path d="M2.41074 14.8696L2.72095 14.5257L3.75996 13.3528C3.88074 13.3853 4.00268 13.4149 4.1257 13.4415C4.63784 13.552 5.16869 13.6102 5.71272 13.6102C9.96504 13.6102 13.4122 10.0585 13.4122 5.67733C13.4122 5.37864 13.3962 5.08381 13.365 4.7937C13.3341 4.50673 13.2884 4.22439 13.2286 3.94749L14.6202 2.62646" stroke="#FF725C" stroke-width="1.3"/>
<path fill-rule="evenodd" clip-rule="evenodd" d="M13.0695 1.60898H15.6391V4.17852L13.0695 1.60898Z" fill="#FF725C"/>
<path d="M7.44443 5.6666C7.44443 6.64844 6.6485 7.44438 5.66666 7.44438C4.68482 7.44438 3.88888 6.64844 3.88888 5.6666C3.88888 4.68476 4.68482 3.88882 5.66666 3.88882C6.6485 3.88882 7.44443 4.68476 7.44443 5.6666Z" stroke="#FF725C" stroke-width="1.3"/>
<path d="M0.666656 4.78382V6.54939C0.666656 6.72618 0.793188 6.8784 0.968972 6.91307L2.08078 7.11381C2.20852 7.13688 2.31979 7.21463 2.38536 7.32665L2.5616 7.6277C2.631 7.74624 2.64168 7.89021 2.59055 8.0177L2.1677 9.07184C2.11026 9.23931 2.18066 9.42349 2.33591 9.51189L3.88629 10.3947C4.04154 10.4831 4.23847 10.4511 4.35681 10.3183L5.14472 9.44574C5.22899 9.35242 5.34885 9.29915 5.47459 9.29915L5.85872 9.29916C5.98446 9.29916 6.10432 9.35242 6.18859 9.44574L6.9765 10.3183C7.09484 10.4511 7.29177 10.4831 7.44702 10.3947L8.99741 9.51189C9.15265 9.42349 9.22305 9.23931 9.16561 9.07184L8.74277 8.0177C8.69163 7.89021 8.70231 7.74624 8.77171 7.6277L8.94795 7.32665C9.01353 7.21463 9.1248 7.13688 9.25253 7.11381L10.3643 6.91307C10.5401 6.8784 10.6667 6.72618 10.6667 6.54939V4.78382C10.6667 4.60702 10.5401 4.45481 10.3643 4.42013L9.25253 4.21939C9.1248 4.19633 9.01353 4.11858 8.94795 4.00656L8.77171 3.70551C8.70231 3.58697 8.69163 3.443 8.74277 3.31551L9.16561 2.26136C9.22305 2.09389 9.15265 1.90971 8.99741 1.82131L7.44702 0.93853C7.29177 0.850132 7.09484 0.882094 6.9765 1.01489L6.18859 1.88746C6.10432 1.98079 5.98446 2.03405 5.85872 2.03405L5.47459 2.03405C5.34885 2.03405 5.229 1.98079 5.14473 1.88746L4.35681 1.01489C4.23848 0.882094 4.04154 0.850132 3.8863 0.93853L2.33591 1.82131C2.18066 1.90971 2.11026 2.09389 2.16771 2.26136L2.59055 3.31551C2.64169 3.443 2.631 3.58697 2.5616 3.70551L2.38536 4.00656C2.31979 4.11858 2.20852 4.19633 2.08078 4.21939L0.968972 4.42013C0.793188 4.45481 0.666656 4.60702 0.666656 4.78382Z" stroke="#FF725C" stroke-width="1.3"/>
</svg>
