<svg width="16" height="17" viewBox="0 0 16 17" fill="none" xmlns="http://www.w3.org/2000/svg">
<path fill-rule="evenodd" clip-rule="evenodd" d="M3.85 2.65244C3.85 1.18889 5.03644 0.00244141 6.5 0.00244141C7.96355 0.00244141 9.15 1.18889 9.15 2.65244L9.15 9.07405C9.96723 9.80281 10.4833 10.8652 10.4833 12.048C10.4833 14.248 8.69993 16.0314 6.5 16.0314C4.30006 16.0314 2.51666 14.248 2.51666 12.048C2.51666 10.8652 3.03286 9.803 3.85 9.07431L3.85 2.65244ZM6.5 1.30244C5.75441 1.30244 5.15 1.90686 5.15 2.65244L5.15 9.38137V9.70606L4.89039 9.90107C4.23716 10.3918 3.81666 11.1707 3.81666 12.048C3.81666 13.53 5.01803 14.7314 6.5 14.7314C7.98196 14.7314 9.18333 13.53 9.18333 12.048C9.18333 11.1706 8.76284 10.3915 8.10962 9.90084L7.85 9.70583V9.38113L7.85 2.65244C7.85 1.90686 7.24558 1.30244 6.5 1.30244ZM7.14999 10.3388V4.2068H5.84999V10.339C5.18664 10.5989 4.71687 11.2446 4.71687 12.0001C4.71687 12.985 5.5153 13.7834 6.50021 13.7834C7.48511 13.7834 8.28354 12.985 8.28354 12.0001C8.28354 11.2445 7.81357 10.5986 7.14999 10.3388ZM11.8167 2.33343C11.8167 2.14013 11.9734 1.98343 12.1667 1.98343C12.36 1.98343 12.5167 2.14013 12.5167 2.33343C12.5167 2.52673 12.36 2.68343 12.1667 2.68343C11.9734 2.68343 11.8167 2.52673 11.8167 2.33343ZM12.1667 0.683431C11.2554 0.683431 10.5167 1.42216 10.5167 2.33343C10.5167 3.2447 11.2554 3.98343 12.1667 3.98343C13.0779 3.98343 13.8167 3.2447 13.8167 2.33343C13.8167 1.42216 13.0779 0.683431 12.1667 0.683431Z" fill="#303030"/>
</svg>
