<svg width="17" height="16" viewBox="0 0 17 16" fill="none" xmlns="http://www.w3.org/2000/svg">
<path fill-rule="evenodd" clip-rule="evenodd" d="M8 1.3166C6.90092 1.3166 5.8188 1.58766 4.8495 2.10576C3.88019 2.62386 3.05363 3.37302 2.44301 4.28687C1.83239 5.20073 1.45658 6.25106 1.34885 7.34485C1.24112 8.43864 1.4048 9.54212 1.8254 10.5575C2.246 11.573 2.91054 12.469 3.76014 13.1662C4.60974 13.8635 5.61818 14.3404 6.69614 14.5548C7.77411 14.7693 8.88831 14.7145 9.94007 14.3955C10.9918 14.0764 11.9487 13.5029 12.7258 12.7258L13.6451 13.645C12.7167 14.5733 11.5738 15.2584 10.3174 15.6395C9.0611 16.0206 7.73017 16.086 6.44253 15.8299C5.15489 15.5737 3.95028 15.004 2.93542 14.1711C1.92056 13.3383 1.12677 12.268 0.62436 11.055C0.121947 9.84209 -0.0735769 8.52398 0.0551066 7.21743C0.18379 5.91089 0.632709 4.65624 1.3621 3.56463C2.09149 2.47302 3.07884 1.57814 4.23668 0.959263C5.39453 0.340382 6.68713 0.0166016 8 0.0166016V1.3166ZM12.635 1.50673C12.0693 1.10725 11.4497 0.779637 10.7899 0.536787L10.3409 1.75676C10.8925 1.95982 11.4111 2.23396 11.8851 2.56866L12.635 1.50673ZM15.2821 4.68C14.9868 4.04203 14.6103 3.45088 14.1664 2.91923L13.1685 3.75232C13.5403 4.19777 13.8554 4.6926 14.1023 5.22605L15.2821 4.68ZM16.011 7.70914C15.9968 7.35661 15.9598 7.01004 15.9016 6.67084L14.6203 6.89089C14.6691 7.17483 14.7001 7.46543 14.7121 7.76163C14.7234 8.04195 14.7173 8.31864 14.6948 8.59073L15.9904 8.69771C16.0173 8.37272 16.0245 8.04276 16.011 7.70914ZM15.204 11.5457C15.3489 11.2507 15.4761 10.9455 15.5843 10.6317L14.3552 10.2081C14.2648 10.4705 14.1584 10.7257 14.0371 10.9726C13.9048 11.2421 13.7547 11.5016 13.5883 11.7497L14.668 12.4738C14.8666 12.1777 15.0458 11.8677 15.204 11.5457ZM8.65 2.6666V7.34993H12V8.64993H8H7.35V7.99993V2.6666H8.65Z" fill="#303030"/>
</svg>
