<svg width="16" height="16" viewBox="0 0 16 16" fill="none" xmlns="http://www.w3.org/2000/svg">
<path fill-rule="evenodd" clip-rule="evenodd" d="M8 2.98633C5.85433 2.98633 3.97622 4.20367 2.6872 5.32837C2.03236 5.89972 1.50424 6.46933 1.13973 6.89585C0.957082 7.10957 0.814497 7.28855 0.716598 7.41547C0.667625 7.47896 0.629763 7.52951 0.603592 7.56498L0.57315 7.60661L0.564624 7.61846L0.562058 7.62205L0.561202 7.62326L0.560881 7.62371C0.56075 7.62389 0.560631 7.62406 1.09091 7.99996L0.560631 7.62406L0.294159 7.99996L0.560631 8.37587L1.09091 7.99996C0.560631 8.37587 0.56075 8.37604 0.560881 8.37622L0.561202 8.37667L0.562058 8.37788L0.564624 8.38147L0.57315 8.39331L0.603592 8.43495C0.629763 8.47041 0.667625 8.52097 0.716598 8.58446C0.814497 8.71138 0.957082 8.89036 1.13973 9.10408C1.50424 9.5306 2.03236 10.1002 2.6872 10.6716C3.97622 11.7963 5.85433 13.0136 8 13.0136C10.1457 13.0136 12.0238 11.7963 13.3128 10.6716C13.9676 10.1002 14.4958 9.5306 14.8603 9.10408C15.0429 8.89036 15.1855 8.71138 15.2834 8.58446C15.3324 8.52097 15.3702 8.47041 15.3964 8.43495L15.4269 8.39331L15.4354 8.38147L15.4379 8.37788L15.4388 8.37667L15.4391 8.37622C15.4392 8.37604 15.4394 8.37587 14.9091 7.99996L15.4394 8.37587L15.7058 7.99996L15.4394 7.62406L14.9091 7.99996C15.4394 7.62406 15.4392 7.62389 15.4391 7.62371L15.4388 7.62326L15.4379 7.62205L15.4354 7.61846L15.4269 7.60661L15.3964 7.56498C15.3702 7.52951 15.3324 7.47896 15.2834 7.41547C15.1855 7.28855 15.0429 7.10957 14.8603 6.89585C14.4958 6.46933 13.9676 5.89972 13.3128 5.32837C12.0238 4.20367 10.1457 2.98633 8 2.98633ZM2.12799 8.25949C2.04674 8.16441 1.97451 8.07726 1.91183 7.99996C1.97451 7.92267 2.04674 7.83551 2.12799 7.74044C2.46272 7.34878 2.94641 6.82748 3.54187 6.30792C4.75345 5.2508 6.32989 4.28633 8 4.28633C9.67011 4.28633 11.2465 5.2508 12.4581 6.30792C13.0536 6.82748 13.5373 7.34878 13.872 7.74044C13.9533 7.83551 14.0255 7.92266 14.0882 7.99996C14.0255 8.07726 13.9533 8.16442 13.872 8.25949C13.5373 8.65115 13.0536 9.17245 12.4581 9.69201C11.2465 10.7491 9.67011 11.7136 8 11.7136C6.32989 11.7136 4.75345 10.7491 3.54187 9.69201C2.94641 9.17245 2.46272 8.65115 2.12799 8.25949ZM10.5456 8.00004C10.5456 9.40585 9.40595 10.5455 8.00014 10.5455C6.59432 10.5455 5.45468 9.40585 5.45468 8.00004C5.45468 6.59422 6.59432 5.45458 8.00014 5.45458C9.40595 5.45458 10.5456 6.59422 10.5456 8.00004Z" fill="#303030"/>
</svg>
