<svg width="16" height="16" viewBox="0 0 16 16" fill="none" xmlns="http://www.w3.org/2000/svg">
<path fill-rule="evenodd" clip-rule="evenodd" d="M9.26444 0.406213C9.49893 0.510645 9.65 0.743296 9.65 0.999988V15C9.65 15.2567 9.49893 15.4893 9.26444 15.5938C9.02995 15.6982 8.75597 15.6548 8.56517 15.4831L3.75057 11.15H1.16666C0.807678 11.15 0.516663 10.859 0.516663 10.5V5.49999C0.516663 5.141 0.807678 4.84999 1.16666 4.84999H3.75057L8.56517 0.516846C8.75597 0.345129 9.02995 0.30178 9.26444 0.406213ZM8.35 2.45947L4.43482 5.98313C4.31547 6.09055 4.16057 6.14999 4 6.14999H1.81666V9.84999H4C4.16057 9.84999 4.31547 9.90943 4.43482 10.0168L8.35 13.5405V2.45947ZM14.6833 7.99999C14.6833 5.75686 13.9548 3.76916 12.8328 2.41463L13.8339 1.58535C15.1693 3.19757 15.9833 5.48747 15.9833 7.99999C15.9833 10.5125 15.1693 12.8024 13.8339 14.4146L12.8328 13.5853C13.9548 12.2308 14.6833 10.2431 14.6833 7.99999ZM10.8328 4.41463C11.5452 5.2747 12.0167 6.54947 12.0167 7.99999C12.0167 9.45051 11.5452 10.7253 10.8328 11.5853L11.8339 12.4146C12.7598 11.2969 13.3167 9.71989 13.3167 7.99999C13.3167 6.28008 12.7598 4.70311 11.8339 3.58535L10.8328 4.41463Z" fill="#303030"/>
</svg>
