<svg width="16" height="16" viewBox="0 0 16 16" fill="none" xmlns="http://www.w3.org/2000/svg">
<g clip-path="url(#clip0_5906_419610)">
<path fill-rule="evenodd" clip-rule="evenodd" d="M8.16719 0.0118592L7.99998 -0.0326538L7.83276 0.0118592L1.83276 1.60911L1.34998 1.73763V2.23723V8.72416C1.34998 11.3743 3.05163 13.2032 4.62168 14.3269C5.41512 14.8948 6.20431 15.3051 6.79303 15.5733C7.0883 15.7077 7.33547 15.8075 7.51065 15.8743C7.5983 15.9077 7.6681 15.9329 7.71708 15.9501C7.74158 15.9588 7.76088 15.9654 7.77463 15.97L7.79104 15.9755L7.79603 15.9772L7.79771 15.9777L7.79834 15.9779C7.7986 15.978 7.79884 15.9781 7.99998 15.36L7.79884 15.9781L7.99998 16.0435L8.20111 15.9781L7.99998 15.36C8.20111 15.9781 8.20135 15.978 8.20161 15.9779L8.20224 15.9777L8.20392 15.9772L8.20891 15.9755L8.22532 15.97C8.23907 15.9654 8.25837 15.9588 8.28287 15.9501C8.33185 15.9329 8.40165 15.9077 8.4893 15.8743C8.66448 15.8075 8.91165 15.7077 9.20692 15.5733C9.79564 15.3051 10.5848 14.8948 11.3783 14.3269C12.9483 13.2032 14.65 11.3743 14.65 8.72416V2.23723V1.73763L14.1672 1.60911L8.16719 0.0118592ZM7.35004 14.3984L7.34998 1.48566L2.64998 2.73683V8.72416C2.64998 10.7573 3.94832 12.2463 5.37827 13.2698C6.08483 13.7754 6.79564 14.1459 7.33192 14.3902C7.33798 14.393 7.34402 14.3957 7.35004 14.3984ZM8.66803 14.3902C8.66201 14.3929 8.65601 14.3957 8.65004 14.3984L8.64998 1.48566L13.35 2.73683V8.72416C13.35 10.7573 12.0516 12.2463 10.6217 13.2698C9.91512 13.7754 9.20431 14.1459 8.66803 14.3902Z" fill="#303030"/>
</g>
<defs>
<clipPath id="clip0_5906_419610">
<rect width="16" height="16" fill="white"/>
</clipPath>
</defs>
</svg>
