<svg width="376" height="167" viewBox="0 0 376 167" fill="none" xmlns="http://www.w3.org/2000/svg">
<path d="M159.5 54.084H95.5C94.3954 54.084 93.5 54.9794 93.5 56.084V92.084M215.5 54.084H280.5C281.605 54.084 282.5 54.9794 282.5 56.084V138.084C282.5 139.188 281.605 140.084 280.5 140.084H269.5M93.5 110.084V138.084C93.5 139.188 94.3954 140.084 95.5 140.084H106.5M143.5 140.084H169.5M206.5 140.084H232.5" stroke="#DBDBDB" stroke-width="1.5"/>
<path fill-rule="evenodd" clip-rule="evenodd" d="M188.615 16.084H207.5L215.5 22.084V78.084L207.5 85.084H189.078H167.5L159.5 78.084V22.084L167.5 16.084H188.615Z" stroke="#DBDBDB" stroke-width="1.5"/>
<path d="M159.5 22.084L176.5 75.084L167.5 85.084" stroke="#DBDBDB" stroke-width="1.5"/>
<path d="M215.5 22.084L198.5 75.084L207.5 85.084" stroke="#DBDBDB" stroke-width="1.5"/>
<path fill-rule="evenodd" clip-rule="evenodd" d="M179.5 72.084V69.084H195.5V72.084H179.5Z" fill="#DBDBDB"/>
<path d="M176.5 75.084H198.5" stroke="#DBDBDB" stroke-width="1.5"/>
<path d="M183.5 16.084L185.628 20.084H189.367L191.5 16.084" stroke="#DBDBDB" stroke-width="1.5"/>
<path d="M183.5 85.084L185.628 81.084H189.367L191.5 85.084" stroke="#DBDBDB" stroke-width="1.5"/>
<path d="M226.617 48.1641V49.084H220.84V48.1641H226.617ZM226.43 41.373L221.109 49.084H220.412V48.2402L225.727 40.5527H226.43V41.373ZM225.949 40.5527V41.4785H220.488V40.5527H225.949Z" fill="#DBDBDB"/>
<path d="M134.863 45.3711H135.988C135.93 45.9102 135.775 46.3926 135.525 46.8184C135.275 47.2441 134.922 47.582 134.465 47.832C134.008 48.0781 133.438 48.2012 132.754 48.2012C132.254 48.2012 131.799 48.1074 131.389 47.9199C130.982 47.7324 130.633 47.4668 130.34 47.123C130.047 46.7754 129.82 46.3594 129.66 45.875C129.504 45.3867 129.426 44.8438 129.426 44.2461V43.3965C129.426 42.7988 129.504 42.2578 129.66 41.7734C129.82 41.2852 130.049 40.8672 130.346 40.5195C130.646 40.1719 131.008 39.9043 131.43 39.7168C131.852 39.5293 132.326 39.4355 132.854 39.4355C133.498 39.4355 134.043 39.5566 134.488 39.7988C134.934 40.041 135.279 40.377 135.525 40.8066C135.775 41.2324 135.93 41.7266 135.988 42.2891H134.863C134.809 41.8906 134.707 41.5488 134.559 41.2637C134.41 40.9746 134.199 40.752 133.926 40.5957C133.652 40.4395 133.295 40.3613 132.854 40.3613C132.475 40.3613 132.141 40.4336 131.852 40.5781C131.566 40.7227 131.326 40.9277 131.131 41.1934C130.939 41.459 130.795 41.7773 130.697 42.1484C130.6 42.5195 130.551 42.9316 130.551 43.3848V44.2461C130.551 44.6641 130.594 45.0566 130.68 45.4238C130.77 45.791 130.904 46.1133 131.084 46.3906C131.264 46.668 131.492 46.8867 131.77 47.0469C132.047 47.2031 132.375 47.2812 132.754 47.2812C133.234 47.2812 133.617 47.2051 133.902 47.0527C134.188 46.9004 134.402 46.6816 134.547 46.3965C134.695 46.1113 134.801 45.7695 134.863 45.3711ZM144.098 43.5488V44.0879C144.098 44.7285 144.018 45.3027 143.857 45.8105C143.697 46.3184 143.467 46.75 143.166 47.1055C142.865 47.4609 142.504 47.7324 142.082 47.9199C141.664 48.1074 141.195 48.2012 140.676 48.2012C140.172 48.2012 139.709 48.1074 139.287 47.9199C138.869 47.7324 138.506 47.4609 138.197 47.1055C137.893 46.75 137.656 46.3184 137.488 45.8105C137.32 45.3027 137.236 44.7285 137.236 44.0879V43.5488C137.236 42.9082 137.318 42.3359 137.482 41.832C137.65 41.3242 137.887 40.8926 138.191 40.5371C138.496 40.1777 138.857 39.9043 139.275 39.7168C139.697 39.5293 140.16 39.4355 140.664 39.4355C141.184 39.4355 141.652 39.5293 142.07 39.7168C142.492 39.9043 142.854 40.1777 143.154 40.5371C143.459 40.8926 143.691 41.3242 143.852 41.832C144.016 42.3359 144.098 42.9082 144.098 43.5488ZM142.979 44.0879V43.5371C142.979 43.0293 142.926 42.5801 142.82 42.1895C142.719 41.7988 142.568 41.4707 142.369 41.2051C142.17 40.9395 141.926 40.7383 141.637 40.6016C141.352 40.4648 141.027 40.3965 140.664 40.3965C140.312 40.3965 139.994 40.4648 139.709 40.6016C139.428 40.7383 139.186 40.9395 138.982 41.2051C138.783 41.4707 138.629 41.7988 138.52 42.1895C138.41 42.5801 138.355 43.0293 138.355 43.5371V44.0879C138.355 44.5996 138.41 45.0527 138.52 45.4473C138.629 45.8379 138.785 46.168 138.988 46.4375C139.195 46.7031 139.439 46.9043 139.721 47.041C140.006 47.1777 140.324 47.2461 140.676 47.2461C141.043 47.2461 141.369 47.1777 141.654 47.041C141.939 46.9043 142.18 46.7031 142.375 46.4375C142.574 46.168 142.725 45.8379 142.826 45.4473C142.928 45.0527 142.979 44.5996 142.979 44.0879ZM146.148 39.5527H147.244L150.039 46.5078L152.828 39.5527H153.93L150.461 48.084H149.605L146.148 39.5527ZM145.791 39.5527H146.758L146.916 44.7559V48.084H145.791V39.5527ZM153.314 39.5527H154.281V48.084H153.156V44.7559L153.314 39.5527Z" fill="#DBDBDB"/>
<path d="M105.1 103.928C105.1 103.729 105.068 103.553 105.006 103.4C104.947 103.244 104.842 103.104 104.689 102.979C104.541 102.854 104.334 102.734 104.068 102.621C103.807 102.508 103.475 102.393 103.072 102.275C102.65 102.15 102.27 102.012 101.93 101.859C101.59 101.703 101.299 101.525 101.057 101.326C100.814 101.127 100.629 100.898 100.5 100.641C100.371 100.383 100.307 100.088 100.307 99.7559C100.307 99.4238 100.375 99.1172 100.512 98.8359C100.648 98.5547 100.844 98.3105 101.098 98.1035C101.355 97.8926 101.662 97.7285 102.018 97.6113C102.373 97.4941 102.77 97.4355 103.207 97.4355C103.848 97.4355 104.391 97.5586 104.836 97.8047C105.285 98.0469 105.627 98.3652 105.861 98.7598C106.096 99.1504 106.213 99.5684 106.213 100.014H105.088C105.088 99.6934 105.02 99.4102 104.883 99.1641C104.746 98.9141 104.539 98.7188 104.262 98.5781C103.984 98.4336 103.633 98.3613 103.207 98.3613C102.805 98.3613 102.473 98.4219 102.211 98.543C101.949 98.6641 101.754 98.8281 101.625 99.0352C101.5 99.2422 101.438 99.4785 101.438 99.7441C101.438 99.9238 101.475 100.088 101.549 100.236C101.627 100.381 101.746 100.516 101.906 100.641C102.07 100.766 102.277 100.881 102.527 100.986C102.781 101.092 103.084 101.193 103.436 101.291C103.92 101.428 104.338 101.58 104.689 101.748C105.041 101.916 105.33 102.105 105.557 102.316C105.787 102.523 105.957 102.76 106.066 103.025C106.18 103.287 106.236 103.584 106.236 103.916C106.236 104.264 106.166 104.578 106.025 104.859C105.885 105.141 105.684 105.381 105.422 105.58C105.16 105.779 104.846 105.934 104.479 106.043C104.115 106.148 103.709 106.201 103.26 106.201C102.865 106.201 102.477 106.146 102.094 106.037C101.715 105.928 101.369 105.764 101.057 105.545C100.748 105.326 100.5 105.057 100.312 104.736C100.129 104.412 100.037 104.037 100.037 103.611H101.162C101.162 103.904 101.219 104.156 101.332 104.367C101.445 104.574 101.6 104.746 101.795 104.883C101.994 105.02 102.219 105.121 102.469 105.188C102.723 105.25 102.986 105.281 103.26 105.281C103.654 105.281 103.988 105.227 104.262 105.117C104.535 105.008 104.742 104.852 104.883 104.648C105.027 104.445 105.1 104.205 105.1 103.928ZM110.959 97.5059V106.084H109.875V98.8594L107.689 99.6562V98.6777L110.789 97.5059H110.959Z" fill="#DBDBDB"/>
<path d="M186.1 103.928C186.1 103.729 186.068 103.553 186.006 103.4C185.947 103.244 185.842 103.104 185.689 102.979C185.541 102.854 185.334 102.734 185.068 102.621C184.807 102.508 184.475 102.393 184.072 102.275C183.65 102.15 183.27 102.012 182.93 101.859C182.59 101.703 182.299 101.525 182.057 101.326C181.814 101.127 181.629 100.898 181.5 100.641C181.371 100.383 181.307 100.088 181.307 99.7559C181.307 99.4238 181.375 99.1172 181.512 98.8359C181.648 98.5547 181.844 98.3105 182.098 98.1035C182.355 97.8926 182.662 97.7285 183.018 97.6113C183.373 97.4941 183.77 97.4355 184.207 97.4355C184.848 97.4355 185.391 97.5586 185.836 97.8047C186.285 98.0469 186.627 98.3652 186.861 98.7598C187.096 99.1504 187.213 99.5684 187.213 100.014H186.088C186.088 99.6934 186.02 99.4102 185.883 99.1641C185.746 98.9141 185.539 98.7188 185.262 98.5781C184.984 98.4336 184.633 98.3613 184.207 98.3613C183.805 98.3613 183.473 98.4219 183.211 98.543C182.949 98.6641 182.754 98.8281 182.625 99.0352C182.5 99.2422 182.438 99.4785 182.438 99.7441C182.438 99.9238 182.475 100.088 182.549 100.236C182.627 100.381 182.746 100.516 182.906 100.641C183.07 100.766 183.277 100.881 183.527 100.986C183.781 101.092 184.084 101.193 184.436 101.291C184.92 101.428 185.338 101.58 185.689 101.748C186.041 101.916 186.33 102.105 186.557 102.316C186.787 102.523 186.957 102.76 187.066 103.025C187.18 103.287 187.236 103.584 187.236 103.916C187.236 104.264 187.166 104.578 187.025 104.859C186.885 105.141 186.684 105.381 186.422 105.58C186.16 105.779 185.846 105.934 185.479 106.043C185.115 106.148 184.709 106.201 184.26 106.201C183.865 106.201 183.477 106.146 183.094 106.037C182.715 105.928 182.369 105.764 182.057 105.545C181.748 105.326 181.5 105.057 181.312 104.736C181.129 104.412 181.037 104.037 181.037 103.611H182.162C182.162 103.904 182.219 104.156 182.332 104.367C182.445 104.574 182.6 104.746 182.795 104.883C182.994 105.02 183.219 105.121 183.469 105.188C183.723 105.25 183.986 105.281 184.26 105.281C184.654 105.281 184.988 105.227 185.262 105.117C185.535 105.008 185.742 104.852 185.883 104.648C186.027 104.445 186.1 104.205 186.1 103.928ZM193.986 105.193V106.084H188.402V105.305L191.197 102.193C191.541 101.811 191.807 101.486 191.994 101.221C192.186 100.951 192.318 100.711 192.393 100.5C192.471 100.285 192.51 100.066 192.51 99.8438C192.51 99.5625 192.451 99.3086 192.334 99.082C192.221 98.8516 192.053 98.668 191.83 98.5312C191.607 98.3945 191.338 98.3262 191.021 98.3262C190.643 98.3262 190.326 98.4004 190.072 98.5488C189.822 98.6934 189.635 98.8965 189.51 99.1582C189.385 99.4199 189.322 99.7207 189.322 100.061H188.238C188.238 99.5801 188.344 99.1406 188.555 98.7422C188.766 98.3438 189.078 98.0273 189.492 97.793C189.906 97.5547 190.416 97.4355 191.021 97.4355C191.561 97.4355 192.021 97.5312 192.404 97.7227C192.787 97.9102 193.08 98.1758 193.283 98.5195C193.49 98.8594 193.594 99.2578 193.594 99.7148C193.594 99.9648 193.551 100.219 193.465 100.477C193.383 100.73 193.268 100.984 193.119 101.238C192.975 101.492 192.805 101.742 192.609 101.988C192.418 102.234 192.213 102.477 191.994 102.715L189.709 105.193H193.986Z" fill="#DBDBDB"/>
<path d="M250.1 103.928C250.1 103.729 250.068 103.553 250.006 103.4C249.947 103.244 249.842 103.104 249.689 102.979C249.541 102.854 249.334 102.734 249.068 102.621C248.807 102.508 248.475 102.393 248.072 102.275C247.65 102.15 247.27 102.012 246.93 101.859C246.59 101.703 246.299 101.525 246.057 101.326C245.814 101.127 245.629 100.898 245.5 100.641C245.371 100.383 245.307 100.088 245.307 99.7559C245.307 99.4238 245.375 99.1172 245.512 98.8359C245.648 98.5547 245.844 98.3105 246.098 98.1035C246.355 97.8926 246.662 97.7285 247.018 97.6113C247.373 97.4941 247.77 97.4355 248.207 97.4355C248.848 97.4355 249.391 97.5586 249.836 97.8047C250.285 98.0469 250.627 98.3652 250.861 98.7598C251.096 99.1504 251.213 99.5684 251.213 100.014H250.088C250.088 99.6934 250.02 99.4102 249.883 99.1641C249.746 98.9141 249.539 98.7188 249.262 98.5781C248.984 98.4336 248.633 98.3613 248.207 98.3613C247.805 98.3613 247.473 98.4219 247.211 98.543C246.949 98.6641 246.754 98.8281 246.625 99.0352C246.5 99.2422 246.438 99.4785 246.438 99.7441C246.438 99.9238 246.475 100.088 246.549 100.236C246.627 100.381 246.746 100.516 246.906 100.641C247.07 100.766 247.277 100.881 247.527 100.986C247.781 101.092 248.084 101.193 248.436 101.291C248.92 101.428 249.338 101.58 249.689 101.748C250.041 101.916 250.33 102.105 250.557 102.316C250.787 102.523 250.957 102.76 251.066 103.025C251.18 103.287 251.236 103.584 251.236 103.916C251.236 104.264 251.166 104.578 251.025 104.859C250.885 105.141 250.684 105.381 250.422 105.58C250.16 105.779 249.846 105.934 249.479 106.043C249.115 106.148 248.709 106.201 248.26 106.201C247.865 106.201 247.477 106.146 247.094 106.037C246.715 105.928 246.369 105.764 246.057 105.545C245.748 105.326 245.5 105.057 245.312 104.736C245.129 104.412 245.037 104.037 245.037 103.611H246.162C246.162 103.904 246.219 104.156 246.332 104.367C246.445 104.574 246.6 104.746 246.795 104.883C246.994 105.02 247.219 105.121 247.469 105.188C247.723 105.25 247.986 105.281 248.26 105.281C248.654 105.281 248.988 105.227 249.262 105.117C249.535 105.008 249.742 104.852 249.883 104.648C250.027 104.445 250.1 104.205 250.1 103.928ZM253.979 101.285H254.752C255.131 101.285 255.443 101.223 255.689 101.098C255.939 100.969 256.125 100.795 256.246 100.576C256.371 100.354 256.434 100.104 256.434 99.8262C256.434 99.498 256.379 99.2227 256.27 99C256.16 98.7773 255.996 98.6094 255.777 98.4961C255.559 98.3828 255.281 98.3262 254.945 98.3262C254.641 98.3262 254.371 98.3867 254.137 98.5078C253.906 98.625 253.725 98.793 253.592 99.0117C253.463 99.2305 253.398 99.4883 253.398 99.7852H252.314C252.314 99.3516 252.424 98.957 252.643 98.6016C252.861 98.2461 253.168 97.9629 253.562 97.752C253.961 97.541 254.422 97.4355 254.945 97.4355C255.461 97.4355 255.912 97.5273 256.299 97.7109C256.686 97.8906 256.986 98.1602 257.201 98.5195C257.416 98.875 257.523 99.3184 257.523 99.8496C257.523 100.064 257.473 100.295 257.371 100.541C257.273 100.783 257.119 101.01 256.908 101.221C256.701 101.432 256.432 101.605 256.1 101.742C255.768 101.875 255.369 101.941 254.904 101.941H253.979V101.285ZM253.979 102.176V101.525H254.904C255.447 101.525 255.896 101.59 256.252 101.719C256.607 101.848 256.887 102.02 257.09 102.234C257.297 102.449 257.441 102.686 257.523 102.943C257.609 103.197 257.652 103.451 257.652 103.705C257.652 104.104 257.584 104.457 257.447 104.766C257.314 105.074 257.125 105.336 256.879 105.551C256.637 105.766 256.352 105.928 256.023 106.037C255.695 106.146 255.338 106.201 254.951 106.201C254.58 106.201 254.23 106.148 253.902 106.043C253.578 105.938 253.291 105.785 253.041 105.586C252.791 105.383 252.596 105.135 252.455 104.842C252.314 104.545 252.244 104.207 252.244 103.828H253.328C253.328 104.125 253.393 104.385 253.521 104.607C253.654 104.83 253.842 105.004 254.084 105.129C254.33 105.25 254.619 105.311 254.951 105.311C255.283 105.311 255.568 105.254 255.807 105.141C256.049 105.023 256.234 104.848 256.363 104.613C256.496 104.379 256.562 104.084 256.562 103.729C256.562 103.373 256.488 103.082 256.34 102.855C256.191 102.625 255.98 102.455 255.707 102.346C255.438 102.232 255.119 102.176 254.752 102.176H253.979Z" fill="#DBDBDB"/>
<path d="M276.5 140.084V119.084C276.5 117.979 275.605 117.084 274.5 117.084H259.5M225.5 140.084V119.084C225.5 117.979 226.395 117.084 227.5 117.084H241.5" stroke="#DBDBDB" stroke-width="1.5"/>
<path d="M213.5 140.084V119.084C213.5 117.979 212.605 117.084 211.5 117.084H196.5M162.5 140.084V119.084C162.5 117.979 163.395 117.084 164.5 117.084H178.5" stroke="#DBDBDB" stroke-width="1.5"/>
<path d="M93.5 92.084V109.084" stroke="#DBDBDB" stroke-width="1.5"/>
<circle cx="93.5" cy="109.084" r="2" fill="#DBDBDB"/>
<circle cx="93.5" cy="92.084" r="2" fill="#DBDBDB"/>
<path d="M195.5 110.084L180.5 117.084L179.5 117.084" stroke="#DBDBDB" stroke-width="1.5"/>
<circle cx="196.5" cy="117.084" r="2" fill="#DBDBDB"/>
<circle cx="179.5" cy="117.084" r="2" fill="#DBDBDB"/>
<path d="M258.5 110.084L243.5 117.084L242.5 117.084" stroke="#DBDBDB" stroke-width="1.5"/>
<circle cx="259.5" cy="117.084" r="2" fill="#DBDBDB"/>
<circle cx="242.5" cy="117.084" r="2" fill="#DBDBDB"/>
<rect x="106.5" y="129.084" width="37" height="22" rx="2" fill="#ADF75E"/>
<path d="M119.425 136.264H122.014C122.601 136.264 123.097 136.353 123.501 136.532C123.91 136.711 124.219 136.976 124.431 137.327C124.646 137.674 124.753 138.102 124.753 138.611C124.753 138.969 124.68 139.297 124.533 139.594C124.389 139.887 124.182 140.138 123.91 140.346C123.641 140.55 123.319 140.702 122.943 140.802L122.653 140.915H120.22L120.209 140.072H122.046C122.418 140.072 122.728 140.007 122.975 139.878C123.222 139.746 123.408 139.569 123.534 139.347C123.659 139.125 123.722 138.879 123.722 138.611C123.722 138.31 123.663 138.047 123.544 137.821C123.426 137.596 123.24 137.422 122.986 137.3C122.735 137.175 122.411 137.112 122.014 137.112H120.461V144.084H119.425V136.264ZM123.996 144.084L122.094 140.539L123.174 140.534L125.102 144.02V144.084H123.996ZM129.211 136.221V144.084H128.217V137.461L126.214 138.192V137.295L129.055 136.221H129.211Z" fill="black"/>
<rect x="169.5" y="129.084" width="37" height="22" rx="2" fill="#ADF75E"/>
<path d="M182.425 136.264H185.014C185.601 136.264 186.097 136.353 186.501 136.532C186.91 136.711 187.219 136.976 187.431 137.327C187.646 137.674 187.753 138.102 187.753 138.611C187.753 138.969 187.68 139.297 187.533 139.594C187.389 139.887 187.182 140.138 186.91 140.346C186.641 140.55 186.319 140.702 185.943 140.802L185.653 140.915H183.22L183.209 140.072H185.046C185.418 140.072 185.728 140.007 185.975 139.878C186.222 139.746 186.408 139.569 186.534 139.347C186.659 139.125 186.722 138.879 186.722 138.611C186.722 138.31 186.663 138.047 186.544 137.821C186.426 137.596 186.24 137.422 185.986 137.3C185.735 137.175 185.411 137.112 185.014 137.112H183.461V144.084H182.425V136.264ZM186.996 144.084L185.094 140.539L186.174 140.534L188.102 144.02V144.084H186.996ZM194.069 143.268V144.084H188.951V143.37L191.513 140.518C191.828 140.167 192.071 139.869 192.243 139.626C192.419 139.379 192.54 139.159 192.608 138.965C192.68 138.768 192.716 138.568 192.716 138.364C192.716 138.106 192.662 137.873 192.555 137.666C192.451 137.454 192.297 137.286 192.093 137.161C191.889 137.035 191.642 136.973 191.352 136.973C191.004 136.973 190.714 137.041 190.481 137.177C190.252 137.309 190.08 137.495 189.966 137.735C189.851 137.975 189.794 138.251 189.794 138.562H188.8C188.8 138.122 188.897 137.719 189.09 137.354C189.284 136.989 189.57 136.699 189.95 136.484C190.329 136.265 190.797 136.156 191.352 136.156C191.846 136.156 192.268 136.244 192.619 136.419C192.97 136.591 193.239 136.835 193.425 137.15C193.615 137.461 193.709 137.827 193.709 138.246C193.709 138.475 193.67 138.708 193.591 138.944C193.516 139.177 193.41 139.409 193.274 139.642C193.142 139.875 192.986 140.104 192.807 140.33C192.632 140.555 192.444 140.777 192.243 140.996L190.148 143.268H194.069Z" fill="black"/>
<rect x="232.5" y="129.084" width="37" height="22" rx="2" fill="#ADF75E"/>
<path d="M245.425 136.264H248.014C248.601 136.264 249.097 136.353 249.501 136.532C249.91 136.711 250.219 136.976 250.431 137.327C250.646 137.674 250.753 138.102 250.753 138.611C250.753 138.969 250.68 139.297 250.533 139.594C250.389 139.887 250.182 140.138 249.91 140.346C249.641 140.55 249.319 140.702 248.943 140.802L248.653 140.915H246.22L246.209 140.072H248.046C248.418 140.072 248.728 140.007 248.975 139.878C249.222 139.746 249.408 139.569 249.534 139.347C249.659 139.125 249.722 138.879 249.722 138.611C249.722 138.31 249.663 138.047 249.544 137.821C249.426 137.596 249.24 137.422 248.986 137.3C248.735 137.175 248.411 137.112 248.014 137.112H246.461V144.084H245.425V136.264ZM249.996 144.084L248.094 140.539L249.174 140.534L251.102 144.02V144.084H249.996ZM253.396 139.685H254.104C254.452 139.685 254.738 139.628 254.964 139.513C255.193 139.395 255.363 139.236 255.474 139.035C255.589 138.831 255.646 138.602 255.646 138.348C255.646 138.047 255.596 137.794 255.496 137.59C255.395 137.386 255.245 137.232 255.044 137.128C254.844 137.025 254.59 136.973 254.282 136.973C254.002 136.973 253.755 137.028 253.541 137.139C253.329 137.247 253.163 137.401 253.041 137.601C252.923 137.802 252.864 138.038 252.864 138.31H251.87C251.87 137.913 251.97 137.551 252.171 137.225C252.371 136.899 252.653 136.64 253.014 136.446C253.379 136.253 253.802 136.156 254.282 136.156C254.754 136.156 255.168 136.24 255.522 136.409C255.877 136.573 256.153 136.82 256.35 137.15C256.547 137.476 256.645 137.882 256.645 138.369C256.645 138.566 256.598 138.777 256.505 139.003C256.416 139.225 256.274 139.433 256.081 139.626C255.891 139.819 255.644 139.979 255.34 140.104C255.035 140.226 254.67 140.287 254.244 140.287H253.396V139.685ZM253.396 140.501V139.905H254.244C254.742 139.905 255.154 139.964 255.479 140.083C255.805 140.201 256.061 140.358 256.248 140.555C256.437 140.752 256.57 140.969 256.645 141.205C256.724 141.438 256.763 141.671 256.763 141.903C256.763 142.269 256.701 142.593 256.575 142.875C256.453 143.158 256.28 143.398 256.054 143.595C255.832 143.792 255.571 143.941 255.27 144.041C254.969 144.141 254.642 144.191 254.287 144.191C253.947 144.191 253.626 144.143 253.326 144.046C253.028 143.95 252.765 143.81 252.536 143.627C252.307 143.441 252.128 143.214 251.999 142.945C251.87 142.673 251.806 142.363 251.806 142.016H252.799C252.799 142.288 252.858 142.526 252.977 142.73C253.098 142.935 253.27 143.094 253.492 143.208C253.718 143.319 253.983 143.375 254.287 143.375C254.591 143.375 254.853 143.323 255.071 143.219C255.293 143.112 255.463 142.951 255.582 142.736C255.703 142.521 255.764 142.251 255.764 141.925C255.764 141.599 255.696 141.332 255.56 141.125C255.424 140.913 255.231 140.757 254.98 140.657C254.733 140.553 254.441 140.501 254.104 140.501H253.396Z" fill="black"/>
</svg>
