<svg width="24" height="24" viewBox="0 0 24 24" fill="none" xmlns="http://www.w3.org/2000/svg">
<path d="M10.5 3.5L10.5 20.5M10.5 3.5L7.75 6.25M10.5 3.5L13.25 6.25M10.5 20.5L7.75 17.75M10.5 20.5L13.25 17.75" stroke="#303030" stroke-width="1.5"/>
<path d="M19 12L2 12M19 12L16.25 9.25M19 12L16.25 14.75M2 12L4.75 9.25M2 12L4.75 14.75" stroke="#303030" stroke-width="1.5"/>
<path fill-rule="evenodd" clip-rule="evenodd" d="M22.0508 6L22.0508 14H23.5508L23.5508 6H22.0508ZM23.8008 16.997C23.8008 16.4447 23.353 15.997 22.8007 15.9971C22.2485 15.9971 21.8008 16.4448 21.8008 16.9971V17.0313C21.8008 17.5836 22.2485 18.0313 22.8008 18.0312C23.3531 18.0312 23.8008 17.5835 23.8008 17.0312L23.8008 16.997Z" fill="#303030"/>
</svg>
