<svg width="24" height="24" viewBox="0 0 24 24" fill="none" xmlns="http://www.w3.org/2000/svg">
<g clip-path="url(#clip0)">
<path d="M23 12C23 18.0751 18.0751 23 12 23C5.92487 23 1 18.0751 1 12C1 5.92487 5.92487 1 12 1C18.0751 1 23 5.92487 23 12Z" stroke="#303030" stroke-width="1.5"/>
<path d="M11.5389 16H6.1564V14.9268L8.69663 12.206C9.04539 11.8229 9.30247 11.4887 9.46786 11.2033C9.63685 10.9178 9.72135 10.6468 9.72135 10.3902C9.72135 10.0397 9.63326 9.76513 9.45708 9.5664C9.2809 9.36405 9.02921 9.26287 8.70202 9.26287C8.34966 9.26287 8.07101 9.38573 7.86607 9.63144C7.66472 9.87353 7.56404 10.1933 7.56404 10.5908H6C6 10.1102 6.11326 9.67118 6.33978 9.27371C6.56989 8.87624 6.89348 8.56549 7.31056 8.34146C7.72764 8.11382 8.20045 8 8.72899 8C9.53798 8 10.1654 8.19512 10.6112 8.58537C11.0607 8.97561 11.2854 9.52665 11.2854 10.2385C11.2854 10.6287 11.1847 11.0262 10.9834 11.4309C10.782 11.8356 10.4369 12.3071 9.94787 12.8455L8.1627 14.7371H11.5389V16Z" fill="#303030"/>
<path d="M17.1101 13.0298H18V14.2927H17.1101V16H15.5515V14.2927H12.3317L12.2616 13.3062L15.5353 8.1084H17.1101V13.0298ZM13.8148 13.0298H15.5515V10.2439L15.449 10.4228L13.8148 13.0298Z" fill="#303030"/>
</g>
<defs>
<clipPath id="clip0">
<rect width="24" height="24" fill="white"/>
</clipPath>
</defs>
</svg>
