<svg width="24" height="24" viewBox="0 0 24 24" fill="none" xmlns="http://www.w3.org/2000/svg">
<path fill-rule="evenodd" clip-rule="evenodd" d="M21.9321 7.74649C17.9959 7.38867 14.3949 5.39676 12.0002 2.26311C9.74436 5.21479 6.41827 7.15344 2.75 7.66772V18.9996H1.25V6.99957V6.31466L1.93209 6.25265C5.53248 5.9253 8.81916 4.06829 10.9575 1.15323L11.3586 0.606379L11.3586 0.606373C11.6766 0.172825 12.3242 0.172879 12.6421 0.606515L13.0419 1.15171C15.1799 4.06766 18.467 5.92531 22.0679 6.25265L21.9321 7.74649ZM13.6964 8.72097L13 6.98008L12.3036 8.72097L10.7261 12.6649L8.53033 10.4692L6.87545 8.81431L7.2602 11.1228L8.07215 15.9944L5.1819 15.2719L3.59992 14.8764L4.32918 16.3349L6.13453 19.9456L4.37596 22.5835L5.62404 23.4155L7.62404 20.4155L7.86547 20.0534L7.67082 19.6641L6.40008 17.1226L8.8181 17.7271L9.92785 18.0045L9.7398 16.8762L9.12455 13.1847L10.4697 14.5298L11.2739 15.3341L11.6964 14.278L13 11.0189L14.3036 14.278L14.7261 15.3341L15.5303 14.5298L16.8755 13.1847L16.2602 16.8762L16.0721 18.0045L17.1819 17.7271L19.5999 17.1226L18.3292 19.6641L18.1345 20.0534L18.376 20.4155L20.376 23.4155L21.624 22.5835L19.8655 19.9456L21.6708 16.3349L22.4001 14.8764L20.8181 15.2719L17.9279 15.9944L18.7398 11.1228L19.1245 8.81431L17.4697 10.4692L15.2739 12.6649L13.6964 8.72097Z" fill="#DBDBDB"/>
</svg>
