<svg width="40" height="24" viewBox="0 0 40 24" fill="none" xmlns="http://www.w3.org/2000/svg">
<path d="M0 12C0 5.37258 5.37258 0 12 0H28C34.6274 0 40 5.37258 40 12C40 18.6274 34.6274 24 28 24H12C5.37258 24 0 18.6274 0 12Z" fill="#FF725C"/>
<path fill-rule="evenodd" clip-rule="evenodd" d="M14.7485 18.1526H12.957L12.957 19.4526H16.457H17.107V18.8026L17.107 15.3026H15.807L15.807 17.3668C15.6765 17.2433 15.5564 17.125 15.4632 17.0302L15.4545 17.0214L15.4455 17.0129C14.1356 15.7798 13.3166 14.0228 13.3166 12.0702C13.3166 8.33445 16.3147 5.3166 19.9999 5.3166C23.6852 5.3166 26.6833 8.33445 26.6833 12.0702C26.6833 14.6971 25.1998 16.9718 23.0352 18.089L23.6314 19.2442C26.2156 17.9105 27.9833 15.1976 27.9833 12.0702C27.9833 7.6282 24.4148 4.0166 19.9999 4.0166C15.585 4.0166 12.0166 7.6282 12.0166 12.0702C12.0166 14.3893 12.9892 16.4814 14.5453 17.9509C14.6045 18.0109 14.6733 18.0794 14.7485 18.1526Z" fill="black"/>
</svg>
