<svg width="24" height="24" viewBox="0 0 24 24" fill="none" xmlns="http://www.w3.org/2000/svg">
<g clip-path="url(#clip0)">
<path fill-rule="evenodd" clip-rule="evenodd" d="M13.2295 1.50506C13.8472 1.51767 14.4647 1.53691 15.0819 1.56284C15.5794 1.58377 16.0765 1.61614 16.5735 1.64826C17.2362 1.69107 17.8974 1.7498 18.5499 1.88069C19.1179 1.99463 19.6662 2.1646 20.1747 2.44982C20.7127 2.75159 21.1443 3.1637 21.4669 3.68893C21.808 4.24441 21.9976 4.85563 22.1213 5.4906C22.2195 5.99472 22.2733 6.5042 22.3148 7.01565C22.3636 7.61703 22.3991 8.21918 22.4264 8.82175C22.459 9.54171 22.4807 10.262 22.4917 10.9828C22.5005 11.5621 22.5026 12.1412 22.4966 12.7204C22.492 13.1723 22.4841 13.6243 22.4686 14.076C22.4493 14.6374 22.4241 15.1987 22.3948 15.7597C22.3722 16.1912 22.3456 16.6228 22.3095 17.0534C22.2494 17.7694 22.1653 18.4824 21.959 19.1744C21.7425 19.901 21.4026 20.5555 20.8324 21.0723C20.4674 21.4031 20.0474 21.6435 19.5891 21.8186C19.0454 22.0264 18.4799 22.1433 17.9045 22.2196C17.3475 22.2934 16.7876 22.3327 16.2271 22.3667C15.7567 22.3952 15.2863 22.4194 14.8155 22.4402C14.3568 22.4604 13.8979 22.471 13.4389 22.4836C12.5399 22.5083 11.6409 22.5006 10.742 22.4897C10.1561 22.4826 9.57026 22.4576 8.98479 22.4324C8.47267 22.4103 7.96075 22.3811 7.44928 22.3471C6.71344 22.2982 5.97877 22.2358 5.25725 22.0721C4.75482 21.9581 4.2694 21.796 3.81915 21.5408C3.1872 21.1826 2.70856 20.6776 2.37921 20.0298C2.08343 19.4482 1.9246 18.8254 1.82215 18.1857C1.73866 17.6644 1.6945 17.139 1.65884 16.6126C1.62317 16.0863 1.59233 15.5598 1.56997 15.0327C1.55226 14.6153 1.53958 14.1978 1.52581 13.7803C1.49734 12.9178 1.49679 12.0552 1.50361 11.1926C1.50723 10.7333 1.51886 10.274 1.53363 9.8149C1.54792 9.37063 1.56563 8.92631 1.59134 8.48255C1.62339 7.92922 1.65283 7.37568 1.70208 6.82332C1.75764 6.19971 1.83493 5.57992 1.99763 4.97399C2.15619 4.38347 2.39216 3.82834 2.77357 3.3441C3.22531 2.77053 3.81382 2.39137 4.49367 2.14369C5.07799 1.9308 5.68466 1.82036 6.2996 1.74775C6.85262 1.68245 7.40786 1.64559 7.96369 1.61477C8.47807 1.58627 8.99251 1.56137 9.5073 1.54109C10.3153 1.50925 11.1235 1.49235 11.9322 1.50337C12.3646 1.50337 12.7972 1.49624 13.2295 1.50506Z" stroke="#303030" stroke-width="1.5"/>
<path d="M6 12H16.25H17M17 12L14 9M17 12L14 15" stroke="#303030" stroke-width="1.5"/>
</g>
<defs>
<clipPath id="clip0">
<rect width="24" height="24" fill="white"/>
</clipPath>
</defs>
</svg>
