<svg width="24" height="24" viewBox="0 0 24 24" fill="none" xmlns="http://www.w3.org/2000/svg">
<g clip-path="url(#clip0)">
<path fill-rule="evenodd" clip-rule="evenodd" d="M4.66894 2.00342H4.26755L4.0449 2.33739L0.356542 7.86995L0.0488281 8.33152L0.400095 8.76088L11.4644 22.2849L12.0448 22.9944L12.6253 22.2849L23.6912 8.76092L24.0426 8.33156L23.7348 7.86995L20.0465 2.33739L19.8238 2.00342H19.4224H12.0457H4.66894ZM1.91233 8.24043L5.07033 3.50342H12.0457H19.021L22.179 8.24039L21.4884 9.08439C21.0059 8.8559 20.3097 8.55533 19.4352 8.25559C17.6772 7.65296 15.187 7.04962 12.258 7.04962C9.33083 7.04962 6.73983 7.65225 4.88485 8.25136C3.9558 8.55142 3.20697 8.85204 2.68757 9.07909C2.6653 9.08883 2.64345 9.09843 2.62202 9.10789L1.91233 8.24043ZM3.61057 10.3162L5.72853 12.905C6.11068 12.7982 6.6383 12.6608 7.26507 12.5234C8.57695 12.2358 10.3478 11.9432 12.1384 11.9431C13.93 11.9431 15.6576 12.2361 16.9278 12.5246C17.5132 12.6575 18.0062 12.7906 18.3695 12.8961L20.5067 10.2842C20.0983 10.1025 19.5738 9.88877 18.9488 9.67453C17.3069 9.11172 14.9836 8.54962 12.258 8.54962C9.53042 8.54962 7.09932 9.11243 5.34587 9.67876C4.64972 9.9036 4.06317 10.1281 3.61057 10.3162ZM17.3304 14.1661C17.1088 14.1085 16.8626 14.048 16.5956 13.9873C15.3876 13.713 13.7788 13.4431 12.1384 13.4431C10.4968 13.4432 8.84202 13.7133 7.58624 13.9886C7.28914 14.0537 7.01576 14.1188 6.77175 14.1802L8.82282 16.6872C9.03894 16.6595 9.3046 16.6269 9.59744 16.5943C10.3504 16.5104 11.3129 16.423 12.0751 16.423C12.838 16.423 13.7842 16.5105 14.5213 16.5945C14.8035 16.6266 15.0593 16.6587 15.2683 16.6862L17.3304 14.1661ZM14.1429 18.0616C13.4621 17.9879 12.6855 17.923 12.0751 17.923C11.4562 17.923 10.6528 17.9897 9.94979 18.0647L12.0449 20.6256L14.1429 18.0616Z" fill="#303030"/>
</g>
<defs>
<clipPath id="clip0">
<rect width="24" height="24" fill="white"/>
</clipPath>
</defs>
</svg>
