<svg width="16" height="16" viewBox="0 0 16 16" fill="none" xmlns="http://www.w3.org/2000/svg">
<path fill-rule="evenodd" clip-rule="evenodd" d="M5.98366 3.33339C5.98366 2.21962 6.88655 1.31672 8.00033 1.31672C9.1141 1.31672 10.017 2.21962 10.017 3.33339V5.50006H5.98366V3.33339ZM4.68366 5.50006V3.33339C4.68366 1.50165 6.16858 0.0167236 8.00033 0.0167236C9.83207 0.0167236 11.317 1.50165 11.317 3.33339V5.50006H12.667C13.3113 5.50006 13.8337 6.02239 13.8337 6.66672V14.1667C13.8337 14.8111 13.3113 15.3334 12.667 15.3334H3.33366C2.68933 15.3334 2.16699 14.8111 2.16699 14.1667V6.66672C2.16699 6.02239 2.68933 5.50006 3.33366 5.50006H4.68366Z" fill="#DBDBDB"/>
</svg>
