<svg width="24" height="24" viewBox="0 0 24 24" fill="none" xmlns="http://www.w3.org/2000/svg">
<path d="M23 12C23 18.0751 18.0751 23 12 23C5.92487 23 1 18.0751 1 12C1 5.92487 5.92487 1 12 1C18.0751 1 23 5.92487 23 12Z" stroke="#303030" stroke-width="1.5"/>
<path d="M6.82812 8.17969L8.83691 13.8516L10.835 8.17969H12.9512V16H11.3345V13.8623L11.4956 10.1724L9.38477 16H8.27832L6.17285 10.1777L6.33398 13.8623V16H4.72266V8.17969H6.82812Z" fill="#303030"/>
<path d="M20.084 9.48486H17.6885V16H16.0771V9.48486H13.7139V8.17969H20.084V9.48486Z" fill="#303030"/>
</svg>
