<svg width="24" height="24" viewBox="0 0 24 24" fill="none" xmlns="http://www.w3.org/2000/svg">
<g clip-path="url(#clip0)">
<path d="M7.18555 15.926C6.59828 15.3388 6.13244 14.6416 5.81462 13.8743C5.49679 13.107 5.33321 12.2846 5.33321 11.4541C5.33321 10.6236 5.49679 9.80122 5.81462 9.03392C6.13244 8.26662 6.59828 7.56944 7.18555 6.98218" stroke="#303030" stroke-width="1.5"/>
<path d="M9.98047 13.1315C9.76025 12.9113 9.58556 12.6498 9.46637 12.3621C9.34719 12.0744 9.28585 11.766 9.28585 11.4545C9.28585 11.1431 9.34719 10.8347 9.46637 10.547C9.58556 10.2593 9.76025 9.99781 9.98047 9.77759" stroke="#303030" stroke-width="1.5"/>
<path d="M4.56641 18.5455C3.63522 17.6143 2.89656 16.5088 2.39261 15.2922C1.88865 14.0755 1.62927 12.7715 1.62927 11.4546C1.62927 10.1377 1.88865 8.83374 2.39261 7.61709C2.89656 6.40044 3.63522 5.29496 4.56641 4.36377" stroke="#303030" stroke-width="1.5"/>
<path d="M17.0176 15.9261C17.6048 15.3388 18.0707 14.6416 18.3885 13.8743C18.7063 13.107 18.8699 12.2846 18.8699 11.4541C18.8699 10.6236 18.7063 9.80122 18.3885 9.03392C18.0707 8.26662 17.6048 7.56944 17.0176 6.98218" stroke="#303030" stroke-width="1.5"/>
<path d="M14.2227 13.1315C14.4429 12.9113 14.6176 12.6498 14.7368 12.3621C14.8559 12.0744 14.9173 11.766 14.9173 11.4545C14.9173 11.1431 14.8559 10.8347 14.7368 10.547C14.6176 10.2593 14.4429 9.99781 14.2227 9.77759" stroke="#303030" stroke-width="1.5"/>
<path d="M19.6367 18.5455C20.5679 17.6143 21.3066 16.5088 21.8105 15.2922C22.3145 14.0755 22.5739 12.7715 22.5739 11.4546C22.5739 10.1377 22.3145 8.83374 21.8105 7.61709C21.3066 6.40044 20.5679 5.29496 19.6367 4.36377" stroke="#303030" stroke-width="1.5"/>
</g>
<defs>
<clipPath id="clip0">
<rect width="24" height="24" fill="white"/>
</clipPath>
</defs>
</svg>
