<svg width="24" height="24" viewBox="0 0 24 24" fill="none" xmlns="http://www.w3.org/2000/svg">
<path fill-rule="evenodd" clip-rule="evenodd" d="M6.25 0.525391C4.69829 0.525391 3.5 1.83355 3.5 3.37194V20.6685C3.5 22.2069 4.69829 23.515 6.25 23.515H17.75C19.3017 23.515 20.5 22.2069 20.5 20.6685V3.37194C20.5 1.83355 19.3017 0.525391 17.75 0.525391H6.25ZM5 3.37194C5 2.59455 5.59257 2.02539 6.25 2.02539H17.75C18.4074 2.02539 19 2.59455 19 3.37194V20.6685C19 21.4459 18.4074 22.015 17.75 22.015H6.25C5.59257 22.015 5 21.4459 5 20.6685V3.37194ZM8 6.5C12.6944 6.5 16.5 10.3056 16.5 15H15C15 11.134 11.866 8 8 8V6.5ZM8 9.5C11.0376 9.5 13.5 11.9624 13.5 15H12C12 12.7909 10.2091 11 8 11V9.5ZM8 12.5C9.38071 12.5 10.5 13.6193 10.5 15H9C9 14.4477 8.55228 14 8 14V12.5Z" fill="#303030"/>
</svg>
