<svg width="24" height="24" viewBox="0 0 24 24" fill="none" xmlns="http://www.w3.org/2000/svg">
<path fill-rule="evenodd" clip-rule="evenodd" d="M2.05217 6.39062C2.05236 6.39045 2.0526 6.39025 1.56056 5.82421C1.06852 5.25818 1.06883 5.2579 1.06919 5.2576L1.0701 5.25681L1.07263 5.25461L1.08058 5.24779L1.10786 5.22466C1.13105 5.20514 1.16425 5.17752 1.20711 5.14267C1.29283 5.07297 1.41732 4.97422 1.57803 4.85315C1.89929 4.61114 2.36626 4.27921 2.95849 3.91153C4.14074 3.17755 5.83452 2.29341 7.87439 1.70251C11.9822 0.512588 17.4793 0.524051 22.9298 5.25797L21.9462 6.39046C16.9535 2.05418 12.0119 2.06565 8.29175 3.14328C6.41767 3.68615 4.85019 4.50267 3.74967 5.18591C3.20052 5.52684 2.77073 5.83265 2.48058 6.05124C2.33558 6.16046 2.2257 6.24773 2.15347 6.30646C2.11736 6.33582 2.09069 6.35803 2.07376 6.37228L2.05574 6.38756L2.05229 6.39051L2.05217 6.39062ZM11.9985 21.5985C14.373 21.5985 16.2978 19.6736 16.2978 17.2992C16.2978 14.9248 14.373 12.9999 11.9985 12.9999C9.6241 12.9999 7.69925 14.9248 7.69925 17.2992C7.69925 19.6736 9.6241 21.5985 11.9985 21.5985ZM11.9985 23.0985C15.2014 23.0985 17.7978 20.502 17.7978 17.2992C17.7978 14.0963 15.2014 11.4999 11.9985 11.4999C8.79568 11.4999 6.19925 14.0963 6.19925 17.2992C6.19925 20.502 8.79568 23.0985 11.9985 23.0985ZM5 9.75C5.52072 10.2898 5.52048 10.29 5.52027 10.2902L5.52152 10.289L5.53224 10.2789C5.54266 10.2692 5.55957 10.2536 5.58276 10.2326C5.62916 10.1908 5.70061 10.1278 5.79538 10.0485C5.98512 9.88992 6.26727 9.66708 6.62822 9.41838C7.35287 8.91911 8.38024 8.32598 9.60341 7.93276C10.8238 7.54042 12.2252 7.35127 13.7161 7.63878C15.2014 7.9252 16.8233 8.69363 18.4795 10.29L19.5205 9.21001C17.6752 7.43137 15.7964 6.5123 14.0001 6.16591C12.2095 5.82061 10.5485 6.05333 9.14434 6.50474C7.74289 6.95527 6.58332 7.62776 5.77718 8.18318C5.37275 8.46183 5.05355 8.71359 4.83328 8.89774C4.72305 8.98989 4.63733 9.06534 4.57782 9.11905C4.54805 9.14591 4.52482 9.16735 4.50833 9.18275L4.48868 9.20125L4.48269 9.20696L4.48066 9.2089L4.47989 9.20964C4.47957 9.20995 4.47928 9.21023 5 9.75Z" fill="#303030"/>
</svg>
