<svg width="24" height="24" viewBox="0 0 24 24" fill="none" xmlns="http://www.w3.org/2000/svg">
<path fill-rule="evenodd" clip-rule="evenodd" d="M7.7258 4.52429C3.59703 4.52429 0.25 7.87132 0.25 12.0001C0.25 16.1289 3.59703 19.4759 7.7258 19.4759H16.2742C20.403 19.4759 23.75 16.1289 23.75 12.0001C23.75 7.87132 20.403 4.52429 16.2742 4.52429H7.7258ZM1.75 12.0001C1.75 8.69975 4.42546 6.02429 7.7258 6.02429H16.2742C19.5745 6.02429 22.25 8.69975 22.25 12.0001C22.25 15.3004 19.5745 17.9759 16.2742 17.9759H7.7258C4.42546 17.9759 1.75 15.3004 1.75 12.0001ZM16.2906 16.0001C18.4998 16.0001 20.2906 14.2092 20.2906 12.0001C20.2906 9.79094 18.4998 8.00007 16.2906 8.00007C14.0815 8.00007 12.2906 9.79094 12.2906 12.0001C12.2906 14.2092 14.0815 16.0001 16.2906 16.0001Z" fill="#303030"/>
</svg>
