<svg width="24" height="24" viewBox="0 0 24 24" fill="none" xmlns="http://www.w3.org/2000/svg">
<path d="M12.75 3.97852C12.75 2.32166 11.4069 0.978516 9.75 0.978516C8.09315 0.978516 6.75 2.32166 6.75 3.97852L6.75 14.0719C5.53565 14.9841 4.75 16.4362 4.75 18.0719C4.75 20.8333 6.98858 23.0719 9.75 23.0719C12.5114 23.0719 14.75 20.8333 14.75 18.0719C14.75 16.4361 13.9644 14.9837 12.75 14.0715L12.75 3.97852Z" stroke="#303030" stroke-width="1.5"/>
<path fill-rule="evenodd" clip-rule="evenodd" d="M10.5008 15.4315V6.31006H9.00084V15.4317C7.88872 15.756 7.07617 16.7831 7.07617 18C7.07617 19.4774 8.27381 20.675 9.75117 20.675C11.2285 20.675 12.4262 19.4774 12.4262 18C12.4262 16.7829 11.6133 15.7556 10.5008 15.4315Z" fill="#303030"/>
<circle cx="18.25" cy="3.5" r="1.5" stroke="#303030" stroke-width="1.5"/>
</svg>
