<svg width="24" height="24" viewBox="0 0 24 24" fill="none" xmlns="http://www.w3.org/2000/svg">
<g clip-path="url(#clip0_8003_19839)">
<path fill-rule="evenodd" clip-rule="evenodd" d="M12 1.75C10.3144 1.75 8.65477 2.16571 7.16819 2.96031C5.6816 3.7549 4.41392 4.90386 3.47744 6.3054C2.54096 7.70695 1.96458 9.31782 1.79936 10.9953C1.63414 12.6728 1.88518 14.3652 2.53024 15.9225C3.1753 17.4798 4.19447 18.854 5.49747 19.9234C6.80048 20.9927 8.34709 21.7242 10.0003 22.053C11.6536 22.3819 13.3624 22.2979 14.9754 21.8086C16.5885 21.3193 18.0559 20.4398 19.2478 19.2478L20.3085 20.3085C18.9422 21.6748 17.2599 22.6831 15.4108 23.244C13.5618 23.805 11.6029 23.9012 9.70769 23.5242C7.81252 23.1473 6.03957 22.3087 4.54588 21.0829C3.05219 19.857 1.88388 18.2817 1.14442 16.4965C0.40496 14.7113 0.117184 12.7713 0.306582 10.8483C0.495981 8.9253 1.15671 7.0787 2.23024 5.47205C3.30376 3.8654 4.75696 2.5483 6.46109 1.63743C8.16523 0.726546 10.0677 0.25 12 0.25V1.75ZM17.1687 1.46782C16.4818 1.13485 15.7581 0.866939 15.0061 0.671875L14.6295 2.12382C15.2847 2.29378 15.9155 2.52726 16.5145 2.81761L17.1687 1.46782ZM20.8258 4.23209C20.3139 3.65788 19.7467 3.13477 19.133 2.67079L18.2284 3.86727C18.7641 4.27233 19.2593 4.72906 19.7062 5.23035L20.8258 4.23209ZM23.1512 8.18431C22.8961 7.45048 22.5707 6.75079 22.1834 6.09295L20.8908 6.85399C21.2285 7.42762 21.5121 8.03747 21.7344 8.67684L23.1512 8.18431ZM23.7917 11.5729C23.776 11.185 23.7417 10.802 23.6895 10.4248L22.2037 10.6303C22.2492 10.9595 22.2792 11.2941 22.2929 11.6335C22.3103 12.0632 22.301 12.4874 22.2665 12.9047L23.7614 13.0282C23.8009 12.5498 23.8116 12.0641 23.7917 11.5729ZM22.604 17.2195C22.8173 16.7852 23.0045 16.3362 23.1637 15.8743L21.7456 15.3856C21.6068 15.788 21.4436 16.1795 21.2577 16.5582C21.1224 16.8335 20.9752 17.102 20.8165 17.3631L22.0983 18.1422C22.2802 17.843 22.449 17.5352 22.604 17.2195ZM12.75 4V11.25H18V12.75H12H11.25V12V4H12.75Z" fill="#303030"/>
</g>
<defs>
<clipPath id="clip0_8003_19839">
<rect width="24" height="24" fill="white"/>
</clipPath>
</defs>
</svg>
