<svg width="24" height="24" viewBox="0 0 24 24" fill="none" xmlns="http://www.w3.org/2000/svg">
<path fill-rule="evenodd" clip-rule="evenodd" d="M8.75 5.75C8.75 3.95507 10.2051 2.5 12 2.5C13.7949 2.5 15.25 3.95507 15.25 5.75C15.25 7.54493 13.7949 9 12 9C10.2051 9 8.75 7.54493 8.75 5.75ZM12 1C9.37665 1 7.25 3.12665 7.25 5.75C7.25 8.37335 9.37665 10.5 12 10.5C14.6234 10.5 16.75 8.37335 16.75 5.75C16.75 3.12665 14.6234 1 12 1ZM3.75 22C3.75 17.4437 7.44365 13.75 12 13.75C16.5563 13.75 20.25 17.4437 20.25 22H21.75C21.75 16.6152 17.3848 12.25 12 12.25C6.61522 12.25 2.25 16.6152 2.25 22H3.75Z" fill="#303030"/>
</svg>
