<svg width="24" height="24" viewBox="0 0 24 24" fill="none" xmlns="http://www.w3.org/2000/svg">
<path fill-rule="evenodd" clip-rule="evenodd" d="M12.0566 4.57209C8.19243 4.50701 4.43584 5.84565 1.48364 8.33968L0.515625 7.19383C3.74517 4.4655 7.85467 3.00111 12.0818 3.0723C16.3089 3.14349 20.3668 4.74543 23.5027 7.58096L22.4966 8.69356C19.6301 6.10154 15.9207 4.63717 12.0566 4.57209ZM3.91723 11.5242C6.08976 9.68888 8.85422 8.70378 11.6978 8.75167C14.5414 8.79956 17.2712 9.87718 19.3807 11.7847L20.3867 10.6721C18.0079 8.52108 14.9297 7.30588 11.7231 7.25188C8.51647 7.19788 5.39909 8.30873 2.94922 10.3784L3.91723 11.5242ZM11.8655 15.8937C10.7417 15.8748 9.64922 16.2641 8.79065 16.9894L11.7873 20.5366L14.9018 17.0924C14.0681 16.3385 12.9893 15.9127 11.8655 15.8937ZM6.87621 14.7246C8.28298 13.5362 10.073 12.8983 11.9144 12.9293C13.7557 12.9603 15.5232 13.6581 16.8892 14.8932L17.8952 13.7806C16.26 12.302 14.1439 11.4666 11.9396 11.4295C9.73529 11.3924 7.59231 12.156 5.9082 13.5788L6.87621 14.7246Z" fill="#303030"/>
</svg>
