<svg width="160" height="160" viewBox="0 0 160 160" fill="none" xmlns="http://www.w3.org/2000/svg">
<g opacity="0.1">
<path fill-rule="evenodd" clip-rule="evenodd" d="M40.5274 49.5824L32.5 47.5L34.7506 65.3756L76.8431 87.5V77.6219L42.067 62.5877L40.5274 49.5824ZM119.47 49.5824L118.128 62.5877L83.4505 77.6219V87.5L125.465 65.3756L127.5 47.5L119.47 49.5824ZM80.2451 59.8125L113.845 51.0556L113.215 59.9979L80.2451 72.3889L47.1766 59.9979L46.449 51.0556L80.2451 59.8125Z" fill="white"/>
<path fill-rule="evenodd" clip-rule="evenodd" d="M47.5 114.71V97.7901H54.1966C58.1515 97.7901 60.6506 100.038 60.6506 103.494C60.6506 107.289 57.5935 109.271 53.8569 109.271H50.4844V114.71H47.5ZM50.4844 106.588H53.954C56.2105 106.588 57.6177 105.331 57.6177 103.519C57.6177 101.537 56.1862 100.497 53.954 100.497H50.4844V106.588ZM72.4425 114.71V97.7901H80.0126C83.9917 97.7901 86.321 99.9171 86.321 103.18C86.321 105.96 84.6468 107.628 82.2691 108.305L86.8548 114.71H83.3366L79.1148 108.812H75.4268V114.71H72.4425ZM75.4268 106.177H79.7942C81.9294 106.177 83.2881 105.066 83.2881 103.301C83.2881 101.488 81.9779 100.497 79.7699 100.497H75.4268V106.177ZM106.095 115C100.879 115 97.2394 111.06 97.2394 106.25C97.2394 101.488 100.927 97.5 106.144 97.5C111.361 97.5 115 101.44 115 106.25C115 111.012 111.312 115 106.095 115ZM106.144 112.269C109.517 112.269 111.87 109.586 111.87 106.25C111.87 102.963 109.468 100.231 106.095 100.231C102.723 100.231 100.369 102.914 100.369 106.25C100.369 109.537 102.771 112.269 106.144 112.269Z" fill="white"/>
</g>
</svg>
