<svg width="24" height="24" viewBox="0 0 24 24" fill="none" xmlns="http://www.w3.org/2000/svg">
<path fill-rule="evenodd" clip-rule="evenodd" d="M18 12C18 11.746 17.9842 11.4957 17.9536 11.25H24V12.75H17.9536C17.9842 12.5043 18 12.254 18 12ZM15.6797 16.7395C16.0759 16.4315 16.4324 16.0749 16.7403 15.6787L21.0165 19.9549L19.9559 21.0156L15.6797 16.7395ZM12 18C12.254 18 12.5043 17.9842 12.75 17.9536V24H11.25V17.9536C11.4957 17.9842 11.746 18 12 18ZM7.25971 15.6787C7.56762 16.0749 7.92412 16.4315 8.32025 16.7395L4.04414 21.0156L2.98348 19.9549L7.25971 15.6787ZM6 12C6 12.254 6.01578 12.5043 6.04642 12.75H0V11.25H6.04642C6.01578 11.4957 6 11.746 6 12ZM16.7395 8.32025L21.0147 4.04504L19.954 2.98438L15.6787 7.25971C16.0749 7.56762 16.4315 7.92412 16.7395 8.32025ZM12.75 6.04642V0H11.25V6.04642C11.4957 6.01578 11.746 6 12 6C12.254 6 12.5043 6.01578 12.75 6.04642ZM8.32128 7.25971L4.04596 2.98438L2.98529 4.04504L7.26051 8.32025C7.56851 7.92412 7.92508 7.56762 8.32128 7.25971ZM12 15C13.6569 15 15 13.6569 15 12C15 10.3431 13.6569 9 12 9C10.3431 9 9 10.3431 9 12C9 13.6569 10.3431 15 12 15Z" fill="#ADADAD"/>
</svg>
