<svg width="40" height="40" viewBox="0 0 40 40" fill="none" xmlns="http://www.w3.org/2000/svg">
<circle cx="20" cy="20" r="19.5" stroke="#FF725C" stroke-opacity="0.3"/>
<mask id="mask0_366_85247" style="mask-type:alpha" maskUnits="userSpaceOnUse" x="0" y="0" width="40" height="40">
<path d="M35.0581 9.53902C37.1229 12.5057 38.3335 16.1114 38.3335 19.9999C38.3335 20.5148 38.3123 21.0247 38.2706 21.5289L39.9185 21.8194C39.9725 21.2201 40.0002 20.6132 40.0002 19.9999C40.0002 15.7034 38.6454 11.7233 36.3397 8.46362L35.0581 9.53902Z" fill="#FF725C"/>
<path d="M39.3431 25.1028L37.6952 24.8123C36.5652 28.9772 34.004 32.5532 30.5723 34.9797L31.4089 36.4288C35.2557 33.7524 38.1179 29.7596 39.3431 25.1028Z" fill="#FF725C"/>
<path d="M28.5238 38.0978L27.6871 36.6487C25.3493 37.7299 22.7452 38.3332 20.0002 38.3332C17.255 38.3332 14.6507 37.7298 12.3127 36.6484L11.4761 38.0976C14.0619 39.3176 16.9514 39.9998 20.0002 39.9998C23.0488 39.9998 25.9381 39.3177 28.5238 38.0978Z" fill="#FF725C"/>
<path d="M8.59051 36.4284L9.42716 34.9793C5.9956 32.5529 3.43458 28.9769 2.30465 24.8121L0.656738 25.1027C1.88187 29.7593 4.74394 33.752 8.59051 36.4284Z" fill="#FF725C"/>
<path d="M0.0816492 21.8194L1.72951 21.5288C1.68789 21.0247 1.66667 20.5148 1.66667 19.9999C1.66667 16.112 2.87691 12.5067 4.94123 9.54025L3.65962 8.46484C1.35445 11.7243 0 15.704 0 19.9999C0 20.6132 0.027608 21.2201 0.0816492 21.8194Z" fill="#FF725C"/>
<path d="M18.3328 0.0683594C13.4476 0.471453 9.06026 2.63027 5.80322 5.91236L7.08482 6.98775C10.029 4.06545 13.9595 2.13549 18.3328 1.74131V0.0683594Z" fill="#FF725C"/>
</mask>
<g mask="url(#mask0_366_85247)">
<circle cx="20" cy="20" r="19.5" stroke="#FF725C"/>
</g>
<g clip-path="url(#clip0_366_85247)">
<path fill-rule="evenodd" clip-rule="evenodd" d="M22.0002 11.9999H18.0002V12.6833H13.3335V13.9833H26.6668V12.6833H22.0002V11.9999ZM14.6668 14.8947H13.9947L14.0172 15.5665L14.4123 27.355L14.4333 27.9832H15.0619H24.9384H25.567L25.5881 27.355L25.9831 15.5665L26.0056 14.8947H25.3335H14.6668ZM15.6905 26.6832L15.339 16.1947H24.6613L24.3099 26.6832H15.6905ZM16.6835 17.3333V25.3333H17.9835V17.3333H16.6835ZM19.3502 25.3333V17.3333H20.6502V25.3333H19.3502ZM22.0168 17.3333V25.3333H23.3168V17.3333H22.0168Z" fill="#FF725C"/>
</g>
<defs>
<clipPath id="clip0_366_85247">
<rect width="16" height="16" fill="white" transform="translate(12 12)"/>
</clipPath>
</defs>
</svg>
