<svg width="136" height="136" viewBox="0 0 136 136" fill="none" xmlns="http://www.w3.org/2000/svg">
<path d="M0 68C0 30.4446 30.4446 0 68 0C105.555 0 136 30.4446 136 68C136 105.555 105.555 136 68 136C30.4446 136 0 105.555 0 68Z" fill="#404040"/>
<path d="M30.5 61.3792V74.621C30.5 75.9469 31.449 77.0886 32.7674 77.3486L42.1625 79.0449C42.45 79.0968 42.7003 79.2718 42.8479 79.5238L45.2896 83.6948C45.4458 83.9615 45.4698 84.2855 45.3548 84.5723L41.7579 93.5394C41.327 94.7954 41.855 96.1768 43.0194 96.8397L54.6473 103.461C55.8116 104.124 57.2886 103.884 58.1762 102.888L64.7804 95.574C64.97 95.3641 65.2397 95.2442 65.5226 95.2442L70.4774 95.2442C70.7603 95.2442 71.03 95.3641 71.2196 95.574L77.8238 102.888C78.7114 103.884 80.1884 104.124 81.3527 103.461L92.9806 96.8398C94.145 96.1768 94.673 94.7954 94.2421 93.5394L90.6452 84.5723C90.5302 84.2855 90.5542 83.9615 90.7104 83.6948L93.1521 79.5238C93.2997 79.2718 93.55 79.0968 93.8375 79.0449L103.233 77.3486C104.551 77.0886 105.5 75.9469 105.5 74.621V61.3792C105.5 60.0532 104.551 58.9116 103.233 58.6516L93.8375 56.9552C93.55 56.9033 93.2997 56.7284 93.1521 56.4764L90.7104 52.3053C90.5542 52.0386 90.5302 51.7147 90.6452 51.4278L94.2421 42.4608C94.673 41.2047 94.145 39.8234 92.9806 39.1604L81.3527 32.5395C80.1884 31.8766 78.7114 32.1163 77.8238 33.1123L71.2196 40.4261C71.03 40.6361 70.7603 40.7559 70.4774 40.7559L65.5226 40.7559C65.2397 40.7559 64.97 40.6361 64.7804 40.4261L58.1762 33.1123C57.2886 32.1163 55.8116 31.8766 54.6473 32.5395L43.0194 39.1604C41.855 39.8234 41.327 41.2047 41.7579 42.4608L45.3548 51.4278C45.4698 51.7147 45.4458 52.0386 45.2896 52.3053L42.8479 56.4764C42.7003 56.7284 42.45 56.9033 42.1625 56.9552L32.7674 58.6516C31.449 58.9116 30.5 60.0532 30.5 61.3792Z" stroke="#DBDBDB" stroke-width="1.5"/>
<path d="M83.7852 68.0001L60.1069 81.6707L60.1069 54.3295L83.7852 68.0001Z" fill="#DBDBDB"/>
</svg>
