<svg width="136" height="136" viewBox="0 0 136 136" fill="none" xmlns="http://www.w3.org/2000/svg">
<path d="M0 68C0 30.4446 30.4446 0 68 0C105.555 0 136 30.4446 136 68C136 105.555 105.555 136 68 136C30.4446 136 0 105.555 0 68Z" fill="#404040"/>
<path d="M104 68C104 87.8833 87.8836 104 68.0002 104C53.6928 104 41.3339 95.6533 35.5287 83.5627M32.0002 68C32.0002 48.1167 48.119 32 68.0002 32C81.9818 32 94.1009 39.9691 100.063 51.6132" stroke="#FF725C" stroke-width="1.5"/>
<path fill-rule="evenodd" clip-rule="evenodd" d="M39.0023 60.9998L32.0011 72.9998L25.0023 60.9998H39.0023ZM104.001 60.9998L111.001 72.9998H97.0009L104.001 60.9998Z" fill="#FF725C"/>
</svg>
