<svg width="16" height="16" viewBox="0 0 16 16" fill="none" xmlns="http://www.w3.org/2000/svg">
<path d="M13 15.3333C14.2866 15.3333 15.3334 14.2131 15.3334 12.836C15.3334 11.0907 13.9971 9.32556 13.0406 8C12.0654 9.29537 10.6667 11.1131 10.6667 12.8363C10.6667 14.2131 11.7135 15.3333 13 15.3333Z" stroke="#303030" stroke-width="1.3"/>
<path d="M0.666687 10V10C2.41049 7.67493 5.55417 6.90599 8.1743 8.16365L8.66669 8.4" stroke="#303030" stroke-width="1.3" stroke-linejoin="round"/>
<path d="M0.666687 6L0.820786 5.79453C2.47501 3.5889 5.45722 2.85946 7.94276 4.05252V4.05252C10.3284 5.19762 13.1871 4.57555 14.8811 2.54266L15.3334 2" stroke="#303030" stroke-width="1.3" stroke-linejoin="round"/>
<path d="M0.666687 14L0.893601 13.6974C2.50551 11.5482 5.41141 10.8375 7.83335 12V12" stroke="#303030" stroke-width="1.3" stroke-linejoin="round"/>
</svg>
