<svg width="16" height="16" viewBox="0 0 16 16" fill="none" xmlns="http://www.w3.org/2000/svg">
<path fill-rule="evenodd" clip-rule="evenodd" d="M7.99993 1.3166C4.30883 1.3166 1.3166 4.30883 1.3166 7.99993C1.3166 11.691 4.30883 14.6833 7.99993 14.6833C11.691 14.6833 14.6833 11.691 14.6833 7.99993C14.6833 4.30883 11.691 1.3166 7.99993 1.3166ZM0.0166016 7.99993C0.0166016 3.59086 3.59086 0.0166016 7.99993 0.0166016C12.409 0.0166016 15.9833 3.59086 15.9833 7.99993C15.9833 12.409 12.409 15.9833 7.99993 15.9833C3.59086 15.9833 0.0166016 12.409 0.0166016 7.99993ZM6.6666 6.52897H7.99993H8.64993V7.17897V11.9999H7.34993V7.82897H6.6666V6.52897ZM8.74994 4.62932C8.74994 4.2151 8.41415 3.87931 7.99994 3.87931C7.58572 3.87931 7.24994 4.2151 7.24994 4.62931L7.24993 4.70401C7.24993 5.11823 7.58572 5.45402 7.99993 5.45402C8.41414 5.45402 8.74993 5.11823 8.74994 4.70402V4.62932Z" fill="#ADADAD"/>
</svg>
