<svg width="24" height="24" viewBox="0 0 24 24" fill="none" xmlns="http://www.w3.org/2000/svg">
<path d="M12 20.6191C16.9043 20.6191 20.9648 16.5498 20.9648 11.6543C20.9648 6.75 16.8955 2.68945 11.9912 2.68945C7.0957 2.68945 3.03516 6.75 3.03516 11.6543C3.03516 16.5498 7.10449 20.6191 12 20.6191ZM8.90625 15.4863C8.51074 15.4863 8.18555 15.1523 8.18555 14.748C8.18555 14.5547 8.26465 14.3789 8.39648 14.2383L10.9717 11.6631L8.39648 9.08789C8.26465 8.94727 8.18555 8.77148 8.18555 8.57812C8.18555 8.17383 8.51074 7.85742 8.90625 7.85742C9.11719 7.85742 9.28418 7.92773 9.41602 8.06836L12 10.6436L14.6104 8.05957C14.7598 7.91016 14.918 7.83984 15.1113 7.83984C15.5068 7.83984 15.832 8.16504 15.832 8.56055C15.832 8.7627 15.7705 8.9209 15.6211 9.0791L13.0371 11.6631L15.6123 14.2295C15.7529 14.3789 15.8232 14.5459 15.8232 14.748C15.8232 15.1523 15.498 15.4863 15.0938 15.4863C14.8916 15.4863 14.7158 15.3984 14.5752 15.2666L12 12.6914L9.44238 15.2666C9.30176 15.4072 9.11719 15.4863 8.90625 15.4863Z" fill="#787878"/>
</svg>
