<svg width="88" height="88" viewBox="0 0 88 88" fill="none" xmlns="http://www.w3.org/2000/svg">
<path fill-rule="evenodd" clip-rule="evenodd" d="M29.1953 7.25C23.0456 7.25 17.6272 8.74896 13.7258 10.7864C11.7767 11.8044 10.183 12.9689 9.06592 14.1704C7.9628 15.3569 7.25024 16.662 7.25024 17.95V64.5276C7.25024 71.2079 10.3042 75.3604 14.6268 77.7993C18.8898 80.2045 24.3409 80.9232 29.1937 80.9329C34.3419 80.9442 39.6552 80.0798 43.706 77.5867C47.8099 75.0609 50.5533 70.8989 50.5533 64.5276V17.95C50.5533 16.6783 49.8935 15.3782 48.8429 14.1854C47.7817 12.9805 46.2606 11.8128 44.3821 10.7922C40.6219 8.74941 35.3458 7.25 29.1953 7.25ZM8.75024 17.95C8.75024 17.2063 9.17882 16.2519 10.1645 15.1918C11.1361 14.1467 12.5788 13.0777 14.4202 12.116C18.0999 10.1944 23.279 8.75 29.1953 8.75C35.1108 8.75 40.1386 10.1939 43.666 12.1103C45.4312 13.0692 46.7998 14.1351 47.7172 15.1768C48.6453 16.2305 49.0533 17.19 49.0533 17.95V64.5276C49.0533 70.3813 46.5774 74.0581 42.9198 76.3092C39.2089 78.5931 34.2181 79.4439 29.1968 79.4329C24.4432 79.4234 19.2968 78.7118 15.3639 76.4929C11.4907 74.3075 8.75024 70.6419 8.75024 64.5276V17.95ZM19.0649 17.4893H39.4836L39.7795 18.1501L29.2504 21.6656L18.7213 18.2331L19.0649 17.4893ZM15.9676 30.9878C13.9342 30.9878 12.3016 32.6341 12.3016 34.662V53.8333C12.3016 55.8575 13.9336 57.5075 15.9676 57.5075H41.8684C43.8996 57.5075 45.5426 55.8602 45.5426 53.8333V34.662C45.5426 32.6314 43.899 30.9878 41.8684 30.9878H15.9676ZM13.8016 34.662C13.8016 33.457 14.7681 32.4878 15.9676 32.4878H41.8684C43.0706 32.4878 44.0426 33.4598 44.0426 34.662V53.8333C44.0426 55.0329 43.0701 56.0075 41.8684 56.0075H15.9676C14.7686 56.0075 13.8016 55.0356 13.8016 53.8333V34.662ZM56.0002 16.75C55.0987 16.75 54.3787 17.0595 53.8483 17.5282L52.855 16.4042C53.6593 15.6935 54.7323 15.25 56.0002 15.25H62.0002C63.4006 15.25 64.609 15.6731 65.4681 16.5322C65.7009 16.765 65.9017 17.0235 66.0708 17.3045C66.8684 16.1098 68.2195 15.25 70.0002 15.25H76.0002C77.4006 15.25 78.609 15.6731 79.4681 16.5322C80.3272 17.3913 80.7502 18.5996 80.7502 20V74C80.7502 75.4004 80.3272 76.6087 79.4681 77.4678C78.609 78.3269 77.4006 78.75 76.0002 78.75H70.0002C68.5999 78.75 67.3915 78.3269 66.5324 77.4678C66.3311 77.2666 66.1538 77.0461 66.0002 76.8085C65.8467 77.0461 65.6693 77.2666 65.4681 77.4678C64.609 78.3269 63.4006 78.75 62.0002 78.75H56.0002C54.5999 78.75 53.3915 78.3269 52.5324 77.4678C51.6733 76.6087 51.2502 75.4004 51.2502 74H52.7502C52.7502 75.0996 53.0772 75.8913 53.5931 76.4072C54.109 76.9231 54.9006 77.25 56.0002 77.25H62.0002C63.0999 77.25 63.8915 76.9231 64.4074 76.4072C64.9233 75.8913 65.2502 75.0996 65.2502 74V20C65.2502 18.9004 64.9233 18.1087 64.4074 17.5928C63.8915 17.0769 63.0999 16.75 62.0002 16.75H56.0002ZM67.5931 76.4072C67.0772 75.8913 66.7502 75.0996 66.7502 74V20C66.7502 18.3514 67.9746 16.75 70.0002 16.75H76.0002C77.0999 16.75 77.8915 17.0769 78.4074 17.5928C78.9233 18.1087 79.2502 18.9004 79.2502 20V74C79.2502 75.0996 78.9233 75.8913 78.4074 76.4072C77.8915 76.9231 77.0999 77.25 76.0002 77.25H70.0002C68.9006 77.25 68.109 76.9231 67.5931 76.4072Z" fill="#DBDBDB"/>
</svg>
