<svg width="136" height="136" viewBox="0 0 136 136" fill="none" xmlns="http://www.w3.org/2000/svg">
<path d="M0 68C0 30.4446 30.4446 0 68 0C105.555 0 136 30.4446 136 68C136 105.555 105.555 136 68 136C30.4446 136 0 105.555 0 68Z" fill="#404040"/>
<path fill-rule="evenodd" clip-rule="evenodd" d="M88.2759 68C92.5418 68 96 71.1145 96 74.9565V101.043C96 104.885 92.5418 108 88.2759 108H47.7241C43.4582 108 40 104.885 40 101.043V74.9565C40 71.1145 43.4582 68 47.7241 68H88.2759Z" stroke="#DBDBDB" stroke-width="1.5"/>
<path d="M52 62L52 44C52 35.1634 59.1634 28 68 28V28C76.8366 28 84 35.1634 84 44V62" stroke="#DBDBDB" stroke-width="1.5"/>
</svg>
