<svg width="16" height="16" viewBox="0 0 16 16" fill="none" xmlns="http://www.w3.org/2000/svg">
<path fill-rule="evenodd" clip-rule="evenodd" d="M2.74945 14.1526H0.957944L0.957944 15.4526H4.45794H5.10794V14.8026L5.10794 11.3026H3.80794L3.80794 13.3668C3.67747 13.2433 3.55739 13.125 3.46416 13.0302L3.45547 13.0214L3.44645 13.0129C2.13661 11.7798 1.31758 10.0228 1.31758 8.07024C1.31758 4.33445 4.31564 1.3166 8.00091 1.3166C11.6862 1.3166 14.6842 4.33445 14.6842 8.07024C14.6842 10.6971 13.2008 12.9718 11.0361 14.089L11.6323 15.2442C14.2166 13.9105 15.9842 11.1976 15.9842 8.07024C15.9842 3.6282 12.4158 0.0166016 8.00091 0.0166016C3.586 0.0166016 0.0175781 3.6282 0.0175781 8.07024C0.0175781 10.3893 0.990163 12.4814 2.5463 13.9509C2.60549 14.0109 2.67426 14.0794 2.74945 14.1526Z" fill="#5AE4AF"/>
</svg>
