<svg width="24" height="24" viewBox="0 0 24 24" fill="none" xmlns="http://www.w3.org/2000/svg">
<path fill-rule="evenodd" clip-rule="evenodd" d="M0.75 2.5C0.75 1.5335 1.5335 0.75 2.5 0.75H13.5C14.4665 0.75 15.25 1.5335 15.25 2.5V21.5C15.25 22.4665 14.4665 23.25 13.5 23.25H2.5C1.5335 23.25 0.75 22.4665 0.75 21.5V2.5ZM2.5 2.25C2.36193 2.25 2.25 2.36193 2.25 2.5V18H13.75V2.5C13.75 2.36193 13.6381 2.25 13.5 2.25H2.5ZM2.25 21.5V19.5H13.75V21.5C13.75 21.6381 13.6381 21.75 13.5 21.75H2.5C2.36193 21.75 2.25 21.6381 2.25 21.5ZM22.25 12C22.25 8.58868 21.1424 5.55483 19.4224 3.47843L20.5776 2.52157C22.5438 4.8953 23.75 8.27785 23.75 12C23.75 15.7221 22.5438 19.1047 20.5776 21.4784L19.4224 20.5216C21.1424 18.4452 22.25 15.4113 22.25 12ZM16.4224 6.47843C17.528 7.81314 18.25 9.77759 18.25 12C18.25 14.2224 17.528 16.1869 16.4224 17.5216L17.5776 18.4784C18.9294 16.8464 19.75 14.5332 19.75 12C19.75 9.46676 18.9294 7.15361 17.5776 5.52157L16.4224 6.47843ZM11.5 4.5H4.5V6H11.5V4.5Z" fill="#DBDBDB"/>
</svg>
