<svg width="16" height="16" viewBox="0 0 16 16" fill="none" xmlns="http://www.w3.org/2000/svg">
<path fill-rule="evenodd" clip-rule="evenodd" d="M7.35 0.0166016H8C12.4091 0.0166016 15.9833 3.59086 15.9833 7.99993C15.9833 12.409 12.4091 15.9833 8 15.9833C3.59092 15.9833 0.0166626 12.409 0.0166626 7.99993C0.0166626 5.33063 1.32735 2.96743 3.3374 1.519L3.86475 1.13899L4.62476 2.19369L4.09741 2.5737C2.41185 3.7883 1.31666 5.76621 1.31666 7.99993C1.31666 11.691 4.30889 14.6833 8 14.6833C11.6911 14.6833 14.6833 11.691 14.6833 7.99993C14.6833 4.52799 12.0359 1.6744 8.64961 1.34777V2.66665V3.31665H7.34961V2.66665V0.777362V0.127362H7.35V0.0166016ZM6.50147 5.68698L6.08036 5.19183L5.09007 6.03404L5.51118 6.52919L7.83166 9.25768L8.25277 9.75283L9.24306 8.91062L8.82196 8.41547L6.50147 5.68698Z" fill="#303030"/>
</svg>
