<svg width="24" height="24" viewBox="0 0 24 24" fill="none" xmlns="http://www.w3.org/2000/svg">
<path fill-rule="evenodd" clip-rule="evenodd" d="M3.17464 8.97474C4.35355 5.22123 7.86062 2.5 12.0013 2.5C15.7741 2.5 19.0209 4.75921 20.4598 8H17.0021V9.5H22.2521H23.0021V8.75V3.5H21.5021V6.71618C19.697 3.31626 16.1204 1 12.0013 1C7.1867 1 3.11319 4.16455 1.74357 8.52526L3.17464 8.97474ZM2.50071 20.5V17.2838C4.3058 20.6837 7.88243 23 12.0015 23C16.8161 23 20.8896 19.8354 22.2592 15.4747L20.8281 15.0253C19.6492 18.7788 16.1422 21.5 12.0015 21.5C8.22865 21.5 4.98185 19.2408 3.54295 16H7.00071V14.5H1.75071H1.00071V15.25V20.5H2.50071Z" fill="#5AE4AF"/>
</svg>
