<?xml version="1.0" encoding="UTF-8"?>
<svg width="24px" height="24px" viewBox="0 0 24 24" version="1.1" xmlns="http://www.w3.org/2000/svg" xmlns:xlink="http://www.w3.org/1999/xlink" style="background: #181818;">
    <!-- Generator: sketchtool 61 (101010) - https://sketch.com -->
    <title>7FBDC38D-0E0A-4FE6-B133-951009887F2A</title>
    <desc>Created with sketchtool.</desc>
    <g id="Symbols" stroke="none" stroke-width="1" fill="none" fill-rule="evenodd">
        <g id="Icon-/-a.HubStatusIcon-PartiallyArmed">
            <rect fill="none" x="0" y="0" width="24" height="24"></rect>
            <path d="M15.1419058,17.9699642 L16.7856468,19.6135304 C15.3992352,20.4893398 13.7605257,21 12,21 C10.2394743,21 8.60076479,20.4893398 7.21435325,19.6135304 L8.85809423,17.9699642 C9.79630508,18.4665748 10.8640049,18.75 12,18.75 C13.1359951,18.75 14.2036949,18.4665748 15.1419058,17.9699642 Z M4.38646961,7.21435325 L6.03003582,8.85809423 C5.5334252,9.79630508 5.25,10.8640049 5.25,12 C5.25,13.1359951 5.5334252,14.2036949 6.03003582,15.1419058 L4.38646961,16.7856468 C3.5106602,15.3992352 3,13.7605257 3,12 C3,10.2394743 3.5106602,8.60076479 4.38646961,7.21435325 Z M21,12 C21,13.7605257 20.4893398,15.3992352 19.6135304,16.7856468 L17.9699642,15.1419058 C18.4665748,14.2036949 18.75,13.1359951 18.75,12 C18.75,10.8640049 18.4665748,9.79630508 17.9699642,8.85809423 L19.6135304,7.21435325 C20.4893398,8.60076479 21,10.2394743 21,12 Z M12,3 C13.7605257,3 15.3992352,3.5106602 16.7856468,4.38646961 L15.1419058,6.03003582 C14.2036949,5.5334252 13.1359951,5.25 12,5.25 C10.8640049,5.25 9.79630508,5.5334252 8.85809423,6.03003582 L7.21435325,4.38646961 C8.60076479,3.5106602 10.2394743,3 12,3 Z" id="Combined-Shape" fill="#5AE4AA"></path>
        </g>
        <g id="Titles" transform="translate(-2096.000000, -910.000000)"></g>
    </g>
</svg>