<svg width="144" height="144" viewBox="0 0 144 144" fill="none" xmlns="http://www.w3.org/2000/svg">
<g opacity="0.6">
<path fill-rule="evenodd" clip-rule="evenodd" d="M80.4615 0.697862C84.6456 0.783275 88.8294 0.913589 93.0106 1.08931C96.381 1.2311 99.7484 1.45038 103.115 1.66796C107.605 1.95796 112.084 2.35583 116.504 3.24254C120.352 4.01447 124.066 5.16586 127.511 7.09813C131.156 9.14249 134.08 11.9343 136.265 15.4925C138.576 19.2555 139.86 23.3962 140.699 27.6978C141.364 31.113 141.729 34.5645 142.01 38.0293C142.34 42.1033 142.581 46.1826 142.766 50.2647C142.986 55.142 143.133 60.0216 143.208 64.9048C143.268 68.8289 143.282 72.7522 143.241 76.6757C143.21 79.7374 143.157 82.7998 143.051 85.8596C142.92 89.6629 142.75 93.4652 142.551 97.2654C142.399 100.189 142.218 103.112 141.974 106.03C141.567 110.88 140.997 115.71 139.599 120.398C138.132 125.321 135.83 129.755 131.967 133.256C129.494 135.497 126.649 137.125 123.545 138.312C119.861 139.719 116.03 140.511 112.132 141.028C108.358 141.528 104.566 141.794 100.769 142.025C97.582 142.218 94.3948 142.382 91.2057 142.522C88.0979 142.66 84.9892 142.731 81.8802 142.817C75.7899 142.984 69.6991 142.932 63.6095 142.858C59.6403 142.81 55.6719 142.641 51.7056 142.47C48.2362 142.32 44.7682 142.122 41.3033 141.892C36.3184 141.561 31.3414 141.138 26.4535 140.029C23.0497 139.257 19.7613 138.158 16.7111 136.429C12.4299 134.003 9.18735 130.582 6.95617 126.194C4.95245 122.254 3.87643 118.035 3.18243 113.701C2.61683 110.169 2.31766 106.61 2.07603 103.044C1.83441 99.4784 1.62551 95.9114 1.47399 92.3404C1.35402 89.5128 1.26813 86.6848 1.17482 83.8565C0.981958 78.0136 0.978246 72.1699 1.02448 66.326C1.04895 63.2144 1.12774 60.1029 1.2278 56.9928C1.32466 53.983 1.44463 50.973 1.61876 47.9668C1.83592 44.2182 2.03537 40.4683 2.36896 36.7263C2.7454 32.5017 3.26899 28.303 4.37116 24.198C5.44533 20.1976 7.04392 16.4369 9.62775 13.1564C12.6881 9.27077 16.675 6.70212 21.2806 5.02424C25.2391 3.582 29.3489 2.83387 33.5148 2.34199C37.2612 1.89956 41.0227 1.6499 44.7882 1.44109C48.2729 1.24799 51.7579 1.07935 55.2453 0.941948C60.7194 0.72622 66.1945 0.611773 71.6726 0.686383C74.6024 0.686383 77.533 0.638106 80.4615 0.697862Z" stroke="#787878"/>
<ellipse cx="87.8065" cy="47.6833" rx="13.2619" ry="13.2619" stroke="#DBDBDB"/>
<rect x="36.4644" y="27.6875" width="71.3377" height="39.9914" rx="19.9957" stroke="#DBDBDB"/>
<ellipse cx="56.46" cy="95.9084" rx="13.2619" ry="13.2619" fill="#5E5E5E"/>
<rect x="36.4644" y="75.9126" width="71.3377" height="39.9914" rx="19.9957" stroke="#787878"/>
</g>
</svg>
