<?xml version="1.0" encoding="UTF-8"?>
<svg width="16px" height="16px" viewBox="0 0 16 16" version="1.1" xmlns="http://www.w3.org/2000/svg" xmlns:xlink="http://www.w3.org/1999/xlink">
    <!-- Generator: sketchtool 61.2 (101010) - https://sketch.com -->
    <title>0BFDDE15-328C-4490-81C5-F2D148632C36</title>
    <desc>Created with sketchtool.</desc>
    <g id="Symbols" stroke="none" stroke-width="1" fill="none" fill-rule="evenodd">
        <g id="Complete-/-Object-/-Header" transform="translate(-104.000000, -127.000000)" fill="#787878" fill-rule="nonzero">
            <g id="Group-6" transform="translate(104.000000, 88.000000)">
                <g id="Group-4" transform="translate(0.000000, 36.000000)">
                    <g id="Icon-/-Mini-/-Phone" transform="translate(-0.000332, 2.999689)">
                        <path d="M1.50032847,16.0003063 C9.50342218,16.0003063 16.0002939,9.51594674 16.0002939,1.50034085 C16.0002939,1.15033558 15.7596634,0.847205204 15.4190575,0.76908039 L12.1690652,0.0190821782 C11.8159167,-0.0621554211 11.4534297,0.122231346 11.3096923,0.45346835 L9.80969586,3.95346 C9.67844007,4.25970317 9.76593376,4.61907731 10.025302,4.82845792 L11.9190658,6.37844202 C10.7940685,8.77531741 8.828436,10.7690565 6.38157293,11.9159349 L4.83155832,10.0222016 C4.61906493,9.76283336 4.26283409,9.67530916 3.95656041,9.80656495 L0.45656875,11.3065614 C0.122218961,11.4534421 -0.0621678061,11.8159291 0.0190697932,12.1690776 L0.769068005,15.4190699 C0.847192819,15.756563 1.14721041,16.0003063 1.50032847,16.0003063 Z" id=""></path>
                    </g>
                </g>
            </g>
        </g>
    </g>
</svg>