<svg width="88" height="89" viewBox="0 0 88 89" fill="none" xmlns="http://www.w3.org/2000/svg">
<path d="M38 88C27 84 20 75.5759 20 65V62C20 58 23 56 26 56C29 56 27.8636 56 28.4545 56M76 68V52C76 48.431 72.834 46 70 46C67.1641 46 64 48.431 64 52V57V47C64 43.431 60.9545 41 58 41C55.0455 41 51.9713 43.431 51.9713 47M40 43C40 39.5 43.0455 37 46 37C48.9545 37 52 39.431 52 43L51.914 57M28 68V26.1108C28 22.5419 31.0455 20 34 20C36.9545 20 40 22.431 40 26V57" stroke="#DBDBDB" stroke-width="1.5"/>
<path fill-rule="evenodd" clip-rule="evenodd" d="M28 31.0011C25.493 32.8842 22.3768 34 19 34C10.7157 34 4 27.2843 4 19C4 10.7157 10.7157 4 19 4C27.2843 4 34 10.7157 34 19C34 19.3361 33.989 19.6695 33.9672 20.0001C30.6686 20.0177 28 22.6972 28 26V31.0011ZM21.8468 9.5829C19.8045 9.02589 17.6385 9.17051 15.6858 9.99379C13.7332 10.817 12.1048 12.2718 11.0509 14.1298L12.3556 14.8698C13.2482 13.2963 14.6244 12.0691 16.2685 11.376C17.9124 10.6829 19.7342 10.5615 21.4522 11.03C23.1703 11.4986 24.6911 12.5319 25.7771 13.9724C26.8633 15.4132 27.4533 17.1804 27.4533 18.9998C27.4533 20.8192 26.8633 22.5864 25.7771 24.0272C24.6911 25.4677 23.1703 26.501 21.4522 26.9696C19.7342 27.4381 17.9124 27.3167 16.2685 26.6236C14.6244 25.9305 13.2482 24.7033 12.3556 23.1298L11.0509 23.8698C12.1048 25.7278 13.7332 27.1826 15.6858 28.0058C17.6385 28.8291 19.8045 28.9737 21.8468 28.4167C23.889 27.8597 25.691 26.6332 26.9749 24.9301C28.2586 23.2273 28.9533 21.1428 28.9533 18.9998C28.9533 16.8568 28.2586 14.7723 26.9749 13.0695C25.691 11.3664 23.889 10.1399 21.8468 9.5829Z" fill="#DBDBDB"/>
</svg>
