<svg width="24" height="24" viewBox="0 0 24 24" fill="none" xmlns="http://www.w3.org/2000/svg">
<path d="M13.6683 5.75006C13.6683 3.30998 11.6903 1.33191 9.25018 1.33191C6.81011 1.33191 4.83203 3.30998 4.83203 5.75006" stroke="#303030" stroke-width="1.5" stroke-linecap="square" stroke-linejoin="round"/>
<path d="M9.25 22.75C6.29285 21.5128 4.25 18.8609 4.25 15.7893V15.2491C4.25 14.4206 5.01233 13.75 5.95404 13.75C6.89574 13.75 7.65932 14.4206 7.65932 15.2491" stroke="#303030" stroke-width="1.5" stroke-linecap="square"/>
<path d="M10.75 14V5.75C10.75 4.92157 10.0784 4.25 9.25 4.25V4.25C8.42157 4.25 7.75 4.92157 7.75 5.75V15.25" stroke="#303030" stroke-width="1.5" stroke-linecap="square"/>
<path d="M13.75 14V9.75C13.75 8.92157 13.0784 8.25 12.25 8.25V8.25C11.4216 8.25 10.75 8.92157 10.75 9.75V14" stroke="#303030" stroke-width="1.5" stroke-linecap="square"/>
<path d="M16.75 14V11.75C16.75 10.9216 16.0784 10.25 15.25 10.25V10.25C14.4216 10.25 13.75 10.9216 13.75 11.75V14" stroke="#303030" stroke-width="1.5" stroke-linecap="square"/>
<path d="M19.75 17.25V13.75C19.75 12.9216 19.0784 12.25 18.25 12.25V12.25C17.4216 12.25 16.75 12.9216 16.75 13.75V14" stroke="#303030" stroke-width="1.5" stroke-linecap="square"/>
</svg>
