<svg width="24" height="24" viewBox="0 0 24 24" fill="none" xmlns="http://www.w3.org/2000/svg">
<g clip-path="url(#clip0)">
<path fill-rule="evenodd" clip-rule="evenodd" d="M15 1H6.75C3.57436 1 1 3.57436 1 6.75V17.25C1 20.4256 3.57436 23 6.75 23H17.25C20.4256 23 23 20.4256 23 17.25V9H21.5V17.25C21.5 19.5972 19.5972 21.5 17.25 21.5H6.75C4.40279 21.5 2.5 19.5972 2.5 17.25V6.75C2.5 4.40279 4.40279 2.5 6.75 2.5H15V1Z" fill="#303030"/>
<path d="M17.2988 12L7.21549 12L6.29883 12M6.29883 12L9.96549 15.5M6.29883 12L9.96549 8.5" stroke="#303030" stroke-width="1.5"/>
<circle cx="20.3918" cy="3.60861" r="3.60861" fill="#303030"/>
</g>
<defs>
<clipPath id="clip0">
<rect width="24" height="24" fill="white"/>
</clipPath>
</defs>
</svg>
