<svg width="24" height="24" viewBox="0 0 24 24" fill="none" xmlns="http://www.w3.org/2000/svg">
<g clip-path="url(#clip0)">
<path fill-rule="evenodd" clip-rule="evenodd" d="M15 1H6.75C3.57436 1 1 3.57436 1 6.75V17.25C1 20.4256 3.57436 23 6.75 23H17.25C20.4256 23 23 20.4256 23 17.25V9H21.5V17.25C21.5 19.5972 19.5972 21.5 17.25 21.5H6.75C4.40279 21.5 2.5 19.5972 2.5 17.25V6.75C2.5 4.40279 4.40279 2.5 6.75 2.5H15V1Z" fill="#303030"/>
<circle cx="20.3918" cy="3.60861" r="3.60861" fill="#303030"/>
<path fill-rule="evenodd" clip-rule="evenodd" d="M8.60026 9.93738C9.29777 8.7899 10.5597 8.02344 12.0007 8.02344C14.1969 8.02344 15.9773 9.80381 15.9773 12C15.9773 14.1962 14.1969 15.9766 12.0007 15.9766C10.5596 15.9766 9.2976 15.21 8.60011 14.0624H6.92578C7.74036 16.0648 9.70569 17.4766 12.0007 17.4766C15.0254 17.4766 17.4773 15.0246 17.4773 12C17.4773 8.97538 15.0254 6.52344 12.0007 6.52344C9.70578 6.52344 7.74052 7.93506 6.92588 9.93738H8.60026Z" fill="#303030"/>
</g>
<defs>
<clipPath id="clip0">
<rect width="24" height="24" fill="white"/>
</clipPath>
</defs>
</svg>
