<svg width="24" height="24" viewBox="0 0 24 24" fill="none" xmlns="http://www.w3.org/2000/svg">
<path fill-rule="evenodd" clip-rule="evenodd" d="M17.9536 11.25C17.9842 11.4957 18 11.746 18 12C18 12.254 17.9842 12.5043 17.9536 12.75H24V11.25H17.9536ZM16.7403 15.6787C16.4324 16.0749 16.0759 16.4315 15.6797 16.7395L19.9559 21.0156L21.0165 19.9549L16.7403 15.6787ZM12.75 17.9536C12.5043 17.9842 12.254 18 12 18C11.746 18 11.4957 17.9842 11.25 17.9536V24H12.75V17.9536ZM8.32025 16.7395C7.92412 16.4315 7.56762 16.0749 7.25971 15.6787L2.98348 19.9549L4.04414 21.0156L8.32025 16.7395ZM6.04642 12.75C6.01578 12.5043 6 12.254 6 12C6 11.746 6.01578 11.4957 6.04642 11.25H0V12.75H6.04642ZM21.0147 4.04504L16.7395 8.32025C16.4315 7.92412 16.0749 7.56762 15.6787 7.25971L19.954 2.98438L21.0147 4.04504ZM12.75 0V6.04642C12.5043 6.01578 12.254 6 12 6C11.746 6 11.4957 6.01578 11.25 6.04642V0H12.75ZM4.04596 2.98438L8.32128 7.25971C7.92508 7.56762 7.56851 7.92412 7.26051 8.32025L2.98529 4.04504L4.04596 2.98438Z" fill="#303030"/>
<circle cx="12" cy="12" r="3" fill="#303030"/>
</svg>
