<svg width="24" height="24" viewBox="0 0 24 24" fill="none" xmlns="http://www.w3.org/2000/svg">
<circle cx="12" cy="9" r="1" fill="#303030" stroke="#303030" stroke-width="2"/>
<path d="M7.22237 5.25C6.43064 6.17882 5.94922 7.40538 5.94922 8.75C5.94922 10.0946 6.43064 11.3212 7.22237 12.25M16.7761 5.25C17.5678 6.17882 18.0492 7.40538 18.0492 8.75C18.0492 10.0946 17.5678 11.3212 16.7761 12.25" stroke="#303030" stroke-width="1.5"/>
<path d="M3.59709 2.25C2.01363 3.97496 1.05078 6.25285 1.05078 8.75C1.05078 11.2472 2.01363 13.525 3.59709 15.25M20.4045 2.25C21.9879 3.97496 22.9508 6.25285 22.9508 8.75C22.9508 11.2472 21.9879 13.525 20.4045 15.25" stroke="#303030" stroke-width="1.5"/>
<path d="M12 8.25L12 23.25" stroke="#303030" stroke-width="1.5"/>
</svg>
