<svg width="24" height="24" viewBox="0 0 24 24" fill="none" xmlns="http://www.w3.org/2000/svg">
<g clip-path="url(#clip0)">
<path fill-rule="evenodd" clip-rule="evenodd" d="M22.9084 2.19091C22.9084 3.40092 21.9275 4.38182 20.7175 4.38182C19.5075 4.38182 18.5266 3.40092 18.5266 2.19091C18.5266 0.980905 19.5075 0 20.7175 0C21.9275 0 22.9084 0.980905 22.9084 2.19091ZM7.7679 2.01675L13.013 2.0166C13.188 2.0166 13.3575 2.07781 13.4922 2.18964L18.1788 6.08207C18.3505 6.22461 18.4497 6.43615 18.4497 6.65925L18.4484 11.0266L22.9076 11.0266V12.5266L17.6981 12.5266C17.4992 12.5266 17.3084 12.4476 17.1677 12.3069C17.0271 12.1662 16.9481 11.9754 16.9481 11.7764L16.9491 8.40839L11.0937 13.9796L14.7108 17.5015C14.8538 17.6406 14.9354 17.8311 14.9376 18.0306L14.9719 21.1458L14.972 21.1541H14.9719V24.0997H13.4719V21.1582L13.4411 18.3587L6.54393 11.6432C6.40017 11.5032 6.31849 11.3115 6.31716 11.1108C6.31582 10.9102 6.39493 10.7174 6.53681 10.5755L10.3288 6.78351L11.3894 7.84417L8.13492 11.0987L10.0182 12.9324L16.5716 6.6971L12.7422 3.51661L8.05558 3.51674L5.32531 5.97217L4.32227 4.85686L7.2664 2.20909C7.40409 2.08526 7.58272 2.01675 7.7679 2.01675ZM6.00115 15.3361L6.00114 20.3294H1V21.8294H6.75114C7.16536 21.8294 7.50114 21.4936 7.50114 21.0794L7.50115 15.3361H6.00115Z" fill="#303030"/>
</g>
<defs>
<clipPath id="clip0">
<rect width="24" height="24" fill="white"/>
</clipPath>
</defs>
</svg>
