<svg width="24" height="24" viewBox="0 0 24 24" fill="none" xmlns="http://www.w3.org/2000/svg">
<path fill-rule="evenodd" clip-rule="evenodd" d="M1.75 12C1.75 6.33908 6.33908 1.75 12 1.75C17.6609 1.75 22.25 6.33908 22.25 12C22.25 17.6609 17.6609 22.25 12 22.25C6.33908 22.25 1.75 17.6609 1.75 12ZM12 0.25C5.51065 0.25 0.25 5.51065 0.25 12C0.25 18.4893 5.51065 23.75 12 23.75C18.4893 23.75 23.75 18.4893 23.75 12C23.75 5.51065 18.4893 0.25 12 0.25ZM7.30957 16V13.2446H8.72217C9.64958 13.2446 10.3747 13.0244 10.8975 12.584C11.4238 12.14 11.687 11.5348 11.687 10.7686C11.687 10.2637 11.5671 9.81429 11.3271 9.42041C11.0872 9.02295 10.7435 8.7168 10.2959 8.50195C9.85189 8.28711 9.33626 8.17969 8.74902 8.17969H5.69824V16H7.30957ZM8.74902 11.9395H7.30957V9.48486H8.78662C9.18408 9.49202 9.49561 9.61377 9.72119 9.8501C9.94678 10.0864 10.0596 10.3962 10.0596 10.7793C10.0596 11.1517 9.94678 11.4382 9.72119 11.6387C9.49919 11.8392 9.17513 11.9395 8.74902 11.9395ZM12.7988 8.17969V16H15.2212C15.9051 15.9964 16.5192 15.8389 17.0635 15.5273C17.6077 15.2158 18.0285 14.7772 18.3257 14.2114C18.6265 13.6457 18.7769 12.9993 18.7769 12.2725V11.9126C18.7769 11.1857 18.6247 10.5376 18.3203 9.96826C18.0159 9.39534 17.5916 8.95492 17.0474 8.64697C16.5067 8.33545 15.8926 8.17969 15.2051 8.17969H12.7988ZM14.4102 14.7056V9.48486H15.2051C15.8389 9.48486 16.3205 9.69075 16.6499 10.1025C16.9793 10.5107 17.144 11.1123 17.144 11.9072V12.3208C17.1369 13.0871 16.9668 13.6761 16.6338 14.0879C16.3008 14.4997 15.8192 14.7056 15.189 14.7056H14.4102Z" fill="#F8DF52"/>
</svg>
