<svg width="16" height="16" viewBox="0 0 16 16" fill="none" xmlns="http://www.w3.org/2000/svg">
<path fill-rule="evenodd" clip-rule="evenodd" d="M5.40518 1.18335C4.68082 1.18335 4.04116 1.65579 3.82814 2.34812L3.51859 3.35419L3.14379 3.35742C1.68919 3.36994 0.516602 4.55266 0.516602 6.00732V12.6667C0.516602 13.5741 1.24683 14.3167 2.162 14.3167H2.17529H2.18866H2.20211H2.21563H2.22922H2.2429H2.25665H2.27047H2.28437H2.29834H2.31239H2.32651H2.34071H2.35498H2.36933H2.38374H2.39823H2.4128H2.42744H2.44214H2.45693H2.47178H2.48671H2.5017H2.51677H2.53191H2.54712H2.5624H2.57775H2.59318H2.60867H2.62423H2.63986H2.65556H2.67133H2.68717H2.70308H2.71905H2.73509H2.7512H2.76738H2.78363H2.79994H2.81632H2.83277H2.84928H2.86586H2.88251H2.89922H2.916H2.93284H2.94975H2.96672H2.98376H3.00086H3.01802H3.03525H3.05255H3.0699H3.08732H3.10481H3.12235H3.13996H3.15763H3.17536H3.19316H3.21101H3.22893H3.24691H3.26495H3.28305H3.30121H3.31943H3.33771H3.35605H3.37445H3.39291H3.41143H3.43H3.44864H3.46733H3.48609H3.5049H3.52376H3.54269H3.56167H3.58071H3.5998H3.61896H3.63817H3.65743H3.67675H3.69613H3.71556H3.73504H3.75459H3.77418H3.79383H3.81354H3.8333H3.85311H3.87297H3.89289H3.91286H3.93289H3.95297H3.9731H3.99328H4.01351H4.0338H4.05413H4.07452H4.09496H4.11545H4.13599H4.15658H4.17722H4.19791H4.21865H4.23943H4.26027H4.28116H4.30209H4.32308H4.34411H4.36519H4.38631H4.40749H4.42871H4.44998H4.47129H4.49265H4.51406H4.53552H4.55702H4.57856H4.60015H4.62179H4.64347H4.66519H4.68696H4.70878H4.73064H4.75254H4.77448H4.79647H4.8185H4.84058H4.86269H4.88485H4.90705H4.9293H4.95158H4.97391H4.99627H5.01868H5.04113H5.06362H5.08615H5.10872H5.13133H5.15398H5.17666H5.19939H5.22216H5.24496H5.2678H5.29069H5.3136H5.33656H5.35956H5.38259H5.40565H5.42876H5.4519H5.47508H5.49829H5.52154H5.54483H5.56815H5.5915H5.61489H5.63832H5.66178H5.68527H5.7088H5.73236H5.75596H5.77958H5.80325H5.82694H5.85067H5.87442H5.89822H5.92204H5.94589H5.96978H5.9937H6.01764H6.04162H6.06563H6.08967H6.11374H6.13784H6.16197H6.18613H6.21031H6.23453H6.25877H6.28305H6.30735H6.33168H6.35603H6.38042H6.40483H6.42927H6.45373H6.47822H6.50274H6.52729H6.55186H6.57645H6.60107H6.62572H6.65039H6.67508H6.6998H6.72455H6.74931H6.77411H6.79892H6.82376H6.84862H6.87351H6.89841H6.92334H6.94829H6.97327H6.99826H7.02328H7.04831H7.07337H7.09845H7.12355H7.14867H7.17381H7.19897H7.22415H7.24935H7.27457H7.2998H7.32506H7.35033H7.37562H7.40093H7.42626H7.4516H7.47696H7.50234H7.52774H7.55315H7.57858H7.60402H7.62948H7.65496H7.68045H7.70596H7.73148H7.75701H7.78256H7.80813H7.83371H7.8593H7.88491H7.91052H7.93616H7.9618H7.98746H8.01313H8.03881H8.0645H8.09021H8.11593H8.14165H8.16739H8.19314H8.2189H8.24467H8.27045H8.29625H8.32204H8.34785H8.37367H8.3995H8.42533H8.45118H8.47703H8.50289H8.52876H8.55464H8.58052H8.60641H8.6323H8.65821H8.68412H8.71003H8.73595H8.76188H8.78781H8.81375H8.83969H8.86564H8.89159H8.91754H8.9435H8.96947H8.99543H9.0214H9.04738H9.07335H9.09933H9.12531H9.1513H9.17728H9.20327H9.22925H9.25524H9.28123H9.30722H9.33322H9.35921H9.3852H9.41119H9.43718H9.46317H9.48916H9.51515H9.54114H9.56712H9.59311H9.61909H9.64507H9.67104H9.69702H9.72299H9.74896H9.77492H9.80088H9.82684H9.85279H9.87874H9.90468H9.93062H9.95655H9.98248H10.0084H10.0343H10.0602H10.0861H10.112H10.1379H10.1638H10.1897H10.2156H10.2414H10.2673H10.2931H10.319H10.3448H10.3706H10.3964H10.4222H10.448H10.4738H10.4996H10.5253H10.5511H10.5768H10.6026H10.6283H10.654H10.6797H10.7054H10.731H10.7567H10.7824H10.808H10.8336H10.8592H10.8848H10.9104H10.936H10.9615H10.9871H11.0126H11.0381H11.0636H11.0891H11.1145H11.14H11.1654H11.1908H11.2162H11.2416H11.267H11.2923H11.3177H11.343H11.3683H11.3936H11.4188H11.4441H11.4693H11.4945H11.5197H11.5448H11.57H11.5951H11.6202H11.6453H11.6704H11.6954H11.7204H11.7454H11.7704H11.7954H11.8203H11.8452H11.8701H11.895H11.9198H11.9446H11.9694H11.9942H12.0189H12.0437H12.0684H12.0931H12.1177H12.1423H12.1669H12.1915H12.2161H12.2406H12.2651H12.2896H12.314H12.3384H12.3628H12.3872H12.4115H12.4358H12.4601H12.4844H12.5086H12.5328H12.5569H12.5811H12.6052H12.6293H12.6533H12.6773H12.7013H12.7253H12.7492H12.7731H12.7969H12.8208H12.8446H12.8683H12.8921H12.9158H12.9395H12.9631H12.9867H13.0103H13.0338H13.0573H13.0808H13.1042H13.1276H13.151H13.1743H13.1976H13.2209H13.2441H13.2673H13.2904H13.3135H13.3366H13.3597H13.3827H13.4056H13.4286H13.4514H13.4743H13.4971H13.5199H13.5426H13.5653H13.588H13.6106H13.6332H13.6557H13.6782H13.7007H13.7231H13.7455H13.7678H13.7901H13.8124H13.8346C14.747 14.3167 15.4833 13.5769 15.4833 12.6667V6.00732C15.4833 4.55267 14.3107 3.36994 12.8561 3.35742L12.4813 3.35419L12.1717 2.34812C11.9587 1.65579 11.319 1.18335 10.5947 1.18335H5.40518ZM5.07066 2.73042C5.11584 2.58356 5.25153 2.48335 5.40518 2.48335H10.5947C10.7483 2.48335 10.884 2.58356 10.9292 2.73042L11.3787 4.19122L11.5186 4.64595L11.9943 4.65005L12.8449 4.65737C13.5859 4.66375 14.1833 5.26627 14.1833 6.00732V12.6667C14.1833 12.8611 14.0268 13.0167 13.8346 13.0167H13.8124H13.7901H13.7678H13.7455H13.7231H13.7007H13.6782H13.6557H13.6332H13.6106H13.588H13.5653H13.5426H13.5199H13.4971H13.4743H13.4514H13.4286H13.4056H13.3827H13.3597H13.3366H13.3135H13.2904H13.2673H13.2441H13.2209H13.1976H13.1743H13.151H13.1276H13.1042H13.0808H13.0573H13.0338H13.0103H12.9867H12.9631H12.9395H12.9158H12.8921H12.8683H12.8446H12.8208H12.7969H12.7731H12.7492H12.7253H12.7013H12.6773H12.6533H12.6293H12.6052H12.5811H12.5569H12.5328H12.5086H12.4844H12.4601H12.4358H12.4115H12.3872H12.3628H12.3384H12.314H12.2896H12.2651H12.2406H12.2161H12.1915H12.1669H12.1423H12.1177H12.0931H12.0684H12.0437H12.0189H11.9942H11.9694H11.9446H11.9198H11.895H11.8701H11.8452H11.8203H11.7954H11.7704H11.7454H11.7204H11.6954H11.6704H11.6453H11.6202H11.5951H11.57H11.5448H11.5197H11.4945H11.4693H11.4441H11.4188H11.3936H11.3683H11.343H11.3177H11.2923H11.267H11.2416H11.2162H11.1908H11.1654H11.14H11.1145H11.0891H11.0636H11.0381H11.0126H10.9871H10.9615H10.936H10.9104H10.8848H10.8592H10.8336H10.808H10.7824H10.7567H10.731H10.7054H10.6797H10.654H10.6283H10.6026H10.5768H10.5511H10.5253H10.4996H10.4738H10.448H10.4222H10.3964H10.3706H10.3448H10.319H10.2931H10.2673H10.2414H10.2156H10.1897H10.1638H10.1379H10.112H10.0861H10.0602H10.0343H10.0084H9.98248H9.95655H9.93062H9.90468H9.87874H9.85279H9.82684H9.80088H9.77492H9.74896H9.72299H9.69702H9.67104H9.64507H9.61909H9.59311H9.56712H9.54114H9.51515H9.48916H9.46317H9.43718H9.41119H9.3852H9.35921H9.33322H9.30722H9.28123H9.25524H9.22925H9.20327H9.17728H9.1513H9.12531H9.09933H9.07335H9.04738H9.0214H8.99543H8.96947H8.9435H8.91754H8.89159H8.86564H8.83969H8.81375H8.78781H8.76188H8.73595H8.71003H8.68412H8.65821H8.6323H8.60641H8.58052H8.55464H8.52876H8.50289H8.47703H8.45118H8.42533H8.3995H8.37367H8.34785H8.32204H8.29625H8.27045H8.24467H8.2189H8.19314H8.16739H8.14165H8.11593H8.09021H8.0645H8.03881H8.01313H7.98746H7.9618H7.93616H7.91052H7.88491H7.8593H7.83371H7.80813H7.78256H7.75701H7.73148H7.70596H7.68045H7.65496H7.62948H7.60402H7.57858H7.55315H7.52774H7.50234H7.47696H7.4516H7.42626H7.40093H7.37562H7.35033H7.32506H7.2998H7.27457H7.24935H7.22415H7.19897H7.17381H7.14867H7.12355H7.09845H7.07337H7.04831H7.02328H6.99826H6.97327H6.94829H6.92334H6.89841H6.87351H6.84862H6.82376H6.79892H6.77411H6.74931H6.72455H6.6998H6.67508H6.65039H6.62572H6.60107H6.57645H6.55186H6.52729H6.50274H6.47822H6.45373H6.42927H6.40483H6.38042H6.35603H6.33168H6.30735H6.28305H6.25877H6.23453H6.21031H6.18613H6.16197H6.13784H6.11374H6.08967H6.06563H6.04162H6.01764H5.9937H5.96978H5.94589H5.92204H5.89822H5.87442H5.85067H5.82694H5.80325H5.77958H5.75596H5.73236H5.7088H5.68527H5.66178H5.63832H5.61489H5.5915H5.56815H5.54483H5.52154H5.49829H5.47508H5.4519H5.42876H5.40565H5.38259H5.35956H5.33656H5.3136H5.29069H5.2678H5.24496H5.22216H5.19939H5.17666H5.15398H5.13133H5.10872H5.08615H5.06362H5.04113H5.01868H4.99627H4.97391H4.95158H4.9293H4.90705H4.88485H4.86269H4.84058H4.8185H4.79647H4.77448H4.75254H4.73064H4.70878H4.68696H4.66519H4.64347H4.62179H4.60015H4.57856H4.55702H4.53552H4.51406H4.49265H4.47129H4.44998H4.42871H4.40749H4.38631H4.36519H4.34411H4.32308H4.30209H4.28116H4.26027H4.23943H4.21865H4.19791H4.17722H4.15658H4.13599H4.11545H4.09496H4.07452H4.05413H4.0338H4.01351H3.99328H3.9731H3.95297H3.93289H3.91286H3.89289H3.87297H3.85311H3.8333H3.81354H3.79383H3.77418H3.75459H3.73504H3.71556H3.69613H3.67675H3.65743H3.63817H3.61896H3.5998H3.58071H3.56167H3.54269H3.52376H3.5049H3.48609H3.46733H3.44864H3.43H3.41143H3.39291H3.37445H3.35605H3.33771H3.31943H3.30121H3.28305H3.26495H3.24691H3.22893H3.21101H3.19316H3.17536H3.15763H3.13996H3.12235H3.10481H3.08732H3.0699H3.05255H3.03525H3.01802H3.00086H2.98376H2.96672H2.94975H2.93284H2.916H2.89922H2.88251H2.86586H2.84928H2.83277H2.81632H2.79994H2.78363H2.76738H2.7512H2.73509H2.71905H2.70308H2.68717H2.67133H2.65556H2.63986H2.62423H2.60867H2.59318H2.57775H2.5624H2.54712H2.53191H2.51677H2.5017H2.48671H2.47178H2.45693H2.44214H2.42744H2.4128H2.39823H2.38374H2.36933H2.35498H2.34071H2.32651H2.31239H2.29834H2.28437H2.27047H2.25665H2.2429H2.22922H2.21563H2.20211H2.18866H2.17529H2.162C1.9726 13.0167 1.8166 12.864 1.8166 12.6667V6.00732C1.8166 5.26627 2.41396 4.66375 3.15498 4.65737L4.00553 4.65005L4.48128 4.64595L4.62119 4.19122L5.07066 2.73042ZM5.98327 8.66668C5.98327 7.55291 6.88616 6.65002 7.99994 6.65002C9.11371 6.65002 10.0166 7.55291 10.0166 8.66668C10.0166 9.78046 9.11371 10.6833 7.99994 10.6833C6.88616 10.6833 5.98327 9.78046 5.98327 8.66668ZM7.99994 5.35002C6.16819 5.35002 4.68327 6.83494 4.68327 8.66668C4.68327 10.4984 6.16819 11.9833 7.99994 11.9833C9.83168 11.9833 11.3166 10.4984 11.3166 8.66668C11.3166 6.83494 9.83168 5.35002 7.99994 5.35002Z" fill="#303030"/>
</svg>
