<svg width="24" height="24" viewBox="0 0 24 24" fill="none" xmlns="http://www.w3.org/2000/svg">
<path fill-rule="evenodd" clip-rule="evenodd" d="M2.01562 8.62925C2.01562 4.98959 4.96615 2.03906 8.60582 2.03906C12.2455 2.03906 15.196 4.98959 15.196 8.62925C15.196 12.2689 12.2455 15.2194 8.60582 15.2194C4.96615 15.2194 2.01562 12.2689 2.01562 8.62925ZM8.60582 0.539062C4.13773 0.539062 0.515625 4.16116 0.515625 8.62925C0.515625 13.0973 4.13773 16.7194 8.60582 16.7194C13.0739 16.7194 16.696 13.0973 16.696 8.62925C16.696 4.16116 13.0739 0.539062 8.60582 0.539062ZM19.5854 2.31077H23.4592V6.18451L22.0413 4.76664L20.6414 6.09559C20.6974 6.40392 20.7426 6.71611 20.7766 7.03171C20.8265 7.49566 20.8521 7.96691 20.8521 8.44404C20.8521 15.4419 15.3404 21.1533 8.49459 21.1533C7.62084 21.1533 6.7675 21.0599 5.94379 20.8821C5.89941 20.8725 5.85512 20.8626 5.81092 20.8526L4.54574 22.2808L4.54127 22.2859L4.54125 22.2859L4.07358 22.8043L2.95973 21.7997L3.42513 21.2837L4.98928 19.518L5.29726 19.1703L5.74573 19.2911C5.91568 19.3368 6.08725 19.3785 6.26033 19.4158C6.98078 19.5714 7.72803 19.6533 8.49459 19.6533C14.4701 19.6533 19.3521 14.656 19.3521 8.44404C19.3521 8.02059 19.3294 7.6029 19.2852 7.19213C19.2415 6.78582 19.1767 6.38621 19.0922 5.99446L19.0032 5.58246L19.3089 5.29227L20.9803 3.70562L19.5854 2.31077Z" fill="#303030"/>
</svg>
