<svg width="16" height="16" viewBox="0 0 16 16" fill="none" xmlns="http://www.w3.org/2000/svg">
<path fill-rule="evenodd" clip-rule="evenodd" d="M8.0353 3.1981C5.49551 3.15532 3.02642 4.03517 1.08601 5.67443L0.24707 4.68136C2.42784 2.83905 5.20279 1.85021 8.05719 1.89828C10.9116 1.94635 13.6517 3.02807 15.7692 4.94277L14.8973 5.90702C13.0131 4.20336 10.5751 3.24087 8.0353 3.1981ZM2.70841 7.79746C4.12902 6.59732 5.93671 5.95317 7.79615 5.98448C9.65559 6.0158 11.4406 6.72046 12.82 7.96775L13.6919 7.0035C12.0791 5.54517 9.99209 4.72128 7.81804 4.68467C5.64399 4.64805 3.53045 5.4012 1.86947 6.8044L2.70841 7.79746ZM7.91047 10.5959C7.16128 10.5833 6.43294 10.8428 5.86055 11.3263L7.85834 13.6912L9.93462 11.395C9.37885 10.8924 8.65966 10.6085 7.91047 10.5959ZM4.68106 9.93105C5.59117 9.16219 6.74926 8.74951 7.9405 8.76957C9.13174 8.78963 10.2753 9.24107 11.159 10.0401L12.0309 9.07589C10.9138 8.06578 9.46824 7.49512 7.96239 7.46976C6.45654 7.4444 4.9926 7.96606 3.84212 8.93798L4.68106 9.93105Z" fill="#DBDBDB"/>
</svg>
