<svg width="24" height="24" viewBox="0 0 24 24" fill="none" xmlns="http://www.w3.org/2000/svg">
<path fill-rule="evenodd" clip-rule="evenodd" d="M12.1929 0.235199L12 0.183838L11.8071 0.235199L2.80706 2.63107L2.25 2.77936V3.35583V13.0862C2.25 16.9547 4.73268 19.6392 7.0635 21.3074C8.23863 22.1484 9.40885 22.757 10.2829 23.1551C10.7209 23.3546 11.0872 23.5025 11.3462 23.6012C11.4757 23.6506 11.5785 23.6877 11.6503 23.7129C11.6861 23.7255 11.7142 23.7352 11.734 23.7419L11.7574 23.7497L11.7643 23.752L11.7665 23.7527L11.7673 23.753C11.7676 23.7531 11.7679 23.7531 12 23.04L11.7679 23.7531L12 23.8287L12.2321 23.7531L12 23.04C12.2321 23.7531 12.2324 23.7531 12.2327 23.753L12.2335 23.7527L12.2357 23.752L12.2426 23.7497L12.266 23.7419C12.2858 23.7352 12.3139 23.7255 12.3497 23.7129C12.4215 23.6877 12.5243 23.6506 12.6538 23.6012C12.9128 23.5025 13.2791 23.3546 13.7171 23.1551C14.5911 22.757 15.7614 22.1484 16.9365 21.3074C19.2673 19.6392 21.75 16.9547 21.75 13.0862V3.35583V2.77936L21.1929 2.63107L12.1929 0.235199ZM11.2501 21.9431L11.25 1.93573L3.75 3.93229V13.0862C3.75 16.2428 5.76732 18.5351 7.9365 20.0876C9.01137 20.8569 10.0911 21.4195 10.9046 21.7901C11.0263 21.8455 11.1417 21.8965 11.2501 21.9431ZM13.0954 21.7901C12.9738 21.8454 12.8583 21.8964 12.7501 21.9431L12.75 1.93573L20.25 3.93229V13.0862C20.25 16.2428 18.2327 18.5351 16.0635 20.0876C14.9886 20.8569 13.9088 21.4195 13.0954 21.7901Z" fill="#DBDBDB"/>
</svg>
