<svg width="40" height="40" viewBox="0 0 40 40" fill="none" xmlns="http://www.w3.org/2000/svg">
<circle cx="20" cy="20" r="19.25" stroke="#5AE4AA" stroke-width="1.5"/>
<path fill-rule="evenodd" clip-rule="evenodd" d="M23 9H14.75C11.5744 9 9 11.5744 9 14.75V25.25C9 28.4256 11.5744 31 14.75 31H25.25C28.4256 31 31 28.4256 31 25.25V17H29.5V25.25C29.5 27.5972 27.5972 29.5 25.25 29.5H14.75C12.4028 29.5 10.5 27.5972 10.5 25.25V14.75C10.5 12.4028 12.4028 10.5 14.75 10.5H23V9Z" fill="#5AE4AA"/>
<circle cx="28.3918" cy="11.6086" r="3.60861" fill="#5AE4AA" stroke="#5AE4AA" stroke-width="1.5"/>
<path d="M25.0937 20L16.8437 25.1962L16.8437 14.8038L25.0937 20Z" fill="#5AE4AA"/>
</svg>
