<svg width="375" height="166" viewBox="0 0 375 166" fill="none" xmlns="http://www.w3.org/2000/svg">
<path d="M159 54H95C93.8954 54 93 54.8954 93 56V92M215 54H280C281.105 54 282 54.8954 282 56V138C282 139.104 281.105 140 280 140H269M93 110V138C93 139.104 93.8954 140 95 140H106M143 140H169M206 140H232" stroke="#DBDBDB" stroke-width="1.5"/>
<path fill-rule="evenodd" clip-rule="evenodd" d="M188.115 16H207L215 22V78L207 85H188.578H167L159 78V22L167 16H188.115Z" stroke="#DBDBDB" stroke-width="1.5"/>
<path d="M159 22L176 75L167 85" stroke="#DBDBDB" stroke-width="1.5"/>
<path d="M215 22L198 75L207 85" stroke="#DBDBDB" stroke-width="1.5"/>
<path fill-rule="evenodd" clip-rule="evenodd" d="M179 72V69H195V72H179Z" fill="#DBDBDB"/>
<path d="M176 75H198" stroke="#DBDBDB" stroke-width="1.5"/>
<path d="M183 16L185.128 20H188.867L191 16" stroke="#DBDBDB" stroke-width="1.5"/>
<path d="M183 85L185.128 81H188.867L191 85" stroke="#DBDBDB" stroke-width="1.5"/>
<path d="M226.117 48.0801V49H220.34V48.0801H226.117ZM225.93 41.2891L220.609 49H219.912V48.1562L225.227 40.4688H225.93V41.2891ZM225.449 40.4688V41.3945H219.988V40.4688H225.449Z" fill="#DBDBDB"/>
<path d="M134.363 45.2871H135.488C135.43 45.8262 135.275 46.3086 135.025 46.7344C134.775 47.1602 134.422 47.498 133.965 47.748C133.508 47.9941 132.938 48.1172 132.254 48.1172C131.754 48.1172 131.299 48.0234 130.889 47.8359C130.482 47.6484 130.133 47.3828 129.84 47.0391C129.547 46.6914 129.32 46.2754 129.16 45.791C129.004 45.3027 128.926 44.7598 128.926 44.1621V43.3125C128.926 42.7148 129.004 42.1738 129.16 41.6895C129.32 41.2012 129.549 40.7832 129.846 40.4355C130.146 40.0879 130.508 39.8203 130.93 39.6328C131.352 39.4453 131.826 39.3516 132.354 39.3516C132.998 39.3516 133.543 39.4727 133.988 39.7148C134.434 39.957 134.779 40.293 135.025 40.7227C135.275 41.1484 135.43 41.6426 135.488 42.2051H134.363C134.309 41.8066 134.207 41.4648 134.059 41.1797C133.91 40.8906 133.699 40.668 133.426 40.5117C133.152 40.3555 132.795 40.2773 132.354 40.2773C131.975 40.2773 131.641 40.3496 131.352 40.4941C131.066 40.6387 130.826 40.8438 130.631 41.1094C130.439 41.375 130.295 41.6934 130.197 42.0645C130.1 42.4355 130.051 42.8477 130.051 43.3008V44.1621C130.051 44.5801 130.094 44.9727 130.18 45.3398C130.27 45.707 130.404 46.0293 130.584 46.3066C130.764 46.584 130.992 46.8027 131.27 46.9629C131.547 47.1191 131.875 47.1973 132.254 47.1973C132.734 47.1973 133.117 47.1211 133.402 46.9688C133.688 46.8164 133.902 46.5977 134.047 46.3125C134.195 46.0273 134.301 45.6855 134.363 45.2871ZM143.598 43.4648V44.0039C143.598 44.6445 143.518 45.2188 143.357 45.7266C143.197 46.2344 142.967 46.666 142.666 47.0215C142.365 47.377 142.004 47.6484 141.582 47.8359C141.164 48.0234 140.695 48.1172 140.176 48.1172C139.672 48.1172 139.209 48.0234 138.787 47.8359C138.369 47.6484 138.006 47.377 137.697 47.0215C137.393 46.666 137.156 46.2344 136.988 45.7266C136.82 45.2188 136.736 44.6445 136.736 44.0039V43.4648C136.736 42.8242 136.818 42.252 136.982 41.748C137.15 41.2402 137.387 40.8086 137.691 40.4531C137.996 40.0938 138.357 39.8203 138.775 39.6328C139.197 39.4453 139.66 39.3516 140.164 39.3516C140.684 39.3516 141.152 39.4453 141.57 39.6328C141.992 39.8203 142.354 40.0938 142.654 40.4531C142.959 40.8086 143.191 41.2402 143.352 41.748C143.516 42.252 143.598 42.8242 143.598 43.4648ZM142.479 44.0039V43.4531C142.479 42.9453 142.426 42.4961 142.32 42.1055C142.219 41.7148 142.068 41.3867 141.869 41.1211C141.67 40.8555 141.426 40.6543 141.137 40.5176C140.852 40.3809 140.527 40.3125 140.164 40.3125C139.812 40.3125 139.494 40.3809 139.209 40.5176C138.928 40.6543 138.686 40.8555 138.482 41.1211C138.283 41.3867 138.129 41.7148 138.02 42.1055C137.91 42.4961 137.855 42.9453 137.855 43.4531V44.0039C137.855 44.5156 137.91 44.9688 138.02 45.3633C138.129 45.7539 138.285 46.084 138.488 46.3535C138.695 46.6191 138.939 46.8203 139.221 46.957C139.506 47.0938 139.824 47.1621 140.176 47.1621C140.543 47.1621 140.869 47.0938 141.154 46.957C141.439 46.8203 141.68 46.6191 141.875 46.3535C142.074 46.084 142.225 45.7539 142.326 45.3633C142.428 44.9688 142.479 44.5156 142.479 44.0039ZM145.648 39.4688H146.744L149.539 46.4238L152.328 39.4688H153.43L149.961 48H149.105L145.648 39.4688ZM145.291 39.4688H146.258L146.416 44.6719V48H145.291V39.4688ZM152.814 39.4688H153.781V48H152.656V44.6719L152.814 39.4688Z" fill="#DBDBDB"/>
<path d="M104.6 103.844C104.6 103.645 104.568 103.469 104.506 103.316C104.447 103.16 104.342 103.02 104.189 102.895C104.041 102.77 103.834 102.65 103.568 102.537C103.307 102.424 102.975 102.309 102.572 102.191C102.15 102.066 101.77 101.928 101.43 101.775C101.09 101.619 100.799 101.441 100.557 101.242C100.314 101.043 100.129 100.814 100 100.557C99.8711 100.299 99.8066 100.004 99.8066 99.6719C99.8066 99.3398 99.875 99.0332 100.012 98.752C100.148 98.4707 100.344 98.2266 100.598 98.0195C100.855 97.8086 101.162 97.6445 101.518 97.5273C101.873 97.4102 102.27 97.3516 102.707 97.3516C103.348 97.3516 103.891 97.4746 104.336 97.7207C104.785 97.9629 105.127 98.2812 105.361 98.6758C105.596 99.0664 105.713 99.4844 105.713 99.9297H104.588C104.588 99.6094 104.52 99.3262 104.383 99.0801C104.246 98.8301 104.039 98.6348 103.762 98.4941C103.484 98.3496 103.133 98.2773 102.707 98.2773C102.305 98.2773 101.973 98.3379 101.711 98.459C101.449 98.5801 101.254 98.7441 101.125 98.9512C101 99.1582 100.938 99.3945 100.938 99.6602C100.938 99.8398 100.975 100.004 101.049 100.152C101.127 100.297 101.246 100.432 101.406 100.557C101.57 100.682 101.777 100.797 102.027 100.902C102.281 101.008 102.584 101.109 102.936 101.207C103.42 101.344 103.838 101.496 104.189 101.664C104.541 101.832 104.83 102.021 105.057 102.232C105.287 102.439 105.457 102.676 105.566 102.941C105.68 103.203 105.736 103.5 105.736 103.832C105.736 104.18 105.666 104.494 105.525 104.775C105.385 105.057 105.184 105.297 104.922 105.496C104.66 105.695 104.346 105.85 103.979 105.959C103.615 106.064 103.209 106.117 102.76 106.117C102.365 106.117 101.977 106.062 101.594 105.953C101.215 105.844 100.869 105.68 100.557 105.461C100.248 105.242 100 104.973 99.8125 104.652C99.6289 104.328 99.5371 103.953 99.5371 103.527H100.662C100.662 103.82 100.719 104.072 100.832 104.283C100.945 104.49 101.1 104.662 101.295 104.799C101.494 104.936 101.719 105.037 101.969 105.104C102.223 105.166 102.486 105.197 102.76 105.197C103.154 105.197 103.488 105.143 103.762 105.033C104.035 104.924 104.242 104.768 104.383 104.564C104.527 104.361 104.6 104.121 104.6 103.844ZM110.459 97.4219V106H109.375V98.7754L107.189 99.5723V98.5938L110.289 97.4219H110.459Z" fill="#DBDBDB"/>
<path d="M185.6 103.844C185.6 103.645 185.568 103.469 185.506 103.316C185.447 103.16 185.342 103.02 185.189 102.895C185.041 102.77 184.834 102.65 184.568 102.537C184.307 102.424 183.975 102.309 183.572 102.191C183.15 102.066 182.77 101.928 182.43 101.775C182.09 101.619 181.799 101.441 181.557 101.242C181.314 101.043 181.129 100.814 181 100.557C180.871 100.299 180.807 100.004 180.807 99.6719C180.807 99.3398 180.875 99.0332 181.012 98.752C181.148 98.4707 181.344 98.2266 181.598 98.0195C181.855 97.8086 182.162 97.6445 182.518 97.5273C182.873 97.4102 183.27 97.3516 183.707 97.3516C184.348 97.3516 184.891 97.4746 185.336 97.7207C185.785 97.9629 186.127 98.2812 186.361 98.6758C186.596 99.0664 186.713 99.4844 186.713 99.9297H185.588C185.588 99.6094 185.52 99.3262 185.383 99.0801C185.246 98.8301 185.039 98.6348 184.762 98.4941C184.484 98.3496 184.133 98.2773 183.707 98.2773C183.305 98.2773 182.973 98.3379 182.711 98.459C182.449 98.5801 182.254 98.7441 182.125 98.9512C182 99.1582 181.938 99.3945 181.938 99.6602C181.938 99.8398 181.975 100.004 182.049 100.152C182.127 100.297 182.246 100.432 182.406 100.557C182.57 100.682 182.777 100.797 183.027 100.902C183.281 101.008 183.584 101.109 183.936 101.207C184.42 101.344 184.838 101.496 185.189 101.664C185.541 101.832 185.83 102.021 186.057 102.232C186.287 102.439 186.457 102.676 186.566 102.941C186.68 103.203 186.736 103.5 186.736 103.832C186.736 104.18 186.666 104.494 186.525 104.775C186.385 105.057 186.184 105.297 185.922 105.496C185.66 105.695 185.346 105.85 184.979 105.959C184.615 106.064 184.209 106.117 183.76 106.117C183.365 106.117 182.977 106.062 182.594 105.953C182.215 105.844 181.869 105.68 181.557 105.461C181.248 105.242 181 104.973 180.812 104.652C180.629 104.328 180.537 103.953 180.537 103.527H181.662C181.662 103.82 181.719 104.072 181.832 104.283C181.945 104.49 182.1 104.662 182.295 104.799C182.494 104.936 182.719 105.037 182.969 105.104C183.223 105.166 183.486 105.197 183.76 105.197C184.154 105.197 184.488 105.143 184.762 105.033C185.035 104.924 185.242 104.768 185.383 104.564C185.527 104.361 185.6 104.121 185.6 103.844ZM193.486 105.109V106H187.902V105.221L190.697 102.109C191.041 101.727 191.307 101.402 191.494 101.137C191.686 100.867 191.818 100.627 191.893 100.416C191.971 100.201 192.01 99.9824 192.01 99.7598C192.01 99.4785 191.951 99.2246 191.834 98.998C191.721 98.7676 191.553 98.584 191.33 98.4473C191.107 98.3105 190.838 98.2422 190.521 98.2422C190.143 98.2422 189.826 98.3164 189.572 98.4648C189.322 98.6094 189.135 98.8125 189.01 99.0742C188.885 99.3359 188.822 99.6367 188.822 99.9766H187.738C187.738 99.4961 187.844 99.0566 188.055 98.6582C188.266 98.2598 188.578 97.9434 188.992 97.709C189.406 97.4707 189.916 97.3516 190.521 97.3516C191.061 97.3516 191.521 97.4473 191.904 97.6387C192.287 97.8262 192.58 98.0918 192.783 98.4355C192.99 98.7754 193.094 99.1738 193.094 99.6309C193.094 99.8809 193.051 100.135 192.965 100.393C192.883 100.646 192.768 100.9 192.619 101.154C192.475 101.408 192.305 101.658 192.109 101.904C191.918 102.15 191.713 102.393 191.494 102.631L189.209 105.109H193.486Z" fill="#DBDBDB"/>
<path d="M249.6 103.844C249.6 103.645 249.568 103.469 249.506 103.316C249.447 103.16 249.342 103.02 249.189 102.895C249.041 102.77 248.834 102.65 248.568 102.537C248.307 102.424 247.975 102.309 247.572 102.191C247.15 102.066 246.77 101.928 246.43 101.775C246.09 101.619 245.799 101.441 245.557 101.242C245.314 101.043 245.129 100.814 245 100.557C244.871 100.299 244.807 100.004 244.807 99.6719C244.807 99.3398 244.875 99.0332 245.012 98.752C245.148 98.4707 245.344 98.2266 245.598 98.0195C245.855 97.8086 246.162 97.6445 246.518 97.5273C246.873 97.4102 247.27 97.3516 247.707 97.3516C248.348 97.3516 248.891 97.4746 249.336 97.7207C249.785 97.9629 250.127 98.2812 250.361 98.6758C250.596 99.0664 250.713 99.4844 250.713 99.9297H249.588C249.588 99.6094 249.52 99.3262 249.383 99.0801C249.246 98.8301 249.039 98.6348 248.762 98.4941C248.484 98.3496 248.133 98.2773 247.707 98.2773C247.305 98.2773 246.973 98.3379 246.711 98.459C246.449 98.5801 246.254 98.7441 246.125 98.9512C246 99.1582 245.938 99.3945 245.938 99.6602C245.938 99.8398 245.975 100.004 246.049 100.152C246.127 100.297 246.246 100.432 246.406 100.557C246.57 100.682 246.777 100.797 247.027 100.902C247.281 101.008 247.584 101.109 247.936 101.207C248.42 101.344 248.838 101.496 249.189 101.664C249.541 101.832 249.83 102.021 250.057 102.232C250.287 102.439 250.457 102.676 250.566 102.941C250.68 103.203 250.736 103.5 250.736 103.832C250.736 104.18 250.666 104.494 250.525 104.775C250.385 105.057 250.184 105.297 249.922 105.496C249.66 105.695 249.346 105.85 248.979 105.959C248.615 106.064 248.209 106.117 247.76 106.117C247.365 106.117 246.977 106.062 246.594 105.953C246.215 105.844 245.869 105.68 245.557 105.461C245.248 105.242 245 104.973 244.812 104.652C244.629 104.328 244.537 103.953 244.537 103.527H245.662C245.662 103.82 245.719 104.072 245.832 104.283C245.945 104.49 246.1 104.662 246.295 104.799C246.494 104.936 246.719 105.037 246.969 105.104C247.223 105.166 247.486 105.197 247.76 105.197C248.154 105.197 248.488 105.143 248.762 105.033C249.035 104.924 249.242 104.768 249.383 104.564C249.527 104.361 249.6 104.121 249.6 103.844ZM253.479 101.201H254.252C254.631 101.201 254.943 101.139 255.189 101.014C255.439 100.885 255.625 100.711 255.746 100.492C255.871 100.27 255.934 100.02 255.934 99.7422C255.934 99.4141 255.879 99.1387 255.77 98.916C255.66 98.6934 255.496 98.5254 255.277 98.4121C255.059 98.2988 254.781 98.2422 254.445 98.2422C254.141 98.2422 253.871 98.3027 253.637 98.4238C253.406 98.541 253.225 98.709 253.092 98.9277C252.963 99.1465 252.898 99.4043 252.898 99.7012H251.814C251.814 99.2676 251.924 98.873 252.143 98.5176C252.361 98.1621 252.668 97.8789 253.062 97.668C253.461 97.457 253.922 97.3516 254.445 97.3516C254.961 97.3516 255.412 97.4434 255.799 97.627C256.186 97.8066 256.486 98.0762 256.701 98.4355C256.916 98.791 257.023 99.2344 257.023 99.7656C257.023 99.9805 256.973 100.211 256.871 100.457C256.773 100.699 256.619 100.926 256.408 101.137C256.201 101.348 255.932 101.521 255.6 101.658C255.268 101.791 254.869 101.857 254.404 101.857H253.479V101.201ZM253.479 102.092V101.441H254.404C254.947 101.441 255.396 101.506 255.752 101.635C256.107 101.764 256.387 101.936 256.59 102.15C256.797 102.365 256.941 102.602 257.023 102.859C257.109 103.113 257.152 103.367 257.152 103.621C257.152 104.02 257.084 104.373 256.947 104.682C256.814 104.99 256.625 105.252 256.379 105.467C256.137 105.682 255.852 105.844 255.523 105.953C255.195 106.062 254.838 106.117 254.451 106.117C254.08 106.117 253.73 106.064 253.402 105.959C253.078 105.854 252.791 105.701 252.541 105.502C252.291 105.299 252.096 105.051 251.955 104.758C251.814 104.461 251.744 104.123 251.744 103.744H252.828C252.828 104.041 252.893 104.301 253.021 104.523C253.154 104.746 253.342 104.92 253.584 105.045C253.83 105.166 254.119 105.227 254.451 105.227C254.783 105.227 255.068 105.17 255.307 105.057C255.549 104.939 255.734 104.764 255.863 104.529C255.996 104.295 256.062 104 256.062 103.645C256.062 103.289 255.988 102.998 255.84 102.771C255.691 102.541 255.48 102.371 255.207 102.262C254.938 102.148 254.619 102.092 254.252 102.092H253.479Z" fill="#DBDBDB"/>
<path d="M276 140V119C276 117.895 275.105 117 274 117H259M225 140V119C225 117.895 225.895 117 227 117H241" stroke="#DBDBDB" stroke-width="1.5"/>
<path d="M213 140V119C213 117.895 212.105 117 211 117H196M162 140V119C162 117.895 162.895 117 164 117H178" stroke="#DBDBDB" stroke-width="1.5"/>
<path d="M93 92V109" stroke="#DBDBDB" stroke-width="1.5"/>
<circle cx="93" cy="109" r="2" fill="#DBDBDB"/>
<circle cx="93" cy="92" r="2" fill="#DBDBDB"/>
<path d="M195 110L180 117L179 117" stroke="#DBDBDB" stroke-width="1.5"/>
<circle cx="196" cy="117" r="2" fill="#DBDBDB"/>
<circle cx="179" cy="117" r="2" fill="#DBDBDB"/>
<path d="M258 110L243 117L242 117" stroke="#DBDBDB" stroke-width="1.5"/>
<circle cx="259" cy="117" r="2" fill="#DBDBDB"/>
<circle cx="242" cy="117" r="2" fill="#DBDBDB"/>
<rect x="106" y="129" width="37" height="22" rx="2" fill="#ADF75E"/>
<path d="M118.925 136.18H121.514C122.101 136.18 122.597 136.269 123.001 136.448C123.41 136.627 123.719 136.892 123.931 137.243C124.146 137.59 124.253 138.018 124.253 138.527C124.253 138.885 124.18 139.213 124.033 139.51C123.889 139.803 123.682 140.054 123.41 140.262C123.141 140.466 122.819 140.618 122.443 140.718L122.153 140.831H119.72L119.709 139.988H121.546C121.918 139.988 122.228 139.923 122.475 139.794C122.722 139.662 122.908 139.485 123.034 139.263C123.159 139.041 123.222 138.795 123.222 138.527C123.222 138.226 123.163 137.963 123.044 137.737C122.926 137.512 122.74 137.338 122.486 137.216C122.235 137.091 121.911 137.028 121.514 137.028H119.961V144H118.925V136.18ZM123.496 144L121.594 140.455L122.674 140.45L124.602 143.936V144H123.496ZM128.711 136.137V144H127.717V137.377L125.714 138.108V137.211L128.555 136.137H128.711Z" fill="black"/>
<rect x="169" y="129" width="37" height="22" rx="2" fill="#ADF75E"/>
<path d="M181.925 136.18H184.514C185.101 136.18 185.597 136.269 186.001 136.448C186.41 136.627 186.719 136.892 186.931 137.243C187.146 137.59 187.253 138.018 187.253 138.527C187.253 138.885 187.18 139.213 187.033 139.51C186.889 139.803 186.682 140.054 186.41 140.262C186.141 140.466 185.819 140.618 185.443 140.718L185.153 140.831H182.72L182.709 139.988H184.546C184.918 139.988 185.228 139.923 185.475 139.794C185.722 139.662 185.908 139.485 186.034 139.263C186.159 139.041 186.222 138.795 186.222 138.527C186.222 138.226 186.163 137.963 186.044 137.737C185.926 137.512 185.74 137.338 185.486 137.216C185.235 137.091 184.911 137.028 184.514 137.028H182.961V144H181.925V136.18ZM186.496 144L184.594 140.455L185.674 140.45L187.602 143.936V144H186.496ZM193.569 143.184V144H188.451V143.286L191.013 140.434C191.328 140.083 191.571 139.785 191.743 139.542C191.919 139.295 192.04 139.075 192.108 138.881C192.18 138.684 192.216 138.484 192.216 138.28C192.216 138.022 192.162 137.789 192.055 137.582C191.951 137.37 191.797 137.202 191.593 137.077C191.389 136.951 191.142 136.889 190.852 136.889C190.504 136.889 190.214 136.957 189.981 137.093C189.752 137.225 189.58 137.411 189.466 137.651C189.351 137.891 189.294 138.167 189.294 138.479H188.3C188.3 138.038 188.397 137.635 188.59 137.27C188.784 136.905 189.07 136.615 189.45 136.4C189.829 136.181 190.297 136.072 190.852 136.072C191.346 136.072 191.768 136.16 192.119 136.335C192.47 136.507 192.739 136.751 192.925 137.066C193.115 137.377 193.209 137.743 193.209 138.162C193.209 138.391 193.17 138.624 193.091 138.86C193.016 139.093 192.91 139.325 192.774 139.558C192.642 139.791 192.486 140.02 192.307 140.246C192.132 140.471 191.944 140.693 191.743 140.912L189.648 143.184H193.569Z" fill="black"/>
<rect x="232" y="129" width="37" height="22" rx="2" fill="#ADF75E"/>
<path d="M244.925 136.18H247.514C248.101 136.18 248.597 136.269 249.001 136.448C249.41 136.627 249.719 136.892 249.931 137.243C250.146 137.59 250.253 138.018 250.253 138.527C250.253 138.885 250.18 139.213 250.033 139.51C249.889 139.803 249.682 140.054 249.41 140.262C249.141 140.466 248.819 140.618 248.443 140.718L248.153 140.831H245.72L245.709 139.988H247.546C247.918 139.988 248.228 139.923 248.475 139.794C248.722 139.662 248.908 139.485 249.034 139.263C249.159 139.041 249.222 138.795 249.222 138.527C249.222 138.226 249.163 137.963 249.044 137.737C248.926 137.512 248.74 137.338 248.486 137.216C248.235 137.091 247.911 137.028 247.514 137.028H245.961V144H244.925V136.18ZM249.496 144L247.594 140.455L248.674 140.45L250.602 143.936V144H249.496ZM252.896 139.601H253.604C253.952 139.601 254.238 139.544 254.464 139.429C254.693 139.311 254.863 139.152 254.974 138.951C255.089 138.747 255.146 138.518 255.146 138.264C255.146 137.963 255.096 137.71 254.996 137.506C254.895 137.302 254.745 137.148 254.544 137.044C254.344 136.941 254.09 136.889 253.782 136.889C253.502 136.889 253.255 136.944 253.041 137.055C252.829 137.163 252.663 137.317 252.541 137.517C252.423 137.718 252.364 137.954 252.364 138.226H251.37C251.37 137.829 251.47 137.467 251.671 137.141C251.871 136.815 252.153 136.556 252.514 136.362C252.879 136.169 253.302 136.072 253.782 136.072C254.254 136.072 254.668 136.156 255.022 136.325C255.377 136.489 255.653 136.736 255.85 137.066C256.047 137.392 256.145 137.798 256.145 138.285C256.145 138.482 256.098 138.693 256.005 138.919C255.916 139.141 255.774 139.349 255.581 139.542C255.391 139.735 255.144 139.895 254.84 140.02C254.535 140.142 254.17 140.203 253.744 140.203H252.896V139.601ZM252.896 140.417V139.821H253.744C254.242 139.821 254.654 139.88 254.979 139.999C255.305 140.117 255.561 140.274 255.748 140.471C255.937 140.668 256.07 140.885 256.145 141.121C256.224 141.354 256.263 141.587 256.263 141.819C256.263 142.185 256.201 142.509 256.075 142.792C255.953 143.074 255.78 143.314 255.554 143.511C255.332 143.708 255.071 143.857 254.77 143.957C254.469 144.057 254.142 144.107 253.787 144.107C253.447 144.107 253.126 144.059 252.826 143.962C252.528 143.866 252.265 143.726 252.036 143.543C251.807 143.357 251.628 143.13 251.499 142.861C251.37 142.589 251.306 142.279 251.306 141.932H252.299C252.299 142.204 252.358 142.442 252.477 142.646C252.598 142.851 252.77 143.01 252.992 143.125C253.218 143.236 253.483 143.291 253.787 143.291C254.091 143.291 254.353 143.239 254.571 143.135C254.793 143.028 254.963 142.867 255.082 142.652C255.203 142.437 255.264 142.167 255.264 141.841C255.264 141.515 255.196 141.248 255.06 141.041C254.924 140.829 254.731 140.674 254.48 140.573C254.233 140.469 253.941 140.417 253.604 140.417H252.896Z" fill="black"/>
</svg>
