<?xml version="1.0" encoding="UTF-8"?>
<svg width="48px" height="48px" viewBox="0 0 48 48" version="1.1" xmlns="http://www.w3.org/2000/svg" xmlns:xlink="http://www.w3.org/1999/xlink">
    <!-- Generator: Sketch 56.2 (81672) - https://sketch.com -->
    <title>eye grey crossed</title>
    <desc>Created with Sketch.</desc>
    <g id="eye-grey-crossed" stroke="none" stroke-width="1" fill="none" fill-rule="evenodd">
        <g id="eye-crossed" fill="#8A8A8A" fill-rule="nonzero" stroke="#8A8A8A" stroke-width="0.5">
            <path d="M17.8840287,31.862627 L13.1016025,36.7345574 L11.6743393,35.333515 L16.1242799,30.8002927 C13.9043679,29.2474702 11.8629412,26.9807059 10,24 C13.8888889,17.7777778 18.5555556,14.6666667 24,14.6666667 C26.261209,14.6666667 28.3882559,15.203315 30.3811407,16.2766117 L35.231225,11.335757 L36.6584882,12.7367994 L32.112118,17.3682559 C34.2407493,18.9148213 36.2033767,21.1254027 38,24 C34.1111111,30.2222222 29.4444444,33.3333333 24,33.3333333 C21.838784,33.3333333 19.8001269,32.8430979 17.8840287,31.862627 Z M17.5473762,29.3505629 L19.2283996,27.6380788 C18.4577398,26.6288433 18,25.3678771 18,24 C18,20.6862915 20.6862915,18 24,18 C25.3279434,18 26.5551271,18.4314035 27.5490481,19.1617075 L28.911173,17.7740901 C27.3537668,17.0316011 25.7183149,16.6666667 24,16.6666667 C19.6167895,16.6666667 15.7727667,19.0412858 12.3879709,24 C14.0006449,26.3625618 15.717564,28.1385309 17.5473762,29.3505629 Z M19.3654673,30.353463 C20.839619,31.0102147 22.3831254,31.3333333 24,31.3333333 C28.3832105,31.3333333 32.2272333,28.9587142 35.6120291,24 C34.0704365,21.7415721 32.4335857,20.0191664 30.6939228,18.8129929 L28.9424556,20.5972392 C29.6094389,21.5641798 30,22.7364797 30,24 C30,27.3137085 27.3137085,30 24,30 C22.7763506,30 21.6382555,29.6336986 20.6893858,29.0047671 L19.3654673,30.353463 Z M27.5016631,22.0649965 L22.1302025,27.5369851 C22.6882117,27.8325844 23.3245549,28 24,28 C26.209139,28 28,26.209139 28,24 C28,23.2980988 27.8192128,22.6384227 27.5016631,22.0649965 Z M26.126148,20.6112375 C25.5102201,20.2239829 24.781267,20 24,20 C21.790861,20 20,21.790861 20,24 C20,24.8078221 20.2394679,25.5597135 20.6512891,26.1885596 L26.126148,20.6112375 Z M16,40 L16,42 L11,42 C8.23857625,42 6,39.7614237 6,37 L6,32 L8,32 L8,37 C8,38.6568542 9.34314575,40 11,40 L16,40 Z M32,40 L37,40 C38.6568542,40 40,38.6568542 40,37 L40,32 L42,32 L42,37 C42,39.7614237 39.7614237,42 37,42 L32,42 L32,40 Z M16,8 L11,8 C9.34314575,8 8,9.34314575 8,11 L8,16 L6,16 L6,11 C6,8.23857625 8.23857625,6 11,6 L16,6 L16,8 Z M32,8 L32,6 L37,6 C39.7614237,6 42,8.23857625 42,11 L42,16 L40,16 L40,11 C40,9.34314575 38.6568542,8 37,8 L32,8 Z" id="Combined-Shape"></path>
        </g>
    </g>
</svg>