<svg xmlns="http://www.w3.org/2000/svg" width="96" height="96" fill="none" viewBox="0 0 96 96">
    <circle cx="48" cy="48" r="48" fill="#5E5E5E"/>
    <path stroke="#fff" stroke-width="1.5" d="M59.779 35.496c0-1.601-1.43-3-3.03-3h-4.713m7.743 3v30.042m0-30.042c0-1.601.56-3 2.162-3h4.91c1.6 0 3.03.899 3.03 2.5v30.542c0 1.598-1.43 2.716-3.03 2.716H62.81c-1.602 0-3.031-1.118-3.031-2.716m0 0c0 1.598-1.43 2.716-3.03 2.716h-4.042c-1.213 0-2.33-.644-2.797-1.652M30.746 56.65H46.25c.968 0 1.751-.784 1.751-1.75V44.432c0-.968-.783-1.75-1.751-1.75H30.746c-.968 0-1.746.782-1.746 1.75V54.9c0 .966.778 1.75 1.746 1.75zm7.918-28.183c7.223 0 12.336 3.524 12.336 5.956v24.882c0 7.32-6.249 9.385-12.336 9.371-5.75-.01-12.664-1.712-12.664-9.37V34.422c0-2.432 5.441-5.956 12.664-5.956z"/>
    <path fill="#fff" fill-rule="evenodd" stroke="#fff" stroke-width="1.5" d="M32.6 34.167h12.222l.178.396-6.303 2.104-6.303-2.055.206-.445z" clip-rule="evenodd"/>
</svg>
