<svg width="24" height="24" viewBox="0 0 24 24" fill="none" xmlns="http://www.w3.org/2000/svg">
<path fill-rule="evenodd" clip-rule="evenodd" d="M9.34636 3.83804C7.4375 2.04894 4.36151 2.04894 2.45265 3.83804C0.516109 5.65308 0.516109 8.61722 2.45265 10.4323C4.36151 12.2214 7.4375 12.2214 9.34636 10.4323L8.32059 9.33782C6.98868 10.5862 4.81033 10.5862 3.47842 9.33782C2.17419 8.11541 2.17419 6.15488 3.47842 4.93248C4.81033 3.68413 6.98868 3.68413 8.32059 4.93248L9.34636 3.83804ZM2.81526 16.928L2.24081 17.4248L1.25967 16.2901L1.83412 15.7934C4.44005 13.54 8.14084 13.0631 11.2329 14.5823L14.0948 15.9884C15.2078 16.5353 16.5478 16.2862 17.39 15.3759L18.491 16.3945C17.1984 17.7917 15.1417 18.174 13.4333 17.3347L10.5714 15.9286C8.01977 14.6749 4.96576 15.0684 2.81526 16.928ZM2.70805 21.891L2.23449 22.2914L1.266 21.146L1.73957 20.7456C4.46625 18.4401 8.32024 18.0228 11.4772 19.6911L12.3664 20.161C15.2443 21.6818 18.783 21.0981 21.0201 18.7338L21.4433 18.2865L22.5328 19.3174L22.1097 19.7647C19.4097 22.6183 15.1389 23.3226 11.6656 21.4872L10.7764 21.0173C8.16061 19.635 4.9673 19.9808 2.70805 21.891ZM10.1072 7.13515C10.1072 4.57314 12.1841 2.49622 14.7461 2.49622H15.0634C17.6254 2.49622 19.7023 4.57314 19.7023 7.13515C19.7023 9.69716 17.6254 11.7741 15.0634 11.7741H14.7461C12.1841 11.7741 10.1072 9.69716 10.1072 7.13515ZM14.7461 3.99622C13.0125 3.99622 11.6072 5.40156 11.6072 7.13515C11.6072 8.86873 13.0125 10.2741 14.7461 10.2741H15.0634C16.797 10.2741 18.2023 8.86873 18.2023 7.13515C18.2023 5.40156 16.797 3.99622 15.0634 3.99622H14.7461ZM20.0513 13.9405H22.9999V13.2559H21.337L21.8826 12.6846C22.1728 12.4213 22.3827 12.2115 22.5123 12.0553C22.6439 11.8973 22.7406 11.7472 22.8026 11.605C22.8645 11.4611 22.8954 11.3137 22.8954 11.1627C22.8954 10.8046 22.7716 10.5299 22.5239 10.3386C22.2782 10.1472 21.9271 10.0516 21.4705 10.0516C21.186 10.0516 20.9287 10.1077 20.6985 10.2201C20.4682 10.3324 20.2883 10.4887 20.1587 10.6888C20.029 10.8871 19.9642 11.1039 19.9642 11.3391H20.9452C20.9452 11.1671 20.9916 11.024 21.0845 10.9099C21.1773 10.7941 21.2983 10.7362 21.4472 10.7362C21.5982 10.7362 21.7133 10.7792 21.7926 10.8652C21.8719 10.9512 21.9116 11.0767 21.9116 11.2417C21.9116 11.4453 21.7442 11.72 21.4095 12.0658L20.0513 13.3612V13.9405Z" fill="#303030"/>
</svg>
