<svg width="88" height="88" viewBox="0 0 88 88" fill="none" xmlns="http://www.w3.org/2000/svg">
<path fill-rule="evenodd" clip-rule="evenodd" d="M75.8848 18.7368C75.8848 21.3528 73.7514 23.4735 71.1196 23.4735C68.4879 23.4735 66.3544 21.3528 66.3544 18.7368C66.3544 16.1207 68.4879 14 71.1196 14C73.7514 14 75.8848 16.1207 75.8848 18.7368ZM49.8304 66.0195L48.9531 65.5451L48.1762 66.1705C44.0163 69.5194 38.83 71.5 33.2086 71.5C19.6339 71.5 8.50024 59.8948 8.50024 45.4155C8.50024 30.9363 19.6339 19.3311 33.2086 19.3311C40.851 19.3311 47.7014 22.9951 52.247 28.7887L52.87 29.5828L53.8403 29.3048C55.6091 28.798 57.4797 28.5259 59.4169 28.5259C70.5171 28.5259 79.5002 37.4683 79.5002 48.4804C79.5002 59.4926 70.5171 68.435 59.4169 68.435C55.9419 68.435 52.6775 67.5593 49.8304 66.0195ZM33.2086 17.8311C41.3476 17.8311 48.6201 21.736 53.4271 27.8628C55.3289 27.3179 57.3386 27.0259 59.4169 27.0259C71.3371 27.0259 81.0002 36.6314 81.0002 48.4804C81.0002 60.3295 71.3371 69.935 59.4169 69.935C55.6869 69.935 52.1779 68.9944 49.1168 67.3389C44.7056 70.8902 39.1912 73 33.2086 73C18.7341 73 7.00024 60.65 7.00024 45.4155C7.00024 30.1811 18.7341 17.8311 33.2086 17.8311ZM50.1877 48.4805C50.1877 43.8302 53.9789 40.0681 58.6461 40.0681C63.3132 40.0681 67.1044 43.8302 67.1044 48.4805C67.1044 53.1307 63.3132 56.8928 58.6461 56.8928C53.9789 56.8928 50.1877 53.1307 50.1877 48.4805ZM58.6461 41.5681C54.7989 41.5681 51.6877 44.6671 51.6877 48.4805C51.6877 52.2938 54.7989 55.3928 58.6461 55.3928C62.4933 55.3928 65.6044 52.2938 65.6044 48.4805C65.6044 44.6671 62.4933 41.5681 58.6461 41.5681ZM40.6798 38.7609C36.8591 34.8709 30.6588 34.8709 26.838 38.7609C23.0247 42.6435 23.0247 48.9329 26.838 52.8154C30.6588 56.7055 36.8591 56.7055 40.6798 52.8154L39.6096 51.7644C36.3768 55.0559 31.141 55.0559 27.9082 51.7644C24.668 48.4653 24.668 43.111 27.9082 39.812C31.141 36.5205 36.3768 36.5205 39.6096 39.812L40.6798 38.7609Z" fill="#DBDBDB"/>
</svg>
