<svg width="16" height="16" viewBox="0 0 16 16" fill="none" xmlns="http://www.w3.org/2000/svg">
<path fill-rule="evenodd" clip-rule="evenodd" d="M2.51666 5.49993C2.51666 2.47157 4.97163 0.0166016 8 0.0166016C11.0284 0.0166016 13.4833 2.47157 13.4833 5.49993V10.4999C13.4833 13.5283 11.0284 15.9833 8 15.9833C4.97163 15.9833 2.51666 13.5283 2.51666 10.4999V5.49993ZM8 1.3166C5.6896 1.3166 3.81666 3.18954 3.81666 5.49993V10.4999C3.81666 12.8103 5.6896 14.6833 8 14.6833C10.3104 14.6833 12.1833 12.8103 12.1833 10.4999V5.49993C12.1833 3.18954 10.3104 1.3166 8 1.3166ZM7.96265 4.01661C8.32162 4.0132 8.61539 4.30143 8.61881 4.66039L8.64442 7.34992H10.3339C10.6929 7.34992 10.9839 7.64093 10.9839 7.99992C10.9839 8.3589 10.6929 8.64992 10.3339 8.64992H8.6568L8.6823 11.3271C8.68572 11.686 8.39749 11.9798 8.03852 11.9832C7.67955 11.9866 7.38578 11.6984 7.38236 11.3394L7.35675 8.64992H5.66725C5.30827 8.64992 5.01725 8.3589 5.01725 7.99992C5.01725 7.64093 5.30827 7.34992 5.66725 7.34992H7.34436L7.31887 4.67278C7.31545 4.31381 7.60368 4.02003 7.96265 4.01661Z" fill="#303030"/>
</svg>
