<svg width="16" height="16" viewBox="0 0 16 16" fill="none" xmlns="http://www.w3.org/2000/svg">
<path fill-rule="evenodd" clip-rule="evenodd" d="M4.10243 0.659134C5.12164 0.508543 6.42541 0.482422 8.05736 0.482422C9.74938 0.482422 11.0888 0.505574 12.1269 0.651783C13.165 0.79801 14.0084 1.07997 14.6201 1.68372C15.2337 2.28933 15.516 3.12155 15.6601 4.13666C15.8037 5.1493 15.8226 6.45094 15.8226 8.08316C15.8226 9.71496 15.8058 11.0214 15.665 12.0414C15.524 13.0632 15.2463 13.9044 14.639 14.5213C14.0314 15.1387 13.1893 15.4346 12.146 15.5904C11.1041 15.7459 9.75915 15.7747 8.05736 15.7747C6.40475 15.7747 5.08997 15.7429 4.0649 15.583C3.03675 15.4227 2.20417 15.1203 1.59919 14.5022C0.995453 13.8854 0.709882 13.0473 0.561701 12.0258C0.413845 11.0065 0.390564 9.70566 0.390564 8.08325C0.390564 6.45951 0.418618 5.16304 0.573195 4.15012C0.728254 3.13404 1.02354 2.30601 1.63588 1.70165C2.2471 1.09839 3.08118 0.810026 4.10243 0.659134ZM1.85832 4.34623C1.72078 5.24749 1.69056 6.44891 1.69056 8.08325C1.69056 9.71893 1.71597 10.9273 1.84824 11.8392C1.98018 12.7488 2.20619 13.2638 2.52823 13.5929C2.84903 13.9206 3.35644 14.1568 4.26525 14.2986C5.17714 14.4408 6.39629 14.4747 8.05736 14.4747C9.77 14.4747 11.0217 14.4438 11.9541 14.3046C12.8851 14.1656 13.395 13.932 13.7126 13.6094C14.0304 13.2865 14.2511 12.7775 14.3772 11.8637C14.5036 10.948 14.5226 9.73329 14.5226 8.08316C14.5226 6.43344 14.5015 5.22526 14.373 4.31928C14.2448 3.41577 14.0226 2.92054 13.7069 2.60896C13.3893 2.29551 12.8786 2.07051 11.9455 1.93908C11.0123 1.80763 9.76336 1.78242 8.05736 1.78242C6.41399 1.78242 5.20301 1.81063 4.29244 1.94517C3.38393 2.07941 2.87322 2.30697 2.54907 2.6269C2.22604 2.94572 1.99537 3.44814 1.85832 4.34623ZM5.8042 8.08325C5.8042 7.72427 6.09522 7.43325 6.4542 7.43325H9.79078L9.79087 8.08325L9.79085 8.73325H6.4542C6.09522 8.73325 5.8042 8.44224 5.8042 8.08325ZM10.4409 8.08325C10.4409 8.44224 10.1498 8.73325 9.79085 8.73325L9.79087 8.08325L9.79078 7.43325C10.1498 7.43325 10.4409 7.72427 10.4409 8.08325Z" fill="#303030"/>
</svg>
