<svg xmlns="http://www.w3.org/2000/svg" width="24" height="24" fill="none" viewBox="0 0 24 24">
    <path stroke="#60E3AB" d="M22.5 12c0-5.799-4.701-10.5-10.5-10.5S1.5 6.201 1.5 12 6.201 22.5 12 22.5 22.5 17.799 22.5 12z"/>
    <path fill="#60E3AB" fill-rule="evenodd" d="M14.474 11.395L13 12.5V14h-2v-2c0-.315.148-.61.4-.8l1.874-1.405c.03-.022.058-.046.086-.07.608-.532.67-1.458.137-2.066-.642-.735-1.742-.85-2.523-.264L9.1 8.8 7.9 7.2l1.874-1.405c1.618-1.214 3.897-.975 5.229.547 1.26 1.44 1.113 3.628-.326 4.888-.066.058-.133.112-.203.165zM13.414 17L12 15.586 10.586 17 12 18.414 13.414 17z" clip-rule="evenodd"/>
</svg>
