<svg width="24" height="24" viewBox="0 0 24 24" fill="none" xmlns="http://www.w3.org/2000/svg">
<g clip-path="url(#clip0_2602_2409)">
<path d="M0 9.28644V1.12834H1.64631V9.28644H0Z" fill="#5AE4AF"/>
<path d="M6.21881 2.45083C5.59923 2.45083 5.1195 2.69635 4.77962 3.1874C4.43973 3.67473 4.26979 4.3555 4.26979 5.22971C4.26979 7.04883 4.91947 7.95838 6.21881 7.95838C6.76404 7.95838 7.42434 7.81516 8.1997 7.52871V8.97954C7.56242 9.25854 6.85079 9.39805 6.0648 9.39805C4.9354 9.39805 4.07153 9.03906 3.47319 8.32109C2.87485 7.5994 2.57568 6.56522 2.57568 5.21855C2.57568 4.37038 2.72261 3.62823 3.01647 2.99209C3.31033 2.35224 3.73164 1.86306 4.28041 1.52453C4.83272 1.18228 5.47886 1.01116 6.21881 1.01116C6.97293 1.01116 7.73059 1.20274 8.49179 1.58591L7.96072 2.99209C7.6704 2.84701 7.37831 2.72053 7.08446 2.61265C6.7906 2.50477 6.50205 2.45083 6.21881 2.45083Z" fill="#5AE4AF"/>
<path d="M16.2241 5.19623C16.2241 6.54662 15.9055 7.58451 15.2682 8.30993C14.6309 9.03534 13.7175 9.39805 12.5279 9.39805C11.3383 9.39805 10.4249 9.03534 9.78759 8.30993C9.15031 7.58451 8.83167 6.5429 8.83167 5.18507C8.83167 3.82725 9.15031 2.79121 9.78759 2.07696C10.4284 1.35899 11.3454 1 12.5385 1C13.7317 1 14.6433 1.36085 15.2735 2.08254C15.9073 2.80423 16.2241 3.84213 16.2241 5.19623ZM10.5576 5.19623C10.5576 6.10765 10.7223 6.794 11.0515 7.25529C11.3808 7.71658 11.8729 7.94722 12.5279 7.94722C13.8414 7.94722 14.4982 7.03023 14.4982 5.19623C14.4982 3.35852 13.845 2.43967 12.5385 2.43967C11.8835 2.43967 11.3897 2.67217 11.0568 3.13718C10.724 3.59847 10.5576 4.28482 10.5576 5.19623Z" fill="#5AE4AF"/>
<path d="M24.0415 9.28644H21.9491L18.5715 3.11486H18.5237C18.5909 4.20484 18.6246 4.98233 18.6246 5.44734V9.28644H17.1535V1.12834H19.23L22.6023 7.23855H22.6395C22.5863 6.17833 22.5598 5.42874 22.5598 4.98977V1.12834H24.0415V9.28644Z" fill="#5AE4AF"/>
<path d="M6.3622 23H4.7212V19.479H1.64631V23H0V14.8419H1.64631V18.0393H4.7212V14.8419H6.3622V23Z" fill="#5AE4AF"/>
<path d="M12.119 23H7.64739V14.8419H12.119V16.2592H9.2937V18.0505H11.9225V19.4678H9.2937V21.5715H12.119V23Z" fill="#5AE4AF"/>
<path d="M14.7106 18.4634H15.2417C15.7621 18.4634 16.1463 18.3722 16.3941 18.19C16.6419 18.0077 16.7658 17.7212 16.7658 17.3306C16.7658 16.9437 16.6384 16.6684 16.3835 16.5048C16.1321 16.3411 15.7409 16.2592 15.2098 16.2592H14.7106V18.4634ZM14.7106 19.8696V23H13.0643V14.8419H15.3266C16.3817 14.8419 17.1624 15.0446 17.6687 15.4501C18.1749 15.8519 18.4281 16.4638 18.4281 17.286C18.4281 17.7659 18.3024 18.1937 18.051 18.5694C17.7997 18.9414 17.4438 19.2334 16.9836 19.4455C18.1519 21.2795 18.9131 22.4643 19.2672 23H17.4403L15.5869 19.8696H14.7106Z" fill="#5AE4AF"/>
<path d="M24.0362 23H19.5646V14.8419H24.0362V16.2592H21.2109V18.0505H23.8397V19.4678H21.2109V21.5715H24.0362V23Z" fill="#5AE4AF"/>
</g>
<defs>
<clipPath id="clip0_2602_2409">
<rect width="24" height="24" fill="white"/>
</clipPath>
</defs>
</svg>
