<svg width="16" height="16" viewBox="0 0 16 16" fill="none" xmlns="http://www.w3.org/2000/svg">
<path fill-rule="evenodd" clip-rule="evenodd" d="M8.00091 1.3166C4.30981 1.3166 1.31758 4.30883 1.31758 7.99993C1.31758 11.691 4.30981 14.6833 8.00091 14.6833C11.692 14.6833 14.6842 11.691 14.6842 7.99993C14.6842 4.30883 11.692 1.3166 8.00091 1.3166ZM0.0175781 7.99993C0.0175781 3.59086 3.59184 0.0166016 8.00091 0.0166016C12.41 0.0166016 15.9842 3.59086 15.9842 7.99993C15.9842 12.409 12.41 15.9833 8.00091 15.9833C3.59184 15.9833 0.0175781 12.409 0.0175781 7.99993ZM6.66758 6.52897H8.00091H8.65091V7.17897V11.9999H7.35091V7.82897H6.66758V6.52897ZM8.75091 4.62932C8.75091 4.2151 8.41513 3.87931 8.00092 3.87931C7.5867 3.87931 7.25091 4.2151 7.25091 4.62931L7.25091 4.70401C7.25091 5.11823 7.58669 5.45402 8.00091 5.45402C8.41512 5.45402 8.75091 5.11823 8.75091 4.70402V4.62932Z" fill="#5AE4AF"/>
</svg>
