<svg width="16" height="16" viewBox="0 0 16 16" fill="none" xmlns="http://www.w3.org/2000/svg">
<path fill-rule="evenodd" clip-rule="evenodd" d="M1.35001 1.33311C1.35001 0.97412 1.64102 0.683105 2.00001 0.683105H14C14.359 0.683105 14.65 0.97412 14.65 1.33311V14.6664C14.65 15.0254 14.359 15.3164 14 15.3164H2.00001C1.64102 15.3164 1.35001 15.0254 1.35001 14.6664V1.33311ZM2.65001 1.98311V14.0164H13.35V1.98311H2.65001ZM4.01667 5.18457C4.01667 4.82558 4.30769 4.53457 4.66667 4.53457H11.3333C11.6923 4.53457 11.9833 4.82558 11.9833 5.18457C11.9833 5.54355 11.6923 5.83457 11.3333 5.83457H4.66667C4.30769 5.83457 4.01667 5.54355 4.01667 5.18457ZM4.01667 7.99974C4.01668 7.64076 4.3077 7.34975 4.66668 7.34975L11.3334 7.34987C11.6923 7.34988 11.9833 7.6409 11.9833 7.99989C11.9833 8.35887 11.6923 8.64988 11.3333 8.64987L4.66666 8.64975C4.30768 8.64975 4.01667 8.35873 4.01667 7.99974ZM4.01667 10.8149C4.01667 10.4559 4.30769 10.1649 4.66667 10.1649H11.3341C11.6931 10.1649 11.9841 10.4559 11.9841 10.8149C11.9841 11.1739 11.6931 11.4649 11.3341 11.4649H4.66667C4.30769 11.4649 4.01667 11.1739 4.01667 10.8149Z" fill="#303030"/>
</svg>
