<svg width="24" height="24" viewBox="0 0 24 24" fill="none" xmlns="http://www.w3.org/2000/svg">
<path d="M7.48004 16.4857C8.51564 17.5197 9.60877 18.4531 10.7594 19.2859C11.9101 20.1188 13.0608 20.7794 14.2114 21.2676C15.3621 21.7559 16.4516 22 17.48 22C18.1776 22 18.8285 21.8743 19.4326 21.623C20.0367 21.3717 20.5832 20.9768 21.0723 20.4383C21.3599 20.1224 21.5865 19.7814 21.7519 19.4152C21.9173 19.0562 22 18.6936 22 18.3274C22 18.0546 21.9461 17.7961 21.8382 17.552C21.7303 17.3007 21.5469 17.0853 21.288 16.9058L17.9763 14.5579C17.7246 14.3856 17.4908 14.2563 17.2751 14.1702C17.0593 14.084 16.8544 14.0409 16.6602 14.0409C16.4157 14.0409 16.1784 14.1091 15.9482 14.2456C15.7181 14.3748 15.4808 14.5615 15.2362 14.8056L14.4703 15.5595C14.3625 15.6744 14.2258 15.7318 14.0604 15.7318C13.9741 15.7318 13.8914 15.7175 13.8123 15.6887C13.7404 15.66 13.6793 15.6349 13.6289 15.6134C13.2909 15.4339 12.8594 15.1251 12.3344 14.6871C11.8094 14.242 11.2808 13.7537 10.7487 13.2224C10.2237 12.6911 9.73822 12.1633 9.29234 11.6392C8.84646 11.1151 8.53722 10.6878 8.36462 10.3576C8.33585 10.3001 8.30708 10.2355 8.27832 10.1637C8.25674 10.0847 8.24595 10.0057 8.24595 9.92676C8.24595 9.7688 8.29989 9.63597 8.40777 9.52827L9.17368 8.74206C9.411 8.49794 9.59799 8.26099 9.73463 8.03123C9.87127 7.80147 9.93959 7.56453 9.93959 7.32041C9.93959 7.12655 9.89284 6.92192 9.79935 6.70652C9.71305 6.49111 9.58001 6.25776 9.40022 6.00646L7.08091 2.74313C6.89392 2.48465 6.67098 2.29797 6.41208 2.18309C6.15318 2.06103 5.8799 2 5.59223 2C4.85149 2 4.1575 2.31233 3.51025 2.937C2.98526 3.4396 2.6005 3.99605 2.35599 4.60635C2.11866 5.20948 2 5.85568 2 6.54496C2 7.57889 2.24092 8.66667 2.72276 9.80829C3.2046 10.9427 3.85904 12.0808 4.68608 13.2224C5.51312 14.364 6.44444 15.4518 7.48004 16.4857Z" stroke="#303030" stroke-width="1.5"/>
</svg>
