<svg width="88" height="88" viewBox="0 0 88 88" fill="none" xmlns="http://www.w3.org/2000/svg">
<g clip-path="url(#clip0_6551_325875)">
<path fill-rule="evenodd" clip-rule="evenodd" d="M82.0002 15.7281C82.0002 21.1008 77.6448 25.4562 72.2721 25.4562C66.8994 25.4562 62.544 21.1008 62.544 15.7281C62.544 10.3554 66.8994 6 72.2721 6C77.6448 6 82.0002 10.3554 82.0002 15.7281ZM58.0344 9.38678H26.6556C17.1184 9.38678 9.38696 17.1182 9.38696 26.6554V61.3446C9.38696 70.8818 17.1184 78.6132 26.6556 78.6132H61.3447C70.8819 78.6132 78.6134 70.8818 78.6134 61.3446V29.9658H77.1134V61.3446C77.1134 70.0533 70.0535 77.1132 61.3447 77.1132H26.6556C17.9468 77.1132 10.887 70.0533 10.887 61.3446V26.6554C10.887 17.9466 17.9468 10.8868 26.6556 10.8868H58.0344V9.38678ZM34.7502 58.7224L58.0002 44L34.7502 29.2776L34.7502 58.7224Z" fill="#DBDBDB"/>
</g>
<defs>
<clipPath id="clip0_6551_325875">
<rect width="76" height="76" fill="white" transform="translate(6.00024 6)"/>
</clipPath>
</defs>
</svg>
