<svg width="24" height="24" viewBox="0 0 24 24" fill="none" xmlns="http://www.w3.org/2000/svg">
<g clip-path="url(#clip0_28592_384084)">
<path fill-rule="evenodd" clip-rule="evenodd" d="M4.21789 14.5292C1.37023 11.6815 1.37023 7.06457 4.21789 4.21691C7.06554 1.36925 11.6825 1.36925 14.5302 4.21691C17.3778 7.06457 17.3778 11.6815 14.5302 14.5292C11.6825 17.3768 7.06554 17.3768 4.21789 14.5292ZM3.15723 3.15625C-0.276216 6.58969 -0.276216 12.1564 3.15723 15.5898C6.41195 18.8446 11.5836 19.014 15.0379 16.0981L22.4703 23.5305L23.531 22.4698L16.0986 15.0375C19.015 11.5832 18.8457 6.41114 15.5908 3.15625C12.1574 -0.277192 6.59067 -0.277192 3.15723 3.15625Z" fill="#787878"/>
</g>
<defs>
<clipPath id="clip0_28592_384084">
<rect width="24" height="24" fill="white"/>
</clipPath>
</defs>
</svg>
