<svg width="16" height="16" viewBox="0 0 16 16" fill="none" xmlns="http://www.w3.org/2000/svg">
<path fill-rule="evenodd" clip-rule="evenodd" d="M1.81666 3.33327C1.81666 2.21949 2.71956 1.3166 3.83333 1.3166C4.9471 1.3166 5.85 2.21949 5.85 3.33327V5.34993H5.16666C4.25539 5.34993 3.51666 6.08866 3.51666 6.99993V13.8333C3.51666 14.7445 4.25539 15.4833 5.16666 15.4833H13.8333C14.7446 15.4833 15.4833 14.7445 15.4833 13.8333V6.99993C15.4833 6.08866 14.7446 5.34993 13.8333 5.34993H7.15V3.33327C7.15 1.50152 5.66507 0.0166016 3.83333 0.0166016C2.00159 0.0166016 0.516663 1.50152 0.516663 3.33327V5.99993H1.81666V3.33327ZM4.81666 6.99993C4.81666 6.80663 4.97336 6.64993 5.16666 6.64993H13.8333C14.0266 6.64993 14.1833 6.80664 14.1833 6.99993V13.8333C14.1833 14.0266 14.0266 14.1833 13.8333 14.1833H5.16666C4.97336 14.1833 4.81666 14.0266 4.81666 13.8333V6.99993Z" fill="#303030"/>
</svg>
