<svg width="24" height="24" viewBox="0 0 24 24" fill="none" xmlns="http://www.w3.org/2000/svg">
<path fill-rule="evenodd" clip-rule="evenodd" d="M13.8051 0.814874C14.0757 0.935372 14.25 1.20382 14.25 1.5V22.5C14.25 22.7962 14.0757 23.0646 13.8051 23.1851C13.5346 23.3056 13.2184 23.2556 12.9983 23.0575L5.7122 16.5H1.75C1.33579 16.5 1 16.1642 1 15.75V8.25C1 7.83578 1.33579 7.5 1.75 7.5H5.7122L12.9983 0.942528C13.2184 0.744392 13.5346 0.694375 13.8051 0.814874ZM12.75 3.18402L6.50172 8.80747C6.36401 8.93142 6.18528 9 6 9H2.5V15H6C6.18528 15 6.36401 15.0686 6.50172 15.1925L12.75 20.816V3.18402ZM22.25 12C22.25 8.58868 21.1424 5.55483 19.4224 3.47843L20.5776 2.52157C22.5438 4.8953 23.75 8.27785 23.75 12C23.75 15.7221 22.5438 19.1047 20.5776 21.4784L19.4224 20.5216C21.1424 18.4452 22.25 15.4113 22.25 12ZM16.4224 6.47843C17.528 7.81314 18.25 9.77759 18.25 12C18.25 14.2224 17.528 16.1869 16.4224 17.5216L17.5776 18.4784C18.9294 16.8464 19.75 14.5332 19.75 12C19.75 9.46676 18.9294 7.15361 17.5776 5.52157L16.4224 6.47843Z" fill="#ADADAD"/>
</svg>
