<svg width="24" height="24" viewBox="0 0 24 24" fill="none" xmlns="http://www.w3.org/2000/svg">
<path d="M8.50088 11.25C8.08667 11.25 7.75088 11.5858 7.75088 12C7.75088 12.4142 8.08667 12.75 8.50088 12.75V11.25ZM15.5009 12.75C15.9151 12.75 16.2509 12.4142 16.2509 12C16.2509 11.5858 15.9151 11.25 15.5009 11.25V12.75ZM11.2985 17.0071C11.3025 17.4213 11.6414 17.7539 12.0556 17.7499C12.4698 17.746 12.8024 17.407 12.7985 16.9928L11.2985 17.0071ZM12.7032 6.99283C12.6993 6.57864 12.3603 6.24606 11.9461 6.25001C11.5319 6.25395 11.1994 6.59292 11.2033 7.00712L12.7032 6.99283ZM18.5 8.25V15.75H20V8.25H18.5ZM5.5 15.75V8.25H4V15.75H5.5ZM12 22.25C8.41015 22.25 5.5 19.3399 5.5 15.75H4C4 20.1683 7.58172 23.75 12 23.75V22.25ZM18.5 15.75C18.5 19.3399 15.5899 22.25 12 22.25V23.75C16.4183 23.75 20 20.1683 20 15.75H18.5ZM12 1.75C15.5899 1.75 18.5 4.66015 18.5 8.25H20C20 3.83172 16.4183 0.25 12 0.25V1.75ZM12 0.25C7.58172 0.25 4 3.83172 4 8.25H5.5C5.5 4.66015 8.41015 1.75 12 1.75V0.25ZM8.50088 12.75H15.5009V11.25H8.50088V12.75ZM12.7985 16.9928L12.7032 6.99283L11.2033 7.00712L11.2985 17.0071L12.7985 16.9928Z" fill="#ADADAD"/>
</svg>
