<svg width="189" height="128" viewBox="0 0 189 128" fill="none" xmlns="http://www.w3.org/2000/svg">
<path fill-rule="evenodd" clip-rule="evenodd" d="M57.6318 7.97849L57.6429 7.16835C57.6407 7.16832 57.6386 7.16829 57.6364 7.16826L61.6305 7.15379L61.6331 8.85379L57.6318 8.86828V7.97849ZM57.6318 7.97849L57.6197 8.86819C56.7867 8.85685 55.9445 8.85086 55.0918 8.85008L55.0933 7.15009C55.951 7.15086 56.7982 7.15687 57.6364 7.16826L57.6318 7.16828V7.97849ZM69.6563 7.3053L69.6036 9.00448C68.2741 8.96324 66.9437 8.92767 65.6123 8.89777L65.6505 7.1982C66.9867 7.2282 68.322 7.2639 69.6563 7.3053ZM77.5763 9.33245L77.6705 7.63507C77.0536 7.60082 76.4627 7.57006 75.8899 7.54258L74.7661 7.4919L73.6614 7.44679L73.594 9.14545C73.961 9.16 74.3279 9.17498 74.6947 9.1904L75.8091 9.24065L77.5763 9.33245ZM85.6763 8.15978L85.5361 9.85398L84.4836 9.77137C84.1232 9.74453 83.7518 9.71825 83.365 9.69214L81.562 9.57492L81.671 7.87842L84.0555 8.03581C84.6202 8.0758 85.1554 8.11666 85.6763 8.15978ZM93.3671 10.8955L93.7007 9.2286C92.4214 8.97257 91.0954 8.75842 89.6945 8.57748L89.4767 10.2635C90.8402 10.4396 92.1279 10.6475 93.3671 10.8955ZM101.511 11.7451L100.768 13.2743C99.6382 12.7256 98.4414 12.2565 97.1629 11.8544L97.6728 10.2327C99.0287 10.6591 100.303 11.1587 101.511 11.7451ZM106.874 17.8756L108.158 16.7619C107.243 15.7062 106.222 14.7566 105.098 13.9135L104.078 15.2735C105.106 16.0443 106.038 16.9114 106.874 17.8756ZM112.277 23.9507L110.68 24.5341C110.224 23.2848 109.693 22.1181 109.075 21.0213L110.557 20.1871C111.221 21.3667 111.79 22.6171 112.277 23.9507ZM112.506 32.143L114.187 31.8927C114.065 31.0696 113.929 30.2748 113.778 29.5007C113.673 28.9584 113.561 28.4323 113.442 27.9193L111.786 28.3037C111.9 28.7965 112.008 29.3029 112.11 29.8258C112.256 30.5744 112.387 31.3443 112.506 32.143ZM114.999 39.9183L113.303 40.0408L113.227 39.02L113.147 38.009C113.091 37.3199 113.036 36.6832 112.977 36.0724L114.669 35.9099L114.757 36.8617C114.785 37.1875 114.814 37.523 114.842 37.8715C114.897 38.5477 114.949 39.229 114.999 39.9183ZM113.751 47.7846L113.761 48.0047L115.46 47.9288L115.404 46.7417C115.358 45.7828 115.309 44.8447 115.257 43.9226L113.559 44.0195C113.629 45.242 113.693 46.4935 113.751 47.7846ZM115.735 55.9415L114.036 55.9826C114.004 54.6515 113.965 53.3216 113.919 51.9928L115.618 51.9344C115.664 53.2689 115.703 54.6046 115.735 55.9415ZM114.148 63.9644L115.848 63.9581C115.843 62.6339 115.831 61.2982 115.812 59.9496L114.112 59.9735C114.131 61.3163 114.143 62.6461 114.148 63.9644ZM115.79 71.9763L114.09 71.9459L114.117 70.1597L114.14 67.9551L115.84 67.9678L115.817 70.1821C115.809 70.7986 115.8 71.3941 115.79 71.9763ZM113.838 79.9213L115.537 79.9931C115.59 78.7432 115.637 77.5129 115.679 76.2989L115.689 75.9878L113.99 75.9318L113.936 77.4555C113.906 78.2694 113.874 79.091 113.838 79.9213ZM115.135 87.9984L113.438 87.8954L113.545 86.0228L113.654 83.9104L115.352 83.995L115.207 86.758C115.183 87.1811 115.159 87.5935 115.135 87.9984ZM112.779 95.8204L114.467 96.0177C114.593 94.9412 114.703 93.8134 114.813 92.5036L114.854 92.0059L113.159 91.869L113.072 92.9046C113.01 93.615 112.947 94.2718 112.881 94.8989L112.779 95.8204ZM112.931 104.009L111.299 103.532C111.653 102.323 111.949 101.061 112.199 99.7217L113.87 100.033C113.61 101.426 113.301 102.743 112.931 104.009ZM108.077 110.543L109.472 111.514C110.247 110.4 110.923 109.194 111.511 107.893L109.962 107.193C109.416 108.402 108.791 109.517 108.077 110.543ZM103.392 117.206L102.509 115.753C103.543 115.125 104.498 114.416 105.378 113.618L105.564 113.447L106.724 114.69L106.52 114.877C105.559 115.749 104.517 116.522 103.392 117.206ZM95.3033 118.635L95.7206 120.283C97.0402 119.948 98.2958 119.556 99.5035 119.094L99.6352 119.043L99.0199 117.459L98.2043 117.761C97.2733 118.09 96.3089 118.38 95.3033 118.635ZM87.6936 121.609L87.52 119.918C88.3574 119.832 89.1612 119.739 89.9487 119.634C90.4623 119.566 90.9611 119.494 91.4482 119.416L91.7151 121.095C91.2133 121.175 90.7 121.249 90.1722 121.319C89.3675 121.426 88.5472 121.522 87.6936 121.609ZM79.5786 120.506L79.6762 122.203C80.1194 122.177 80.5602 122.151 80.9997 122.125L81.8372 122.073L83.6806 121.951L83.5606 120.255C83.2157 120.279 82.8643 120.303 82.4951 120.327L79.5786 120.506ZM71.6674 122.59L71.6062 120.891L72.7137 120.849L73.2467 120.826C74.0373 120.791 74.8185 120.755 75.5916 120.717L75.6744 122.415L73.3217 122.524L72.2334 122.569C72.0474 122.576 71.8589 122.583 71.6674 122.59ZM63.6248 121.11L63.6545 122.809C64.3946 122.796 65.1205 122.78 65.8349 122.761L67.6615 122.711L67.6159 121.012L65.0756 121.08L63.6248 121.11ZM55.6335 122.839L55.6453 121.139L57.7037 121.149C58.3664 121.15 59.0084 121.15 59.6371 121.149L59.642 122.849L57.7 122.849C57.0344 122.847 56.3482 122.844 55.6335 122.839ZM47.6662 121.017L47.6142 122.716C48.8694 122.754 50.0367 122.78 51.1603 122.794L51.6292 122.8L51.6494 121.1L50.5078 121.085C50.055 121.077 49.5936 121.068 49.121 121.056L47.6662 121.017ZM39.6884 120.692L43.6782 120.869L43.6076 122.568L41.5955 122.482L39.6044 122.39L39.6884 120.692ZM31.7239 120.208L31.5989 121.904C31.7265 121.913 31.8556 121.923 31.9867 121.932L34.0351 122.07L35.6007 122.169L35.7038 120.472L33.3523 120.322L31.7239 120.208ZM23.5693 120.979L23.8627 119.304C25.0958 119.52 26.3839 119.7 27.7703 119.853L27.5834 121.543C26.163 121.386 24.8398 121.201 23.5693 120.979ZM16.3462 117.203L15.6824 118.768C16.9022 119.285 18.1929 119.724 19.576 120.1L20.0222 118.46C18.7105 118.103 17.4921 117.689 16.3462 117.203ZM8.75367 114.18L9.95882 112.981C10.8514 113.878 11.8399 114.682 12.9254 115.393L11.994 116.815C10.8102 116.039 9.7299 115.161 8.75367 114.18ZM5.77306 106.569L4.20555 107.227C4.45733 107.826 4.72698 108.409 5.02314 108.991C5.36425 109.661 5.73342 110.303 6.13098 110.918L7.5587 109.995C7.19294 109.429 6.85277 108.838 6.53817 108.22C6.2612 107.676 6.00894 107.131 5.77306 106.569ZM2.01309 99.3386L3.68861 99.0511C3.92337 100.419 4.19572 101.684 4.51974 102.882L2.87872 103.326C2.53996 102.073 2.25647 100.757 2.01309 99.3386ZM2.79284 91.1553L1.09739 91.2796C1.20638 92.7655 1.3201 94.0588 1.45476 95.2939L3.14474 95.1096C3.05028 94.2431 2.96613 93.3456 2.88653 92.3687L2.79284 91.1553ZM0.61149 83.2711L2.30947 83.1883C2.37237 84.4779 2.44545 85.8006 2.52905 87.172L0.832205 87.2754C0.748191 85.8974 0.674735 84.5678 0.61149 83.2711ZM2.14231 79.2025L2.00837 75.2076L0.309275 75.2631L0.443419 79.2638L2.14231 79.2025ZM0.155597 67.2412L1.85557 67.2319L1.86836 68.8634C1.87668 69.6662 1.88792 70.4504 1.90226 71.2207L0.202558 71.2524L0.172887 69.2835C0.165098 68.6159 0.159372 67.936 0.155597 67.2412ZM1.8696 60.6237L1.88469 59.248L0.184852 59.2243L0.169653 60.6103L0.153809 63.2328L1.8538 63.2394L1.8696 60.6237ZM2.09737 51.2703L2.03211 53.1656C2.00854 53.8982 1.98773 54.591 1.96932 55.2606L0.269965 55.2139L0.33299 53.1109L0.398529 51.2075L2.09737 51.2703ZM2.34442 45.9545L2.49768 43.2987L0.800601 43.1991L0.573815 47.199L2.27156 47.2865C2.2948 46.836 2.31906 46.3923 2.34442 45.9545ZM1.40711 35.1852L3.09814 35.3596C3.04516 35.8732 2.99428 36.4063 2.9437 36.974L2.84653 38.1205C2.81509 38.5107 2.78452 38.9096 2.75456 39.3196L1.05908 39.1957L1.15207 37.9834C1.18388 37.5887 1.21657 37.2027 1.25041 36.8231C1.30166 36.2479 1.35328 35.7071 1.40711 35.1852ZM4.38819 27.5936L2.74019 27.1763C2.41906 28.4447 2.15163 29.7652 1.92576 31.1695L3.60419 31.4394C3.82241 30.0827 4.07996 28.811 4.38819 27.5936ZM5.82303 19.5338L7.27401 20.4196C6.62225 21.4872 6.058 22.6359 5.56936 23.8755L3.98779 23.2521C4.51132 21.924 5.11864 20.6876 5.82303 19.5338ZM12.4812 14.8714L11.5108 13.4755C10.3552 14.2789 9.30014 15.1866 8.34644 16.2043L9.58692 17.3668C10.4581 16.437 11.4225 15.6074 12.4812 14.8714ZM19.0237 10.0215L19.4992 11.6537C18.8279 11.8493 18.1764 12.0619 17.5296 12.2976C16.9475 12.51 16.3844 12.7385 15.8401 12.9835L15.1423 11.4333C15.7249 11.171 16.3263 10.927 16.9472 10.7005C17.63 10.4517 18.317 10.2274 19.0237 10.0215ZM27.1399 10.1908L27.2312 10.1801L27.0333 8.49165L26.2443 8.58806C25.1 8.73394 24.0323 8.89755 23.006 9.08733L23.3151 10.759C24.5079 10.5384 25.763 10.3537 27.1399 10.1908ZM35.0551 7.83038L35.1541 9.5275L33.5698 9.62479C32.7279 9.67944 31.9431 9.73569 31.1813 9.79645L31.0461 8.10184L32.464 7.99562C33.2733 7.93868 34.1255 7.88458 35.0551 7.83038ZM43.1318 9.12837L43.0599 7.42989C41.744 7.48554 40.411 7.54727 39.0576 7.61509L39.1426 9.31296C40.4917 9.24536 41.8203 9.18383 43.1318 9.12837ZM51.0772 7.18283L51.1056 8.88259C49.8089 8.90427 48.4836 8.93665 47.1194 8.97946L47.0661 7.2803C48.4383 7.23723 49.7719 7.20466 51.0772 7.18283Z" fill="#787878"/>
<path fill-rule="evenodd" clip-rule="evenodd" d="M132.494 0.0308494C136.259 0.107699 140.023 0.224947 143.785 0.383051C146.818 0.510627 149.847 0.707914 152.876 0.903683C156.916 1.16461 160.946 1.52258 164.923 2.32039C168.385 3.01492 171.727 4.05087 174.827 5.78939C178.106 7.62877 180.736 10.1407 182.703 13.3421C184.782 16.7278 185.938 20.4534 186.692 24.3236C187.29 27.3964 187.618 30.5018 187.871 33.6192C188.169 37.2848 188.385 40.955 188.551 44.6278C188.75 49.0161 188.882 53.4064 188.949 57.8001C189.003 61.3307 189.016 64.8606 188.98 68.3907C188.951 71.1454 188.903 73.9008 188.808 76.6538C188.691 80.0758 188.538 83.4968 188.359 86.916C188.221 89.5465 188.059 92.1768 187.839 94.8014C187.473 99.1659 186.96 103.512 185.703 107.729C184.383 112.159 182.311 116.148 178.835 119.298C176.611 121.314 174.051 122.779 171.258 123.847C167.944 125.113 164.497 125.826 160.989 126.291C157.594 126.741 154.182 126.98 150.765 127.188C147.898 127.361 145.031 127.509 142.161 127.635C139.365 127.759 136.568 127.823 133.771 127.9C128.291 128.05 122.811 128.004 117.332 127.937C113.761 127.894 110.19 127.742 106.622 127.588C103.5 127.453 100.38 127.275 97.2623 127.068C92.7771 126.77 88.2992 126.39 83.9014 125.392C80.8389 124.697 77.8802 123.709 75.1358 122.153C71.2839 119.97 68.3664 116.892 66.359 112.944C64.5562 109.399 63.588 105.603 62.9636 101.703C62.4547 98.526 62.1855 95.3234 61.9681 92.1152C61.7507 88.9071 61.5628 85.6978 61.4265 82.4848C61.3185 79.9408 61.2412 77.3962 61.1573 74.8515C60.9838 69.5945 60.9804 64.3367 61.022 59.0787C61.044 56.2792 61.1149 53.4796 61.205 50.6813C61.2921 47.9734 61.4 45.2651 61.5567 42.5603C61.7521 39.1876 61.9316 35.8137 62.2317 32.4469C62.5704 28.6459 63.0415 24.8681 64.0331 21.1748C64.9996 17.5755 66.4379 14.1918 68.7627 11.2402C71.5162 7.74419 75.1033 5.43309 79.2471 3.92344C82.8087 2.62581 86.5065 1.95269 90.2547 1.51013C93.6255 1.11206 97.0098 0.887432 100.398 0.699561C103.533 0.525814 106.669 0.37409 109.806 0.250463C114.732 0.0563646 119.658 -0.0466075 124.587 0.0205218C127.223 0.0205218 129.859 -0.0229148 132.494 0.0308494Z" fill="#262626"/>
<path fill-rule="evenodd" clip-rule="evenodd" d="M127.029 0.0122348C126.215 0.0163783 125.401 0.0205218 124.587 0.0205218C119.658 -0.0466075 114.732 0.0563646 109.806 0.250463C106.669 0.37409 103.533 0.525814 100.398 0.699561C97.0098 0.887432 93.6255 1.11206 90.2547 1.51013C86.5065 1.95269 82.8087 2.62581 79.2471 3.92344C75.1033 5.43309 71.5162 7.74419 68.7627 11.2402C66.4379 14.1918 64.9996 17.5755 64.0331 21.1748C63.0415 24.8681 62.5704 28.6459 62.2317 32.4469C62.0516 34.467 61.915 36.4896 61.7923 38.513L61.5567 42.5603C61.4 45.2651 61.2921 47.9734 61.205 50.6813C61.1149 53.4796 61.044 56.2792 61.022 59.0787C60.9804 64.3367 60.9838 69.5945 61.1573 74.8515C61.1723 75.3062 61.1871 75.7609 61.2019 76.2156C61.2698 78.3055 61.3378 80.3953 61.4265 82.4848C61.5628 85.6978 61.7507 88.9071 61.9681 92.1152C62.1855 95.3234 62.4547 98.526 62.9636 101.703C63.588 105.603 64.5562 109.399 66.359 112.944C68.3664 116.892 71.2839 119.97 75.1358 122.153C77.8802 123.709 80.8389 124.697 83.9014 125.392C88.2992 126.39 92.7771 126.77 97.2623 127.068C100.38 127.275 103.5 127.453 106.622 127.588C110.19 127.742 113.761 127.894 117.332 127.937C122.811 128.004 128.291 128.05 133.771 127.9C134.258 127.887 134.744 127.874 135.231 127.861C137.542 127.799 139.852 127.737 142.161 127.635C145.031 127.509 147.898 127.361 150.765 127.188C154.182 126.98 157.594 126.741 160.989 126.291C164.497 125.826 167.944 125.113 171.258 123.847C174.051 122.779 176.611 121.314 178.835 119.298C182.311 116.148 184.383 112.159 185.703 107.729C186.96 103.512 187.473 99.1659 187.839 94.8014C188.059 92.1768 188.221 89.5465 188.359 86.916C188.538 83.4968 188.691 80.0758 188.808 76.6538C188.903 73.9008 188.951 71.1454 188.98 68.3907C189.016 64.8606 189.003 61.3307 188.949 57.8001C188.882 53.4064 188.75 49.0161 188.551 44.6278C188.385 40.955 188.169 37.2848 187.871 33.6192C187.618 30.5018 187.29 27.3964 186.692 24.3236C185.938 20.4534 184.782 16.7278 182.703 13.3421C180.736 10.1407 178.106 7.62877 174.827 5.78939C171.727 4.05087 168.385 3.01492 164.923 2.32039C160.946 1.52258 156.916 1.16461 152.876 0.903683L152.689 0.891586C149.723 0.699817 146.755 0.507999 143.785 0.383051C140.023 0.224947 136.259 0.107699 132.494 0.0308494C130.673 -0.00630937 128.851 0.00296266 127.029 0.0122348ZM109.873 1.94914C115.209 1.73887 119.991 1.65809 124.563 1.72036L125.119 1.72002L129.841 1.70397C130.676 1.70486 131.343 1.71055 132.038 1.72254L135.277 1.79559C138.093 1.86824 140.906 1.96355 143.714 2.08155C145.577 2.15995 147.162 2.24584 149.753 2.40776L154.019 2.68473C158.294 2.98726 161.479 3.36324 164.589 3.98718C168.249 4.72155 171.294 5.75708 173.995 7.2721C177.032 8.97573 179.446 11.2879 181.254 14.2318C183.043 17.1445 184.212 20.4864 185.023 24.6487C185.481 26.998 185.797 29.4346 186.07 32.497L186.177 33.7566C186.401 36.5162 186.586 39.3704 186.742 42.3992L186.853 44.7048C187.051 49.0675 187.183 53.4407 187.249 57.826C187.304 61.4186 187.315 64.9281 187.28 68.3733C187.248 71.4541 187.196 74.0845 187.109 76.5954L187.065 77.8321C186.959 80.7297 186.824 83.7136 186.661 86.8272C186.507 89.7783 186.345 92.2769 186.145 94.6592L186.092 95.2707C185.651 100.305 185.091 103.829 184.073 107.244C182.718 111.793 180.689 115.323 177.694 118.038C175.718 119.829 173.381 121.215 170.651 122.259C167.739 123.371 164.564 124.102 160.766 124.606C157.878 124.989 155.042 125.225 150.662 125.491L149.271 125.573C146.941 125.707 144.553 125.828 142.086 125.937L141.634 125.956C140.887 125.988 140.172 126.015 139.341 126.042L132.458 126.232C129.088 126.308 125.712 126.318 121.081 126.277L116.765 126.229C114.821 126.201 113.001 126.147 110.345 126.042L105.577 125.839C102.954 125.718 100.24 125.562 97.375 125.372C91.9804 125.013 88.4686 124.627 85.039 123.901L84.2775 123.734C81.0735 123.007 78.3709 122.033 75.9741 120.674C72.4265 118.663 69.7379 115.839 67.8743 112.173C66.3169 109.111 65.323 105.686 64.6422 101.434C64.2512 98.9929 63.9899 96.5093 63.7487 93.2027L63.5958 90.9747C63.4399 88.6029 63.3111 86.3766 63.2075 84.2322L63.1249 82.4128C63.1089 82.0359 63.0941 81.6753 63.0797 81.3095L62.8379 74.2151C62.7247 70.5347 62.6867 66.7456 62.7039 62.1265L62.722 59.0922C62.7388 56.9488 62.7844 54.7243 62.8599 52.166L62.9288 49.9862C63.0203 47.2705 63.1232 44.9151 63.2539 42.6586L63.417 39.8337C63.5584 37.4222 63.6651 35.7798 63.7874 34.2316L63.925 32.5978C64.3272 28.0836 64.827 24.7738 65.675 21.6156C66.6744 17.8937 68.0846 14.8486 70.0982 12.2921C72.5233 9.213 75.7452 7.00853 79.829 5.52074C82.9168 4.39576 86.265 3.69302 90.4541 3.1984C93.3695 2.8541 96.3208 2.62825 100.492 2.39695L102.097 2.30996C104.757 2.16911 107.342 2.04888 109.873 1.94914Z" fill="#DBDBDB"/>
<path fill-rule="evenodd" clip-rule="evenodd" d="M125 63.5L114.5 63L113.5 64L125.032 67L136.5 64L135.5 63L125 63.5Z" fill="#DBDBDB"/>
<path d="M80.6666 68C80.6666 78.5854 72.0854 87.1666 61.4999 87.1666C50.9145 87.1666 42.3333 78.5854 42.3333 68C42.3333 57.4145 50.9145 48.8333 61.4999 48.8333C72.0854 48.8333 80.6666 57.4145 80.6666 68Z" fill="#F8DF52"/>
<path fill-rule="evenodd" clip-rule="evenodd" d="M60.5 58L60.5 71.3333H62.5L62.5 58H60.5ZM63 76.3284C63 75.5 62.3284 74.8284 61.5 74.8284C60.6715 74.8285 60 75.5001 60 76.3285V76.3855C60 77.2139 60.6716 77.8854 61.5 77.8854C62.3285 77.8854 63 77.2138 63 76.3854L63 76.3284Z" fill="black"/>
</svg>
