<svg width="176" height="126" viewBox="0 0 176 126" fill="none" xmlns="http://www.w3.org/2000/svg">
<path fill-rule="evenodd" clip-rule="evenodd" d="M57.478 5.82868L57.4891 5.01826C57.4869 5.01823 57.4848 5.0182 57.4827 5.01818L61.4767 5.0037L61.4793 6.7037L57.478 6.71819V5.82868ZM57.478 5.82868L57.4659 6.7181C56.6329 6.70676 55.7907 6.70077 54.9379 6.7L54.9395 5C55.7972 5.00078 56.6444 5.00679 57.4827 5.01818L57.478 5.01819V5.82868ZM69.5025 5.15521L69.4498 6.8544C68.1203 6.81315 66.7899 6.77758 65.4585 6.74768L65.4967 5.04811C66.8329 5.07812 68.1682 5.11382 69.5025 5.15521ZM77.4225 7.18237L77.5167 5.48498C76.8998 5.45073 76.3089 5.41998 75.7361 5.39249L74.6123 5.34181L73.5076 5.2967L73.4402 6.99537C73.8072 7.00992 74.1741 7.0249 74.5409 7.04031L75.6552 7.09057L77.4225 7.18237ZM85.5225 6.00972L85.3823 7.70393L84.3298 7.62131C83.9694 7.59447 83.598 7.5682 83.2112 7.54209L81.4082 7.42487L81.5172 5.72836L83.9017 5.88576C84.4664 5.92575 85.0016 5.96661 85.5225 6.00972ZM93.2133 8.74546L93.5469 7.07851C92.2676 6.82249 90.9416 6.60833 89.5407 6.42739L89.3229 8.11339C90.6864 8.2895 91.9741 8.49746 93.2133 8.74546ZM101.357 9.59504L100.614 11.1243C99.4844 10.5755 98.2876 10.1064 97.009 9.70436L97.519 8.08263C98.8749 8.50897 100.149 9.00857 101.357 9.59504ZM106.72 15.7256L108.004 14.6118C107.089 13.5561 106.069 12.6065 104.944 11.7634L103.924 13.1235C104.952 13.8943 105.884 14.7613 106.72 15.7256ZM112.123 21.8006L110.526 22.384C110.07 21.1347 109.539 19.968 108.922 18.8713L110.403 18.037C111.067 19.2166 111.636 20.4671 112.123 21.8006ZM112.352 29.9929L114.033 29.7426C113.911 28.9195 113.775 28.1248 113.625 27.3506C113.519 26.8083 113.407 26.2822 113.288 25.7692L111.632 26.1536C111.746 26.6464 111.854 27.1528 111.956 27.6757C112.102 28.4243 112.233 29.1942 112.352 29.9929ZM114.845 37.7682L113.149 37.8907L113.073 36.8699L112.994 35.8589C112.938 35.1698 112.882 34.5331 112.823 33.9224L114.515 33.7598L114.603 34.7116C114.631 35.0374 114.66 35.3729 114.688 35.7214C114.743 36.3976 114.795 37.079 114.845 37.7682ZM113.598 45.6345L113.607 45.8546L115.306 45.7787L115.251 44.5916C115.205 43.6327 115.155 42.6946 115.103 41.7726L113.406 41.8694C113.475 43.0919 113.539 44.3434 113.598 45.6345ZM115.581 53.7914L113.882 53.8325C113.85 52.5014 113.811 51.1715 113.765 49.8427L115.464 49.7843C115.51 51.1188 115.549 52.4545 115.581 53.7914ZM113.994 61.8143L115.694 61.8081C115.689 60.4839 115.677 59.1482 115.658 57.7995L113.958 57.8234C113.977 59.1662 113.989 60.4961 113.994 61.8143ZM115.636 69.8263L113.936 69.7958L113.963 68.0096L113.986 65.805L115.686 65.8177L115.663 68.0321C115.655 68.6485 115.646 69.2441 115.636 69.8263ZM113.685 77.7712L115.383 77.843C115.436 76.5932 115.483 75.3629 115.525 74.1488L115.536 73.8378L113.836 73.7817L113.783 75.3055C113.752 76.1193 113.72 76.9409 113.685 77.7712ZM114.981 85.8483L113.284 85.7453L113.391 83.8727L113.501 81.7603L115.198 81.8449L115.053 84.6079C115.029 85.031 115.005 85.4434 114.981 85.8483ZM112.625 93.6703L114.314 93.8676C114.439 92.7911 114.549 91.6633 114.659 90.3535L114.7 89.8559L113.005 89.7189L112.918 90.7546C112.856 91.465 112.794 92.1217 112.727 92.7488L112.625 93.6703ZM112.777 101.859L111.146 101.382C111.499 100.173 111.795 98.9106 112.045 97.5717L113.716 97.8834C113.456 99.2761 113.147 100.593 112.777 101.859ZM107.923 108.393L109.318 109.364C110.093 108.25 110.77 107.044 111.357 105.743L109.808 105.043C109.262 106.252 108.637 107.366 107.923 108.393ZM103.238 115.056L102.355 113.603C103.389 112.975 104.344 112.266 105.225 111.468L105.411 111.297L106.57 112.54L106.366 112.727C105.405 113.599 104.363 114.372 103.238 115.056ZM95.1494 116.484L95.5668 118.132C96.8864 117.798 98.142 117.406 99.3496 116.944L99.4814 116.893L98.8661 115.309L98.0505 115.611C97.1195 115.94 96.1551 116.23 95.1494 116.484ZM87.5398 119.459L87.3662 117.768C88.2036 117.682 89.0074 117.588 89.7949 117.484C90.3085 117.416 90.8073 117.344 91.2944 117.266L91.5613 118.945C91.0595 119.025 90.5462 119.099 90.0184 119.169C89.2137 119.276 88.3934 119.372 87.5398 119.459ZM79.4248 118.356L79.5224 120.053C79.9656 120.027 80.4064 120.001 80.8459 119.975L81.6834 119.923L83.5268 119.8L83.4068 118.105C83.0619 118.129 82.7105 118.153 82.3413 118.177L79.4248 118.356ZM71.5136 120.44L71.4523 118.741L72.5599 118.699L73.0929 118.676C73.8835 118.641 74.6647 118.605 75.4378 118.567L75.5206 120.265L73.1679 120.374L72.0796 120.419C71.8936 120.426 71.7051 120.433 71.5136 120.44ZM63.4707 118.96L63.5004 120.659C64.2406 120.646 64.9665 120.63 65.6808 120.611L67.5074 120.561L67.4619 118.862L64.9216 118.929L63.4707 118.96ZM55.4797 120.689L55.4915 118.989L57.5498 118.999C58.2126 119 58.8546 119 59.4833 118.999L59.4882 120.699L57.5462 120.699C56.8806 120.697 56.1944 120.694 55.4797 120.689ZM47.5124 118.867L47.4604 120.566C48.7156 120.604 49.8829 120.63 51.0065 120.644L51.4754 120.65L51.4956 118.95L50.354 118.934C49.9011 118.927 49.4398 118.918 48.9671 118.906L47.5124 118.867ZM39.5346 118.542L43.5244 118.719L43.4538 120.418L41.4417 120.332L39.4506 120.24L39.5346 118.542ZM31.5701 118.058L31.4451 119.754C31.5727 119.763 31.7018 119.773 31.8329 119.782L33.8812 119.92L35.4469 120.019L35.55 118.322L33.1985 118.172L31.5701 118.058ZM23.4155 118.829L23.7089 117.154C24.942 117.37 26.2301 117.55 27.6165 117.703L27.4296 119.393C26.0092 119.236 24.686 119.051 23.4155 118.829ZM16.1924 115.053L15.5286 116.618C16.7484 117.135 18.0391 117.574 19.4222 117.95L19.8684 116.31C18.5567 115.953 17.3383 115.539 16.1924 115.053ZM8.59986 112.03L9.80501 110.831C10.6976 111.728 11.6861 112.532 12.7716 113.243L11.8401 114.665C10.6564 113.889 9.5761 113.011 8.59986 112.03ZM5.61925 104.419L4.05174 105.076C4.30352 105.676 4.57317 106.259 4.86933 106.841C5.21044 107.511 5.57961 108.153 5.97717 108.768L7.40489 107.845C7.03913 107.279 6.69896 106.688 6.38436 106.07C6.10739 105.526 5.85513 104.98 5.61925 104.419ZM1.85928 97.1885L3.5348 96.901C3.76956 98.2694 4.04191 99.5339 4.36593 100.732L2.72491 101.176C2.38615 99.9233 2.10266 98.6071 1.85928 97.1885ZM2.63903 89.0052L0.943581 89.1295C1.05257 90.6155 1.16629 91.9087 1.30094 93.1438L2.99093 92.9595C2.89646 92.0931 2.81232 91.1955 2.73272 90.2186L2.63903 89.0052ZM0.45768 81.1211L2.15566 81.0382C2.21856 82.3278 2.29164 83.6506 2.37524 85.0219L0.678394 85.1253C0.59438 83.7473 0.520925 82.4177 0.45768 81.1211ZM1.9885 77.0524L1.85456 73.0575L0.155464 73.113L0.289609 77.1137L1.9885 77.0524ZM0.00178528 65.0911L1.70176 65.0818L1.71455 66.7133C1.72287 67.5161 1.7341 68.3003 1.74845 69.0707L0.048746 69.1023L0.0190747 67.1334C0.0112854 66.4658 0.00555968 65.7859 0.00178528 65.0911ZM1.71579 58.4736L1.73088 57.0979L0.0310429 57.0742L0.0158446 58.4602L0 61.0827L1.69999 61.0893L1.71579 58.4736ZM1.94356 49.1202L1.8783 51.0155C1.85473 51.7481 1.83392 52.4409 1.81552 53.1105L0.116158 53.0638L0.179183 50.9608L0.244722 49.0575L1.94356 49.1202ZM2.19061 43.8044L2.34387 41.1486L0.646792 41.049L0.420006 45.0489L2.11775 45.1365C2.14099 44.6859 2.16525 44.2422 2.19061 43.8044ZM1.2533 33.0351L2.94433 33.2095C2.89135 33.7232 2.84047 34.2562 2.78989 34.8239L2.69272 35.9704C2.66128 36.3606 2.63071 36.7595 2.60075 37.1695L0.905273 37.0456L0.998263 35.8333C1.03007 35.4386 1.06276 35.0526 1.0966 34.673C1.14785 34.0978 1.19947 33.557 1.2533 33.0351ZM4.23439 25.4435L2.58638 25.0263C2.26526 26.2946 1.99783 27.6151 1.77196 29.0194L3.45038 29.2893C3.66861 27.9326 3.92615 26.6609 4.23439 25.4435ZM5.66922 17.3837L7.12021 18.2695C6.46844 19.3371 5.9042 20.4858 5.41555 21.7255L3.83398 21.1021C4.35751 19.7739 4.96484 18.5375 5.66922 17.3837ZM12.3271 12.7213L11.3568 11.3255C10.2011 12.1289 9.14609 13.0365 8.19238 14.0543L9.43287 15.2167C10.3041 14.287 11.2684 13.4573 12.3271 12.7213ZM18.8699 7.87145L19.3454 9.5036C18.6741 9.69917 18.0226 9.91185 17.3758 10.1475C16.7937 10.3599 16.2306 10.5884 15.6863 10.8334L14.9885 9.28322C15.5711 9.02095 16.1725 8.77693 16.7934 8.55037C17.4762 8.3016 18.1632 8.07733 18.8699 7.87145ZM26.9861 8.04075L27.0774 8.03L26.8795 6.34156L26.0905 6.43797C24.9461 6.58385 23.8785 6.74746 22.8522 6.93725L23.1613 8.60891C24.354 8.38835 25.6092 8.20359 26.9861 8.04075ZM34.9013 5.6803L35.0003 7.37742L33.416 7.4747C32.5741 7.52936 31.7893 7.58561 31.0275 7.64637L30.8923 5.95175L32.3101 5.84554C33.1195 5.78859 33.9717 5.7345 34.9013 5.6803ZM42.978 6.97829L42.9061 5.2798C41.5901 5.33546 40.2572 5.39719 38.9037 5.465L38.9888 7.16287C40.3379 7.09527 41.6665 7.03375 42.978 6.97829ZM50.9234 5.03274L50.9518 6.7325C49.6551 6.75419 48.3297 6.78656 46.9656 6.82938L46.9123 5.13021C48.2845 5.08714 49.6181 5.05457 50.9234 5.03274Z" fill="#787878"/>
<path fill-rule="evenodd" clip-rule="evenodd" d="M126.688 1H159.5L174.777 12.339V112.948L161.29 124.998H127.516H88.0971L74.6093 112.948V12.339L89.8862 1H126.688Z" fill="#262626" stroke="#DBDBDB" stroke-width="1.6"/>
<path d="M74.6104 12.3413L105.164 107.792L88.0981 125" stroke="#DBDBDB" stroke-width="1.6"/>
<path d="M174.605 12.3413L144.052 107.792L161.118 125" stroke="#DBDBDB" stroke-width="1.6"/>
<path fill-rule="evenodd" clip-rule="evenodd" d="M109.844 102.678V97.7183H139.603V102.678H109.844Z" fill="#DBDBDB"/>
<path d="M105.164 107.787H144.049" stroke="#DBDBDB" stroke-width="1.6"/>
<path d="M117.281 1L121.239 8.43986H128.193L132.161 1" stroke="#DBDBDB" stroke-width="1.6"/>
<path d="M117.281 124.997L121.239 117.558H128.193L132.161 124.997" stroke="#DBDBDB" stroke-width="1.6"/>
<path d="M99.7222 57L112.722 63.25L99.7222 69.5L99.722 64.099H57V62.4H99.722L99.7222 57Z" fill="#5AE4AF"/>
</svg>
