<svg width="320" height="320" viewBox="0 0 320 320" fill="none" xmlns="http://www.w3.org/2000/svg">
<path d="M300.568 66.8414L301.564 66.9302L300.568 66.8414ZM300.26 57.1961L299.271 57.3484L300.26 57.1961ZM285.27 238.421L286.266 238.51L285.27 238.421ZM298.822 47.8675L297.834 48.0198L298.822 47.8675ZM34.2207 37H284.985V35H34.2207V37ZM19.2898 48.5618L18.3452 58.3683L20.336 58.56L21.2806 48.7535L19.2898 48.5618ZM18.2911 65.6216L32.3355 238.377L34.3289 238.215L20.2845 65.4595L18.2911 65.6216ZM286.266 238.51L301.564 66.9302L299.572 66.7526L284.274 238.332L286.266 238.51ZM301.248 57.0438L299.81 47.7152L297.834 48.0198L299.271 57.3484L301.248 57.0438ZM49.2796 254H81.1101V252H49.2796V254ZM238.389 254H269.333V252H238.389V254ZM238.389 252H81.1101V254H238.389V252ZM301.564 66.9302C301.858 63.634 301.752 60.3144 301.248 57.0438L299.271 57.3484C299.751 60.4595 299.852 63.6172 299.572 66.7526L301.564 66.9302ZM284.274 238.332C283.584 246.069 277.101 252 269.333 252V254C278.137 254 285.484 247.279 286.266 238.51L284.274 238.332ZM32.3355 238.377C33.053 247.203 40.4249 254 49.2796 254V252C41.4666 252 34.962 246.003 34.3289 238.215L32.3355 238.377ZM18.3452 58.3683C18.1129 60.7797 18.0948 63.2069 18.2911 65.6216L20.2845 65.4595C20.0978 63.1627 20.115 60.8538 20.336 58.56L18.3452 58.3683ZM284.985 37C291.4 37 296.856 41.6796 297.834 48.0198L299.81 47.7152C298.683 40.3995 292.387 35 284.985 35V37ZM34.2207 35C26.4935 35 20.0307 40.8702 19.2898 48.5618L21.2806 48.7535C21.9227 42.0875 27.5238 37 34.2207 37V35Z" fill="#5E5E5E"/>
<path d="M20.4977 67.9333C20.2579 64.3467 20.9862 60.6571 23.5586 57.8651C26.1253 55.0792 30.7008 53 38.5615 53V51C30.3703 51 25.1642 53.1708 22.0877 56.5099C19.0169 59.8429 18.2404 64.1533 18.5022 68.0667L20.4977 67.9333ZM301.498 68.0667C301.76 64.1533 300.983 59.8429 297.912 56.5099C294.836 53.1708 289.63 51 281.438 51V53C289.299 53 293.875 55.0792 296.441 57.8651C299.014 60.6571 299.742 64.3467 299.502 67.9333L301.498 68.0667ZM38.5615 53H281.438V51H38.5615V53Z" fill="#5E5E5E"/>
<path fill-rule="evenodd" clip-rule="evenodd" d="M158.974 165.094L138.974 146.329L141.026 144.141L158.5 160.536L158.5 124L161.5 124L161.5 160.536L178.974 144.141L181.026 146.329L161.026 165.094L160 166.057L158.974 165.094Z" fill="#DBDBDB"/>
</svg>
