<svg width="88" height="88" viewBox="0 0 88 88" fill="none" xmlns="http://www.w3.org/2000/svg">
<path d="M71 44C71 82.0953 71 84 44 84C17 84 17 82.0953 17 44C17 5.90469 17 4 44 4C71 4 71 5.90469 71 44Z" stroke="#DBDBDB" stroke-width="1.5" stroke-miterlimit="3.4203" stroke-linejoin="round"/>
<path d="M34 80L35.2 78.4C36.0833 77.2223 36.5249 76.6334 37.1584 76.3167C37.7918 76 38.5279 76 40 76H48C49.4721 76 50.2082 76 50.8416 76.3167C51.4751 76.6334 51.9167 77.2223 52.8 78.4L54 80" stroke="#DBDBDB" stroke-width="1.5" stroke-miterlimit="3.4203" stroke-linejoin="round"/>
<path fill-rule="evenodd" clip-rule="evenodd" d="M30 27C31.1046 27 32 26.1046 32 25C32 23.8954 31.1046 23 30 23C28.8954 23 28 23.8954 28 25C28 26.1046 28.8954 27 30 27ZM32 36C32 37.1046 31.1046 38 30 38C28.8954 38 28 37.1046 28 36C28 34.8954 28.8954 34 30 34C31.1046 34 32 34.8954 32 36ZM30 49C31.1046 49 32 48.1046 32 47C32 45.8954 31.1046 45 30 45C28.8954 45 28 45.8954 28 47C28 48.1046 28.8954 49 30 49ZM30 60C31.1046 60 32 59.1046 32 58C32 56.8954 31.1046 56 30 56C28.8954 56 28 56.8954 28 58C28 59.1046 28.8954 60 30 60ZM58 60C59.1046 60 60 59.1046 60 58C60 56.8954 59.1046 56 58 56C56.8954 56 56 56.8954 56 58C56 59.1046 56.8954 60 58 60ZM46 58C46 59.1046 45.1046 60 44 60C42.8954 60 42 59.1046 42 58C42 56.8954 42.8954 56 44 56C45.1046 56 46 56.8954 46 58ZM60 47C60 48.1046 59.1046 49 58 49C56.8954 49 56 48.1046 56 47C56 45.8954 56.8954 45 58 45C59.1046 45 60 45.8954 60 47ZM44 49C45.1046 49 46 48.1046 46 47C46 45.8954 45.1046 45 44 45C42.8954 45 42 45.8954 42 47C42 48.1046 42.8954 49 44 49ZM58 38C59.1046 38 60 37.1046 60 36C60 34.8954 59.1046 34 58 34C56.8954 34 56 34.8954 56 36C56 37.1046 56.8954 38 58 38ZM46 36C46 37.1046 45.1046 38 44 38C42.8954 38 42 37.1046 42 36C42 34.8954 42.8954 34 44 34C45.1046 34 46 34.8954 46 36ZM60 25C60 26.1046 59.1046 27 58 27C56.8954 27 56 26.1046 56 25C56 23.8954 56.8954 23 58 23C59.1046 23 60 23.8954 60 25ZM44 27C45.1046 27 46 26.1046 46 25C46 23.8954 45.1046 23 44 23C42.8954 23 42 23.8954 42 25C42 26.1046 42.8954 27 44 27Z" fill="#DBDBDB"/>
</svg>
