<svg width="375" height="166" viewBox="0 0 375 166" fill="none" xmlns="http://www.w3.org/2000/svg">
<path d="M159 54H131C129.895 54 129 54.8954 129 56V138C129 139.104 129.895 140 131 140H168M215 54H244C245.105 54 246 54.8954 246 56V138C246 139.104 245.105 140 244 140H205" stroke="#DBDBDB" stroke-width="1.5"/>
<path fill-rule="evenodd" clip-rule="evenodd" d="M188.115 16H207L215 22V78L207 85H188.578H167L159 78V22L167 16H188.115Z" stroke="#DBDBDB" stroke-width="1.5"/>
<path d="M159 22L176 75L167 85" stroke="#DBDBDB" stroke-width="1.5"/>
<path d="M215 22L198 75L207 85" stroke="#DBDBDB" stroke-width="1.5"/>
<path fill-rule="evenodd" clip-rule="evenodd" d="M179 72V69H195V72H179Z" fill="#DBDBDB"/>
<path d="M176 75H198" stroke="#DBDBDB" stroke-width="1.5"/>
<path d="M183 16L185.128 20H188.867L191 16" stroke="#DBDBDB" stroke-width="1.5"/>
<path d="M183 85L185.128 81H188.867L191 85" stroke="#DBDBDB" stroke-width="1.5"/>
<path d="M226.117 48.0801V49H220.34V48.0801H226.117ZM225.93 41.2891L220.609 49H219.912V48.1562L225.227 40.4688H225.93V41.2891ZM225.449 40.4688V41.3945H219.988V40.4688H225.449Z" fill="#DBDBDB"/>
<path d="M134.363 45.2871H135.488C135.43 45.8262 135.275 46.3086 135.025 46.7344C134.775 47.1602 134.422 47.498 133.965 47.748C133.508 47.9941 132.938 48.1172 132.254 48.1172C131.754 48.1172 131.299 48.0234 130.889 47.8359C130.482 47.6484 130.133 47.3828 129.84 47.0391C129.547 46.6914 129.32 46.2754 129.16 45.791C129.004 45.3027 128.926 44.7598 128.926 44.1621V43.3125C128.926 42.7148 129.004 42.1738 129.16 41.6895C129.32 41.2012 129.549 40.7832 129.846 40.4355C130.146 40.0879 130.508 39.8203 130.93 39.6328C131.352 39.4453 131.826 39.3516 132.354 39.3516C132.998 39.3516 133.543 39.4727 133.988 39.7148C134.434 39.957 134.779 40.293 135.025 40.7227C135.275 41.1484 135.43 41.6426 135.488 42.2051H134.363C134.309 41.8066 134.207 41.4648 134.059 41.1797C133.91 40.8906 133.699 40.668 133.426 40.5117C133.152 40.3555 132.795 40.2773 132.354 40.2773C131.975 40.2773 131.641 40.3496 131.352 40.4941C131.066 40.6387 130.826 40.8438 130.631 41.1094C130.439 41.375 130.295 41.6934 130.197 42.0645C130.1 42.4355 130.051 42.8477 130.051 43.3008V44.1621C130.051 44.5801 130.094 44.9727 130.18 45.3398C130.27 45.707 130.404 46.0293 130.584 46.3066C130.764 46.584 130.992 46.8027 131.27 46.9629C131.547 47.1191 131.875 47.1973 132.254 47.1973C132.734 47.1973 133.117 47.1211 133.402 46.9688C133.688 46.8164 133.902 46.5977 134.047 46.3125C134.195 46.0273 134.301 45.6855 134.363 45.2871ZM143.598 43.4648V44.0039C143.598 44.6445 143.518 45.2188 143.357 45.7266C143.197 46.2344 142.967 46.666 142.666 47.0215C142.365 47.377 142.004 47.6484 141.582 47.8359C141.164 48.0234 140.695 48.1172 140.176 48.1172C139.672 48.1172 139.209 48.0234 138.787 47.8359C138.369 47.6484 138.006 47.377 137.697 47.0215C137.393 46.666 137.156 46.2344 136.988 45.7266C136.82 45.2188 136.736 44.6445 136.736 44.0039V43.4648C136.736 42.8242 136.818 42.252 136.982 41.748C137.15 41.2402 137.387 40.8086 137.691 40.4531C137.996 40.0938 138.357 39.8203 138.775 39.6328C139.197 39.4453 139.66 39.3516 140.164 39.3516C140.684 39.3516 141.152 39.4453 141.57 39.6328C141.992 39.8203 142.354 40.0938 142.654 40.4531C142.959 40.8086 143.191 41.2402 143.352 41.748C143.516 42.252 143.598 42.8242 143.598 43.4648ZM142.479 44.0039V43.4531C142.479 42.9453 142.426 42.4961 142.32 42.1055C142.219 41.7148 142.068 41.3867 141.869 41.1211C141.67 40.8555 141.426 40.6543 141.137 40.5176C140.852 40.3809 140.527 40.3125 140.164 40.3125C139.812 40.3125 139.494 40.3809 139.209 40.5176C138.928 40.6543 138.686 40.8555 138.482 41.1211C138.283 41.3867 138.129 41.7148 138.02 42.1055C137.91 42.4961 137.855 42.9453 137.855 43.4531V44.0039C137.855 44.5156 137.91 44.9688 138.02 45.3633C138.129 45.7539 138.285 46.084 138.488 46.3535C138.695 46.6191 138.939 46.8203 139.221 46.957C139.506 47.0938 139.824 47.1621 140.176 47.1621C140.543 47.1621 140.869 47.0938 141.154 46.957C141.439 46.8203 141.68 46.6191 141.875 46.3535C142.074 46.084 142.225 45.7539 142.326 45.3633C142.428 44.9688 142.479 44.5156 142.479 44.0039ZM145.648 39.4688H146.744L149.539 46.4238L152.328 39.4688H153.43L149.961 48H149.105L145.648 39.4688ZM145.291 39.4688H146.258L146.416 44.6719V48H145.291V39.4688ZM152.814 39.4688H153.781V48H152.656V44.6719L152.814 39.4688Z" fill="#DBDBDB"/>
<path d="M212 140V119C212 117.895 211.105 117 210 117H195M161 140V119C161 117.895 161.895 117 163 117H177" stroke="#DBDBDB" stroke-width="1.5"/>
<path d="M194 110L179 117L178 117" stroke="#DBDBDB" stroke-width="1.5"/>
<circle cx="195" cy="117" r="2" fill="#DBDBDB"/>
<circle cx="178" cy="117" r="2" fill="#DBDBDB"/>
<rect x="168" y="129" width="37" height="22" rx="2" fill="#ADF75E"/>
<path d="M180.925 136.18H183.514C184.101 136.18 184.597 136.269 185.001 136.448C185.41 136.627 185.719 136.892 185.931 137.243C186.146 137.59 186.253 138.018 186.253 138.527C186.253 138.885 186.18 139.213 186.033 139.51C185.889 139.803 185.682 140.054 185.41 140.262C185.141 140.466 184.819 140.618 184.443 140.718L184.153 140.831H181.72L181.709 139.988H183.546C183.918 139.988 184.228 139.923 184.475 139.794C184.722 139.662 184.908 139.485 185.034 139.263C185.159 139.041 185.222 138.795 185.222 138.527C185.222 138.226 185.163 137.963 185.044 137.737C184.926 137.512 184.74 137.338 184.486 137.216C184.235 137.091 183.911 137.028 183.514 137.028H181.961V144H180.925V136.18ZM185.496 144L183.594 140.455L184.674 140.45L186.602 143.936V144H185.496ZM190.711 136.137V144H189.717V137.377L187.714 138.108V137.211L190.555 136.137H190.711Z" fill="black"/>
</svg>
