<svg width="40" height="40" viewBox="0 0 40 40" fill="none" xmlns="http://www.w3.org/2000/svg">
<circle cx="20" cy="20" r="19.25" stroke="#5AE4AF" stroke-width="1.5"/>
<g clip-path="url(#clip0_2857_270776)">
<path fill-rule="evenodd" clip-rule="evenodd" d="M20.7544 8.03061L20.3047 7.59961L19.8549 8.03061L8.89843 18.5306L7.73047 19.6499H9.34816H12.0895V28.5999H9.34816V29.8999L12.0895 29.8999H12.7395H17.4351H18.0851H22.5243H23.1743H27.8699H28.5199L31.2612 29.8999V28.5999H28.5199V19.6499H31.2612H32.8789L31.7109 18.5306L20.7544 8.03061ZM27.2199 28.5999V18.9999V18.3499H27.8699H29.6435L20.3047 9.40019L10.9659 18.3499H12.7395H13.3895V18.9999V28.5999H16.7851V23.2499V22.5999H17.4351H20.3047H23.1743H23.8243V23.2499V28.5999H27.2199ZM22.5243 28.5999V23.8999H20.3047H18.0851V28.5999H22.5243Z" fill="#5AE4AF"/>
</g>
<defs>
<clipPath id="clip0_2857_270776">
<rect width="24" height="24" fill="white" transform="translate(8.30469 7)"/>
</clipPath>
</defs>
</svg>
