<svg width="40" height="40" viewBox="0 0 40 40" fill="none" xmlns="http://www.w3.org/2000/svg">
<circle cx="20" cy="20" r="19.25" stroke="#5AE4AA" stroke-width="1.5"/>
<g clip-path="url(#clip0)">
<circle cx="20" cy="18" r="1" fill="#5AE4AA" stroke="#5AE4AA" stroke-width="2"/>
<path d="M15.0232 14.25C14.2314 15.1788 13.75 16.4054 13.75 17.75C13.75 19.0946 14.2314 20.3212 15.0232 21.25M24.9768 14.25C25.7686 15.1788 26.25 16.4054 26.25 17.75C26.25 19.0946 25.7686 20.3212 24.9768 21.25" stroke="#5AE4AA" stroke-width="1.5"/>
<path d="M11.2963 11.25C9.71285 12.975 8.75 15.2528 8.75 17.75C8.75 20.2472 9.71285 22.525 11.2963 24.25M28.7037 11.25C30.2872 12.975 31.25 15.2528 31.25 17.75C31.25 20.2472 30.2872 22.525 28.7037 24.25" stroke="#5AE4AA" stroke-width="1.5"/>
<path d="M20 17.25L20 32.25" stroke="#5AE4AA" stroke-width="1.5"/>
</g>
<defs>
<clipPath id="clip0">
<rect width="24" height="24" fill="white" transform="translate(8 9)"/>
</clipPath>
</defs>
</svg>
