<svg width="40" height="40" viewBox="0 0 40 40" fill="none" xmlns="http://www.w3.org/2000/svg">
<circle cx="20" cy="20" r="19.25" stroke="#5AE4AF" stroke-width="1.5"/>
<path fill-rule="evenodd" clip-rule="evenodd" d="M9.75 20C9.75 14.3391 14.3391 9.75 20 9.75C25.6609 9.75 30.25 14.3391 30.25 20C30.25 23.7376 28.2496 27.0079 25.2609 28.7987L26.2862 29.9288C29.5703 27.8452 31.75 24.1771 31.75 20C31.75 13.5107 26.4893 8.25 20 8.25C13.5107 8.25 8.25 13.5107 8.25 20C8.25 24.1771 10.4297 27.8452 13.7138 29.9288L14.7391 28.7987C11.7504 27.0079 9.75 23.7376 9.75 20ZM20 17.75C18.7574 17.75 17.75 18.7574 17.75 20C17.75 21.2426 18.7574 22.25 20 22.25C21.2426 22.25 22.25 21.2426 22.25 20C22.25 18.7574 21.2426 17.75 20 17.75ZM20 14.75C17.1005 14.75 14.75 17.1005 14.75 20C14.75 22.2801 16.2036 24.2208 18.2346 24.9458L17.1632 26.1267C14.8525 25.0551 13.25 22.7147 13.25 20C13.25 16.2721 16.2721 13.25 20 13.25C23.7279 13.25 26.75 16.2721 26.75 20C26.75 22.7147 25.1475 25.0551 22.8368 26.1267L21.7654 24.9458C23.7964 24.2208 25.25 22.2801 25.25 20C25.25 17.1005 22.8995 14.75 20 14.75Z" fill="#5AE4AF"/>
</svg>
