<svg width="40" height="40" viewBox="0 0 40 40" fill="none" xmlns="http://www.w3.org/2000/svg">
<circle cx="20" cy="20" r="19.25" stroke="#5AE4AF" stroke-width="1.5"/>
<path fill-rule="evenodd" clip-rule="evenodd" d="M10.7306 10.3428C10.7306 9.92856 11.0664 9.59277 11.4806 9.59277H14.078C14.4922 9.59277 14.828 9.92856 14.828 10.3428C14.828 10.757 14.4922 11.0928 14.078 11.0928H12.2306V16.9299L12.2306 16.9341C12.2307 16.9395 12.231 16.9494 12.2314 16.9636C12.2324 16.9919 12.2345 17.0371 12.2389 17.0967C12.2478 17.2161 12.2659 17.3919 12.3028 17.6048C12.3771 18.0341 12.5244 18.5957 12.8117 19.1487C13.0972 19.6982 13.5151 20.2291 14.132 20.6249C14.7455 21.0186 15.5996 21.3069 16.8052 21.3069C18.0109 21.3069 18.8649 21.0186 19.4785 20.6249C20.0953 20.2291 20.5133 19.6982 20.7987 19.1487C21.086 18.5957 21.2333 18.0341 21.3076 17.6048C21.3445 17.3919 21.3626 17.2161 21.3715 17.0967C21.3759 17.0371 21.378 16.9919 21.379 16.9636C21.3795 16.9494 21.3797 16.9395 21.3798 16.9341L21.3798 16.9313L21.3798 16.9307L21.3798 16.9299V11.0928H19.2727C18.8585 11.0928 18.5227 10.757 18.5227 10.3428C18.5227 9.92856 18.8585 9.59277 19.2727 9.59277H22.1298C22.544 9.59277 22.8798 9.92856 22.8798 10.3428V16.932H22.1298C22.8798 16.932 22.8798 16.9324 22.8798 16.9328L22.8798 16.9338L22.8798 16.936L22.8798 16.9419L22.8796 16.9593C22.8793 16.9733 22.8789 16.9921 22.8781 17.0155C22.8765 17.0622 22.8734 17.1272 22.8674 17.2077C22.8554 17.3686 22.832 17.5932 22.7856 17.8607C22.6936 18.3923 22.5081 19.112 22.1298 19.8402C21.7497 20.572 21.1692 21.3223 20.2885 21.8874C19.5623 22.3534 18.6615 22.6744 17.5554 22.7741V27.3228L17.5554 27.3247L17.5561 27.3483C17.557 27.3717 17.5589 27.41 17.5631 27.4612C17.5715 27.5636 17.5888 27.7157 17.6241 27.9007C17.6953 28.2736 17.8365 28.7621 18.1124 29.2436C18.636 30.1575 19.7012 31.1574 22.0555 31.1574C24.4098 31.1574 25.4751 30.1575 25.9987 29.2436C26.2745 28.7621 26.4158 28.2736 26.487 27.9007C26.5223 27.7157 26.5395 27.5636 26.5479 27.4612C26.5521 27.41 26.5541 27.3717 26.555 27.3483L26.5557 27.3247L26.5557 27.3228V24.8812C25.2354 24.6189 24.2402 23.454 24.2402 22.0566C24.2402 20.4661 25.5295 19.1768 27.12 19.1768C28.7105 19.1768 29.9999 20.4661 29.9999 22.0566C29.9999 23.3196 29.1869 24.3926 28.0557 24.781V27.3254H27.3057C28.0557 27.3254 28.0557 27.3259 28.0557 27.3263L28.0557 27.3273L28.0557 27.3297L28.0556 27.3356L28.0554 27.3525L28.0549 27.3734L28.0539 27.4055C28.0522 27.4492 28.049 27.5093 28.0429 27.5835C28.0308 27.7316 28.0071 27.9375 27.9603 28.1821C27.8675 28.6683 27.6806 29.3253 27.3002 29.9893C26.5112 31.3663 24.9514 32.6574 22.0555 32.6574C19.1597 32.6574 17.5998 31.3663 16.8109 29.9893C16.4305 29.3253 16.2436 28.6683 16.1507 28.1821C16.104 27.9375 16.0802 27.7316 16.0681 27.5835C16.062 27.5093 16.0589 27.4492 16.0572 27.4055C16.0564 27.3837 16.0559 27.3659 16.0556 27.3525L16.0554 27.3356L16.0554 27.3297L16.0554 27.3273L16.0554 27.3263C16.0554 27.3259 16.0554 27.3254 16.8054 27.3254H16.0554V22.7741C14.9491 22.6744 14.0482 22.3534 13.3219 21.8874C12.4412 21.3223 11.8607 20.572 11.4806 19.8402C11.1023 19.112 10.9168 18.3923 10.8248 17.8607C10.7785 17.5932 10.755 17.3686 10.743 17.2077C10.7371 17.1272 10.734 17.0622 10.7323 17.0155C10.7315 16.9921 10.7311 16.9733 10.7309 16.9593L10.7306 16.9419L10.7306 16.936L10.7306 16.9338V16.9328C10.7306 16.9324 10.7306 16.932 11.4806 16.932H10.7306V10.3428ZM25.7402 22.0566C25.7402 21.2945 26.358 20.6768 27.12 20.6768C27.8821 20.6768 28.4999 21.2945 28.4999 22.0566C28.4999 22.8187 27.8821 23.4365 27.12 23.4365C26.358 23.4365 25.7402 22.8187 25.7402 22.0566Z" fill="#5AE4AF"/>
</svg>
