<svg width="40" height="40" viewBox="0 0 40 40" fill="none" xmlns="http://www.w3.org/2000/svg">
<circle cx="20" cy="20" r="19.25" stroke="#5E5E5E" stroke-width="1.5"/>
<g clip-path="url(#clip0)">
<path fill-rule="evenodd" clip-rule="evenodd" d="M20 27C20 27 27 21.5993 27 15.3603C27 11.2953 23.866 8 20 8C16.134 8 13 11.2953 13 15.3603C13 21.5993 20 27 20 27Z" stroke="#5E5E5E" stroke-width="1.5"/>
<path fill-rule="evenodd" clip-rule="evenodd" d="M20 18C21.6569 18 23 16.6569 23 15C23 13.3431 21.6569 12 20 12C18.3431 12 17 13.3431 17 15C17 16.6569 18.3431 18 20 18Z" stroke="#5E5E5E" stroke-width="1.5"/>
<path fill-rule="evenodd" clip-rule="evenodd" d="M10.3819 26.7588C10.2561 26.9008 10.25 26.9786 10.25 27C10.25 27.0336 10.2799 27.2321 10.745 27.5462C11.1839 27.8427 11.8683 28.1393 12.7814 28.4002C14.5974 28.919 17.1498 29.25 20 29.25C22.8502 29.25 25.4026 28.919 27.2186 28.4002C28.1317 28.1393 28.8161 27.8427 29.255 27.5462C29.7201 27.2321 29.75 27.0336 29.75 27C29.75 26.9786 29.7439 26.9008 29.6181 26.7588C29.4881 26.6121 29.2632 26.4369 28.916 26.251C28.2224 25.8796 27.1776 25.5372 25.8534 25.2733L26.1466 23.8022C27.5426 24.0804 28.7478 24.4594 29.6242 24.9287C30.0619 25.1631 30.452 25.4382 30.7407 25.764C31.0337 26.0946 31.25 26.5117 31.25 27C31.25 27.7948 30.6922 28.3856 30.0947 28.7892C29.4709 29.2106 28.6177 29.5605 27.6307 29.8425C25.6464 30.4094 22.9488 30.75 20 30.75C17.0512 30.75 14.3536 30.4094 12.3693 29.8425C11.3823 29.5605 10.5291 29.2106 9.90532 28.7892C9.30776 28.3856 8.75 27.7948 8.75 27C8.75 26.5117 8.96634 26.0946 9.25926 25.764C9.54799 25.4382 9.93806 25.1631 10.3758 24.9287C11.2522 24.4594 12.4574 24.0804 13.8534 23.8022L14.1466 25.2733C12.8224 25.5372 11.7776 25.8796 11.084 26.251C10.7368 26.4369 10.5119 26.6121 10.3819 26.7588Z" fill="#5E5E5E"/>
</g>
<defs>
<clipPath id="clip0">
<rect width="24" height="24" fill="white" transform="translate(8 7)"/>
</clipPath>
</defs>
</svg>
