<svg width="40" height="40" viewBox="0 0 40 40" fill="none" xmlns="http://www.w3.org/2000/svg">
<circle cx="20" cy="20" r="19.25" stroke="#5AE4AF" stroke-width="1.5"/>
<path fill-rule="evenodd" clip-rule="evenodd" d="M12.25 15.3603C12.25 10.917 15.6848 7.25 20 7.25C24.3152 7.25 27.75 10.917 27.75 15.3603C27.75 18.7439 25.8639 21.824 24.0795 23.9959C23.1771 25.0943 22.2764 25.9897 21.6016 26.6106C21.2637 26.9215 20.9811 27.1647 20.7815 27.3314C20.6817 27.4148 20.6026 27.479 20.5476 27.5231C20.5201 27.5452 20.4986 27.5622 20.4835 27.574L20.4658 27.5878L20.4607 27.5918L20.4591 27.5931L20.4585 27.5935C20.4583 27.5937 20.4581 27.5938 20 27C19.5419 27.5938 19.5417 27.5937 19.5415 27.5935L19.5409 27.5931L19.5393 27.5918L19.5342 27.5878L19.5165 27.574C19.5014 27.5622 19.4799 27.5452 19.4524 27.5231C19.3974 27.479 19.3183 27.4148 19.2185 27.3314C19.0189 27.1647 18.7363 26.9215 18.3984 26.6106C17.7236 25.9897 16.8229 25.0943 15.9205 23.9959C14.1361 21.824 12.25 18.7439 12.25 15.3603ZM20 27L20.4581 27.5938L20 27.9473L19.5419 27.5938L20 27ZM20 26.0278C20.1617 25.8891 20.3603 25.7144 20.5859 25.5067C21.2236 24.9201 22.0729 24.0753 22.9205 23.0437C24.6361 20.9555 26.25 18.2157 26.25 15.3603C26.25 11.6736 23.4168 8.75 20 8.75C16.5832 8.75 13.75 11.6736 13.75 15.3603C13.75 18.2157 15.3639 20.9555 17.0795 23.0437C17.9271 24.0753 18.7764 24.9201 19.4141 25.5067C19.6397 25.7144 19.8383 25.8891 20 26.0278ZM16.25 15C16.25 12.9289 17.9289 11.25 20 11.25C22.0711 11.25 23.75 12.9289 23.75 15C23.75 17.0711 22.0711 18.75 20 18.75C17.9289 18.75 16.25 17.0711 16.25 15ZM20 12.75C18.7574 12.75 17.75 13.7574 17.75 15C17.75 16.2426 18.7574 17.25 20 17.25C21.2426 17.25 22.25 16.2426 22.25 15C22.25 13.7574 21.2426 12.75 20 12.75ZM10.25 26.9999C10.25 26.9785 10.2561 26.9007 10.3819 26.7587C10.5119 26.612 10.7368 26.4368 11.084 26.2509C11.7776 25.8795 12.8224 25.537 14.1466 25.2731L13.8534 23.8021C12.4574 24.0803 11.2522 24.4593 10.3758 24.9286C9.93806 25.163 9.54799 25.438 9.25926 25.7639C8.96634 26.0945 8.75 26.5116 8.75 26.9999C8.75 27.7947 9.30776 28.3854 9.90532 28.7891C10.5291 29.2104 11.3823 29.5603 12.3693 29.8423C14.3536 30.4093 17.0512 30.7499 20 30.7499C22.9488 30.7499 25.6464 30.4093 27.6307 29.8423C28.6177 29.5603 29.4709 29.2104 30.0947 28.7891C30.6922 28.3854 31.25 27.7947 31.25 26.9999C31.25 26.5116 31.0337 26.0945 30.7407 25.7639C30.452 25.438 30.0619 25.163 29.6242 24.9286C28.7478 24.4593 27.5426 24.0803 26.1466 23.8021L25.8534 25.2731C27.1776 25.537 28.2224 25.8795 28.916 26.2509C29.2632 26.4368 29.4881 26.612 29.6181 26.7587C29.7439 26.9007 29.75 26.9785 29.75 26.9999C29.75 27.0335 29.7201 27.2319 29.255 27.5461C28.8161 27.8426 28.1317 28.1392 27.2186 28.4001C25.4026 28.9189 22.8502 29.2499 20 29.2499C17.1498 29.2499 14.5974 28.9189 12.7814 28.4001C11.8683 28.1392 11.1839 27.8426 10.745 27.5461C10.2799 27.2319 10.25 27.0335 10.25 26.9999Z" fill="#5AE4AF"/>
</svg>
