<svg width="40" height="40" viewBox="0 0 40 40" fill="none" xmlns="http://www.w3.org/2000/svg">
<circle cx="20" cy="20" r="19.25" stroke="#5AE4AA" stroke-width="1.5"/>
<g clip-path="url(#clip0)">
<path fill-rule="evenodd" clip-rule="evenodd" d="M12.6689 11.0034H12.2676L12.0449 11.3374L8.35654 16.8699L8.04883 17.3315L8.4001 17.7609L19.4644 31.2849L20.0448 31.9944L20.6253 31.2849L31.6912 17.7609L32.0426 17.3316L31.7348 16.8699L28.0465 11.3374L27.8238 11.0034H27.4224H20.0457H12.6689ZM9.91233 17.2404L13.0703 12.5034H20.0457H27.021L30.179 17.2404L29.4884 18.0844C29.0059 17.8559 28.3097 17.5553 27.4352 17.2556C25.6772 16.653 23.187 16.0496 20.258 16.0496C17.3308 16.0496 14.7398 16.6522 12.8849 17.2514C11.9558 17.5514 11.207 17.852 10.6876 18.0791C10.6653 18.0888 10.6435 18.0984 10.622 18.1079L9.91233 17.2404ZM11.6106 19.3162L13.7285 21.905C14.1107 21.7982 14.6383 21.6608 15.2651 21.5234C16.577 21.2358 18.3478 20.9432 20.1384 20.9431C21.93 20.9431 23.6576 21.2361 24.9278 21.5246C25.5132 21.6575 26.0062 21.7906 26.3695 21.8961L28.5067 19.2842C28.0983 19.1025 27.5738 18.8888 26.9488 18.6745C25.3069 18.1117 22.9836 17.5496 20.258 17.5496C17.5304 17.5496 15.0993 18.1124 13.3459 18.6788C12.6497 18.9036 12.0632 19.1281 11.6106 19.3162ZM25.3304 23.1661C25.1088 23.1085 24.8626 23.048 24.5956 22.9873C23.3876 22.713 21.7788 22.4431 20.1384 22.4431C18.4968 22.4432 16.842 22.7133 15.5862 22.9886C15.2891 23.0537 15.0158 23.1188 14.7718 23.1802L16.8228 25.6872C17.0389 25.6595 17.3046 25.6269 17.5974 25.5943C18.3504 25.5104 19.3129 25.423 20.0751 25.423C20.838 25.423 21.7842 25.5105 22.5213 25.5945C22.8035 25.6266 23.0593 25.6587 23.2683 25.6862L25.3304 23.1661ZM22.1429 27.0616C21.4621 26.9879 20.6855 26.923 20.0751 26.923C19.4562 26.923 18.6528 26.9897 17.9498 27.0647L20.0449 29.6256L22.1429 27.0616Z" fill="#5AE4AA"/>
</g>
<defs>
<clipPath id="clip0">
<rect width="24" height="24" fill="white" transform="translate(8 9)"/>
</clipPath>
</defs>
</svg>
