<svg width="40" height="40" viewBox="0 0 40 40" fill="none" xmlns="http://www.w3.org/2000/svg">
<circle cx="20" cy="20" r="19.25" stroke="#5AE4AA" stroke-width="1.5"/>
<path fill-rule="evenodd" clip-rule="evenodd" d="M12.0156 18.6293C12.0156 14.9896 14.9662 12.0391 18.6058 12.0391C22.2455 12.0391 25.196 14.9896 25.196 18.6293C25.196 22.2689 22.2455 25.2194 18.6058 25.2194C14.9662 25.2194 12.0156 22.2689 12.0156 18.6293ZM18.6058 10.5391C14.1377 10.5391 10.5156 14.1612 10.5156 18.6293C10.5156 23.0973 14.1377 26.7194 18.6058 26.7194C23.0739 26.7194 26.696 23.0973 26.696 18.6293C26.696 14.1612 23.0739 10.5391 18.6058 10.5391ZM29.5854 12.3108H33.4592V16.1845L32.0413 14.7666L30.6414 16.0956C30.6974 16.4039 30.7426 16.7161 30.7766 17.0317C30.8265 17.4957 30.8521 17.9669 30.8521 18.444C30.8521 25.4419 25.3404 31.1533 18.4946 31.1533C17.6208 31.1533 16.7675 31.0599 15.9438 30.8821C15.8994 30.8725 15.8551 30.8626 15.8109 30.8526L14.5457 32.2808L14.5413 32.2859L14.5412 32.2859L14.0736 32.8043L12.9597 31.7997L13.4251 31.2837L14.9893 29.518L15.2973 29.1703L15.7457 29.2911C15.9157 29.3368 16.0872 29.3785 16.2603 29.4158C16.9808 29.5714 17.728 29.6533 18.4946 29.6533C24.4701 29.6533 29.3521 24.656 29.3521 18.444C29.3521 18.0206 29.3294 17.6029 29.2852 17.1921C29.2415 16.7858 29.1767 16.3862 29.0922 15.9945L29.0032 15.5825L29.3089 15.2923L30.9803 13.7056L29.5854 12.3108Z" fill="#5AE4AA"/>
</svg>
