<svg width="40" height="40" viewBox="0 0 40 40" fill="none" xmlns="http://www.w3.org/2000/svg">
<circle cx="20" cy="20" r="19.25" stroke="#5AE4AF" stroke-width="1.5"/>
<path fill-rule="evenodd" clip-rule="evenodd" d="M12.75 10.5C12.6119 10.5 12.5 10.6119 12.5 10.75V25H28V14.375V10.75C28 10.6119 27.8881 10.5 27.75 10.5H24.125H22.75L22.75 20C22.75 20.2937 22.5786 20.5603 22.3114 20.6823C22.0443 20.8042 21.7305 20.759 21.5086 20.5666L19 18.3911L16.4914 20.5666C16.2695 20.759 15.9557 20.8042 15.6886 20.6823C15.4214 20.5603 15.25 20.2937 15.25 20V18.2391L15.25 10.5H12.75ZM16 9H19.5H22H24.125H27.75C28.7165 9 29.5 9.7835 29.5 10.75V14.375V29.25C29.5 30.2165 28.7165 31 27.75 31H12.75C11.7835 31 11 30.2165 11 29.25V10.75C11 9.7835 11.7835 9 12.75 9H16ZM12.5 29.25V26.5H28V29.25C28 29.3881 27.8881 29.5 27.75 29.5H12.75C12.6119 29.5 12.5 29.3881 12.5 29.25ZM21.25 10.5L21.25 18.3569L19.4914 16.8318C19.2094 16.5872 18.7906 16.5872 18.5086 16.8318L16.75 18.3569V18.2391L16.75 10.5L21.25 10.5Z" fill="#5AE4AF"/>
</svg>
