<svg width="40" height="40" viewBox="0 0 40 40" fill="none" xmlns="http://www.w3.org/2000/svg">
<circle cx="20" cy="20" r="19.25" stroke="#5E5E5E" stroke-width="1.5"/>
<g clip-path="url(#clip0)">
<mask id="path-2-inside-1" fill="white">
<path d="M16.7914 25.9894C17.65 25.2641 18.7425 24.8748 19.8663 24.8937C20.9901 24.9127 22.0689 25.3385 22.9025 26.0924L19.7881 29.5366L16.7914 25.9894Z"/>
</mask>
<path d="M16.7914 25.9894C17.65 25.2641 18.7425 24.8748 19.8663 24.8937C20.9901 24.9127 22.0689 25.3385 22.9025 26.0924L19.7881 29.5366L16.7914 25.9894Z" fill="#5E5E5E" stroke="#5E5E5E" stroke-width="0" mask="url(#path-2-inside-1)"/>
<path d="M11.4336 19.9513C13.7448 17.9988 16.6857 16.9508 19.7108 17.0018C22.7359 17.0527 25.6399 18.1991 27.8841 20.2284" stroke="#5E5E5E" stroke-width="1.5"/>
<path d="M9 16.7668C12.0909 14.1556 16.0239 12.7541 20.0696 12.8222C24.1152 12.8903 27.9988 14.4235 31 17.1373" stroke="#5E5E5E" stroke-width="1.5"/>
<path d="M14.3926 23.1517C15.938 21.8461 17.9045 21.1453 19.9274 21.1794C21.9502 21.2135 23.892 21.9801 25.3926 23.3369" stroke="#5E5E5E" stroke-width="1.5"/>
</g>
<defs>
<clipPath id="clip0">
<rect width="24" height="24" fill="white" transform="translate(8 9)"/>
</clipPath>
</defs>
</svg>
