<svg width="40" height="40" viewBox="0 0 40 40" fill="none" xmlns="http://www.w3.org/2000/svg">
<circle cx="20" cy="20" r="19.25" stroke="#5AE4AF" stroke-width="1.5"/>
<path fill-rule="evenodd" clip-rule="evenodd" d="M15.3362 8.57764C11.9749 8.57764 9.25 11.3025 9.25 14.6638C9.25 17.2964 10.9214 19.5386 13.2609 20.3871C13.4615 23.9349 16.402 26.75 20 26.75C23.3189 26.75 26.0784 24.3546 26.6439 21.1984C28.1855 21.9374 29.25 23.5125 29.25 25.3363C29.25 27.8692 27.1967 29.9225 24.6638 29.9225H14V31.4225H24.6638C28.0251 31.4225 30.75 28.6976 30.75 25.3363C30.75 22.7037 29.0786 20.4616 26.7391 19.613C26.5386 16.0652 23.5981 13.25 20 13.25C16.681 13.25 13.9215 15.6454 13.356 18.8017C11.8145 18.0627 10.75 16.4876 10.75 14.6638C10.75 12.131 12.8033 10.0776 15.3362 10.0776H26V8.57764H15.3362ZM20 14.75C17.1005 14.75 14.75 17.1005 14.75 20C14.75 22.8995 17.1005 25.25 20 25.25C22.8995 25.25 25.25 22.8995 25.25 20C25.25 17.1005 22.8995 14.75 20 14.75ZM19.8897 16.0641L17.3897 19.5641L16.5426 20.75H18H20.0426L18.3897 23.0641L19.6103 23.9359L22.1103 20.4359L22.9574 19.25H21.5H19.4574L21.1103 16.9359L19.8897 16.0641Z" fill="#5AE4AF"/>
</svg>
