<svg width="88" height="88" viewBox="0 0 88 88" fill="none" xmlns="http://www.w3.org/2000/svg">
<path d="M35.8197 42.6367V45.3635H52.1803V42.6367H35.8197Z" fill="#DBDBDB"/>
<path fill-rule="evenodd" clip-rule="evenodd" d="M35.8788 9.2995C38.5091 9.19584 41.1447 9.14062 43.7849 9.17646C44.2086 9.17644 44.636 9.17427 45.0656 9.17209C46.0406 9.16713 47.0269 9.16212 48.0066 9.18211C50.0169 9.22315 52.027 9.28576 54.036 9.37019C55.6262 9.43709 57.2139 9.53972 58.7914 9.64169L58.8946 9.64836C61.0546 9.78788 63.2411 9.98097 65.4094 10.4159C67.3013 10.7955 69.1624 11.3683 70.9032 12.3447C72.7597 13.386 74.2549 14.8132 75.37 16.6286C76.5413 18.5358 77.1801 20.6152 77.5914 22.7261C77.9182 24.4032 78.0956 26.0893 78.231 27.7595C78.3903 29.7225 78.506 31.6864 78.5949 33.6491C78.701 35.9937 78.7716 38.3394 78.8074 40.6867C78.8362 42.5729 78.8429 44.4592 78.8236 46.3461C78.8086 47.8166 78.7828 49.2905 78.7321 50.7649C78.6693 52.5925 78.5875 54.4189 78.492 56.2436C78.4186 57.6488 78.3317 59.0582 78.2135 60.4667C78.0176 62.8021 77.7397 65.18 77.0472 67.5033C76.318 69.9502 75.1565 72.2098 73.1749 74.0057C71.91 75.1522 70.4625 75.9773 68.9032 76.5732C67.0649 77.2757 65.1671 77.6658 63.2655 77.9178C61.429 78.1613 59.5891 78.2899 57.7673 78.4005C56.2357 78.4934 54.7043 78.572 53.1727 78.6396C51.9357 78.6942 50.6977 78.7273 49.4673 78.7601C49.2084 78.767 48.9498 78.7739 48.6917 78.781C45.757 78.8616 42.8253 78.8366 39.9071 78.8011C37.9918 78.7778 36.0789 78.6963 34.18 78.6144C32.5107 78.5425 30.843 78.4474 29.178 78.3367C26.7859 78.1777 24.3503 77.9725 21.9462 77.427C20.2686 77.0464 18.6182 76.4985 17.074 75.6233C14.8926 74.3868 13.2359 72.638 12.101 70.4061C11.0923 68.4224 10.5599 66.3167 10.2207 64.1983C9.94415 62.4715 9.79902 60.7384 9.68285 59.0241C9.56677 57.3111 9.46627 55.5954 9.39332 53.8763C9.34594 52.7595 9.3096 51.642 9.27339 50.5288L9.24971 49.804C9.15679 46.989 9.1551 44.1769 9.17728 41.3732C9.18907 39.8738 9.22703 38.3762 9.27507 36.8828C9.3216 35.437 9.37933 33.9878 9.46328 32.5385L9.49946 31.91C9.5904 30.3247 9.68215 28.7255 9.82445 27.1292C10.0061 25.0912 10.2615 23.0282 10.8066 20.9981C11.3388 19.016 12.1415 17.1124 13.4605 15.4377C15.0295 13.4456 17.0658 12.1422 19.3767 11.3004C21.3503 10.5813 23.3836 10.214 25.4078 9.97495C27.2268 9.76014 29.048 9.63951 30.8561 9.53924C32.5294 9.44652 34.2033 9.36551 35.8788 9.2995ZM35.9379 10.7983C38.552 10.6953 41.1617 10.6409 43.7697 10.6764L43.7799 10.6765C44.2218 10.6765 44.66 10.6742 45.0959 10.672C46.0614 10.6671 47.0159 10.6622 47.976 10.6818C49.9755 10.7226 51.9748 10.7849 53.973 10.8689C55.5461 10.935 57.1192 11.0367 58.7017 11.139L58.7979 11.1452C60.9407 11.2836 63.0467 11.4719 65.1144 11.8866C66.91 12.2469 68.6087 12.7775 70.1694 13.6529C71.8058 14.5708 73.1124 15.8191 74.0918 17.4136C75.1354 19.1128 75.7272 21.0016 76.1191 23.013C76.43 24.6089 76.6021 26.2304 76.7359 27.8808C76.8934 29.8221 77.0081 31.7676 77.0964 33.7169C77.2019 36.0464 77.272 38.3771 77.3076 40.7096C77.3362 42.5841 77.3429 44.4576 77.3237 46.3307C77.3088 47.7944 77.2832 49.2553 77.233 50.7133C77.1705 52.5306 77.0891 54.348 76.9941 56.1653C76.9211 57.5619 76.8352 58.9542 76.7188 60.3413C76.5247 62.6547 76.2563 64.9057 75.6097 67.0748C74.933 69.3457 73.8882 71.3349 72.1676 72.8943C71.0627 73.8957 69.7834 74.631 68.3677 75.1721C66.6762 75.8184 64.9026 76.1877 63.0684 76.4308C61.2884 76.6668 59.4938 76.7929 57.6764 76.9033C56.1542 76.9956 54.6311 77.0738 53.1065 77.1411C51.8836 77.1951 50.661 77.2277 49.4308 77.2606L49.4249 77.2607C49.1671 77.2676 48.909 77.2745 48.6505 77.2816C45.7485 77.3612 42.8432 77.3367 39.9254 77.3012C38.0369 77.2782 36.1466 77.1978 34.2445 77.1158C32.589 77.0445 30.9332 76.9501 29.2775 76.84C26.8923 76.6815 24.5582 76.4815 22.278 75.9642C20.6937 75.6048 19.1926 75.0999 17.8137 74.3183C15.8922 73.2292 14.4415 71.6995 13.4381 69.7261C12.5266 67.9338 12.0277 65.9962 11.7018 63.9611C11.4364 62.3037 11.2948 60.6256 11.1794 58.9227C11.0639 57.2186 10.9642 55.5159 10.892 53.8127C10.8449 52.704 10.8089 51.5955 10.7727 50.4826L10.7489 49.7545C10.657 46.9701 10.6551 44.1818 10.6772 41.385C10.6889 39.9025 10.7265 38.4182 10.7743 36.931C10.8206 35.4924 10.8778 34.057 10.9608 32.6253L10.997 31.9954C11.0881 30.4076 11.1785 28.8334 11.3185 27.2624C11.4977 25.2517 11.7441 23.2909 12.2552 21.3871C12.7524 19.5354 13.4818 17.8349 14.6389 16.3658C16.0028 14.6341 17.7873 13.4758 19.8902 12.7097C21.7102 12.0466 23.6155 11.697 25.5837 11.4646C27.355 11.2554 29.1386 11.1368 30.9391 11.0369C32.6054 10.9446 34.2713 10.864 35.9379 10.7983Z" fill="#DBDBDB"/>
</svg>
