<svg width="24" height="24" viewBox="0 0 24 24" fill="none" xmlns="http://www.w3.org/2000/svg">
<path d="M23 12C23 18.0751 18.0751 23 12 23C5.92487 23 1 18.0751 1 12C1 5.92487 5.92487 1 12 1C18.0751 1 23 5.92487 23 12Z" stroke="#303030" stroke-width="1.5"/>
<path fill-rule="evenodd" clip-rule="evenodd" d="M11.25 6L11.25 14H12.75L12.75 6H11.25ZM13 16.997C13 16.4447 12.5522 15.997 12 15.9971C11.4477 15.9971 11 16.4448 11 16.9971V17.0313C11 17.5836 11.4478 18.0313 12 18.0312C12.5523 18.0312 13 17.5835 13 17.0312L13 16.997Z" fill="#303030"/>
</svg>
