<svg width="24" height="24" viewBox="0 0 24 24" fill="none" xmlns="http://www.w3.org/2000/svg">
<path d="M7.24023 2.75049C6.68795 2.75049 6.24023 3.1982 6.24023 3.75049L6.24024 22.0461C6.24024 22.5984 6.68795 23.0461 7.24024 23.0461L16.76 23.0461C17.3123 23.0461 17.76 22.5984 17.76 22.0461V3.75049C17.76 3.1982 17.3123 2.75049 16.76 2.75049L7.24023 2.75049Z" stroke="#303030" stroke-width="1.5"/>
<path d="M10.5 1.31134e-07C9.94772 1.55275e-07 9.5 0.447716 9.5 1L9.5 2L14.5 2V1C14.5 0.447715 14.0523 -2.41411e-08 13.5 0L10.5 1.31134e-07Z" fill="#303030"/>
<path fill-rule="evenodd" clip-rule="evenodd" d="M11.2467 12.1483L8.99609 12.1483L8.99609 13.6483L11.2467 13.6483L11.2467 15.8983L12.7467 15.8983L12.7467 13.6483L14.9961 13.6483L14.9961 12.1483L12.7467 12.1483L12.7467 9.89832L11.2467 9.89832L11.2467 12.1483Z" fill="#303030"/>
</svg>
