<svg width="24" height="24" viewBox="0 0 24 24" fill="none" xmlns="http://www.w3.org/2000/svg">
<g clip-path="url(#clip0)">
<path fill-rule="evenodd" clip-rule="evenodd" d="M15 1H6.75C3.57436 1 1 3.57436 1 6.75V17.25C1 20.4256 3.57436 23 6.75 23H17.25C20.4256 23 23 20.4256 23 17.25V9H21.5V17.25C21.5 19.5972 19.5972 21.5 17.25 21.5H6.75C4.40279 21.5 2.5 19.5972 2.5 17.25V6.75C2.5 4.40279 4.40279 2.5 6.75 2.5H15V1Z" fill="#303030"/>
<circle cx="20.3918" cy="3.60861" r="3.60861" fill="#303030"/>
<path d="M17.5 12C17.5 15.0376 15.0376 17.5 12 17.5C8.96243 17.5 6.5 15.0376 6.5 12C6.5 8.96243 8.96243 6.5 12 6.5C15.0376 6.5 17.5 8.96243 17.5 12Z" stroke="#303030" stroke-width="1.3"/>
<path fill-rule="evenodd" clip-rule="evenodd" d="M10.8341 11.1667C11.0941 10.8035 11.5197 10.5667 12.0005 10.5667C12.7921 10.5667 13.4338 11.2084 13.4338 12.0001C13.4338 12.7917 12.7921 13.4334 12.0005 13.4334C11.5197 13.4334 11.0942 13.1967 10.8342 12.8334H9.3965C9.7489 13.9355 10.7815 14.7334 12.0005 14.7334C13.51 14.7334 14.7338 13.5096 14.7338 12.0001C14.7338 10.4905 13.51 9.26672 12.0005 9.26672C10.7815 9.26672 9.74887 10.0647 9.39648 11.1667H10.8341Z" fill="#303030"/>
</g>
<defs>
<clipPath id="clip0">
<rect width="24" height="24" fill="white"/>
</clipPath>
</defs>
</svg>
