<svg width="24" height="24" viewBox="0 0 24 24" fill="none" xmlns="http://www.w3.org/2000/svg">
<g clip-path="url(#clip0)">
<path fill-rule="evenodd" clip-rule="evenodd" d="M15 1H6.75C3.57436 1 1 3.57436 1 6.75V17.25C1 20.4256 3.57436 23 6.75 23H17.25C20.4256 23 23 20.4256 23 17.25V9H21.5V17.25C21.5 19.5972 19.5972 21.5 17.25 21.5H6.75C4.40279 21.5 2.5 19.5972 2.5 17.25V6.75C2.5 4.40279 4.40279 2.5 6.75 2.5H15V1Z" fill="#303030"/>
<path d="M14.043 12L5.95964 12L5.04297 12M5.04297 12L8.70964 15.5M5.04297 12L8.70964 8.5" stroke="#303030" stroke-width="1.5"/>
<circle cx="20.3918" cy="3.60861" r="3.60861" fill="#303030"/>
<path fill-rule="evenodd" clip-rule="evenodd" d="M10.9676 17.5847C11.614 17.8251 12.3134 17.9564 13.0436 17.9564C16.3332 17.9564 19 15.2896 19 12C19 8.71033 16.3332 6.04354 13.0436 6.04354C12.3134 6.04354 11.614 6.17491 10.9676 6.41529L10.9676 8.05559C11.5876 7.72863 12.2939 7.54354 13.0436 7.54354C15.5048 7.54354 17.5 9.53876 17.5 12C17.5 14.4612 15.5048 16.4564 13.0436 16.4564C12.2939 16.4564 11.5876 16.2713 10.9676 15.9444L10.9676 17.5847Z" fill="#303030"/>
</g>
<defs>
<clipPath id="clip0">
<rect width="24" height="24" fill="white"/>
</clipPath>
</defs>
</svg>
