<svg width="24" height="24" viewBox="0 0 24 24" fill="none" xmlns="http://www.w3.org/2000/svg">
<path d="M22.3409 3.29559C22.3409 4.14913 21.649 4.84106 20.7955 4.84106C19.9419 4.84106 19.25 4.14913 19.25 3.29559C19.25 2.44205 19.9419 1.75012 20.7955 1.75012C21.649 1.75012 22.3409 2.44205 22.3409 3.29559Z" fill="#303030"/>
<path fill-rule="evenodd" clip-rule="evenodd" d="M13.5 13C13.5 11.2051 14.9551 9.75 16.75 9.75C18.5449 9.75 20 11.2051 20 13C20 14.7949 18.5449 16.25 16.75 16.25C14.9551 16.25 13.5 14.7949 13.5 13ZM16.75 11.25C15.7835 11.25 15 12.0335 15 13C15 13.9665 15.7835 14.75 16.75 14.75C17.7165 14.75 18.5 13.9665 18.5 13C18.5 12.0335 17.7165 11.25 16.75 11.25Z" fill="#303030"/>
<path d="M11.2866 9.4762C9.84855 8.00321 7.50931 8.00321 6.07122 9.4762C4.64293 10.9391 4.64293 13.3038 6.07122 14.7667C7.50931 16.2397 9.84855 16.2397 11.2866 14.7667L10.2134 13.7188C9.36381 14.589 7.99405 14.589 7.14451 13.7188C6.28516 12.8386 6.28516 11.4043 7.14451 10.5241C7.99405 9.65392 9.36381 9.65392 10.2134 10.5241L11.2866 9.4762Z" fill="#303030"/>
<path fill-rule="evenodd" clip-rule="evenodd" d="M8.5 2.99988C11.1397 2.99988 13.4983 4.27393 15.0574 6.27295C15.6742 6.09515 16.326 5.99988 17 5.99988C20.866 5.99988 24 9.13388 24 12.9999C24 16.8659 20.866 19.9999 17 19.9999C15.7903 19.9999 14.6522 19.693 13.6594 19.1529C12.2288 20.3115 10.4403 20.9999 8.5 20.9999C3.80558 20.9999 0 16.9704 0 11.9999C0 7.02932 3.80558 2.99988 8.5 2.99988ZM14.3763 17.8352L13.495 17.3558L12.7154 17.9872C11.5359 18.9424 10.0767 19.4999 8.5 19.4999C4.71363 19.4999 1.5 16.2239 1.5 11.9999C1.5 7.77581 4.71363 4.49988 8.5 4.49988C10.6395 4.49988 12.5755 5.52979 13.8746 7.19542L14.4983 7.99519L15.4729 7.71426C15.956 7.575 16.4679 7.49988 17 7.49988C20.0376 7.49988 22.5 9.96231 22.5 12.9999C22.5 16.0374 20.0376 18.4999 17 18.4999C16.0469 18.4999 15.1546 18.2587 14.3763 17.8352Z" fill="#303030"/>
</svg>
