<svg width="88" height="88" viewBox="0 0 88 88" fill="none" xmlns="http://www.w3.org/2000/svg">
<path fill-rule="evenodd" clip-rule="evenodd" d="M8.75782 43.25H23.6178C23.7252 33.5041 25.9226 24.6639 29.4566 18.185C31.5287 14.3862 34.0952 11.3448 37.008 9.4434C21.1259 12.6394 9.10723 26.5102 8.75782 43.25ZM44 7.25C23.7035 7.25 7.25 23.7035 7.25 44C7.25 64.2965 23.7035 80.75 44 80.75C64.2965 80.75 80.75 64.2965 80.75 44C80.75 23.7035 64.2965 7.25 44 7.25ZM43.25 8.77788C38.5131 9.13047 34.0967 12.8107 30.7734 18.9033C27.3795 25.1254 25.2254 33.7093 25.1179 43.25H43.25V8.77788ZM43.25 44.75H25.1179C25.2254 54.2907 27.3795 62.8746 30.7734 69.0967C34.0967 75.1893 38.5131 78.8695 43.25 79.2221V44.75ZM37.008 78.5566C34.0952 76.6552 31.5287 73.6138 29.4566 69.815C25.9226 63.3361 23.7252 54.4959 23.6178 44.75H8.75782C9.10723 61.4898 21.1259 75.3606 37.008 78.5566ZM50.992 78.5566C66.8741 75.3606 78.8928 61.4898 79.2422 44.75H64.3822C64.2748 54.4959 62.0774 63.3361 58.5434 69.815C56.4713 73.6138 53.9048 76.6552 50.992 78.5566ZM62.8821 44.75H44.75V79.2221C49.4869 78.8695 53.9033 75.1893 57.2266 69.0967C60.6205 62.8746 62.7746 54.2907 62.8821 44.75ZM62.8821 43.25H44.75V8.77788C49.4869 9.13047 53.9033 12.8107 57.2266 18.9033C60.6205 25.1254 62.7746 33.7093 62.8821 43.25ZM64.3822 43.25C64.2748 33.5041 62.0774 24.6639 58.5434 18.185C56.4713 14.3862 53.9048 11.3448 50.992 9.4434C66.8741 12.6394 78.8928 26.5102 79.2422 43.25H64.3822Z" fill="#DBDBDB"/>
</svg>
