<svg width="24" height="24" viewBox="0 0 24 24" fill="none" xmlns="http://www.w3.org/2000/svg">
<path fill-rule="evenodd" clip-rule="evenodd" d="M12 1.75C6.33908 1.75 1.75 6.33908 1.75 12C1.75 17.6609 6.33908 22.25 12 22.25C17.6609 22.25 22.25 17.6609 22.25 12C22.25 6.33908 17.6609 1.75 12 1.75ZM0.25 12C0.25 5.51065 5.51065 0.25 12 0.25C18.4893 0.25 23.75 5.51065 23.75 12C23.75 18.4893 18.4893 23.75 12 23.75C5.51065 23.75 0.25 18.4893 0.25 12Z" fill="#303030"/>
<path d="M12 12H4.75H4M4 12L7 9M4 12L7 15" stroke="#303030" stroke-width="1.5"/>
<path fill-rule="evenodd" clip-rule="evenodd" d="M9.01367 17.1552C9.89146 17.6646 10.9113 17.9563 11.9993 17.9563C15.289 17.9563 17.9558 15.2895 17.9558 11.9999C17.9558 8.71025 15.289 6.04346 11.9993 6.04346C10.9113 6.04346 9.89146 6.33516 9.01367 6.84462V8.6914C9.80383 7.9779 10.8508 7.54346 11.9993 7.54346C14.4605 7.54346 16.4558 9.53867 16.4558 11.9999C16.4558 14.4611 14.4605 16.4563 11.9993 16.4563C10.8508 16.4563 9.80383 16.0219 9.01367 15.3084V17.1552Z" fill="#303030"/>
</svg>
