<svg width="24" height="24" viewBox="0 0 24 24" fill="none" xmlns="http://www.w3.org/2000/svg">
<path d="M20 21.25C20 21.8023 19.5523 22.25 19 22.25L5 22.25C4.44772 22.25 4 21.8023 4 21.25L4 2.75C4 2.19772 4.44772 1.75 5 1.75L19 1.75C19.5523 1.75 20 2.19771 20 2.75L20 21.25Z" stroke="#303030" stroke-width="1.5"/>
<path d="M15 16.5C15 18.1569 13.6569 19.5 12 19.5C10.3431 19.5 9 18.1569 9 16.5C9 14.8431 10.3431 13.5 12 13.5C13.6569 13.5 15 14.8431 15 16.5Z" stroke="#303030" stroke-width="1.5"/>
<path fill-rule="evenodd" clip-rule="evenodd" d="M10.1284 6.25C10.532 5.64701 11.2194 5.25 11.9995 5.25C13.2421 5.25 14.2495 6.25736 14.2495 7.5C14.2495 8.74264 13.2421 9.75 11.9995 9.75C11.3331 9.75 10.7344 9.46031 10.3224 9H8.56154C9.14021 10.3244 10.4618 11.25 11.9995 11.25C14.0706 11.25 15.7495 9.57107 15.7495 7.5C15.7495 5.42893 14.0706 3.75 11.9995 3.75C10.3667 3.75 8.97769 4.79351 8.46289 6.25H10.1284Z" fill="#303030"/>
</svg>
