<svg width="24" height="24" viewBox="0 0 24 24" fill="none" xmlns="http://www.w3.org/2000/svg">
<path fill-rule="evenodd" clip-rule="evenodd" d="M12 1C8.96243 1 6.21243 2.26264 4.22183 4.30405C2.23122 6.34547 1 9.16566 1 12.2807C1 15.2669 2.1314 17.9821 3.9786 20H20.0214C21.8686 17.9821 23 15.2669 23 12.2807C23 9.16566 21.7688 6.34547 19.7782 4.30405C17.7876 2.26264 15.0376 1 12 1Z" stroke="#303030" stroke-width="1.5"/>
<path d="M13.5 12C13.5 12.8284 12.8284 13.5 12 13.5C11.1716 13.5 10.5 12.8284 10.5 12C10.5 11.1716 11.1716 10.5 12 10.5C12.8284 10.5 13.5 11.1716 13.5 12Z" fill="#303030" stroke="#303030"/>
<path d="M12.0005 12L18 6" stroke="#303030" stroke-width="1.5"/>
</svg>
