<svg width="24" height="24" viewBox="0 0 24 24" fill="none" xmlns="http://www.w3.org/2000/svg">
<path fill-rule="evenodd" clip-rule="evenodd" d="M10.5 6L10.5 10.25L13.5 10.25V6H15V10.25H16H16.75V11V14C16.75 16.6234 14.6234 18.75 12 18.75C9.37665 18.75 7.25 16.6234 7.25 14V11V10.25H8H9L9 6H10.5ZM8.75 14C8.75 15.7949 10.2051 17.25 12 17.25C13.7949 17.25 15.25 15.7949 15.25 14V11.75L8.75 11.75L8.75 14Z" fill="#303030"/>
<path d="M12 18V21.25C12 21.8023 12.4477 22.25 13 22.25H21.25C21.8023 22.25 22.25 21.8023 22.25 21.25V2.75C22.25 2.19772 21.8023 1.75 21.25 1.75H2.75C2.19772 1.75 1.75 2.19772 1.75 2.75V21.25C1.75 21.8023 2.19772 22.25 2.75 22.25H6.875" stroke="#303030" stroke-width="1.5"/>
</svg>
