<svg width="24" height="24" viewBox="0 0 24 24" fill="none" xmlns="http://www.w3.org/2000/svg">
<path fill-rule="evenodd" clip-rule="evenodd" d="M4.76308 2.00806H5.14756H18.8504H19.2348L19.4593 2.32021L23.5219 7.9703L23.8584 8.43819L23.4929 8.88378L12.5747 22.1952C12.5565 22.2205 12.5368 22.2444 12.5158 22.267L11.9627 22.9413L11.3832 22.2303L0.503555 8.88198L0.140625 8.4367L0.475986 7.9703L4.53863 2.32021L4.76308 2.00806ZM14.1651 17.8909L21.9677 8.37809L19.0724 4.35152L14.1651 17.8909ZM17.7826 3.50806L12.7314 17.4446L12.7819 3.50806H17.7826ZM11.2312 17.4871L6.2153 3.50806H11.2819L11.2312 17.4871ZM4.92472 4.35267L9.78331 17.8932L2.0292 8.37959L4.92472 4.35267Z" fill="#303030"/>
</svg>
