<svg width="24" height="24" viewBox="0 0 24 24" fill="none" xmlns="http://www.w3.org/2000/svg">
<path fill-rule="evenodd" clip-rule="evenodd" d="M16.3594 2.12369C16.3595 2.12388 16.3597 2.12412 16.9258 1.63208C17.4918 1.14004 17.4921 1.14035 17.4924 1.1407L17.4932 1.14161L17.4954 1.14415L17.5022 1.1521L17.5253 1.17937C17.5449 1.20257 17.5725 1.23576 17.6073 1.27863C17.677 1.36434 17.7758 1.48883 17.8968 1.64955C18.1389 1.97081 18.4708 2.43778 18.8385 3.03001C19.5724 4.21226 20.4566 5.90604 21.0475 7.94591C22.2374 12.0537 22.2259 17.5508 17.492 23.0013L16.3595 22.0177C20.6958 17.025 20.6843 12.0834 19.6067 8.36327C19.0638 6.48919 18.2473 4.92171 17.5641 3.82119C17.2232 3.27204 16.9173 2.84225 16.6988 2.55209C16.5895 2.4071 16.5023 2.29721 16.4435 2.22499C16.4142 2.18888 16.392 2.1622 16.3777 2.14528L16.3624 2.12726L16.3595 2.12381L16.3594 2.12369ZM4.25 5C4.25 3.48121 5.48122 2.25 7 2.25C8.51878 2.25 9.75 3.48121 9.75 5V19C9.75 20.5188 8.51878 21.75 7 21.75C5.48122 21.75 4.25 20.5188 4.25 19V5ZM7 3.75C6.30964 3.75 5.75 4.30964 5.75 5V19C5.75 19.6904 6.30964 20.25 7 20.25C7.69036 20.25 8.25 19.6904 8.25 19V5C8.25 4.30964 7.69036 3.75 7 3.75ZM13 5.07153C12.4602 5.59225 12.46 5.59201 12.4598 5.5918L12.461 5.59305L12.4711 5.60377C12.4808 5.61418 12.4964 5.6311 12.5174 5.65429C12.5592 5.70069 12.6222 5.77214 12.7015 5.86691C12.8601 6.05665 13.0829 6.3388 13.3316 6.69975C13.8309 7.4244 14.424 8.45177 14.8172 9.67494C15.2096 10.8954 15.3987 12.2967 15.1112 13.7876C14.8248 15.2729 14.0564 16.8948 12.46 18.551L13.54 19.592C15.3186 17.7467 16.2377 15.8679 16.5841 14.0717C16.9294 12.281 16.6967 10.6201 16.2453 9.21587C15.7947 7.81442 15.1222 6.65485 14.5668 5.84871C14.2882 5.44428 14.0364 5.12508 13.8523 4.90481C13.7601 4.79458 13.6847 4.70886 13.631 4.64935C13.6041 4.61958 13.5827 4.59635 13.5673 4.57986L13.5488 4.56021L13.543 4.55422L13.5411 4.55219L13.5404 4.55142C13.5401 4.5511 13.5398 4.55081 13 5.07153Z" fill="#787878"/>
</svg>
