<svg width="24" height="24" viewBox="0 0 24 24" fill="none" xmlns="http://www.w3.org/2000/svg">
<path fill-rule="evenodd" clip-rule="evenodd" d="M3.5 1.25C3.08579 1.25 2.75 1.58579 2.75 2V2.03914V2.07843V2.11787V2.15746V2.1972V2.23709V2.27712V2.31731V2.35763V2.39811V2.43872V2.47948V2.52038V2.56142V2.6026L2.75 2.64392V2.68538V2.72698V2.76871V2.81058V2.85258V2.89471V2.93698V2.97939V3.02192V3.06458V3.10737V3.15029V3.19334V3.23652V3.27982V3.32324V3.36679V3.41046V3.45426V3.49817V3.54221V3.58637V3.63064V3.67503V3.71954V3.76417V3.80891V3.85376V3.89873V3.94381V3.989V4.0343V4.07971V4.12523V4.17086V4.2166V4.26244V4.30838V4.35443V4.40059V4.44685V4.4932V4.53966V4.58622V4.63288V4.67964V4.72649V4.77344V4.82048V4.86762V4.91485V4.96218V5.0096V5.0571V5.1047V5.15239V5.20016V5.24803V5.29598V5.33697C1.31665 5.67555 0.25 6.96321 0.25 8.5C0.25 10.0368 1.31665 11.3245 2.75 11.663V11.6722V11.7239V11.7755V11.8271V11.8787V11.9303V11.9819V12.0334V12.0848V12.1363V12.1877V12.2391V12.2904V12.3417V12.393V12.4442V12.4954V12.5465V12.5976V12.6487V12.6997V12.7507V12.8016V12.8525V12.9033V12.9541V13.0048V13.0555V13.1062V13.1568V13.2073V13.2578V13.3082V13.3586V13.4089V13.4592V13.5094V13.5595V13.6096V13.6596L2.75 13.7096V13.7595V13.8093V13.8591V13.9088V13.9585V14.0081V14.0576V14.107V14.1564V14.2057V14.2549V14.3041V14.3532V14.4022V14.4511V14.5V14.5488V14.5975V14.6461V14.6947V14.7432V14.7916V14.8399V14.8881V14.9363V14.9843V15.0323V15.0802V15.128V15.1757V15.2233V15.2709V15.3183V15.3657V15.4129V15.4601V15.5072V15.5542V15.6011V15.6478V15.6945V15.7411V15.7876V15.834V15.8803V15.9265V15.9726V16.0186V16.0644V16.1102V16.1559V16.2014V16.2469V16.2922V16.3374V16.3826V16.4276L2.75 16.4724V16.5172V16.5619V16.6064V16.6509V16.6952V16.7394V16.7835V16.8274V16.8712V16.915V16.9586V17.002V17.0454V17.0886V17.1317V17.1746V17.2175V17.2602V17.3027V17.3452V17.3875V17.4297V17.4717V17.5136V17.5554V17.5971V17.6386V17.6799V17.7212V17.7623V17.8032V17.844V17.8847V17.9252V17.9656V18.0058V18.0459V18.0858V18.1256V18.1652V18.2047V18.2441V18.2833V18.3223V18.3612V18.3999V18.4385V18.4769V18.5152V18.5533V18.5912V18.629V18.6666V18.7041V18.7414V18.7785V18.8155V18.8523V18.889V18.9255V18.9618V18.9979V19.0339V19.0697V19.1053V19.1408V19.1761L2.75 19.2112V19.2461V19.2809V19.3155V19.3499V19.3841V19.4182V19.452V19.4857V19.5192V19.5526V19.5857V19.6187V19.6514V19.684V19.7164V19.7486V19.7807V19.8125V19.8441V19.8756V19.9069V19.9379V19.9688V19.9995V20.0299V20.0602V20.0903V20.1202V20.1499V20.1794V20.2087V20.2377V20.2666V20.2953V20.3238V20.352V20.3801V20.4079V20.4356V20.463V20.4902V20.5172V20.544V20.5706V20.597V20.6231V20.6491V20.6748V20.7003V20.7256V20.7507V20.7755V20.8001V20.8245V20.8487V20.8727V20.8964V20.9199V20.9432V20.9662V20.9891V21.0117V21.034V21.0562V21.0781V21.0997V21.1212V21.1424V21.1633V21.1841V21.2046V21.2248V21.2448V21.2646V21.2841V21.3034V21.3225V21.3413V21.3598V21.3782V21.3962V21.4141V21.4316V21.449V21.466V21.4829V21.4994V21.5158V21.5318V21.5477V21.5632V21.5785V21.5936V21.6084V21.6229V21.6372V21.6512V21.6649V21.6784V21.6916V21.7046V21.7173V21.7297V21.7419V21.7538V21.7654V21.7768V21.7878V21.7987V21.8092V21.8195V21.8295V21.8392V21.8486V21.8578V21.8667V21.8753V21.8836V21.8917V21.8995V21.907V21.9142V21.9211V21.9277V21.9341V21.9402V21.9459V21.9514V21.9566L2.75 21.9615V21.9662V21.9705V21.9745V21.9783V21.9817V21.9849V21.9877V21.9903V21.9926V21.9945V21.9962V21.9976V21.9986V21.9994V21.9998C2.75 21.9999 2.75 22 3.5 22H2.75C2.75 22.4142 3.08579 22.75 3.5 22.75C3.91421 22.75 4.25 22.4142 4.25 22H3.5C4.25 22 4.25 21.9999 4.25 21.9998V21.9994V21.9986V21.9976V21.9962V21.9945V21.9926V21.9903V21.9877V21.9849V21.9817V21.9783V21.9745V21.9705V21.9662V21.9615V21.9566V21.9514V21.9459V21.9402V21.9341V21.9277V21.9211V21.9142V21.907V21.8995V21.8917V21.8836V21.8753V21.8667V21.8578V21.8486V21.8392V21.8295V21.8195V21.8092V21.7987V21.7878V21.7768V21.7654V21.7538V21.7419V21.7297V21.7173V21.7046V21.6916V21.6784V21.6649V21.6512V21.6372V21.6229V21.6084V21.5936V21.5785V21.5632V21.5477V21.5318V21.5158V21.4994V21.4829V21.466V21.449V21.4316V21.4141V21.3962V21.3782V21.3598V21.3413V21.3225V21.3034V21.2841V21.2646V21.2448V21.2248V21.2046V21.1841V21.1633V21.1424V21.1212V21.0997V21.0781V21.0562V21.034V21.0117V20.9891V20.9662V20.9432V20.9199V20.8964V20.8727V20.8487V20.8245V20.8001V20.7755V20.7507V20.7256V20.7003V20.6748V20.6491V20.6231V20.597L4.25 20.5706V20.544V20.5172V20.4902V20.463V20.4356V20.4079V20.3801V20.352V20.3238V20.2953V20.2666V20.2377V20.2087V20.1794V20.1499V20.1202V20.0903V20.0602V20.0299V19.9995V19.9688V19.9379V19.9069V19.8756V19.8441V19.8125V19.7807V19.7486V19.7164V19.684V19.6514V19.6187V19.5857V19.5526V19.5192V19.4857V19.452V19.4182V19.3841V19.3499V19.3155V19.2809V19.2461V19.2112V19.1761V19.1408V19.1053V19.0697V19.0339V18.9979V18.9618V18.9255V18.889V18.8523V18.8155V18.7785V18.7414V18.7041V18.6666V18.629V18.5912V18.5533V18.5152V18.4769V18.4385V18.3999V18.3612V18.3223V18.2833V18.2441V18.2047V18.1652V18.1256V18.0858V18.0459V18.0058V17.9656V17.9252V17.8847V17.844V17.8032V17.7623V17.7212V17.6799V17.6386V17.5971V17.5554V17.5136V17.4717V17.4297V17.3875V17.3452V17.3027V17.2602V17.2175V17.1746V17.1317V17.0886V17.0454V17.002V16.9586V16.915V16.8712V16.8274V16.7835L4.25 16.7394V16.6952V16.6509V16.6064V16.5619V16.5172V16.4724V16.4276V16.3826V16.3374V16.2922V16.2469V16.2014V16.1559V16.1102V16.0644V16.0186V15.9726V15.9265V15.8803V15.834V15.7876V15.7411V15.6945V15.6478V15.6011V15.5542V15.5072V15.4601V15.4129V15.3657V15.3183V15.2709V15.2233V15.1757V15.128V15.0802L4.25 15.0323V14.9843V14.9363V14.8881V14.8399V14.7916V14.7432V14.6947V14.6461V14.5975V14.5488V14.5V14.4511V14.4022V14.3532V14.3041V14.2549V14.2057V14.1564V14.107V14.0576V14.0081V13.9585V13.9088V13.8591V13.8093V13.7595V13.7096V13.6596V13.6096V13.5595V13.5094V13.4592V13.4089V13.3586V13.3082V13.2578V13.2073V13.1568V13.1062V13.0555V13.0048V12.9541V12.9033V12.8525V12.8016V12.7507V12.6997V12.6487V12.5976V12.5465V12.4954V12.4442V12.393V12.3417V12.2904V12.2391V12.1877V12.1363V12.0848V12.0334V11.9819V11.9303V11.8787V11.8271V11.7755V11.7239V11.6722V11.663C5.68335 11.3245 6.75 10.0368 6.75 8.5C6.75 6.96321 5.68335 5.67555 4.25 5.33697V5.29598V5.24803V5.20016V5.15239V5.1047V5.0571V5.0096V4.96218V4.91485V4.86762V4.82048V4.77344V4.72649V4.67964V4.63288V4.58622V4.53966V4.4932V4.44685V4.40059V4.35443V4.30838V4.26244V4.2166V4.17086V4.12523V4.07971V4.0343L4.25 3.989V3.94381V3.89873V3.85376V3.80891V3.76417V3.71954V3.67503V3.63064V3.58637V3.54221V3.49817V3.45426V3.41046V3.36679V3.32324V3.27982V3.23652V3.19334V3.15029V3.10737V3.06458V3.02192V2.97939V2.93698V2.89471V2.85258V2.81058V2.76871V2.72698V2.68538V2.64392V2.6026V2.56142V2.52038V2.47948V2.43872V2.39811V2.35763V2.31731V2.27712V2.23709V2.1972V2.15746V2.11787V2.07843V2.03914V2C4.25 1.58579 3.91421 1.25 3.5 1.25ZM12 1.25C12.4142 1.25 12.75 1.58579 12.75 2V2.03914V2.07843V2.11787V2.15746V2.1972V2.23709V2.27712V2.31731V2.35763V2.39811V2.43872V2.47948V2.52038V2.56142V2.6026V2.64392V2.68538V2.72698V2.76871V2.81058V2.85258V2.89471V2.93698V2.97939V3.02192V3.06458V3.10737V3.15029V3.19334V3.23652V3.27982V3.32324V3.36679V3.41046V3.45426V3.49817V3.54221V3.58637V3.63064V3.67503V3.71954V3.76417V3.80891V3.85376V3.89873V3.94381V3.989V4.0343V4.07971V4.12523V4.17086V4.2166V4.26244V4.30838V4.35443V4.40059V4.44685V4.4932V4.53966V4.58622V4.63288V4.67964V4.72649V4.77344V4.82048V4.86762V4.91485V4.96218V5.0096V5.0571V5.1047V5.15239V5.20017V5.24803V5.29598V5.34401V5.39213V5.44033V5.48862V5.53699V5.58544V5.63397V5.68257V5.73126V5.78002V5.82887V5.87778V5.92677V5.97584V6.02498V6.07419V6.12347V6.17282V6.22224V6.27173V6.32129V6.37091V6.4206V6.47036V6.52018V6.57006V6.62001V6.67001V6.72008V6.7702L12.75 6.82039V6.87063V6.92093V6.97129V7.0217V7.07216V7.12268V7.17325V7.22387V7.27455V7.32527V7.37604V7.42686V7.47773V7.52864V7.5796V7.6306V7.68165V7.73274V7.78387V7.83504V7.88625V7.9375V7.98879V8.04011V8.09148V8.14287V8.19431V8.24577V8.29727V8.3488V8.40036V8.45195V8.50357V8.55522V8.6069V8.6586V8.71033V8.76208V8.81386V8.86566V8.91748V8.96933V9.02119V9.07307V9.12498V9.1769V9.22883V9.28078V9.33275V9.38473V9.43672V9.48873V9.54075V9.59277V9.64481V9.69686V9.74891V9.80097V9.85304V9.90511V9.95718V10.0093V10.0613V10.1134V10.1655V10.2176V10.2697V10.3218V10.3738V10.4259V10.478V10.53V10.5821V10.6341V10.6862V10.7382V10.7902V10.8422V10.8942V10.9462V10.9982V11.0501V11.1021V11.154V11.2059V11.2578V11.3097V11.3615V11.4134V11.4652V11.517V11.5687V11.6205V11.6722V11.7239V11.7755V11.8271V11.8787V11.9303V11.9819V12.0334V12.0848V12.1363V12.1877V12.2391V12.2904V12.337C14.1834 12.6755 15.25 13.9632 15.25 15.5C15.25 17.0368 14.1834 18.3245 12.75 18.663V18.6666V18.7041V18.7414V18.7785V18.8155V18.8523V18.889V18.9255V18.9618V18.9979V19.0339V19.0697V19.1053V19.1408V19.1761V19.2112V19.2461V19.2809V19.3155V19.3499V19.3841V19.4182V19.452V19.4857V19.5192V19.5526V19.5857V19.6187V19.6514V19.684V19.7164V19.7486V19.7807V19.8125V19.8441V19.8756V19.9069V19.9379V19.9688V19.9995V20.0299V20.0602V20.0903V20.1202V20.1499V20.1794V20.2087V20.2377V20.2666V20.2953V20.3238V20.352V20.3801V20.4079V20.4356V20.463V20.4902V20.5172V20.544V20.5706V20.597V20.6231V20.6491V20.6748V20.7003V20.7256V20.7507V20.7755V20.8001V20.8245V20.8487V20.8727V20.8964V20.9199V20.9432V20.9662V20.9891V21.0117V21.034V21.0562V21.0781V21.0997V21.1212V21.1424V21.1633V21.1841V21.2046V21.2248V21.2448V21.2646V21.2841V21.3034V21.3225V21.3413V21.3598V21.3782V21.3962V21.4141V21.4316V21.449V21.466V21.4829V21.4994V21.5158V21.5318V21.5477V21.5632V21.5785V21.5936V21.6084V21.6229V21.6372V21.6512V21.6649V21.6784V21.6916V21.7046V21.7173V21.7297V21.7419V21.7538V21.7654V21.7768V21.7878V21.7987V21.8092V21.8195V21.8295V21.8392V21.8486V21.8578V21.8667V21.8753V21.8836V21.8917V21.8995V21.907V21.9142V21.9211V21.9277V21.9341V21.9402V21.9459V21.9514V21.9566V21.9615V21.9662V21.9705V21.9745V21.9783V21.9817V21.9849V21.9877V21.9903V21.9926V21.9945V21.9962V21.9976V21.9986V21.9994V21.9998C12.75 21.9999 12.75 22 12 22C11.25 22 11.25 21.9999 11.25 21.9998V21.9994V21.9986V21.9976V21.9962V21.9945V21.9926V21.9903V21.9877V21.9849V21.9817V21.9783V21.9745V21.9705V21.9662V21.9615V21.9566V21.9514V21.9459V21.9402V21.9341V21.9277V21.9211V21.9142V21.907V21.8995V21.8917V21.8836V21.8753V21.8667V21.8578V21.8486V21.8392V21.8295V21.8195V21.8092V21.7987V21.7878V21.7768V21.7654V21.7538V21.7419V21.7297V21.7173V21.7046V21.6916V21.6784V21.6649V21.6512V21.6372V21.6229V21.6084V21.5936V21.5785V21.5632V21.5477V21.5318V21.5158V21.4994V21.4829V21.466V21.449V21.4316V21.4141V21.3962V21.3782V21.3598V21.3413V21.3225V21.3034V21.2841V21.2646V21.2448V21.2248V21.2046V21.1841V21.1633V21.1424V21.1212V21.0997V21.0781V21.0562V21.034V21.0117V20.9891V20.9662V20.9432V20.9199V20.8964V20.8727V20.8487V20.8245V20.8001V20.7755V20.7507V20.7256V20.7003V20.6748V20.6491V20.6231V20.597V20.5706V20.544V20.5172V20.4902V20.463V20.4356V20.4079V20.3801V20.352V20.3238V20.2953V20.2666V20.2377V20.2087V20.1794V20.1499V20.1202V20.0903V20.0602V20.0299V19.9995V19.9688V19.9379V19.9069V19.8756V19.8441V19.8125V19.7807V19.7486V19.7164V19.684V19.6514V19.6187V19.5857V19.5526V19.5192V19.4857V19.452V19.4182V19.3841V19.3499V19.3155V19.2809V19.2461V19.2112V19.1761V19.1408V19.1053V19.0697V19.0339V18.9979V18.9618V18.9255V18.889V18.8523V18.8155V18.7785V18.7414V18.7041V18.6666V18.663C9.81665 18.3245 8.75 17.0368 8.75 15.5C8.75 13.9632 9.81665 12.6755 11.25 12.337V12.2904V12.2391V12.1877V12.1363V12.0848V12.0334V11.9819V11.9303V11.8787V11.8271V11.7755V11.7239V11.6722V11.6205V11.5687V11.517V11.4652V11.4134V11.3615V11.3097V11.2578V11.2059V11.154V11.1021V11.0501V10.9982V10.9462V10.8942V10.8422V10.7902V10.7382V10.6862V10.6341V10.5821V10.53V10.478V10.4259V10.3738V10.3218V10.2697V10.2176V10.1655V10.1134V10.0613V10.0093V9.95718V9.90511V9.85304V9.80097V9.74891V9.69686V9.64481V9.59277V9.54075V9.48873V9.43672V9.38473V9.33275V9.28078V9.22883V9.1769V9.12498V9.07307V9.02119V8.96933V8.91748V8.86566V8.81386V8.76208V8.71033V8.6586V8.6069V8.55522V8.50357V8.45195V8.40036V8.3488V8.29727V8.24577V8.19431V8.14287V8.09148V8.04011V7.98879V7.9375V7.88625V7.83504V7.78387V7.73274V7.68165V7.6306V7.5796V7.52864V7.47773V7.42686V7.37604V7.32527V7.27455V7.22387V7.17325V7.12268V7.07216V7.0217V6.97129V6.92093V6.87063V6.82039L11.25 6.7702V6.72008V6.67001V6.62001V6.57006V6.52018V6.47036V6.4206V6.37091V6.32129V6.27173V6.22224V6.17282V6.12347V6.07419V6.02498V5.97584V5.92677V5.87778V5.82887V5.78002V5.73126V5.68257V5.63397V5.58544V5.53699V5.48862V5.44033V5.39213V5.34401V5.29598V5.24803V5.20017V5.15239V5.1047V5.0571V5.0096V4.96218V4.91485V4.86762V4.82048V4.77344V4.72649V4.67964V4.63288V4.58622V4.53966V4.4932V4.44685V4.40059V4.35443V4.30838V4.26244V4.2166V4.17086V4.12523V4.07971V4.0343V3.989V3.94381V3.89873V3.85376V3.80891V3.76417V3.71954V3.67503V3.63064V3.58637V3.54221V3.49817V3.45426V3.41046V3.36679V3.32324V3.27982V3.23652V3.19334V3.15029V3.10737V3.06458V3.02192V2.97939V2.93698V2.89471V2.85258V2.81058V2.76871V2.72698V2.68538V2.64392V2.6026V2.56142V2.52038V2.47948V2.43872V2.39811V2.35763V2.31731V2.27712V2.23709V2.1972V2.15746V2.11787V2.07843V2.03914V2C11.25 1.58579 11.5858 1.25 12 1.25ZM12 22H12.75C12.75 22.4142 12.4142 22.75 12 22.75C11.5858 22.75 11.25 22.4142 11.25 22L12 22ZM3.5 6.75C2.5335 6.75 1.75 7.5335 1.75 8.5C1.75 9.4665 2.5335 10.25 3.5 10.25C4.4665 10.25 5.25 9.4665 5.25 8.5C5.25 7.5335 4.4665 6.75 3.5 6.75ZM10.25 15.5C10.25 14.5335 11.0335 13.75 12 13.75C12.9665 13.75 13.75 14.5335 13.75 15.5C13.75 16.4665 12.9665 17.25 12 17.25C11.0335 17.25 10.25 16.4665 10.25 15.5ZM21.25 2C21.25 1.58579 20.9142 1.25 20.5 1.25C20.0858 1.25 19.75 1.58579 19.75 2V2.03914V2.07843V2.11787V2.15746V2.1972V2.23709V2.27712V2.31731V2.35763V2.39811V2.43872V2.47948V2.52038V2.56142V2.6026V2.64392V2.68538V2.72698V2.76871V2.81058V2.85258V2.89471V2.93698V2.97939V3.02192V3.06458V3.10737V3.15029V3.19334V3.23652V3.27982V3.32324V3.36679V3.41046V3.45426V3.49817V3.54221V3.58637V3.63064V3.67503V3.71954V3.76417V3.80891V3.85376V3.89873V3.94381V3.989V4.0343V4.07971V4.12523V4.17086V4.2166V4.26244V4.30838V4.35443V4.40059V4.44685V4.4932V4.53966V4.58622V4.63288V4.67964V4.72649V4.77344V4.82048V4.86762V4.91485V4.96218V5.0096V5.0571V5.1047V5.15239V5.20017V5.24803V5.29598V5.34401V5.39213V5.44033V5.48862V5.53699V5.58544V5.63397V5.68257V5.73126V5.78002V5.82887V5.87778V5.92677V5.97584V6.02498V6.07419V6.12347V6.17282V6.22224V6.27173V6.32129V6.37091V6.4206V6.47036V6.52018V6.57006V6.62001V6.67001V6.72008V6.7702V6.82039V6.87063V6.92093V6.97129V7.0217V7.07216V7.12268V7.17325V7.22387V7.27455V7.32527V7.33697C18.3167 7.67555 17.25 8.96321 17.25 10.5C17.25 12.0368 18.3167 13.3245 19.75 13.663V13.7096V13.7595V13.8093V13.8591V13.9088V13.9585V14.0081V14.0576V14.107V14.1564V14.2057V14.2549V14.3041V14.3532V14.4022V14.4511V14.5V14.5488V14.5975V14.6461V14.6947V14.7432V14.7916V14.8399V14.8881V14.9363V14.9843V15.0323V15.0802V15.128V15.1757V15.2233V15.2709V15.3183V15.3657V15.4129V15.4601V15.5072V15.5542V15.6011V15.6478V15.6945V15.7411V15.7876V15.834V15.8803V15.9265V15.9726V16.0186V16.0644V16.1102V16.1559V16.2014V16.2469V16.2922V16.3374V16.3826V16.4276V16.4725V16.5172V16.5619V16.6064V16.6509V16.6952V16.7394V16.7835V16.8274V16.8712V16.915V16.9586V17.002V17.0454V17.0886V17.1317V17.1746V17.2175V17.2602V17.3027V17.3452V17.3875V17.4297V17.4717V17.5136V17.5554V17.5971V17.6386V17.6799V17.7212V17.7623V17.8032V17.844V17.8847V17.9252V17.9656V18.0058V18.0459V18.0858V18.1256V18.1652V18.2047V18.2441V18.2833V18.3223V18.3612V18.3999V18.4385V18.4769V18.5152V18.5533V18.5912V18.629V18.6666V18.7041V18.7414V18.7785V18.8155V18.8523V18.889V18.9255V18.9618V18.9979V19.0339V19.0697V19.1053V19.1408V19.1761V19.2112V19.2461V19.2809V19.3155V19.3499V19.3841V19.4182V19.452V19.4857V19.5192V19.5526V19.5857V19.6187V19.6514V19.684V19.7164V19.7486V19.7807V19.8125V19.8441V19.8756V19.9069V19.9379V19.9688V19.9995V20.0299V20.0602V20.0903V20.1202V20.1499V20.1794V20.2087V20.2377V20.2666V20.2953V20.3238V20.352V20.3801V20.4079V20.4356V20.463V20.4902V20.5172V20.544V20.5706V20.597V20.6231V20.6491V20.6748V20.7003V20.7256V20.7507V20.7755V20.8001V20.8245V20.8487V20.8727V20.8964V20.9199V20.9432V20.9662V20.9891V21.0117V21.034V21.0562V21.0781V21.0997V21.1212V21.1424V21.1633V21.1841V21.2046V21.2248V21.2448V21.2646V21.2841V21.3034V21.3225V21.3413V21.3598V21.3782V21.3962V21.4141V21.4316V21.449V21.466V21.4829V21.4994V21.5158V21.5318V21.5477V21.5632V21.5785V21.5936V21.6084V21.6229V21.6372V21.6512V21.6649V21.6784V21.6916V21.7046V21.7173V21.7297V21.7419V21.7538V21.7654V21.7768V21.7878V21.7987V21.8092V21.8195V21.8295V21.8392V21.8486V21.8578V21.8667V21.8753V21.8836V21.8917V21.8995V21.907V21.9142V21.9211V21.9277V21.9341V21.9402V21.9459V21.9514V21.9566V21.9615V21.9662V21.9705V21.9745V21.9783V21.9817V21.9849V21.9877V21.9903V21.9926V21.9945V21.9962V21.9976V21.9986V21.9994V21.9998C19.75 21.9999 19.75 22 20.5 22H19.75C19.75 22.4142 20.0858 22.75 20.5 22.75C20.9142 22.75 21.25 22.4142 21.25 22H20.5C21.25 22 21.25 21.9999 21.25 21.9998V21.9994V21.9986V21.9976V21.9962V21.9945V21.9926V21.9903V21.9877V21.9849V21.9817V21.9783V21.9745V21.9705V21.9662V21.9615V21.9566V21.9514V21.9459V21.9402V21.9341V21.9277V21.9211V21.9142V21.907V21.8995V21.8917V21.8836V21.8753V21.8667V21.8578V21.8486V21.8392V21.8295V21.8195V21.8092V21.7987V21.7878V21.7768V21.7654V21.7538V21.7419V21.7297V21.7173V21.7046V21.6916V21.6784V21.6649V21.6512V21.6372V21.6229V21.6084V21.5936V21.5785V21.5632V21.5477V21.5318V21.5158V21.4994V21.4829V21.466V21.449V21.4316V21.4141V21.3962V21.3782V21.3598V21.3413V21.3225V21.3034V21.2841V21.2646V21.2448V21.2248V21.2046V21.1841V21.1633V21.1424V21.1212V21.0997V21.0781V21.0562V21.034V21.0117V20.9891V20.9662V20.9432V20.9199V20.8964V20.8727V20.8487V20.8245V20.8001V20.7755V20.7507V20.7256V20.7003V20.6748V20.6491V20.6231V20.597V20.5706V20.544V20.5172V20.4902V20.463V20.4356V20.4079V20.3801V20.352V20.3238V20.2953V20.2666V20.2377V20.2087V20.1794V20.1499V20.1202V20.0903V20.0602V20.0299V19.9995V19.9688V19.9379V19.9069V19.8756V19.8441V19.8125V19.7807V19.7486V19.7164V19.684V19.6514V19.6187V19.5857V19.5526V19.5192V19.4857V19.452V19.4182V19.3841V19.3499V19.3155V19.2809V19.2461V19.2112V19.1761V19.1408V19.1053V19.0697V19.0339V18.9979V18.9618V18.9255V18.889V18.8523V18.8155V18.7785V18.7414V18.7041V18.6666V18.629V18.5912V18.5533V18.5152V18.4769V18.4385V18.3999V18.3612V18.3223V18.2833V18.2441V18.2047V18.1652V18.1256V18.0858V18.0459V18.0058V17.9656V17.9252V17.8847V17.844V17.8032V17.7623V17.7212V17.6799V17.6386V17.5971V17.5554V17.5136V17.4717V17.4297V17.3875V17.3452V17.3027V17.2602V17.2175V17.1746V17.1317V17.0886V17.0454V17.002V16.9586V16.915V16.8712V16.8274V16.7835V16.7394V16.6952V16.6509V16.6064V16.5619V16.5172V16.4725V16.4276V16.3826V16.3374V16.2922V16.2469V16.2014V16.1559V16.1102V16.0644V16.0186V15.9726V15.9265V15.8803V15.834V15.7876V15.7411V15.6945V15.6478V15.6011V15.5542V15.5072V15.4601V15.4129V15.3657V15.3183V15.2709V15.2233V15.1757V15.128V15.0802V15.0323V14.9843V14.9363V14.8881V14.8399V14.7916V14.7432V14.6947V14.6461V14.5975V14.5488V14.5V14.4511V14.4022V14.3532V14.3041V14.2549V14.2057V14.1564V14.107V14.0576V14.0081V13.9585V13.9088V13.8591V13.8093V13.7595V13.7096V13.663C22.6833 13.3245 23.75 12.0368 23.75 10.5C23.75 8.96321 22.6833 7.67555 21.25 7.33697V7.32527V7.27455V7.22387V7.17325V7.12268V7.07216V7.0217V6.97129V6.92093V6.87063V6.82039V6.7702V6.72008V6.67001V6.62001V6.57006V6.52018V6.47036V6.4206V6.37091V6.32129V6.27173V6.22224V6.17282V6.12347V6.07419V6.02498V5.97584V5.92677V5.87778V5.82887V5.78002V5.73126V5.68257V5.63397V5.58544V5.53699V5.48862V5.44033V5.39213V5.34401V5.29598V5.24803V5.20017V5.15239V5.1047V5.0571V5.0096V4.96218V4.91485V4.86762V4.82048V4.77344V4.72649V4.67964V4.63288V4.58622V4.53966V4.4932V4.44685V4.40059V4.35443V4.30838V4.26244V4.2166V4.17086V4.12523V4.07971V4.0343V3.989V3.94381V3.89873V3.85376V3.80891V3.76417V3.71954V3.67503V3.63064V3.58637V3.54221V3.49817V3.45426V3.41046V3.36679V3.32324V3.27982V3.23652V3.19334V3.15029V3.10737V3.06458V3.02192V2.97939V2.93698V2.89471V2.85258V2.81058V2.76871V2.72698V2.68538V2.64392V2.6026V2.56142V2.52038V2.47948V2.43872V2.39811V2.35763V2.31731V2.27712V2.23709V2.1972V2.15746V2.11787V2.07843V2.03914V2ZM18.75 10.5C18.75 9.5335 19.5335 8.75 20.5 8.75C21.4665 8.75 22.25 9.5335 22.25 10.5C22.25 11.4665 21.4665 12.25 20.5 12.25C19.5335 12.25 18.75 11.4665 18.75 10.5Z" fill="#303030"/>
</svg>
