<svg width="24" height="24" viewBox="0 0 24 24" fill="none" xmlns="http://www.w3.org/2000/svg">
<path d="M7.39755 4.57356C6.96873 2.97316 7.91847 1.32815 9.51887 0.899325V0.899325C11.1193 0.4705 12.7643 1.42025 13.1931 3.02065L17.3342 18.4755C17.763 20.0759 16.8133 21.7209 15.2129 22.1497V22.1497C13.6125 22.5785 11.9675 21.6288 11.5387 20.0284L7.39755 4.57356Z" stroke="#303030" stroke-width="1.5"/>
<path d="M6.89844 18.1655C6.04713 17.3101 5.18329 15.6282 4.63842 13.5947C4.09354 11.5612 4.00073 9.67278 4.31025 8.50627" stroke="#303030" stroke-width="1.5"/>
<path d="M20.418 14.5444C20.7275 13.3779 20.6347 11.4895 20.0898 9.45599C19.5449 7.42248 18.6811 5.74064 17.8298 4.88517" stroke="#303030" stroke-width="1.5"/>
</svg>
