<svg width="16" height="16" viewBox="0 0 16 16" fill="none" xmlns="http://www.w3.org/2000/svg">
<path fill-rule="evenodd" clip-rule="evenodd" d="M1.81666 3.33327C1.81666 2.21949 2.71956 1.3166 3.83333 1.3166C4.9471 1.3166 5.85 2.21949 5.85 3.33327V5.49993H4.83333C4.189 5.49993 3.66666 6.02227 3.66666 6.6666V14.1666C3.66666 14.8109 4.189 15.3333 4.83333 15.3333H14.1667C14.811 15.3333 15.3333 14.8109 15.3333 14.1666V6.6666C15.3333 6.02227 14.811 5.49993 14.1667 5.49993H7.15V3.33327C7.15 1.50152 5.66507 0.0166016 3.83333 0.0166016C2.00159 0.0166016 0.516663 1.50152 0.516663 3.33327V5.99994H1.81666V3.33327Z" fill="#DBDBDB"/>
</svg>
