<svg width="24" height="24" viewBox="0 0 24 24" fill="none" xmlns="http://www.w3.org/2000/svg">
<g clip-path="url(#clip0_485_34499)">
<path fill-rule="evenodd" clip-rule="evenodd" d="M14.2156 1.50001C14.2156 1.20383 14.0413 0.935388 13.7707 0.814889C13.5001 0.69439 13.184 0.744407 12.9639 0.942543L5.67777 7.50001H1.71558C1.30136 7.50001 0.965576 7.8358 0.965576 8.25001V15.75C0.965576 16.1642 1.30136 16.5 1.71558 16.5H5.67777L12.9639 23.0575C13.184 23.2556 13.5001 23.3056 13.7707 23.1851C14.0413 23.0646 14.2156 22.7962 14.2156 22.5V1.50001ZM6.4673 8.80748L12.7156 3.18404V20.816L6.4673 15.1925C6.32958 15.0686 6.15086 15 5.96558 15H2.46558V9.00001H5.96558C6.15086 9.00001 6.32958 8.93143 6.4673 8.80748ZM16.016 14.9268L18.9476 11.9953L16.0257 9.07337L17.0863 8.01271L20.0082 10.9346L22.9301 8.01271L23.9908 9.07337L21.0689 11.9953L24.0004 14.9268L22.9398 15.9875L20.0082 13.0559L17.0767 15.9875L16.016 14.9268Z" fill="black"/>
</g>
<defs>
<clipPath id="clip0_485_34499">
<rect width="24" height="24" fill="white"/>
</clipPath>
</defs>
</svg>
