<svg width="24" height="24" viewBox="0 0 24 24" fill="none" xmlns="http://www.w3.org/2000/svg">
<path d="M5.36244 1.03544C5.6378 0.88982 5.86526 1.22572 5.69218 1.48818C4.73501 2.93968 4.3927 4.52617 4.44514 6.02321C4.57053 7.81306 5.19749 9.60291 6.07524 11.3288L6.76489 12.9269C6.80302 13.0435 6.84114 13.1575 6.87874 13.2699C7.02664 13.7121 7.16649 14.1303 7.26646 14.5889L7.3887 15.4614C7.3908 15.4763 7.39169 15.4914 7.39245 15.5065C7.39546 15.5662 7.40933 15.6369 7.4232 15.7076C7.43887 15.7875 7.45455 15.8674 7.45455 15.9313V17.251C7.45455 17.2661 7.4535 17.2812 7.4514 17.2962L7.32916 18.1686C7.01176 20.2182 5.75702 22.0857 4.0922 22.9648C3.81675 23.1103 3.58929 22.7743 3.76237 22.5119C4.71954 21.0604 5.06185 19.4739 5.00941 17.9768C4.88401 16.187 4.25705 14.3971 3.37931 12.6712L2.68966 11.0731C2.65153 10.9565 2.6134 10.8425 2.57579 10.7301C2.42789 10.2879 2.28806 9.86981 2.18809 9.41114C2.16719 9.21937 2.13932 9.0276 2.11146 8.83583C2.05573 8.45229 2 8.06875 2 7.68522V6.81301C2 6.79788 2.00105 6.78278 2.00315 6.76781L2.12539 5.89537C2.4428 3.79183 3.69758 1.91585 5.36244 1.03544Z" stroke="#DBDBDB" stroke-width="1.5"/>
<path d="M12.635 1.03514C12.9105 0.889787 13.138 1.22572 12.9649 1.48818C12.0077 2.93968 11.6654 4.52617 11.7179 6.02321C11.8433 7.81306 12.4702 9.60291 13.348 11.3288L14.0376 12.9269C14.0757 13.0434 14.1138 13.1573 14.1514 13.2696C14.2993 13.7118 14.4392 14.1302 14.5392 14.5889L14.6614 15.4614C14.6635 15.4763 14.6644 15.4914 14.6652 15.5065C14.6682 15.5662 14.6821 15.6369 14.6959 15.7076C14.7116 15.7875 14.7273 15.8674 14.7273 15.9313V17.251C14.7273 17.2661 14.7262 17.2812 14.7241 17.2962L14.6019 18.1686C14.2845 20.2182 13.0297 22.0857 11.3649 22.9648C11.0895 23.1103 10.862 22.7743 11.0351 22.5119C11.9923 21.0604 12.3346 19.4739 12.2821 17.9768C12.1567 16.187 11.5298 14.3971 10.652 12.6712L9.96239 11.0731C9.92426 10.9565 9.88612 10.8425 9.84851 10.73C9.70061 10.2879 9.56079 9.86981 9.46082 9.41114C9.43669 9.18973 9.39399 8.96831 9.35058 8.74326C9.28121 8.38354 9.21004 8.01451 9.21004 7.62129V6.74908C9.21004 6.73396 9.21109 6.71885 9.21319 6.70388L9.33543 5.83144C9.70574 3.7818 10.9688 1.91421 12.635 1.03514Z" stroke="#DBDBDB" stroke-width="1.5"/>
<path d="M18.9906 6.02321C18.9382 4.52617 19.2805 2.93968 20.2376 1.48818C20.4107 1.22572 20.1833 0.889787 19.9078 1.03514C18.2415 1.91421 16.9785 3.7818 16.6081 5.83144L16.4859 6.70388C16.4838 6.71885 16.4828 6.73396 16.4828 6.74908V7.62129C16.4828 8.01451 16.5539 8.38353 16.6233 8.74325C16.6667 8.96831 16.7094 9.18973 16.7335 9.41114C16.8335 9.86981 16.9733 10.2879 17.1212 10.73C17.1588 10.8425 17.197 10.9565 17.2351 11.0731L17.9248 12.6712C18.8025 14.3971 19.4295 16.187 19.5549 17.9768C19.6073 19.4739 19.265 21.0604 18.3078 22.5119C18.1347 22.7743 18.3622 23.1103 18.6376 22.9648C20.3025 22.0857 21.5572 20.2182 21.8746 18.1686L21.9968 17.2962C21.9989 17.2812 22 17.2661 22 17.251V15.9313C22 15.8674 21.9843 15.7875 21.9687 15.7076C21.9548 15.6369 21.9409 15.5662 21.9379 15.5065C21.9371 15.4914 21.9362 15.4763 21.9342 15.4614L21.8119 14.5889C21.7119 14.1302 21.5721 13.7122 21.4242 13.27C21.3866 13.1576 21.3485 13.0436 21.3103 12.9269L20.6207 11.3288C19.7429 9.60291 19.116 7.81306 18.9906 6.02321Z" stroke="#DBDBDB" stroke-width="1.5"/>
</svg>
