<svg width="24" height="24" viewBox="0 0 24 24" fill="none" xmlns="http://www.w3.org/2000/svg">
<path fill-rule="evenodd" clip-rule="evenodd" d="M5.01387 2.01733H4.63131L4.40672 2.32704L0.39179 7.86352C0.381007 7.87734 0.370698 7.89156 0.360887 7.90613L0.0371094 8.35261L0.387383 8.77955C0.397843 8.79323 0.408764 8.80654 0.420122 8.81945L11.4515 22.2652L12.0332 22.9741L12.5668 22.3196C12.6026 22.2837 12.6349 22.2442 12.6629 22.2017L18.9759 14.4583C19.0504 14.3964 19.1127 14.3203 19.1586 14.2342L23.5904 8.79828L23.955 8.35112L23.6163 7.88406L19.5865 2.32704L19.3619 2.01733H18.9793H12.0363H5.01387ZM18.1224 13.1314L21.43 9.07439H12.7863V13.1314H18.1224ZM11.2863 13.1314V9.07439H2.56952L5.89808 13.1314H11.2863ZM7.12873 14.6314H11.2863V19.6989L7.12873 14.6314ZM12.7863 14.6314H16.8994L12.7863 19.6766V14.6314ZM2.45436 7.57439H11.2863V3.51733H5.39644L2.45436 7.57439ZM12.7863 7.57439H21.5388L18.5967 3.51733H12.7863V7.57439Z" fill="#303030"/>
</svg>
