<svg width="24" height="24" viewBox="0 0 24 24" fill="none" xmlns="http://www.w3.org/2000/svg">
<path fill-rule="evenodd" clip-rule="evenodd" d="M1.25 6.66385C1.25 3.30252 3.97489 0.577637 7.33621 0.577637H18V2.07764H7.33621C4.80332 2.07764 2.75 4.13095 2.75 6.66385C2.75 8.73238 4.11946 10.4811 6.00119 11.0527V9.49268V7.99268H7.50119H16.5022H18.0022V9.49268V11.3977C20.7196 12.0075 22.75 14.4348 22.75 17.3363C22.75 20.6976 20.0251 23.4225 16.6638 23.4225H6V21.9225H16.6638C19.1967 21.9225 21.25 19.8692 21.25 17.3363C21.25 15.269 19.8822 13.5211 18.0022 12.9484V14.5077V16.0077H16.5022H7.50119H6.00119V14.5077V12.6032C3.28204 11.9946 1.25 9.56654 1.25 6.66385ZM7.50119 9.49268H16.5022V14.5077H7.50119V9.49268Z" fill="#787878"/>
</svg>
