<svg width="710" height="300" viewBox="0 0 710 300" fill="none" xmlns="http://www.w3.org/2000/svg">
<circle cx="98.5" cy="150.5" r="72.5" fill="#009485"/>
<path d="M109.424 167.555L99.5106 151.202L89.6123 167.555C88.6255 169.197 85.5882 172.127 81.1787 170.869L60.0408 164.855V177.435C60.0408 179.69 61.5826 181.654 63.772 182.191L97.1054 190.49C98.678 190.874 100.328 190.874 101.885 190.49L135.249 182.191C137.438 181.638 138.98 179.675 138.98 177.435V164.855L117.858 170.854C113.464 172.112 110.426 169.212 109.424 167.555ZM80.1149 134.281C79.9145 133.499 79.7757 132.701 79.7757 131.872C79.7757 126.457 84.2006 122.054 89.6431 122.054C95.0856 122.054 99.5106 126.457 99.5106 131.872C99.5106 133.591 99.0326 135.171 98.2463 136.582L99.5106 136.735L123.454 133.713L128.959 118.633C129.421 117.36 128.758 115.949 127.479 115.488L118.922 112.389C117.642 111.929 116.224 112.589 115.761 113.862L109.332 131.412C109.07 120.781 100.389 112.236 89.6431 112.236C78.7427 112.236 69.9083 121.026 69.9083 131.872C69.9083 132.256 70.0008 132.624 70.0162 133.008L80.1149 134.281ZM58.3757 138.162L50.4355 153.933C49.7263 155.344 50.4818 157.032 51.9927 157.461L82.5047 166.129C83.5993 166.436 84.7711 165.975 85.357 165.009L99.5106 141.691L60.9351 136.797C59.8712 136.674 58.8537 137.211 58.3757 138.162V138.162ZM148.586 153.933L140.645 138.162C140.167 137.211 139.134 136.659 138.071 136.797L99.5106 141.691L113.649 165.024C114.235 165.991 115.406 166.451 116.501 166.144L147.013 157.476C148.539 157.032 149.279 155.344 148.586 153.933Z" fill="white"/>
<path d="M223.925 97.344C226.981 97.344 229.601 97.5623 231.785 97.999C233.968 98.3483 235.54 98.6977 236.501 99.047L234.798 109.527C233.837 109.178 232.527 108.828 230.868 108.479C229.208 108.042 227.2 107.824 224.842 107.824C219.165 107.824 215.191 109.396 212.921 112.54C210.65 115.597 209.515 119.745 209.515 124.985V130.88H235.715V141.098H209.515V199H197.332V124.723C197.332 115.99 199.471 109.265 203.751 104.549C208.03 99.7457 214.755 97.344 223.925 97.344ZM260.605 199H248.422V130.88H260.605V199ZM254.448 118.566C252.264 118.566 250.387 117.867 248.815 116.47C247.33 114.985 246.588 113.02 246.588 110.575C246.588 108.13 247.33 106.208 248.815 104.811C250.387 103.326 252.264 102.584 254.448 102.584C256.631 102.584 258.465 103.326 259.95 104.811C261.522 106.208 262.308 108.13 262.308 110.575C262.308 113.02 261.522 114.985 259.95 116.47C258.465 117.867 256.631 118.566 254.448 118.566ZM301.945 200.31C294.435 200.135 289.107 198.52 285.963 195.463C282.819 192.406 281.247 187.647 281.247 181.184V99.44L293.43 97.344V179.219C293.43 181.228 293.605 182.887 293.954 184.197C294.304 185.507 294.871 186.555 295.657 187.341C296.443 188.127 297.491 188.738 298.801 189.175C300.111 189.524 301.727 189.83 303.648 190.092L301.945 200.31ZM328.727 130.88H354.534V141.098H328.727V172.538C328.727 175.944 328.989 178.782 329.513 181.053C330.037 183.236 330.823 184.983 331.871 186.293C332.919 187.516 334.229 188.389 335.801 188.913C337.373 189.437 339.207 189.699 341.303 189.699C344.971 189.699 347.896 189.306 350.08 188.52C352.35 187.647 353.922 187.035 354.796 186.686L357.154 196.773C355.931 197.384 353.791 198.127 350.735 199C347.678 199.961 344.185 200.441 340.255 200.441C335.626 200.441 331.783 199.873 328.727 198.738C325.757 197.515 323.356 195.725 321.522 193.367C319.688 191.009 318.378 188.127 317.592 184.721C316.893 181.228 316.544 177.21 316.544 172.669V111.885L328.727 109.789V130.88ZM364.958 165.071C364.958 159.045 365.832 153.805 367.578 149.351C369.325 144.81 371.639 141.054 374.521 138.085C377.403 135.116 380.722 132.889 384.477 131.404C388.233 129.919 392.075 129.177 396.005 129.177C405.175 129.177 412.206 132.059 417.096 137.823C421.987 143.5 424.432 152.189 424.432 163.892C424.432 164.416 424.432 165.115 424.432 165.988C424.432 166.774 424.389 167.516 424.301 168.215H377.665C378.189 175.289 380.242 180.66 383.822 184.328C387.403 187.996 392.992 189.83 400.59 189.83C404.87 189.83 408.45 189.481 411.332 188.782C414.302 187.996 416.529 187.254 418.013 186.555L419.716 196.773C418.232 197.559 415.612 198.389 411.856 199.262C408.188 200.135 403.996 200.572 399.28 200.572C393.342 200.572 388.189 199.699 383.822 197.952C379.543 196.118 376.006 193.629 373.211 190.485C370.417 187.341 368.321 183.629 366.923 179.35C365.613 174.983 364.958 170.224 364.958 165.071ZM411.725 158.39C411.813 152.888 410.415 148.39 407.533 144.897C404.739 141.316 400.852 139.526 395.874 139.526C393.08 139.526 390.591 140.094 388.407 141.229C386.311 142.277 384.521 143.674 383.036 145.421C381.552 147.168 380.373 149.176 379.499 151.447C378.713 153.718 378.189 156.032 377.927 158.39H411.725ZM467.085 129.439C468.133 129.439 469.312 129.526 470.622 129.701C472.02 129.788 473.373 129.963 474.683 130.225C475.993 130.4 477.172 130.618 478.22 130.88C479.356 131.055 480.185 131.229 480.709 131.404L478.613 142.015C477.653 141.666 476.037 141.273 473.766 140.836C471.583 140.312 468.745 140.05 465.251 140.05C462.981 140.05 460.71 140.312 458.439 140.836C456.256 141.273 454.815 141.578 454.116 141.753V199H441.933V133.762C444.815 132.714 448.396 131.753 452.675 130.88C456.955 129.919 461.758 129.439 467.085 129.439ZM504.648 199H492.465V130.88H504.648V199ZM498.491 118.566C496.308 118.566 494.43 117.867 492.858 116.47C491.374 114.985 490.631 113.02 490.631 110.575C490.631 108.13 491.374 106.208 492.858 104.811C494.43 103.326 496.308 102.584 498.491 102.584C500.675 102.584 502.509 103.326 503.993 104.811C505.565 106.208 506.351 108.13 506.351 110.575C506.351 113.02 505.565 114.985 503.993 116.47C502.509 117.867 500.675 118.566 498.491 118.566ZM552.192 97.344C555.773 97.344 558.83 97.606 561.362 98.13C563.982 98.654 565.816 99.1343 566.864 99.571L564.637 110.051C563.589 109.527 562.105 109.047 560.183 108.61C558.262 108.086 555.904 107.824 553.109 107.824C547.433 107.824 543.459 109.396 541.188 112.54C538.918 115.597 537.782 119.745 537.782 124.985V130.88H563.982V141.098H537.782V199H525.599V124.723C525.599 115.99 527.739 109.265 532.018 104.549C536.298 99.7457 543.022 97.344 552.192 97.344ZM570.571 211.707C571.532 212.144 572.754 212.537 574.239 212.886C575.811 213.323 577.339 213.541 578.824 213.541C583.627 213.541 587.383 212.449 590.09 210.266C592.797 208.17 595.243 204.72 597.426 199.917C591.924 189.437 586.771 178.346 581.968 166.643C577.252 154.853 573.322 142.932 570.178 130.88H583.278C584.239 134.81 585.374 139.046 586.684 143.587C588.081 148.128 589.61 152.801 591.269 157.604C592.928 162.407 594.719 167.211 596.64 172.014C598.561 176.817 600.57 181.446 602.666 185.9C605.985 176.73 608.867 167.647 611.312 158.652C613.757 149.657 616.072 140.399 618.255 130.88H630.831C627.687 143.718 624.194 156.076 620.351 167.953C616.508 179.743 612.36 190.791 607.906 201.096C606.159 205.026 604.325 208.388 602.404 211.183C600.57 214.065 598.518 216.423 596.247 218.257C593.976 220.091 591.4 221.445 588.518 222.318C585.723 223.191 582.536 223.628 578.955 223.628C577.994 223.628 576.99 223.541 575.942 223.366C574.894 223.279 573.846 223.104 572.798 222.842C571.837 222.667 570.92 222.449 570.047 222.187C569.261 221.925 568.693 221.707 568.344 221.532L570.571 211.707Z" fill="#009485"/>
</svg>
