<?xml version="1.0" encoding="UTF-8"?>
<svg width="48px" height="48px" viewBox="0 0 48 48" version="1.1" xmlns="http://www.w3.org/2000/svg" xmlns:xlink="http://www.w3.org/1999/xlink">
    <!-- Generator: sketchtool 61.2 (101010) - https://sketch.com -->
    <title>6FC11237-B4C0-4B3D-B31E-7EA588D1737E</title>
    <desc>Created with sketchtool.</desc>
    <g id="Symbols" stroke="none" stroke-width="1" fill="none" fill-rule="evenodd">
        <g id="Icon-/-Incident-/-a.Work" fill="#F5CA1B">
            <path d="M16,22 C17.1045695,22 18,22.8954305 18,24 C18,25.1045695 17.1045695,26 16,26 C14.8954305,26 14,25.1045695 14,24 C14,22.8954305 14.8954305,22 16,22 Z M24,22 C25.1045695,22 26,22.8954305 26,24 C26,25.1045695 25.1045695,26 24,26 C22.8954305,26 22,25.1045695 22,24 C22,22.8954305 22.8954305,22 24,22 Z M32,22 C33.1045695,22 34,22.8954305 34,24 C34,25.1045695 33.1045695,26 32,26 C30.8954305,26 30,25.1045695 30,24 C30,22.8954305 30.8954305,22 32,22 Z" id="Combined-Shape"></path>
        </g>
    </g>
</svg>