<svg width="24" height="24" viewBox="0 0 24 24" fill="none" xmlns="http://www.w3.org/2000/svg">
<path fill-rule="evenodd" clip-rule="evenodd" d="M12 23.5C18.3513 23.5 23.5 18.3513 23.5 12C23.5 5.64873 18.3513 0.5 12 0.5C5.64873 0.5 0.5 5.64873 0.5 12C0.5 18.3513 5.64873 23.5 12 23.5ZM12 5.94385C12.5523 5.94385 13 6.39157 13 6.94385V7.05591C13 7.60819 12.5523 8.05591 12 8.05591C11.4477 8.0559 11 7.60819 11 7.0559V6.94384C11 6.39156 11.4477 5.94385 12 5.94385ZM10 11.5186V10.0186H12H12.75V10.7686V17.9999H11.25V11.5186H10Z" fill="#C7C7C7"/>
</svg>
