<svg width="24" height="24" viewBox="0 0 24 24" fill="none" xmlns="http://www.w3.org/2000/svg">
<g clip-path="url(#clip0_660_42261)">
<path fill-rule="evenodd" clip-rule="evenodd" d="M12 0C12.6024 0 13.0909 0.488417 13.0909 1.09091L13.092 10.9407L13.0976 11.1448C13.1335 11.7553 13.3131 12.2222 13.6363 12.5455L15.2727 14.1818C16.5976 15.1767 17.4545 16.761 17.4545 18.5455C17.4545 21.5579 15.0124 24 12 24C8.98749 24 6.54541 21.5579 6.54541 18.5455C6.54541 16.8137 7.3524 15.2705 8.61082 14.2713L8.72723 14.1818L8.96292 13.9461L10.2356 12.6734C10.2805 12.6285 10.3232 12.5859 10.3636 12.5455C10.7226 12.1865 10.9043 11.6504 10.909 10.9371L10.909 1.09091C10.909 0.488417 11.3975 0 12 0Z" fill="#C7C7C7"/>
</g>
<defs>
<clipPath id="clip0_660_42261">
<rect width="24" height="24" fill="white"/>
</clipPath>
</defs>
</svg>
