<svg width="24" height="24" viewBox="0 0 24 24" fill="none" xmlns="http://www.w3.org/2000/svg">
<g clip-path="url(#clip0_660_42252)">
<path fill-rule="evenodd" clip-rule="evenodd" d="M8.72725 0C9.32974 0 9.81816 0.488417 9.81816 1.09091L9.81925 10.9407L9.82489 11.1448C9.86081 11.7553 10.0404 12.2222 10.3636 12.5455L12 14.1818C13.3249 15.1767 14.1818 16.761 14.1818 18.5455C14.1818 21.5579 11.7397 24 8.72725 24C5.71479 24 3.27271 21.5579 3.27271 18.5455C3.27271 16.8137 4.07969 15.2705 5.33812 14.2713L5.45452 14.1818L5.69021 13.9461L6.96294 12.6734C7.00783 12.6285 7.05048 12.5859 7.09089 12.5455C7.44985 12.1865 7.63163 11.6504 7.63625 10.9371L7.63634 1.09091C7.63634 0.488417 8.12476 0 8.72725 0ZM16.3636 0L20.7272 5.45455H17.4545V10.9091C17.4545 11.5116 16.9661 12 16.3636 12C15.7611 12 15.2727 11.5116 15.2727 10.9091V5.45455H12L16.3636 0Z" fill="#C7C7C7"/>
</g>
<defs>
<clipPath id="clip0_660_42252">
<rect width="24" height="24" fill="white"/>
</clipPath>
</defs>
</svg>
