<svg width="88" height="88" viewBox="0 0 88 88" fill="none" xmlns="http://www.w3.org/2000/svg">
<path d="M44 10C76.381 10 78 11.619 78 44C78 76.381 76.381 78 44 78C11.619 78 10 76.381 10 44C10 11.619 11.619 10 44 10Z" stroke="#DBDBDB" stroke-width="1.5" stroke-miterlimit="3.4203" stroke-linejoin="round"/>
<path fill-rule="evenodd" clip-rule="evenodd" d="M59.7363 60.6531C60.6694 60.6531 61.4255 61.4058 61.4255 62.3266C61.4255 63.251 60.6694 64 59.7363 64C58.8068 64 58.047 63.251 58.047 62.3266C58.047 61.4058 58.8068 60.6531 59.7363 60.6531ZM28.201 60.6531C29.1342 60.6531 29.8903 61.4058 29.8903 62.3266C29.8903 63.251 29.1342 64 28.201 64C27.2716 64 26.5118 63.251 26.5118 62.3266C26.5118 61.4058 27.2716 60.6531 28.201 60.6531ZM43.9687 53.7109C44.9018 53.7109 45.6579 54.4636 45.6579 55.3844C45.6579 56.3088 44.9018 57.0578 43.9687 57.0578C43.0392 57.0578 42.2794 56.3088 42.2794 55.3844C42.2794 54.4636 43.0392 53.7109 43.9687 53.7109ZM33.4569 53.7109C34.39 53.7109 35.1462 54.4636 35.1462 55.3844C35.1462 56.3088 34.39 57.0578 33.4569 57.0578C32.5274 57.0578 31.7676 56.3088 31.7676 55.3844C31.7676 54.4636 32.5274 53.7109 33.4569 53.7109ZM22.9451 53.7109C23.8783 53.7109 24.6344 54.4636 24.6344 55.3844C24.6344 56.3088 23.8783 57.0578 22.9451 57.0578C22.0157 57.0578 21.2559 56.3088 21.2559 55.3844C21.2559 54.4636 22.0157 53.7109 22.9451 53.7109ZM54.4804 53.7109C55.4136 53.7109 56.1697 54.4636 56.1697 55.3844C56.1697 56.3088 55.4136 57.0578 54.4804 57.0578C53.5509 57.0578 52.7911 56.3088 52.7911 55.3844C52.7911 54.4636 53.5509 53.7109 54.4804 53.7109ZM64.9922 53.7109C65.9253 53.7109 66.6814 54.4636 66.6814 55.3844C66.6814 56.3088 65.9253 57.0578 64.9922 57.0578C64.0627 57.0578 63.3029 56.3088 63.3029 55.3844C63.3029 54.4636 64.0627 53.7109 64.9922 53.7109ZM59.7363 46.7688C60.6694 46.7688 61.4255 47.5214 61.4255 48.4422C61.4255 49.3666 60.6694 50.1156 59.7363 50.1156C58.8068 50.1156 58.047 49.3666 58.047 48.4422C58.047 47.5214 58.8068 46.7688 59.7363 46.7688ZM38.7128 46.7688C39.6459 46.7688 40.402 47.5214 40.402 48.4422C40.402 49.3666 39.6459 50.1156 38.7128 50.1156C37.7833 50.1156 37.0235 49.3666 37.0235 48.4422C37.0235 47.5214 37.7833 46.7688 38.7128 46.7688ZM28.201 46.7688C29.1342 46.7688 29.8903 47.5214 29.8903 48.4422C29.8903 49.3666 29.1342 50.1156 28.201 50.1156C27.2716 50.1156 26.5118 49.3666 26.5118 48.4422C26.5118 47.5214 27.2716 46.7688 28.201 46.7688ZM17.6893 46.7688C18.6224 46.7688 19.3785 47.5214 19.3785 48.4422C19.3785 49.3666 18.6224 50.1156 17.6893 50.1156C16.7598 50.1156 16 49.3666 16 48.4422C16 47.5214 16.7598 46.7688 17.6893 46.7688ZM49.2245 46.7688C50.1577 46.7688 50.9138 47.5214 50.9138 48.4422C50.9138 49.3666 50.1577 50.1156 49.2245 50.1156C48.2951 50.1156 47.5353 49.3666 47.5353 48.4422C47.5353 47.5214 48.2951 46.7688 49.2245 46.7688ZM54.4804 39.8266C55.4136 39.8266 56.1697 40.5792 56.1697 41.5C56.1697 42.4244 55.4136 43.1734 54.4804 43.1734C53.5509 43.1734 52.7911 42.4244 52.7911 41.5C52.7911 40.5792 53.5509 39.8266 54.4804 39.8266ZM33.4569 39.8266C34.39 39.8266 35.1462 40.5792 35.1462 41.5C35.1462 42.4244 34.39 43.1734 33.4569 43.1734C32.5274 43.1734 31.7676 42.4244 31.7676 41.5C31.7676 40.5792 32.5274 39.8266 33.4569 39.8266ZM64.9922 39.8266C65.9253 39.8266 66.6814 40.5792 66.6814 41.5C66.6814 42.4244 65.9253 43.1734 64.9922 43.1734C64.0627 43.1734 63.3029 42.4244 63.3029 41.5C63.3029 40.5792 64.0627 39.8266 64.9922 39.8266ZM43.9687 39.8266C44.9018 39.8266 45.6579 40.5792 45.6579 41.5C45.6579 42.4244 44.9018 43.1734 43.9687 43.1734C43.0392 43.1734 42.2794 42.4244 42.2794 41.5C42.2794 40.5792 43.0392 39.8266 43.9687 39.8266ZM22.9451 39.8266C23.8783 39.8266 24.6344 40.5792 24.6344 41.5C24.6344 42.4244 23.8783 43.1734 22.9451 43.1734C22.0157 43.1734 21.2559 42.4244 21.2559 41.5C21.2559 40.5792 22.0157 39.8266 22.9451 39.8266ZM38.7128 32.8844C39.6459 32.8844 40.402 33.6371 40.402 34.5578C40.402 35.4822 39.6459 36.2312 38.7128 36.2312C37.7833 36.2312 37.0235 35.4822 37.0235 34.5578C37.0235 33.6371 37.7833 32.8844 38.7128 32.8844ZM28.201 32.8844C29.1342 32.8844 29.8903 33.6371 29.8903 34.5578C29.8903 35.4822 29.1342 36.2312 28.201 36.2312C27.2716 36.2312 26.5118 35.4822 26.5118 34.5578C26.5118 33.6371 27.2716 32.8844 28.201 32.8844ZM17.6893 32.8844C18.6224 32.8844 19.3785 33.6371 19.3785 34.5578C19.3785 35.4822 18.6224 36.2312 17.6893 36.2312C16.7598 36.2312 16 35.4822 16 34.5578C16 33.6371 16.7598 32.8844 17.6893 32.8844ZM49.2245 32.8844C50.1577 32.8844 50.9138 33.6371 50.9138 34.5578C50.9138 35.4822 50.1577 36.2312 49.2245 36.2312C48.2951 36.2312 47.5353 35.4822 47.5353 34.5578C47.5353 33.6371 48.2951 32.8844 49.2245 32.8844ZM59.7363 32.8844C60.6694 32.8844 61.4255 33.6371 61.4255 34.5578C61.4255 35.4822 60.6694 36.2312 59.7363 36.2312C58.8068 36.2312 58.047 35.4822 58.047 34.5578C58.047 33.6371 58.8068 32.8844 59.7363 32.8844ZM70.248 32.8844C71.1812 32.8844 71.9373 33.6371 71.9373 34.5578C71.9373 35.4822 71.1812 36.2312 70.248 36.2312C69.3186 36.2312 68.5588 35.4822 68.5588 34.5578C68.5588 33.6371 69.3186 32.8844 70.248 32.8844ZM54.4804 25.9422C55.4136 25.9422 56.1697 26.6949 56.1697 27.6156C56.1697 28.54 55.4136 29.2891 54.4804 29.2891C53.5509 29.2891 52.7911 28.54 52.7911 27.6156C52.7911 26.6949 53.5509 25.9422 54.4804 25.9422ZM64.9922 25.9422C65.9253 25.9422 66.6814 26.6949 66.6814 27.6156C66.6814 28.54 65.9253 29.2891 64.9922 29.2891C64.0627 29.2891 63.3029 28.54 63.3029 27.6156C63.3029 26.6949 64.0627 25.9422 64.9922 25.9422ZM43.9687 25.9422C44.9018 25.9422 45.6579 26.6949 45.6579 27.6156C45.6579 28.54 44.9018 29.2891 43.9687 29.2891C43.0392 29.2891 42.2794 28.54 42.2794 27.6156C42.2794 26.6949 43.0392 25.9422 43.9687 25.9422ZM33.4569 25.9422C34.39 25.9422 35.1462 26.6949 35.1462 27.6156C35.1462 28.54 34.39 29.2891 33.4569 29.2891C32.5274 29.2891 31.7676 28.54 31.7676 27.6156C31.7676 26.6949 32.5274 25.9422 33.4569 25.9422ZM22.9451 25.9422C23.8783 25.9422 24.6344 26.6949 24.6344 27.6156C24.6344 28.54 23.8783 29.2891 22.9451 29.2891C22.0157 29.2891 21.2559 28.54 21.2559 27.6156C21.2559 26.6949 22.0157 25.9422 22.9451 25.9422ZM49.2245 19C50.1577 19 50.9138 19.7527 50.9138 20.6734C50.9138 21.5978 50.1577 22.3469 49.2245 22.3469C48.2951 22.3469 47.5353 21.5978 47.5353 20.6734C47.5353 19.7527 48.2951 19 49.2245 19ZM59.7363 19C60.6694 19 61.4255 19.7527 61.4255 20.6734C61.4255 21.5978 60.6694 22.3469 59.7363 22.3469C58.8068 22.3469 58.047 21.5978 58.047 20.6734C58.047 19.7527 58.8068 19 59.7363 19ZM38.7128 19C39.6459 19 40.402 19.7527 40.402 20.6734C40.402 21.5978 39.6459 22.3469 38.7128 22.3469C37.7833 22.3469 37.0235 21.5978 37.0235 20.6734C37.0235 19.7527 37.7833 19 38.7128 19ZM28.201 19C29.1342 19 29.8903 19.7527 29.8903 20.6734C29.8903 21.5978 29.1342 22.3469 28.201 22.3469C27.2716 22.3469 26.5118 21.5978 26.5118 20.6734C26.5118 19.7527 27.2716 19 28.201 19Z" fill="#DBDBDB"/>
<path d="M72 48.4422C72 47.5214 71.2439 46.7688 70.3107 46.7688C69.3813 46.7688 68.6215 47.5214 68.6215 48.4422C68.6215 49.3666 69.3813 50.1156 70.3107 50.1156C71.2439 50.1156 72 49.3666 72 48.4422Z" fill="#DBDBDB"/>
<path d="M33 71.9378L34.5 69.5836C35.5 68 36.5 68 38 68H50C51.5 68 52.5 68 53.5 69.5836L55 71.9378" stroke="#DBDBDB" stroke-width="1.5"/>
</svg>
