<svg width="88" height="88" viewBox="0 0 88 88" fill="none" xmlns="http://www.w3.org/2000/svg">
<path fill-rule="evenodd" clip-rule="evenodd" d="M16 7.25H15.25V8V80V80.75H16H59.556C59.5656 80.2657 59.646 79.7792 59.8009 79.3066L59.8195 79.25H16.75V8.75H71.25V57.0879C71.4786 57.2728 71.6929 57.4802 71.8895 57.7092L71.9994 57.8367L72.1094 57.7092C72.3063 57.4798 72.5209 57.2721 72.75 57.087V8V7.25H72H16ZM24 48.75H64V47.25H24V48.75ZM24 56.75H51.5385V55.25H24V56.75ZM24 64.75H48.3077V63.25H24V64.75Z" fill="#DBDBDB"/>
<path d="M44.0869 38.1763C44.0624 38.1854 44.0392 38.1938 44.0173 38.2017C43.994 38.1924 43.9692 38.1823 43.9428 38.1716C43.7354 38.0868 43.4359 37.9584 43.0751 37.7865C42.3516 37.4418 41.392 36.927 40.4373 36.2453C38.4932 34.8572 36.75 32.9112 36.75 30.4344V22.6427L44.0029 20.7745L51.25 22.6426V30.4344C51.25 33.0902 49.4971 35.0352 47.5743 36.3679C46.6246 37.0261 45.6699 37.508 44.9498 37.8256C44.5909 37.9839 44.293 38.1002 44.0869 38.1763Z" fill="#DBDBDB" stroke="#DBDBDB" stroke-width="1.5"/>
<path d="M76 72C76 74.2091 74.2091 76 72 76C69.7909 76 68 74.2091 68 72C68 69.7909 69.7909 68 72 68C74.2091 68 76 69.7909 76 72Z" stroke="#DBDBDB" stroke-width="1.5"/>
<path d="M60 69.7828V74.2172C60 74.6613 60.3037 75.0436 60.7256 75.1307L63.4179 75.6394C63.7088 75.6944 63.9604 75.8754 64.105 76.1338L64.5832 76.9887C64.7281 77.2477 64.7505 77.5577 64.6443 77.8348L63.6025 80.5527C63.4646 80.9733 63.6336 81.4359 64.0062 81.6579L67.7271 83.8752C68.0997 84.0972 68.5724 84.0169 68.8564 83.6834L70.7659 81.4703C70.9558 81.2502 71.2322 81.1236 71.523 81.1236L72.477 81.1236C72.7678 81.1236 73.0442 81.2502 73.2341 81.4703L75.1436 83.6834C75.4276 84.0169 75.9003 84.0972 76.2729 83.8752L79.9938 81.6579C80.3664 81.4359 80.5354 80.9733 80.3975 80.5527L79.3557 77.8348C79.2495 77.5577 79.2719 77.2477 79.4168 76.9887L79.895 76.1338C80.0396 75.8754 80.2912 75.6944 80.5821 75.6394L83.2744 75.1307C83.6963 75.0436 84 74.6613 84 74.2172V69.7828C84 69.3387 83.6963 68.9564 83.2744 68.8693L80.5821 68.3606C80.2912 68.3056 80.0396 68.1246 79.895 67.8662L79.4168 67.0113C79.2719 66.7523 79.2495 66.4423 79.3557 66.1652L80.3975 63.4473C80.5354 63.0267 80.3664 62.5641 79.9938 62.3421L76.2729 60.1248C75.9003 59.9028 75.4276 59.9831 75.1436 60.3166L73.2341 62.5297C73.0442 62.7498 72.7678 62.8764 72.477 62.8764H71.523C71.2322 62.8764 70.9558 62.7498 70.7659 62.5297L68.8564 60.3166C68.5724 59.9831 68.0997 59.9028 67.7271 60.1248L64.0062 62.3421C63.6336 62.5641 63.4646 63.0267 63.6025 63.4473L64.6443 66.1652C64.7505 66.4423 64.7281 66.7523 64.5832 67.0113L64.105 67.8662C63.9604 68.1246 63.7088 68.3056 63.4179 68.3606L60.7256 68.8693C60.3037 68.9564 60 69.3387 60 69.7828Z" stroke="#DBDBDB" stroke-width="1.5"/>
</svg>
