<svg width="136" height="136" viewBox="0 0 136 136" fill="none" xmlns="http://www.w3.org/2000/svg">
<path d="M0 68C0 30.4446 30.4446 0 68 0C105.555 0 136 30.4446 136 68C136 105.555 105.555 136 68 136C30.4446 136 0 105.555 0 68Z" fill="#404040"/>
<path d="M90 98V44C90 42 91.5 40 94 40H100C102.5 40 104 41.5 104 44V98C104 100.5 102.5 102 100 102H94C91.5 102 90 100.5 90 98Z" stroke="#DBDBDB" stroke-width="1.5"/>
<path d="M76 98C76 100.5 77.5 102 80 102H86C88.5 102 90 100.5 90 98V44C90 41.5 88.5 40 86 40H80C78.9153 40 78.0188 40.3765 77.3514 40.9662" stroke="#DBDBDB" stroke-width="1.5"/>
<path fill-rule="evenodd" clip-rule="evenodd" d="M37.7256 34.7864C41.627 32.749 47.0454 31.25 53.1951 31.25C59.3455 31.25 64.6217 32.7494 68.3818 34.7922C70.2604 35.8128 71.7814 36.9805 72.8426 38.1854C73.8932 39.3782 74.553 40.6783 74.553 41.95V88.5276C74.553 94.8989 71.8097 99.0609 67.7057 101.587C63.655 104.08 58.3417 104.944 53.1934 104.933H53.1936L53.1951 104.183L53.1934 104.933C48.3407 104.923 42.8896 104.204 38.6266 101.799C34.3039 99.3604 31.25 95.2079 31.25 88.5276V41.95C31.25 40.662 31.9626 39.3569 33.0657 38.1704C34.1828 36.9689 35.7764 35.8044 37.7256 34.7864ZM34.1642 39.1918C33.1786 40.2519 32.75 41.2063 32.75 41.95V88.5276C32.75 94.6419 35.4904 98.3075 39.3637 100.493C43.2966 102.712 48.443 103.423 53.1966 103.433H53.1967C58.218 103.444 63.2087 102.593 66.9195 100.309C70.5772 98.0581 73.053 94.3813 73.053 88.5276V41.95C73.053 41.19 72.6451 40.2305 71.717 39.1768C70.7995 38.1351 69.4309 37.0692 67.6658 36.1103C64.1384 34.1939 59.1106 32.75 53.1951 32.75C47.2787 32.75 42.0996 34.1944 38.42 36.116C36.5786 37.0777 35.1359 38.1467 34.1642 39.1918ZM43.0647 41.4893H63.4833L63.7792 42.1501L53.2501 45.6656L42.721 42.2331L43.0647 41.4893ZM37.8013 58.662C37.8013 57.457 38.7678 56.4878 39.9673 56.4878H65.8681C67.0704 56.4878 68.0424 57.4598 68.0424 58.662V77.8333C68.0424 79.0329 67.0698 80.0075 65.8681 80.0075H39.9673C38.7684 80.0075 37.8013 79.0356 37.8013 77.8333V58.662ZM39.9673 54.9878C37.9339 54.9878 36.3013 56.6341 36.3013 58.662V77.8333C36.3013 79.8575 37.9334 81.5075 39.9673 81.5075H65.8681C67.8993 81.5075 69.5424 79.8602 69.5424 77.8333V58.662C69.5424 56.6314 67.8988 54.9878 65.8681 54.9878H39.9673Z" fill="#DBDBDB"/>
<path d="M135.166 116C135.166 126.586 126.585 135.167 116 135.167C105.414 135.167 96.833 126.586 96.833 116C96.833 105.415 105.414 96.8335 116 96.8335C126.585 96.8335 135.166 105.415 135.166 116Z" fill="#DBDBDB"/>
<path fill-rule="evenodd" clip-rule="evenodd" d="M117.5 107.573C117.5 106.745 116.829 106.073 116 106.073C115.172 106.073 114.5 106.745 114.5 107.573L114.5 107.76C114.5 108.588 115.172 109.26 116 109.26C116.829 109.26 117.5 108.588 117.5 107.76L117.5 107.573ZM116 112.947H112.667V114.947L115 114.947V126H117V113.947V112.947H116Z" fill="black"/>
</svg>
