<svg width="40" height="40" viewBox="0 0 40 40" fill="none" xmlns="http://www.w3.org/2000/svg">
<circle cx="20" cy="20" r="19.25" stroke="#5AE4AF" stroke-width="1.5"/>
<path fill-rule="evenodd" clip-rule="evenodd" d="M13.75 10.5C11.9551 10.5 10.5 11.9551 10.5 13.75C10.5 15.5449 11.9551 17 13.75 17C15.5449 17 17 15.5449 17 13.75C17 11.9551 15.5449 10.5 13.75 10.5ZM9 13.75C9 11.1266 11.1266 9 13.75 9C16.3734 9 18.5 11.1266 18.5 13.75C18.5 16.3734 16.3734 18.5 13.75 18.5C11.1266 18.5 9 16.3734 9 13.75ZM13.75 23C11.9551 23 10.5 24.4551 10.5 26.25C10.5 28.0449 11.9551 29.5 13.75 29.5C15.5449 29.5 17 28.0449 17 26.25C17 24.4551 15.5449 23 13.75 23ZM9 26.25C9 23.6266 11.1266 21.5 13.75 21.5C16.3734 21.5 18.5 23.6266 18.5 26.25C18.5 28.8734 16.3734 31 13.75 31C11.1266 31 9 28.8734 9 26.25ZM21.5 13.75C21.5 11.1266 23.6266 9 26.25 9C28.8734 9 31 11.1266 31 13.75C31 16.3734 28.8734 18.5 26.25 18.5C23.6266 18.5 21.5 16.3734 21.5 13.75ZM23 26.25C23 24.4551 24.4551 23 26.25 23C28.0449 23 29.5 24.4551 29.5 26.25C29.5 28.0449 28.0449 29.5 26.25 29.5C24.4551 29.5 23 28.0449 23 26.25ZM26.25 21.5C23.6266 21.5 21.5 23.6266 21.5 26.25C21.5 28.8734 23.6266 31 26.25 31C28.8734 31 31 28.8734 31 26.25C31 23.6266 28.8734 21.5 26.25 21.5Z" fill="#5AE4AF"/>
</svg>
