<svg width="40" height="40" viewBox="0 0 40 40" fill="none" xmlns="http://www.w3.org/2000/svg">
<circle cx="20" cy="20" r="19.25" stroke="#5AE4AF" stroke-width="1.5"/>
<g clip-path="url(#clip0_2992_37332)">
<path fill-rule="evenodd" clip-rule="evenodd" d="M12.2088 11.0005H12.6102H20.0007H27.3912H27.7926L28.0152 11.3345L31.7105 16.8773L32.0182 17.339L31.6669 17.7683L20.5803 31.3176L19.9998 32.027L19.4194 31.3176L8.33442 17.7683L7.98315 17.3389L8.29087 16.8773L11.9861 11.3345L12.2088 11.0005ZM13.0115 12.5005L9.84666 17.2478L10.2511 17.7421C10.3573 17.6928 10.4813 17.6366 10.6219 17.5752C11.1422 17.3477 11.8924 17.0465 12.8232 16.7459C14.4762 16.212 16.7128 15.6753 19.2508 15.5633V12.5005H13.0115ZM19.2508 17.0649C16.9088 17.1758 14.8327 17.6732 13.2842 18.1733C12.4145 18.4542 11.7156 18.7345 11.2346 18.9444L13.3304 21.5061C13.4112 21.4822 13.5053 21.4548 13.6117 21.4248C13.9983 21.3158 14.5485 21.171 15.2084 21.0264C16.3168 20.7834 17.7523 20.5369 19.2508 20.4656V17.0649ZM19.2508 21.9674C17.8924 22.0375 16.5734 22.2628 15.5295 22.4916C15.0819 22.5897 14.688 22.6878 14.3671 22.7732L16.3917 25.2479C16.4469 25.2403 16.5128 25.2314 16.588 25.2214C16.8281 25.1896 17.1634 25.1471 17.5446 25.1047C18.0591 25.0474 18.6713 24.9884 19.2508 24.9567V21.9674ZM19.2508 26.4591C18.7416 26.4892 18.1945 26.5416 17.7106 26.5955C17.643 26.603 17.5769 26.6105 17.5126 26.618L19.2508 28.7426V26.4591ZM30.1546 17.2478L21.9507 27.2741L27.4762 13.2301L30.1546 17.2478ZM20.7508 12.5005H26.1514L20.7508 26.2269V12.5005Z" fill="#5AE4AF"/>
</g>
<defs>
<clipPath id="clip0_2992_37332">
<rect width="24" height="24" fill="white" transform="translate(8 9)"/>
</clipPath>
</defs>
</svg>
