<svg width="40" height="40" viewBox="0 0 40 40" fill="none" xmlns="http://www.w3.org/2000/svg">
<circle cx="20" cy="20" r="19.25" stroke="#5AE4AF" stroke-width="1.5"/>
<path fill-rule="evenodd" clip-rule="evenodd" d="M20.7501 7.75V7H19.2501V7.75V9.75V10.5H20.7501V9.75V7.75ZM20.0001 12.5C16.8245 12.5 14.2501 15.0744 14.2501 18.25V24.4956H14.0001C12.8955 24.4956 12.0001 25.391 12.0001 26.4956V28.4999V29.9999H13.5001H26.5001H28.0001V28.4999V26.4956C28.0001 25.391 27.1047 24.4956 26.0001 24.4956H25.7501V18.25C25.7501 15.0744 23.1758 12.5 20.0001 12.5ZM24.2501 24.4956V18.25C24.2501 15.9028 22.3473 14 20.0001 14C17.6529 14 15.7501 15.9028 15.7501 18.25V24.4956H24.2501ZM28.6213 10.6494L28.091 11.1797L27.091 12.1797L26.5607 12.7101L25.5 11.6494L26.0303 11.1191L27.0303 10.1191L27.5607 9.58875L28.6213 10.6494ZM13.0304 10.3691L12.5001 9.83875L11.4395 10.8994L11.9698 11.4297L12.9698 12.4297L13.5001 12.9601L14.5608 11.8994L14.0304 11.3691L13.0304 10.3691ZM20.4289 17.084C19.4193 17.084 18.6008 17.9025 18.6008 18.9121V19.6621H17.1008V18.9121C17.1008 17.074 18.5908 15.584 20.4289 15.584H21.1789V17.084H20.4289ZM13.5001 26.4956C13.5001 26.2195 13.724 25.9956 14.0001 25.9956H26.0001C26.2763 25.9956 26.5001 26.2195 26.5001 26.4956V28.4999H13.5001V26.4956Z" fill="#5AE4AF"/>
</svg>
