<svg width="40" height="40" viewBox="0 0 40 40" fill="none" xmlns="http://www.w3.org/2000/svg">
<circle cx="20" cy="20" r="19.25" stroke="#5E5E5E" stroke-width="1.5"/>
<g clip-path="url(#clip0)">
<path d="M10.75 14.6681C14.4183 14.1539 17.7444 12.2152 20.0002 9.26354C22.2558 12.2152 25.5818 14.1539 29.25 14.6682V15.8087C29.25 21.8679 26.0709 27.4829 20.8753 30.6004L20.0003 31.1254L19.1252 30.6003C13.9292 27.4828 10.75 21.8678 10.75 15.8084V14.6681Z" stroke="#5E5E5E" stroke-width="1.5"/>
<path d="M20 15L21.1226 18.4549H24.7553L21.8164 20.5902L22.9389 24.0451L20 21.9098L17.0611 24.0451L18.1836 20.5902L15.2447 18.4549H18.8774L20 15Z" fill="#5E5E5E"/>
</g>
<defs>
<clipPath id="clip0">
<rect width="24" height="24" fill="white" transform="translate(8 8)"/>
</clipPath>
</defs>
</svg>
