<svg width="88" height="88" viewBox="0 0 88 88" fill="none" xmlns="http://www.w3.org/2000/svg">
<path fill-rule="evenodd" clip-rule="evenodd" d="M37.0002 35V33H51.0002V35H37.0002Z" fill="#DBDBDB"/>
<path fill-rule="evenodd" clip-rule="evenodd" d="M44.0002 3.25C36.8669 3.25 31.3676 3.33805 27.1553 3.92686C22.9418 4.51585 19.8904 5.62059 17.7556 7.75538C15.6208 9.89018 14.5161 12.9416 13.9271 17.1551C13.3383 21.3674 13.2502 26.8667 13.2502 34C13.2502 36.9616 13.2654 39.6415 13.3253 42.0646C13.815 42.0391 14.3155 42.0217 14.8245 42.0115C14.7658 39.6208 14.7502 36.9612 14.7502 34C14.7502 26.8476 14.8408 21.454 15.4127 17.3628C15.9844 13.2727 17.0225 10.6098 18.8163 8.81604C20.61 7.02227 23.2729 5.98415 27.363 5.41242C31.4542 4.84052 36.8478 4.75 44.0002 4.75C51.1527 4.75 56.5462 4.84052 60.6375 5.41242C64.7276 5.98415 67.3904 7.02227 69.1842 8.81604C70.978 10.6098 72.0161 13.2727 72.5878 17.3628C73.1597 21.454 73.2502 26.8476 73.2502 34C73.2502 39.7488 73.1918 44.3613 72.8719 48.0746C73.4831 48.1891 73.9627 48.4352 74.3106 48.8129C74.6872 44.9058 74.7502 40.0384 74.7502 34C74.7502 26.8667 74.6622 21.3674 74.0734 17.1551C73.4844 12.9416 72.3797 9.89018 70.2449 7.75538C68.1101 5.62059 65.0586 4.51585 60.8452 3.92686C56.6329 3.33805 51.1336 3.25 44.0002 3.25ZM66.0002 62.8629V61.2512C64.5551 61.8547 62.7949 62.286 60.6375 62.5876C58.2164 62.926 55.3392 63.0959 51.9113 63.1782C51.9608 63.6814 51.9889 64.1831 51.9974 64.6766C55.4399 64.5928 58.3655 64.4198 60.8452 64.0731C62.8073 63.7989 64.5173 63.4128 66.0002 62.8629ZM36.003 64.6766C36.0115 64.1831 36.0398 63.6814 36.0896 63.1782C32.9575 63.103 30.2851 62.9547 28.0002 62.6715V64.1826C30.2929 64.4572 32.9439 64.6022 36.003 64.6766Z" fill="#DBDBDB"/>
<path d="M28.0002 48C28.0002 44 22.5457 42 16.0002 42C9.45479 42 4.00024 43.9321 4.00024 48V69C4.00024 81 6.45479 84.0001 16.0002 84C25.5457 83.9999 28.0002 81 28.0002 69V48Z" stroke="#DBDBDB" stroke-width="1.5"/>
<path d="M75.0002 51C75.0002 49 74.0002 48 72.0002 48H69.0002C67.0002 48 66.0002 49 66.0002 51V81C66.0002 83 67.0002 84 69.0002 84H72.0002C74.0002 84 75.0002 83 75.0002 81M75.0002 51V81M75.0002 51C75.0002 49 76.0002 48 78.0002 48H81.0002C83.0002 48 84.0002 49 84.0002 51V81C84.0002 83 83.0002 84 81.0002 84H78.0002C76.0002 84 75.0002 83 75.0002 81" stroke="#DBDBDB" stroke-width="1.5"/>
<path d="M39.0003 64H44.0003M44.0003 64V72M44.0003 64L44.0078 57M44.0003 64H49.0003M52.0003 65C52.0003 70 51.0153 80 44.0078 80C37.0003 80 36.0008 70 36.0003 65C35.9998 60 38.0153 54 44.0078 54C50.0003 54 52.0003 60 52.0003 65Z" stroke="#DBDBDB" stroke-width="1.5"/>
</svg>
