<svg width="88" height="88" viewBox="0 0 88 88" fill="none" xmlns="http://www.w3.org/2000/svg">
<path fill-rule="evenodd" clip-rule="evenodd" d="M44 80C63.8823 80 80 63.8823 80 44C80 24.1178 63.8823 8 44 8C24.1178 8 8 24.1178 8 44C8 63.8823 24.1178 80 44 80Z" stroke="#DBDBDB" stroke-width="1.5"/>
<path fill-rule="evenodd" clip-rule="evenodd" d="M37.8071 36.3478C37.8071 34.8808 38.4892 33.7152 39.6078 32.8722C40.7553 32.0075 42.3507 31.5039 43.9997 31.5039C45.7271 31.5039 47.2792 31.9134 48.367 32.7689C49.3944 33.577 50.1922 34.9258 50.1922 37.2541C50.1922 38.1762 49.8533 38.9486 49.1964 39.7942C48.6864 40.4508 48.0749 41.0488 47.3498 41.7579C47.0617 42.0396 46.7558 42.3388 46.4312 42.6661C44.2138 44.9022 41.8003 47.86 41.8003 53.0815H44.8003C44.8003 49.0108 46.5828 46.7737 48.5614 44.7785C48.8002 44.5377 49.0535 44.2901 49.3125 44.037L49.3127 44.0367C50.0905 43.2765 50.9198 42.4659 51.5656 41.6346C52.4822 40.4547 53.1922 39.0508 53.1922 37.2541C53.1922 34.1448 52.0749 31.8685 50.2216 30.4109C48.4287 29.0007 46.1344 28.5039 43.9997 28.5039C41.7863 28.5039 39.5355 29.1702 37.8023 30.4764C36.0402 31.8043 34.8071 33.8107 34.8071 36.3478H37.8071ZM45.3753 58.6165C45.3753 57.5119 44.4799 56.6165 43.3753 56.6165C42.2707 56.6166 41.3753 57.512 41.3753 58.6166L41.3753 58.748C41.3753 59.8526 42.2708 60.748 43.3754 60.748C44.4799 60.748 45.3753 59.8525 45.3753 58.748L45.3753 58.6165Z" fill="#DBDBDB"/>
</svg>
