<svg width="452" height="200" viewBox="0 0 452 200" fill="none" xmlns="http://www.w3.org/2000/svg">
<path fill-rule="evenodd" clip-rule="evenodd" d="M189.312 43H219.121L233 53.4248V145.922L220.747 157H190.064H154.253L142 145.922V53.4248L155.879 43H189.312Z" stroke="#787878" stroke-width="1.6" stroke-dasharray="4 4"/>
<path fill-rule="evenodd" clip-rule="evenodd" d="M260.688 38H293.5L308.777 49.339V149.948L295.29 161.998H261.516H222.097L208.609 149.948V49.339L223.886 38H260.688Z" fill="#262626" stroke="#DBDBDB" stroke-width="1.6"/>
<path d="M208.61 49.3413L239.164 144.792L222.098 162" stroke="#DBDBDB" stroke-width="1.6"/>
<path d="M308.605 49.3413L278.052 144.792L295.118 162" stroke="#DBDBDB" stroke-width="1.6"/>
<path fill-rule="evenodd" clip-rule="evenodd" d="M243.844 139.678V134.718H273.603V139.678H243.844Z" fill="#DBDBDB"/>
<path d="M239.164 144.787H278.049" stroke="#DBDBDB" stroke-width="1.6"/>
<path d="M251.281 38L255.239 45.4399H262.193L266.161 38" stroke="#DBDBDB" stroke-width="1.6"/>
<path d="M251.281 161.997L255.239 154.558H262.193L266.161 161.997" stroke="#DBDBDB" stroke-width="1.6"/>
<path d="M225.722 94L238.722 100.25L225.722 106.5L225.722 101.099H183V99.4H225.722L225.722 94Z" fill="#5AE4AF"/>
</svg>
