<svg width="24" height="24" viewBox="0 0 24 24" fill="none" xmlns="http://www.w3.org/2000/svg">
<path d="M10.5596 6.52343L6.57283 10.5102M13.1004 17.1358L17.1362 13.1M11.8566 5.27458L11.8404 5.29132L18.4288 11.8661L18.4382 11.8561M11.8566 5.27458L18.4382 11.8561M11.8566 5.27458L14.653 2.47873C15.6742 1.45696 17.3306 1.45696 18.3519 2.47873L21.2346 5.3609C22.2558 6.38214 22.2558 8.03852 21.2346 9.06029L18.4382 11.8561M11.8566 5.27458L9.55936 2.97731L9.06077 2.47873C8.03901 1.45696 6.38263 1.45696 5.36139 2.47873L4.97686 2.86326L2.47921 5.3609C1.45745 6.38214 1.45745 8.03852 2.47921 9.06029L14.653 21.2341C15.6742 22.2553 17.3306 22.2553 18.3519 21.2341L21.2346 18.3514C22.2558 17.3301 22.2558 15.6738 21.2346 14.6525L18.4382 11.8561M5.24996 11.8818L11.842 18.4529L9.06077 21.2341C8.03901 22.2553 6.38263 22.2553 5.36139 21.2341L2.47921 18.3514C1.45745 17.3301 1.45745 15.6738 2.47921 14.6525L5.24996 11.8818Z" stroke="#303030" stroke-width="1.5"/>
</svg>
