<svg width="24" height="24" viewBox="0 0 24 24" fill="none" xmlns="http://www.w3.org/2000/svg">
<path d="M7.24023 2.75037C6.68795 2.75037 6.24023 3.19808 6.24023 3.75037L6.24024 22.046C6.24024 22.5982 6.68795 23.046 7.24024 23.046L16.76 23.046C17.3123 23.046 17.76 22.5982 17.76 22.046V3.75037C17.76 3.19808 17.3123 2.75037 16.76 2.75037L7.24023 2.75037Z" stroke="#303030" stroke-width="1.5"/>
<path d="M10.5 1.31134e-07C9.94772 1.55275e-07 9.5 0.447716 9.5 1L9.5 2L14.5 2V1C14.5 0.447715 14.0523 -2.41411e-08 13.5 0L10.5 1.31134e-07Z" fill="#303030"/>
</svg>
