<svg width="24" height="24" viewBox="0 0 24 24" fill="none" xmlns="http://www.w3.org/2000/svg">
<g clip-path="url(#clip0)">
<path fill-rule="evenodd" clip-rule="evenodd" d="M15 1H6.75C3.57436 1 1 3.57436 1 6.75V17.25C1 20.4256 3.57436 23 6.75 23H17.25C20.4256 23 23 20.4256 23 17.25V9H21.5V17.25C21.5 19.5972 19.5972 21.5 17.25 21.5H6.75C4.40279 21.5 2.5 19.5972 2.5 17.25V6.75C2.5 4.40279 4.40279 2.5 6.75 2.5H15V1Z" fill="#303030"/>
<path d="M10 12H18.0833H19M19 12L15.3333 8.5M19 12L15.3333 15.5" stroke="#303030" stroke-width="1.5"/>
<circle cx="20.3918" cy="3.60861" r="3.60861" fill="#303030"/>
<path fill-rule="evenodd" clip-rule="evenodd" d="M13.0754 6.41532C12.429 6.17494 11.7295 6.04358 10.9994 6.04358C7.70976 6.04358 5.04297 8.71037 5.04297 12C5.04297 15.2897 7.70976 17.9565 10.9994 17.9565C11.7295 17.9565 12.429 17.8251 13.0754 17.5847V15.9444C12.4554 16.2714 11.749 16.4565 10.9994 16.4565C8.53818 16.4565 6.54297 14.4612 6.54297 12C6.54297 9.53879 8.53818 7.54358 10.9994 7.54358C11.749 7.54358 12.4554 7.72866 13.0754 8.05562V6.41532Z" fill="#303030"/>
</g>
<defs>
<clipPath id="clip0">
<rect width="24" height="24" fill="white"/>
</clipPath>
</defs>
</svg>
