<svg width="24" height="24" viewBox="0 0 24 24" fill="none" xmlns="http://www.w3.org/2000/svg">
<g clip-path="url(#clip0)">
<path d="M3 6.5L13 16.5L8 21.5V2.5L13 7L3 17" stroke="#303030" stroke-width="1.5"/>
<path d="M16.5 16.5C17.0909 15.9091 17.5597 15.2075 17.8795 14.4354C18.1994 13.6633 18.364 12.8357 18.364 12C18.364 11.1643 18.1994 10.3367 17.8795 9.56462C17.5597 8.79251 17.0909 8.09095 16.5 7.5" stroke="#303030" stroke-width="1.5"/>
<path d="M19.7773 19.778C20.7988 18.7566 21.609 17.544 22.1618 16.2094C22.7146 14.8748 22.9992 13.4444 22.9992 11.9999C22.9992 10.5553 22.7146 9.12492 22.1618 7.79034C21.609 6.45576 20.7988 5.24312 19.7773 4.22168" stroke="#303030" stroke-width="1.5"/>
</g>
<defs>
<clipPath id="clip0">
<rect width="24" height="24" fill="white"/>
</clipPath>
</defs>
</svg>
