<svg width="24" height="24" viewBox="0 0 24 24" fill="none" xmlns="http://www.w3.org/2000/svg">
<path fill-rule="evenodd" clip-rule="evenodd" d="M11.2494 13.5764V24H12.7494V13.5764H11.2494ZM8.06403 13.5764L8.06403 21H6.56403L6.56403 13.5764H8.06403ZM11.2494 10.424H12.7494V0H11.2494V10.424ZM15.9994 13.5764V21H17.4994V13.5764H15.9994ZM17.4994 10.424H15.9994V3H17.4994V10.424ZM20.4955 13.5764V18H21.9955V13.5764H20.4955ZM21.9955 10.424H20.4955V6H21.9955V10.424ZM8.06403 10.424H6.56403L6.56403 3H8.06403L8.06403 10.424ZM3.5 10.424L3.5 6H2V10.424H3.5ZM2 13.5764V18H3.5L3.5 13.5764H2Z" fill="#303030"/>
</svg>
