<svg width="24" height="24" viewBox="0 0 24 24" fill="none" xmlns="http://www.w3.org/2000/svg">
<path d="M22 7V7C18.1849 6.65319 14.7022 4.68503 12.437 1.59561L12.0373 1.05042C12.019 1.02544 11.9817 1.02543 11.9633 1.05041L11.5622 1.59726C9.29672 4.68572 5.81454 6.65318 2 7V7V19" stroke="#303030" stroke-width="1.5"/>
<path fill-rule="evenodd" clip-rule="evenodd" d="M15.8125 9.25H12.1789L11.0971 10.7849L8.0125 10.7849C6.93554 10.7849 6.0625 11.6803 6.0625 12.7849L6.0625 17.7369C6.0625 18.8414 6.93554 19.7369 8.0125 19.7369H11.0971L12.1789 21.25H15.8125L15.8125 9.25Z" stroke="#303030" stroke-width="1.5"/>
<path d="M16 12.25H22" stroke="#303030" stroke-width="1.5"/>
<path d="M16 18.25H22" stroke="#303030" stroke-width="1.5"/>
</svg>
