<svg width="24" height="24" viewBox="0 0 24 24" fill="none" xmlns="http://www.w3.org/2000/svg">
<path fill-rule="evenodd" clip-rule="evenodd" d="M12 1.75C6.33908 1.75 1.75 6.33908 1.75 12C1.75 17.6609 6.33908 22.25 12 22.25C17.6609 22.25 22.25 17.6609 22.25 12C22.25 6.33908 17.6609 1.75 12 1.75ZM0.25 12C0.25 5.51065 5.51065 0.25 12 0.25C18.4893 0.25 23.75 5.51065 23.75 12C23.75 18.4893 18.4893 23.75 12 23.75C5.51065 23.75 0.25 18.4893 0.25 12Z" fill="#303030"/>
<path d="M12 12H19.25H20M20 12L17 9M20 12L17 15" stroke="#303030" stroke-width="1.5"/>
<path fill-rule="evenodd" clip-rule="evenodd" d="M15.0266 6.86909C14.1395 6.34459 13.1046 6.04358 11.9994 6.04358C8.70976 6.04358 6.04297 8.71037 6.04297 12C6.04297 15.2897 8.70976 17.9565 11.9994 17.9565C13.1046 17.9565 14.1395 17.6554 15.0266 17.1309V15.2705C14.2318 16.0066 13.1681 16.4565 11.9994 16.4565C9.53818 16.4565 7.54297 14.4612 7.54297 12C7.54297 9.53879 9.53818 7.54358 11.9994 7.54358C13.1681 7.54358 14.2318 7.99348 15.0266 8.72953V6.86909Z" fill="#303030"/>
</svg>
