<svg width="88" height="88" viewBox="0 0 88 88" fill="none" xmlns="http://www.w3.org/2000/svg">
<path fill-rule="evenodd" clip-rule="evenodd" d="M44.0002 80C63.8825 80 80.0002 63.8823 80.0002 44C80.0002 24.1178 63.8825 8 44.0002 8C24.118 8 8.00024 24.1178 8.00024 44C8.00024 63.8823 24.118 80 44.0002 80Z" stroke="#FF725C" stroke-width="1.5"/>
<path fill-rule="evenodd" clip-rule="evenodd" d="M39.4169 35.6667C39.4169 33.1354 41.4689 31.0833 44.0002 31.0833C46.5315 31.0833 48.5836 33.1354 48.5836 35.6667C48.5836 38.198 46.5315 40.25 44.0002 40.25C41.4689 40.25 39.4169 38.198 39.4169 35.6667ZM44.0002 29.5833C40.6405 29.5833 37.9169 32.3069 37.9169 35.6667C37.9169 39.0264 40.6405 41.75 44.0002 41.75C47.36 41.75 50.0836 39.0264 50.0836 35.6667C50.0836 32.3069 47.36 29.5833 44.0002 29.5833ZM47.6755 46.6974L48.3271 45.3363C46.9761 44.849 45.5192 44.5833 44.0002 44.5833C36.9586 44.5833 31.2502 50.2917 31.2502 57.3333H32.7502C32.7502 51.1201 37.787 46.0833 44.0002 46.0833C45.2872 46.0833 46.5238 46.2994 47.6755 46.6974ZM48.1452 52.1353C48.1452 51.3534 48.9034 50.7195 49.8388 50.7195H50.5836V48.3524C50.5836 46.4655 52.1133 44.9358 54.0002 44.9358C55.8872 44.9358 57.4169 46.4655 57.4169 48.3524V50.7195H58.3067C59.242 50.7195 60.0002 51.3534 60.0002 52.1353V57.249C60.0002 58.031 59.242 58.6649 58.3067 58.6649H49.8388C48.9034 58.6649 48.1452 58.031 48.1452 57.249V52.1353ZM55.9169 50.7195V48.3524C55.9169 47.2939 55.0588 46.4358 54.0002 46.4358C52.9417 46.4358 52.0836 47.2939 52.0836 48.3524V50.7195H55.9169Z" fill="#FF725C"/>
</svg>
