<svg width="24" height="24" viewBox="0 0 24 24" fill="none" xmlns="http://www.w3.org/2000/svg">
<path fill-rule="evenodd" clip-rule="evenodd" d="M4.25 8.36031C4.25 3.91702 7.68477 0.25 12 0.25C16.3152 0.25 19.75 3.91702 19.75 8.36031C19.75 11.7439 17.8639 14.824 16.0795 16.9959C15.1771 18.0943 14.2764 18.9897 13.6016 19.6106C13.2637 19.9215 12.9811 20.1647 12.7815 20.3314C12.6817 20.4148 12.6026 20.479 12.5476 20.5231C12.5201 20.5452 12.4986 20.5622 12.4835 20.574L12.4658 20.5878L12.4607 20.5918L12.4591 20.5931L12.4585 20.5935C12.4583 20.5937 12.4581 20.5938 12 20C11.5419 20.5938 11.5417 20.5937 11.5415 20.5935L11.5409 20.5931L11.5393 20.5918L11.5342 20.5878L11.5165 20.574C11.5014 20.5622 11.4799 20.5452 11.4524 20.5231C11.3974 20.479 11.3183 20.4148 11.2185 20.3314C11.0189 20.1647 10.7363 19.9215 10.3984 19.6106C9.72357 18.9897 8.82293 18.0943 7.9205 16.9959C6.13611 14.824 4.25 11.7439 4.25 8.36031ZM12 20L12.4581 20.5938L12 20.9473L11.5419 20.5938L12 20ZM12 19.0278C12.1617 18.8891 12.3603 18.7144 12.5859 18.5067C13.2236 17.9201 14.0729 17.0753 14.9205 16.0437C16.6361 13.9555 18.25 11.2157 18.25 8.36031C18.25 4.67362 15.4168 1.75 12 1.75C8.58325 1.75 5.75 4.67362 5.75 8.36031C5.75 11.2157 7.36389 13.9555 9.0795 16.0437C9.92707 17.0753 10.7764 17.9201 11.4141 18.5067C11.6397 18.7144 11.8383 18.8891 12 19.0278ZM8.25 8C8.25 5.92893 9.92893 4.25 12 4.25C14.0711 4.25 15.75 5.92893 15.75 8C15.75 10.0711 14.0711 11.75 12 11.75C9.92893 11.75 8.25 10.0711 8.25 8ZM12 5.75C10.7574 5.75 9.75 6.75736 9.75 8C9.75 9.24264 10.7574 10.25 12 10.25C13.2426 10.25 14.25 9.24264 14.25 8C14.25 6.75736 13.2426 5.75 12 5.75ZM2.25 19.9999C2.25 19.9785 2.25613 19.9007 2.38193 19.7587C2.51191 19.612 2.73679 19.4368 3.08398 19.2509C3.77758 18.8795 4.82238 18.537 6.14659 18.2731L5.85341 16.8021C4.4574 17.0803 3.25219 17.4593 2.37585 17.9286C1.93806 18.163 1.54799 18.438 1.25926 18.7639C0.966337 19.0945 0.75 19.5116 0.75 19.9999C0.75 20.7947 1.30776 21.3854 1.90532 21.7891C2.52906 22.2104 3.38233 22.5603 4.36934 22.8423C6.35357 23.4093 9.05117 23.7499 12 23.7499C14.9488 23.7499 17.6464 23.4093 19.6307 22.8423C20.6177 22.5603 21.4709 22.2104 22.0947 21.7891C22.6922 21.3854 23.25 20.7947 23.25 19.9999C23.25 19.5116 23.0337 19.0945 22.7407 18.7639C22.452 18.438 22.0619 18.163 21.6242 17.9286C20.7478 17.4593 19.5426 17.0803 18.1466 16.8021L17.8534 18.2731C19.1776 18.537 20.2224 18.8795 20.916 19.2509C21.2632 19.4368 21.4881 19.612 21.6181 19.7587C21.7439 19.9007 21.75 19.9785 21.75 19.9999C21.75 20.0335 21.7201 20.2319 21.255 20.5461C20.8161 20.8426 20.1317 21.1392 19.2186 21.4001C17.4026 21.9189 14.8502 22.2499 12 22.2499C9.14984 22.2499 6.59744 21.9189 4.78142 21.4001C3.86831 21.1392 3.18388 20.8426 2.74496 20.5461C2.27986 20.2319 2.25 20.0335 2.25 19.9999Z" fill="#5AE4AF"/>
</svg>
