<svg width="24" height="24" viewBox="0 0 24 24" fill="none" xmlns="http://www.w3.org/2000/svg">
<path fill-rule="evenodd" clip-rule="evenodd" d="M7.73858 2C6.97032 2 6.29189 2.50107 6.06596 3.23536L5.4446 5.25484L3.72633 5.26963C2.21684 5.28262 1 6.50998 1 8.01952V19.5001C1 20.4614 1.77314 21.2501 2.74476 21.2501H21.2541C22.2245 21.2501 23 20.4626 23 19.5001V8.01953C23 6.50998 21.7832 5.28262 20.2737 5.26963L18.5554 5.25484L17.934 3.23536C17.7081 2.50107 17.0297 2 16.2614 2H7.73858ZM7.49964 3.67648C7.53191 3.57158 7.62883 3.5 7.73858 3.5H16.2614C16.3712 3.5 16.4681 3.57158 16.5004 3.67648L17.2832 6.22064L17.4446 6.74533L17.9935 6.75005L20.2608 6.76957C20.9469 6.77548 21.5 7.33337 21.5 8.01953V19.5001C21.5 19.6421 21.3882 19.7501 21.2541 19.7501H2.74476C2.61182 19.7501 2.5 19.6433 2.5 19.5001V8.01952C2.5 7.33337 3.05311 6.77548 3.73924 6.76957L6.00646 6.75005L6.5554 6.74533L6.71684 6.22064L7.49964 3.67648ZM8.75 13C8.75 11.2051 10.2051 9.75 12 9.75C13.7949 9.75 15.25 11.2051 15.25 13C15.25 14.7949 13.7949 16.25 12 16.25C10.2051 16.25 8.75 14.7949 8.75 13ZM12 8.25C9.37665 8.25 7.25 10.3766 7.25 13C7.25 15.6234 9.37665 17.75 12 17.75C14.6234 17.75 16.75 15.6234 16.75 13C16.75 10.3766 14.6234 8.25 12 8.25Z" fill="#303030"/>
</svg>
