<svg width="24" height="24" viewBox="0 0 24 24" fill="none" xmlns="http://www.w3.org/2000/svg">
<path d="M23 12C23 18.0751 18.0751 23 12 23C5.92487 23 1 18.0751 1 12C1 5.92487 5.92487 1 12 1C18.0751 1 23 5.92487 23 12Z" stroke="#303030" stroke-width="1.5"/>
<path d="M8.83187 13.0714H7.57618V16H6V8H8.84238C9.74606 8 10.4431 8.21062 10.9335 8.63187C11.4238 9.05311 11.669 9.64835 11.669 10.4176C11.669 10.9634 11.5552 11.4194 11.3275 11.7857C11.1033 12.1484 10.7618 12.4377 10.303 12.6538L11.958 15.9231V16H10.2662L8.83187 13.0714ZM7.57618 11.7363H8.84764C9.24343 11.7363 9.54991 11.6319 9.76708 11.4231C9.98424 11.2106 10.0928 10.9194 10.0928 10.5495C10.0928 10.1722 9.98949 9.87546 9.78284 9.65934C9.57968 9.44322 9.2662 9.33516 8.84238 9.33516H7.57618V11.7363Z" fill="#303030"/>
<path d="M17.4746 12.533H14.4483V14.6758H18V16H12.8722V8H17.9895V9.33516H14.4483V11.2418H17.4746V12.533Z" fill="#303030"/>
</svg>
