<svg width="88" height="88" viewBox="0 0 88 88" fill="none" xmlns="http://www.w3.org/2000/svg">
<path fill-rule="evenodd" clip-rule="evenodd" d="M72.5 50H15.5C11.9101 50 9 52.9101 9 56.5V72.5C9 76.0899 11.9101 79 15.5 79H72.5C76.0899 79 79 76.0899 79 72.5V56.5C79 52.9101 76.0899 50 72.5 50ZM15.5 48.5C11.0817 48.5 7.5 52.0817 7.5 56.5V72.5C7.5 76.9183 11.0817 80.5 15.5 80.5H72.5C76.9183 80.5 80.5 76.9183 80.5 72.5V56.5C80.5 52.0817 76.9183 48.5 72.5 48.5H15.5Z" fill="#DBDBDB"/>
<path fill-rule="evenodd" clip-rule="evenodd" d="M20.5 48.5V10C20.5 9.17157 19.8284 8.5 19 8.5C18.1716 8.5 17.5 9.17157 17.5 10V48.5H20.5ZM19 7C17.3431 7 16 8.34314 16 10V50H22V10C22 8.34315 20.6569 7 19 7Z" fill="#DBDBDB"/>
<path fill-rule="evenodd" clip-rule="evenodd" d="M37.1667 48.5V10C37.1667 9.17157 36.4951 8.5 35.6667 8.5C34.8382 8.5 34.1667 9.17157 34.1667 10V48.5H37.1667ZM35.6667 7C34.0098 7 32.6667 8.34314 32.6667 10V50H38.6667V10C38.6667 8.34315 37.3235 7 35.6667 7Z" fill="#DBDBDB"/>
<path fill-rule="evenodd" clip-rule="evenodd" d="M53.8333 48.5V10C53.8333 9.17157 53.1618 8.5 52.3333 8.5C51.5049 8.5 50.8333 9.17157 50.8333 10V48.5H53.8333ZM52.3333 7C50.6765 7 49.3333 8.34314 49.3333 10V50H55.3333V10C55.3333 8.34315 53.9902 7 52.3333 7Z" fill="#DBDBDB"/>
<path fill-rule="evenodd" clip-rule="evenodd" d="M70.5 48.5V10C70.5 9.17157 69.8284 8.5 69 8.5C68.1716 8.5 67.5 9.17157 67.5 10V48.5H70.5ZM69 7C67.3432 7 66 8.34314 66 10V50H72V10C72 8.34315 70.6569 7 69 7Z" fill="#DBDBDB"/>
</svg>
