<svg width="24" height="24" viewBox="0 0 24 24" fill="none" xmlns="http://www.w3.org/2000/svg">
<path fill-rule="evenodd" clip-rule="evenodd" d="M11.25 0.25H12C18.4893 0.25 23.75 5.51065 23.75 12C23.75 18.4893 18.4893 23.75 12 23.75C5.51065 23.75 0.25 18.4893 0.25 12C0.25 8.07143 2.17874 4.59332 5.13765 2.46114L5.74613 2.02267L6.62306 3.23963L6.01458 3.6781C3.43008 5.54048 1.75 8.57402 1.75 12C1.75 17.6609 6.33908 22.25 12 22.25C17.6609 22.25 22.25 17.6609 22.25 12C22.25 6.59112 18.0605 2.16075 12.7494 1.77698V4.00008V4.75008H11.2494V4.00008V1.16614V0.416141H11.25V0.25ZM9.58081 8.67633L9.09492 8.10501L7.95228 9.07679L8.43817 9.64811L11.9189 13.7409L12.4048 14.3122L13.5474 13.3404L13.0615 12.7691L9.58081 8.67633Z" fill="#303030"/>
</svg>
