<svg width="24" height="24" viewBox="0 0 24 24" fill="none" xmlns="http://www.w3.org/2000/svg">
<g clip-path="url(#clip0)">
<path d="M22 7V7C18.1849 6.65319 14.7022 4.68503 12.437 1.59561L12.0373 1.05042C12.019 1.02544 11.9817 1.02543 11.9633 1.05041L11.5622 1.59726C9.29672 4.68572 5.81454 6.65318 2 7V7V19" stroke="#303030" stroke-width="1.5"/>
<path d="M11.9286 5.75L12.6765 5.80565L11.2841 5.36639L11.9286 5.75ZM5.5 16.55L4.85553 16.1664L4.18076 17.3H5.5V16.55ZM14.0714 16.55H14.8214V15.8H14.0714V16.55ZM14.0714 23.75H13.3214V26.4763L14.7159 24.1336L14.0714 23.75ZM20.5 12.95L21.1445 13.3336L21.8192 12.2H20.5V12.95ZM11.3929 12.95L10.6449 12.8944L10.585 13.7H11.3929V12.95ZM11.2841 5.36639L4.85553 16.1664L6.14447 16.9336L12.573 6.13361L11.2841 5.36639ZM5.5 17.3H14.0714V15.8H5.5V17.3ZM13.3214 16.55V23.75H14.8214V16.55H13.3214ZM14.7159 24.1336L21.1445 13.3336L19.8555 12.5664L13.427 23.3664L14.7159 24.1336ZM20.5 12.2H11.3929V13.7H20.5V12.2ZM12.1408 13.0056L12.6765 5.80565L11.1806 5.69435L10.6449 12.8944L12.1408 13.0056Z" fill="#303030"/>
</g>
<defs>
<clipPath id="clip0">
<rect width="24" height="24" fill="white"/>
</clipPath>
</defs>
</svg>
