<svg width="24" height="24" viewBox="0 0 24 24" fill="none" xmlns="http://www.w3.org/2000/svg">
<path fill-rule="evenodd" clip-rule="evenodd" d="M12 1.75C6.33908 1.75 1.75 6.33908 1.75 12C1.75 17.6609 6.33908 22.25 12 22.25C17.6609 22.25 22.25 17.6609 22.25 12C22.25 6.33908 17.6609 1.75 12 1.75ZM0.25 12C0.25 5.51065 5.51065 0.25 12 0.25C18.4893 0.25 23.75 5.51065 23.75 12C23.75 18.4893 18.4893 23.75 12 23.75C5.51065 23.75 0.25 18.4893 0.25 12ZM10 11.5186V10.0186H12H12.75L12.75 10.7686V17.9999H11.25V11.5186H10ZM13 6.94407C13 6.39178 12.5523 5.94407 12 5.94407C11.4477 5.94406 11 6.39178 11 6.94406V7.05612C11 7.60841 11.4477 8.05612 12 8.05612C12.5523 8.05613 13 7.60841 13 7.05613V6.94407Z" fill="#DBDBDB"/>
</svg>
