<svg width="24" height="24" viewBox="0 0 24 24" fill="none" xmlns="http://www.w3.org/2000/svg">
<path fill-rule="evenodd" clip-rule="evenodd" d="M7.4392 0L10.337 0.776456L9.56052 3.67423L8.69334 3.44187C8.05232 5.31614 6.84289 7.69795 3.8181 8.748L3.32617 7.33096C5.68692 6.51142 6.65248 4.71971 7.23487 3.05108L6.66274 2.89778L7.4392 0ZM12.7995 0.197754L15.6972 0.974211L14.9208 3.87199L14.1512 3.66579C11.9184 9.25647 8.47032 12.7119 3.73992 13.7977L3.40435 12.3357C7.46565 11.4035 10.5832 8.45888 12.6919 3.27477L12.023 3.09553L12.7995 0.197754ZM21.5549 1.12382L18.7733 0L17.6495 2.78155L18.3624 3.06959C14.9651 10.632 9.95698 15.2892 3.36559 17.1774L3.77868 18.6194C10.899 16.5796 16.2149 11.538 19.7541 3.63186L20.431 3.90537L21.5549 1.12382ZM18.451 9.95117L21.0491 11.4512L19.5491 14.0493L18.8896 13.6685C15.9097 18.3438 11.3095 21.3594 5.16333 22.732L4.83641 21.268C10.6198 19.9765 14.8463 17.1876 17.5891 12.9177L16.951 12.5492L18.451 9.95117Z" fill="#303030"/>
</svg>
