<svg width="376" height="166" viewBox="0 0 376 166" fill="none" xmlns="http://www.w3.org/2000/svg">
<rect width="375" height="166" transform="translate(0.5)" fill="#333333"/>
<path d="M159.5 54H131.5C130.395 54 129.5 54.8954 129.5 56V92M215.5 54H244.5C245.605 54 246.5 54.8954 246.5 56V138C246.5 139.104 245.605 140 244.5 140H205.5M129.5 110V138C129.5 139.104 130.395 140 131.5 140H168.5" stroke="#DBDBDB" stroke-width="1.5"/>
<path fill-rule="evenodd" clip-rule="evenodd" d="M188.615 16H207.5L215.5 22V78L207.5 85H189.078H167.5L159.5 78V22L167.5 16H188.615Z" stroke="#DBDBDB" stroke-width="1.5"/>
<path d="M159.5 22L176.5 75L167.5 85" stroke="#DBDBDB" stroke-width="1.5"/>
<path d="M215.5 22L198.5 75L207.5 85" stroke="#DBDBDB" stroke-width="1.5"/>
<path fill-rule="evenodd" clip-rule="evenodd" d="M179.5 72V69H195.5V72H179.5Z" fill="#DBDBDB"/>
<path d="M176.5 75H198.5" stroke="#DBDBDB" stroke-width="1.5"/>
<path d="M183.5 16L185.628 20H189.367L191.5 16" stroke="#DBDBDB" stroke-width="1.5"/>
<path d="M183.5 85L185.628 81H189.367L191.5 85" stroke="#DBDBDB" stroke-width="1.5"/>
<path d="M226.215 48.0801V49H220.438V48.0801H226.215ZM226.027 41.2891L220.707 49H220.01V48.1562L225.324 40.4688H226.027V41.2891ZM225.547 40.4688V41.3945H220.086V40.4688H225.547Z" fill="#DBDBDB"/>
<path d="M134.641 45.2871H135.766C135.707 45.8262 135.553 46.3086 135.303 46.7344C135.053 47.1602 134.699 47.498 134.242 47.748C133.785 47.9941 133.215 48.1172 132.531 48.1172C132.031 48.1172 131.576 48.0234 131.166 47.8359C130.76 47.6484 130.41 47.3828 130.117 47.0391C129.824 46.6914 129.598 46.2754 129.438 45.791C129.281 45.3027 129.203 44.7598 129.203 44.1621V43.3125C129.203 42.7148 129.281 42.1738 129.438 41.6895C129.598 41.2012 129.826 40.7832 130.123 40.4355C130.424 40.0879 130.785 39.8203 131.207 39.6328C131.629 39.4453 132.104 39.3516 132.631 39.3516C133.275 39.3516 133.82 39.4727 134.266 39.7148C134.711 39.957 135.057 40.293 135.303 40.7227C135.553 41.1484 135.707 41.6426 135.766 42.2051H134.641C134.586 41.8066 134.484 41.4648 134.336 41.1797C134.188 40.8906 133.977 40.668 133.703 40.5117C133.43 40.3555 133.072 40.2773 132.631 40.2773C132.252 40.2773 131.918 40.3496 131.629 40.4941C131.344 40.6387 131.104 40.8438 130.908 41.1094C130.717 41.375 130.572 41.6934 130.475 42.0645C130.377 42.4355 130.328 42.8477 130.328 43.3008V44.1621C130.328 44.5801 130.371 44.9727 130.457 45.3398C130.547 45.707 130.682 46.0293 130.861 46.3066C131.041 46.584 131.27 46.8027 131.547 46.9629C131.824 47.1191 132.152 47.1973 132.531 47.1973C133.012 47.1973 133.395 47.1211 133.68 46.9688C133.965 46.8164 134.18 46.5977 134.324 46.3125C134.473 46.0273 134.578 45.6855 134.641 45.2871ZM143.875 43.4648V44.0039C143.875 44.6445 143.795 45.2188 143.635 45.7266C143.475 46.2344 143.244 46.666 142.943 47.0215C142.643 47.377 142.281 47.6484 141.859 47.8359C141.441 48.0234 140.973 48.1172 140.453 48.1172C139.949 48.1172 139.486 48.0234 139.064 47.8359C138.646 47.6484 138.283 47.377 137.975 47.0215C137.67 46.666 137.434 46.2344 137.266 45.7266C137.098 45.2188 137.014 44.6445 137.014 44.0039V43.4648C137.014 42.8242 137.096 42.252 137.26 41.748C137.428 41.2402 137.664 40.8086 137.969 40.4531C138.273 40.0938 138.635 39.8203 139.053 39.6328C139.475 39.4453 139.938 39.3516 140.441 39.3516C140.961 39.3516 141.43 39.4453 141.848 39.6328C142.27 39.8203 142.631 40.0938 142.932 40.4531C143.236 40.8086 143.469 41.2402 143.629 41.748C143.793 42.252 143.875 42.8242 143.875 43.4648ZM142.756 44.0039V43.4531C142.756 42.9453 142.703 42.4961 142.598 42.1055C142.496 41.7148 142.346 41.3867 142.146 41.1211C141.947 40.8555 141.703 40.6543 141.414 40.5176C141.129 40.3809 140.805 40.3125 140.441 40.3125C140.09 40.3125 139.771 40.3809 139.486 40.5176C139.205 40.6543 138.963 40.8555 138.76 41.1211C138.561 41.3867 138.406 41.7148 138.297 42.1055C138.188 42.4961 138.133 42.9453 138.133 43.4531V44.0039C138.133 44.5156 138.188 44.9688 138.297 45.3633C138.406 45.7539 138.562 46.084 138.766 46.3535C138.973 46.6191 139.217 46.8203 139.498 46.957C139.783 47.0938 140.102 47.1621 140.453 47.1621C140.82 47.1621 141.146 47.0938 141.432 46.957C141.717 46.8203 141.957 46.6191 142.152 46.3535C142.352 46.084 142.502 45.7539 142.604 45.3633C142.705 44.9688 142.756 44.5156 142.756 44.0039ZM145.926 39.4688H147.021L149.816 46.4238L152.605 39.4688H153.707L150.238 48H149.383L145.926 39.4688ZM145.568 39.4688H146.535L146.693 44.6719V48H145.568V39.4688ZM153.092 39.4688H154.059V48H152.934V44.6719L153.092 39.4688Z" fill="#DBDBDB"/>
<path d="M141.037 103.844C141.037 103.645 141.006 103.469 140.943 103.316C140.885 103.16 140.779 103.02 140.627 102.895C140.479 102.77 140.271 102.65 140.006 102.537C139.744 102.424 139.412 102.309 139.01 102.191C138.588 102.066 138.207 101.928 137.867 101.775C137.527 101.619 137.236 101.441 136.994 101.242C136.752 101.043 136.566 100.814 136.438 100.557C136.309 100.299 136.244 100.004 136.244 99.6719C136.244 99.3398 136.312 99.0332 136.449 98.752C136.586 98.4707 136.781 98.2266 137.035 98.0195C137.293 97.8086 137.6 97.6445 137.955 97.5273C138.311 97.4102 138.707 97.3516 139.145 97.3516C139.785 97.3516 140.328 97.4746 140.773 97.7207C141.223 97.9629 141.564 98.2812 141.799 98.6758C142.033 99.0664 142.15 99.4844 142.15 99.9297H141.025C141.025 99.6094 140.957 99.3262 140.82 99.0801C140.684 98.8301 140.477 98.6348 140.199 98.4941C139.922 98.3496 139.57 98.2773 139.145 98.2773C138.742 98.2773 138.41 98.3379 138.148 98.459C137.887 98.5801 137.691 98.7441 137.562 98.9512C137.438 99.1582 137.375 99.3945 137.375 99.6602C137.375 99.8398 137.412 100.004 137.486 100.152C137.564 100.297 137.684 100.432 137.844 100.557C138.008 100.682 138.215 100.797 138.465 100.902C138.719 101.008 139.021 101.109 139.373 101.207C139.857 101.344 140.275 101.496 140.627 101.664C140.979 101.832 141.268 102.021 141.494 102.232C141.725 102.439 141.895 102.676 142.004 102.941C142.117 103.203 142.174 103.5 142.174 103.832C142.174 104.18 142.104 104.494 141.963 104.775C141.822 105.057 141.621 105.297 141.359 105.496C141.098 105.695 140.783 105.85 140.416 105.959C140.053 106.064 139.646 106.117 139.197 106.117C138.803 106.117 138.414 106.062 138.031 105.953C137.652 105.844 137.307 105.68 136.994 105.461C136.686 105.242 136.438 104.973 136.25 104.652C136.066 104.328 135.975 103.953 135.975 103.527H137.1C137.1 103.82 137.156 104.072 137.27 104.283C137.383 104.49 137.537 104.662 137.732 104.799C137.932 104.936 138.156 105.037 138.406 105.104C138.66 105.166 138.924 105.197 139.197 105.197C139.592 105.197 139.926 105.143 140.199 105.033C140.473 104.924 140.68 104.768 140.82 104.564C140.965 104.361 141.037 104.121 141.037 103.844ZM146.896 97.4219V106H145.812V98.7754L143.627 99.5723V98.5938L146.727 97.4219H146.896Z" fill="#DBDBDB"/>
<path d="M129.5 92V109" stroke="#DBDBDB" stroke-width="1.5"/>
<circle cx="129.5" cy="109" r="2" fill="#DBDBDB"/>
<circle cx="129.5" cy="92" r="2" fill="#DBDBDB"/>
<path d="M181.408 136.18H183.997C184.584 136.18 185.08 136.269 185.484 136.448C185.893 136.627 186.202 136.892 186.414 137.243C186.628 137.59 186.736 138.018 186.736 138.527C186.736 138.885 186.662 139.213 186.516 139.51C186.372 139.803 186.165 140.054 185.893 140.262C185.624 140.466 185.302 140.618 184.926 140.718L184.636 140.831H182.203L182.192 139.988H184.029C184.401 139.988 184.711 139.923 184.958 139.794C185.205 139.662 185.391 139.485 185.517 139.263C185.642 139.041 185.705 138.795 185.705 138.527C185.705 138.226 185.646 137.963 185.527 137.737C185.409 137.512 185.223 137.338 184.969 137.216C184.718 137.091 184.394 137.028 183.997 137.028H182.444V144H181.408V136.18ZM185.979 144L184.077 140.455L185.157 140.45L187.085 143.936V144H185.979ZM191.194 136.137V144H190.2V137.377L188.197 138.108V137.211L191.038 136.137H191.194Z" fill="#DBDBDB"/>
<path d="M170.5 130.75H203.5V129.25H170.5V130.75ZM204.75 132V148H206.25V132H204.75ZM203.5 149.25H170.5V150.75H203.5V149.25ZM169.25 148V132H167.75V148H169.25ZM170.5 149.25C169.81 149.25 169.25 148.69 169.25 148H167.75C167.75 149.519 168.981 150.75 170.5 150.75V149.25ZM204.75 148C204.75 148.69 204.19 149.25 203.5 149.25V150.75C205.019 150.75 206.25 149.519 206.25 148H204.75ZM203.5 130.75C204.19 130.75 204.75 131.31 204.75 132H206.25C206.25 130.481 205.019 129.25 203.5 129.25V130.75ZM170.5 129.25C168.981 129.25 167.75 130.481 167.75 132H169.25C169.25 131.31 169.81 130.75 170.5 130.75V129.25Z" fill="#DBDBDB"/>
</svg>
