<svg width="376" height="167" viewBox="0 0 376 167" fill="none" xmlns="http://www.w3.org/2000/svg">
<path d="M159.5 54.168H115.5C114.395 54.168 113.5 55.0634 113.5 56.168V92.168M215.5 54.168H260.5C261.605 54.168 262.5 55.0634 262.5 56.168V138.168C262.5 139.272 261.605 140.168 260.5 140.168H238.5M113.5 110.168V138.168C113.5 139.272 114.395 140.168 115.5 140.168H137.5M174.5 140.168H201.5" stroke="#DBDBDB" stroke-width="1.5"/>
<path fill-rule="evenodd" clip-rule="evenodd" d="M188.615 16.168H207.5L215.5 22.168V78.168L207.5 85.168H189.078H167.5L159.5 78.168V22.168L167.5 16.168H188.615Z" stroke="#DBDBDB" stroke-width="1.5"/>
<path d="M159.5 22.168L176.5 75.168L167.5 85.168" stroke="#DBDBDB" stroke-width="1.5"/>
<path d="M215.5 22.168L198.5 75.168L207.5 85.168" stroke="#DBDBDB" stroke-width="1.5"/>
<path fill-rule="evenodd" clip-rule="evenodd" d="M179.5 72.168V69.168H195.5V72.168H179.5Z" fill="#DBDBDB"/>
<path d="M176.5 75.168H198.5" stroke="#DBDBDB" stroke-width="1.5"/>
<path d="M183.5 16.168L185.628 20.168H189.367L191.5 16.168" stroke="#DBDBDB" stroke-width="1.5"/>
<path d="M183.5 85.168L185.628 81.168H189.367L191.5 85.168" stroke="#DBDBDB" stroke-width="1.5"/>
<path d="M226.617 48.248V49.168H220.84V48.248H226.617ZM226.43 41.457L221.109 49.168H220.412V48.3242L225.727 40.6367H226.43V41.457ZM225.949 40.6367V41.5625H220.488V40.6367H225.949Z" fill="#DBDBDB"/>
<path d="M134.863 45.4551H135.988C135.93 45.9941 135.775 46.4766 135.525 46.9023C135.275 47.3281 134.922 47.666 134.465 47.916C134.008 48.1621 133.438 48.2852 132.754 48.2852C132.254 48.2852 131.799 48.1914 131.389 48.0039C130.982 47.8164 130.633 47.5508 130.34 47.207C130.047 46.8594 129.82 46.4434 129.66 45.959C129.504 45.4707 129.426 44.9277 129.426 44.3301V43.4805C129.426 42.8828 129.504 42.3418 129.66 41.8574C129.82 41.3691 130.049 40.9512 130.346 40.6035C130.646 40.2559 131.008 39.9883 131.43 39.8008C131.852 39.6133 132.326 39.5195 132.854 39.5195C133.498 39.5195 134.043 39.6406 134.488 39.8828C134.934 40.125 135.279 40.4609 135.525 40.8906C135.775 41.3164 135.93 41.8105 135.988 42.373H134.863C134.809 41.9746 134.707 41.6328 134.559 41.3477C134.41 41.0586 134.199 40.8359 133.926 40.6797C133.652 40.5234 133.295 40.4453 132.854 40.4453C132.475 40.4453 132.141 40.5176 131.852 40.6621C131.566 40.8066 131.326 41.0117 131.131 41.2773C130.939 41.543 130.795 41.8613 130.697 42.2324C130.6 42.6035 130.551 43.0156 130.551 43.4688V44.3301C130.551 44.748 130.594 45.1406 130.68 45.5078C130.77 45.875 130.904 46.1973 131.084 46.4746C131.264 46.752 131.492 46.9707 131.77 47.1309C132.047 47.2871 132.375 47.3652 132.754 47.3652C133.234 47.3652 133.617 47.2891 133.902 47.1367C134.188 46.9844 134.402 46.7656 134.547 46.4805C134.695 46.1953 134.801 45.8535 134.863 45.4551ZM144.098 43.6328V44.1719C144.098 44.8125 144.018 45.3867 143.857 45.8945C143.697 46.4023 143.467 46.834 143.166 47.1895C142.865 47.5449 142.504 47.8164 142.082 48.0039C141.664 48.1914 141.195 48.2852 140.676 48.2852C140.172 48.2852 139.709 48.1914 139.287 48.0039C138.869 47.8164 138.506 47.5449 138.197 47.1895C137.893 46.834 137.656 46.4023 137.488 45.8945C137.32 45.3867 137.236 44.8125 137.236 44.1719V43.6328C137.236 42.9922 137.318 42.4199 137.482 41.916C137.65 41.4082 137.887 40.9766 138.191 40.6211C138.496 40.2617 138.857 39.9883 139.275 39.8008C139.697 39.6133 140.16 39.5195 140.664 39.5195C141.184 39.5195 141.652 39.6133 142.07 39.8008C142.492 39.9883 142.854 40.2617 143.154 40.6211C143.459 40.9766 143.691 41.4082 143.852 41.916C144.016 42.4199 144.098 42.9922 144.098 43.6328ZM142.979 44.1719V43.6211C142.979 43.1133 142.926 42.6641 142.82 42.2734C142.719 41.8828 142.568 41.5547 142.369 41.2891C142.17 41.0234 141.926 40.8223 141.637 40.6855C141.352 40.5488 141.027 40.4805 140.664 40.4805C140.312 40.4805 139.994 40.5488 139.709 40.6855C139.428 40.8223 139.186 41.0234 138.982 41.2891C138.783 41.5547 138.629 41.8828 138.52 42.2734C138.41 42.6641 138.355 43.1133 138.355 43.6211V44.1719C138.355 44.6836 138.41 45.1367 138.52 45.5312C138.629 45.9219 138.785 46.252 138.988 46.5215C139.195 46.7871 139.439 46.9883 139.721 47.125C140.006 47.2617 140.324 47.3301 140.676 47.3301C141.043 47.3301 141.369 47.2617 141.654 47.125C141.939 46.9883 142.18 46.7871 142.375 46.5215C142.574 46.252 142.725 45.9219 142.826 45.5312C142.928 45.1367 142.979 44.6836 142.979 44.1719ZM146.148 39.6367H147.244L150.039 46.5918L152.828 39.6367H153.93L150.461 48.168H149.605L146.148 39.6367ZM145.791 39.6367H146.758L146.916 44.8398V48.168H145.791V39.6367ZM153.314 39.6367H154.281V48.168H153.156V44.8398L153.314 39.6367Z" fill="#DBDBDB"/>
<path d="M125.1 104.012C125.1 103.812 125.068 103.637 125.006 103.484C124.947 103.328 124.842 103.188 124.689 103.062C124.541 102.938 124.334 102.818 124.068 102.705C123.807 102.592 123.475 102.477 123.072 102.359C122.65 102.234 122.27 102.096 121.93 101.943C121.59 101.787 121.299 101.609 121.057 101.41C120.814 101.211 120.629 100.982 120.5 100.725C120.371 100.467 120.307 100.172 120.307 99.8398C120.307 99.5078 120.375 99.2012 120.512 98.9199C120.648 98.6387 120.844 98.3945 121.098 98.1875C121.355 97.9766 121.662 97.8125 122.018 97.6953C122.373 97.5781 122.77 97.5195 123.207 97.5195C123.848 97.5195 124.391 97.6426 124.836 97.8887C125.285 98.1309 125.627 98.4492 125.861 98.8438C126.096 99.2344 126.213 99.6523 126.213 100.098H125.088C125.088 99.7773 125.02 99.4941 124.883 99.248C124.746 98.998 124.539 98.8027 124.262 98.6621C123.984 98.5176 123.633 98.4453 123.207 98.4453C122.805 98.4453 122.473 98.5059 122.211 98.627C121.949 98.748 121.754 98.9121 121.625 99.1191C121.5 99.3262 121.438 99.5625 121.438 99.8281C121.438 100.008 121.475 100.172 121.549 100.32C121.627 100.465 121.746 100.6 121.906 100.725C122.07 100.85 122.277 100.965 122.527 101.07C122.781 101.176 123.084 101.277 123.436 101.375C123.92 101.512 124.338 101.664 124.689 101.832C125.041 102 125.33 102.189 125.557 102.4C125.787 102.607 125.957 102.844 126.066 103.109C126.18 103.371 126.236 103.668 126.236 104C126.236 104.348 126.166 104.662 126.025 104.943C125.885 105.225 125.684 105.465 125.422 105.664C125.16 105.863 124.846 106.018 124.479 106.127C124.115 106.232 123.709 106.285 123.26 106.285C122.865 106.285 122.477 106.23 122.094 106.121C121.715 106.012 121.369 105.848 121.057 105.629C120.748 105.41 120.5 105.141 120.312 104.82C120.129 104.496 120.037 104.121 120.037 103.695H121.162C121.162 103.988 121.219 104.24 121.332 104.451C121.445 104.658 121.6 104.83 121.795 104.967C121.994 105.104 122.219 105.205 122.469 105.271C122.723 105.334 122.986 105.365 123.26 105.365C123.654 105.365 123.988 105.311 124.262 105.201C124.535 105.092 124.742 104.936 124.883 104.732C125.027 104.529 125.1 104.289 125.1 104.012ZM130.959 97.5898V106.168H129.875V98.9434L127.689 99.7402V98.7617L130.789 97.5898H130.959Z" fill="#DBDBDB"/>
<path d="M218.1 104.012C218.1 103.812 218.068 103.637 218.006 103.484C217.947 103.328 217.842 103.188 217.689 103.062C217.541 102.938 217.334 102.818 217.068 102.705C216.807 102.592 216.475 102.477 216.072 102.359C215.65 102.234 215.27 102.096 214.93 101.943C214.59 101.787 214.299 101.609 214.057 101.41C213.814 101.211 213.629 100.982 213.5 100.725C213.371 100.467 213.307 100.172 213.307 99.8398C213.307 99.5078 213.375 99.2012 213.512 98.9199C213.648 98.6387 213.844 98.3945 214.098 98.1875C214.355 97.9766 214.662 97.8125 215.018 97.6953C215.373 97.5781 215.77 97.5195 216.207 97.5195C216.848 97.5195 217.391 97.6426 217.836 97.8887C218.285 98.1309 218.627 98.4492 218.861 98.8438C219.096 99.2344 219.213 99.6523 219.213 100.098H218.088C218.088 99.7773 218.02 99.4941 217.883 99.248C217.746 98.998 217.539 98.8027 217.262 98.6621C216.984 98.5176 216.633 98.4453 216.207 98.4453C215.805 98.4453 215.473 98.5059 215.211 98.627C214.949 98.748 214.754 98.9121 214.625 99.1191C214.5 99.3262 214.438 99.5625 214.438 99.8281C214.438 100.008 214.475 100.172 214.549 100.32C214.627 100.465 214.746 100.6 214.906 100.725C215.07 100.85 215.277 100.965 215.527 101.07C215.781 101.176 216.084 101.277 216.436 101.375C216.92 101.512 217.338 101.664 217.689 101.832C218.041 102 218.33 102.189 218.557 102.4C218.787 102.607 218.957 102.844 219.066 103.109C219.18 103.371 219.236 103.668 219.236 104C219.236 104.348 219.166 104.662 219.025 104.943C218.885 105.225 218.684 105.465 218.422 105.664C218.16 105.863 217.846 106.018 217.479 106.127C217.115 106.232 216.709 106.285 216.26 106.285C215.865 106.285 215.477 106.23 215.094 106.121C214.715 106.012 214.369 105.848 214.057 105.629C213.748 105.41 213.5 105.141 213.312 104.82C213.129 104.496 213.037 104.121 213.037 103.695H214.162C214.162 103.988 214.219 104.24 214.332 104.451C214.445 104.658 214.6 104.83 214.795 104.967C214.994 105.104 215.219 105.205 215.469 105.271C215.723 105.334 215.986 105.365 216.26 105.365C216.654 105.365 216.988 105.311 217.262 105.201C217.535 105.092 217.742 104.936 217.883 104.732C218.027 104.529 218.1 104.289 218.1 104.012ZM225.986 105.277V106.168H220.402V105.389L223.197 102.277C223.541 101.895 223.807 101.57 223.994 101.305C224.186 101.035 224.318 100.795 224.393 100.584C224.471 100.369 224.51 100.15 224.51 99.9277C224.51 99.6465 224.451 99.3926 224.334 99.166C224.221 98.9355 224.053 98.752 223.83 98.6152C223.607 98.4785 223.338 98.4102 223.021 98.4102C222.643 98.4102 222.326 98.4844 222.072 98.6328C221.822 98.7773 221.635 98.9805 221.51 99.2422C221.385 99.5039 221.322 99.8047 221.322 100.145H220.238C220.238 99.6641 220.344 99.2246 220.555 98.8262C220.766 98.4277 221.078 98.1113 221.492 97.877C221.906 97.6387 222.416 97.5195 223.021 97.5195C223.561 97.5195 224.021 97.6152 224.404 97.8066C224.787 97.9941 225.08 98.2598 225.283 98.6035C225.49 98.9434 225.594 99.3418 225.594 99.7988C225.594 100.049 225.551 100.303 225.465 100.561C225.383 100.814 225.268 101.068 225.119 101.322C224.975 101.576 224.805 101.826 224.609 102.072C224.418 102.318 224.213 102.561 223.994 102.799L221.709 105.277H225.986Z" fill="#DBDBDB"/>
<path d="M245.5 140.168V119.168C245.5 118.063 244.605 117.168 243.5 117.168H228.5M194.5 140.168V119.168C194.5 118.063 195.395 117.168 196.5 117.168H210.5" stroke="#DBDBDB" stroke-width="1.5"/>
<path d="M113.5 92.168V109.168" stroke="#DBDBDB" stroke-width="1.5"/>
<circle cx="113.5" cy="109.168" r="2" fill="#DBDBDB"/>
<circle cx="113.5" cy="92.168" r="2" fill="#DBDBDB"/>
<path d="M211.5 117.168L228.5 117.168" stroke="#DBDBDB" stroke-width="1.5"/>
<circle cx="228.5" cy="117.168" r="2" fill="#DBDBDB"/>
<circle cx="211.5" cy="117.168" r="2" fill="#DBDBDB"/>
<rect x="137.5" y="129.168" width="37" height="22" rx="2" fill="#FF725C"/>
<path d="M150.425 136.348H153.014C153.601 136.348 154.097 136.437 154.501 136.616C154.91 136.795 155.219 137.06 155.431 137.411C155.646 137.758 155.753 138.186 155.753 138.695C155.753 139.053 155.68 139.381 155.533 139.678C155.389 139.971 155.182 140.222 154.91 140.43C154.641 140.634 154.319 140.786 153.943 140.886L153.653 140.999H151.22L151.209 140.156H153.046C153.418 140.156 153.728 140.091 153.975 139.962C154.222 139.83 154.408 139.653 154.534 139.431C154.659 139.209 154.722 138.963 154.722 138.695C154.722 138.394 154.663 138.131 154.544 137.905C154.426 137.68 154.24 137.506 153.986 137.384C153.735 137.259 153.411 137.196 153.014 137.196H151.461V144.168H150.425V136.348ZM154.996 144.168L153.094 140.623L154.174 140.618L156.102 144.104V144.168H154.996ZM160.211 136.305V144.168H159.217V137.545L157.214 138.276V137.379L160.055 136.305H160.211Z" fill="black"/>
<rect x="201.25" y="129.918" width="35.5" height="20.5" rx="1.25" stroke="#DBDBDB" stroke-width="1.5"/>
<path d="M213.425 136.348H216.014C216.601 136.348 217.097 136.437 217.501 136.616C217.91 136.795 218.219 137.06 218.431 137.411C218.646 137.758 218.753 138.186 218.753 138.695C218.753 139.053 218.68 139.381 218.533 139.678C218.389 139.971 218.182 140.222 217.91 140.43C217.641 140.634 217.319 140.786 216.943 140.886L216.653 140.999H214.22L214.209 140.156H216.046C216.418 140.156 216.728 140.091 216.975 139.962C217.222 139.83 217.408 139.653 217.534 139.431C217.659 139.209 217.722 138.963 217.722 138.695C217.722 138.394 217.663 138.131 217.544 137.905C217.426 137.68 217.24 137.506 216.986 137.384C216.735 137.259 216.411 137.196 216.014 137.196H214.461V144.168H213.425V136.348ZM217.996 144.168L216.094 140.623L217.174 140.618L219.102 144.104V144.168H217.996ZM225.069 143.352V144.168H219.951V143.454L222.513 140.602C222.828 140.251 223.071 139.953 223.243 139.71C223.419 139.463 223.54 139.243 223.608 139.049C223.68 138.852 223.716 138.652 223.716 138.448C223.716 138.19 223.662 137.957 223.555 137.75C223.451 137.538 223.297 137.37 223.093 137.245C222.889 137.119 222.642 137.057 222.352 137.057C222.004 137.057 221.714 137.125 221.481 137.261C221.252 137.393 221.08 137.579 220.966 137.819C220.851 138.059 220.794 138.335 220.794 138.646H219.8C219.8 138.206 219.897 137.803 220.09 137.438C220.284 137.073 220.57 136.783 220.95 136.568C221.329 136.349 221.797 136.24 222.352 136.24C222.846 136.24 223.268 136.328 223.619 136.503C223.97 136.675 224.239 136.919 224.425 137.234C224.615 137.545 224.709 137.911 224.709 138.33C224.709 138.559 224.67 138.792 224.591 139.028C224.516 139.261 224.41 139.493 224.274 139.726C224.142 139.959 223.986 140.188 223.807 140.414C223.632 140.639 223.444 140.861 223.243 141.08L221.148 143.352H225.069Z" fill="#DBDBDB"/>
</svg>
