<svg width="16" height="16" viewBox="0 0 16 16" fill="none" xmlns="http://www.w3.org/2000/svg">
<path d="M15.3333 8.00008C15.3333 12.0502 12.0501 15.3334 7.99999 15.3334C3.9499 15.3334 0.666656 12.0502 0.666656 8.00008C0.666656 3.94999 3.9499 0.666748 7.99999 0.666748C12.0501 0.666748 15.3333 3.94999 15.3333 8.00008Z" stroke="#303030" stroke-width="1.3"/>
<path d="M7.44054 10.5953H4.09715V9.8894L5.67504 8.09974C5.89168 7.84781 6.05137 7.62796 6.1541 7.4402C6.25907 7.25244 6.31156 7.07419 6.31156 6.90544C6.31156 6.6749 6.25684 6.49427 6.1474 6.36356C6.03797 6.23046 5.88163 6.16391 5.67839 6.16391C5.45952 6.16391 5.28643 6.24472 5.15913 6.40634C5.03406 6.56558 4.97152 6.77591 4.97152 7.03735H4C4 6.72125 4.07035 6.43248 4.21106 6.17104C4.35399 5.9096 4.555 5.70521 4.81407 5.55785C5.07314 5.40812 5.36683 5.33325 5.69514 5.33325C6.19765 5.33325 6.58738 5.46159 6.86432 5.71828C7.1435 5.97496 7.28308 6.33741 7.28308 6.80562C7.28308 7.06231 7.22055 7.32375 7.09548 7.58994C6.97041 7.85613 6.756 8.16629 6.45226 8.52042L5.34338 9.76462H7.44054V10.5953Z" fill="#303030"/>
<path d="M12 9.93931C11.8191 10.1699 11.5634 10.3493 11.2328 10.4776C10.9023 10.6036 10.536 10.6666 10.134 10.6666C9.71189 10.6666 9.34115 10.5691 9.02178 10.3743C8.70463 10.177 8.45896 9.89178 8.28476 9.51864C8.11279 9.14549 8.02457 8.70699 8.0201 8.20313V7.85019C8.0201 7.33206 8.10162 6.88405 8.26466 6.50616C8.42993 6.12588 8.66667 5.83593 8.97487 5.63628C9.28532 5.43426 9.64824 5.33325 10.0637 5.33325C10.6421 5.33325 11.0944 5.48061 11.4204 5.77532C11.7465 6.06765 11.9397 6.49427 12 7.05518H11.0218C10.9771 6.75809 10.8777 6.54062 10.7236 6.40277C10.5717 6.26492 10.3618 6.196 10.0938 6.196C9.75209 6.196 9.4919 6.33266 9.31323 6.60598C9.13456 6.8793 9.04411 7.28572 9.04188 7.82523V8.15678C9.04188 8.70105 9.13903 9.11222 9.33333 9.39029C9.52764 9.66837 9.8124 9.80741 10.1876 9.80741C10.565 9.80741 10.8342 9.72184 10.995 9.55072V8.65589H10.0804V7.86801H12V9.93931Z" fill="#303030"/>
</svg>
