<svg width="16" height="16" viewBox="0 0 16 16" fill="none" xmlns="http://www.w3.org/2000/svg">
<path fill-rule="evenodd" clip-rule="evenodd" d="M14.6078 5.31332C12.0064 5.07684 9.62105 3.7865 8.00014 1.75215C6.5027 3.63135 4.35305 4.87567 1.98333 5.24096V12.666H0.683334V4.66599V4.07241L1.27448 4.01866C3.63191 3.80432 5.78393 2.58841 7.18403 0.679709L7.45145 0.315142L7.45146 0.315133C7.72342 -0.0556085 8.27717 -0.0555623 8.54906 0.315255L8.54906 0.315258L8.81555 0.67872C10.2155 2.588 12.3677 3.80433 14.7255 4.01866L14.6078 5.31332ZM9.27018 5.75788L8.66667 4.24911L8.06316 5.75788L7.09592 8.17596L5.79295 6.873L4.35873 5.43878L4.69218 7.43948L5.19586 10.4616L3.49098 10.0353L2.11993 9.69258L2.75196 10.9566L3.9166 13.2859L2.7925 14.9721L3.87417 15.6932L5.2075 13.6932L5.41674 13.3793L5.24804 13.0419L4.54673 11.6393L5.84235 11.9632L6.80414 12.2036L6.64116 11.2257L6.30794 9.22645L6.87372 9.79223L7.57075 10.4893L7.93684 9.57401L8.66667 7.74946L9.39649 9.57401L9.76259 10.4893L10.4596 9.79223L11.0254 9.22645L10.6922 11.2257L10.5292 12.2036L11.491 11.9632L12.7866 11.6393L12.0853 13.0419L11.9166 13.3793L12.1258 13.6932L13.4592 15.6932L14.5408 14.9721L13.4167 13.2859L14.5814 10.9566L15.2134 9.69258L13.8424 10.0353L12.1375 10.4616L12.6412 7.43948L12.9746 5.43878L11.5404 6.873L10.2374 8.17596L9.27018 5.75788Z" fill="#303030"/>
</svg>
