<svg width="16" height="16" viewBox="0 0 16 16" fill="none" xmlns="http://www.w3.org/2000/svg">
<path d="M4.55976 1.8335C4.16054 1.8335 3.83691 2.12766 3.83691 2.49052L3.83691 14.5112C3.83691 14.8741 4.16054 15.1682 4.55976 15.1682L11.4411 15.1682C11.8403 15.1682 12.1639 14.8741 12.1639 14.5112V2.49052C12.1639 2.12766 11.8403 1.8335 11.4411 1.8335L4.55976 1.8335Z" stroke="#303030" stroke-width="1.3"/>
<path d="M6.99992 8.74227e-08C6.63173 1.03517e-07 6.33325 0.298477 6.33325 0.666667L6.33325 1.33333L9.66658 1.33333V0.666667C9.66658 0.298477 9.36811 -1.60941e-08 8.99992 0L6.99992 8.74227e-08Z" fill="#303030"/>
</svg>
