<svg width="16" height="16" viewBox="0 0 16 16" fill="none" xmlns="http://www.w3.org/2000/svg">
<path fill-rule="evenodd" clip-rule="evenodd" d="M8.00001 0.35C6.34161 0.35 5.02497 0.369761 4.00377 0.512509C2.98155 0.6554 2.14649 0.934273 1.54038 1.54038C0.934275 2.14649 0.655402 2.98155 0.512513 4.00377C0.369765 5.02497 0.350006 6.34161 0.350006 8C0.350006 9.65839 0.369765 10.975 0.512513 11.9962C0.655402 13.0185 0.934275 13.8535 1.54038 14.4596C2.14649 15.0657 2.98155 15.3446 4.00377 15.4875C5.02497 15.6302 6.34161 15.65 8.00001 15.65C9.6584 15.65 10.975 15.6302 11.9962 15.4875C13.0185 15.3446 13.8535 15.0657 14.4596 14.4596C15.0657 13.8535 15.3446 13.0185 15.4875 11.9962C15.6302 10.975 15.65 9.65839 15.65 8C15.65 6.34161 15.6302 5.02497 15.4875 4.00377C15.3446 2.98155 15.0657 2.14649 14.4596 1.54038C13.8535 0.934273 13.0185 0.6554 11.9962 0.512509C10.975 0.369761 9.6584 0.35 8.00001 0.35ZM1.65001 8C1.65001 6.32506 1.67191 5.10003 1.8 4.18373C1.92794 3.26845 2.14906 2.77018 2.45962 2.45962C2.77018 2.14906 3.26845 1.92793 4.18374 1.79999C5.10003 1.67191 6.32506 1.65 8.00001 1.65C9.67495 1.65 10.9 1.67191 11.8163 1.79999C12.7316 1.92793 13.2298 2.14906 13.5404 2.45962C13.8509 2.77018 14.0721 3.26845 14.2 4.18373C14.3281 5.10003 14.35 6.32506 14.35 8C14.35 9.67494 14.3281 10.9 14.2 11.8163C14.0721 12.7316 13.8509 13.2298 13.5404 13.5404C13.2298 13.8509 12.7316 14.0721 11.8163 14.2C10.9 14.3281 9.67495 14.35 8.00001 14.35C6.32506 14.35 5.10003 14.3281 4.18374 14.2C3.26845 14.0721 2.77018 13.8509 2.45962 13.5404C2.14906 13.2298 1.92794 12.7316 1.8 11.8163C1.67191 10.9 1.65001 9.67494 1.65001 8ZM9.79296 5.54042L11.793 7.54042L12.2526 8.00004L11.793 8.45966L9.79296 10.4597L8.87372 9.54042L9.7641 8.65004H4.00001V7.35004H9.7641L8.87372 6.45966L9.79296 5.54042Z" fill="#303030"/>
</svg>
