<svg width="16" height="16" viewBox="0 0 16 16" fill="none" xmlns="http://www.w3.org/2000/svg">
<path fill-rule="evenodd" clip-rule="evenodd" d="M8 1.31672C4.30889 1.31672 1.31666 4.30895 1.31666 8.00006C1.31666 11.6912 4.30889 14.6834 8 14.6834C11.6911 14.6834 14.6833 11.6912 14.6833 8.00006C14.6833 4.30895 11.6911 1.31672 8 1.31672ZM0.0166626 8.00006C0.0166626 3.59098 3.59092 0.0167236 8 0.0167236C12.4091 0.0167236 15.9833 3.59098 15.9833 8.00006C15.9833 12.4091 12.4091 15.9834 8 15.9834C3.59092 15.9834 0.0166626 12.4091 0.0166626 8.00006ZM8.65 7.35006V2.66672H7.35V8.00006V8.65006H8H11.7641L10.8737 9.54044L11.7929 10.4597L13.7929 8.45968L14.2526 8.00006L13.7929 7.54044L11.7929 5.54044L10.8737 6.45968L11.7641 7.35006H8.65Z" fill="#303030"/>
</svg>
