<svg width="16" height="16" viewBox="0 0 16 16" fill="none" xmlns="http://www.w3.org/2000/svg">
<g clip-path="url(#clip0_660_41161)">
<path fill-rule="evenodd" clip-rule="evenodd" d="M7.00001 12.3333C7.50399 14.9059 9.79318 15.2726 10.6667 14.9999C13.1852 14.2138 13.6667 11.6202 13.6667 9.20418C13.6667 7.75637 13.2551 6.40972 12.5553 5.26616C12.0733 6.87509 10.8937 8.17003 9.37885 8.79052C9.90997 7.93247 10.2225 6.91856 10.2225 5.8282C10.2225 3.86257 8.85436 2.46332 7.66668 1.33325C7.65274 6.56695 2.97536 5.77275 2.37822 9.94307C2.01436 12.4805 3.92022 14.4544 6.02416 14.9999C5.79234 14.4664 5.7353 13.3359 7.00001 12.3333Z" stroke="#303030" stroke-width="1.3"/>
</g>
<defs>
<clipPath id="clip0_660_41161">
<rect width="16" height="16" fill="white"/>
</clipPath>
</defs>
</svg>
