<svg width="16" height="16" viewBox="0 0 16 16" fill="none" xmlns="http://www.w3.org/2000/svg">
<path fill-rule="evenodd" clip-rule="evenodd" d="M8 1.31666C4.30889 1.31666 1.31666 4.30889 1.31666 8C1.31666 11.6911 4.30889 14.6833 8 14.6833C11.6911 14.6833 14.6833 11.6911 14.6833 8C14.6833 4.30889 11.6911 1.31666 8 1.31666ZM0.0166626 8C0.0166626 3.59092 3.59092 0.0166626 8 0.0166626C12.4091 0.0166626 15.9833 3.59092 15.9833 8C15.9833 12.4091 12.4091 15.9833 8 15.9833C3.59092 15.9833 0.0166626 12.4091 0.0166626 8ZM6.66666 6.52903H8H8.65V7.17903V12H7.35V7.82903H6.66666V6.52903ZM8.75 4.62938C8.75 4.21516 8.41421 3.87938 8 3.87937C7.58579 3.87937 7.25 4.21516 7.25 4.62937L7.25 4.70408C7.24999 5.11829 7.58578 5.45408 7.99999 5.45408C8.41421 5.45408 8.74999 5.1183 8.75 4.70408V4.62938Z" fill="#303030"/>
</svg>
