<svg width="16" height="16" viewBox="0 0 16 16" fill="none" xmlns="http://www.w3.org/2000/svg">
<path fill-rule="evenodd" clip-rule="evenodd" d="M1.31666 7.99993C1.31666 4.30883 4.30889 1.3166 8 1.3166C11.6911 1.3166 14.6833 4.30883 14.6833 7.99993C14.6833 11.691 11.6911 14.6833 8 14.6833C4.30889 14.6833 1.31666 11.691 1.31666 7.99993ZM8 0.0166016C3.59092 0.0166016 0.0166626 3.59086 0.0166626 7.99993C0.0166626 12.409 3.59092 15.9833 8 15.9833C12.4091 15.9833 15.9833 12.409 15.9833 7.99993C15.9833 3.59086 12.4091 0.0166016 8 0.0166016ZM4.87304 10.6666V8.82969H5.81477C6.43305 8.82969 6.91645 8.68288 7.26497 8.38926C7.61588 8.09325 7.79134 7.68982 7.79134 7.17897C7.79134 6.84238 7.71137 6.5428 7.55143 6.28021C7.39149 6.01523 7.16232 5.81113 6.86393 5.6679C6.56792 5.52467 6.22417 5.45306 5.83268 5.45306H3.79882V10.6666H4.87304ZM5.83268 7.95957H4.87304V6.32318H5.85774C6.12272 6.32795 6.3304 6.40911 6.48079 6.56667C6.63118 6.72422 6.70638 6.93071 6.70638 7.18613C6.70638 7.4344 6.63118 7.62537 6.48079 7.75905C6.33279 7.89273 6.11675 7.95957 5.83268 7.95957ZM8.53255 5.45306V10.6666H10.1475C10.6034 10.6642 11.0128 10.5592 11.3756 10.3515C11.7385 10.1438 12.019 9.85139 12.2171 9.47422C12.4176 9.09705 12.5179 8.66617 12.5179 8.18158V7.94167C12.5179 7.45707 12.4164 7.025 12.2135 6.64544C12.0106 6.2635 11.7278 5.96988 11.3649 5.76458C11.0044 5.5569 10.595 5.45306 10.1367 5.45306H8.53255ZM9.60677 9.80365V6.32318H10.1367C10.5592 6.32318 10.8803 6.46044 11.0999 6.73496C11.3195 7.0071 11.4294 7.40814 11.4294 7.93809V8.2138C11.4246 8.72465 11.3112 9.11734 11.0892 9.39186C10.8672 9.66638 10.5461 9.80365 10.126 9.80365H9.60677Z" fill="#303030"/>
</svg>
