<svg width="16" height="16" viewBox="0 0 16 16" fill="none" xmlns="http://www.w3.org/2000/svg">
<path d="M6.5 10.6667C7.81808 10.6667 8.93762 9.81671 9.34034 8.63492M6.5 10.6667C6.38733 10.6667 6.27611 10.6605 6.16667 10.6484M6.5 10.6667L6.16667 10.6484M8.83333 8.66675C9.00508 8.66675 9.1743 8.65592 9.34034 8.63492M9.34034 8.63492C11.3101 8.38576 12.8333 6.70414 12.8333 4.66675C12.8333 2.45761 11.0425 0.666748 8.83333 0.666748C6.62419 0.666748 4.83333 2.45761 4.83333 4.66675C4.83333 4.83121 4.84326 4.99336 4.86254 5.15262C4.04219 5.68801 3.5 6.61406 3.5 7.66675C3.5 7.77942 3.5 8.00008 3.5 8.00008V14.3334C3.5 14.6096 3.72386 14.8334 4 14.8334H5.66667C5.94281 14.8334 6.16667 14.6096 6.16667 14.3334V10.6484" stroke="#303030" stroke-width="1.3"/>
</svg>
