<svg width="24" height="24" viewBox="0 0 24 24" fill="none" xmlns="http://www.w3.org/2000/svg">
<path fill-rule="evenodd" clip-rule="evenodd" d="M4.33559 18.2931H1.2207V17.4785L3.34913 15.4115V9.79442C3.34913 6.5861 5.28755 3.99988 8.35665 3.27368V2.55124C8.35665 1.7247 9.09414 0.999756 9.94074 0.999756C10.7855 0.999756 11.5248 1.7247 11.5248 2.55124V3.27368C13.5147 3.74401 15.0793 4.99699 15.9341 6.69459C16.3969 7.6152 16.6521 8.66624 16.6521 9.79442V15.4115L18.7799 17.4785V18.2931H4.33559Z" stroke="#f8df52" stroke-width="1.5"/>
<path fill-rule="evenodd" clip-rule="evenodd" d="M7.41406 21.2401C7.41406 22.6095 8.59347 23.5769 10.0685 23.5769C11.5203 23.5769 12.5865 22.6258 12.5865 21.2401V20.9482H7.41406V21.2401Z" fill="#f8df52"/>
<path fill-rule="evenodd" clip-rule="evenodd" d="M22.0508 6L22.0508 14H23.5508L23.5508 6H22.0508ZM23.8008 16.997C23.8008 16.4447 23.353 15.997 22.8007 15.9971C22.2485 15.9971 21.8008 16.4448 21.8008 16.9971V17.0313C21.8008 17.5836 22.2485 18.0313 22.8008 18.0312C23.3531 18.0312 23.8008 17.5835 23.8008 17.0312L23.8008 16.997Z" fill="#f8df52"/>
</svg>
