<svg width="16" height="16" viewBox="0 0 16 16" fill="none" xmlns="http://www.w3.org/2000/svg">
<g clip-path="url(#clip0_885_68880)">
<path d="M2 4.6665L8.66667 11.3332L5.33333 14.3332V1.6665L8.66667 4.6665L2 11.3332" stroke="#303030" stroke-width="1.3"/>
<path d="M11 11C11.394 10.606 11.7065 10.1383 11.9197 9.62359C12.1329 9.10885 12.2426 8.55716 12.2426 8C12.2426 7.44285 12.1329 6.89116 11.9197 6.37641C11.7065 5.86167 11.394 5.39397 11 5" stroke="#303030" stroke-width="1.3"/>
<path d="M13.1855 13.1854C13.8664 12.5044 14.4066 11.696 14.7751 10.8062C15.1437 9.91653 15.3333 8.96293 15.3333 7.9999C15.3333 7.03688 15.1437 6.08328 14.7751 5.19356C14.4066 4.30384 13.8664 3.49542 13.1855 2.81445" stroke="#303030" stroke-width="1.3"/>
</g>
<defs>
<clipPath id="clip0_885_68880">
<rect width="16" height="16" fill="white"/>
</clipPath>
</defs>
</svg>
