<svg width="16" height="16" viewBox="0 0 16 16" fill="none" xmlns="http://www.w3.org/2000/svg">
<path fill-rule="evenodd" clip-rule="evenodd" d="M1.33319 8.31494C1.13896 6.46703 2.45965 4.82809 4.26366 4.63848C5.45226 4.51355 6.56474 5.04579 7.24358 5.95502L8.28527 5.17728C7.3469 3.92045 5.79622 3.17024 4.12778 3.3456C1.59405 3.6119 -0.227305 5.90466 0.0403074 8.45082C0.30792 10.997 2.56616 12.861 5.09989 12.5947C5.55372 12.547 5.98614 12.4337 6.3883 12.2649L5.88501 11.0662C5.59867 11.1865 5.28995 11.2675 4.964 11.3018C3.15999 11.4914 1.52741 10.1628 1.33319 8.31494ZM11.036 4.69744C10.7101 4.7317 10.4013 4.81276 10.115 4.93301L9.61164 3.7344C10.0138 3.56551 10.4463 3.45226 10.9002 3.40456C13.4339 3.13825 15.6921 5.00224 15.9597 7.54839C16.2273 10.0946 14.406 12.3873 11.8723 12.6536C10.2038 12.829 8.65301 12.0787 7.71467 10.8217L8.75641 10.044C9.43524 10.9534 10.5478 11.4857 11.7364 11.3607C13.5404 11.1711 14.861 9.5322 14.6668 7.68428C14.4726 5.83636 12.84 4.50783 11.036 4.69744ZM12 8.64984H4V7.34984H12V8.64984Z" fill="#303030"/>
</svg>
