<svg width="16" height="16" viewBox="0 0 16 16" fill="none" xmlns="http://www.w3.org/2000/svg">
<path fill-rule="evenodd" clip-rule="evenodd" d="M2.58429 2.44958C1.90314 3.13073 1.36283 3.93938 0.994191 4.82934C0.625556 5.7193 0.435822 6.67316 0.435822 7.63645C0.435822 8.59974 0.625557 9.5536 0.994192 10.4436C1.36283 11.3335 1.90314 12.1422 2.58429 12.8233L3.50353 11.9041C2.9431 11.3436 2.49854 10.6783 2.19524 9.94608C1.89193 9.21384 1.73582 8.42903 1.73582 7.63645C1.73582 6.84388 1.89193 6.05907 2.19523 5.32683C2.49854 4.59459 2.9431 3.92926 3.50353 3.36882L2.58429 2.44958ZM3.27521 5.77373C3.51975 5.18334 3.87819 4.64689 4.33006 4.19503L5.2493 5.11427C4.91815 5.44542 4.65547 5.83855 4.47625 6.27122C4.29703 6.70389 4.20479 7.16762 4.20479 7.63594C4.20479 8.10426 4.29703 8.56799 4.47625 9.00066C4.65547 9.43333 4.91815 9.82646 5.2493 10.1576L4.33006 11.0768C3.87819 10.625 3.51975 10.0885 3.27521 9.49814C3.03066 8.90775 2.90479 8.27497 2.90479 7.63594C2.90479 6.9969 3.03066 6.36412 3.27521 5.77373ZM5.71 6.78244C5.82212 6.51176 5.98645 6.26581 6.19363 6.05863L7.11287 6.97787C7.02641 7.06433 6.95783 7.16697 6.91104 7.27993C6.86425 7.39289 6.84017 7.51396 6.84017 7.63623C6.84017 7.7585 6.86425 7.87957 6.91104 7.99253C6.95783 8.10549 7.02641 8.20813 7.11287 8.29458L6.19363 9.21382C5.98645 9.00665 5.82212 8.7607 5.71 8.49002C5.59787 8.21933 5.54017 7.92921 5.54017 7.63623C5.54017 7.34324 5.59787 7.05312 5.71 6.78244ZM12.8597 5.77373C12.6152 5.18334 12.2567 4.64689 11.8049 4.19503L10.8856 5.11427C11.2168 5.44542 11.4795 5.83855 11.6587 6.27122C11.8379 6.70389 11.9302 7.16762 11.9302 7.63594C11.9302 8.10426 11.8379 8.56799 11.6587 9.00066C11.4795 9.43333 11.2168 9.82646 10.8856 10.1576L11.8049 11.0768C12.2567 10.625 12.6152 10.0885 12.8597 9.49815C13.1043 8.90775 13.2302 8.27497 13.2302 7.63594C13.2302 6.9969 13.1043 6.36412 12.8597 5.77373ZM9.9413 6.05896C10.1485 6.26613 10.3128 6.51208 10.4249 6.78277C10.537 7.05345 10.5948 7.34357 10.5948 7.63655C10.5948 7.92954 10.537 8.21966 10.4249 8.49034C10.3128 8.76102 10.1485 9.00697 9.9413 9.21415L9.02206 8.29491C9.10851 8.20845 9.17709 8.10581 9.22388 7.99285C9.27067 7.87989 9.29476 7.75882 9.29476 7.63655C9.29476 7.51429 9.27067 7.39321 9.22388 7.28025C9.17709 7.16729 9.10851 7.06466 9.02206 6.9782L9.9413 6.05896ZM15.1408 4.82934C14.7721 3.93938 14.2318 3.13073 13.5506 2.44958L12.6314 3.36882C13.1918 3.92926 13.6364 4.59459 13.9397 5.32683C14.243 6.05907 14.3991 6.84388 14.3991 7.63645C14.3991 8.42902 14.243 9.21384 13.9397 9.94608C13.6364 10.6783 13.1918 11.3436 12.6314 11.9041L13.5506 12.8233C14.2318 12.1422 14.7721 11.3335 15.1408 10.4436C15.5094 9.5536 15.6991 8.59974 15.6991 7.63645C15.6991 6.67316 15.5094 5.7193 15.1408 4.82934Z" fill="#303030"/>
</svg>
