<svg width="16" height="16" viewBox="0 0 16 16" fill="none" xmlns="http://www.w3.org/2000/svg">
<path fill-rule="evenodd" clip-rule="evenodd" d="M1.31666 7.99993C1.31666 4.30883 4.30889 1.3166 8 1.3166C11.6911 1.3166 14.6833 4.30883 14.6833 7.99993C14.6833 11.691 11.6911 14.6833 8 14.6833C4.30889 14.6833 1.31666 11.691 1.31666 7.99993ZM8 0.0166016C3.59092 0.0166016 0.0166626 3.59086 0.0166626 7.99993C0.0166626 12.409 3.59092 15.9833 8 15.9833C12.4091 15.9833 15.9833 12.409 15.9833 7.99993C15.9833 3.59086 12.4091 0.0166016 8 0.0166016ZM5.05078 8.71422H5.88791L6.84413 10.6666H7.97197V10.6153L6.86865 8.43583C7.17454 8.29175 7.40221 8.09884 7.55166 7.85708C7.70344 7.61288 7.77933 7.30885 7.77933 6.94499C7.77933 6.43217 7.61587 6.03534 7.28896 5.75451C6.96205 5.47368 6.49737 5.33327 5.89492 5.33327H4V10.6666H5.05078V8.71422ZM5.89842 7.82411H5.05078V6.22338H5.89492C6.17746 6.22338 6.38645 6.29542 6.52189 6.4395C6.65966 6.58357 6.72854 6.78138 6.72854 7.0329C6.72854 7.27954 6.65615 7.47368 6.51138 7.61532C6.3666 7.75451 6.16228 7.82411 5.89842 7.82411ZM9.63222 8.35525H11.6497V7.49444H9.63222V6.22338H11.993V5.33327H8.58143V10.6666H12V9.78382H9.63222V8.35525Z" fill="#303030"/>
</svg>
