<svg width="16" height="16" viewBox="0 0 16 16" fill="none" xmlns="http://www.w3.org/2000/svg">
<path fill-rule="evenodd" clip-rule="evenodd" d="M6.05711 0.206784C5.94177 0.134447 5.80535 0.0926208 5.65916 0.0926208C5.52279 0.0926208 5.39493 0.129015 5.28474 0.192621H5.01001V0.466745C4.94588 0.577258 4.90916 0.705652 4.90916 0.842621V2.22309V2.97309H6.40916V2.22309V1.55954C8.36112 1.9126 9.84163 3.62053 9.84163 5.67425C9.84163 7.9837 7.96946 9.85588 5.66001 9.85588C3.35055 9.85588 1.47838 7.9837 1.47838 5.67425C1.47838 4.27684 2.16319 3.0394 3.21839 2.27903L3.74574 1.89902L2.98573 0.844325L2.45838 1.22433C1.07869 2.21852 0.178375 3.84126 0.178375 5.67425C0.178375 8.70167 2.63258 11.1559 5.66001 11.1559C8.68743 11.1559 11.1416 8.70167 11.1416 5.67425C11.1416 2.78037 8.89916 0.410242 6.05711 0.206784ZM4.41998 3.51155L4.84108 4.0067L6.36996 5.80439L6.79106 6.29954L5.80077 7.14175L5.37966 6.6466L3.85079 4.84891L3.42968 4.35376L4.41998 3.51155ZM13.0532 1.5254H15.6385V4.11071L14.7981 3.27034L13.9194 4.10446C13.951 4.2878 13.977 4.4731 13.9971 4.66016C14.031 4.9751 14.0483 5.29495 14.0483 5.61873C14.0483 10.3674 10.3071 14.2502 5.65156 14.2502C5.05775 14.2502 4.47766 14.1868 3.91763 14.0659L3.91401 14.0651L3.12799 14.9524L3.12412 14.9568L3.1241 14.9568L2.81198 15.3028L1.84665 14.4321L2.15684 14.0882L3.20026 12.9103L3.46718 12.609L3.85586 12.7137C3.96686 12.7436 4.07892 12.7707 4.19197 12.7952C4.66251 12.8967 5.15064 12.9502 5.65156 12.9502C9.55284 12.9502 12.7483 9.68624 12.7483 5.61873C12.7483 5.34147 12.7335 5.06804 12.7045 4.79919C12.6759 4.53327 12.6336 4.27176 12.5782 4.01542L12.5012 3.65836L12.7661 3.40686L13.8786 2.35079L13.0532 1.5254Z" fill="#FF725C"/>
</svg>
