<svg width="16" height="16" viewBox="0 0 16 16" fill="none" xmlns="http://www.w3.org/2000/svg">
<path fill-rule="evenodd" clip-rule="evenodd" d="M1.47453 5.74011C1.47453 3.39292 3.3773 1.49015 5.72448 1.49015C8.07166 1.49015 9.97443 3.39292 9.97443 5.74011C9.97443 8.08729 8.07166 9.99006 5.72448 9.99006C3.3773 9.99006 1.47453 8.08729 1.47453 5.74011ZM5.72448 0.190155C2.65933 0.190155 0.17453 2.67495 0.17453 5.74011C0.17453 8.80526 2.65933 11.2901 5.72448 11.2901C8.78963 11.2901 11.2744 8.80526 11.2744 5.74011C11.2744 2.67495 8.78963 0.190155 5.72448 0.190155ZM13.0537 1.52228H15.6396V4.1082L14.7987 3.26733L13.9196 4.10188C13.9512 4.28529 13.9771 4.47065 13.9973 4.65778C14.0312 4.97279 14.0485 5.2927 14.0485 5.61655C14.0485 10.3662 10.3065 14.2499 5.64994 14.2499C5.056 14.2499 4.47579 14.1865 3.91564 14.0655L3.91193 14.0647L3.12567 14.9523L3.1218 14.9567L3.12178 14.9567L2.80958 15.3028L1.84425 14.4321L2.15447 14.0882L3.19818 12.9099L3.46509 12.6086L3.85378 12.7133C3.96481 12.7432 4.0769 12.7704 4.18997 12.7948C4.66063 12.8964 5.14889 12.9499 5.64994 12.9499C9.55223 12.9499 12.7485 9.6851 12.7485 5.61655C12.7485 5.33922 12.7336 5.06572 12.7047 4.79681C12.6761 4.53081 12.6337 4.26924 12.5784 4.01284L12.5013 3.65577L12.7662 3.40428L13.8792 2.34778L13.0537 1.52228ZM5.06491 6.53497L5.06491 3.08299H6.36491V6.53497H5.06491ZM6.46491 8.26105C6.46491 7.84684 6.12913 7.51105 5.71491 7.51105C5.3007 7.51105 4.96491 7.84684 4.96491 8.26105V8.28516C4.96491 8.69937 5.3007 9.03516 5.71491 9.03516C6.12912 9.03516 6.46491 8.69937 6.46491 8.28516V8.26105Z" fill="#FF725C"/>
</svg>
