<svg width="16" height="16" viewBox="0 0 16 16" fill="none" xmlns="http://www.w3.org/2000/svg">
<path d="M15.3334 9.51663V6.48443L13.2298 6.16085C13.1627 5.97009 13.0857 5.78497 12.9986 5.60395L14.2575 3.88709L12.113 1.74306L10.3961 3.00199C10.2156 2.91481 10.0305 2.83789 9.83919 2.7702L9.51561 0.666687H6.48392L6.16034 2.7702C5.96907 2.83738 5.78394 2.91481 5.60344 3.00148L3.88709 1.74255L1.74357 3.88657L3.0025 5.60344C2.91533 5.78394 2.83841 5.96907 2.77123 6.15983L0.666687 6.48392V9.51561L2.77123 9.83919C2.83841 10.0294 2.91533 10.2146 3.00148 10.3951L1.74255 12.1135L3.88606 14.2575L5.60395 12.9975C5.78446 13.0842 5.96958 13.1611 6.15983 13.2288L6.48341 15.3334H9.51612L9.8397 13.2293C10.0299 13.1621 10.2151 13.0852 10.3956 12.9986L12.1135 14.258L14.257 12.114L12.9981 10.3971C13.0852 10.2161 13.1621 10.031 13.2293 9.84021L15.3334 9.51663ZM7.99976 11.034C6.32393 11.034 4.96602 9.67458 4.96602 7.99925C4.96602 6.3229 6.32392 4.96449 8.00079 4.96397C9.67663 4.96449 11.0345 6.3229 11.0345 7.99874C11.0345 9.6756 9.67663 11.0345 7.99976 11.034Z" stroke="#303030" stroke-width="1.3"/>
</svg>
