<svg width="160" height="160" viewBox="0 0 160 160" fill="none" xmlns="http://www.w3.org/2000/svg">
<path d="M0 80C0 35.8172 35.8172 0 80 0C124.183 0 160 35.8172 160 80C160 124.183 124.183 160 80 160C35.8172 160 0 124.183 0 80Z" fill="#404040"/>
<g clip-path="url(#clip0_7543_88320)">
<path d="M95.954 69.1879L75.4633 89.6786L64.3155 78.5278" stroke="#DBDBDB" stroke-width="3"/>
</g>
<path d="M47.4596 79.8138L30.0968 80.3289M51.7657 63.7429L43.5727 58.9639M66.056 55.4925L56.6442 39.1908M51.6194 96.4307L43.4686 101.137M63.9301 108.342L54.8027 123.121M80.001 112.648L80.0433 122.133M103.409 120.19L94.2913 104.397M96.3645 51.5785L105.492 36.7995M80.2936 47.2724L80.2514 37.7874M108.675 63.4895L116.826 58.7837M112.835 80.1064L130.198 79.5914M108.529 96.1773L116.722 100.956" stroke="#DBDBDB" stroke-width="1.5"/>
<defs>
<clipPath id="clip0_7543_88320">
<rect width="37.6471" height="37.6471" fill="white" transform="translate(61.1768 61.1758)"/>
</clipPath>
</defs>
</svg>
