<svg width="160" height="160" viewBox="0 0 160 160" fill="none" xmlns="http://www.w3.org/2000/svg">
<path d="M0 80C0 35.8172 35.8172 0 80 0C124.183 0 160 35.8172 160 80C160 124.183 124.183 160 80 160C35.8172 160 0 124.183 0 80Z" fill="#404040"/>
<path fill-rule="evenodd" clip-rule="evenodd" d="M80.0003 122.353C103.391 122.353 122.353 103.391 122.353 80.0004C122.353 56.6095 103.391 37.6475 80.0003 37.6475C56.6094 37.6475 37.6473 56.6095 37.6473 80.0004C37.6473 103.391 56.6094 122.353 80.0003 122.353Z" stroke="#DBDBDB" stroke-width="1.5"/>
<path fill-rule="evenodd" clip-rule="evenodd" d="M82.1226 79.9998L95.9164 93.7934L93.7951 95.9148L80.0012 82.1211L66.2074 95.9148L64.0861 93.7934L77.8799 79.9998L64.0853 66.2053L66.2066 64.084L80.0012 77.8785L93.7959 64.084L95.9172 66.2053L82.1226 79.9998Z" fill="#DBDBDB"/>
</svg>
