<svg width="24" height="24" viewBox="0 0 24 24" fill="none" xmlns="http://www.w3.org/2000/svg">
<path fill-rule="evenodd" clip-rule="evenodd" d="M8.72727 4.36346C11.038 4.36346 13.1389 5.26147 14.7002 6.72752C15.2349 6.6081 15.7919 6.54528 16.3636 6.54528C20.5811 6.54528 24 9.96419 24 14.1816C24 18.3991 20.5811 21.818 16.3636 21.818C15.0283 21.818 13.773 21.4753 12.6809 20.8729C11.4943 21.4773 10.1506 21.818 8.72727 21.818C3.90733 21.818 0 17.9107 0 13.0907C0 8.27079 3.90733 4.36346 8.72727 4.36346ZM16.3636 8.7271C13.9537 8.7271 12 10.6808 12 13.0907C12 15.5007 13.9537 17.4544 16.3636 17.4544C18.7736 17.4544 20.7273 15.5007 20.7273 13.0907C20.7273 10.6808 18.7736 8.7271 16.3636 8.7271ZM16.3636 10.9089C17.5686 10.9089 18.5455 11.8857 18.5455 13.0907C18.5455 14.2957 17.5686 15.2726 16.3636 15.2726C15.1587 15.2726 14.1818 14.2957 14.1818 13.0907C14.1818 11.8857 15.1587 10.9089 16.3636 10.9089ZM4.55081 7.82336C2.8467 9.52746 2.8467 12.2904 4.55081 13.9945C6.25491 15.6986 9.01781 15.6986 10.7219 13.9945L9.17914 12.4517C8.32709 13.3037 6.94564 13.3037 6.09359 12.4517C5.24153 11.5996 5.24153 10.2182 6.09359 9.36614C6.94564 8.51408 8.32709 8.51408 9.17914 9.36614L10.7219 7.82336C9.01781 6.11925 6.25491 6.11925 4.55081 7.82336ZM21.8182 2.18164C23.0232 2.18164 24 3.15847 24 4.36346C24 5.56844 23.0232 6.54528 21.8182 6.54528C20.6132 6.54528 19.6364 5.56844 19.6364 4.36346C19.6364 3.15847 20.6132 2.18164 21.8182 2.18164Z" fill="#C7C7C7"/>
</svg>
