<svg width="24" height="24" viewBox="0 0 24 24" fill="none" xmlns="http://www.w3.org/2000/svg">
<path fill-rule="evenodd" clip-rule="evenodd" d="M4.3637 14.1816V18.0934L7.95595 14.5012L9.49873 16.0439L5.90734 19.6362H9.81825V21.818L3.33897 21.8186C2.79649 21.848 2.25869 21.4644 2.18939 20.8599L2.18188 20.7271V14.1816H4.3637ZM21.8182 14.1816V20.7271C21.8182 21.4075 21.2424 21.8501 20.6612 21.8186L14.1819 21.818V19.6362H18.0928L14.5014 16.0439L16.0442 14.5012L19.6364 18.0934V14.1816H21.8182ZM12.0001 9.818C13.2051 9.818 14.1819 10.7948 14.1819 11.9998C14.1819 13.2048 13.2051 14.1816 12.0001 14.1816C10.7951 14.1816 9.81825 13.2048 9.81825 11.9998C9.81825 10.7948 10.7951 9.818 12.0001 9.818ZM3.33897 2.18321L9.81825 2.18383V4.36565H5.90734L9.49873 7.95789L7.95595 9.50067L4.3637 5.90842V9.82019H2.18188V3.27474C2.18188 2.59437 2.75774 2.15176 3.33897 2.18321ZM21.8107 3.1419L21.8182 3.27474V9.82019H19.6364V5.90842L16.0442 9.50067L14.5014 7.95789L18.0928 4.36565H14.1819V2.18383L20.6612 2.18321C21.2036 2.15386 21.7414 2.53746 21.8107 3.1419Z" fill="#C7C7C7"/>
</svg>
