<svg width="24" height="24" viewBox="0 0 24 24" fill="none" xmlns="http://www.w3.org/2000/svg">
<path fill-rule="evenodd" clip-rule="evenodd" d="M11.9999 1.09082C18.0248 1.09082 22.909 5.97499 22.909 11.9999C22.909 18.0248 18.0248 22.909 11.9999 22.909C5.97499 22.909 1.09082 18.0248 1.09082 11.9999C1.09082 5.97499 5.97499 1.09082 11.9999 1.09082ZM11.9999 15.9117L10.4571 17.4545L11.9999 18.9972L13.5427 17.4545L11.9999 15.9117ZM11.9999 5.45446C11.3974 5.45446 10.909 5.94287 10.909 6.54537V11.9999C10.909 12.6024 11.3974 13.0908 11.9999 13.0908C12.6024 13.0908 13.0908 12.6024 13.0908 11.9999V6.54537C13.0908 5.94287 12.6024 5.45446 11.9999 5.45446Z" fill="#C7C7C7"/>
</svg>
