<svg width="24" height="24" viewBox="0 0 24 24" fill="none" xmlns="http://www.w3.org/2000/svg">
<path fill-rule="evenodd" clip-rule="evenodd" d="M21.8182 19.6362V21.818H7.63643V19.6362H21.8182ZM21.8182 15.2726V17.4544H7.63643V15.2726H21.8182ZM21.8182 10.9089V13.0907H7.63643V10.9089H21.8182ZM4.3637 2.18164C5.56869 2.18164 6.54552 3.8911 6.54552 5.99982C6.54552 8.10855 5.56869 9.818 4.3637 9.818C3.15872 9.818 2.18188 8.10855 2.18188 5.99982C2.18188 3.8911 3.15872 2.18164 4.3637 2.18164ZM21.8182 6.54528V8.7271H7.63643V6.54528H21.8182ZM19.6364 2.18164C20.7866 2.18164 21.729 3.07169 21.8123 4.20063L21.8182 4.36346H7.63643V2.18164H19.6364Z" fill="#C7C7C7"/>
</svg>
