<svg width="24" height="24" viewBox="0 0 24 24" fill="none" xmlns="http://www.w3.org/2000/svg">
<g clip-path="url(#clip0_660_42233)">
<path fill-rule="evenodd" clip-rule="evenodd" d="M15.7986 10.1836L23.4545 24H18.5455L12.0196 12.3654L15.7986 10.1836ZM5.04982 14.1443L5.69345 15.2592L2.66388 20.9825L1.69975 20.472L5.04982 14.1443ZM8.41091 15.8374L9.25876 19.5137L8.19579 19.759L7.42145 16.4079L8.41091 15.8374ZM15.5907 4.00523L19.9769 6.51152L6.75035 14.1479L4.56853 10.3689L15.5907 4.00523ZM0.120471 10.3703L3.02291 10.6348L3.69055 11.7912L0 11.4545L0.120471 10.3703ZM2.68619 1.97412L5.04545 7.70358L4.092 8.25339L1.67745 2.38948L2.68619 1.97412ZM7.09315 3.22333L8.17958 3.32209L7.932 6.03667L6.77673 6.7043L7.09315 3.22333Z" fill="#C7C7C7"/>
</g>
<defs>
<clipPath id="clip0_660_42233">
<rect width="24" height="24" fill="white"/>
</clipPath>
</defs>
</svg>
