<svg width="24" height="24" viewBox="0 0 24 24" fill="none" xmlns="http://www.w3.org/2000/svg">
<path fill-rule="evenodd" clip-rule="evenodd" d="M1.79999 8.75001C1.79999 6.45022 2.68576 4.35097 4.14881 2.7572L3.04379 1.74283C1.3399 3.59897 0.299988 6.05551 0.299988 8.75001C0.299988 11.4445 1.3399 13.9011 3.04379 15.7572L4.14881 14.7428C2.68576 13.1491 1.79999 11.0498 1.79999 8.75001ZM19.8512 2.7572C21.3142 4.35097 22.2 6.45022 22.2 8.75001C22.2 11.0498 21.3142 13.1491 19.8512 14.7428L20.9562 15.7572C22.6601 13.9011 23.7 11.4445 23.7 8.75001C23.7 6.05551 22.6601 3.59897 20.9562 1.74283L19.8512 2.7572ZM7.79394 5.73655C7.11616 6.5317 6.70001 7.58638 6.70001 8.75001C6.70001 9.91365 7.11616 10.9683 7.79394 11.7635L6.65239 12.7365C5.74671 11.674 5.20001 10.2756 5.20001 8.75001C5.20001 7.22441 5.74671 5.82598 6.65239 4.76348L7.79394 5.73655ZM17.3 8.75001C17.3 7.58638 16.8839 6.5317 16.2061 5.73655L17.3476 4.76348C18.2533 5.82598 18.8 7.22441 18.8 8.75001C18.8 10.2756 18.2533 11.674 17.3476 12.7365L16.2061 11.7635C16.8839 10.9683 17.3 9.91365 17.3 8.75001ZM12.75 10.8546C13.483 10.5579 14 9.83936 14 9.00001C14 7.89544 13.1046 7.00001 12 7.00001C10.8954 7.00001 10 7.89544 10 9.00001C10 9.83936 10.517 10.5579 11.25 10.8546L11.25 23.25L12.75 23.25L12.75 10.8546Z" fill="#303030"/>
</svg>
