<svg width="24" height="24" viewBox="0 0 24 24" fill="none" xmlns="http://www.w3.org/2000/svg">
<path fill-rule="evenodd" clip-rule="evenodd" d="M11.9999 1.75C8.36292 1.75 5.16835 3.64425 3.34896 6.5H1.61398C3.58691 2.78215 7.4977 0.25 11.9999 0.25C18.4893 0.25 23.7499 5.51065 23.7499 12C23.7499 18.4893 18.4893 23.75 11.9999 23.75C7.4977 23.75 3.58691 21.2178 1.61398 17.5H3.34896C5.16834 20.3557 8.36292 22.25 11.9999 22.25C17.6608 22.25 22.2499 17.6609 22.2499 12C22.2499 6.33908 17.6608 1.75 11.9999 1.75ZM11.25 14V6H12.75V14H11.25ZM12 15.9971C12.5522 15.997 13 16.4447 13 16.997L13 17.0312C13 17.5835 12.5523 18.0312 12 18.0312C11.4478 18.0313 11 17.5836 11 17.0313V16.9971C11 16.4448 11.4477 15.9971 12 15.9971Z" fill="#303030"/>
</svg>
