<svg width="24" height="24" viewBox="0 0 24 24" fill="none" xmlns="http://www.w3.org/2000/svg">
<g clip-path="url(#clip0_660_39371)">
<path fill-rule="evenodd" clip-rule="evenodd" d="M4.66882 2.00342H4.26743L4.04478 2.33739L0.35642 7.86995L0.0487061 8.33152L0.399973 8.76088L11.4642 22.2849L12.0447 22.9944L12.6252 22.2849L23.6911 8.76092L24.0424 8.33156L23.7347 7.86995L20.0463 2.33739L19.8237 2.00342H19.4223H12.0456H4.66882ZM1.91221 8.24043L5.07021 3.50342H12.0456H19.0209L22.1789 8.24039L21.7881 8.71794L18.53 5.46367C18.237 5.17107 17.7624 5.17121 17.4696 5.46398L15 7.93365L12.5303 5.46398C12.3897 5.32333 12.1989 5.24431 12 5.24432C11.8011 5.24432 11.6103 5.32333 11.4696 5.46398L8.99998 7.93365L6.53031 5.46399C6.23783 5.1715 5.76376 5.17103 5.4707 5.46294L2.25794 8.66302L1.91221 8.24043ZM3.21231 9.82956L5.47451 12.5947L5.70748 12.3617L6.61813 11.4511C6.75878 11.3104 6.94955 11.2314 7.14846 11.2314C7.34737 11.2314 7.53814 11.3104 7.67879 11.4511L9.57381 13.3461L11.4688 11.4511C11.7617 11.1582 12.2366 11.1582 12.5295 11.4511L14.4245 13.3461L16.3195 11.4511C16.6124 11.1582 17.0873 11.1582 17.3802 11.4511L18.2908 12.3617L18.5745 12.6454L20.8336 9.88455L18.0003 7.05466L15.5303 9.52464C15.2374 9.81754 14.7625 9.81754 14.4696 9.52464L12 7.05498L9.53031 9.52464C9.38966 9.6653 9.19889 9.74432 8.99998 9.74432C8.80107 9.74432 8.6103 9.6653 8.46965 9.52465L5.99893 7.05393L3.21231 9.82956ZM17.6199 13.8121L17.2302 13.4224L16.8499 13.042L14.9548 14.9371C14.8142 15.0777 14.6234 15.1567 14.4245 15.1567C14.2256 15.1567 14.0348 15.0777 13.8942 14.9371L11.9992 13.042L10.1041 14.9371C9.96349 15.0777 9.77272 15.1567 9.57381 15.1567C9.3749 15.1567 9.18413 15.0777 9.04348 14.9371L7.14846 13.042L6.76814 13.4224L6.42906 13.7614L9.91303 18.0199L11.4688 16.4642C11.6095 16.3235 11.8002 16.2445 11.9991 16.2445C12.198 16.2445 12.3888 16.3235 12.5295 16.4642L14.1356 18.0703L17.6199 13.8121ZM13.181 19.237L11.9991 18.0552L10.8676 19.1867L12.0448 20.6256L13.181 19.237Z" fill="#303030"/>
</g>
<defs>
<clipPath id="clip0_660_39371">
<rect width="24" height="24" fill="white"/>
</clipPath>
</defs>
</svg>
