<svg width="24" height="24" viewBox="0 0 24 24" fill="none" xmlns="http://www.w3.org/2000/svg">
<path fill-rule="evenodd" clip-rule="evenodd" d="M8.75 5C8.75 3.20507 10.2051 1.75 12 1.75C13.7949 1.75 15.25 3.20507 15.25 5V8.25H8.75V5ZM7.25 8.25V5C7.25 2.37665 9.37665 0.25 12 0.25C14.6234 0.25 16.75 2.37665 16.75 5V8.25H19C19.9665 8.25 20.75 9.0335 20.75 10V21.25C20.75 22.2165 19.9665 23 19 23H5C4.0335 23 3.25 22.2165 3.25 21.25V10C3.25 9.0335 4.0335 8.25 5 8.25H7.25ZM4.75 10C4.75 9.86193 4.86193 9.75 5 9.75H19C19.1381 9.75 19.25 9.86193 19.25 10V21.25C19.25 21.3881 19.1381 21.5 19 21.5H5C4.86193 21.5 4.75 21.3881 4.75 21.25V10Z" fill="#303030"/>
</svg>
