<svg width="24" height="24" viewBox="0 0 24 24" fill="none" xmlns="http://www.w3.org/2000/svg">
<path fill-rule="evenodd" clip-rule="evenodd" d="M12.5492 0.990057L11.9993 0.396973L11.4493 0.990057L8.2993 4.38712L9.39921 5.40703L11.2493 3.41187V11.2496H3.41187L5.40702 9.39957L4.38712 8.29967L0.990057 11.4497L0.396973 11.9996L0.990057 12.5496L4.38712 15.6996L5.40702 14.5997L3.41187 12.7496H11.2493V20.5881L9.39921 18.593L8.2993 19.6129L11.4493 23.01L11.9993 23.6031L12.5492 23.01L15.6992 19.6129L14.5993 18.593L12.7493 20.5881V12.7496H20.6894L18.8197 14.6193L19.8803 15.68L23.0303 12.53L23.5607 11.9996L23.0303 11.4693L19.8803 8.31929L18.8197 9.37995L20.6894 11.2496H12.7493V3.41187L14.5993 5.40703L15.6992 4.38712L12.5492 0.990057Z" fill="#303030"/>
</svg>
