<svg width="24" height="24" viewBox="0 0 24 24" fill="none" xmlns="http://www.w3.org/2000/svg">
<path fill-rule="evenodd" clip-rule="evenodd" d="M2.25 2C2.25 1.58579 2.58579 1.25 3 1.25H21C21.4142 1.25 21.75 1.58579 21.75 2V22C21.75 22.4142 21.4142 22.75 21 22.75H3C2.58579 22.75 2.25 22.4142 2.25 22V2ZM3.75 2.75V21.25H20.25V2.75H3.75ZM6.25 7.77719C6.25 7.36298 6.58579 7.02719 7 7.02719H17C17.4142 7.02719 17.75 7.36298 17.75 7.77719C17.75 8.19141 17.4142 8.52719 17 8.52719H7C6.58579 8.52719 6.25 8.19141 6.25 7.77719ZM6.25 12C6.25001 11.5857 6.5858 11.25 7.00001 11.25L17 11.2502C17.4142 11.2502 17.75 11.586 17.75 12.0002C17.75 12.4144 17.4142 12.7502 17 12.7502L6.99999 12.75C6.58577 12.75 6.24999 12.4142 6.25 12ZM6.25 16.2227C6.25 15.8084 6.58579 15.4727 7 15.4727H17.0012C17.4154 15.4727 17.7512 15.8084 17.7512 16.2227C17.7512 16.6369 17.4154 16.9727 17.0012 16.9727H7C6.58579 16.9727 6.25 16.6369 6.25 16.2227Z" fill="#303030"/>
</svg>
