<svg width="24" height="25" viewBox="0 0 24 25" fill="none" xmlns="http://www.w3.org/2000/svg">
<path fill-rule="evenodd" clip-rule="evenodd" d="M1.75 12.25C1.75 6.58908 6.33908 2 12 2C17.6609 2 22.25 6.58908 22.25 12.25C22.25 17.9109 17.6609 22.5 12 22.5C6.33908 22.5 1.75 17.9109 1.75 12.25ZM12 0.5C5.51065 0.5 0.25 5.76065 0.25 12.25C0.25 18.7393 5.51065 24 12 24C18.4893 24 23.75 18.7393 23.75 12.25C23.75 5.76065 18.4893 0.5 12 0.5ZM11.2507 18.25V13L6 13V11.5L11.2507 11.5V6.25H12.7507V11.5L18 11.5V13L12.7507 13V18.25H11.2507Z" fill="#303030"/>
</svg>
