<svg width="24" height="25" viewBox="0 0 24 25" fill="none" xmlns="http://www.w3.org/2000/svg">
<g clip-path="url(#clip0_2678_31336)">
<path fill-rule="evenodd" clip-rule="evenodd" d="M8.75 6C8.75 4.20507 10.2051 2.75 12 2.75C13.7949 2.75 15.25 4.20507 15.25 6C15.25 7.79493 13.7949 9.25 12 9.25C10.2051 9.25 8.75 7.79493 8.75 6ZM12 1.25C9.37665 1.25 7.25 3.37665 7.25 6C7.25 8.62335 9.37665 10.75 12 10.75C14.6234 10.75 16.75 8.62335 16.75 6C16.75 3.37665 14.6234 1.25 12 1.25ZM16.1194 15.1004V13.4104C14.868 12.8262 13.4721 12.5 12 12.5C6.61522 12.5 2.25 16.8652 2.25 22.25H3.75C3.75 17.6937 7.44365 14 12 14C13.5004 14 14.9072 14.4005 16.1194 15.1004Z" fill="#303030"/>
<path fill-rule="evenodd" clip-rule="evenodd" d="M18.25 20H14.0254V18.5H18.25L18.25 14.3003L19.75 14.3003L19.75 18.5H23.9249V20H19.75V24.1998H18.25L18.25 20Z" fill="#303030"/>
</g>
<defs>
<clipPath id="clip0_2678_31336">
<rect width="24" height="24" fill="white" transform="translate(0 0.25)"/>
</clipPath>
</defs>
</svg>
