<svg width="24" height="24" viewBox="0 0 24 24" fill="none" xmlns="http://www.w3.org/2000/svg">
<path fill-rule="evenodd" clip-rule="evenodd" d="M3.75 1H3V1.75V22.25V23H3.75H13V21.5H4.5V2.5H15.0288H19.4998V13H20.9998V1.75V1H20.2498H15.0288H3.75Z" fill="#303030"/>
<path fill-rule="evenodd" clip-rule="evenodd" d="M17 7H7.00002V8.5H17V7ZM13 11.25L7 11.2502L7.00004 12.7502L13 12.75L13 11.25Z" fill="#303030"/>
<path d="M18.9853 15.007C18.9927 14.9977 19.0076 14.9977 19.0149 15.007L19.1748 15.2118C20.0809 16.3718 21.4739 17.1109 23 17.2411V17.9203C23 20.2944 21.6731 22.4944 19.5045 23.7159L19.0001 24L18.4957 23.7159C16.327 22.4944 15 20.2943 15 17.9201V17.2411C16.5258 17.1108 17.9187 16.3721 18.8249 15.2124L18.9853 15.007Z" fill="#303030"/>
</svg>
