<svg width="24" height="24" viewBox="0 0 24 24" fill="none" xmlns="http://www.w3.org/2000/svg">
<g clip-path="url(#clip0_660_40638)">
<path fill-rule="evenodd" clip-rule="evenodd" d="M12.9149 1.20971L12.9461 1.24726C15.2066 3.96118 18.4602 5.67876 22 6.00055V7.80929C22 14.1319 18.6827 19.991 13.2611 23.244L12.0003 24.0005L10.7393 23.244C5.31747 19.991 2 14.1318 2 7.80895V6.00055C5.53994 5.67869 8.79366 3.96112 11.0544 1.24718L11.0856 1.2096C11.2498 1.01091 11.4088 0.806929 11.5622 0.59781L11.8773 0.168298L11.9633 0.0509587C11.9817 0.0259791 12.019 0.0259833 12.0373 0.0509667L12.1233 0.168323L12.1234 0.168329L12.437 0.59615C12.5908 0.805889 12.7502 1.01046 12.9149 1.20971ZM12.0002 2.45003C14.2037 4.98306 17.2015 6.69481 20.5 7.30635V7.80929C20.5 13.605 17.4592 18.9758 12.4894 21.9578L12.0003 22.2513L11.511 21.9577C6.54102 18.9758 3.5 13.6049 3.5 7.80895V7.30634C6.79855 6.69476 9.79644 4.98305 12.0002 2.45003ZM13.1226 10.455L12 7.00011L10.8774 10.455H7.24472L10.1836 12.5903L9.06107 16.0452L12 13.9099L14.9389 16.0452L13.8164 12.5903L16.7553 10.455H13.1226Z" fill="#303030"/>
</g>
<defs>
<clipPath id="clip0_660_40638">
<rect width="24" height="24" fill="white"/>
</clipPath>
</defs>
</svg>
