<svg width="24" height="24" viewBox="0 0 24 24" fill="none" xmlns="http://www.w3.org/2000/svg">
<path fill-rule="evenodd" clip-rule="evenodd" d="M8.75 5.75C8.75 5.50214 8.77775 5.26077 8.8303 5.02881H15.1697C15.2223 5.26077 15.25 5.50214 15.25 5.75C15.25 7.54493 13.7949 9 12 9C10.2051 9 8.75 7.54493 8.75 5.75ZM7.25 5.75C7.25 5.50482 7.26858 5.26398 7.3044 5.02881H5.01416V3.52881H7.80026C8.59745 2.02464 10.1791 1 12 1C14.6234 1 16.75 3.12665 16.75 5.75C16.75 8.37335 14.6234 10.5 12 10.5C9.37665 10.5 7.25 8.37335 7.25 5.75ZM12 2.5C12.936 2.5 13.7795 2.89564 14.3725 3.52881H9.62747C10.2205 2.89564 11.064 2.5 12 2.5ZM14.4616 14.1235L15.1709 12.7772C14.1768 12.4355 13.1101 12.25 12 12.25C6.61522 12.25 2.25 16.6152 2.25 22H3.75C3.75 17.4437 7.44365 13.75 12 13.75C12.8574 13.75 13.6842 13.8808 14.4616 14.1235ZM16.0304 23.7804L19.0001 20.8108L21.9697 23.7804L23.0304 22.7197L20.0608 19.7501L23.0304 16.7804L21.9698 15.7198L19.0001 18.6895L16.0304 15.7197L14.9697 16.7804L17.9395 19.7501L14.9698 22.7198L16.0304 23.7804Z" fill="black"/>
</svg>
