<svg width="24" height="24" viewBox="0 0 24 24" fill="none" xmlns="http://www.w3.org/2000/svg">
<g clip-path="url(#clip0_2627_32667)">
<path fill-rule="evenodd" clip-rule="evenodd" d="M12.0373 0.0509667C12.019 0.0259833 11.9817 0.0259791 11.9633 0.0509587L11.8773 0.168297L11.5622 0.59781C11.4088 0.806929 11.2498 1.01091 11.0856 1.2096L11.0544 1.24718C8.79366 3.96112 5.53994 5.67869 2 6.00055V7.80895C2 14.1318 5.31747 19.991 10.7393 23.244L12.0003 24.0005L13.2611 23.244C18.6827 19.991 22 14.1319 22 7.80929V6.00055C18.4602 5.67876 15.2066 3.96118 12.9461 1.24726L12.9149 1.20971C12.7502 1.01046 12.5908 0.805889 12.437 0.59615L12.1233 0.168323L12.0373 0.0509667ZM12.0002 2.45003C14.2037 4.98306 17.2015 6.69481 20.5 7.30635V7.80929C20.5 13.605 17.4592 18.9758 12.4894 21.9578L12.0003 22.2513L11.511 21.9577C6.54102 18.9758 3.5 13.6049 3.5 7.80895V7.30634C6.79855 6.69476 9.79644 4.98305 12.0002 2.45003ZM11.0748 9.53336C10.8612 9.69435 10.75 9.89649 10.75 10.1495H9.25C9.25 9.36142 9.63672 8.73888 10.1721 8.33544C10.693 7.94287 11.3568 7.75011 12 7.75011C12.6039 7.75011 13.2894 7.88976 13.8402 8.32294C14.4212 8.77986 14.75 9.48297 14.75 10.3851C14.75 10.9572 14.5209 11.398 14.2514 11.7449C14.0667 11.9826 13.8235 12.2202 13.6181 12.4209L13.618 12.421C13.5547 12.4828 13.4949 12.5412 13.4416 12.5949C12.9559 13.0847 12.5682 13.5798 12.5682 14.5001H11.0682C11.0682 13.0045 11.7714 12.149 12.3765 11.5387C12.4732 11.4413 12.5592 11.3571 12.6368 11.2812L12.6369 11.2812C12.8157 11.1063 12.95 10.975 13.0668 10.8247C13.2064 10.6449 13.25 10.5199 13.25 10.3851C13.25 9.87349 13.0809 9.63411 12.9129 9.50197C12.7147 9.34609 12.4003 9.25011 12 9.25011C11.639 9.25011 11.3029 9.36151 11.0748 9.53336ZM12.8047 16.9415C12.8047 16.3892 12.3569 15.9415 11.8046 15.9415C11.2524 15.9415 10.8047 16.3893 10.8047 16.9416L10.8047 16.9757C10.8047 17.528 11.2524 17.9757 11.8047 17.9757C12.357 17.9757 12.8047 17.5279 12.8047 16.9757L12.8047 16.9415Z" fill="#303030"/>
</g>
<defs>
<clipPath id="clip0_2627_32667">
<rect width="24" height="24" fill="white"/>
</clipPath>
</defs>
</svg>
