<svg width="24" height="24" viewBox="0 0 24 24" fill="none" xmlns="http://www.w3.org/2000/svg">
<path fill-rule="evenodd" clip-rule="evenodd" d="M1.75 12C1.75 6.33908 6.33908 1.75 12 1.75C17.6609 1.75 22.25 6.33908 22.25 12C22.25 17.6609 17.6609 22.25 12 22.25C6.33908 22.25 1.75 17.6609 1.75 12ZM12 0.25C5.51065 0.25 0.25 5.51065 0.25 12C0.25 18.4893 5.51065 23.75 12 23.75C18.4893 23.75 23.75 18.4893 23.75 12C23.75 5.51065 18.4893 0.25 12 0.25ZM11.1429 4L6 13.6H12.8571V20L18 10.4H10.7143L11.1429 4Z" fill="#303030"/>
</svg>
