<svg width="24" height="24" viewBox="0 0 24 24" fill="none" xmlns="http://www.w3.org/2000/svg">
<path fill-rule="evenodd" clip-rule="evenodd" d="M6.67312 4.76764C6.13709 2.76715 7.32427 0.710882 9.32477 0.174851C11.3253 -0.36118 13.3815 0.826005 13.9176 2.8265L18.0587 18.2813C18.5947 20.2818 17.4075 22.3381 15.407 22.8741C13.4065 23.4101 11.3502 22.223 10.8142 20.2225L6.67312 4.76764ZM9.713 1.62374C8.5127 1.94536 7.80039 3.17912 8.12201 4.37942L12.2631 19.8342C12.5847 21.0345 13.8185 21.7468 15.0188 21.4252C16.2191 21.1036 16.9314 19.8698 16.6098 18.6695L12.4687 3.21473C12.1471 2.01443 10.9133 1.30212 9.713 1.62374ZM5.36287 13.4006C5.8914 15.373 6.7095 16.9124 7.43007 17.6365L6.36683 18.6945C5.38478 17.7077 4.47522 15.8833 3.91398 13.7888C3.35275 11.6943 3.22829 9.65954 3.58535 8.31389L5.03518 8.69859C4.77319 9.68595 4.83435 11.4281 5.36287 13.4006ZM19.6931 14.3521C19.9551 13.3647 19.8939 11.6225 19.3654 9.65007C18.8368 7.6776 18.0187 6.13827 17.2982 5.41418L18.3614 4.35611C19.3435 5.34295 20.253 7.1673 20.8143 9.26184C21.3755 11.3564 21.5 13.3911 21.1429 14.7368L19.6931 14.3521Z" fill="#303030"/>
</svg>
