<?xml version="1.0" encoding="UTF-8"?>
<svg width="24px" height="24px" viewBox="0 0 24 24" version="1.1" xmlns="http://www.w3.org/2000/svg" xmlns:xlink="http://www.w3.org/1999/xlink" style="background: #181818;">
    <!-- Generator: sketchtool 61 (101010) - https://sketch.com -->
    <title>1A869669-CEFD-4DD3-BFCF-34DE294F58BF</title>
    <desc>Created with sketchtool.</desc>
    <g id="Symbols" stroke="none" stroke-width="1" fill="none" fill-rule="evenodd">
        <g id="Icon-/-a.HubStatusIcon-Armed">
            <rect fill="none" x="0" y="0" width="24" height="24"></rect>
            <path d="M5.25,12 C5.25,15.7203365 8.27207794,18.75 12,18.75 C15.7203365,18.75 18.75,15.7279221 18.75,12 C18.75,8.27966351 15.7279221,5.25 12,5.25 C8.27966351,5.25 5.25,8.27207794 5.25,12 Z M3,12 C3,7.03166407 7.03479364,3 12,3 C16.9683359,3 21,7.03479364 21,12 C21,16.9683359 16.9652064,21 12,21 C7.03166407,21 3,16.9652064 3,12 Z" id="ico" fill="#5AE4AA"></path>
        </g>
        <g id="Titles" transform="translate(-2096.000000, -166.000000)"></g>
    </g>
</svg>