<svg width="200" height="140" viewBox="0 0 200 140" fill="none" xmlns="http://www.w3.org/2000/svg">
<g opacity="0.6">
<g clip-path="url(#clip0)">
<path fill-rule="evenodd" clip-rule="evenodd" d="M148 -11C168.435 -11 185 5.46718 185 25.7805V93H111V25.7805C111 5.46718 127.565 -11 148 -11Z" fill="#181818" stroke="#787878"/>
<path fill-rule="evenodd" clip-rule="evenodd" d="M89.2308 115.774H119.438L111.936 80.9596C111.936 80.9596 124.633 68.7924 129.609 43.5944C131.82 32.373 132.271 10.4541 132.271 10.4541V0.646484H89.2308V10.4541V80.9794V115.774ZM205.107 115.774H175.506L183.015 80.9596C183.015 80.9596 170.315 68.7924 165.339 43.5944C163.127 32.373 162.068 10.4541 162.068 10.4541V0.646484H205.107V10.4541V80.9794V115.774Z" fill="#181818"/>
<path d="M162.068 10.4541H205.107M162.068 10.4541C162.068 10.4541 163.127 32.373 165.339 43.5944C170.315 68.7924 183.015 80.9596 183.015 80.9596L175.506 115.774H205.107V80.9794V10.4541M162.068 10.4541V0.646484H205.107V10.4541M97.9182 59.9207V79.5228M100.881 79.5228V96.2346M193.301 79.4241V96.2346M196.811 59.9207V79.5228M89.0752 79.5228H113.27M181.68 79.5228H205.107M132.271 10.4541C132.271 10.4541 131.82 32.373 129.609 43.5944C124.633 68.7924 111.936 80.9596 111.936 80.9596L119.438 115.774H89.2308V80.9794V10.4541M132.271 10.4541V0.646484H89.2308V10.4541M132.271 10.4541H89.2308M104.599 79.5228C104.599 79.5228 112.29 68.7891 115.31 43.5944C116.644 32.373 116.323 17.9252 116.323 17.9252M190.514 79.5228C190.514 79.5228 182.823 68.7891 179.807 43.5944C178.466 32.373 178.794 17.9252 178.794 17.9252" stroke="#787878"/>
<path d="M62.8851 139.718H20.3278M41.6065 61.5113V139.718M35.0592 25.6665H48.1537L67.7956 61.5113H15.4174L35.0592 25.6665Z" stroke="#787878"/>
<rect width="53.914" height="11.6667" transform="translate(7.03223 7)" fill="#303030"/>
<path d="M10.8447 15V10.4492H12.458C12.5908 10.4492 12.7249 10.4583 12.8604 10.4766C12.9984 10.4948 13.1312 10.5234 13.2588 10.5625C13.3864 10.6016 13.5062 10.6523 13.6182 10.7148C13.7301 10.7773 13.8265 10.8555 13.9072 10.9492C13.9906 11.0404 14.0557 11.1471 14.1025 11.2695C14.1494 11.3919 14.1729 11.5326 14.1729 11.6914C14.1729 11.8164 14.152 11.9297 14.1104 12.0312C14.0687 12.1302 14.0127 12.2188 13.9424 12.2969C13.8747 12.3724 13.7939 12.4388 13.7002 12.4961C13.609 12.5508 13.5114 12.5964 13.4072 12.6328C13.5348 12.6641 13.6533 12.7096 13.7627 12.7695C13.8721 12.8294 13.9658 12.9049 14.0439 12.9961C14.1247 13.0846 14.1885 13.1888 14.2354 13.3086C14.2822 13.4258 14.3057 13.556 14.3057 13.6992C14.3057 13.8581 14.2835 14 14.2393 14.125C14.195 14.25 14.1338 14.3607 14.0557 14.457C13.9775 14.5534 13.8838 14.6354 13.7744 14.7031C13.6676 14.7708 13.5518 14.8268 13.4268 14.8711C13.3018 14.9154 13.1702 14.9479 13.0322 14.9688C12.8968 14.9896 12.7601 15 12.6221 15H10.8447ZM11.5752 12.9297V14.4102H12.6221C12.7367 14.4076 12.8512 14.3945 12.9658 14.3711C13.0804 14.3451 13.1833 14.3047 13.2744 14.25C13.3656 14.1927 13.4385 14.1198 13.4932 14.0312C13.5505 13.9401 13.5791 13.8281 13.5791 13.6953C13.5791 13.5599 13.5544 13.4453 13.5049 13.3516C13.4554 13.2552 13.3877 13.1771 13.3018 13.1172C13.2184 13.0547 13.1208 13.0091 13.0088 12.9805C12.8968 12.9492 12.7796 12.9323 12.6572 12.9297H11.5752ZM11.5752 12.3789H12.5479C12.652 12.3763 12.7575 12.3646 12.8643 12.3438C12.971 12.3203 13.0674 12.2839 13.1533 12.2344C13.2393 12.1823 13.3096 12.1146 13.3643 12.0312C13.4215 11.9479 13.4502 11.8451 13.4502 11.7227C13.4502 11.5872 13.4202 11.4766 13.3604 11.3906C13.3005 11.3021 13.2223 11.2331 13.126 11.1836C13.0296 11.1341 12.9229 11.1003 12.8057 11.082C12.6885 11.0612 12.5739 11.0495 12.4619 11.0469H11.5752V12.3789ZM18.6064 12.9453H16.3564V14.4102H18.9736V15H15.6182V10.4492H18.9502V11.0469H16.3564V12.3516H18.6064V12.9453ZM20.3564 15V10.4492H21.7744C22.0895 10.4544 22.3799 10.5091 22.6455 10.6133C22.9137 10.7174 23.1442 10.8646 23.3369 11.0547C23.5322 11.2422 23.6846 11.4674 23.7939 11.7305C23.9059 11.9935 23.9632 12.2852 23.9658 12.6055V12.8516C23.9632 13.1797 23.9046 13.4753 23.79 13.7383C23.6755 14.0013 23.5179 14.2266 23.3174 14.4141C23.1195 14.599 22.8851 14.7422 22.6143 14.8438C22.3434 14.9453 22.0479 14.9974 21.7275 15H20.3564ZM21.083 11.0469V14.4102H21.7275C21.9671 14.4076 22.1794 14.3698 22.3643 14.2969C22.5518 14.2214 22.7093 14.1159 22.8369 13.9805C22.9671 13.8451 23.0661 13.6823 23.1338 13.4922C23.2041 13.2995 23.2406 13.0859 23.2432 12.8516V12.5977C23.2406 12.3685 23.2067 12.1602 23.1416 11.9727C23.0791 11.7826 22.9854 11.6198 22.8604 11.4844C22.738 11.3464 22.5856 11.2396 22.4033 11.1641C22.221 11.0885 22.0114 11.0495 21.7744 11.0469H21.083ZM26.8252 13.2461H25.7314V15H25.0088V10.4492H26.6729C26.8916 10.4518 27.1051 10.4792 27.3135 10.5312C27.5244 10.5833 27.7106 10.6654 27.8721 10.7773C28.0361 10.8893 28.1663 11.0326 28.2627 11.207C28.3617 11.3815 28.4111 11.5924 28.4111 11.8398C28.4111 12.0039 28.3877 12.1484 28.3408 12.2734C28.2939 12.3984 28.2288 12.5104 28.1455 12.6094C28.0622 12.7057 27.9632 12.7917 27.8486 12.8672C27.7367 12.9401 27.6156 13.0052 27.4854 13.0625L28.6182 14.9609V15H27.8408L26.8252 13.2461ZM25.7314 12.6562H26.6924C26.8148 12.6536 26.9346 12.6367 27.0518 12.6055C27.1715 12.5742 27.277 12.5273 27.3682 12.4648C27.4619 12.3997 27.5374 12.319 27.5947 12.2227C27.6546 12.1237 27.6846 12.0052 27.6846 11.8672C27.6846 11.7214 27.6559 11.5977 27.5986 11.4961C27.5439 11.3919 27.4697 11.3073 27.376 11.2422C27.2822 11.1771 27.1742 11.1289 27.0518 11.0977C26.9294 11.0664 26.8031 11.0495 26.6729 11.0469H25.7314V12.6562ZM33.54 12.8594C33.5374 13.1458 33.4958 13.4219 33.415 13.6875C33.3369 13.9531 33.2184 14.1875 33.0596 14.3906C32.9033 14.5938 32.708 14.7565 32.4736 14.8789C32.2393 15.0013 31.9658 15.0625 31.6533 15.0625C31.3434 15.0625 31.0713 15.0013 30.8369 14.8789C30.6025 14.7565 30.4059 14.5938 30.2471 14.3906C30.0882 14.1849 29.9671 13.9492 29.8838 13.6836C29.8031 13.418 29.7614 13.1432 29.7588 12.8594V12.5977C29.7614 12.3138 29.8031 12.0391 29.8838 11.7734C29.9645 11.5078 30.0843 11.2721 30.2432 11.0664C30.402 10.8607 30.5986 10.6966 30.833 10.5742C31.0674 10.4492 31.3395 10.3867 31.6494 10.3867C31.9619 10.3867 32.2354 10.4479 32.4697 10.5703C32.7067 10.6927 32.9033 10.8568 33.0596 11.0625C33.2184 11.2656 33.3369 11.5013 33.415 11.7695C33.4958 12.0352 33.5374 12.3112 33.54 12.5977V12.8594ZM32.8252 12.5898C32.8226 12.4049 32.8005 12.2174 32.7588 12.0273C32.7197 11.8372 32.6546 11.6667 32.5635 11.5156C32.4723 11.362 32.3512 11.237 32.2002 11.1406C32.0518 11.0443 31.8682 10.9961 31.6494 10.9961C31.4307 10.9961 31.2471 11.0456 31.0986 11.1445C30.9502 11.2409 30.8291 11.3659 30.7354 11.5195C30.6442 11.6732 30.5778 11.8451 30.5361 12.0352C30.4971 12.2227 30.4762 12.4076 30.4736 12.5898V12.8594C30.4762 13.0443 30.4984 13.2318 30.54 13.4219C30.5817 13.6094 30.6481 13.7812 30.7393 13.9375C30.833 14.0911 30.9541 14.2174 31.1025 14.3164C31.251 14.4128 31.4346 14.4609 31.6533 14.4609C31.8747 14.4609 32.0596 14.4128 32.208 14.3164C32.359 14.2174 32.4788 14.0911 32.5674 13.9375C32.6585 13.7839 32.7236 13.612 32.7627 13.4219C32.8018 13.2318 32.8226 13.0443 32.8252 12.8594V12.5898ZM38.3447 12.8594C38.3421 13.1458 38.3005 13.4219 38.2197 13.6875C38.1416 13.9531 38.0231 14.1875 37.8643 14.3906C37.708 14.5938 37.5127 14.7565 37.2783 14.8789C37.0439 15.0013 36.7705 15.0625 36.458 15.0625C36.1481 15.0625 35.876 15.0013 35.6416 14.8789C35.4072 14.7565 35.2106 14.5938 35.0518 14.3906C34.8929 14.1849 34.7718 13.9492 34.6885 13.6836C34.6077 13.418 34.5661 13.1432 34.5635 12.8594V12.5977C34.5661 12.3138 34.6077 12.0391 34.6885 11.7734C34.7692 11.5078 34.889 11.2721 35.0479 11.0664C35.2067 10.8607 35.4033 10.6966 35.6377 10.5742C35.8721 10.4492 36.1442 10.3867 36.4541 10.3867C36.7666 10.3867 37.04 10.4479 37.2744 10.5703C37.5114 10.6927 37.708 10.8568 37.8643 11.0625C38.0231 11.2656 38.1416 11.5013 38.2197 11.7695C38.3005 12.0352 38.3421 12.3112 38.3447 12.5977V12.8594ZM37.6299 12.5898C37.6273 12.4049 37.6051 12.2174 37.5635 12.0273C37.5244 11.8372 37.4593 11.6667 37.3682 11.5156C37.277 11.362 37.1559 11.237 37.0049 11.1406C36.8564 11.0443 36.6729 10.9961 36.4541 10.9961C36.2354 10.9961 36.0518 11.0456 35.9033 11.1445C35.7549 11.2409 35.6338 11.3659 35.54 11.5195C35.4489 11.6732 35.3825 11.8451 35.3408 12.0352C35.3018 12.2227 35.2809 12.4076 35.2783 12.5898V12.8594C35.2809 13.0443 35.3031 13.2318 35.3447 13.4219C35.3864 13.6094 35.4528 13.7812 35.5439 13.9375C35.6377 14.0911 35.7588 14.2174 35.9072 14.3164C36.0557 14.4128 36.2393 14.4609 36.458 14.4609C36.6794 14.4609 36.8643 14.4128 37.0127 14.3164C37.1637 14.2174 37.2835 14.0911 37.3721 13.9375C37.4632 13.7839 37.5283 13.612 37.5674 13.4219C37.6064 13.2318 37.6273 13.0443 37.6299 12.8594V12.5898ZM41.2861 12.6562L42.1455 10.4492H43.0869V15H42.3994V11.2539L41.5479 13.7578H41.0361L40.1533 11.3086V15H39.4658V10.4492H40.4346L41.2861 12.6562Z" fill="#DBDBDB"/>
<circle cx="54.0322" cy="12" r="3" fill="#DBDBDB"/>
<rect width="55" height="10" transform="translate(157 6)" fill="#303030"/>
<path d="M161.023 14V8.3125H160.965L158.812 9.14062V9.80078L160.301 9.23438V14H161.023ZM166.973 14V13.4102H164.117L165.645 11.7539C165.788 11.5977 165.923 11.4414 166.051 11.2852C166.181 11.1263 166.296 10.9661 166.395 10.8047C166.491 10.6432 166.568 10.4805 166.625 10.3164C166.682 10.1497 166.711 9.98177 166.711 9.8125C166.711 9.58594 166.671 9.3763 166.59 9.18359C166.512 8.99089 166.398 8.82422 166.25 8.68359C166.102 8.54297 165.919 8.43359 165.703 8.35547C165.49 8.27474 165.249 8.23438 164.98 8.23438C164.689 8.23438 164.428 8.28125 164.199 8.375C163.973 8.46875 163.781 8.59505 163.625 8.75391C163.466 8.91276 163.345 9.09896 163.262 9.3125C163.178 9.52344 163.137 9.7487 163.137 9.98828H163.863C163.863 9.8112 163.885 9.65104 163.93 9.50781C163.977 9.36458 164.047 9.24219 164.141 9.14062C164.232 9.04167 164.346 8.96484 164.484 8.91016C164.625 8.85547 164.79 8.82812 164.98 8.82812C165.137 8.82812 165.276 8.85547 165.398 8.91016C165.523 8.96224 165.63 9.03385 165.719 9.125C165.805 9.21615 165.87 9.32422 165.914 9.44922C165.961 9.57161 165.984 9.70312 165.984 9.84375C165.984 9.95833 165.97 10.0703 165.941 10.1797C165.913 10.2865 165.865 10.3997 165.797 10.5195C165.729 10.6419 165.639 10.7747 165.527 10.918C165.415 11.0612 165.276 11.2253 165.109 11.4102L163.246 13.4805V14H166.973ZM169.742 13.5312C169.742 13.6823 169.789 13.8112 169.883 13.918C169.979 14.0221 170.121 14.0742 170.309 14.0742C170.493 14.0742 170.635 14.0221 170.734 13.918C170.833 13.8138 170.883 13.6849 170.883 13.5312C170.883 13.375 170.833 13.2435 170.734 13.1367C170.638 13.0273 170.496 12.9727 170.309 12.9727C170.118 12.9727 169.977 13.0273 169.883 13.1367C169.789 13.2461 169.742 13.3776 169.742 13.5312ZM169.742 10.1094C169.742 10.2604 169.789 10.3893 169.883 10.4961C169.979 10.6003 170.121 10.6523 170.309 10.6523C170.493 10.6523 170.635 10.6003 170.734 10.4961C170.833 10.3919 170.883 10.263 170.883 10.1094C170.883 9.95312 170.833 9.82161 170.734 9.71484C170.638 9.60547 170.496 9.55078 170.309 9.55078C170.118 9.55078 169.977 9.60547 169.883 9.71484C169.789 9.82422 169.742 9.95573 169.742 10.1094ZM176.023 12.0898V8.3125H175.254L172.707 12.2539V12.6797H175.301V14H176.023V12.6797H176.816V12.0898H176.023ZM173.508 12.0898L175.184 9.49219L175.301 9.27344V12.0898H173.508ZM181.387 14V13.4102H178.531L180.059 11.7539C180.202 11.5977 180.337 11.4414 180.465 11.2852C180.595 11.1263 180.71 10.9661 180.809 10.8047C180.905 10.6432 180.982 10.4805 181.039 10.3164C181.096 10.1497 181.125 9.98177 181.125 9.8125C181.125 9.58594 181.085 9.3763 181.004 9.18359C180.926 8.99089 180.812 8.82422 180.664 8.68359C180.516 8.54297 180.333 8.43359 180.117 8.35547C179.904 8.27474 179.663 8.23438 179.395 8.23438C179.103 8.23438 178.842 8.28125 178.613 8.375C178.387 8.46875 178.195 8.59505 178.039 8.75391C177.88 8.91276 177.759 9.09896 177.676 9.3125C177.592 9.52344 177.551 9.7487 177.551 9.98828H178.277C178.277 9.8112 178.299 9.65104 178.344 9.50781C178.391 9.36458 178.461 9.24219 178.555 9.14062C178.646 9.04167 178.76 8.96484 178.898 8.91016C179.039 8.85547 179.204 8.82812 179.395 8.82812C179.551 8.82812 179.69 8.85547 179.812 8.91016C179.938 8.96224 180.044 9.03385 180.133 9.125C180.219 9.21615 180.284 9.32422 180.328 9.44922C180.375 9.57161 180.398 9.70312 180.398 9.84375C180.398 9.95833 180.384 10.0703 180.355 10.1797C180.327 10.2865 180.279 10.3997 180.211 10.5195C180.143 10.6419 180.053 10.7747 179.941 10.918C179.829 11.0612 179.69 11.2253 179.523 11.4102L177.66 13.4805V14H181.387ZM184.156 13.5312C184.156 13.6823 184.203 13.8112 184.297 13.918C184.393 14.0221 184.535 14.0742 184.723 14.0742C184.908 14.0742 185.049 14.0221 185.148 13.918C185.247 13.8138 185.297 13.6849 185.297 13.5312C185.297 13.375 185.247 13.2435 185.148 13.1367C185.052 13.0273 184.91 12.9727 184.723 12.9727C184.533 12.9727 184.391 13.0273 184.297 13.1367C184.203 13.2461 184.156 13.3776 184.156 13.5312ZM184.156 10.1094C184.156 10.2604 184.203 10.3893 184.297 10.4961C184.393 10.6003 184.535 10.6523 184.723 10.6523C184.908 10.6523 185.049 10.6003 185.148 10.4961C185.247 10.3919 185.297 10.263 185.297 10.1094C185.297 9.95312 185.247 9.82161 185.148 9.71484C185.052 9.60547 184.91 9.55078 184.723 9.55078C184.533 9.55078 184.391 9.60547 184.297 9.71484C184.203 9.82422 184.156 9.95573 184.156 10.1094ZM191.078 11.8242V10.4922C191.078 10.1302 191.036 9.8099 190.953 9.53125C190.87 9.25 190.75 9.01302 190.594 8.82031C190.435 8.6276 190.241 8.48177 190.012 8.38281C189.785 8.28125 189.526 8.23047 189.234 8.23047C188.945 8.23047 188.686 8.28125 188.457 8.38281C188.23 8.48177 188.039 8.6276 187.883 8.82031C187.724 9.01302 187.603 9.25 187.52 9.53125C187.436 9.8099 187.395 10.1302 187.395 10.4922V11.8242C187.395 12.1862 187.436 12.5078 187.52 12.7891C187.603 13.0677 187.724 13.3021 187.883 13.4922C188.042 13.6875 188.236 13.8346 188.465 13.9336C188.694 14.0299 188.953 14.0781 189.242 14.0781C189.534 14.0781 189.793 14.0286 190.02 13.9297C190.246 13.8307 190.438 13.6849 190.594 13.4922C190.75 13.3021 190.87 13.0677 190.953 12.7891C191.036 12.5078 191.078 12.1862 191.078 11.8242ZM188.121 11.6797C188.121 11.612 188.121 11.5456 188.121 11.4805C188.121 11.4154 188.121 11.3503 188.121 11.2852V10.332C188.121 10.0664 188.147 9.83333 188.199 9.63281C188.254 9.42969 188.336 9.26432 188.445 9.13672C188.536 9.03516 188.647 8.95833 188.777 8.90625C188.91 8.85156 189.062 8.82422 189.234 8.82422C189.404 8.82422 189.552 8.84896 189.68 8.89844C189.81 8.94792 189.919 9.02214 190.008 9.12109C190.099 9.21745 190.171 9.33854 190.223 9.48438C190.277 9.6276 190.315 9.79297 190.336 9.98047L188.121 11.6797ZM190.352 11.9766C190.352 12.2552 190.323 12.4974 190.266 12.7031C190.211 12.9089 190.124 13.0755 190.004 13.2031C189.915 13.2969 189.807 13.3685 189.68 13.418C189.552 13.4674 189.406 13.4922 189.242 13.4922C189.086 13.4922 188.945 13.4701 188.82 13.4258C188.695 13.3789 188.589 13.3112 188.5 13.2227C188.404 13.1289 188.326 13.0104 188.266 12.8672C188.206 12.7214 188.164 12.5534 188.141 12.3633L190.352 10.6719C190.352 10.7448 190.352 10.8372 190.352 10.9492C190.352 11.0586 190.352 11.1328 190.352 11.1719V11.9766ZM195.812 9.79688C195.812 9.54948 195.77 9.32943 195.684 9.13672C195.598 8.94141 195.479 8.77734 195.328 8.64453C195.177 8.51172 194.999 8.41016 194.793 8.33984C194.587 8.26953 194.365 8.23438 194.125 8.23438C193.883 8.23438 193.659 8.26953 193.453 8.33984C193.25 8.41016 193.076 8.51172 192.93 8.64453C192.781 8.77734 192.665 8.94141 192.582 9.13672C192.499 9.32943 192.457 9.54948 192.457 9.79688C192.457 9.9375 192.477 10.0716 192.516 10.1992C192.555 10.3268 192.609 10.444 192.68 10.5508C192.75 10.6602 192.836 10.7591 192.938 10.8477C193.039 10.9336 193.152 11.0078 193.277 11.0703C193.132 11.1328 193 11.2109 192.883 11.3047C192.766 11.3984 192.665 11.5039 192.582 11.6211C192.499 11.7409 192.435 11.8724 192.391 12.0156C192.346 12.1562 192.324 12.306 192.324 12.4648C192.324 12.7253 192.371 12.9557 192.465 13.1562C192.559 13.3568 192.688 13.5247 192.852 13.6602C193.013 13.7982 193.203 13.9023 193.422 13.9727C193.643 14.043 193.882 14.0781 194.137 14.0781C194.387 14.0781 194.621 14.043 194.84 13.9727C195.059 13.8997 195.25 13.7943 195.414 13.6562C195.576 13.5208 195.703 13.3529 195.797 13.1523C195.893 12.9518 195.941 12.7227 195.941 12.4648C195.941 12.306 195.918 12.1562 195.871 12.0156C195.827 11.875 195.763 11.7448 195.68 11.625C195.594 11.5052 195.491 11.3997 195.371 11.3086C195.254 11.2148 195.122 11.1367 194.977 11.0742C195.06 11.0326 195.138 10.9857 195.211 10.9336C195.284 10.8815 195.35 10.8255 195.41 10.7656C195.535 10.6406 195.633 10.4961 195.703 10.332C195.773 10.1654 195.81 9.98698 195.812 9.79688ZM195.219 12.4492C195.219 12.6133 195.191 12.7604 195.137 12.8906C195.085 13.0182 195.012 13.1263 194.918 13.2148C194.822 13.3034 194.707 13.3711 194.574 13.418C194.441 13.4648 194.296 13.4883 194.137 13.4883C193.97 13.4883 193.819 13.4648 193.684 13.418C193.551 13.3711 193.438 13.3034 193.344 13.2148C193.25 13.1263 193.177 13.0182 193.125 12.8906C193.076 12.7604 193.051 12.6133 193.051 12.4492C193.051 12.2904 193.076 12.1445 193.125 12.0117C193.177 11.8789 193.25 11.7643 193.344 11.668C193.438 11.5742 193.551 11.5013 193.684 11.4492C193.816 11.3971 193.965 11.3711 194.129 11.3711C194.288 11.3711 194.434 11.3971 194.566 11.4492C194.702 11.5013 194.818 11.5742 194.914 11.668C195.01 11.7643 195.085 11.8789 195.137 12.0117C195.191 12.1445 195.219 12.2904 195.219 12.4492ZM195.086 9.80859C195.086 9.95443 195.062 10.0872 195.016 10.207C194.969 10.3268 194.904 10.4284 194.82 10.5117C194.734 10.5977 194.633 10.6641 194.516 10.7109C194.398 10.7552 194.271 10.7773 194.133 10.7773C193.992 10.7773 193.863 10.7552 193.746 10.7109C193.632 10.6641 193.533 10.5977 193.449 10.5117C193.363 10.4284 193.297 10.3281 193.25 10.2109C193.206 10.0911 193.184 9.95703 193.184 9.80859C193.184 9.66016 193.206 9.52604 193.25 9.40625C193.297 9.28385 193.362 9.17969 193.445 9.09375C193.529 9.00781 193.628 8.94271 193.742 8.89844C193.857 8.85156 193.984 8.82812 194.125 8.82812C194.266 8.82812 194.395 8.85286 194.512 8.90234C194.629 8.94922 194.73 9.01562 194.816 9.10156C194.9 9.1901 194.965 9.29427 195.012 9.41406C195.061 9.53385 195.086 9.66536 195.086 9.80859ZM198.57 13.5312C198.57 13.6823 198.617 13.8112 198.711 13.918C198.807 14.0221 198.949 14.0742 199.137 14.0742C199.322 14.0742 199.464 14.0221 199.562 13.918C199.661 13.8138 199.711 13.6849 199.711 13.5312C199.711 13.375 199.661 13.2435 199.562 13.1367C199.466 13.0273 199.324 12.9727 199.137 12.9727C198.947 12.9727 198.805 13.0273 198.711 13.1367C198.617 13.2461 198.57 13.3776 198.57 13.5312ZM198.57 10.1094C198.57 10.2604 198.617 10.3893 198.711 10.4961C198.807 10.6003 198.949 10.6523 199.137 10.6523C199.322 10.6523 199.464 10.6003 199.562 10.4961C199.661 10.3919 199.711 10.263 199.711 10.1094C199.711 9.95312 199.661 9.82161 199.562 9.71484C199.466 9.60547 199.324 9.55078 199.137 9.55078C198.947 9.55078 198.805 9.60547 198.711 9.71484C198.617 9.82422 198.57 9.95573 198.57 10.1094ZM205.492 11.8242V10.4922C205.492 10.1302 205.451 9.8099 205.367 9.53125C205.284 9.25 205.164 9.01302 205.008 8.82031C204.849 8.6276 204.655 8.48177 204.426 8.38281C204.199 8.28125 203.94 8.23047 203.648 8.23047C203.359 8.23047 203.1 8.28125 202.871 8.38281C202.645 8.48177 202.453 8.6276 202.297 8.82031C202.138 9.01302 202.017 9.25 201.934 9.53125C201.85 9.8099 201.809 10.1302 201.809 10.4922V11.8242C201.809 12.1862 201.85 12.5078 201.934 12.7891C202.017 13.0677 202.138 13.3021 202.297 13.4922C202.456 13.6875 202.65 13.8346 202.879 13.9336C203.108 14.0299 203.367 14.0781 203.656 14.0781C203.948 14.0781 204.207 14.0286 204.434 13.9297C204.66 13.8307 204.852 13.6849 205.008 13.4922C205.164 13.3021 205.284 13.0677 205.367 12.7891C205.451 12.5078 205.492 12.1862 205.492 11.8242ZM202.535 11.6797C202.535 11.612 202.535 11.5456 202.535 11.4805C202.535 11.4154 202.535 11.3503 202.535 11.2852V10.332C202.535 10.0664 202.561 9.83333 202.613 9.63281C202.668 9.42969 202.75 9.26432 202.859 9.13672C202.951 9.03516 203.061 8.95833 203.191 8.90625C203.324 8.85156 203.477 8.82422 203.648 8.82422C203.818 8.82422 203.966 8.84896 204.094 8.89844C204.224 8.94792 204.333 9.02214 204.422 9.12109C204.513 9.21745 204.585 9.33854 204.637 9.48438C204.691 9.6276 204.729 9.79297 204.75 9.98047L202.535 11.6797ZM204.766 11.9766C204.766 12.2552 204.737 12.4974 204.68 12.7031C204.625 12.9089 204.538 13.0755 204.418 13.2031C204.329 13.2969 204.221 13.3685 204.094 13.418C203.966 13.4674 203.82 13.4922 203.656 13.4922C203.5 13.4922 203.359 13.4701 203.234 13.4258C203.109 13.3789 203.003 13.3112 202.914 13.2227C202.818 13.1289 202.74 13.0104 202.68 12.8672C202.62 12.7214 202.578 12.5534 202.555 12.3633L204.766 10.6719C204.766 10.7448 204.766 10.8372 204.766 10.9492C204.766 11.0586 204.766 11.1328 204.766 11.1719V11.9766ZM210.215 14V13.4102H207.359L208.887 11.7539C209.03 11.5977 209.165 11.4414 209.293 11.2852C209.423 11.1263 209.538 10.9661 209.637 10.8047C209.733 10.6432 209.81 10.4805 209.867 10.3164C209.924 10.1497 209.953 9.98177 209.953 9.8125C209.953 9.58594 209.913 9.3763 209.832 9.18359C209.754 8.99089 209.641 8.82422 209.492 8.68359C209.344 8.54297 209.161 8.43359 208.945 8.35547C208.732 8.27474 208.491 8.23438 208.223 8.23438C207.931 8.23438 207.671 8.28125 207.441 8.375C207.215 8.46875 207.023 8.59505 206.867 8.75391C206.708 8.91276 206.587 9.09896 206.504 9.3125C206.421 9.52344 206.379 9.7487 206.379 9.98828H207.105C207.105 9.8112 207.128 9.65104 207.172 9.50781C207.219 9.36458 207.289 9.24219 207.383 9.14062C207.474 9.04167 207.589 8.96484 207.727 8.91016C207.867 8.85547 208.033 8.82812 208.223 8.82812C208.379 8.82812 208.518 8.85547 208.641 8.91016C208.766 8.96224 208.872 9.03385 208.961 9.125C209.047 9.21615 209.112 9.32422 209.156 9.44922C209.203 9.57161 209.227 9.70312 209.227 9.84375C209.227 9.95833 209.212 10.0703 209.184 10.1797C209.155 10.2865 209.107 10.3997 209.039 10.5195C208.971 10.6419 208.882 10.7747 208.77 10.918C208.658 11.0612 208.518 11.2253 208.352 11.4102L206.488 13.4805V14H210.215Z" fill="#DBDBDB"/>
</g>
<rect x="0.5" y="0.5" width="217" height="139" stroke="#ADADAD"/>
</g>
<defs>
<clipPath id="clip0">
</clipPath>
</defs>
</svg>
