<svg width="248" height="115" viewBox="0 0 248 115" fill="none" xmlns="http://www.w3.org/2000/svg">
<g opacity="0.6">
<rect x="0.5" y="7.5" width="180" height="100" fill="#181818"/>
<rect x="0.5" y="7.5" width="180" height="100" stroke="#787878"/>
<rect x="6.5" y="4.5" width="204" height="106" fill="#181818"/>
<rect x="6.5" y="4.5" width="204" height="106" stroke="#787878"/>
<rect x="12.5" y="0.5" width="235" height="114" fill="#181818"/>
<circle cx="200.999" cy="35.8548" r="10.3333" stroke="#DBDBDB"/>
<path d="M224.25 72.833C224.25 59.9924 213.841 49.583 201 49.583C188.159 49.583 177.75 59.9924 177.75 72.833" stroke="#DBDBDB"/>
<path d="M203.583 62.5L213.917 62.5" stroke="#DBDBDB"/>
<path d="M182.953 32.0547H210.521" stroke="#DBDBDB"/>
<rect x="170.5" y="16.5" width="61" height="61" rx="30.5" stroke="#787878"/>
<path d="M28.9902 28V19.4688H31.7793C32.7051 19.4688 33.4004 19.6602 33.8652 20.043C34.334 20.4258 34.5684 20.9922 34.5684 21.7422C34.5684 22.1406 34.4551 22.4941 34.2285 22.8027C34.002 23.1074 33.6934 23.3438 33.3027 23.5117C33.7637 23.6406 34.127 23.8867 34.3926 24.25C34.6621 24.6094 34.7969 25.0391 34.7969 25.5391C34.7969 26.3047 34.5488 26.9062 34.0527 27.3438C33.5566 27.7812 32.8555 28 31.9492 28H28.9902ZM30.1152 24.0098V27.0801H31.9727C32.4961 27.0801 32.9082 26.9453 33.209 26.6758C33.5137 26.4023 33.666 26.0273 33.666 25.5508C33.666 24.5234 33.1074 24.0098 31.9902 24.0098H30.1152ZM30.1152 23.1074H31.8145C32.3066 23.1074 32.6992 22.9844 32.9922 22.7383C33.2891 22.4922 33.4375 22.1582 33.4375 21.7363C33.4375 21.2676 33.3008 20.9277 33.0273 20.7168C32.7539 20.502 32.3379 20.3945 31.7793 20.3945H30.1152V23.1074ZM39.3613 22.6328C39.1973 22.6055 39.0195 22.5918 38.8281 22.5918C38.1172 22.5918 37.6348 22.8945 37.3809 23.5V28H36.2969V21.6602H37.3516L37.3691 22.3926C37.7246 21.8262 38.2285 21.543 38.8809 21.543C39.0918 21.543 39.252 21.5703 39.3613 21.625V22.6328ZM44.043 28C43.9805 27.875 43.9297 27.6523 43.8906 27.332C43.3867 27.8555 42.7852 28.1172 42.0859 28.1172C41.4609 28.1172 40.9473 27.9414 40.5449 27.5898C40.1465 27.2344 39.9473 26.7852 39.9473 26.2422C39.9473 25.582 40.1973 25.0703 40.6973 24.707C41.2012 24.3398 41.9082 24.1562 42.8184 24.1562H43.873V23.6582C43.873 23.2793 43.7598 22.9785 43.5332 22.7559C43.3066 22.5293 42.9727 22.416 42.5312 22.416C42.1445 22.416 41.8203 22.5137 41.5586 22.709C41.2969 22.9043 41.166 23.1406 41.166 23.418H40.0762C40.0762 23.1016 40.1875 22.7969 40.4102 22.5039C40.6367 22.207 40.9414 21.9727 41.3242 21.8008C41.7109 21.6289 42.1348 21.543 42.5957 21.543C43.3262 21.543 43.8984 21.7266 44.3125 22.0938C44.7266 22.457 44.9414 22.959 44.957 23.5996V26.5176C44.957 27.0996 45.0312 27.5625 45.1797 27.9062V28H44.043ZM42.2441 27.1738C42.584 27.1738 42.9062 27.0859 43.2109 26.9102C43.5156 26.7344 43.7363 26.5059 43.873 26.2246V24.9238H43.0234C41.6953 24.9238 41.0312 25.3125 41.0312 26.0898C41.0312 26.4297 41.1445 26.6953 41.3711 26.8867C41.5977 27.0781 41.8887 27.1738 42.2441 27.1738ZM47.6816 21.6602L47.7168 22.457C48.2012 21.8477 48.834 21.543 49.6152 21.543C50.9551 21.543 51.6309 22.2988 51.6426 23.8105V28H50.5586V23.8047C50.5547 23.3477 50.4492 23.0098 50.2422 22.791C50.0391 22.5723 49.7207 22.4629 49.2871 22.4629C48.9355 22.4629 48.627 22.5566 48.3613 22.7441C48.0957 22.9316 47.8887 23.1777 47.7402 23.4824V28H46.6562V21.6602H47.6816ZM53.0137 24.7773C53.0137 23.8047 53.2441 23.0234 53.7051 22.4336C54.166 21.8398 54.7695 21.543 55.5156 21.543C56.2578 21.543 56.8457 21.7969 57.2793 22.3047V19H58.3633V28H57.3672L57.3145 27.3203C56.8809 27.8516 56.2773 28.1172 55.5039 28.1172C54.7695 28.1172 54.1699 27.8164 53.7051 27.2148C53.2441 26.6133 53.0137 25.8281 53.0137 24.8594V24.7773ZM54.0977 24.9004C54.0977 25.6191 54.2461 26.1816 54.543 26.5879C54.8398 26.9941 55.25 27.1973 55.7734 27.1973C56.4609 27.1973 56.9629 26.8887 57.2793 26.2715V23.3594C56.9551 22.7617 56.457 22.4629 55.7852 22.4629C55.2539 22.4629 54.8398 22.668 54.543 23.0781C54.2461 23.4883 54.0977 24.0957 54.0977 24.9004ZM59.7637 24.7715C59.7637 24.1504 59.8848 23.5918 60.127 23.0957C60.373 22.5996 60.7129 22.2168 61.1465 21.9473C61.584 21.6777 62.082 21.543 62.6406 21.543C63.5039 21.543 64.2012 21.8418 64.7324 22.4395C65.2676 23.0371 65.5352 23.832 65.5352 24.8242V24.9004C65.5352 25.5176 65.416 26.0723 65.1777 26.5645C64.9434 27.0527 64.6055 27.4336 64.1641 27.707C63.7266 27.9805 63.2227 28.1172 62.6523 28.1172C61.793 28.1172 61.0957 27.8184 60.5605 27.2207C60.0293 26.623 59.7637 25.832 59.7637 24.8477V24.7715ZM60.8535 24.9004C60.8535 25.6035 61.0156 26.168 61.3398 26.5938C61.668 27.0195 62.1055 27.2324 62.6523 27.2324C63.2031 27.2324 63.6406 27.0176 63.9648 26.5879C64.2891 26.1543 64.4512 25.5488 64.4512 24.7715C64.4512 24.0762 64.2852 23.5137 63.9531 23.084C63.625 22.6504 63.1875 22.4336 62.6406 22.4336C62.1055 22.4336 61.6738 22.6465 61.3457 23.0723C61.0176 23.498 60.8535 24.1074 60.8535 24.9004ZM67.9199 21.6602L67.9551 22.457C68.4395 21.8477 69.0723 21.543 69.8535 21.543C71.1934 21.543 71.8691 22.2988 71.8809 23.8105V28H70.7969V23.8047C70.793 23.3477 70.6875 23.0098 70.4805 22.791C70.2773 22.5723 69.959 22.4629 69.5254 22.4629C69.1738 22.4629 68.8652 22.5566 68.5996 22.7441C68.334 22.9316 68.127 23.1777 67.9785 23.4824V28H66.8945V21.6602H67.9199ZM82.9375 25.293C82.832 26.1953 82.498 26.8926 81.9355 27.3848C81.377 27.873 80.6328 28.1172 79.7031 28.1172C78.6953 28.1172 77.8867 27.7559 77.2773 27.0332C76.6719 26.3105 76.3691 25.3438 76.3691 24.1328V23.3125C76.3691 22.5195 76.5098 21.8223 76.791 21.2207C77.0762 20.6191 77.4785 20.1582 77.998 19.8379C78.5176 19.5137 79.1191 19.3516 79.8027 19.3516C80.709 19.3516 81.4355 19.6055 81.9824 20.1133C82.5293 20.6172 82.8477 21.3164 82.9375 22.2109H81.8066C81.709 21.5312 81.4961 21.0391 81.168 20.7344C80.8438 20.4297 80.3887 20.2773 79.8027 20.2773C79.084 20.2773 78.5195 20.543 78.1094 21.0742C77.7031 21.6055 77.5 22.3613 77.5 23.3418V24.168C77.5 25.0938 77.6934 25.8301 78.0801 26.377C78.4668 26.9238 79.0078 27.1973 79.7031 27.1973C80.3281 27.1973 80.8066 27.0566 81.1387 26.7754C81.4746 26.4902 81.6973 25.9961 81.8066 25.293H82.9375ZM88.2227 28C88.1602 27.875 88.1094 27.6523 88.0703 27.332C87.5664 27.8555 86.9648 28.1172 86.2656 28.1172C85.6406 28.1172 85.127 27.9414 84.7246 27.5898C84.3262 27.2344 84.127 26.7852 84.127 26.2422C84.127 25.582 84.377 25.0703 84.877 24.707C85.3809 24.3398 86.0879 24.1562 86.998 24.1562H88.0527V23.6582C88.0527 23.2793 87.9395 22.9785 87.7129 22.7559C87.4863 22.5293 87.1523 22.416 86.7109 22.416C86.3242 22.416 86 22.5137 85.7383 22.709C85.4766 22.9043 85.3457 23.1406 85.3457 23.418H84.2559C84.2559 23.1016 84.3672 22.7969 84.5898 22.5039C84.8164 22.207 85.1211 21.9727 85.5039 21.8008C85.8906 21.6289 86.3145 21.543 86.7754 21.543C87.5059 21.543 88.0781 21.7266 88.4922 22.0938C88.9062 22.457 89.1211 22.959 89.1367 23.5996V26.5176C89.1367 27.0996 89.2109 27.5625 89.3594 27.9062V28H88.2227ZM86.4238 27.1738C86.7637 27.1738 87.0859 27.0859 87.3906 26.9102C87.6953 26.7344 87.916 26.5059 88.0527 26.2246V24.9238H87.2031C85.875 24.9238 85.2109 25.3125 85.2109 26.0898C85.2109 26.4297 85.3242 26.6953 85.5508 26.8867C85.7773 27.0781 86.0684 27.1738 86.4238 27.1738ZM92.0137 28H90.9297V19H92.0137V28ZM94.7734 27.1152H98.4824V28H93.4492V27.2031L96.9473 22.5566H93.502V21.6602H98.3066V22.4277L94.7734 27.1152ZM99.3262 24.7715C99.3262 24.1504 99.4473 23.5918 99.6895 23.0957C99.9355 22.5996 100.275 22.2168 100.709 21.9473C101.146 21.6777 101.645 21.543 102.203 21.543C103.066 21.543 103.764 21.8418 104.295 22.4395C104.83 23.0371 105.098 23.832 105.098 24.8242V24.9004C105.098 25.5176 104.979 26.0723 104.74 26.5645C104.506 27.0527 104.168 27.4336 103.727 27.707C103.289 27.9805 102.785 28.1172 102.215 28.1172C101.355 28.1172 100.658 27.8184 100.123 27.2207C99.5918 26.623 99.3262 25.832 99.3262 24.8477V24.7715ZM100.416 24.9004C100.416 25.6035 100.578 26.168 100.902 26.5938C101.23 27.0195 101.668 27.2324 102.215 27.2324C102.766 27.2324 103.203 27.0176 103.527 26.5879C103.852 26.1543 104.014 25.5488 104.014 24.7715C104.014 24.0762 103.848 23.5137 103.516 23.084C103.188 22.6504 102.75 22.4336 102.203 22.4336C101.668 22.4336 101.236 22.6465 100.908 23.0723C100.58 23.498 100.416 24.1074 100.416 24.9004ZM107.482 21.6602L107.518 22.457C108.002 21.8477 108.635 21.543 109.416 21.543C110.756 21.543 111.432 22.2988 111.443 23.8105V28H110.359V23.8047C110.355 23.3477 110.25 23.0098 110.043 22.791C109.84 22.5723 109.521 22.4629 109.088 22.4629C108.736 22.4629 108.428 22.5566 108.162 22.7441C107.896 22.9316 107.689 23.1777 107.541 23.4824V28H106.457V21.6602H107.482ZM114.256 28H113.172V21.6602H114.256V28ZM113.084 19.9785C113.084 19.8027 113.137 19.6543 113.242 19.5332C113.352 19.4121 113.512 19.3516 113.723 19.3516C113.934 19.3516 114.094 19.4121 114.203 19.5332C114.312 19.6543 114.367 19.8027 114.367 19.9785C114.367 20.1543 114.312 20.3008 114.203 20.418C114.094 20.5352 113.934 20.5938 113.723 20.5938C113.512 20.5938 113.352 20.5352 113.242 20.418C113.137 20.3008 113.084 20.1543 113.084 19.9785Z" fill="#DBDBDB"/>
<path d="M44.2891 68.8594V68.5977C44.2865 68.3112 44.2448 68.0352 44.1641 67.7695C44.0859 67.5013 43.9688 67.2643 43.8125 67.0586C43.6536 66.8555 43.4557 66.6927 43.2188 66.5703C42.9844 66.4479 42.7109 66.3867 42.3984 66.3867C42.0885 66.3867 41.8164 66.4492 41.582 66.5742C41.3477 66.6966 41.151 66.8607 40.9922 67.0664C40.8333 67.2721 40.7135 67.5078 40.6328 67.7734C40.5521 68.0391 40.5104 68.3138 40.5078 68.5977V68.8594C40.5104 69.1432 40.5521 69.418 40.6328 69.6836C40.7161 69.9492 40.8372 70.1836 40.9961 70.3867C41.1549 70.5924 41.3516 70.7565 41.5859 70.8789C41.8203 71.0013 42.0924 71.0625 42.4023 71.0625C42.7148 71.0625 42.9883 71.0013 43.2227 70.8789C43.457 70.7565 43.6536 70.5938 43.8125 70.3906C43.9688 70.1875 44.0859 69.9531 44.1641 69.6875C44.2448 69.4219 44.2865 69.1458 44.2891 68.8594ZM43.5742 68.5898V68.8594C43.5716 69.0443 43.5508 69.2318 43.5117 69.4219C43.4727 69.612 43.4089 69.7839 43.3203 69.9375C43.2292 70.0911 43.1081 70.2174 42.957 70.3164C42.8086 70.4128 42.6237 70.4609 42.4023 70.4609C42.1836 70.4609 42 70.4128 41.8516 70.3164C41.7031 70.2174 41.5833 70.0898 41.4922 69.9336C41.3984 69.7799 41.3307 69.6094 41.2891 69.4219C41.2474 69.2318 41.2253 69.0443 41.2227 68.8594V68.5898C41.2253 68.4076 41.2461 68.2227 41.2852 68.0352C41.3268 67.8451 41.3945 67.6732 41.4883 67.5195C41.5794 67.3659 41.6992 67.2409 41.8477 67.1445C41.9961 67.0456 42.1797 66.9961 42.3984 66.9961C42.6172 66.9961 42.8008 67.0443 42.9492 67.1406C43.1003 67.237 43.2214 67.3607 43.3125 67.5117C43.4036 67.6654 43.4688 67.8372 43.5078 68.0273C43.5495 68.2174 43.5716 68.4049 43.5742 68.5898ZM46.3203 69.2891H47.3906C47.6094 69.2865 47.8216 69.2578 48.0273 69.2031C48.2331 69.1484 48.4154 69.0638 48.5742 68.9492C48.7305 68.8372 48.8568 68.694 48.9531 68.5195C49.0495 68.3424 49.0977 68.1302 49.0977 67.8828C49.0977 67.6432 49.0495 67.4349 48.9531 67.2578C48.8568 67.0781 48.7292 66.9284 48.5703 66.8086C48.4115 66.6914 48.2292 66.6029 48.0234 66.543C47.8203 66.4831 47.6094 66.4518 47.3906 66.4492H45.6016V71H46.3203V69.2891ZM46.3203 68.6953V67.0469H47.3906C47.5182 67.0495 47.6419 67.069 47.7617 67.1055C47.8815 67.1419 47.987 67.194 48.0781 67.2617C48.1667 67.332 48.2383 67.4193 48.293 67.5234C48.3477 67.6276 48.375 67.75 48.375 67.8906C48.375 68.0339 48.3477 68.1562 48.293 68.2578C48.2383 68.3568 48.1667 68.4388 48.0781 68.5039C47.987 68.569 47.8815 68.6172 47.7617 68.6484C47.6419 68.6771 47.5182 68.6927 47.3906 68.6953H46.3203ZM53.3789 68.9453V68.3516H51.1289V67.0469H53.7227V66.4492H50.3906V71H53.7461V70.4102H51.1289V68.9453H53.3789ZM56.793 69.2461L57.8086 71H58.5859V70.9609L57.4531 69.0625C57.5833 69.0052 57.7044 68.9401 57.8164 68.8672C57.931 68.7917 58.0299 68.7044 58.1133 68.6055C58.1966 68.5091 58.2617 68.3984 58.3086 68.2734C58.3555 68.1484 58.3789 68.0039 58.3789 67.8398C58.3789 67.5924 58.3294 67.3815 58.2305 67.207C58.1341 67.0326 58.0052 66.8893 57.8438 66.7773C57.6797 66.6654 57.4922 66.5833 57.2812 66.5312C57.0729 66.4792 56.8594 66.4518 56.6406 66.4492H54.9766V71H55.6992V69.2461H56.793ZM55.6992 68.6562V67.0469H56.6406C56.7708 67.0495 56.8971 67.0664 57.0195 67.0977C57.1419 67.1289 57.25 67.1771 57.3438 67.2422C57.4375 67.3073 57.5117 67.3919 57.5664 67.4961C57.6237 67.5977 57.6523 67.7214 57.6523 67.8672C57.6523 68.0052 57.6224 68.1237 57.5625 68.2227C57.5052 68.319 57.431 68.3984 57.3398 68.4609C57.2461 68.526 57.1393 68.5742 57.0195 68.6055C56.9023 68.6367 56.7826 68.6536 56.6602 68.6562H55.6992ZM62.6172 69.9102L63.043 71H63.7734L61.9375 66.4492H61.293L59.4297 71H60.1641L60.5938 69.9102H62.6172ZM60.8281 69.3203L61.4922 67.6406L61.6094 67.3398L61.7305 67.6484L62.3867 69.3203H60.8281ZM68.4336 67.0469V66.4492H64.3867V67.0469H66.0391V71H66.7734V67.0469H68.4336ZM73.1172 68.8594V68.5977C73.1146 68.3112 73.0729 68.0352 72.9922 67.7695C72.9141 67.5013 72.7969 67.2643 72.6406 67.0586C72.4818 66.8555 72.2839 66.6927 72.0469 66.5703C71.8125 66.4479 71.5391 66.3867 71.2266 66.3867C70.9167 66.3867 70.6445 66.4492 70.4102 66.5742C70.1758 66.6966 69.9792 66.8607 69.8203 67.0664C69.6615 67.2721 69.5417 67.5078 69.4609 67.7734C69.3802 68.0391 69.3385 68.3138 69.3359 68.5977V68.8594C69.3385 69.1432 69.3802 69.418 69.4609 69.6836C69.5443 69.9492 69.6654 70.1836 69.8242 70.3867C69.9831 70.5924 70.1797 70.7565 70.4141 70.8789C70.6484 71.0013 70.9206 71.0625 71.2305 71.0625C71.543 71.0625 71.8164 71.0013 72.0508 70.8789C72.2852 70.7565 72.4818 70.5938 72.6406 70.3906C72.7969 70.1875 72.9141 69.9531 72.9922 69.6875C73.0729 69.4219 73.1146 69.1458 73.1172 68.8594ZM72.4023 68.5898V68.8594C72.3997 69.0443 72.3789 69.2318 72.3398 69.4219C72.3008 69.612 72.237 69.7839 72.1484 69.9375C72.0573 70.0911 71.9362 70.2174 71.7852 70.3164C71.6367 70.4128 71.4518 70.4609 71.2305 70.4609C71.0117 70.4609 70.8281 70.4128 70.6797 70.3164C70.5312 70.2174 70.4115 70.0898 70.3203 69.9336C70.2266 69.7799 70.1589 69.6094 70.1172 69.4219C70.0755 69.2318 70.0534 69.0443 70.0508 68.8594V68.5898C70.0534 68.4076 70.0742 68.2227 70.1133 68.0352C70.1549 67.8451 70.2227 67.6732 70.3164 67.5195C70.4076 67.3659 70.5273 67.2409 70.6758 67.1445C70.8242 67.0456 71.0078 66.9961 71.2266 66.9961C71.4453 66.9961 71.6289 67.0443 71.7773 67.1406C71.9284 67.237 72.0495 67.3607 72.1406 67.5117C72.2318 67.6654 72.2969 67.8372 72.3359 68.0273C72.3776 68.2174 72.3997 68.4049 72.4023 68.5898ZM76.0117 69.2461L77.0273 71H77.8047V70.9609L76.6719 69.0625C76.8021 69.0052 76.9232 68.9401 77.0352 68.8672C77.1497 68.7917 77.2487 68.7044 77.332 68.6055C77.4154 68.5091 77.4805 68.3984 77.5273 68.2734C77.5742 68.1484 77.5977 68.0039 77.5977 67.8398C77.5977 67.5924 77.5482 67.3815 77.4492 67.207C77.3529 67.0326 77.224 66.8893 77.0625 66.7773C76.8984 66.6654 76.7109 66.5833 76.5 66.5312C76.2917 66.4792 76.0781 66.4518 75.8594 66.4492H74.1953V71H74.918V69.2461H76.0117ZM74.918 68.6562V67.0469H75.8594C75.9896 67.0495 76.1159 67.0664 76.2383 67.0977C76.3607 67.1289 76.4688 67.1771 76.5625 67.2422C76.6562 67.3073 76.7305 67.3919 76.7852 67.4961C76.8424 67.5977 76.8711 67.7214 76.8711 67.8672C76.8711 68.0052 76.8411 68.1237 76.7812 68.2227C76.724 68.319 76.6497 68.3984 76.5586 68.4609C76.4648 68.526 76.3581 68.5742 76.2383 68.6055C76.1211 68.6367 76.0013 68.6536 75.8789 68.6562H74.918Z" fill="#DBDBDB"/>
<path d="M43.7695 44.9453V44.3516H41.5195V43.0469H44.1133V42.4492H40.7812V47H44.1367V46.4102H41.5195V44.9453H43.7695ZM48.8633 47V42.4492H48.1758L48.1992 45.875L46.2422 42.4492H45.5625V47H46.2539L46.2344 43.5781L48.1914 47H48.8633ZM53.8633 46.4141V44.6914H52.0664V45.2539H53.1484L53.1445 46.1836C53.0794 46.2461 53.0065 46.2969 52.9258 46.3359C52.8451 46.3724 52.7617 46.401 52.6758 46.4219C52.5872 46.4427 52.4974 46.457 52.4062 46.4648C52.3151 46.4701 52.2266 46.4727 52.1406 46.4727C51.9141 46.4727 51.7188 46.4284 51.5547 46.3398C51.3906 46.2487 51.2552 46.1302 51.1484 45.9844C51.0391 45.8385 50.9583 45.6706 50.9062 45.4805C50.8542 45.2904 50.8268 45.0938 50.8242 44.8906V44.5547C50.8268 44.3568 50.849 44.1641 50.8906 43.9766C50.9349 43.7865 51.0065 43.6172 51.1055 43.4688C51.2018 43.3203 51.3281 43.2018 51.4844 43.1133C51.6432 43.0247 51.8359 42.9805 52.0625 42.9805C52.224 42.9805 52.3685 43.0026 52.4961 43.0469C52.6237 43.0885 52.7344 43.1523 52.8281 43.2383C52.9062 43.3086 52.9714 43.3932 53.0234 43.4922C53.0781 43.5911 53.1198 43.7031 53.1484 43.8281H53.8633C53.8268 43.5911 53.7552 43.3828 53.6484 43.2031C53.5443 43.0208 53.4128 42.8698 53.2539 42.75C53.0951 42.6302 52.9128 42.5404 52.707 42.4805C52.5039 42.418 52.2865 42.3867 52.0547 42.3867C51.737 42.3867 51.4557 42.444 51.2109 42.5586C50.9688 42.6706 50.7656 42.8242 50.6016 43.0195C50.4375 43.2174 50.3125 43.4492 50.2266 43.7148C50.1406 43.9779 50.0964 44.2604 50.0938 44.5625V44.8906C50.0964 45.1927 50.1445 45.4753 50.2383 45.7383C50.3346 46.0013 50.4701 46.2305 50.6445 46.4258C50.819 46.6237 51.0312 46.7799 51.2812 46.8945C51.5312 47.0065 51.8138 47.0625 52.1289 47.0625C52.2852 47.0625 52.444 47.0521 52.6055 47.0312C52.7669 47.013 52.9232 46.9792 53.0742 46.9297C53.2253 46.8802 53.3672 46.8138 53.5 46.7305C53.6354 46.6471 53.7565 46.5417 53.8633 46.4141ZM55.2617 42.4531V43.082H56.4922V46.375H55.2617V47H58.4766V46.375H57.2148V43.082H58.4766V42.4531H55.2617ZM63.2773 47V42.4492H62.5898L62.6133 45.875L60.6562 42.4492H59.9766V47H60.668L60.6484 43.5781L62.6055 47H63.2773ZM67.793 44.9453V44.3516H65.543V43.0469H68.1367V42.4492H64.8047V47H68.1602V46.4102H65.543V44.9453H67.793ZM72.5977 44.9453V44.3516H70.3477V43.0469H72.9414V42.4492H69.6094V47H72.9648V46.4102H70.3477V44.9453H72.5977ZM76.0117 45.2461L77.0273 47H77.8047V46.9609L76.6719 45.0625C76.8021 45.0052 76.9232 44.9401 77.0352 44.8672C77.1497 44.7917 77.2487 44.7044 77.332 44.6055C77.4154 44.5091 77.4805 44.3984 77.5273 44.2734C77.5742 44.1484 77.5977 44.0039 77.5977 43.8398C77.5977 43.5924 77.5482 43.3815 77.4492 43.207C77.3529 43.0326 77.224 42.8893 77.0625 42.7773C76.8984 42.6654 76.7109 42.5833 76.5 42.5312C76.2917 42.4792 76.0781 42.4518 75.8594 42.4492H74.1953V47H74.918V45.2461H76.0117ZM74.918 44.6562V43.0469H75.8594C75.9896 43.0495 76.1159 43.0664 76.2383 43.0977C76.3607 43.1289 76.4688 43.1771 76.5625 43.2422C76.6562 43.3073 76.7305 43.3919 76.7852 43.4961C76.8424 43.5977 76.8711 43.7214 76.8711 43.8672C76.8711 44.0052 76.8411 44.1237 76.7812 44.2227C76.724 44.319 76.6497 44.3984 76.5586 44.4609C76.4648 44.526 76.3581 44.5742 76.2383 44.6055C76.1211 44.6367 76.0013 44.6536 75.8789 44.6562H74.918Z" fill="#DBDBDB"/>
<path d="M40.8477 54.4531V55.082H42.0781V58.375H40.8477V59H44.0625V58.375H42.8008V55.082H44.0625V54.4531H40.8477ZM48.8633 59V54.4492H48.1758L48.1992 57.875L46.2422 54.4492H45.5625V59H46.2539L46.2344 55.5781L48.1914 59H48.8633ZM53.1055 57.8359C53.1029 57.9661 53.0664 58.0729 52.9961 58.1562C52.9284 58.2396 52.8438 58.3047 52.7422 58.3516C52.638 58.401 52.5247 58.4349 52.4023 58.4531C52.2826 58.4714 52.1706 58.4805 52.0664 58.4805C51.9258 58.4805 51.7865 58.4674 51.6484 58.4414C51.5104 58.4128 51.3854 58.3646 51.2734 58.2969C51.1615 58.2318 51.069 58.1458 50.9961 58.0391C50.9258 57.9297 50.888 57.7956 50.8828 57.6367H50.1484C50.1562 57.7721 50.1797 57.8984 50.2188 58.0156C50.2604 58.1302 50.3138 58.2357 50.3789 58.332C50.4336 58.4102 50.4961 58.4818 50.5664 58.5469C50.6367 58.612 50.7122 58.6706 50.793 58.7227C50.9727 58.8398 51.1732 58.9258 51.3945 58.9805C51.6185 59.0352 51.8424 59.0625 52.0664 59.0625C52.2643 59.0625 52.4701 59.0391 52.6836 58.9922C52.8997 58.9427 53.099 58.8672 53.2812 58.7656C53.4349 58.6719 53.5651 58.5482 53.6719 58.3945C53.7786 58.2383 53.832 58.0495 53.832 57.8281C53.832 57.6068 53.7826 57.418 53.6836 57.2617C53.5846 57.1029 53.457 56.9674 53.3008 56.8555C53.1445 56.7461 52.9714 56.6562 52.7812 56.5859C52.5911 56.513 52.4049 56.4531 52.2227 56.4062C52.0977 56.3776 51.9453 56.3372 51.7656 56.2852C51.5859 56.2305 51.4323 56.1641 51.3047 56.0859C51.2266 56.0391 51.1615 55.9792 51.1094 55.9062C51.0599 55.8307 51.0352 55.7409 51.0352 55.6367C51.0352 55.5091 51.0677 55.4036 51.1328 55.3203C51.1979 55.2344 51.2799 55.1654 51.3789 55.1133C51.4779 55.0638 51.5859 55.0286 51.7031 55.0078C51.8203 54.987 51.931 54.9766 52.0352 54.9766C52.1654 54.9766 52.293 54.9909 52.418 55.0195C52.543 55.0482 52.6549 55.0951 52.7539 55.1602C52.8529 55.2253 52.9323 55.3086 52.9922 55.4102C53.0547 55.5117 53.0885 55.6341 53.0938 55.7773H53.8242C53.8086 55.543 53.7474 55.3385 53.6406 55.1641C53.5365 54.9896 53.4023 54.8438 53.2383 54.7266C53.0742 54.612 52.888 54.5273 52.6797 54.4727C52.474 54.4154 52.2617 54.3867 52.043 54.3867C51.8633 54.3867 51.6745 54.4089 51.4766 54.4531C51.2812 54.4974 51.1055 54.5625 50.9492 54.6484C50.7617 54.75 50.6081 54.8828 50.4883 55.0469C50.3711 55.2109 50.3125 55.4089 50.3125 55.6406C50.3125 55.8646 50.3659 56.0547 50.4727 56.2109C50.582 56.3672 50.7214 56.4987 50.8906 56.6055C51.0573 56.7122 51.2396 56.7995 51.4375 56.8672C51.638 56.9323 51.8281 56.987 52.0078 57.0312C52.1354 57.0651 52.2839 57.1068 52.4531 57.1562C52.625 57.2057 52.763 57.2721 52.8672 57.3555C52.9531 57.4258 53.0143 57.4974 53.0508 57.5703C53.0898 57.6406 53.1081 57.7292 53.1055 57.8359ZM58.8242 55.0469V54.4492H54.7773V55.0469H56.4297V59H57.1641V55.0469H58.8242ZM62.6172 57.9102L63.043 59H63.7734L61.9375 54.4492H61.293L59.4297 59H60.1641L60.5938 57.9102H62.6172ZM60.8281 57.3203L61.4922 55.6406L61.6094 55.3398L61.7305 55.6484L62.3867 57.3203H60.8281ZM65.6055 58.4102V54.4492H64.8398V59H68.3438V58.4102H65.6055ZM70.4102 58.4102V54.4492H69.6445V59H73.1484V58.4102H70.4102ZM77.4023 56.9453V56.3516H75.1523V55.0469H77.7461V54.4492H74.4141V59H77.7695V58.4102H75.1523V56.9453H77.4023ZM80.8164 57.2461L81.832 59H82.6094V58.9609L81.4766 57.0625C81.6068 57.0052 81.7279 56.9401 81.8398 56.8672C81.9544 56.7917 82.0534 56.7044 82.1367 56.6055C82.2201 56.5091 82.2852 56.3984 82.332 56.2734C82.3789 56.1484 82.4023 56.0039 82.4023 55.8398C82.4023 55.5924 82.3529 55.3815 82.2539 55.207C82.1576 55.0326 82.0286 54.8893 81.8672 54.7773C81.7031 54.6654 81.5156 54.5833 81.3047 54.5312C81.0964 54.4792 80.8828 54.4518 80.6641 54.4492H79V59H79.7227V57.2461H80.8164ZM79.7227 56.6562V55.0469H80.6641C80.7943 55.0495 80.9206 55.0664 81.043 55.0977C81.1654 55.1289 81.2734 55.1771 81.3672 55.2422C81.4609 55.3073 81.5352 55.3919 81.5898 55.4961C81.6471 55.5977 81.6758 55.7214 81.6758 55.8672C81.6758 56.0052 81.6458 56.1237 81.5859 56.2227C81.5286 56.319 81.4544 56.3984 81.3633 56.4609C81.2695 56.526 81.1628 56.5742 81.043 56.6055C80.9258 56.6367 80.806 56.6536 80.6836 56.6562H79.7227Z" fill="#DBDBDB"/>
<rect x="28" y="41" width="8" height="8" rx="1" fill="#DBDBDB"/>
<rect x="28.5" y="53.5" width="7" height="7" rx="0.5" stroke="#787878"/>
<rect x="28.5" y="65.5" width="7" height="7" rx="0.5" stroke="#787878"/>
<g clip-path="url(#clip0)">
<path d="M33.6951 43.8512L31.518 46.0284L30.3335 44.8436" stroke="#303030"/>
</g>
<rect x="12.5" y="0.5" width="235" height="114" stroke="#787878"/>
</g>
<defs>
<clipPath id="clip0">
<rect width="4" height="4" fill="white" transform="translate(30 43)"/>
</clipPath>
</defs>
</svg>
