<svg width="169" height="126" viewBox="0 0 169 126" fill="none" xmlns="http://www.w3.org/2000/svg">
<path fill-rule="evenodd" clip-rule="evenodd" d="M48.3124 6H78.1213L92 16.4248V108.922L79.7467 120H49.0643H13.2533L0.999996 108.922V16.4248L14.8786 6H48.3124Z" stroke="#787878" stroke-width="1.6" stroke-dasharray="4 4"/>
<path fill-rule="evenodd" clip-rule="evenodd" d="M119.989 1H152.801L168.078 12.339V112.948L154.59 124.998H120.817H81.3978L67.9101 112.948V12.339L83.187 1H119.989Z" fill="#262626" stroke="#DBDBDB" stroke-width="1.6"/>
<path d="M67.9111 12.3413L98.4649 107.792L81.3989 125" stroke="#DBDBDB" stroke-width="1.6"/>
<path d="M167.906 12.3413L137.352 107.792L154.418 125" stroke="#DBDBDB" stroke-width="1.6"/>
<path fill-rule="evenodd" clip-rule="evenodd" d="M103.144 102.678V97.7183H132.904V102.678H103.144Z" fill="#DBDBDB"/>
<path d="M98.4648 107.787H137.35" stroke="#DBDBDB" stroke-width="1.6"/>
<path d="M110.582 1L114.54 8.43986H121.494L125.462 1" stroke="#DBDBDB" stroke-width="1.6"/>
<path d="M110.582 124.997L114.54 117.558H121.494L125.462 124.997" stroke="#DBDBDB" stroke-width="1.6"/>
<path d="M87.1666 63C87.1666 73.5855 78.5854 82.1667 67.9999 82.1667C57.4145 82.1667 48.8333 73.5855 48.8333 63C48.8333 52.4146 57.4145 43.8334 67.9999 43.8334C78.5854 43.8334 87.1666 52.4146 87.1666 63Z" fill="#FF725C"/>
<path fill-rule="evenodd" clip-rule="evenodd" d="M66.5866 63.0007L60.2226 69.3647L61.6368 70.7789L68.0008 64.4149L74.364 70.7782L75.7782 69.3639L69.415 63.0007L75.779 56.6367L74.3647 55.2225L68.0008 61.5865L61.636 55.2218L60.2218 56.636L66.5866 63.0007Z" fill="black"/>
</svg>
