<svg width="128" height="128" viewBox="0 0 128 128" fill="none" xmlns="http://www.w3.org/2000/svg">
<path fill-rule="evenodd" clip-rule="evenodd" d="M63.5683 1.69775L63.5911 0.0201875C62.2915 0.0025511 60.9722 -0.0034249 59.6289 0.00184907L59.6355 1.67955C60.9692 1.67432 62.2786 1.68025 63.5683 1.69775ZM67.5437 1.68302L63.5938 1.69796V0.0202461L67.5386 0.00531006L67.5437 1.68302ZM75.4572 0.128922L75.4099 1.80597C74.0973 1.76895 72.7838 1.73691 71.4696 1.70985L71.5041 0.0324848C72.8226 0.0596306 74.1403 0.091775 75.4572 0.128922ZM82.5022 2.05499L83.2841 2.08942L83.3611 0.413465L80.9907 0.314713L79.4078 0.255508L79.3477 1.93215C80.3998 1.96988 81.4513 2.01083 82.5022 2.05499ZM91.1513 2.54806L87.2157 2.30018L87.3158 0.625454L91.2595 0.873834L91.1513 2.54806ZM98.9603 3.25352L99.1767 1.58981C97.9239 1.42686 96.6196 1.28828 95.2161 1.16583L95.0703 2.8372C96.4513 2.95769 97.7324 3.0938 98.9603 3.25352ZM107.046 3.14586L106.583 4.75848C105.523 4.45429 104.413 4.18786 103.232 3.95099L102.812 3.86855L103.13 2.22108L103.562 2.30604C104.786 2.55156 105.94 2.82855 107.046 3.14586ZM113.636 7.80026L114.524 6.37658C114.213 6.18313 113.9 5.99791 113.559 5.80661C112.698 5.32494 111.805 4.88872 110.877 4.49357L110.22 6.03726C111.093 6.4092 111.932 6.819 112.739 7.27035C113.057 7.44867 113.348 7.62071 113.636 7.80026ZM120.542 11.9122L119.195 12.9122C118.434 11.8873 117.589 10.9487 116.66 10.0955L117.795 8.85985C118.802 9.78489 119.718 10.8025 120.542 11.9122ZM122.673 19.6951L124.26 19.1504C123.807 17.8314 123.287 16.5861 122.687 15.4034L121.191 16.1619C121.754 17.2734 122.245 18.4473 122.673 19.6951ZM126.106 26.9822L124.448 27.238C124.33 26.4718 124.201 25.729 124.06 25.0041C123.956 24.4706 123.846 23.9526 123.731 23.4475L125.366 23.0732C125.486 23.5965 125.599 24.1323 125.706 24.6832C125.852 25.4303 125.985 26.1948 126.106 26.9822ZM125.209 34.0826L125.284 35.0277L126.957 34.8984L126.881 33.9469C126.823 33.2209 126.763 32.5435 126.702 31.895L126.607 30.9415L124.938 31.1145C125.034 32.0378 125.122 33.0052 125.209 34.0826ZM127.457 42.7996L125.782 42.8846L125.675 40.896C125.638 40.2411 125.599 39.594 125.559 38.9535L127.233 38.8482L127.35 40.8009C127.387 41.4592 127.423 42.1251 127.457 42.7996ZM126.108 50.7578L127.784 50.7047C127.743 49.3861 127.695 48.0686 127.641 46.752L125.965 46.8205C126.018 48.1319 126.066 49.4444 126.108 50.7578ZM126.282 58.6357L126.271 57.8936C126.255 56.827 126.235 55.7612 126.21 54.696L127.888 54.6582L127.921 56.2626L127.959 58.6129L126.282 58.6357ZM126.316 66.515L127.994 66.5242C128.001 65.2155 128.002 63.8972 127.996 62.5683L126.319 62.5756C126.324 63.899 126.324 65.2118 126.316 66.515ZM127.872 74.436L126.195 74.3916L126.232 72.8618C126.248 72.0836 126.262 71.2838 126.275 70.4547L127.952 70.4793L127.925 72.1084C127.91 72.9057 127.892 73.679 127.872 74.436ZM125.902 82.2655L127.578 82.3415C127.599 81.8959 127.618 81.4527 127.637 81.0116L127.744 78.3913L126.067 78.3274C126.051 78.7586 126.034 79.1918 126.016 79.6272L125.902 82.2655ZM127.159 90.2411L125.484 90.1347L125.568 88.7608C125.596 88.2931 125.623 87.8146 125.649 87.3218L125.708 86.2031L127.384 86.2898L127.243 88.8595C127.215 89.3297 127.187 89.7892 127.159 90.2411ZM124.824 97.9592L126.491 98.15C126.584 97.3423 126.668 96.507 126.751 95.5976L126.872 94.1941L125.2 94.0563L125.129 94.8957C125.032 96.0112 124.933 97.0059 124.824 97.9592ZM125.088 106.037L123.465 105.614C123.779 104.406 124.047 103.15 124.278 101.822L125.931 102.109C125.693 103.48 125.415 104.782 125.088 106.037ZM120.675 112.769L122.136 113.593C122.786 112.443 123.358 111.215 123.86 109.905L122.294 109.304C121.82 110.539 121.283 111.692 120.675 112.769ZM116.89 119.889L115.825 118.593C116.08 118.383 116.328 118.169 116.584 117.937C117.281 117.304 117.926 116.628 118.524 115.908L119.815 116.979C119.167 117.76 118.467 118.493 117.711 119.18C117.435 119.43 117.166 119.662 116.89 119.889ZM109.386 122.266L109.175 122.346L109.765 123.917L110.601 123.589C111.615 123.174 112.58 122.711 113.498 122.197L112.679 120.733C111.649 121.309 110.552 121.818 109.386 122.266ZM101.982 125.952L101.7 124.298C103.032 124.071 104.29 123.808 105.495 123.498L105.912 125.123C104.66 125.445 103.358 125.718 101.982 125.952ZM93.9102 125.211L94.0437 126.884C95.4525 126.771 96.753 126.648 98.0017 126.506L97.8119 124.839C96.5831 124.979 95.3011 125.1 93.9102 125.211ZM86.1446 127.387L86.0547 125.712L88.2793 125.587L89.9891 125.485L90.093 127.159L89.4802 127.197C88.381 127.263 87.2699 127.327 86.1446 127.387ZM78.1836 126.067L78.2389 127.743C79.2148 127.711 80.1119 127.677 80.9732 127.639L82.1941 127.584L82.1166 125.908L80.8992 125.963C80.3864 125.986 79.8605 126.007 79.3124 126.027L78.1836 126.067ZM70.3343 127.954L70.3046 126.276L71.0901 126.261L74.2436 126.181L74.2884 127.858L72.6799 127.901C71.911 127.922 71.1301 127.94 70.3343 127.954ZM62.4294 126.316L62.421 127.994C62.9777 127.997 63.5206 127.999 64.0522 127.999L66.3767 127.996L66.3692 126.319C65.6174 126.322 64.8487 126.323 64.0545 126.322L62.4294 126.316ZM54.5117 127.905L54.5489 126.228L55.8229 126.252L58.4864 126.284L58.4684 127.962L56.4244 127.938C55.8013 127.93 55.1653 127.919 54.5117 127.905ZM46.6773 125.95L46.6055 127.626L47.0075 127.643L50.555 127.786L50.6165 126.109L50.3293 126.098L46.6773 125.95ZM38.7031 127.215L38.8067 125.541C40.1468 125.624 41.4554 125.699 42.7396 125.766L42.6523 127.441C41.3625 127.374 40.0485 127.299 38.7031 127.215ZM30.9686 124.936L30.793 126.605C31.6664 126.697 32.5693 126.78 33.5442 126.859L34.7513 126.952L34.8747 125.279C33.4361 125.173 32.1723 125.063 30.9686 124.936ZM23.2709 123.687L23.6338 123.771C24.7455 124.023 25.8941 124.242 27.0944 124.432L26.8314 126.089C25.596 125.893 24.4116 125.668 23.2628 125.407L22.8867 125.321L23.2709 123.687ZM16.039 121.114L15.2699 122.605C16.4479 123.213 17.6902 123.742 19.0078 124.202L19.5615 122.619C18.3157 122.183 17.1454 121.685 16.039 121.114ZM8.76253 117.639L10.0093 116.516C10.854 117.454 11.784 118.309 12.7999 119.08L11.7851 120.416C10.6855 119.581 9.67788 118.655 8.76253 117.639ZM6.00877 110.04L4.46029 110.686C4.74592 111.37 5.05271 112.036 5.38905 112.697C5.67623 113.261 5.98138 113.807 6.30475 114.336L7.73601 113.46C7.43548 112.969 7.15158 112.461 6.88427 111.936C6.56744 111.313 6.27831 110.686 6.00877 110.04ZM2.22656 102.934L3.87538 102.624C4.12625 103.958 4.41421 105.207 4.74999 106.397L3.13536 106.853C2.78538 105.613 2.48629 104.315 2.22656 102.934ZM2.87054 94.8797L1.19892 95.0226C1.32005 96.4393 1.454 97.7379 1.6108 98.9823L3.27536 98.7726C3.12156 97.552 2.98987 96.2753 2.87054 94.8797ZM0.663798 87.1191L2.33879 87.0236L2.4539 88.958C2.49441 89.6126 2.5371 90.2779 2.58204 90.9558L0.908001 91.0668C0.817784 89.706 0.736593 88.3956 0.663798 87.1191ZM1.98083 79.1551L0.304141 79.2139C0.343454 80.3353 0.381329 81.3284 0.421623 82.2781L0.460646 83.1668L2.13664 83.0907C2.12321 82.7946 2.11027 82.5001 2.09783 82.207L2.05838 81.244L1.98083 79.1551ZM0.0655954 71.3093L1.74298 71.2759C1.75842 72.0502 1.77676 72.8119 1.79813 73.5629L1.84989 75.2114L0.173065 75.2662L0.155689 74.737C0.118765 73.6183 0.0889018 72.478 0.0655954 71.3093ZM1.67826 63.3989L0.000539337 63.3964C-0.00147379 64.7747 0.00211408 66.0838 0.011886 67.3516L1.68955 67.3386C1.68372 66.5812 1.68009 65.8088 1.67856 65.0154L1.67826 63.3989ZM0.0759984 55.4844L1.75334 55.5199C1.73334 56.4655 1.71817 57.3784 1.70797 58.2679L1.69706 59.456L0.0193903 59.4433L0.0217633 59.1367C0.0309964 57.9625 0.0491748 56.7523 0.0759984 55.4844ZM1.99566 47.6445L0.319286 47.5773C0.302744 47.9899 0.286697 48.4089 0.271031 48.8366L0.180569 51.5301L1.85748 51.582L1.94761 48.8983L1.99566 47.6445ZM2.40562 39.7759L2.17954 43.7132L0.504294 43.6222L0.730808 39.6772L2.40562 39.7759ZM2.88999 32.9354L2.98278 31.9328L1.31279 31.772L1.21889 32.7865C1.13547 33.7222 1.05837 34.6927 0.984375 35.7271L2.65782 35.8468C2.70181 35.2317 2.74689 34.6398 2.79374 34.0648L2.88999 32.9354ZM2.45973 23.8678L4.10095 24.2158C3.84333 25.4305 3.62431 26.6973 3.43431 28.0479L1.77295 27.8142C1.96812 26.4268 2.19369 25.1222 2.45973 23.8678ZM6.45644 16.8809L4.93607 16.1715C4.3815 17.3602 3.89883 18.6186 3.47726 19.9584L5.07762 20.462C5.47778 19.1902 5.93416 18.0003 6.45644 16.8809ZM9.58129 9.45773L10.7645 10.6472C10.1962 11.2125 9.66107 11.8132 9.15891 12.4508C8.88093 12.8037 8.61417 13.1659 8.35821 13.5375L6.97656 12.5858C7.25271 12.1849 7.5407 11.7939 7.84091 11.4127C8.38494 10.722 8.96514 10.0707 9.58129 9.45773ZM17.0339 6.3629L16.3316 4.83923C15.0623 5.42428 13.8752 6.0891 12.7695 6.83876L13.711 8.2274C14.7392 7.53029 15.8462 6.9103 17.0339 6.3629ZM24.0248 2.3849L24.3698 4.02677C23.0599 4.30202 21.8178 4.6216 20.6258 4.99438L20.125 3.39314C21.3701 3.00375 22.664 2.67085 24.0248 2.3849ZM32.1119 2.91619L31.9513 1.24618C31.1489 1.32336 30.3705 1.40634 29.603 1.49697C29.0481 1.56254 28.5112 1.63118 27.9877 1.70381L28.2182 3.36562C28.7302 3.29458 29.2559 3.22738 29.7998 3.16311C30.5549 3.07394 31.3213 2.99223 32.1119 2.91619ZM39.9553 2.35639L38.2635 2.45309C37.4703 2.50039 36.7377 2.54727 36.0258 2.59662L35.9098 0.922913L36.7828 0.864275C37.3747 0.825741 37.9898 0.788075 38.6488 0.749796L39.863 0.68122L39.9553 2.35639ZM47.828 1.97328L47.7581 0.29702C47.3246 0.315103 46.8893 0.333784 46.4524 0.353064L43.8088 0.475918L43.8905 2.15164C44.3336 2.13004 44.7747 2.10902 45.2139 2.08861L47.828 1.97328ZM55.6687 0.0481881L55.7007 1.7256C54.4176 1.75009 53.1085 1.78385 51.7651 1.82671L51.7116 0.149843C53.0621 0.106761 54.3783 0.0728179 55.6687 0.0481881Z" fill="#787878"/>
<path fill-rule="evenodd" clip-rule="evenodd" d="M95.5822 63.9996C95.5822 46.5582 81.4431 32.4191 64.0016 32.4191C46.5601 32.4191 32.421 46.5582 32.421 63.9996C32.421 81.4411 46.5601 95.5802 64.0016 95.5802C81.4431 95.5802 95.5822 81.4411 95.5822 63.9996ZM34.0968 63.9996C34.0968 47.4847 47.4848 34.0968 63.9997 34.0968C80.5145 34.0968 93.9025 47.4847 93.9025 63.9996C93.9025 80.5145 80.5145 93.9025 63.9997 93.9025C47.4848 93.9025 34.0968 80.5145 34.0968 63.9996Z" fill="#DBDBDB"/>
<g clip-path="url(#clip0_4168_22737)">
<path d="M74.1705 57.1076L61.1077 70.1705L54.001 63.0618" stroke="#5AE4AF" stroke-width="1.5"/>
</g>
<defs>
<clipPath id="clip0_4168_22737">
<rect width="24" height="24" fill="white" transform="translate(52 52)"/>
</clipPath>
</defs>
</svg>
