<svg width="88" height="88" viewBox="0 0 88 88" fill="none" xmlns="http://www.w3.org/2000/svg">
<path fill-rule="evenodd" clip-rule="evenodd" d="M40.0002 5.5L48.0002 5.50002L48.0002 2.50002L40.0002 2.5L40.0002 5.5ZM43.2761 78.4926C34.3118 78.308 26.1875 74.7043 20.1545 68.9325L21.9292 67.1578L20.8686 66.0971L19.0932 67.8725C13.3122 61.8425 9.69949 53.7173 9.50823 44.75H16.0261V43.25H9.50823C9.69949 34.2827 13.3122 26.1575 19.0933 20.1275L20.8686 21.9029L21.9293 20.8423L20.1545 19.0674C26.1876 13.2957 34.3118 9.69202 43.2761 9.50745V16H44.7761V9.50855C53.7332 9.7062 61.8485 13.3175 67.8727 19.093L66.1234 20.8423L67.1841 21.9029L68.9328 20.1542C74.699 26.1815 78.3013 34.2959 78.4923 43.25H72.0261V44.75H78.4923C78.3013 53.7041 74.699 61.8185 68.9328 67.8458L67.1842 66.0971L66.1235 67.1578L67.8727 68.907C61.8485 74.6825 53.7332 78.2938 44.7761 78.4914V72H43.2761V78.4926ZM8.00024 44C8.00024 24.1178 24.118 8 44.0002 8C63.8825 8 80.0002 24.1178 80.0002 44C80.0002 63.8823 63.8825 80 44.0002 80C24.118 80 8.00024 63.8823 8.00024 44ZM42.5002 40.2908C41.0343 40.8841 40.0002 42.3213 40.0002 44C40.0002 46.2091 41.7911 48 44.0002 48C46.2094 48 48.0002 46.2091 48.0002 44C48.0002 42.3213 46.9662 40.8841 45.5002 40.2908L45.5003 20H42.5003L42.5002 40.2908Z" fill="#DBDBDB"/>
</svg>
