<svg width="88" height="88" viewBox="0 0 88 88" fill="none" xmlns="http://www.w3.org/2000/svg">
<path fill-rule="evenodd" clip-rule="evenodd" d="M47.9913 9.9319C49.9962 9.97282 52.0009 10.0353 54.0045 10.1195C55.6194 10.1874 57.233 10.2925 58.8462 10.3967C60.9976 10.5357 63.1439 10.7263 65.2619 11.1512C67.1056 11.5211 68.8855 12.0728 70.5363 12.9987C72.2827 13.9783 73.6837 15.3161 74.7309 17.0211C75.8383 18.8242 76.4536 20.8083 76.8552 22.8695C77.1741 24.506 77.3488 26.1598 77.4834 27.8201C77.6418 29.7722 77.7571 31.7269 77.8457 33.6829C77.9514 36.02 78.0218 38.3582 78.0575 40.6981C78.0862 42.5784 78.0929 44.4583 78.0737 46.3384C78.0587 47.8054 78.033 49.2729 77.9826 50.7391C77.9199 52.5615 77.8383 54.3834 77.7431 56.2044C77.6698 57.6053 77.5835 59.0062 77.4661 60.4039C77.2711 62.7283 76.998 65.0428 76.3285 67.289C75.6255 69.6479 74.5224 71.7723 72.6712 73.4499C71.4863 74.5239 70.123 75.3041 68.6355 75.8726C66.8705 76.547 65.0348 76.9267 63.167 77.1743C61.3587 77.414 59.5415 77.5413 57.7219 77.6518C56.1949 77.7444 54.6677 77.8228 53.1396 77.8903C51.6504 77.956 50.1608 77.9903 48.6711 78.0313C45.7528 78.1113 42.8342 78.0866 39.9163 78.0511C38.0144 78.0279 36.1128 77.947 34.2122 77.865C32.5498 77.7934 30.8881 77.6987 29.2277 77.5883C26.8391 77.4296 24.4543 77.2269 22.1121 76.6955C20.4812 76.3256 18.9054 75.7992 17.4438 74.9707C15.3924 73.8079 13.8387 72.1687 12.7696 70.066C11.8094 68.178 11.2938 66.1564 10.9613 64.0797C10.6903 62.3875 10.5469 60.6819 10.4311 58.9733C10.3154 57.2648 10.2153 55.5556 10.1426 53.8445C10.0852 52.4896 10.044 51.1344 9.9993 49.7792C9.90688 46.9795 9.9051 44.1793 9.92726 41.3791C9.93898 39.8881 9.97674 38.3972 10.0247 36.9069C10.0711 35.4647 10.1286 34.0223 10.212 32.5819C10.3161 30.7856 10.4116 28.9888 10.5715 27.1957C10.7519 25.1714 11.0028 23.1595 11.5309 21.1925C12.0456 19.2756 12.8116 17.4736 14.0497 15.9017C15.5161 14.0398 17.4265 12.809 19.6334 12.005C21.5302 11.3139 23.4996 10.9554 25.4957 10.7197C27.2909 10.5077 29.0933 10.3881 30.8976 10.288C32.5674 10.1955 34.2373 10.1147 35.9084 10.0489C38.5314 9.94548 41.1549 9.89064 43.7799 9.9264C45.1837 9.9264 46.588 9.90326 47.9913 9.9319Z" stroke="#DBDBDB" stroke-width="1.5"/>
<path fill-rule="evenodd" clip-rule="evenodd" d="M35.8198 45.3635V42.6367H52.1804V45.3635H35.8198Z" fill="#DBDBDB"/>
</svg>
