<svg width="104" height="105" viewBox="0 0 104 105" fill="none" xmlns="http://www.w3.org/2000/svg">
<path d="M44.9415 103.765C32.0003 99.0588 23.765 89.148 23.765 76.7058V73.1764C23.765 68.4705 27.2944 66.1176 30.8238 66.1176C34.3533 66.1176 33.0164 66.1176 33.7115 66.1176M89.6474 80.2352V61.4117C89.6474 57.2129 85.9227 54.3529 82.5886 54.3529C79.2522 54.3529 75.5297 57.2129 75.5297 61.4117V67.2941V55.5294C75.5297 51.3306 71.9468 48.4705 68.4709 48.4705C64.995 48.4705 61.3784 51.3306 61.3784 55.5294M47.2944 50.8235C47.2944 46.7058 50.8773 43.7647 54.3533 43.7647C57.8292 43.7647 61.4121 46.6247 61.4121 50.8235L61.3109 67.2941M33.1768 80.2352V30.9539C33.1768 26.7551 36.7597 23.7646 40.2356 23.7646C43.7115 23.7646 47.2944 26.6247 47.2944 30.8235V67.2941" stroke="#DBDBDB" stroke-width="1.5"/>
<path fill-rule="evenodd" clip-rule="evenodd" d="M33.1768 36.7074C30.2274 38.9228 26.5613 40.2355 22.5886 40.2355C12.8424 40.2355 4.94153 32.3347 4.94153 22.5885C4.94153 12.8423 12.8424 4.94141 22.5886 4.94141C32.3348 4.94141 40.2357 12.8423 40.2357 22.5885C40.2357 22.9838 40.2227 23.3762 40.1971 23.765C36.3163 23.7858 33.1768 26.9382 33.1768 30.8238V36.7074ZM25.903 11.6372C23.5288 10.9897 21.011 11.1578 18.7409 12.1149C16.471 13.0719 14.5775 14.7633 13.3518 16.9241L14.6565 17.6642C15.7209 15.7878 17.3622 14.324 19.3236 13.4971C21.2849 12.6702 23.4585 12.5253 25.5083 13.0844C27.5582 13.6434 29.3722 14.8761 30.6674 16.594C31.9627 18.3122 32.666 20.4192 32.666 22.5882C32.666 24.7573 31.9627 26.8643 30.6674 28.5825C29.3722 30.3004 27.5582 31.533 25.5083 32.0921C23.4585 32.6511 21.2849 32.5063 19.3236 31.6794C17.3622 30.8524 15.7209 29.3886 14.6565 27.5123L13.3518 28.2524C14.5775 30.4132 16.471 32.1046 18.7409 33.0616C21.011 34.0187 23.5288 34.1868 25.903 33.5393C28.277 32.8918 30.3722 31.4658 31.8651 29.4854C33.358 27.5053 34.166 25.0808 34.166 22.5882C34.166 20.0956 33.358 17.6712 31.8651 15.691C30.3722 13.7106 28.277 12.2847 25.903 11.6372Z" fill="#DBDBDB"/>
</svg>
