<svg width="40" height="40" viewBox="0 0 40 40" fill="none" xmlns="http://www.w3.org/2000/svg">
<circle cx="20" cy="20" r="19.5" stroke="#FF725C" stroke-opacity="0.3"/>
<g clip-path="url(#clip0_366_85221)">
<path fill-rule="evenodd" clip-rule="evenodd" d="M22.0002 11.9999H18.0002V12.6833H13.3335V13.9833H26.6668V12.6833H22.0002V11.9999ZM14.6668 14.8947H13.9947L14.0172 15.5665L14.4123 27.355L14.4333 27.9832H15.0619H24.9384H25.567L25.5881 27.355L25.9831 15.5665L26.0056 14.8947H25.3335H14.6668ZM15.6905 26.6832L15.339 16.1947H24.6613L24.3099 26.6832H15.6905ZM16.6835 17.3333V25.3333H17.9835V17.3333H16.6835ZM19.3502 25.3333V17.3333H20.6502V25.3333H19.3502ZM22.0168 17.3333V25.3333H23.3168V17.3333H22.0168Z" fill="#FF725C"/>
</g>
<defs>
<clipPath id="clip0_366_85221">
<rect width="16" height="16" fill="white" transform="translate(12 12)"/>
</clipPath>
</defs>
</svg>
