<svg width="88" height="88" viewBox="0 0 89 88" fill="none" xmlns="http://www.w3.org/2000/svg">
<path fill-rule="evenodd" clip-rule="evenodd" d="M44.7183 80C64.6005 80 80.7183 63.8823 80.7183 44C80.7183 24.1178 64.6005 8 44.7183 8C24.836 8 8.71826 24.1178 8.71826 44C8.71826 63.8823 24.836 80 44.7183 80Z" stroke="#DBDBDB" stroke-width="1.5"/>
<path fill-rule="evenodd" clip-rule="evenodd" d="M44.7183 31.0833C42.187 31.0833 40.1349 33.1354 40.1349 35.6667C40.1349 38.198 42.187 40.25 44.7183 40.25C47.2496 40.25 49.3016 38.198 49.3016 35.6667C49.3016 33.1354 47.2496 31.0833 44.7183 31.0833ZM38.6349 35.6667C38.6349 32.3069 41.3585 29.5833 44.7183 29.5833C48.078 29.5833 50.8016 32.3069 50.8016 35.6667C50.8016 39.0264 48.078 41.75 44.7183 41.75C41.3585 41.75 38.6349 39.0264 38.6349 35.6667ZM48.8282 45.2602L48.1189 46.6065C47.046 46.2666 45.9036 46.0833 44.7183 46.0833C38.5051 46.0833 33.4683 51.1201 33.4683 57.3333H31.9683C31.9683 50.2917 37.6766 44.5833 44.7183 44.5833C46.1562 44.5833 47.5386 44.8214 48.8282 45.2602ZM49.9153 59.5304L54.0517 55.3941L58.1879 59.5303L59.2486 58.4697L55.1123 54.3334L59.2487 50.1971L58.188 49.1364L54.0517 53.2728L49.9153 49.1363L48.8546 50.197L52.991 54.3334L48.8547 58.4698L49.9153 59.5304Z" fill="#DBDBDB"/>
</svg>
