<svg width="88" height="88" viewBox="0 0 88 88" fill="none" xmlns="http://www.w3.org/2000/svg">
<path fill-rule="evenodd" clip-rule="evenodd" d="M29.3685 47.3106L42.8348 52.48V55.8766L26.5358 48.2686L25.6641 42.1235L28.7736 42.8409L29.3685 47.3106ZM59.2376 42.8409L62.3389 42.1235L61.5545 48.2686L45.3329 55.8766V52.48L58.7218 47.3106L59.2376 42.8409ZM57.0855 43.3472L56.8416 46.4191L44.0839 50.6747L31.2866 46.4191L31.0048 43.3472L44.0839 46.3556L57.0855 43.3472Z" fill="#DBDBDB"/>
<path d="M20.434 26.9998L31 19.9998L38 23.9998H50L57 19.9998L67.7744 26.9998M68 53.9998L61 60.9998L60 71.9998L52 79.9998L50 75.9998H38L35 79.9998L28 71.9998L27 60.9998L20 53.9998M68 53.9998C68 49.4998 68 43.9998 68 37.9998M68 53.9998L72 49.9998L72.0009 41.9998L68 37.9998M68 53.9998V37.9998M68 53.9998C64 59.9998 64 64.9998 64 73.9998C59 80.9998 54 82.9998 52 83.9998H36C34 82.9998 30 80.9998 24 73.9998C24 64.9998 24 59.9998 20 53.9998M20 53.9998C20 48.9998 19.9608 43.9998 20 37.9998M20 53.9998V37.9998M20 53.9998L16 49.9998V41.9998L20 37.9998M68 37.9998C68 15.9998 67 3.99976 44 3.99976C21 3.99976 20 15.9998 20 37.9998" stroke="#DBDBDB" stroke-width="1.5"/>
</svg>
