<svg width="88" height="88" viewBox="0 0 88 88" fill="none" xmlns="http://www.w3.org/2000/svg">
<path fill-rule="evenodd" clip-rule="evenodd" d="M43.4804 3.42381L42.2546 2.40247L42.2503 3.99794C42.2334 10.1556 40.7564 14.5943 38.5335 18.1106C36.3002 21.6434 33.2881 24.2889 30.1124 26.8309C29.5593 27.2736 29.0006 27.7133 28.4406 28.154C22.6169 32.7373 16.6512 37.4324 15.2587 46.8906C13.3861 59.5917 22.5818 68.6631 33.802 71.7236L35.1533 72.0922L34.711 70.7632C34.2261 69.3062 33.7701 67.4447 34.1155 65.3734C34.4164 63.5685 35.3381 61.5348 37.5183 59.4368C38.7541 64.9006 41.7131 68.449 45.3811 70.5275C49.3061 72.7516 53.9783 73.2587 58.0939 72.7442L58.2985 72.7186L58.4613 72.592C67.6304 65.4605 72.7509 55.859 72.7509 44C72.7509 36.9008 70.7107 29.7127 66.6249 23.584L65.8127 22.3657L65.2986 23.7367C62.6032 30.9244 59.145 36.343 52.7436 39.4405C54.9652 35.2317 55.7509 31.6781 55.7509 27C55.7509 17.25 49.578 8.50468 43.4804 3.42381ZM39.8014 18.9121C41.9816 15.4634 43.461 11.2237 43.7124 5.61814C49.1835 10.6273 54.2509 18.4741 54.2509 27C54.2509 32.0997 53.2901 35.7269 50.3577 40.6141L49.2522 42.4568L51.2642 41.7022C59.0736 38.7737 63.1763 33.0711 66.1635 25.6528C69.5536 31.2441 71.2509 37.6565 71.2509 44C71.2509 55.2924 66.4315 64.4259 57.7037 71.2804C53.8724 71.7236 49.6332 71.2129 46.1206 69.2225C42.5747 67.2131 39.7049 63.6618 38.7407 57.8767L38.5256 56.5864L37.5207 57.4238C34.401 60.0236 33.0443 62.6773 32.6359 65.1266C32.3383 66.9112 32.5527 68.5391 32.8911 69.8892C22.7519 66.6354 15.0898 58.3204 16.7427 47.1094L16.7427 47.1092C18.0446 38.266 23.5415 33.9305 29.3945 29.3139L29.3947 29.3138C29.9443 28.8803 30.4971 28.4443 31.0498 28.0019C34.2466 25.4431 37.4269 22.6683 39.8014 18.9121ZM53.0002 80H35.0002V84H53.0002V80Z" fill="#DBDBDB"/>
</svg>
