<svg width="88" height="88" viewBox="0 0 88 88" fill="none" xmlns="http://www.w3.org/2000/svg">
<path fill-rule="evenodd" clip-rule="evenodd" d="M37 35V33H51V35H37Z" fill="#DBDBDB"/>
<path fill-rule="evenodd" clip-rule="evenodd" d="M44 3.25C36.8667 3.25 31.3674 3.33805 27.1551 3.92686C22.9416 4.51585 19.8902 5.62059 17.7554 7.75538C15.6206 9.89018 14.5158 12.9416 13.9269 17.1551C13.338 21.3674 13.25 26.8667 13.25 34C13.25 36.9616 13.2652 39.6415 13.3251 42.0646C13.8148 42.0391 14.3152 42.0217 14.8243 42.0115C14.7655 39.6208 14.75 36.9612 14.75 34C14.75 26.8476 14.8405 21.454 15.4124 17.3628C15.9841 13.2727 17.0223 10.6098 18.816 8.81604C20.6098 7.02227 23.2726 5.98415 27.3627 5.41242C31.454 4.84052 36.8476 4.75 44 4.75C51.1524 4.75 56.546 4.84052 60.6373 5.41242C64.7274 5.98415 67.3902 7.02227 69.184 8.81604C70.9777 10.6098 72.0159 13.2727 72.5876 17.3628C73.1595 21.454 73.25 26.8476 73.25 34C73.25 39.7488 73.1915 44.3613 72.8716 48.0746C73.4829 48.1891 73.9625 48.4352 74.3104 48.8129C74.6869 44.9058 74.75 40.0384 74.75 34C74.75 26.8667 74.662 21.3674 74.0731 17.1551C73.4842 12.9416 72.3794 9.89018 70.2446 7.75538C68.1098 5.62059 65.0584 4.51585 60.8449 3.92686C56.6326 3.33805 51.1333 3.25 44 3.25ZM66 62.8629V61.2512C64.5549 61.8547 62.7946 62.286 60.6373 62.5876C58.2161 62.926 55.3389 63.0959 51.911 63.1782C51.9606 63.6814 51.9887 64.1831 51.9972 64.6766C55.4396 64.5928 58.3653 64.4198 60.8449 64.0731C62.807 63.7989 64.5171 63.4128 66 62.8629ZM36.0028 64.6766C36.0113 64.1831 36.0395 63.6814 36.0894 63.1782C32.9572 63.103 30.2848 62.9547 28 62.6715V64.1826C30.2926 64.4572 32.9436 64.6022 36.0028 64.6766Z" fill="#DBDBDB"/>
<path d="M28 48C28 44 22.5455 42 16 42C9.45455 42 4 43.9321 4 48V69C4 81 6.45455 84.0001 16 84C25.5455 83.9999 28 81 28 69V48Z" stroke="#DBDBDB" stroke-width="1.5"/>
<path d="M75 51C75 49 74 48 72 48H69C67 48 66 49 66 51V81C66 83 67 84 69 84H72C74 84 75 83 75 81M75 51V81M75 51C75 49 76 48 78 48H81C83 48 84 49 84 51V81C84 83 83 84 81 84H78C76 84 75 83 75 81" stroke="#DBDBDB" stroke-width="1.5"/>
<path d="M39 64H44M44 64V72M44 64L44.0075 57M44 64H49M52 65C52 70 51.015 80 44.0075 80C37 80 36.0005 70 36 65C35.9995 60 38.015 54 44.0075 54C50 54 52 60 52 65Z" stroke="#DBDBDB" stroke-width="1.5"/>
</svg>
