<svg width="92" height="92" viewBox="0 0 92 92" fill="none" xmlns="http://www.w3.org/2000/svg">
<path fill-rule="evenodd" clip-rule="evenodd" d="M46.0007 28.3353C49.5048 28.3353 52.3454 25.4947 52.3454 21.9906C52.3454 18.4866 49.5048 15.646 46.0007 15.646C42.4967 15.646 39.6561 18.4866 39.6561 21.9906C39.6561 25.4947 42.4967 28.3353 46.0007 28.3353ZM46.0007 29.8353C50.3332 29.8353 53.8454 26.3231 53.8454 21.9906C53.8454 17.6582 50.3332 14.146 46.0007 14.146C41.6683 14.146 38.1561 17.6582 38.1561 21.9906C38.1561 26.3231 41.6683 29.8353 46.0007 29.8353ZM21.4373 28.3353C24.9414 28.3353 27.782 25.4947 27.782 21.9907C27.782 18.4866 24.9414 15.646 21.4373 15.646C17.9333 15.646 15.0927 18.4866 15.0927 21.9907C15.0927 25.4947 17.9333 28.3353 21.4373 28.3353ZM21.4373 29.8353C25.7698 29.8353 29.282 26.3231 29.282 21.9907C29.282 17.6582 25.7698 14.146 21.4373 14.146C17.1048 14.146 13.5927 17.6582 13.5927 21.9907C13.5927 26.3231 17.1048 29.8353 21.4373 29.8353ZM21.4364 52.3447C24.9405 52.3447 27.7811 49.5041 27.7811 46C27.7811 42.496 24.9405 39.6554 21.4364 39.6554C17.9324 39.6554 15.0918 42.496 15.0918 46C15.0918 49.5041 17.9324 52.3447 21.4364 52.3447ZM21.4364 53.8447C25.7689 53.8447 29.2811 50.3325 29.2811 46C29.2811 41.6675 25.7689 38.1554 21.4364 38.1554C17.104 38.1554 13.5918 41.6675 13.5918 46C13.5918 50.3325 17.104 53.8447 21.4364 53.8447ZM27.7811 70.0094C27.7811 73.5135 24.9405 76.354 21.4364 76.354C17.9324 76.354 15.0918 73.5135 15.0918 70.0094C15.0918 66.5053 17.9324 63.6647 21.4364 63.6647C24.9405 63.6647 27.7811 66.5053 27.7811 70.0094ZM29.2811 70.0094C29.2811 74.3419 25.7689 77.854 21.4364 77.854C17.104 77.854 13.5918 74.3419 13.5918 70.0094C13.5918 65.6769 17.104 62.1647 21.4364 62.1647C25.7689 62.1647 29.2811 65.6769 29.2811 70.0094ZM46.0007 53.8447C50.3332 53.8447 53.8454 50.3325 53.8454 46C53.8454 41.6675 50.3332 38.1554 46.0007 38.1554C41.6683 38.1554 38.1561 41.6675 38.1561 46C38.1561 50.3325 41.6683 53.8447 46.0007 53.8447ZM46.0007 76.354C49.5048 76.354 52.3454 73.5135 52.3454 70.0094C52.3454 66.5053 49.5048 63.6647 46.0007 63.6647C42.4967 63.6647 39.6561 66.5053 39.6561 70.0094C39.6561 73.5135 42.4967 76.354 46.0007 76.354ZM46.0007 77.854C50.3332 77.854 53.8454 74.3419 53.8454 70.0094C53.8454 65.6769 50.3332 62.1647 46.0007 62.1647C41.6683 62.1647 38.1561 65.6769 38.1561 70.0094C38.1561 74.3419 41.6683 77.854 46.0007 77.854ZM70.565 29.8353C74.8975 29.8353 78.4097 26.3231 78.4097 21.9906C78.4097 17.6582 74.8975 14.146 70.565 14.146C66.2326 14.146 62.7204 17.6582 62.7204 21.9906C62.7204 26.3231 66.2326 29.8353 70.565 29.8353ZM78.4097 46C78.4097 50.3325 74.8975 53.8447 70.565 53.8447C66.2326 53.8447 62.7204 50.3325 62.7204 46C62.7204 41.6675 66.2326 38.1554 70.565 38.1554C74.8975 38.1554 78.4097 41.6675 78.4097 46ZM76.9097 70.0094C76.9097 73.5135 74.0691 76.354 70.565 76.354C67.061 76.354 64.2204 73.5135 64.2204 70.0094C64.2204 66.5053 67.061 63.6647 70.565 63.6647C74.0691 63.6647 76.9097 66.5053 76.9097 70.0094ZM78.4097 70.0094C78.4097 74.3419 74.8975 77.854 70.565 77.854C66.2326 77.854 62.7204 74.3419 62.7204 70.0094C62.7204 65.6769 66.2326 62.1647 70.565 62.1647C74.8975 62.1647 78.4097 65.6769 78.4097 70.0094Z" fill="#DBDBDB"/>
</svg>
