<svg width="40" height="40" viewBox="0 0 40 40" fill="none" xmlns="http://www.w3.org/2000/svg">
<circle cx="20" cy="20" r="19.25" stroke="#5AE4AF" stroke-width="1.5"/>
<path d="M13.2397 17.0376V21H11.3867V10.3359H15.4663C16.6577 10.3359 17.6025 10.646 18.3008 11.2661C19.0039 11.8862 19.3555 12.7065 19.3555 13.7271C19.3555 14.772 19.0112 15.585 18.3228 16.166C17.6392 16.7471 16.6797 17.0376 15.4443 17.0376H13.2397ZM13.2397 15.5508H15.4663C16.1255 15.5508 16.6284 15.397 16.9751 15.0894C17.3218 14.7769 17.4951 14.3276 17.4951 13.7417C17.4951 13.1655 17.3193 12.7065 16.9678 12.3647C16.6162 12.0181 16.1328 11.8398 15.5176 11.8301H13.2397V15.5508Z" fill="#5AE4AF"/>
<path d="M20.9814 21V10.3359H24.1309C25.0732 10.3359 25.9082 10.5459 26.6357 10.9658C27.3682 11.3857 27.9346 11.9814 28.335 12.7529C28.7354 13.5244 28.9355 14.4082 28.9355 15.4043V15.939C28.9355 16.9497 28.7329 17.8384 28.3276 18.605C27.9272 19.3716 27.3535 19.9624 26.6064 20.3774C25.8643 20.7925 25.0122 21 24.0503 21H20.9814ZM22.8345 11.8301V19.5205H24.043C25.0146 19.5205 25.7593 19.2178 26.2769 18.6123C26.7993 18.002 27.0654 17.1279 27.0752 15.9902V15.397C27.0752 14.2397 26.8237 13.356 26.3208 12.7456C25.8179 12.1353 25.0879 11.8301 24.1309 11.8301H22.8345Z" fill="#5AE4AF"/>
<path d="M13.8633 24.2852V25.0703H13.7461C13.2148 25.0781 12.7904 25.224 12.4727 25.5078C12.1549 25.7917 11.9661 26.194 11.9062 26.7148C12.2109 26.3945 12.6003 26.2344 13.0742 26.2344C13.5768 26.2344 13.9727 26.4115 14.2617 26.7656C14.5534 27.1198 14.6992 27.5768 14.6992 28.1367C14.6992 28.7148 14.5286 29.1836 14.1875 29.543C13.849 29.8997 13.4036 30.0781 12.8516 30.0781C12.2839 30.0781 11.8229 29.8685 11.4688 29.4492C11.1172 29.0299 10.9414 28.4805 10.9414 27.8008V27.4766C10.9414 26.4792 11.1836 25.6979 11.668 25.1328C12.1549 24.5677 12.8542 24.2852 13.7656 24.2852H13.8633ZM12.8438 27C12.6354 27 12.444 27.0586 12.2695 27.1758C12.0977 27.293 11.9714 27.4492 11.8906 27.6445V27.9336C11.8906 28.3555 11.9792 28.6914 12.1562 28.9414C12.3333 29.1888 12.5625 29.3125 12.8438 29.3125C13.125 29.3125 13.3477 29.207 13.5117 28.9961C13.6758 28.7852 13.7578 28.5078 13.7578 28.1641C13.7578 27.8203 13.6745 27.5404 13.5078 27.3242C13.3411 27.1081 13.1198 27 12.8438 27Z" fill="#5AE4AF"/>
<path d="M18.6914 24.2852V25.0703H18.5742C18.043 25.0781 17.6185 25.224 17.3008 25.5078C16.9831 25.7917 16.7943 26.194 16.7344 26.7148C17.0391 26.3945 17.4284 26.2344 17.9023 26.2344C18.4049 26.2344 18.8008 26.4115 19.0898 26.7656C19.3815 27.1198 19.5273 27.5768 19.5273 28.1367C19.5273 28.7148 19.3568 29.1836 19.0156 29.543C18.6771 29.8997 18.2318 30.0781 17.6797 30.0781C17.112 30.0781 16.651 29.8685 16.2969 29.4492C15.9453 29.0299 15.7695 28.4805 15.7695 27.8008V27.4766C15.7695 26.4792 16.0117 25.6979 16.4961 25.1328C16.9831 24.5677 17.6823 24.2852 18.5938 24.2852H18.6914ZM17.6719 27C17.4635 27 17.2721 27.0586 17.0977 27.1758C16.9258 27.293 16.7995 27.4492 16.7188 27.6445V27.9336C16.7188 28.3555 16.8073 28.6914 16.9844 28.9414C17.1615 29.1888 17.3906 29.3125 17.6719 29.3125C17.9531 29.3125 18.1758 29.207 18.3398 28.9961C18.5039 28.7852 18.5859 28.5078 18.5859 28.1641C18.5859 27.8203 18.5026 27.5404 18.3359 27.3242C18.1693 27.1081 17.9479 27 17.6719 27Z" fill="#5AE4AF"/>
<path d="M23.5195 24.2852V25.0703H23.4023C22.8711 25.0781 22.4466 25.224 22.1289 25.5078C21.8112 25.7917 21.6224 26.194 21.5625 26.7148C21.8672 26.3945 22.2565 26.2344 22.7305 26.2344C23.2331 26.2344 23.6289 26.4115 23.918 26.7656C24.2096 27.1198 24.3555 27.5768 24.3555 28.1367C24.3555 28.7148 24.1849 29.1836 23.8438 29.543C23.5052 29.8997 23.0599 30.0781 22.5078 30.0781C21.9401 30.0781 21.4792 29.8685 21.125 29.4492C20.7734 29.0299 20.5977 28.4805 20.5977 27.8008V27.4766C20.5977 26.4792 20.8398 25.6979 21.3242 25.1328C21.8112 24.5677 22.5104 24.2852 23.4219 24.2852H23.5195ZM22.5 27C22.2917 27 22.1003 27.0586 21.9258 27.1758C21.7539 27.293 21.6276 27.4492 21.5469 27.6445V27.9336C21.5469 28.3555 21.6354 28.6914 21.8125 28.9414C21.9896 29.1888 22.2188 29.3125 22.5 29.3125C22.7812 29.3125 23.0039 29.207 23.168 28.9961C23.332 28.7852 23.4141 28.5078 23.4141 28.1641C23.4141 27.8203 23.3307 27.5404 23.1641 27.3242C22.9974 27.1081 22.776 27 22.5 27Z" fill="#5AE4AF"/>
<path d="M29.2188 30H25.3945V29.3477L27.2891 27.2812C27.5625 26.9766 27.7565 26.7227 27.8711 26.5195C27.9883 26.3138 28.0469 26.1081 28.0469 25.9023C28.0469 25.6315 27.9701 25.4128 27.8164 25.2461C27.6654 25.0794 27.4609 24.9961 27.2031 24.9961C26.8958 24.9961 26.6576 25.0898 26.4883 25.2773C26.319 25.4648 26.2344 25.7214 26.2344 26.0469H25.2852C25.2852 25.7005 25.3633 25.3893 25.5195 25.1133C25.6784 24.8346 25.9036 24.6185 26.1953 24.4648C26.4896 24.3112 26.8281 24.2344 27.2109 24.2344C27.763 24.2344 28.1979 24.3737 28.5156 24.6523C28.8359 24.9284 28.9961 25.3112 28.9961 25.8008C28.9961 26.0846 28.9154 26.3828 28.7539 26.6953C28.5951 27.0052 28.3333 27.3581 27.9688 27.7539L26.5781 29.2422H29.2188V30Z" fill="#5AE4AF"/>
</svg>
