<svg width="24" height="24" viewBox="0 0 24 24" fill="none" xmlns="http://www.w3.org/2000/svg">
<circle cx="12" cy="12" r="4" stroke="#ADADAD" stroke-width="1.5"/>
<path d="M0.75 10.0137V13.9863C0.75 14.3841 1.0347 14.7265 1.43021 14.8046L3.93178 15.2562C4.21919 15.3081 4.46954 15.4831 4.61709 15.7351L5.01363 16.4125C5.16977 16.6792 5.19381 17.0031 5.07875 17.29L4.12736 19.6618C3.99811 20.0386 4.15651 20.453 4.50581 20.6519L7.99418 22.6382C8.34349 22.8371 8.78659 22.7651 9.05285 22.4663L10.8257 20.5031C11.0153 20.2931 11.2849 20.1732 11.5678 20.1732L12.4322 20.1732C12.7151 20.1732 12.9847 20.2931 13.1743 20.5031L14.9471 22.4663C15.2134 22.7651 15.6565 22.8371 16.0058 22.6382L19.4942 20.6519C19.8435 20.453 20.0019 20.0386 19.8726 19.6618L18.9212 17.29C18.8062 17.0031 18.8302 16.6792 18.9864 16.4125L19.3829 15.7351C19.5305 15.4831 19.7808 15.3081 20.0682 15.2562L22.5698 14.8046C22.9653 14.7265 23.25 14.3841 23.25 13.9863V10.0137C23.25 9.61595 22.9653 9.27346 22.5698 9.19545L20.0682 8.74378C19.7808 8.69189 19.5305 8.51694 19.3829 8.2649L18.9864 7.58754C18.8302 7.32082 18.8062 6.99688 18.9212 6.71004L19.8726 4.33821C20.0019 3.9614 19.8435 3.54699 19.4942 3.3481L16.0058 1.36184C15.6565 1.16294 15.2134 1.23486 14.9471 1.53365L13.1743 3.49694C12.9847 3.70692 12.7151 3.82676 12.4321 3.82676L11.5679 3.82676C11.2849 3.82676 11.0153 3.70692 10.8257 3.49694L9.05285 1.53365C8.78659 1.23486 8.34349 1.16294 7.99419 1.36184L4.50582 3.3481C4.15651 3.54699 3.99811 3.9614 4.12736 4.33821L5.07875 6.71004C5.19382 6.99688 5.16978 7.32082 5.01363 7.58754L4.61709 8.2649C4.46954 8.51694 4.21919 8.69189 3.93178 8.74378L1.43021 9.19545C1.0347 9.27346 0.75 9.61595 0.75 10.0137Z" stroke="#ADADAD" stroke-width="1.5"/>
</svg>
