<svg width="24" height="24" viewBox="0 0 24 24" fill="none" xmlns="http://www.w3.org/2000/svg">
<path fill-rule="evenodd" clip-rule="evenodd" d="M12 4.70483C8.86381 4.70483 6.09885 6.48709 4.17872 8.16243C3.20675 9.0105 2.42226 9.85655 1.88064 10.4903C1.60939 10.8077 1.39788 11.0732 1.25306 11.261C1.18062 11.3549 1.12479 11.4294 1.08643 11.4814C1.06724 11.5074 1.05242 11.5278 1.04207 11.5421L1.0299 11.559L1.02635 11.564L1.02522 11.5656L1.02481 11.5661C1.02465 11.5664 1.02451 11.5666 1.63637 12.0003L1.02451 11.5666L0.717041 12.0003L1.02451 12.434L1.63637 12.0003C1.02451 12.434 1.02465 12.4342 1.02481 12.4344L1.02522 12.435L1.02635 12.4366L1.0299 12.4416L1.04207 12.4585C1.05242 12.4728 1.06724 12.4932 1.08643 12.5192C1.12479 12.5711 1.18062 12.6457 1.25306 12.7396C1.39788 12.9274 1.60939 13.1929 1.88064 13.5103C2.42226 14.144 3.20675 14.9901 4.17872 15.8381C6.09885 17.5135 8.86381 19.2957 12 19.2957C15.1362 19.2957 17.9012 17.5135 19.8213 15.8381C20.7933 14.9901 21.5778 14.144 22.1194 13.5103C22.3906 13.1929 22.6021 12.9274 22.747 12.7396C22.8194 12.6457 22.8752 12.5711 22.9136 12.5192C22.9328 12.4932 22.9476 12.4728 22.9579 12.4585L22.9701 12.4416L22.9737 12.4366L22.9748 12.435L22.9752 12.4344C22.9754 12.4342 22.9755 12.434 22.3636 12.0003L22.9755 12.434L23.283 12.0003L22.9755 11.5666L22.3636 12.0003C22.9755 11.5666 22.9754 11.5664 22.9752 11.5661L22.9748 11.5656L22.9737 11.564L22.9701 11.559L22.9579 11.5421C22.9476 11.5278 22.9328 11.5074 22.9136 11.4814C22.8752 11.4294 22.8194 11.3549 22.747 11.261C22.6021 11.0732 22.3906 10.8077 22.1194 10.4903C21.5778 9.85655 20.7933 9.0105 19.8213 8.16243C17.9012 6.48709 15.1362 4.70483 12 4.70483ZM3.02095 12.5358C2.84527 12.3302 2.69726 12.1489 2.57924 12.0003C2.69726 11.8517 2.84527 11.6704 3.02095 11.4648C3.52819 10.8713 4.26142 10.081 5.16489 9.29269C6.99566 7.69531 9.41253 6.20483 12 6.20483C14.5875 6.20483 17.0044 7.69531 18.8351 9.29269C19.7386 10.081 20.4718 10.8713 20.9791 11.4648C21.1547 11.6704 21.3028 11.8517 21.4208 12.0003C21.3028 12.1489 21.1547 12.3302 20.9791 12.5358C20.4718 13.1293 19.7386 13.9196 18.8351 14.7079C17.0044 16.3053 14.5875 17.7957 12 17.7957C9.41253 17.7957 6.99566 16.3053 5.16489 14.7079C4.26142 13.9196 3.52819 13.1293 3.02095 12.5358ZM15.8184 12.0003C15.8184 14.109 14.1089 15.8185 12.0002 15.8185C9.89148 15.8185 8.18202 14.109 8.18202 12.0003C8.18202 9.89156 9.89148 8.18211 12.0002 8.18211C14.1089 8.18211 15.8184 9.89156 15.8184 12.0003Z" fill="#5AE4AF"/>
</svg>
