<?xml version="1.0" encoding="UTF-8"?>
<svg width="18px" height="26px" viewBox="0 0 18 26" version="1.1" xmlns="http://www.w3.org/2000/svg" xmlns:xlink="http://www.w3.org/1999/xlink">
    <!-- Generator: Sketch 64 (93537) - https://sketch.com -->
    <title>Icons / 2F</title>
    <desc>Created with Sketch.</desc>
    <g id="Symbols" stroke="none" stroke-width="1" fill="none" fill-rule="evenodd">
        <g id="Icons-/-2F" transform="translate(-16.000000, -12.000000)" fill="#8D8D8D" fill-rule="nonzero">
            <path d="M25.425,12.425 C28.582437,12.425 31.1556325,14.9264355 31.270965,18.0556852 L31.275,18.275 L31.274,23.999 L34,24 L34,38 L16,38 L16,24 L19.574,23.999 L19.575,18.275 C19.575,15.0441342 22.1941342,12.425 25.425,12.425 Z M32.299,25.7 L17.7,25.7 L17.7,36.3 L32.299,36.3 L32.299,25.7 Z M26.0505051,27 L25.7191919,30.0730689 L28.7333333,29.2045929 L29,31.308977 L26.2525253,31.5093946 L28.0545455,33.9895616 L26.220202,35 L24.959596,32.3862213 L23.8525253,34.9832985 L21.9454545,33.9895616 L23.7313131,31.5093946 L21,31.2922756 L21.3151515,29.2045929 L24.2646465,30.0730689 L23.9333333,27 L26.0505051,27 Z M25.425,14.125 C23.2024723,14.125 21.3880057,15.8721173 21.2800789,18.0678731 L21.275,18.275 L21.274,23.999 L29.574,23.999 L29.575,18.275 C29.575,15.9830183 27.7169817,14.125 25.425,14.125 Z" id="Combined-Shape"></path>
        </g>
    </g>
</svg>