<svg width="25" height="24" viewBox="0 0 25 24" fill="none" xmlns="http://www.w3.org/2000/svg">
<path fill-rule="evenodd" clip-rule="evenodd" d="M8.23858 2C7.47032 2 6.79189 2.50107 6.56596 3.23536L5.9446 5.25484L4.22633 5.26963C2.71684 5.28262 1.5 6.50998 1.5 8.01952V19.5001C1.5 20.4614 2.27314 21.2501 3.24476 21.2501H21.7541C22.7245 21.2501 23.5 20.4626 23.5 19.5001V8.01953C23.5 6.50998 22.2832 5.28262 20.7737 5.26963L19.0554 5.25484L18.434 3.23536C18.2081 2.50107 17.5297 2 16.7614 2H8.23858ZM7.99964 3.67648C8.03191 3.57158 8.12883 3.5 8.23858 3.5H16.7614C16.8712 3.5 16.9681 3.57158 17.0004 3.67648L17.7832 6.22064L17.9446 6.74533L18.4935 6.75005L20.7608 6.76957C21.4469 6.77548 22 7.33337 22 8.01953V19.5001C22 19.6421 21.8882 19.7501 21.7541 19.7501H3.24476C3.11182 19.7501 3 19.6433 3 19.5001V8.01952C3 7.33337 3.55311 6.77548 4.23924 6.76957L6.50646 6.75005L7.0554 6.74533L7.21684 6.22064L7.99964 3.67648ZM9.25 13C9.25 11.2051 10.7051 9.75 12.5 9.75C14.2949 9.75 15.75 11.2051 15.75 13C15.75 14.7949 14.2949 16.25 12.5 16.25C10.7051 16.25 9.25 14.7949 9.25 13ZM12.5 8.25C9.87665 8.25 7.75 10.3766 7.75 13C7.75 15.6234 9.87665 17.75 12.5 17.75C15.1234 17.75 17.25 15.6234 17.25 13C17.25 10.3766 15.1234 8.25 12.5 8.25Z" fill="black"/>
</svg>
