<svg width="16" height="16" viewBox="0 0 16 16" fill="none" xmlns="http://www.w3.org/2000/svg">
<path fill-rule="evenodd" clip-rule="evenodd" d="M1.31666 8C1.31666 4.30889 4.30889 1.31666 8 1.31666C11.6911 1.31666 14.6833 4.30889 14.6833 8C14.6833 11.6911 11.6911 14.6833 8 14.6833C4.30889 14.6833 1.31666 11.6911 1.31666 8ZM8 0.0166626C3.59092 0.0166626 0.0166626 3.59092 0.0166626 8C0.0166626 12.4091 3.59092 15.9833 8 15.9833C12.4091 15.9833 15.9833 12.4091 15.9833 8C15.9833 3.59092 12.4091 0.0166626 8 0.0166626ZM7.35 9.33333L7.35 4H8.65V9.33333H7.35ZM7.99995 10.5814C8.41416 10.5814 8.74997 10.9171 8.75 11.3313L8.75 11.3541C8.75002 11.7683 8.41426 12.1041 8.00004 12.1042C7.58583 12.1042 7.25002 11.7684 7.25 11.3542V11.3314C7.24997 10.9172 7.58574 10.5814 7.99995 10.5814Z" fill="#303030"/>
</svg>
