<svg width="16" height="16" viewBox="0 0 16 16" fill="none" xmlns="http://www.w3.org/2000/svg">
<path fill-rule="evenodd" clip-rule="evenodd" d="M7.00001 0C6.63182 0 6.33334 0.298477 6.33334 0.666667V1.18366H4.82683C4.09965 1.18366 3.51016 1.77315 3.51016 2.50033L3.51016 14.6792C3.51016 15.4064 4.09965 15.9959 4.82683 15.9959H11.1733C11.9005 15.9959 12.49 15.4064 12.49 14.6792V2.50032C12.49 1.77315 11.9005 1.18366 11.1733 1.18366H9.66667V0.666667C9.66667 0.298477 9.3682 0 9.00001 0H7.00001ZM4.81121 2.49404C4.81074 2.49513 4.81016 2.49683 4.81016 2.50033L4.81016 14.6792C4.81016 14.6827 4.81074 14.6844 4.81121 14.6855C4.81185 14.687 4.81306 14.689 4.81504 14.691C4.81702 14.693 4.81902 14.6942 4.82054 14.6948C4.82163 14.6953 4.82333 14.6959 4.82683 14.6959L11.1733 14.6959C11.1768 14.6959 11.1785 14.6953 11.1796 14.6948C11.1812 14.6942 11.1831 14.693 11.1851 14.691C11.1871 14.689 11.1883 14.687 11.189 14.6855C11.1892 14.6849 11.1895 14.6842 11.1897 14.6832C11.1899 14.6822 11.19 14.6809 11.19 14.6792V2.50032C11.19 2.49682 11.1894 2.49513 11.189 2.49404C11.1883 2.49251 11.1871 2.49052 11.1851 2.48854C11.1831 2.48656 11.1812 2.48535 11.1796 2.4847C11.1785 2.48424 11.1768 2.48366 11.1733 2.48366H4.82683C4.82333 2.48366 4.82163 2.48424 4.82054 2.4847C4.81902 2.48535 4.81702 2.48656 4.81504 2.48854C4.81306 2.49052 4.81185 2.49251 4.81121 2.49404ZM9.20705 6.46356L8.00001 7.6706L6.79296 6.46356L5.87372 7.3828L7.08077 8.58984L5.87372 9.79689L6.79296 10.7161L8.00001 9.50908L9.20705 10.7161L10.1263 9.79689L8.91924 8.58984L10.1263 7.3828L9.20705 6.46356Z" fill="#303030"/>
</svg>
