<svg width="16" height="16" viewBox="0 0 16 16" fill="none" xmlns="http://www.w3.org/2000/svg">
<path fill-rule="evenodd" clip-rule="evenodd" d="M2.14691 12.1954V11.6523L3.56587 10.2743V6.52961C3.56587 4.39073 4.85814 2.66658 6.90421 2.18245V1.70083C6.90421 1.1498 7.39587 0.666504 7.96027 0.666504C8.52342 0.666504 9.01633 1.1498 9.01633 1.70083V2.18245C10.3429 2.49601 11.386 3.33133 11.9558 4.46306C12.2644 5.0768 12.4345 5.77749 12.4345 6.52961V10.2743L13.8531 11.6523V12.1954H2.14691Z" stroke="#303030" stroke-width="1.3"/>
<path fill-rule="evenodd" clip-rule="evenodd" d="M6.27603 14.1602C6.27603 15.0731 7.06231 15.718 8.04567 15.718C9.01352 15.718 9.72431 15.084 9.72431 14.1602V13.9656H6.27603V14.1602Z" fill="#303030"/>
</svg>
