<svg width="16" height="16" viewBox="0 0 16 16" fill="none" xmlns="http://www.w3.org/2000/svg">
<g clip-path="url(#clip0_660_41030)">
<path fill-rule="evenodd" clip-rule="evenodd" d="M8.64999 0.500006V-0.149994L7.34999 -0.149994V0.500006L7.34999 1.83334V2.48334H8.64999V1.83334V0.500006ZM7.99999 3.51667C5.80005 3.51667 4.01665 5.30007 4.01665 7.50001V11.7717C3.23117 12.0415 2.66666 12.7867 2.66666 13.6637V14.0333V15.3333H3.96666H12.0333H13.3333V14.0333V13.6637C13.3333 12.7867 12.7688 12.0415 11.9833 11.7717V7.50001C11.9833 5.30007 10.1999 3.51667 7.99999 3.51667ZM10.6833 11.6637V7.50001C10.6833 6.01804 9.48195 4.81667 7.99999 4.81667C6.51802 4.81667 5.31665 6.01804 5.31665 7.50001V11.6637H10.6833ZM13.9596 2.43295L13.5 2.89257L12.8333 3.55924L12.3737 4.01886L11.4544 3.09962L11.9141 2.64L12.5807 1.97333L13.0404 1.51371L13.9596 2.43295ZM3.45961 2.14L2.99999 1.68038L2.08075 2.59962L2.54037 3.05923L3.20704 3.7259L3.66666 4.18552L4.58589 3.26628L4.12627 2.80666L3.45961 2.14ZM8.28586 6.87266C7.6956 6.87266 7.21711 7.35116 7.21711 7.94141V8.59141H5.91711V7.94141C5.91711 6.63319 6.97763 5.57266 8.28586 5.57266H8.93586V6.87266H8.28586ZM3.96666 13.6637C3.96666 13.2771 4.28005 12.9637 4.66666 12.9637H11.3333C11.7199 12.9637 12.0333 13.2771 12.0333 13.6637V14.0333H3.96666V13.6637Z" fill="#303030"/>
</g>
<defs>
<clipPath id="clip0_660_41030">
<rect width="16" height="16" fill="white"/>
</clipPath>
</defs>
</svg>
