<svg width="16" height="16" viewBox="0 0 16 16" fill="none" xmlns="http://www.w3.org/2000/svg">
<path fill-rule="evenodd" clip-rule="evenodd" d="M1.31666 7.99993C1.31666 4.30883 4.30889 1.3166 8 1.3166C11.6911 1.3166 14.6833 4.30883 14.6833 7.99993C14.6833 11.691 11.6911 14.6833 8 14.6833C4.30889 14.6833 1.31666 11.691 1.31666 7.99993ZM8 0.0166016C3.59092 0.0166016 0.0166626 3.59086 0.0166626 7.99993C0.0166626 12.409 3.59092 15.9833 8 15.9833C12.4091 15.9833 15.9833 12.409 15.9833 7.99993C15.9833 3.59086 12.4091 0.0166016 8 0.0166016ZM8.00051 5.3166C7.00386 5.3166 6.13412 5.85996 5.67135 6.6666H4.2458C4.79419 5.12239 6.26821 4.0166 8.00051 4.0166C10.2004 4.0166 11.9838 5.8 11.9838 7.99993C11.9838 10.1999 10.2004 11.9833 8.00051 11.9833C6.26822 11.9833 4.79419 10.8775 4.2458 9.33327H5.67135C6.13412 10.1399 7.00386 10.6833 8.00051 10.6833C9.48247 10.6833 10.6838 9.4819 10.6838 7.99993C10.6838 6.51797 9.48247 5.3166 8.00051 5.3166Z" fill="#303030"/>
</svg>
