<svg width="16" height="16" viewBox="0 0 16 16" fill="none" xmlns="http://www.w3.org/2000/svg">
<path fill-rule="evenodd" clip-rule="evenodd" d="M4.16665 0.200317C3.04275 0.200317 2.18332 1.14632 2.18332 2.24802V13.779C2.18332 14.8807 3.04275 15.8267 4.16665 15.8267H11.8333C12.9572 15.8267 13.8167 14.8807 13.8167 13.779V2.24802C13.8167 1.14632 12.9572 0.200317 11.8333 0.200317H4.16665ZM3.48332 2.24802C3.48332 1.80586 3.8178 1.50032 4.16665 1.50032H11.8333C12.1822 1.50032 12.5167 1.80586 12.5167 2.24802V13.779C12.5167 14.2212 12.1822 14.5267 11.8333 14.5267H4.16665C3.8178 14.5267 3.48332 14.2212 3.48332 13.779V2.24802ZM5.33332 4.33339C8.46293 4.33339 11 6.87044 11 10.0001H9.69999C9.69999 7.58841 7.74496 5.63339 5.33332 5.63339V4.33339ZM5.33332 6.33339C7.35836 6.33339 8.99999 7.97501 8.99999 10.0001H7.69999C7.69999 8.69298 6.64039 7.63339 5.33332 7.63339V6.33339ZM5.33332 8.33339C6.25379 8.33339 6.99999 9.07958 6.99999 10.0001H5.69999C5.69999 9.79755 5.53582 9.63339 5.33332 9.63339V8.33339Z" fill="#303030"/>
</svg>
