<svg width="16" height="16" viewBox="0 0 16 16" fill="none" xmlns="http://www.w3.org/2000/svg">
<path fill-rule="evenodd" clip-rule="evenodd" d="M1.66667 0.350098C0.939498 0.350098 0.350006 0.939589 0.350006 1.66676V3.66676C0.350006 4.28477 0.775787 4.80333 1.35001 4.9451V8.22232V14.3334C1.35001 15.2447 2.08874 15.9834 3.00001 15.9834H13C13.9113 15.9834 14.65 15.2447 14.65 14.3334V8.22232V4.9451C15.2242 4.80333 15.65 4.28477 15.65 3.66676V1.66676C15.65 0.939589 15.0605 0.350098 14.3333 0.350098H1.66667ZM13.35 4.98343H2.65001V5.79336H13.35V4.98343ZM1.65001 1.66676C1.65001 1.66326 1.65059 1.66157 1.65105 1.66048C1.65169 1.65895 1.65291 1.65696 1.65489 1.65498C1.65687 1.653 1.65886 1.65178 1.66038 1.65114C1.66148 1.65068 1.66317 1.6501 1.66667 1.6501H14.3333C14.3368 1.6501 14.3385 1.65068 14.3396 1.65114C14.3412 1.65178 14.3431 1.653 14.3451 1.65498C14.3471 1.65696 14.3483 1.65895 14.349 1.66048C14.3494 1.66157 14.35 1.66326 14.35 1.66676V3.66676C14.35 3.67026 14.3494 3.67196 14.349 3.67305C14.3483 3.67458 14.3471 3.67657 14.3451 3.67855C14.3431 3.68053 14.3412 3.68174 14.3396 3.68239C14.3385 3.68285 14.3368 3.68343 14.3333 3.68343H1.66667C1.66317 3.68343 1.66148 3.68285 1.66038 3.68239C1.65886 3.68174 1.65687 3.68053 1.65489 3.67855C1.65291 3.67657 1.65169 3.67458 1.65105 3.67305C1.65059 3.67196 1.65001 3.67026 1.65001 3.66676V1.66676ZM2.65001 8.05996V7.09336H13.35V8.05996H2.65001ZM2.65001 9.35996V10.3266H13.35V9.35996H2.65001ZM2.65001 11.6266H13.35V12.5933H2.65001V11.6266ZM2.65001 13.8933V14.3334C2.65001 14.5267 2.80671 14.6834 3.00001 14.6834H13C13.1933 14.6834 13.35 14.5267 13.35 14.3334V13.8933H2.65001Z" fill="#303030"/>
</svg>
