<svg width="16" height="16" viewBox="0 0 16 16" fill="none" xmlns="http://www.w3.org/2000/svg">
<path fill-rule="evenodd" clip-rule="evenodd" d="M1.31666 7.99993C1.31666 4.30883 4.30889 1.3166 8 1.3166C11.6911 1.3166 14.6833 4.30883 14.6833 7.99993C14.6833 11.691 11.6911 14.6833 8 14.6833C4.30889 14.6833 1.31666 11.691 1.31666 7.99993ZM8 0.0166016C3.59092 0.0166016 0.0166626 3.59086 0.0166626 7.99993C0.0166626 12.409 3.59092 15.9833 8 15.9833C12.4091 15.9833 15.9833 12.409 15.9833 7.99993C15.9833 3.59086 12.4091 0.0166016 8 0.0166016ZM7.42857 2.6666L4 9.0666H8.57142V13.3333L12 6.93327H7.14285L7.42857 2.6666Z" fill="#303030"/>
</svg>
