<svg width="16" height="16" viewBox="0 0 16 16" fill="none" xmlns="http://www.w3.org/2000/svg">
<path fill-rule="evenodd" clip-rule="evenodd" d="M1.49366 5.75278C1.49366 3.40918 3.39353 1.50932 5.73713 1.50932C8.08072 1.50932 9.98059 3.40918 9.98059 5.75278C9.98059 8.09638 8.08072 9.99624 5.73713 9.99624C3.39353 9.99624 1.49366 8.09638 1.49366 5.75278ZM5.73713 0.20932C2.67556 0.20932 0.193665 2.69121 0.193665 5.75278C0.193665 8.81435 2.67556 11.2962 5.73713 11.2962C8.79869 11.2962 11.2806 8.81435 11.2806 5.75278C11.2806 2.69121 8.79869 0.20932 5.73713 0.20932ZM13.0569 1.54046H15.6394V4.12295L14.8002 3.28381L13.9226 4.11694C13.9541 4.29998 13.98 4.48497 14.0001 4.67171C14.0339 4.98633 14.0513 5.30585 14.0513 5.62931C14.0513 10.3731 10.3139 14.2521 5.66298 14.2521C5.06976 14.2521 4.49026 14.1887 3.93079 14.0679L3.92758 14.0672L3.14269 14.9533L3.13882 14.9577L3.1388 14.9576L2.82702 15.3033L1.86168 14.4326L2.17149 14.0891L3.21382 12.9125L3.48073 12.6111L3.86941 12.7158C3.98028 12.7457 4.09221 12.7728 4.20512 12.7972C4.6751 12.8987 5.16265 12.9521 5.66298 12.9521C9.55959 12.9521 12.7513 9.69201 12.7513 5.62931C12.7513 5.35238 12.7364 5.07927 12.7076 4.81074C12.679 4.54513 12.6367 4.28393 12.5814 4.0279L12.5043 3.67083L12.7693 3.41934L13.8807 2.36426L13.0569 1.54046Z" fill="#FF725C"/>
</svg>
