<svg width="16" height="17" viewBox="0 0 16 17" fill="none" xmlns="http://www.w3.org/2000/svg">
<path fill-rule="evenodd" clip-rule="evenodd" d="M3.85 2.65244C3.85 1.18889 5.03644 0.00244141 6.5 0.00244141C7.96355 0.00244141 9.15 1.18889 9.15 2.65244L9.15 9.07405C9.96723 9.80281 10.4833 10.8652 10.4833 12.048C10.4833 14.248 8.69993 16.0314 6.5 16.0314C4.30006 16.0314 2.51666 14.248 2.51666 12.048C2.51666 10.8652 3.03286 9.803 3.85 9.07431L3.85 2.65244ZM6.5 1.30244C5.75441 1.30244 5.15 1.90686 5.15 2.65244L5.15 9.38137V9.70606L4.89039 9.90107C4.23716 10.3918 3.81666 11.1707 3.81666 12.048C3.81666 13.53 5.01803 14.7314 6.5 14.7314C7.98196 14.7314 9.18333 13.53 9.18333 12.048C9.18333 11.1706 8.76284 10.3915 8.10962 9.90084L7.85 9.70583V9.38113L7.85 2.65244C7.85 1.90686 7.24558 1.30244 6.5 1.30244ZM12.6833 4.0001V9.33343H13.9833V4.0001H12.6833ZM14.0833 11.3314C14.0833 10.9172 13.7475 10.5815 13.3333 10.5815C12.9191 10.5815 12.5833 10.9173 12.5833 11.3315L12.5833 11.3543C12.5834 11.7685 12.9192 12.1043 13.3334 12.1043C13.7476 12.1042 14.0834 11.7684 14.0833 11.3542L14.0833 11.3314ZM7.15056 4.2068V10.3389C7.81414 10.5986 8.28411 11.2445 8.28411 12.0001C8.28411 12.985 7.48568 13.7834 6.50078 13.7834C5.51587 13.7834 4.71744 12.985 4.71744 12.0001C4.71744 11.2446 5.1872 10.5989 5.85056 10.339V4.2068H7.15056Z" fill="#303030"/>
</svg>
