<svg width="16" height="16" viewBox="0 0 16 16" fill="none" xmlns="http://www.w3.org/2000/svg">
<path fill-rule="evenodd" clip-rule="evenodd" d="M1.79295 1.57275L14.2171 13.9969L13.2979 14.9162L10.7534 12.3717C9.91266 12.7577 8.9845 13.014 8 13.014C5.85433 13.014 3.97622 11.7967 2.6872 10.672C2.03236 10.1006 1.50424 9.53102 1.13973 9.1045C0.957082 8.89078 0.814497 8.7118 0.716598 8.58488C0.667625 8.52139 0.629763 8.47084 0.603592 8.43537L0.57315 8.39374L0.564624 8.38189L0.562058 8.3783L0.561202 8.3771L0.560881 8.37664C0.56075 8.37646 0.560631 8.37629 1.09091 8.00039C0.560631 7.62448 0.56075 7.62431 0.560881 7.62413L0.561202 7.62368L0.562058 7.62247L0.564624 7.61888L0.57315 7.60703L0.603592 7.5654C0.629763 7.52994 0.667625 7.47938 0.716598 7.41589C0.814497 7.28897 0.957082 7.10999 1.13973 6.89627C1.50424 6.46975 2.03236 5.90014 2.6872 5.32879C2.86331 5.17513 3.05041 5.01974 3.24769 4.86597L0.873715 2.49199L1.79295 1.57275ZM4.17479 5.79307C3.95458 5.9596 3.74319 6.1327 3.54187 6.30834C2.94641 6.8279 2.46272 7.3492 2.12799 7.74086C2.04674 7.83594 1.97451 7.92309 1.91183 8.00039C1.97451 8.07769 2.04674 8.16484 2.12799 8.25991C2.46272 8.65157 2.94641 9.17287 3.54187 9.69243C4.75345 10.7495 6.32989 11.714 8 11.714C8.603 11.714 9.19378 11.5883 9.7596 11.3779L8.79957 10.4178C8.54816 10.5009 8.2794 10.5459 8.00014 10.5459C6.59432 10.5459 5.45468 9.40627 5.45468 8.00046C5.45468 7.7212 5.49966 7.45244 5.58275 7.20103L4.17479 5.79307ZM1.09091 8.00039L0.560631 7.62448L0.294159 8.00039L0.560631 8.37629L1.09091 8.00039ZM13.3128 10.672C13.1579 10.8071 12.9945 10.9436 12.8232 11.0791L11.897 10.1529C12.0915 10.0033 12.2788 9.8489 12.4581 9.69243C13.0536 9.17287 13.5373 8.65157 13.872 8.25991C13.9533 8.16484 14.0255 8.07768 14.0882 8.00038C14.0255 7.92308 13.9533 7.83593 13.872 7.74086C13.5373 7.3492 13.0536 6.8279 12.4581 6.30834C11.2465 5.25122 9.67011 4.28675 8 4.28675C7.42992 4.28675 6.87075 4.39913 6.33329 4.5892L5.33372 3.58964C6.15133 3.22568 7.04941 2.98675 8 2.98675C10.1457 2.98675 12.0238 4.2041 13.3128 5.32879C13.9676 5.90014 14.4958 6.46975 14.8603 6.89627C15.0429 7.10999 15.1855 7.28897 15.2834 7.41589C15.3324 7.47938 15.3702 7.52994 15.3964 7.5654L15.4269 7.60703L15.4354 7.61888L15.4379 7.62247L15.4388 7.62368L15.4391 7.62413C15.4392 7.62431 15.4394 7.62448 14.9091 8.00039C15.4394 8.37629 15.4392 8.37646 15.4391 8.37664L15.4388 8.3771L15.4379 8.3783L15.4354 8.38189L15.4269 8.39374L15.3964 8.43537C15.3702 8.47084 15.3324 8.52139 15.2834 8.58488C15.1855 8.7118 15.0429 8.89078 14.8603 9.1045C14.4958 9.53102 13.9676 10.1006 13.3128 10.672ZM14.9091 8.00039L15.4394 7.62448L15.7058 8.00039L15.4394 8.37629L14.9091 8.00039ZM10.5456 8.00046C10.5456 8.24424 10.5113 8.48003 10.4473 8.70325L7.29735 5.55326C7.52057 5.48928 7.75635 5.455 8.00014 5.455C9.40595 5.455 10.5456 6.59464 10.5456 8.00046Z" fill="#303030"/>
</svg>
