<svg width="16" height="16" viewBox="0 0 16 16" fill="none" xmlns="http://www.w3.org/2000/svg">
<g clip-path="url(#clip0_660_41145)">
<path fill-rule="evenodd" clip-rule="evenodd" d="M8.00045 -0.410156L8.57692 0.700519L15.4108 13.8672L15.9036 14.8166H14.8339H1.15547H0.0849915L0.578736 13.8668L7.42327 0.70015L8.00045 -0.410156ZM2.22594 13.5166H13.7641L7.99955 2.41007L2.22594 13.5166ZM8.64999 5.34996V5.99996V9.53329V10.1833L7.34999 10.1833V9.53329L7.34999 5.99996V5.34996H8.64999ZM8.74999 11.9999C8.74996 11.5857 8.41416 11.2499 7.99994 11.25C7.58573 11.25 7.24996 11.5858 7.24999 12L7.24999 12.0228C7.25002 12.437 7.58582 12.7728 8.00004 12.7727C8.41425 12.7727 8.75002 12.4369 8.74999 12.0227L8.74999 11.9999Z" fill="#303030"/>
</g>
<defs>
<clipPath id="clip0_660_41145">
<rect width="16" height="16" fill="white"/>
</clipPath>
</defs>
</svg>
