<svg width="16" height="16" viewBox="0 0 16 16" fill="none" xmlns="http://www.w3.org/2000/svg">
<path d="M3.57494 0.690311C3.75851 0.593233 3.91015 0.817167 3.79477 0.992141C3.15665 1.95981 2.92845 3.01747 2.96341 4.0155C3.047 5.20873 3.46498 6.40196 4.05014 7.55258L4.50991 8.61796C4.53532 8.69571 4.56074 8.77169 4.58581 8.84665C4.68441 9.14144 4.77764 9.42019 4.84429 9.72597L4.92578 10.3076C4.92718 10.3176 4.92777 10.3276 4.92828 10.3377C4.93029 10.3775 4.93953 10.4246 4.94878 10.4717C4.95923 10.525 4.96968 10.5783 4.96968 10.6209V11.5007C4.96968 11.5108 4.96898 11.5208 4.96758 11.5308L4.88608 12.1124C4.67448 13.4788 3.83799 14.7238 2.72811 15.3099C2.54448 15.4069 2.39284 15.1829 2.50823 15.0079C3.14634 14.0403 3.37454 12.9826 3.33958 11.9846C3.25599 10.7914 2.83802 9.59812 2.25285 8.4475L1.79308 7.38212C1.76766 7.30437 1.74224 7.22836 1.71717 7.15341C1.61857 6.85861 1.52535 6.57989 1.4587 6.27411C1.44477 6.14627 1.4262 6.01842 1.40762 5.89058C1.37047 5.63488 1.33331 5.37919 1.33331 5.1235V4.54202C1.33331 4.53194 1.33401 4.52187 1.33541 4.51189L1.41691 3.93026C1.62851 2.52791 2.46503 1.27726 3.57494 0.690311Z" stroke="#303030" stroke-width="1.3"/>
<path d="M8.42334 0.690111C8.60701 0.593212 8.75864 0.817167 8.64326 0.992141C8.00514 1.95981 7.77694 3.01747 7.8119 4.0155C7.89549 5.20873 8.31346 6.40196 8.89863 7.55258L9.3584 8.61796C9.38379 8.69564 9.40919 8.77156 9.43423 8.84645C9.53283 9.14124 9.62613 9.42019 9.69278 9.72597L9.77427 10.3076C9.77567 10.3176 9.77626 10.3276 9.77677 10.3377C9.77878 10.3775 9.78802 10.4246 9.79727 10.4717C9.80772 10.525 9.81817 10.5783 9.81817 10.6209V11.5007C9.81817 11.5108 9.81746 11.5208 9.81607 11.5308L9.73457 12.1124C9.52297 13.4788 8.68648 14.7238 7.5766 15.3099C7.39297 15.4069 7.24133 15.1829 7.35671 15.0079C7.99483 14.0403 8.22303 12.9826 8.18807 11.9846C8.10448 10.7914 7.6865 9.59812 7.10134 8.4475L6.64157 7.38212C6.61615 7.30436 6.59073 7.22835 6.56565 7.15339C6.46705 6.85859 6.37384 6.57989 6.30719 6.27411C6.29111 6.12651 6.26264 5.9789 6.2337 5.82886C6.18745 5.58905 6.14 5.34302 6.14 5.08088V4.49941C6.14 4.48933 6.14071 4.47926 6.1421 4.46928L6.2236 3.88765C6.47048 2.52122 7.31254 1.27616 8.42334 0.690111Z" stroke="#303030" stroke-width="1.3"/>
<path d="M12.6604 4.0155C12.6254 3.01747 12.8536 1.95981 13.4917 0.992142C13.6071 0.817167 13.4555 0.593211 13.2718 0.690111C12.161 1.27616 11.319 2.52122 11.0721 3.88765L10.9906 4.46928C10.9892 4.47926 10.9885 4.48933 10.9885 4.49941V5.08088C10.9885 5.34302 11.0359 5.58904 11.0822 5.82885C11.1111 5.97889 11.1396 6.1265 11.1557 6.27411C11.2223 6.57989 11.3155 6.85859 11.4141 7.15338C11.4392 7.22835 11.4646 7.30436 11.49 7.38212L11.9498 8.4475C12.535 9.59812 12.953 10.7914 13.0366 11.9846C13.0715 12.9826 12.8433 14.0403 12.2052 15.0079C12.0898 15.1829 12.2414 15.4069 12.4251 15.3099C13.535 14.7238 14.3715 13.4788 14.5831 12.1124L14.6645 11.5308C14.6659 11.5208 14.6666 11.5108 14.6666 11.5007V10.6209C14.6666 10.5783 14.6562 10.525 14.6457 10.4717C14.6365 10.4246 14.6273 10.3775 14.6252 10.3377C14.6247 10.3276 14.6241 10.3176 14.6227 10.3076L14.5413 9.72597C14.4746 9.42019 14.3814 9.14149 14.2828 8.8467C14.2577 8.77173 14.2323 8.69572 14.2069 8.61796L13.7471 7.55258C13.1619 6.40196 12.744 5.20873 12.6604 4.0155Z" stroke="#303030" stroke-width="1.3"/>
</svg>
