<svg width="40" height="40" viewBox="0 0 40 40" fill="none" xmlns="http://www.w3.org/2000/svg">
<circle cx="20" cy="20" r="19.25" stroke="#5AE4AF" stroke-width="1.5"/>
<path fill-rule="evenodd" clip-rule="evenodd" d="M20 8.75C17.5095 8.75 15.5504 8.78001 14.0368 8.9916C12.522 9.20335 11.3277 9.61166 10.4697 10.4697C9.61165 11.3277 9.20334 12.522 8.99159 14.0368C8.78001 15.5504 8.75 17.5095 8.75 20C8.75 22.4905 8.78001 24.4496 8.99159 25.9632C9.20334 27.478 9.61165 28.6723 10.4697 29.5303C11.3277 30.3883 12.522 30.7967 14.0368 31.0084C15.5504 31.22 17.5095 31.25 20 31.25C22.4905 31.25 24.4496 31.22 25.9632 31.0084C27.478 30.7967 28.6723 30.3883 29.5303 29.5303C30.3883 28.6723 30.7967 27.478 31.0084 25.9632C31.22 24.4496 31.25 22.4905 31.25 20C31.25 17.5095 31.22 15.5504 31.0084 14.0368C30.7967 12.522 30.3883 11.3277 29.5303 10.4697C28.6723 9.61166 27.478 9.20335 25.9632 8.9916C24.4496 8.78001 22.4905 8.75 20 8.75ZM10.25 20C10.25 17.4905 10.2825 15.6371 10.4772 14.2445C10.6717 12.853 11.0133 12.0473 11.5303 11.5303C12.0473 11.0133 12.853 10.6717 14.2444 10.4772C15.6371 10.2825 17.4904 10.25 20 10.25C22.5096 10.25 24.363 10.2825 25.7556 10.4772C27.147 10.6717 27.9527 11.0133 28.4697 11.5303C28.9867 12.0473 29.3284 12.853 29.5229 14.2445C29.7175 15.6371 29.75 17.4905 29.75 20C29.75 22.5095 29.7175 24.3629 29.5229 25.7555C29.3284 27.147 28.9867 27.9527 28.4697 28.4697C27.9527 28.9867 27.147 29.3283 25.7556 29.5228C24.363 29.7175 22.5096 29.75 20 29.75C17.4904 29.75 15.6371 29.7175 14.2444 29.5228C12.853 29.3283 12.0473 28.9867 11.5303 28.4697C11.0133 27.9527 10.6717 27.147 10.4772 25.7555C10.2825 24.3629 10.25 22.5095 10.25 20ZM22.5303 16.4697L25.5303 19.4697L26.0607 20.0001L25.5303 20.5304L22.5303 23.5304L21.4697 22.4697L23.1893 20.7501H14V19.2501H23.1893L21.4697 17.5304L22.5303 16.4697Z" fill="#5AE4AF"/>
</svg>
