<svg width="40" height="40" viewBox="0 0 40 40" fill="none" xmlns="http://www.w3.org/2000/svg">
<circle cx="20" cy="20" r="19.25" stroke="#5E5E5E" stroke-width="1.5"/>
<g clip-path="url(#clip0)">
<path fill-rule="evenodd" clip-rule="evenodd" d="M21.2295 9.50506C21.8472 9.51767 22.4647 9.53691 23.0819 9.56284C23.5794 9.58377 24.0765 9.61614 24.5735 9.64826C25.2362 9.69107 25.8974 9.7498 26.5499 9.88069C27.1179 9.99463 27.6662 10.1646 28.1747 10.4498C28.7127 10.7516 29.1443 11.1637 29.4669 11.6889C29.808 12.2444 29.9976 12.8556 30.1213 13.4906C30.2195 13.9947 30.2733 14.5042 30.3148 15.0157C30.3636 15.617 30.3991 16.2192 30.4264 16.8218C30.459 17.5417 30.4807 18.262 30.4917 18.9828C30.5005 19.5621 30.5026 20.1412 30.4966 20.7204C30.492 21.1723 30.4841 21.6243 30.4686 22.076C30.4493 22.6374 30.4241 23.1987 30.3948 23.7597C30.3722 24.1912 30.3456 24.6228 30.3095 25.0534C30.2494 25.7694 30.1653 26.4824 29.959 27.1744C29.7425 27.901 29.4026 28.5555 28.8324 29.0723C28.4674 29.4031 28.0474 29.6435 27.5891 29.8186C27.0454 30.0264 26.4799 30.1433 25.9045 30.2196C25.3475 30.2934 24.7876 30.3327 24.2271 30.3667C23.7567 30.3952 23.2863 30.4194 22.8155 30.4402C22.3568 30.4604 21.8979 30.471 21.4389 30.4836C20.5399 30.5083 19.6409 30.5006 18.742 30.4897C18.1561 30.4826 17.5703 30.4576 16.9848 30.4324C16.4727 30.4103 15.9607 30.3811 15.4493 30.3471C14.7134 30.2982 13.9788 30.2358 13.2573 30.0721C12.7548 29.9581 12.2694 29.796 11.8192 29.5408C11.1872 29.1826 10.7086 28.6776 10.3792 28.0298C10.0834 27.4482 9.9246 26.8254 9.82215 26.1857C9.73866 25.6644 9.6945 25.139 9.65884 24.6126C9.62317 24.0863 9.59233 23.5598 9.56997 23.0327C9.55226 22.6153 9.53958 22.1978 9.52581 21.7803C9.49734 20.9178 9.49679 20.0552 9.50361 19.1926C9.50723 18.7333 9.51886 18.274 9.53363 17.8149C9.54792 17.3706 9.56563 16.9263 9.59134 16.4826C9.62339 15.9292 9.65283 15.3757 9.70208 14.8233C9.75764 14.1997 9.83493 13.5799 9.99763 12.974C10.1562 12.3835 10.3922 11.8283 10.7736 11.3441C11.2253 10.7705 11.8138 10.3914 12.4937 10.1437C13.078 9.9308 13.6847 9.82036 14.2996 9.74775C14.8526 9.68245 15.4079 9.64559 15.9637 9.61477C16.4781 9.58627 16.9925 9.56137 17.5073 9.54109C18.3153 9.50925 19.1235 9.49235 19.9322 9.50337C20.3646 9.50337 20.7972 9.49624 21.2295 9.50506Z" stroke="#5E5E5E" stroke-width="1.5"/>
<path d="M14 20H24.25H25M25 20L22 17M25 20L22 23" stroke="#5E5E5E" stroke-width="1.5"/>
</g>
<defs>
<clipPath id="clip0">
<rect width="24" height="24" fill="white" transform="translate(8 8)"/>
</clipPath>
</defs>
</svg>
