<svg width="40" height="40" viewBox="0 0 40 40" fill="none" xmlns="http://www.w3.org/2000/svg">
<circle cx="20" cy="20" r="19.25" stroke="#5AE4AF" stroke-width="1.5"/>
<path fill-rule="evenodd" clip-rule="evenodd" d="M9.7998 17.7501C9.7998 15.4503 10.6856 13.3511 12.1486 11.7573L11.0436 10.7429C9.33972 12.5991 8.2998 15.0556 8.2998 17.7501C8.2998 20.4446 9.33972 22.9011 11.0436 24.7573L12.1486 23.7429C10.6856 22.1491 9.7998 20.0499 9.7998 17.7501ZM27.851 11.7573C29.314 13.3511 30.1998 15.4503 30.1998 17.7501C30.1998 20.0499 29.314 22.1491 27.851 23.7429L28.956 24.7573C30.6599 22.9011 31.6998 20.4446 31.6998 17.7501C31.6998 15.0556 30.6599 12.5991 28.956 10.7429L27.851 11.7573ZM15.7938 14.7366C15.116 15.5318 14.6998 16.5865 14.6998 17.7501C14.6998 18.9137 15.116 19.9684 15.7938 20.7636L14.6522 21.7366C13.7465 20.6741 13.1998 19.2757 13.1998 17.7501C13.1998 16.2245 13.7465 14.8261 14.6522 13.7636L15.7938 14.7366ZM25.2998 17.7501C25.2998 16.5865 24.8837 15.5318 24.2059 14.7366L25.3474 13.7636C26.2531 14.8261 26.7998 16.2245 26.7998 17.7501C26.7998 19.2757 26.2531 20.6741 25.3474 21.7366L24.2059 20.7636C24.8837 19.9684 25.2998 18.9137 25.2998 17.7501ZM20.7498 19.8547C21.4828 19.558 21.9998 18.8394 21.9998 18.0001C21.9998 16.8955 21.1044 16.0001 19.9998 16.0001C18.8952 16.0001 17.9998 16.8955 17.9998 18.0001C17.9998 18.8394 18.5169 19.558 19.2498 19.8547L19.2498 32.2501L20.7498 32.2501L20.7498 19.8547Z" fill="#5AE4AF"/>
</svg>
