<svg width="40" height="40" viewBox="0 0 40 40" fill="none" xmlns="http://www.w3.org/2000/svg">
<circle cx="20" cy="20" r="19.25" stroke="#5AE4AA" stroke-width="1.5"/>
<path d="M13.5 23H10.75C10.1977 23 9.75 22.5523 9.75 22V10.75C9.75 10.1977 10.1977 9.75 10.75 9.75H22.5C23.0523 9.75 23.5 10.1977 23.5 10.75V22C23.5 22.5523 23.0523 23 22.5 23H20" stroke="#5AE4AA" stroke-width="1.5"/>
<path d="M20.25 17H17.5C16.9477 17 16.5 17.4477 16.5 18V29.25C16.5 29.8023 16.9477 30.25 17.5 30.25H29.25C29.8023 30.25 30.25 29.8023 30.25 29.25V18C30.25 17.4477 29.8023 17 29.25 17H26.75" stroke="#5AE4AA" stroke-width="1.5"/>
</svg>
