<svg width="40" height="40" viewBox="0 0 40 40" fill="none" xmlns="http://www.w3.org/2000/svg">
<circle cx="20" cy="20" r="19.25" stroke="#5AE4AF" stroke-width="1.5"/>
<g clip-path="url(#clip0_1599_203165)">
<path fill-rule="evenodd" clip-rule="evenodd" d="M20.9149 9.20971L20.9461 9.24726C23.2066 11.9612 26.4602 13.6788 30 14.0005V15.8093C30 22.1319 26.6827 27.991 21.2611 31.244L20.0003 32.0005L18.7393 31.244C13.3175 27.991 10 22.1318 10 15.8089V14.0005C13.5399 13.6787 16.7937 11.9611 19.0544 9.24718L19.0856 9.2096C19.2498 9.01091 19.4088 8.80693 19.5622 8.59781L19.8773 8.1683L19.9633 8.05096C19.9817 8.02598 20.019 8.02598 20.0373 8.05097L20.1233 8.16832L20.1234 8.16833L20.437 8.59615C20.5908 8.80589 20.7502 9.01046 20.9149 9.20971ZM20.0002 10.45C22.2037 12.9831 25.2015 14.6948 28.5 15.3064V15.8093C28.5 21.605 25.4592 26.9758 20.4894 29.9578L20.0003 30.2513L19.511 29.9577C14.541 26.9758 11.5 21.6049 11.5 15.8089V15.3063C14.7986 14.6948 17.7964 12.9831 20.0002 10.45ZM21.1226 18.455L20 15.0001L18.8774 18.455H15.2447L18.1836 20.5903L17.0611 24.0452L20 21.9099L22.9389 24.0452L21.8164 20.5903L24.7553 18.455H21.1226Z" fill="#5AE4AF"/>
</g>
<defs>
<clipPath id="clip0_1599_203165">
<rect width="24" height="24" fill="white" transform="translate(8 8)"/>
</clipPath>
</defs>
</svg>
