<svg width="40" height="40" viewBox="0 0 40 40" fill="none" xmlns="http://www.w3.org/2000/svg">
<circle cx="20" cy="20" r="19.25" stroke="#5AE4AF" stroke-width="1.5"/>
<path d="M24 20C24 22.2091 22.2091 24 20 24C17.7909 24 16 22.2091 16 20C16 17.7909 17.7909 16 20 16C22.2091 16 24 17.7909 24 20Z" stroke="#5AE4AF" stroke-width="1.5"/>
<path d="M8.75 18.0137V21.9863C8.75 22.3841 9.0347 22.7265 9.43021 22.8046L11.9318 23.2562C12.2192 23.3081 12.4695 23.4831 12.6171 23.7351L13.0136 24.4125C13.1698 24.6792 13.1938 25.0031 13.0788 25.29L12.1274 27.6618C11.9981 28.0386 12.1565 28.453 12.5058 28.6519L15.9942 30.6382C16.3435 30.8371 16.7866 30.7651 17.0528 30.4663L18.8257 28.5031C19.0153 28.2931 19.2849 28.1732 19.5678 28.1732L20.4322 28.1732C20.7151 28.1732 20.9847 28.2931 21.1743 28.5031L22.9471 30.4663C23.2134 30.7651 23.6565 30.8371 24.0058 30.6382L27.4942 28.6519C27.8435 28.453 28.0019 28.0386 27.8726 27.6618L26.9212 25.29C26.8062 25.0031 26.8302 24.6792 26.9864 24.4125L27.3829 23.7351C27.5305 23.4831 27.7808 23.3081 28.0682 23.2562L30.5698 22.8046C30.9653 22.7265 31.25 22.3841 31.25 21.9863V18.0137C31.25 17.6159 30.9653 17.2735 30.5698 17.1954L28.0682 16.7438C27.7808 16.6919 27.5305 16.5169 27.3829 16.2649L26.9864 15.5875C26.8302 15.3208 26.8062 14.9969 26.9212 14.71L27.8726 12.3382C28.0019 11.9614 27.8435 11.547 27.4942 11.3481L24.0058 9.36184C23.6565 9.16294 23.2134 9.23486 22.9471 9.53365L21.1743 11.4969C20.9847 11.7069 20.7151 11.8268 20.4321 11.8268L19.5679 11.8268C19.2849 11.8268 19.0153 11.7069 18.8257 11.4969L17.0529 9.53365C16.7866 9.23486 16.3435 9.16294 15.9942 9.36184L12.5058 11.3481C12.1565 11.547 11.9981 11.9614 12.1274 12.3382L13.0788 14.71C13.1938 14.9969 13.1698 15.3208 13.0136 15.5875L12.6171 16.2649C12.4695 16.5169 12.2192 16.6919 11.9318 16.7438L9.43021 17.1954C9.0347 17.2735 8.75 17.6159 8.75 18.0137Z" stroke="#5AE4AF" stroke-width="1.5"/>
</svg>
