<svg width="40" height="40" viewBox="0 0 40 40" fill="none" xmlns="http://www.w3.org/2000/svg">
<circle cx="20" cy="20" r="19.25" stroke="#5AE4AF" stroke-width="1.5"/>
<path fill-rule="evenodd" clip-rule="evenodd" d="M11.5 8.25C11.0858 8.25 10.75 8.58579 10.75 9V9.03914V9.07843V9.11787V9.15746V9.1972V9.23709V9.27712V9.31731V9.35763V9.39811V9.43872V9.47948V9.52038V9.56142V9.6026V9.64392V9.68538V9.72698V9.76871V9.81058V9.85258V9.89471V9.93698V9.97939V10.0219V10.0646V10.1074V10.1503V10.1933V10.2365V10.2798V10.3232V10.3668V10.4105V10.4543V10.4982V10.5422V10.5864V10.6306V10.675V10.7195V10.7642V10.8089V10.8538V10.8987V10.9438V10.989V11.0343V11.0797V11.1252V11.1709V11.2166V11.2624V11.3084V11.3544V11.4006V11.4468V11.4932V11.5397V11.5862V11.6329V11.6796V11.7265V11.7734V11.8205V11.8676V11.9149V11.9622V12.0096V12.0571V12.1047V12.1524V12.2002V12.248V12.296V12.337C9.31665 12.6755 8.25 13.9632 8.25 15.5C8.25 17.0368 9.31665 18.3245 10.75 18.663V18.6722V18.7239V18.7755V18.8271V18.8787V18.9303V18.9819V19.0334V19.0848V19.1363V19.1877V19.2391V19.2904V19.3417V19.393V19.4442V19.4954V19.5465V19.5976V19.6487V19.6997V19.7507V19.8016V19.8525V19.9033V19.9541V20.0048V20.0555V20.1062V20.1568V20.2073V20.2578V20.3082V20.3586V20.4089V20.4592V20.5094V20.5595V20.6096V20.6596V20.7096V20.7595V20.8093V20.8591V20.9088V20.9585V21.0081V21.0576V21.107V21.1564V21.2057V21.2549V21.3041V21.3532V21.4022V21.4511V21.5V21.5488V21.5975V21.6461V21.6947V21.7432V21.7916V21.8399V21.8881V21.9363V21.9843V22.0323V22.0802V22.128V22.1757V22.2233V22.2709V22.3183V22.3657V22.4129V22.4601V22.5072V22.5542V22.6011V22.6478V22.6945V22.7411V22.7876V22.834V22.8803V22.9265V22.9726V23.0186V23.0644V23.1102V23.1559V23.2014V23.2469V23.2922V23.3374V23.3826V23.4276V23.4724V23.5172V23.5619V23.6064V23.6509V23.6952V23.7394V23.7835V23.8274V23.8712V23.915V23.9586V24.002V24.0454V24.0886V24.1317V24.1746V24.2175V24.2602V24.3027V24.3452V24.3875V24.4297V24.4717V24.5136V24.5554V24.5971V24.6386V24.6799V24.7212V24.7623V24.8032V24.844V24.8847V24.9252V24.9656V25.0058V25.0459V25.0858V25.1256V25.1652V25.2047V25.2441V25.2833V25.3223V25.3612V25.3999V25.4385V25.4769V25.5152V25.5533V25.5912V25.629V25.6666V25.7041V25.7414V25.7785V25.8155V25.8523V25.889V25.9255V25.9618V25.9979V26.0339V26.0697V26.1053V26.1408V26.1761V26.2112V26.2461V26.2809V26.3155V26.3499V26.3841V26.4182V26.452V26.4857V26.5192V26.5526V26.5857V26.6187V26.6514V26.684V26.7164V26.7486V26.7807V26.8125V26.8441V26.8756V26.9069V26.9379V26.9688V26.9995V27.0299V27.0602V27.0903V27.1202V27.1499V27.1794V27.2087V27.2377V27.2666V27.2953V27.3238V27.352V27.3801V27.4079V27.4356V27.463V27.4902V27.5172V27.544V27.5706V27.597V27.6231V27.6491V27.6748V27.7003V27.7256V27.7507V27.7755V27.8001V27.8245V27.8487V27.8727V27.8964V27.9199V27.9432V27.9662V27.9891V28.0117V28.034V28.0562V28.0781V28.0997V28.1212V28.1424V28.1633V28.1841V28.2046V28.2248V28.2448V28.2646V28.2841V28.3034V28.3225V28.3413V28.3598V28.3782V28.3962V28.4141V28.4316V28.449V28.466V28.4829V28.4994V28.5158V28.5318V28.5477V28.5632V28.5785V28.5936V28.6084V28.6229V28.6372V28.6512V28.6649V28.6784V28.6916V28.7046V28.7173V28.7297V28.7419V28.7538V28.7654V28.7768V28.7878V28.7987V28.8092V28.8195V28.8295V28.8392V28.8486V28.8578V28.8667V28.8753V28.8836V28.8917V28.8995V28.907V28.9142V28.9211V28.9277V28.9341V28.9402V28.9459V28.9514V28.9566V28.9615V28.9662V28.9705V28.9745V28.9783V28.9817V28.9849V28.9877V28.9903V28.9926V28.9945V28.9962V28.9976V28.9986V28.9994V28.9998C10.75 28.9999 10.75 29 11.5 29H10.75C10.75 29.4142 11.0858 29.75 11.5 29.75C11.9142 29.75 12.25 29.4142 12.25 29H11.5C12.25 29 12.25 28.9999 12.25 28.9998V28.9994V28.9986V28.9976V28.9962V28.9945V28.9926V28.9903V28.9877V28.9849V28.9817V28.9783V28.9745V28.9705V28.9662V28.9615V28.9566V28.9514V28.9459V28.9402V28.9341V28.9277V28.9211V28.9142V28.907V28.8995V28.8917V28.8836V28.8753V28.8667V28.8578V28.8486V28.8392V28.8295V28.8195V28.8092V28.7987V28.7878V28.7768V28.7654V28.7538V28.7419V28.7297V28.7173V28.7046V28.6916V28.6784V28.6649V28.6512V28.6372V28.6229V28.6084V28.5936V28.5785V28.5632V28.5477V28.5318V28.5158V28.4994V28.4829V28.466V28.449V28.4316V28.4141V28.3962V28.3782V28.3598V28.3413V28.3225V28.3034V28.2841V28.2646V28.2448V28.2248V28.2046V28.1841V28.1633V28.1424V28.1212V28.0997V28.0781V28.0562V28.034V28.0117V27.9891V27.9662V27.9432V27.9199V27.8964V27.8727V27.8487V27.8245V27.8001V27.7755V27.7507V27.7256V27.7003V27.6748V27.6491V27.6231V27.597V27.5706V27.544V27.5172V27.4902V27.463V27.4356V27.4079V27.3801V27.352V27.3238V27.2953V27.2666V27.2377V27.2087V27.1794V27.1499V27.1202V27.0903V27.0602V27.0299V26.9995V26.9688V26.9379V26.9069V26.8756V26.8441V26.8125V26.7807V26.7486V26.7164V26.684V26.6514V26.6187V26.5857V26.5526V26.5192V26.4857V26.452V26.4182V26.3841V26.3499V26.3155V26.2809V26.2461V26.2112V26.1761V26.1408V26.1053V26.0697V26.0339V25.9979V25.9618V25.9255V25.889V25.8523V25.8155V25.7785V25.7414V25.7041V25.6666V25.629V25.5912V25.5533V25.5152V25.4769V25.4385V25.3999V25.3612V25.3223V25.2833V25.2441V25.2047V25.1652V25.1256V25.0858V25.0459V25.0058V24.9656V24.9252V24.8847V24.844V24.8032V24.7623V24.7212V24.6799V24.6386V24.5971V24.5554V24.5136V24.4717V24.4297V24.3875V24.3452V24.3027V24.2602V24.2175V24.1746V24.1317V24.0886V24.0454V24.002V23.9586V23.915V23.8712V23.8274V23.7835L12.25 23.7394V23.6952V23.6509V23.6064V23.5619V23.5172V23.4724V23.4276V23.3826V23.3374V23.2922V23.2469V23.2014V23.1559V23.1102V23.0644V23.0186V22.9726V22.9265V22.8803V22.834V22.7876V22.7411V22.6945V22.6478V22.6011V22.5542V22.5072V22.4601V22.4129V22.3657V22.3183V22.2709V22.2233V22.1757V22.128V22.0802V22.0323V21.9843V21.9363V21.8881V21.8399V21.7916V21.7432V21.6947V21.6461V21.5975V21.5488V21.5V21.4511V21.4022V21.3532V21.3041V21.2549V21.2057V21.1564V21.107V21.0576V21.0081V20.9585V20.9088V20.8591V20.8093V20.7595V20.7096V20.6596V20.6096V20.5595V20.5094V20.4592V20.4089V20.3586V20.3082V20.2578V20.2073V20.1568V20.1062V20.0555V20.0048V19.9541V19.9033V19.8525V19.8016V19.7507V19.6997V19.6487V19.5976V19.5465V19.4954V19.4442V19.393V19.3417V19.2904V19.2391V19.1877V19.1363V19.0848V19.0334V18.9819V18.9303V18.8787V18.8271V18.7755V18.7239V18.6722V18.663C13.6834 18.3245 14.75 17.0368 14.75 15.5C14.75 13.9632 13.6834 12.6755 12.25 12.337V12.296V12.248V12.2002V12.1524V12.1047V12.0571V12.0096V11.9622V11.9149V11.8676V11.8205V11.7734V11.7265V11.6796V11.6329V11.5862V11.5397V11.4932V11.4468V11.4006V11.3544V11.3084V11.2624V11.2166V11.1709V11.1252V11.0797V11.0343V10.989V10.9438V10.8987V10.8538V10.8089V10.7642V10.7195V10.675V10.6306V10.5864V10.5422V10.4982V10.4543V10.4105V10.3668V10.3232V10.2798V10.2365V10.1933V10.1503V10.1074V10.0646V10.0219V9.97939V9.93698V9.89471V9.85258V9.81058V9.76871V9.72698V9.68538V9.64392V9.6026V9.56142V9.52038V9.47948V9.43872V9.39811V9.35763V9.31731V9.27712V9.23709V9.1972V9.15746V9.11787V9.07843V9.03914V9C12.25 8.58579 11.9142 8.25 11.5 8.25ZM20 8.25C20.4142 8.25 20.75 8.58579 20.75 9V9.03914V9.07843V9.11787V9.15746V9.1972V9.23709V9.27712V9.31731V9.35763V9.39811V9.43872V9.47948V9.52038V9.56142V9.6026V9.64392V9.68538V9.72698V9.76871V9.81058V9.85258V9.89471V9.93698V9.97939V10.0219V10.0646V10.1074V10.1503V10.1933V10.2365V10.2798V10.3232V10.3668V10.4105V10.4543V10.4982V10.5422V10.5864V10.6306V10.675V10.7195V10.7642V10.8089V10.8538V10.8987V10.9438V10.989V11.0343V11.0797V11.1252V11.1709V11.2166V11.2624V11.3084V11.3544V11.4006V11.4468V11.4932V11.5397V11.5862V11.6329V11.6796V11.7265V11.7734V11.8205V11.8676V11.9149V11.9622V12.0096V12.0571V12.1047V12.1524V12.2002V12.248V12.296V12.344V12.3921V12.4403V12.4886V12.537V12.5854V12.634V12.6826V12.7313V12.78V12.8289V12.8778V12.9268V12.9758V13.025V13.0742V13.1235V13.1728V13.2222V13.2717V13.3213V13.3709V13.4206V13.4704V13.5202V13.5701V13.62V13.67V13.7201V13.7702V13.8204V13.8706V13.9209V13.9713V14.0217V14.0722V14.1227V14.1733V14.2239V14.2745V14.3253V14.376V14.4269V14.4777V14.5286V14.5796V14.6306V14.6816V14.7327V14.7839V14.835V14.8862V14.9375V14.9888V15.0401V15.0915V15.1429V15.1943V15.2458V15.2973V15.3488V15.4004V15.452V15.5036V15.5552V15.6069V15.6586V15.7103V15.7621V15.8139V15.8657V15.9175V15.9693V16.0212V16.0731V16.125V16.1769V16.2288V16.2808V16.3327V16.3847V16.4367V16.4887V16.5407V16.5928V16.6448V16.6969V16.7489V16.801V16.853V16.9051V16.9572V17.0093V17.0613V17.1134V17.1655V17.2176V17.2697V17.3218V17.3738V17.4259V17.478V17.53V17.5821V17.6341V17.6862V17.7382V17.7902V17.8422V17.8942V17.9462V17.9982V18.0501V18.1021V18.154V18.2059V18.2578V18.3097V18.3615V18.4134V18.4652V18.517V18.5687V18.6205V18.6722V18.7239V18.7755V18.8271V18.8787V18.9303V18.9819V19.0334V19.0848V19.1363V19.1877V19.2391V19.2904V19.337C22.1834 19.6755 23.25 20.9632 23.25 22.5C23.25 24.0368 22.1834 25.3245 20.75 25.663V25.6666V25.7041V25.7414V25.7785V25.8155V25.8523V25.889V25.9255V25.9618V25.9979V26.0339V26.0697V26.1053V26.1408V26.1761V26.2112V26.2461V26.2809V26.3155V26.3499V26.3841V26.4182V26.452V26.4857V26.5192V26.5526V26.5857V26.6187V26.6514V26.684V26.7164V26.7486V26.7807V26.8125V26.8441V26.8756V26.9069V26.9379V26.9688V26.9995V27.0299V27.0602V27.0903V27.1202V27.1499V27.1794V27.2087V27.2377V27.2666V27.2953V27.3238V27.352V27.3801V27.4079V27.4356V27.463V27.4902V27.5172V27.544V27.5706V27.597V27.6231V27.6491V27.6748V27.7003V27.7256V27.7507V27.7755V27.8001V27.8245V27.8487V27.8727V27.8964V27.9199V27.9432V27.9662V27.9891V28.0117V28.034V28.0562V28.0781V28.0997V28.1212V28.1424V28.1633V28.1841V28.2046V28.2248V28.2448V28.2646V28.2841V28.3034V28.3225V28.3413V28.3598V28.3782V28.3962V28.4141V28.4316V28.449V28.466V28.4829V28.4994V28.5158V28.5318V28.5477V28.5632V28.5785V28.5936V28.6084V28.6229V28.6372V28.6512V28.6649V28.6784V28.6916V28.7046V28.7173V28.7297V28.7419V28.7538V28.7654V28.7768V28.7878V28.7987V28.8092V28.8195V28.8295V28.8392V28.8486V28.8578V28.8667V28.8753V28.8836V28.8917V28.8995V28.907V28.9142V28.9211V28.9277V28.9341V28.9402V28.9459V28.9514V28.9566V28.9615V28.9662V28.9705V28.9745V28.9783V28.9817V28.9849V28.9877V28.9903V28.9926V28.9945V28.9962V28.9976V28.9986V28.9994V28.9998C20.75 28.9999 20.75 29 20 29C19.25 29 19.25 28.9999 19.25 28.9998V28.9994V28.9986V28.9976V28.9962V28.9945V28.9926V28.9903V28.9877V28.9849V28.9817V28.9783V28.9745V28.9705V28.9662V28.9615V28.9566V28.9514V28.9459V28.9402V28.9341V28.9277V28.9211V28.9142V28.907V28.8995V28.8917V28.8836V28.8753V28.8667V28.8578V28.8486V28.8392V28.8295V28.8195V28.8092V28.7987V28.7878V28.7768V28.7654V28.7538V28.7419V28.7297V28.7173V28.7046V28.6916V28.6784V28.6649V28.6512V28.6372V28.6229V28.6084V28.5936V28.5785V28.5632V28.5477V28.5318V28.5158V28.4994V28.4829V28.466V28.449V28.4316V28.4141V28.3962V28.3782V28.3598V28.3413V28.3225V28.3034V28.2841V28.2646V28.2448V28.2248V28.2046V28.1841V28.1633V28.1424V28.1212V28.0997V28.0781V28.0562V28.034V28.0117V27.9891V27.9662V27.9432V27.9199V27.8964V27.8727V27.8487V27.8245V27.8001V27.7755V27.7507V27.7256V27.7003V27.6748V27.6491V27.6231V27.597V27.5706V27.544V27.5172V27.4902V27.463V27.4356V27.4079V27.3801V27.352V27.3238V27.2953V27.2666V27.2377V27.2087V27.1794V27.1499V27.1202V27.0903V27.0602V27.0299V26.9995V26.9688V26.9379V26.9069V26.8756V26.8441V26.8125V26.7807V26.7486V26.7164V26.684V26.6514V26.6187V26.5857V26.5526V26.5192V26.4857V26.452V26.4182V26.3841V26.3499V26.3155V26.2809V26.2461V26.2112V26.1761V26.1408V26.1053V26.0697V26.0339V25.9979V25.9618V25.9255V25.889V25.8523V25.8155V25.7785V25.7414V25.7041V25.6666V25.663C17.8166 25.3245 16.75 24.0368 16.75 22.5C16.75 20.9632 17.8166 19.6755 19.25 19.337V19.2904V19.2391V19.1877V19.1363V19.0848V19.0334V18.9819V18.9303V18.8787V18.8271V18.7755V18.7239V18.6722V18.6205V18.5687V18.517V18.4652V18.4134V18.3615V18.3097V18.2578V18.2059V18.154V18.1021V18.0501V17.9982V17.9462V17.8942V17.8422V17.7902V17.7382V17.6862V17.6341V17.5821V17.53V17.478V17.4259V17.3738V17.3218V17.2697V17.2176V17.1655V17.1134V17.0613V17.0093V16.9572V16.9051V16.853V16.801V16.7489V16.6969V16.6448V16.5928V16.5407V16.4887V16.4367V16.3847V16.3327V16.2808V16.2288V16.1769V16.125V16.0731V16.0212V15.9693V15.9175V15.8657V15.8139V15.7621V15.7103V15.6586V15.6069V15.5552V15.5036V15.452V15.4004V15.3488V15.2973V15.2458V15.1943V15.1429V15.0915V15.0401V14.9888V14.9375V14.8862V14.835V14.7839V14.7327V14.6816V14.6306V14.5796V14.5286V14.4777V14.4269V14.376V14.3253V14.2745V14.2239V14.1733V14.1227V14.0722V14.0217V13.9713V13.9209V13.8706V13.8204V13.7702V13.7201V13.67V13.62V13.5701V13.5202V13.4704V13.4206V13.3709V13.3213V13.2717V13.2222V13.1728V13.1235V13.0742V13.025V12.9758V12.9268V12.8778V12.8289V12.78V12.7313V12.6826V12.634V12.5854V12.537V12.4886V12.4403V12.3921V12.344V12.296V12.248V12.2002V12.1524V12.1047V12.0571V12.0096V11.9622V11.9149V11.8676V11.8205V11.7734V11.7265V11.6796V11.6329V11.5862V11.5397V11.4932V11.4468V11.4006V11.3544V11.3084V11.2624V11.2166V11.1709V11.1252V11.0797V11.0343V10.989V10.9438V10.8987V10.8538V10.8089V10.7642V10.7195V10.675V10.6306V10.5864V10.5422V10.4982V10.4543V10.4105V10.3668V10.3232V10.2798V10.2365V10.1933V10.1503V10.1074V10.0646V10.0219V9.97939V9.93698V9.89471V9.85258V9.81058V9.76871V9.72698V9.68538V9.64392V9.6026V9.56142V9.52038V9.47948V9.43872V9.39811V9.35763V9.31731V9.27712V9.23709V9.1972V9.15746V9.11787V9.07843V9.03914V9C19.25 8.58579 19.5858 8.25 20 8.25ZM20 29H20.75C20.75 29.4142 20.4142 29.75 20 29.75C19.5858 29.75 19.25 29.4142 19.25 29H20ZM11.5 13.75C10.5335 13.75 9.75 14.5335 9.75 15.5C9.75 16.4665 10.5335 17.25 11.5 17.25C12.4665 17.25 13.25 16.4665 13.25 15.5C13.25 14.5335 12.4665 13.75 11.5 13.75ZM18.25 22.5C18.25 21.5335 19.0335 20.75 20 20.75C20.9665 20.75 21.75 21.5335 21.75 22.5C21.75 23.4665 20.9665 24.25 20 24.25C19.0335 24.25 18.25 23.4665 18.25 22.5ZM29.25 9C29.25 8.58579 28.9142 8.25 28.5 8.25C28.0858 8.25 27.75 8.58579 27.75 9V9.03914V9.07843V9.11787V9.15746V9.1972V9.23709V9.27712V9.31731V9.35763V9.39811V9.43872V9.47948V9.52038V9.56142V9.6026V9.64392V9.68538V9.72698V9.76871V9.81058V9.85258V9.89471V9.93698V9.97939V10.0219V10.0646V10.1074V10.1503V10.1933V10.2365V10.2798V10.3232V10.3668V10.4105V10.4543V10.4982V10.5422V10.5864V10.6306V10.675V10.7195V10.7642V10.8089V10.8538V10.8987V10.9438V10.989V11.0343V11.0797V11.1252V11.1709V11.2166V11.2624V11.3084V11.3544V11.4006V11.4468V11.4932V11.5397V11.5862V11.6329V11.6796V11.7265V11.7734V11.8205V11.8676V11.9149V11.9622V12.0096V12.0571V12.1047V12.1524V12.2002V12.248V12.296V12.344V12.3921V12.4403V12.4886V12.537V12.5854V12.634V12.6826V12.7313V12.78V12.8289V12.8778V12.9268V12.9758V13.025V13.0742V13.1235V13.1728V13.2222V13.2717V13.3213V13.3709V13.4206V13.4704V13.5202V13.5701V13.62V13.67V13.7201V13.7702V13.8204V13.8706V13.9209V13.9713V14.0217V14.0722V14.1227V14.1733V14.2239V14.2745V14.3253V14.337C26.3167 14.6755 25.25 15.9632 25.25 17.5C25.25 19.0368 26.3167 20.3245 27.75 20.663V20.7096V20.7595V20.8093V20.8591V20.9088V20.9585V21.0081V21.0576V21.107V21.1564V21.2057V21.2549V21.3041V21.3532V21.4022V21.4511V21.5V21.5488V21.5975V21.6461V21.6947V21.7432V21.7916V21.8399V21.8881V21.9363V21.9843V22.0323V22.0802V22.128V22.1757V22.2233V22.2709V22.3183V22.3657V22.4129V22.4601V22.5072V22.5542V22.6011V22.6478V22.6945V22.7411V22.7876V22.834V22.8803V22.9265V22.9726V23.0186V23.0644V23.1102V23.1559V23.2014V23.2469V23.2922V23.3374V23.3826V23.4276V23.4725V23.5172V23.5619V23.6064V23.6509V23.6952V23.7394V23.7835V23.8274V23.8712V23.915V23.9586V24.002V24.0454V24.0886V24.1317V24.1746V24.2175V24.2602V24.3027V24.3452V24.3875V24.4297V24.4717V24.5136V24.5554V24.5971V24.6386V24.6799V24.7212V24.7623V24.8032V24.844V24.8847V24.9252V24.9656V25.0058V25.0459V25.0858V25.1256V25.1652V25.2047V25.2441V25.2833V25.3223V25.3612V25.3999V25.4385V25.4769V25.5152V25.5533V25.5912V25.629V25.6666V25.7041V25.7414V25.7785V25.8155V25.8523V25.889V25.9255V25.9618V25.9979V26.0339V26.0697V26.1053V26.1408V26.1761V26.2112V26.2461V26.2809V26.3155V26.3499V26.3841V26.4182V26.452V26.4857V26.5192V26.5526V26.5857V26.6187V26.6514V26.684V26.7164V26.7486V26.7807V26.8125V26.8441V26.8756V26.9069V26.9379V26.9688V26.9995V27.0299V27.0602V27.0903V27.1202V27.1499V27.1794V27.2087V27.2377V27.2666V27.2953V27.3238V27.352V27.3801V27.4079V27.4356V27.463V27.4902V27.5172V27.544V27.5706V27.597V27.6231V27.6491V27.6748V27.7003V27.7256V27.7507V27.7755V27.8001V27.8245V27.8487V27.8727V27.8964V27.9199V27.9432V27.9662V27.9891V28.0117V28.034V28.0562V28.0781V28.0997V28.1212V28.1424V28.1633V28.1841V28.2046V28.2248V28.2448V28.2646V28.2841V28.3034V28.3225V28.3413V28.3598V28.3782V28.3962V28.4141V28.4316V28.449V28.466V28.4829V28.4994V28.5158V28.5318V28.5477V28.5632V28.5785V28.5936V28.6084V28.6229V28.6372V28.6512V28.6649V28.6784V28.6916V28.7046V28.7173V28.7297V28.7419V28.7538V28.7654V28.7768V28.7878V28.7987V28.8092V28.8195V28.8295V28.8392V28.8486V28.8578V28.8667V28.8753V28.8836V28.8917V28.8995V28.907V28.9142V28.9211V28.9277V28.9341V28.9402V28.9459V28.9514V28.9566V28.9615V28.9662V28.9705V28.9745V28.9783V28.9817V28.9849V28.9877V28.9903V28.9926V28.9945V28.9962V28.9976V28.9986V28.9994V28.9998C27.75 28.9999 27.75 29 28.5 29H27.75C27.75 29.4142 28.0858 29.75 28.5 29.75C28.9142 29.75 29.25 29.4142 29.25 29H28.5C29.25 29 29.25 28.9999 29.25 28.9998V28.9994V28.9986V28.9976V28.9962V28.9945V28.9926V28.9903V28.9877V28.9849V28.9817V28.9783V28.9745V28.9705V28.9662V28.9615V28.9566V28.9514V28.9459V28.9402V28.9341V28.9277V28.9211V28.9142V28.907V28.8995V28.8917V28.8836V28.8753V28.8667V28.8578V28.8486V28.8392V28.8295V28.8195V28.8092V28.7987V28.7878V28.7768V28.7654V28.7538V28.7419V28.7297V28.7173V28.7046V28.6916V28.6784V28.6649V28.6512V28.6372V28.6229V28.6084V28.5936V28.5785V28.5632V28.5477V28.5318V28.5158V28.4994V28.4829V28.466V28.449V28.4316V28.4141V28.3962V28.3782V28.3598V28.3413V28.3225V28.3034V28.2841V28.2646V28.2448V28.2248V28.2046V28.1841V28.1633V28.1424V28.1212V28.0997V28.0781V28.0562V28.034V28.0117V27.9891V27.9662V27.9432V27.9199V27.8964V27.8727V27.8487V27.8245V27.8001V27.7755V27.7507V27.7256V27.7003V27.6748V27.6491V27.6231V27.597V27.5706V27.544V27.5172V27.4902V27.463V27.4356V27.4079V27.3801V27.352V27.3238V27.2953V27.2666V27.2377V27.2087V27.1794V27.1499V27.1202V27.0903V27.0602V27.0299V26.9995V26.9688V26.9379V26.9069V26.8756V26.8441V26.8125V26.7807V26.7486V26.7164V26.684V26.6514V26.6187V26.5857V26.5526V26.5192V26.4857V26.452V26.4182V26.3841V26.3499V26.3155V26.2809V26.2461V26.2112V26.1761V26.1408V26.1053V26.0697V26.0339V25.9979V25.9618V25.9255V25.889V25.8523V25.8155V25.7785V25.7414V25.7041V25.6666V25.629V25.5912V25.5533V25.5152V25.4769V25.4385V25.3999V25.3612V25.3223V25.2833V25.2441V25.2047V25.1652V25.1256V25.0858V25.0459V25.0058V24.9656V24.9252V24.8847V24.844V24.8032V24.7623V24.7212V24.6799V24.6386V24.5971V24.5554V24.5136V24.4717V24.4297V24.3875V24.3452V24.3027V24.2602V24.2175V24.1746V24.1317V24.0886V24.0454V24.002V23.9586V23.915V23.8712V23.8274V23.7835V23.7394V23.6952V23.6509V23.6064V23.5619V23.5172V23.4725V23.4276V23.3826V23.3374V23.2922V23.2469V23.2014V23.1559V23.1102V23.0644V23.0186V22.9726V22.9265V22.8803V22.834V22.7876V22.7411V22.6945V22.6478V22.6011V22.5542V22.5072V22.4601V22.4129V22.3657V22.3183V22.2709V22.2233V22.1757V22.128V22.0802V22.0323V21.9843V21.9363V21.8881V21.8399V21.7916V21.7432V21.6947V21.6461V21.5975V21.5488V21.5V21.4511V21.4022V21.3532V21.3041V21.2549V21.2057V21.1564V21.107V21.0576V21.0081V20.9585V20.9088V20.8591V20.8093V20.7595V20.7096V20.663C30.6833 20.3245 31.75 19.0368 31.75 17.5C31.75 15.9632 30.6833 14.6755 29.25 14.337V14.3253V14.2745V14.2239V14.1733V14.1227V14.0722V14.0217V13.9713V13.9209V13.8706V13.8204V13.7702V13.7201V13.67V13.62V13.5701V13.5202V13.4704V13.4206V13.3709V13.3213V13.2717V13.2222V13.1728V13.1235V13.0742V13.025V12.9758V12.9268V12.8778V12.8289V12.78V12.7313V12.6826V12.634V12.5854V12.537V12.4886V12.4403V12.3921V12.344V12.296V12.248V12.2002V12.1524V12.1047V12.0571V12.0096V11.9622V11.9149V11.8676V11.8205V11.7734V11.7265V11.6796V11.6329V11.5862V11.5397V11.4932V11.4468V11.4006V11.3544V11.3084V11.2624V11.2166V11.1709V11.1252V11.0797V11.0343V10.989V10.9438V10.8987V10.8538V10.8089V10.7642V10.7195V10.675V10.6306V10.5864V10.5422V10.4982V10.4543V10.4105V10.3668V10.3232V10.2798V10.2365V10.1933V10.1503V10.1074V10.0646V10.0219V9.97939V9.93698V9.89471V9.85258V9.81058V9.76871V9.72698V9.68538V9.64392V9.6026V9.56142V9.52038V9.47948V9.43872V9.39811V9.35763V9.31731V9.27712V9.23709V9.1972V9.15746V9.11787V9.07843V9.03914V9ZM26.75 17.5C26.75 16.5335 27.5335 15.75 28.5 15.75C29.4665 15.75 30.25 16.5335 30.25 17.5C30.25 18.4665 29.4665 19.25 28.5 19.25C27.5335 19.25 26.75 18.4665 26.75 17.5Z" fill="#5AE4AF"/>
</svg>
