<svg width="40" height="40" viewBox="0 0 40 40" fill="none" xmlns="http://www.w3.org/2000/svg">
<circle cx="20" cy="20" r="19.25" stroke="#5AE4AF" stroke-width="1.5"/>
<path fill-rule="evenodd" clip-rule="evenodd" d="M20 9.75C18.2051 9.75 16.75 11.2051 16.75 13V16.25H23.25V13C23.25 11.2051 21.7949 9.75 20 9.75ZM15.25 13V16.25H13C12.0335 16.25 11.25 17.0335 11.25 18V29.25C11.25 30.2165 12.0335 31 13 31H27C27.9665 31 28.75 30.2165 28.75 29.25V18C28.75 17.0335 27.9665 16.25 27 16.25H24.75V13C24.75 10.3766 22.6234 8.25 20 8.25C17.3766 8.25 15.25 10.3766 15.25 13ZM13 17.75C12.8619 17.75 12.75 17.8619 12.75 18V29.25C12.75 29.3881 12.8619 29.5 13 29.5H27C27.1381 29.5 27.25 29.3881 27.25 29.25V18C27.25 17.8619 27.1381 17.75 27 17.75H13ZM17 23.4986L19.1215 24.102L17.6377 25.9254L18.7636 26.683L19.961 24.7791L21.1518 26.75L22.2777 25.9589L20.8525 24.1824L23 23.5791L22.577 22.2986L20.5597 23.1567L20.7289 20.75H19.3362L19.4989 23.1098L17.423 22.2316L17 23.4986Z" fill="#5AE4AF"/>
</svg>
