<?xml version="1.0" encoding="UTF-8"?>
<svg width="48px" height="48px" viewBox="0 0 48 48" version="1.1" xmlns="http://www.w3.org/2000/svg" xmlns:xlink="http://www.w3.org/1999/xlink">
    <!-- Generator: sketchtool 61.2 (101010) - https://sketch.com -->
    <title>DCD72BC2-31C0-44D9-85C3-0D13C1EB9BE4</title>
    <desc>Created with sketchtool.</desc>
    <g id="Symbols" stroke="none" stroke-width="1" fill="none" fill-rule="evenodd">
        <g id="incidentStatusLook" fill="#C7C7C7">
            <g id="Group-2" transform="translate(9.000000, 17.000000)">
                <path d="M23,0 C26.8659932,0 30,3.13400675 30,7 C30,10.8659932 26.8659932,14 23,14 C19.1340068,14 16,10.8659932 16,7 C16,3.13400675 19.1340068,0 23,0 Z M26.6432066,4 L26.6152482,4.09363392 C26.3787307,4.81623063 25.7448396,5.33346714 25,5.33346714 C24.2236423,5.33346714 23.5678213,4.77153041 23.3567934,4 C22.539656,4.58358507 22,5.58988436 22,6.733427 C22,8.53750545 23.3431458,10 25,10 C26.6568542,10 28,8.53750545 28,6.733427 C28,5.58988436 27.460344,4.58358507 26.6432066,4 L26.6432066,4 Z" id="Combined-Shape"></path>
                <path d="M7,0 C10.8659932,0 14,3.13400675 14,7 C14,10.8659932 10.8659932,14 7,14 C3.13400675,14 0,10.8659932 0,7 C0,3.13400675 3.13400675,0 7,0 Z M10.6432066,4 L10.6152482,4.09363392 C10.3787307,4.81623063 9.74483957,5.33346714 9,5.33346714 C8.2236423,5.33346714 7.56782135,4.77153041 7.35679341,4 C6.53965602,4.58358507 6,5.58988436 6,6.733427 C6,8.53750545 7.34314575,10 9,10 C10.6568542,10 12,8.53750545 12,6.733427 C12,5.58988436 11.460344,4.58358507 10.6432066,4 L10.6432066,4 Z" id="Combined-Shape"></path>
            </g>
        </g>
    </g>
</svg>