<svg xmlns="http://www.w3.org/2000/svg" width="16" height="16" viewBox="0 0 16 16">
    <path fill="#5AE4AA" d="M2.44 6.875c.156 0 .289-.109.321-.26C3.281 4.198 5.427 2.39 8 2.39c2.175 0 4.045 1.293 4.886 3.152L9.43 5.461c-.185-.004-.336.144-.336.328v.758c0 .181.147.328.328.328h5.25c.181 0 .328-.147.328-.328v-5.25c0-.181-.147-.328-.328-.328h-.758c-.184 0-.332.151-.328.336L13.65 4C12.435 2.173 10.36.97 8 .97c-3.314 0-6.072 2.377-6.664 5.518-.038.202.118.388.323.388h.781zm-.354 7.656c.184 0 .332-.151.328-.336L2.35 11.5C3.565 13.327 5.64 14.53 8 14.53c3.314 0 6.072-2.377 6.664-5.518.038-.202-.118-.388-.323-.388h-.781c-.156 0-.289.109-.321.26-.52 2.416-2.666 4.224-5.239 4.224-2.175 0-4.045-1.292-4.886-3.152l3.456.082c.185.004.336-.144.336-.328v-.758c0-.181-.147-.328-.328-.328h-5.25c-.181 0-.328.147-.328.328v5.25c0 .181.147.328.328.328h.758z"/>
</svg>
