<svg width="40" height="40" viewBox="0 0 40 40" fill="none" xmlns="http://www.w3.org/2000/svg">
<circle cx="20" cy="20" r="19.25" stroke="#5AE4AF" stroke-width="1.5"/>
<path fill-rule="evenodd" clip-rule="evenodd" d="M9.25 14.6643C9.25 11.303 11.9749 8.57812 15.3362 8.57812H26V10.0781H15.3362C12.8033 10.0781 10.75 12.1314 10.75 14.6643C10.75 16.7329 12.1195 18.4816 14.0012 19.0532V17.4932V15.9932H15.5012H24.5022H26.0022V17.4932V19.3982C28.7196 20.008 30.75 22.4352 30.75 25.3368C30.75 28.6981 28.0251 31.423 24.6638 31.423H14V29.923H24.6638C27.1967 29.923 29.25 27.8696 29.25 25.3368C29.25 23.2694 27.8822 21.5216 26.0022 20.9489V22.5082V24.0082H24.5022H15.5012H14.0012V22.5082V20.6037C11.282 19.9951 9.25 17.567 9.25 14.6643ZM15.5012 17.4932H24.5022V22.5082H15.5012V17.4932Z" fill="#5AE4AF"/>
</svg>
