<?xml version="1.0" encoding="UTF-8"?>
<svg width="40px" height="40px" viewBox="0 0 40 40" version="1.1" xmlns="http://www.w3.org/2000/svg" xmlns:xlink="http://www.w3.org/1999/xlink" style="background: #181818;">
    <!-- Generator: sketchtool 61 (101010) - https://sketch.com -->
    <title>3D60D92A-69CD-4820-BFA3-080C5287D34B</title>
    <desc>Created with sketchtool.</desc>
    <g id="Symbols" stroke="none" stroke-width="1" fill="none" fill-rule="evenodd">
        <g id="Cell-/-a.DevicesIcon">
            <rect fill="none" x="0" y="0" width="40" height="40"></rect>
            <g id="tabbar/devices" transform="translate(7.500000, 2.890000)" stroke="#ADADAD" stroke-width="1.5">
                <path d="M17.1500224,28.1794737 L5.84997759,28.1794737 C2.7481032,28.1794737 0.210526316,25.7090065 0.210526316,22.6891654 L0.210526316,11.5419235 C0.210526316,8.52257246 2.7481032,6.05210526 5.84997759,6.05210526 L17.1500224,6.05210526 C20.2513934,6.05210526 22.7894737,8.52257246 22.7894737,11.5419235 L22.7894737,22.6891654 C22.7894737,25.7090065 20.2513934,28.1794737 17.1500224,28.1794737 L17.1500224,28.1794737 Z" id="Stroke-5-Copy"></path>
                <line x1="9.44736842" y1="17.1157895" x2="13.5526316" y2="17.1157895" id="Path-3" stroke-linecap="round" stroke-linejoin="round"></line>
                <path d="M26.3920868,10.0972692 C26.3920868,6.04855977 23.0429771,2.76643227 18.911641,2.76643227" id="Oval-117" stroke-linecap="round" stroke-linejoin="round"></path>
                <path d="M29.197254,9.18091459 C29.197254,4.12002779 25.0108669,0.0173684211 19.8466967,0.0173684211" id="Oval-117-Copy" stroke-linecap="round" stroke-linejoin="round"></path>
            </g>
        </g>
    </g>
</svg>