<svg width="88" height="88" viewBox="0 0 88 88" fill="none" xmlns="http://www.w3.org/2000/svg">
<path fill-rule="evenodd" clip-rule="evenodd" d="M72.2721 25.4562C77.6448 25.4562 82.0002 21.1008 82.0002 15.7281C82.0002 10.3554 77.6448 6 72.2721 6C66.8994 6 62.544 10.3554 62.544 15.7281C62.544 21.1008 66.8994 25.4562 72.2721 25.4562ZM26.6556 9.38678H58.0344V10.8868H26.6556C17.9468 10.8868 10.887 17.9466 10.887 26.6554V61.3446C10.887 70.0533 17.9468 77.1132 26.6556 77.1132H61.3447C70.0535 77.1132 77.1134 70.0533 77.1134 61.3446V29.9658H78.6134V61.3446C78.6134 70.8818 70.8819 78.6132 61.3447 78.6132H26.6556C17.1184 78.6132 9.38696 70.8818 9.38696 61.3446V26.6554C9.38696 17.1182 17.1184 9.38678 26.6556 9.38678Z" fill="#DBDBDB"/>
<path fill-rule="evenodd" clip-rule="evenodd" d="M44.0007 25.748L44.6659 27.0296L60.8963 58.3004L61.4649 59.3959H60.2306H27.7444H26.5093L27.079 58.3L43.3347 27.0292L44.0007 25.748ZM28.9796 57.8959H58.9963L43.9997 29.0022L28.9796 57.8959ZM45.0002 38.2501V39.2501V47.6418V48.6418L43.0002 48.6418V47.6418V39.2501V38.2501H45.0002ZM45.5002 53.5001C45.5002 52.6716 44.8286 52.0001 44.0001 52.0001C43.1717 52.0001 42.5002 52.6717 42.5002 53.5001L42.5002 53.5543C42.5002 54.3827 43.1718 55.0542 44.0002 55.0542C44.8286 55.0542 45.5002 54.3826 45.5002 53.5542L45.5002 53.5001Z" fill="#DBDBDB"/>
</svg>
