<?xml version="1.0" encoding="UTF-8"?>
<svg width="16px" height="16px" viewBox="0 0 16 16" version="1.1" xmlns="http://www.w3.org/2000/svg" xmlns:xlink="http://www.w3.org/1999/xlink">
    <!-- Generator: sketchtool 61.2 (101010) - https://sketch.com -->
    <title>E531CBB4-83DC-4FA2-ACF3-E6174565E912</title>
    <desc>Created with sketchtool.</desc>
    <g id="Symbols" stroke="none" stroke-width="1" fill="none" fill-rule="evenodd">
        <g id="Complete-/-Object-/-Header" transform="translate(-104.000000, -191.000000)" fill="#787878" fill-rule="nonzero">
            <g id="Group-6" transform="translate(104.000000, 88.000000)">
                <g id="Group-2" transform="translate(0.000000, 100.000000)">
                    <g id="Icon-/-Mini-/-Clock" transform="translate(0.000000, 3.000000)">
                        <path d="M8,16 C12.4193548,16 16,12.4193548 16,8 C16,3.58064516 12.4193548,0 8,0 C3.58064516,0 0,3.58064516 0,8 C0,12.4193548 3.58064516,16 8,16 Z M9.84192288,11.2935358 L6.99678679,9.22580645 C6.89676789,9.1516192 6.83870968,9.03547127 6.83870968,8.91289693 L6.83870968,3.48387097 C6.83870968,3.27098034 7.01291583,3.09677419 7.22580645,3.09677419 L8.77419355,3.09677419 C8.98708417,3.09677419 9.16129032,3.27098034 9.16129032,3.48387097 L9.16129032,7.92581275 L11.2096774,9.41614163 C11.3838836,9.54192918 11.4193548,9.78386467 11.2935358,9.95807082 L10.3838836,11.2096774 C10.2580645,11.3806389 10.016129,11.4193548 9.84192288,11.2935358 Z" id=""></path>
                    </g>
                </g>
            </g>
        </g>
    </g>
</svg>