<?xml version="1.0" encoding="UTF-8"?>
<svg width="24px" height="24px" viewBox="0 0 24 24" version="1.1" xmlns="http://www.w3.org/2000/svg" xmlns:xlink="http://www.w3.org/1999/xlink">
    <!-- Generator: sketchtool 61.2 (101010) - https://sketch.com -->
    <title>22FC2356-BB0B-49F1-B154-CFA43C740753</title>
    <desc>Created with sketchtool.</desc>
    <g id="Symbols" stroke="none" stroke-width="1" fill="none" fill-rule="evenodd">
        <g id="Icon-/-Category-/-Home" fill="#787878" fill-rule="nonzero">
            <path d="M22.0376619,14.6134543 C22.1594649,14.6134543 22.3213603,14.5372368 22.3989511,14.4433574 L23.3950424,13.2324228 C23.4539031,13.1607829 23.501663,13.0274596 23.501663,12.9347626 C23.501663,12.8116626 23.4241485,12.6487373 23.3286287,12.5710703 L20.0630268,9.8792737 L20.0630268,4.46874888 C20.0630268,4.20999858 19.8530282,4 19.5942779,4 L17.4067831,4 C17.1480328,4 16.9380342,4.20999858 16.9380342,4.46874888 L16.9380342,7.30508398 L13.4407662,4.42774098 C13.1542069,4.19195511 12.6204938,4.0005722 12.2493628,4.0005722 C11.87827,4.0005722 11.3445188,4.19195511 11.0579594,4.42774098 L1.17009695,12.5710703 C1.07621747,12.6486992 1,12.8105564 1,12.9323975 C1,13.0255522 1.04821766,13.1594478 1.10761235,13.2312402 L2.10370373,14.4421748 C2.18133263,14.5365502 2.34353317,14.6131873 2.46571764,14.6131873 C2.55875788,14.6131873 2.69250085,14.5650841 2.76425513,14.505842 L11.9525038,6.93788209 C12.0247158,6.87966995 12.1585732,6.83244411 12.2513083,6.83244411 C12.3440815,6.83244411 12.4779389,6.87966995 12.550151,6.93788209 L21.7388193,14.505842 C21.8105736,14.5652367 21.9444691,14.6134543 22.0376619,14.6134543 Z M19.125529,21.4980128 C19.4705294,21.4980128 19.7505275,21.2180147 19.7505275,20.8730143 L19.7505275,14.4667795 L12.550151,8.53944078 C12.4779389,8.48122863 12.3440815,8.4340028 12.2513083,8.4340028 C12.1585732,8.4340028 12.0247158,8.48122863 11.9525038,8.53944078 L4.75056326,14.4710901 L4.75056326,20.8730143 C4.75056326,21.2180147 5.03056137,21.4980128 5.37556177,21.4980128 L9.7528783,21.4866832 C10.0961621,21.4849666 10.3747869,21.2049684 10.3747869,20.8616847 L10.3747869,17.1230232 C10.3747869,16.7780228 10.654785,16.4980247 10.9997854,16.4980247 L13.4997795,16.4980247 C13.8447417,16.4980247 14.124778,16.7780228 14.124778,17.1230232 L14.1247398,20.8609217 L14.1247398,20.8609217 C14.1247398,21.1745584 14.3561432,21.4344743 14.6574205,21.4791397 L14.7497765,21.4859202 L19.125529,21.4980128 Z" id=""></path>
        </g>
    </g>
</svg>