<?xml version="1.0" encoding="UTF-8"?>
<svg width="16px" height="16px" viewBox="0 0 16 16" version="1.1" xmlns="http://www.w3.org/2000/svg" xmlns:xlink="http://www.w3.org/1999/xlink">
    <!-- Generator: sketchtool 61.2 (101010) - https://sketch.com -->
    <title>91FE54B9-8AE0-4E22-865E-E24BD4C7DE2A</title>
    <desc>Created with sketchtool.</desc>
    <g id="Symbols" stroke="none" stroke-width="1" fill="none" fill-rule="evenodd">
        <g id="Icon-/-Mini-/-Mail" fill="#787878" fill-rule="nonzero">
            <path d="M7.99998093,9.99998093 C8.7249853,10.0124931 9.7687145,9.087477 10.2937377,8.7062218 C14.4405784,5.69686008 14.7562209,5.43437902 15.7124564,4.68438081 C15.8936999,4.54375614 15.9999619,4.32500666 15.9999619,4.09374501 L15.9999619,3.5 C15.9999619,2.6718734 15.3280885,2 14.4999654,2 L1.5,2 C0.671873398,2 0,2.6718734 0,3.5 L0,4.09374501 C0,4.32500666 0.106261954,4.54061284 0.287505418,4.68438081 C1.24374093,5.43123572 1.55938349,5.69686008 5.70622419,8.7062218 C6.23124735,9.087477 7.27497655,10.0124931 7.99998093,9.99998093 Z M14.4999654,13.9999714 C15.3280885,13.9999714 15.9999619,13.328098 15.9999619,12.499975 L15.9999619,6.1093652 C15.9999619,5.95622836 15.8187184,5.86562189 15.6968315,5.96248445 C14.9968515,6.50624536 14.0718353,7.19999981 10.8843429,9.51560708 C10.2499756,9.97809988 9.11560937,11.0124907 7.99998093,11.0030913 C6.89060857,11.0093474 5.77812343,9.99686814 5.11873169,9.51560708 C1.93123929,7.19999981 1.0031104,6.50935815 0.303130381,5.96562775 C0.178130679,5.86873467 0,5.95622836 0,6.11247799 L0,12.499975 C0,13.328098 0.671873398,13.9999714 1.5,13.9999714 L14.4999654,13.9999714 Z" id=""></path>
        </g>
    </g>
</svg>