<?xml version="1.0" encoding="UTF-8"?>
<svg width="16px" height="16px" viewBox="0 0 16 16" version="1.1" xmlns="http://www.w3.org/2000/svg" xmlns:xlink="http://www.w3.org/1999/xlink">
    <!-- Generator: sketchtool 61.2 (101010) - https://sketch.com -->
    <title>6B713D86-DA7C-4808-8B45-B0D6781030C4</title>
    <desc>Created with sketchtool.</desc>
    <g id="Symbols" stroke="none" stroke-width="1" fill="none" fill-rule="evenodd">
        <g id="Icon-/-Mini-/-Man" fill="#787878" fill-rule="nonzero">
            <path d="M8,8 C10.2093811,8 12,6.2093811 12,4 C12,1.7906189 10.2093811,0 8,0 C5.7906189,0 4,1.7906189 4,4 C4,6.2093811 5.7906189,8 8,8 Z M13.5,16 C14.328125,16 15,15.328125 15,14.5 L15,13.2000122 C15,10.8812561 13.1187439,9 10.7999878,9 L10.2781372,9 C9.5843811,9.3187561 8.8125,9.5 8,9.5 C7.1875,9.5 6.41876221,9.3187561 5.72186279,9 L5.20001221,9 C2.8812561,9 1,10.8812561 1,13.2000122 L1,14.5 C1,15.328125 1.671875,16 2.5,16 L13.5,16 Z" id=""></path>
        </g>
    </g>
</svg>