<svg width="24" height="24" viewBox="0 0 24 24" fill="none" xmlns="http://www.w3.org/2000/svg">
<path fill-rule="evenodd" clip-rule="evenodd" d="M10.5 0C9.94772 0 9.5 0.447716 9.5 1V2L14.5 2V1C14.5 0.447715 14.0523 0 13.5 0H10.5ZM7.24023 3.50049C7.10216 3.50049 6.99023 3.61242 6.99023 3.75049L6.99024 22.0461C6.99024 22.1842 7.10216 22.2961 7.24024 22.2961L16.76 22.2961C16.8981 22.2961 17.01 22.1842 17.01 22.0461V3.75049C17.01 3.61242 16.8981 3.50049 16.76 3.50049H7.24023ZM5.49023 3.75049C5.49023 2.78399 6.27374 2.00049 7.24023 2.00049H16.76C17.7265 2.00049 18.51 2.78399 18.51 3.75049V22.0461C18.51 23.0126 17.7265 23.7961 16.76 23.7961L7.24024 23.7961C6.27374 23.7961 5.49023 23.0126 5.49023 22.0461V3.75049ZM8.99609 12.1484H11.2467V9.89844H12.7467V12.1484H14.9961V13.6484H12.7467V15.8984H11.2467V13.6484H8.99609L8.99609 12.1484Z" fill="#303030"/>
</svg>
