<svg width="24" height="24" viewBox="0 0 24 24" fill="none" xmlns="http://www.w3.org/2000/svg">
<path fill-rule="evenodd" clip-rule="evenodd" d="M10.5 0C9.94772 0 9.5 0.447716 9.5 1V2L14.5 2V1C14.5 0.447715 14.0523 0 13.5 0H10.5ZM7.24023 3.50049C7.10216 3.50049 6.99023 3.61242 6.99023 3.75049L6.99024 22.0188C6.99024 22.1569 7.10216 22.2688 7.24024 22.2688L16.76 22.2688C16.8981 22.2688 17.01 22.1569 17.01 22.0188V3.75049C17.01 3.61242 16.8981 3.50049 16.76 3.50049H7.24023ZM5.49023 3.75049C5.49023 2.78399 6.27374 2.00049 7.24023 2.00049H16.76C17.7265 2.00049 18.51 2.78399 18.51 3.75049V22.0188C18.51 22.9853 17.7265 23.7688 16.76 23.7688L7.24024 23.7688C6.27374 23.7688 5.49023 22.9853 5.49023 22.0188V3.75049ZM13.9697 9.85444L12 11.8241L10.0303 9.85444L8.96967 10.9151L10.9393 12.8848L8.96967 14.8544L10.0303 15.9151L12 13.9454L13.9697 15.9151L15.0303 14.8544L13.0607 12.8848L15.0303 10.9151L13.9697 9.85444Z" fill="#303030"/>
</svg>
