<svg width="24" height="24" viewBox="0 0 24 24" fill="none" xmlns="http://www.w3.org/2000/svg">
<path fill-rule="evenodd" clip-rule="evenodd" d="M9.34636 3.33804C7.4375 1.54894 4.36151 1.54894 2.45265 3.33804C0.516109 5.15308 0.516109 8.11722 2.45265 9.93225C4.36151 11.7214 7.4375 11.7214 9.34636 9.93225L8.32059 8.83782C6.98868 10.0862 4.81033 10.0862 3.47842 8.83782C2.17419 7.61541 2.17419 5.65488 3.47842 4.43248C4.81033 3.18413 6.98868 3.18413 8.32059 4.43248L9.34636 3.33804ZM2.81526 16.428L2.24081 16.9248L1.25967 15.7901L1.83412 15.2934C4.44005 13.04 8.14084 12.5631 11.2329 14.0823L14.0948 15.4884C15.2078 16.0353 16.5478 15.7862 17.39 14.8759L18.491 15.8945C17.1984 17.2917 15.1417 17.674 13.4333 16.8347L10.5714 15.4286C8.01977 14.1749 4.96576 14.5684 2.81526 16.428ZM2.70805 21.391L2.23449 21.7914L1.266 20.646L1.73957 20.2456C4.46625 17.9401 8.32024 17.5228 11.4772 19.1911L12.3664 19.661C15.2443 21.1818 18.783 20.5981 21.0201 18.2338L21.4433 17.7865L22.5328 18.8174L22.1097 19.2647C19.4097 22.1183 15.1389 22.8226 11.6656 20.9872L10.7764 20.5173C8.16061 19.135 4.9673 19.4808 2.70805 21.391ZM10.1072 6.63515C10.1072 4.07314 12.1841 1.99622 14.7461 1.99622H15.0634C17.6254 1.99622 19.7023 4.07314 19.7023 6.63515C19.7023 9.19716 17.6254 11.2741 15.0634 11.2741H14.7461C12.1841 11.2741 10.1072 9.19716 10.1072 6.63515ZM14.7461 3.49622C13.0125 3.49622 11.6072 4.90156 11.6072 6.63515C11.6072 8.36873 13.0125 9.77408 14.7461 9.77408H15.0634C16.797 9.77408 18.2023 8.36873 18.2023 6.63515C18.2023 4.90156 16.797 3.49622 15.0634 3.49622H14.7461ZM20.0513 13.4405H22.9999V12.7559H21.337L21.8826 12.1846C22.1728 11.9213 22.3827 11.7115 22.5123 11.5553C22.6439 11.3973 22.7406 11.2472 22.8026 11.105C22.8645 10.9611 22.8954 10.8137 22.8954 10.6627C22.8954 10.3046 22.7716 10.0299 22.5239 9.83857C22.2782 9.64724 21.9271 9.55157 21.4705 9.55157C21.186 9.55157 20.9287 9.60774 20.6985 9.72009C20.4682 9.83243 20.2883 9.98865 20.1587 10.1888C20.029 10.3871 19.9642 10.6039 19.9642 10.8391H20.9452C20.9452 10.6671 20.9916 10.524 21.0845 10.4099C21.1773 10.2941 21.2983 10.2362 21.4472 10.2362C21.5982 10.2362 21.7133 10.2792 21.7926 10.3652C21.8719 10.4512 21.9116 10.5767 21.9116 10.7417C21.9116 10.9453 21.7442 11.22 21.4095 11.5658L20.0513 12.8612V13.4405Z" fill="#303030"/>
</svg>
