<svg width="24" height="24" viewBox="0 0 24 24" fill="none" xmlns="http://www.w3.org/2000/svg">
<g clip-path="url(#clip0_660_39711)">
<path fill-rule="evenodd" clip-rule="evenodd" d="M22.341 3.29559C22.341 4.14913 21.6491 4.84106 20.7956 4.84106C19.942 4.84106 19.2501 4.14913 19.2501 3.29559C19.2501 2.44205 19.942 1.75012 20.7956 1.75012C21.6491 1.75012 22.341 2.44205 22.341 3.29559ZM14.3764 17.8355L13.4951 17.356L12.7155 17.9874C11.536 18.9427 10.0767 19.5001 8.50009 19.5001C4.71372 19.5001 1.50009 16.2242 1.50009 12.0001C1.50009 7.77605 4.71372 4.50012 8.50009 4.50012C10.6396 4.50012 12.5756 5.53003 13.8747 7.19567L14.4984 7.99543L15.473 7.7145C15.9561 7.57524 16.468 7.50012 17.0001 7.50012C20.0377 7.50012 22.5001 9.96256 22.5001 13.0001C22.5001 16.0377 20.0377 18.5001 17.0001 18.5001C16.047 18.5001 15.1547 18.2589 14.3764 17.8355ZM8.50009 3.00012C11.1398 3.00012 13.4984 4.27417 15.0575 6.27319C15.6743 6.09539 16.3261 6.00012 17.0001 6.00012C20.8661 6.00012 24.0001 9.13413 24.0001 13.0001C24.0001 16.8661 20.8661 20.0001 17.0001 20.0001C15.7904 20.0001 14.6523 19.6932 13.6595 19.1531C12.2288 20.3118 10.4404 21.0001 8.50009 21.0001C3.80567 21.0001 9.15527e-05 16.9707 9.15527e-05 12.0001C9.15527e-05 7.02956 3.80567 3.00012 8.50009 3.00012ZM13.5001 13.0001C13.5001 11.2052 14.9552 9.75012 16.7501 9.75012C18.545 9.75012 20.0001 11.2052 20.0001 13.0001C20.0001 14.795 18.545 16.2501 16.7501 16.2501C14.9552 16.2501 13.5001 14.795 13.5001 13.0001ZM16.7501 11.2501C15.7836 11.2501 15.0001 12.0336 15.0001 13.0001C15.0001 13.9666 15.7836 14.7501 16.7501 14.7501C17.7166 14.7501 18.5001 13.9666 18.5001 13.0001C18.5001 12.0336 17.7166 11.2501 16.7501 11.2501ZM11.2863 9.47645C9.8482 8.00346 7.50896 8.00346 6.07087 9.47645C4.64258 10.9394 4.64258 13.304 6.07087 14.767C7.50896 16.24 9.8482 16.24 11.2863 14.767L10.213 13.7191C9.36346 14.5892 7.9937 14.5892 7.14416 13.7191C6.28481 12.8389 6.28481 11.4045 7.14416 10.5243C7.9937 9.65417 9.36346 9.65417 10.213 10.5243L11.2863 9.47645Z" fill="#303030"/>
</g>
<defs>
<clipPath id="clip0_660_39711">
<rect width="24" height="24" fill="white"/>
</clipPath>
</defs>
</svg>
