<svg width="24" height="24" viewBox="0 0 24 24" fill="none" xmlns="http://www.w3.org/2000/svg">
<path fill-rule="evenodd" clip-rule="evenodd" d="M12 0.75C9.50954 0.75 7.55044 0.780012 6.03679 0.991597C4.52197 1.20335 3.32767 1.61166 2.46966 2.46967C1.61165 3.32768 1.20334 4.52198 0.991594 6.0368C0.780011 7.55044 0.75 9.50955 0.75 12C0.75 14.4905 0.780011 16.4496 0.991594 17.9632C1.20334 19.478 1.61165 20.6723 2.46966 21.5303C3.32767 22.3883 4.52197 22.7967 6.03679 23.0084C7.55044 23.22 9.50954 23.25 12 23.25C14.4905 23.25 16.4496 23.22 17.9632 23.0084C19.478 22.7967 20.6723 22.3883 21.5303 21.5303C22.3883 20.6723 22.7967 19.478 23.0084 17.9632C23.22 16.4496 23.25 14.4905 23.25 12C23.25 9.50955 23.22 7.55044 23.0084 6.0368C22.7967 4.52198 22.3883 3.32768 21.5303 2.46967C20.6723 1.61166 19.478 1.20335 17.9632 0.991597C16.4496 0.780012 14.4905 0.75 12 0.75ZM2.25 12C2.25 9.49045 2.28249 7.63706 2.47715 6.24445C2.67165 4.85302 3.01333 4.04732 3.53032 3.53033C4.04731 3.01334 4.85301 2.67165 6.24445 2.47715C7.63705 2.28249 9.49045 2.25 12 2.25C14.5096 2.25 16.363 2.28249 17.7556 2.47715C19.147 2.67165 19.9527 3.01334 20.4697 3.53033C20.9867 4.04732 21.3284 4.85302 21.5229 6.24445C21.7175 7.63706 21.75 9.49045 21.75 12C21.75 14.5095 21.7175 16.3629 21.5229 17.7555C21.3284 19.147 20.9867 19.9527 20.4697 20.4697C19.9527 20.9867 19.147 21.3283 17.7556 21.5228C16.363 21.7175 14.5096 21.75 12 21.75C9.49045 21.75 7.63705 21.7175 6.24445 21.5228C4.85301 21.3283 4.04731 20.9867 3.53032 20.4697C3.01333 19.9527 2.67165 19.147 2.47715 17.7555C2.28249 16.3629 2.25 14.5095 2.25 12ZM14.5303 8.46973L17.5303 11.4697L18.0607 12.0001L17.5303 12.5304L14.5303 15.5304L13.4697 14.4697L15.1893 12.7501H6V11.2501H15.1893L13.4697 9.53039L14.5303 8.46973Z" fill="#303030"/>
</svg>
