<svg width="24" height="24" viewBox="0 0 24 24" fill="none" xmlns="http://www.w3.org/2000/svg">
<path fill-rule="evenodd" clip-rule="evenodd" d="M2.75 1C1.7835 1 1 1.7835 1 2.75V21.25C1 22.2165 1.7835 23 2.75 23H6.875V21.5H2.75C2.61193 21.5 2.5 21.3881 2.5 21.25V2.75C2.5 2.61193 2.61193 2.5 2.75 2.5H21.25C21.3881 2.5 21.5 2.61193 21.5 2.75V21.25C21.5 21.3881 21.3881 21.5 21.25 21.5H13C12.8619 21.5 12.75 21.3881 12.75 21.25V18.6911C15.017 18.3315 16.75 16.3682 16.75 14V11V10.25H16H15V6H13.5V10.25H10.5V6H9V10.25H8H7.25V11V14C7.25 16.3682 8.98301 18.3315 11.25 18.6911V21.25C11.25 22.2165 12.0335 23 13 23H21.25C22.2165 23 23 22.2165 23 21.25V2.75C23 1.7835 22.2165 1 21.25 1H2.75ZM12 17.25C10.2051 17.25 8.75 15.7949 8.75 14L8.75 11.75H15.25V14C15.25 15.7949 13.7949 17.25 12 17.25Z" fill="#303030"/>
</svg>
