<svg width="24" height="24" viewBox="0 0 24 24" fill="none" xmlns="http://www.w3.org/2000/svg">
<path fill-rule="evenodd" clip-rule="evenodd" d="M6.25 11.25C6.25 8.07437 8.82436 5.5 12 5.5C15.1756 5.5 17.75 8.07436 17.75 11.25V17.4956H18C19.1046 17.4956 20 18.391 20 19.4956V21.4999V22.9999H18.5H5.5H4V21.4999V19.4956C4 18.391 4.89543 17.4956 6 17.4956H6.25V11.25ZM7.75 17.4956H16.25V11.25C16.25 8.90279 14.3472 7 12 7C9.65279 7 7.75 8.90279 7.75 11.25V17.4956ZM12.4288 10.084C11.4192 10.084 10.6007 10.9025 10.6007 11.9121V12.6621H9.10068V11.9121C9.10068 10.074 10.5907 8.58398 12.4288 8.58398H13.1788V10.084H12.4288ZM5.5 19.4956C5.5 19.2195 5.72386 18.9956 6 18.9956H18C18.2761 18.9956 18.5 19.2195 18.5 19.4956V21.4999H5.5V19.4956Z" fill="#303030"/>
</svg>
