<svg width="24" height="24" viewBox="0 0 24 24" fill="none" xmlns="http://www.w3.org/2000/svg">
<path fill-rule="evenodd" clip-rule="evenodd" d="M8.75 5.75C8.75 3.95507 10.2051 2.5 12 2.5C13.7949 2.5 15.25 3.95507 15.25 5.75C15.25 7.54493 13.7949 9 12 9C10.2051 9 8.75 7.54493 8.75 5.75ZM12 1C9.37665 1 7.25 3.12665 7.25 5.75C7.25 8.37335 9.37665 10.5 12 10.5C14.6234 10.5 16.75 8.37335 16.75 5.75C16.75 3.12665 14.6234 1 12 1ZM12 13.75C7.44365 13.75 3.75 17.4437 3.75 22H2.25C2.25 16.6152 6.61522 12.25 12 12.25C13.7976 12.25 15.4816 12.7365 16.9275 13.5849L15.2291 14.4059C14.2373 13.9836 13.1459 13.75 12 13.75Z" fill="#303030"/>
<path fill-rule="evenodd" clip-rule="evenodd" d="M23.9585 19.9238C23.9585 19.9238 21.1691 23.8589 17.728 23.8589C14.287 23.8589 11.4976 19.9238 11.4976 19.9238C11.4976 19.9238 14.287 15.9888 17.728 15.9888C21.1691 15.9888 23.9585 19.9238 23.9585 19.9238ZM20.0234 19.9242C20.0234 21.1919 18.9957 22.2196 17.728 22.2196C16.4603 22.2196 15.4326 21.1919 15.4326 19.9242C15.4326 18.6564 16.4603 17.6287 17.728 17.6287C18.9957 17.6287 20.0234 18.6564 20.0234 19.9242Z" fill="#303030"/>
</svg>
