<svg width="24" height="24" viewBox="0 0 24 24" fill="none" xmlns="http://www.w3.org/2000/svg">
<path fill-rule="evenodd" clip-rule="evenodd" d="M1.75 12C1.75 6.33908 6.33908 1.75 12 1.75C17.6609 1.75 22.25 6.33908 22.25 12C22.25 17.6609 17.6609 22.25 12 22.25C6.33908 22.25 1.75 17.6609 1.75 12ZM12 0.25C5.51065 0.25 0.25 5.51065 0.25 12C0.25 18.4893 5.51065 23.75 12 23.75C18.4893 23.75 23.75 18.4893 23.75 12C23.75 5.51065 18.4893 0.25 12 0.25ZM12.0007 7.75C10.3765 7.75 8.96516 8.66106 8.24974 10H6.60806C7.42046 7.81035 9.52836 6.25 12.0007 6.25C15.1763 6.25 17.7507 8.82436 17.7507 12C17.7507 15.1756 15.1763 17.75 12.0007 17.75C9.52836 17.75 7.42046 16.1896 6.60806 14H8.24974C8.96516 15.3389 10.3765 16.25 12.0007 16.25C14.3479 16.25 16.2507 14.3472 16.2507 12C16.2507 9.65279 14.3479 7.75 12.0007 7.75Z" fill="#303030"/>
</svg>
