<svg width="24" height="24" viewBox="0 0 24 24" fill="none" xmlns="http://www.w3.org/2000/svg">
<path fill-rule="evenodd" clip-rule="evenodd" d="M12.0002 2.44948C14.2037 4.98252 17.2015 6.69426 20.5 7.30581V7.80875C20.5 13.6045 17.4592 18.9753 12.4894 21.9573L12.0003 22.2507L11.511 21.9572C6.54102 18.9753 3.5 13.6043 3.5 7.8084V7.30579C6.79855 6.69422 9.79644 4.98251 12.0002 2.44948ZM13.2611 23.2435L12.0003 24L10.7393 23.2434C5.31747 19.9904 2 14.1312 2 7.8084V6C5.53994 5.67814 8.79366 3.96058 11.0544 1.24663C11.2297 1.03611 11.3991 0.819592 11.5622 0.597265L12.0003 0L12.437 0.595605C12.6005 0.818544 12.7703 1.03564 12.9461 1.24672C15.2066 3.96064 18.4602 5.67821 22 6V7.80875C22 14.1314 18.6827 19.9904 13.2611 23.2435ZM7.96906 14.9696L10.9393 11.9993L7.97025 9.03027L9.03091 7.96961L12 10.9387L14.9691 7.96961L16.0297 9.03027L13.0606 11.9993L16.0309 14.9696L14.9703 16.0303L12 13.06L9.02973 16.0303L7.96906 14.9696Z" fill="#303030"/>
</svg>
