<svg width="24" height="24" viewBox="0 0 24 24" fill="none" xmlns="http://www.w3.org/2000/svg">
<path fill-rule="evenodd" clip-rule="evenodd" d="M4.64524 9.18214L4.1392 9.6812L4.61035 10.2133L7.2666 13.2133L7.78946 13.8038L8.35293 13.2519L19.3538 2.47696L20.6665 1.19116H18.829L13.0555 1.19117L12.7479 1.19117L12.5289 1.40717L4.64524 9.18214ZM7.86679 11.6284L6.20455 9.75108L13.3632 2.69116L16.9914 2.69116L7.86679 11.6284ZM5.8245 5.76421L2.5301 2.4698L1.46944 3.53046L4.75393 6.81496L5.8245 5.76421ZM2.30923 10.3396L0.125 11.6006L0.875 12.8997L3.34517 11.4735L2.30923 10.3396ZM5.25026 13.5588V18.5001H6.75026V15.2008L5.25026 13.5588ZM15.1481 7.74683L15.6268 8.64824L22.6622 21.8983L23.2472 23H21.9998H17.25H16.7915L16.5825 22.5919L11.3328 12.3419L11.0854 11.8589L11.4668 11.4729L14.4308 8.47284L15.1481 7.74683ZM12.9152 12.1411L17.7085 21.5H20.7524L14.7806 10.2531L12.9152 12.1411Z" fill="#303030"/>
</svg>
