<svg width="24" height="24" viewBox="0 0 24 24" fill="none" xmlns="http://www.w3.org/2000/svg">
<path fill-rule="evenodd" clip-rule="evenodd" d="M7.7254 4.52426C3.59663 4.52426 0.249603 7.87129 0.249603 12.0001C0.249603 16.1288 3.59663 19.4759 7.7254 19.4759H16.2738C20.4026 19.4759 23.7496 16.1288 23.7496 12.0001C23.7496 7.87129 20.4026 4.52426 16.2738 4.52426H7.7254ZM1.7496 12.0001C1.7496 8.69972 4.42506 6.02426 7.7254 6.02426H16.2738C19.5741 6.02426 22.2496 8.69972 22.2496 12.0001C22.2496 15.3004 19.5741 17.9759 16.2738 17.9759H7.7254C4.42506 17.9759 1.7496 15.3004 1.7496 12.0001ZM16.2902 16C18.4994 16 20.2902 14.2092 20.2902 12C20.2902 9.7909 18.4994 8.00004 16.2902 8.00004C14.0811 8.00004 12.2902 9.7909 12.2902 12C12.2902 14.2092 14.0811 16 16.2902 16Z" fill="#303030"/>
</svg>
