<svg width="24" height="24" viewBox="0 0 24 24" fill="none" xmlns="http://www.w3.org/2000/svg">
<path fill-rule="evenodd" clip-rule="evenodd" d="M1.98679 8.61018C1.98679 4.96514 4.94167 2.01025 8.58671 2.01025C12.2318 2.01025 15.1866 4.96514 15.1866 8.61018C15.1866 12.2552 12.2318 15.2101 8.58671 15.2101C4.94167 15.2101 1.98679 12.2552 1.98679 8.61018ZM8.58671 0.510254C4.11325 0.510254 0.486786 4.13671 0.486786 8.61018C0.486786 13.0836 4.11325 16.7101 8.58671 16.7101C13.0602 16.7101 16.6866 13.0836 16.6866 8.61018C16.6866 4.13671 13.0602 0.510254 8.58671 0.510254ZM19.5805 2.28345H23.4593V6.16232L22.0389 4.74187L20.6368 6.07294C20.6929 6.38182 20.7382 6.69457 20.7722 7.01075C20.8222 7.47529 20.8478 7.94713 20.8478 8.42485C20.8478 15.4315 15.3292 21.1499 8.4749 21.1499C7.60007 21.1499 6.74567 21.0564 5.92093 20.8784C5.8763 20.8688 5.83177 20.8589 5.78732 20.8487L4.52007 22.2793L4.5156 22.2844L4.51558 22.2844L4.04729 22.8035L2.93344 21.7989L3.39946 21.2822L4.96569 19.5141L5.27366 19.1664L5.72214 19.2872C5.89233 19.3331 6.06414 19.3747 6.23747 19.4122C6.95895 19.5679 7.70725 19.6499 8.4749 19.6499C14.4589 19.6499 19.3478 14.6456 19.3478 8.42485C19.3478 8.00081 19.325 7.58252 19.2808 7.17117C19.237 6.76429 19.1722 6.36411 19.0875 5.97181L18.9986 5.55981L19.3043 5.26962L20.9779 3.68085L19.5805 2.28345ZM7.82236 9.80247V4.62451H9.32236V9.80247L7.82236 9.80247ZM9.32236 12.3916C9.32236 11.9774 8.98657 11.6416 8.57236 11.6416C8.15814 11.6416 7.82236 11.9774 7.82236 12.3916V12.4278C7.82236 12.842 8.15814 13.1778 8.57236 13.1778C8.98657 13.1778 9.32236 12.842 9.32236 12.4278V12.3916Z" fill="#303030"/>
</svg>
