<svg width="24" height="24" viewBox="0 0 24 24" fill="none" xmlns="http://www.w3.org/2000/svg">
<path fill-rule="evenodd" clip-rule="evenodd" d="M2.0155 8.62913C2.0155 4.98947 4.96603 2.03894 8.60569 2.03894C12.2454 2.03894 15.1959 4.98947 15.1959 8.62913C15.1959 12.2688 12.2454 15.2193 8.60569 15.2193C4.96603 15.2193 2.0155 12.2688 2.0155 8.62913ZM8.60569 0.53894C4.1376 0.53894 0.515503 4.16104 0.515503 8.62913C0.515503 13.0972 4.1376 16.7193 8.60569 16.7193C13.0738 16.7193 16.6959 13.0972 16.6959 8.62913C16.6959 4.16104 13.0738 0.53894 8.60569 0.53894ZM19.5853 2.31065H23.4591V6.18439L22.0412 4.76652L20.6413 6.09547C20.6973 6.4038 20.7425 6.71599 20.7764 7.03158C20.8264 7.49554 20.8519 7.96679 20.8519 8.44392C20.8519 15.4418 15.3403 21.1531 8.49447 21.1531C7.62072 21.1531 6.76738 21.0598 5.94367 20.8819C5.89929 20.8724 5.855 20.8625 5.8108 20.8525L4.54561 22.2807L4.54115 22.2857L4.54113 22.2857L4.07345 22.8042L2.95961 21.7996L3.42501 21.2836L4.98916 19.5178L5.29713 19.1702L5.74561 19.2909C5.91556 19.3367 6.08713 19.3783 6.26021 19.4157C6.98066 19.5712 7.7279 19.6531 8.49447 19.6531C14.4699 19.6531 19.3519 14.6559 19.3519 8.44392C19.3519 8.02047 19.3292 7.60277 19.2851 7.19201C19.2413 6.7857 19.1766 6.38609 19.0921 5.99433L19.0031 5.58233L19.3088 5.29214L20.9802 3.7055L19.5853 2.31065Z" fill="#303030"/>
</svg>
