<svg width="24" height="24" viewBox="0 0 24 24" fill="none" xmlns="http://www.w3.org/2000/svg">
<path fill-rule="evenodd" clip-rule="evenodd" d="M6.33559 18.2931H3.2207V17.4785L5.34913 15.4115V9.79442C5.34913 6.5861 7.28755 3.99988 10.3566 3.27368V2.55124C10.3566 1.7247 11.0941 0.999756 11.9407 0.999756C12.7855 0.999756 13.5248 1.7247 13.5248 2.55124V3.27368C15.5147 3.74401 17.0793 4.99699 17.9341 6.69459C18.3969 7.6152 18.6521 8.66624 18.6521 9.79442V15.4115L20.7799 17.4785V18.2931H6.33559Z" stroke="#DBDBDB" stroke-width="1.5"/>
<path fill-rule="evenodd" clip-rule="evenodd" d="M9.41406 21.2401C9.41406 22.6095 10.5935 23.5769 12.0685 23.5769C13.5203 23.5769 14.5865 22.6258 14.5865 21.2401V20.9482H9.41406V21.2401Z" fill="#DBDBDB"/>
</svg>
