<svg width="136" height="136" viewBox="0 0 136 136" fill="none" xmlns="http://www.w3.org/2000/svg">
<path d="M0 68C0 30.4446 30.4446 0 68 0C105.555 0 136 30.4446 136 68C136 105.555 105.555 136 68 136C30.4446 136 0 105.555 0 68Z" fill="#181818"/>
<path d="M96.4324 52.7009C100.08 60.1636 100.105 68.9495 96.5173 76.4342M104.319 47.5607C109.513 58.2575 109.552 70.8289 104.429 81.5523M39.74 76.4357C36.0927 68.9715 36.0644 60.1872 39.6535 52.7025M31.8498 81.5743C26.6578 70.8792 26.6201 58.3077 31.7398 47.5843M54.59 83.0483H46.7847V81.007L52.1181 75.8276V61.7523C52.1181 53.7129 56.9754 47.2323 64.666 45.4126V43.6023C64.666 41.5312 66.514 39.7146 68.6354 39.7146C70.7521 39.7146 72.6048 41.5312 72.6048 43.6023V45.4126C77.591 46.5912 81.5117 49.7309 83.6535 53.9847C84.8133 56.2916 85.4528 58.9253 85.4528 61.7523V75.8276L90.7847 81.007V83.0483H54.59Z" stroke="#DBDBDB"/>
<mask id="mask0" mask-type="alpha" maskUnits="userSpaceOnUse" x="62" y="88" width="14" height="7">
<path d="M62.5 88.4285H75.4219V94.995H62.5V88.4285Z" fill="white"/>
</mask>
<g mask="url(#mask0)">
<path fill-rule="evenodd" clip-rule="evenodd" d="M62.5 89.1576C62.5 92.5786 65.4464 94.9955 69.1314 94.9955C72.7583 94.9955 75.4219 92.6195 75.4219 89.1576V88.4285H62.5V89.1576Z" fill="#DBDBDB"/>
</g>
<path d="M135.167 116C135.167 126.586 126.586 135.167 116.001 135.167C105.415 135.167 96.834 126.586 96.834 116C96.834 105.415 105.415 96.8334 116.001 96.8334C126.586 96.8334 135.167 105.415 135.167 116Z" fill="#F8DF52"/>
<path fill-rule="evenodd" clip-rule="evenodd" d="M115 106L115 119.333H117L117 106H115ZM117.5 124.328C117.5 123.5 116.828 122.828 116 122.828C115.172 122.828 114.5 123.5 114.5 124.328V124.385C114.5 125.214 115.172 125.885 116 125.885C116.828 125.885 117.5 125.214 117.5 124.385L117.5 124.328Z" fill="black"/>
</svg>
