<svg width="136" height="136" viewBox="0 0 136 136" fill="none" xmlns="http://www.w3.org/2000/svg">
<path d="M0 68C0 30.4446 30.4446 0 68 0V0C105.555 0 136 30.4446 136 68V68C136 105.555 105.555 136 68 136V136C30.4446 136 0 105.555 0 68V68Z" fill="#181818"/>
<path d="M96.4334 52.7009C100.081 60.1636 100.106 68.9495 96.5182 76.4342M104.32 47.5607C109.514 58.2575 109.553 70.8289 104.43 81.5523M39.7409 76.4357C36.0937 68.9715 36.0654 60.1872 39.6545 52.7025M31.8508 81.5743C26.6588 70.8792 26.6211 58.3077 31.7408 47.5843M54.5909 83.0483H46.7857V81.007L52.1191 75.8276V61.7523C52.1191 53.7129 56.9764 47.2323 64.6669 45.4126V43.6023C64.6669 41.5312 66.5149 39.7146 68.6364 39.7146C70.7531 39.7146 72.6058 41.5312 72.6058 43.6023V45.4126C77.5919 46.5912 81.5127 49.7309 83.6545 53.9847C84.8142 56.2916 85.4538 58.9253 85.4538 61.7523V75.8276L90.7857 81.007V83.0483H54.5909Z" stroke="#DBDBDB"/>
<mask id="mask0" mask-type="alpha" maskUnits="userSpaceOnUse" x="62" y="88" width="14" height="7">
<path d="M62.5 88.4285H75.4219V94.995H62.5V88.4285Z" fill="white"/>
</mask>
<g mask="url(#mask0)">
<path fill-rule="evenodd" clip-rule="evenodd" d="M62.5 89.1576C62.5 92.5786 65.4464 94.9955 69.1314 94.9955C72.7583 94.9955 75.4219 92.6195 75.4219 89.1576V88.4285H62.5V89.1576Z" fill="#DBDBDB"/>
</g>
</svg>
