<svg xmlns="http://www.w3.org/2000/svg" width="40" height="40" viewBox="0 0 40 40">
    <g fill="#5AE4AA" fill-rule="evenodd">
        <path d="M5.958 11.625c-3.13 0-5.666-2.537-5.666-5.667S2.829.292 5.958.292c3.13 0 5.667 2.537 5.667 5.666 0 3.13-2.537 5.667-5.667 5.667zm0-2c2.025 0 3.667-1.642 3.667-3.667S7.983 2.292 5.958 2.292 2.292 3.933 2.292 5.958s1.641 3.667 3.666 3.667z" transform="translate(12 12)"/>
        <path d="M8.55 9.965l5.451 5.45c.39.391 1.024.391 1.414 0 .391-.39.391-1.023 0-1.414l-5.45-5.45c-.39-.391-1.024-.391-1.414 0-.391.39-.391 1.023 0 1.414z" transform="translate(12 12)"/>
    </g>
</svg>
