<svg xmlns="http://www.w3.org/2000/svg" width="40" height="40" viewBox="0 0 40 40">
    <path fill="#ADADAD" fill-rule="evenodd" d="M21.77 9v2.055c1.244.137 2.412.528 3.45 1.12l1.207-1.662 1.618 1.176-1.208 1.663c.896.817 1.626 1.814 2.133 2.933l1.953-.635.618 1.902-1.953.634c.12.586.183 1.193.183 1.814s-.063 1.228-.183 1.814l1.953.634-.618 1.902-1.953-.635c-.507 1.12-1.237 2.116-2.133 2.933l1.208 1.663-1.618 1.176-1.207-1.662c-1.038.592-2.206.983-3.45 1.12V31h-2v-2.055c-1.243-.138-2.41-.528-3.448-1.12l-1.208 1.662-1.618-1.176 1.208-1.663c-.896-.818-1.625-1.814-2.133-2.932l-1.953.634L10 22.448l1.953-.634c-.12-.586-.182-1.193-.182-1.814s.063-1.228.182-1.814L10 17.552l.618-1.902 1.953.634c.508-1.118 1.237-2.114 2.133-2.932l-1.208-1.663 1.618-1.176 1.208 1.662c1.037-.592 2.205-.982 3.448-1.12V9h2zm-1 4c-3.865 0-7 3.134-7 7s3.135 7 7 7c3.867 0 7-3.134 7-7s-3.133-7-7-7zm0 5c1.105 0 2 .895 2 2s-.895 2-2 2c-1.104 0-2-.895-2-2s.896-2 2-2z"/>
</svg>
