<svg width="15" height="16" viewBox="0 0 15 16" fill="none" xmlns="http://www.w3.org/2000/svg">
<path fill-rule="evenodd" clip-rule="evenodd" d="M12.8668 5.11716C10.8084 4.68306 8.93301 3.62238 7.50028 2.08175C6.06744 3.62237 4.19201 4.68304 2.1335 5.11715V5.20584C2.1335 8.96441 4.10555 12.4474 7.32852 14.3811L7.50036 14.4842L7.67207 14.3812C10.8949 12.4474 12.8668 8.96453 12.8668 5.20607V5.11716ZM7.50038 16.0002L8.34093 15.4959C11.9553 13.3272 14.1668 9.42116 14.1668 5.20607V4.00024C11.9099 3.79508 9.8276 2.73885 8.33197 1.06448L8.30531 1.0345C8.12518 0.830997 7.95367 0.618463 7.79152 0.397311L7.58239 0.112093L7.52503 0.0338558C7.51282 0.0172001 7.48794 0.0171973 7.47573 0.0338504L7.41835 0.112076L7.2083 0.398418C7.0464 0.619142 6.87516 0.831278 6.69534 1.03442L6.66865 1.06442C5.17288 2.73881 3.09045 3.79504 0.833496 4.00024V5.20584C0.833496 9.42106 3.04514 13.3272 6.65969 15.4958L7.50038 16.0002ZM6.97365 6.47525C6.86341 6.55832 6.81683 6.65104 6.81683 6.7662H5.51683C5.51683 6.18732 5.80219 5.73025 6.19126 5.43705C6.56783 5.15326 7.04316 5.01662 7.50016 5.01662C7.92313 5.01662 8.41727 5.11409 8.8197 5.4306C9.24829 5.76769 9.4835 6.28281 9.4835 6.92328C9.4835 7.34839 9.31218 7.67383 9.11954 7.92181C8.98933 8.08942 8.81537 8.2593 8.6777 8.39372C8.63724 8.43323 8.59992 8.46967 8.56776 8.5021C8.25588 8.81661 8.02895 9.11064 8.02895 9.66662H6.72895C6.72895 8.61199 7.22929 8.00561 7.64468 7.58672C7.71473 7.51608 7.77482 7.45734 7.82753 7.40582C7.9419 7.29401 8.02154 7.21617 8.09291 7.1243C8.173 7.0212 8.1835 6.96942 8.1835 6.92328C8.1835 6.62126 8.08675 6.50805 8.01603 6.45243C7.91916 6.37624 7.74663 6.31662 7.50016 6.31662C7.28773 6.31662 7.09639 6.38275 6.97365 6.47525ZM8.11995 11.2942C8.11993 10.88 7.78412 10.5442 7.36991 10.5442C6.95569 10.5443 6.61993 10.8801 6.61995 11.2943L6.61996 11.3171C6.61998 11.7313 6.95579 12.067 7.37 12.067C7.78422 12.067 8.11998 11.7312 8.11996 11.317L8.11995 11.2942Z" fill="#ADADAD"/>
</svg>
