<?xml version="1.0" encoding="UTF-8"?>
<svg width="24px" height="24px" viewBox="0 0 24 24" version="1.1" xmlns="http://www.w3.org/2000/svg" xmlns:xlink="http://www.w3.org/1999/xlink" style="background: #4B4B4B;">
    <!-- Generator: sketchtool 61.2 (101010) - https://sketch.com -->
    <title>02CF4875-52E6-4F2D-89DE-ABDA390AFBE0</title>
    <desc>Created with sketchtool.</desc>
    <g id="Symbols" stroke="none" stroke-width="1" fill="none" fill-rule="evenodd">
        <g id="Icon-/-Category-/-Company">
            <rect fill="none" x="0" y="0" width="24" height="24"></rect>
            <g id="Group" transform="translate(0.000000, 1.000000)" fill="#EDEDED">
                <path d="M21.179457,0 C23.0522976,0 24,0.923954373 24,2.85171103 L24,2.85171103 L24,19.1596958 C24,21.0874525 23.0522976,22 21.179457,22 L21.179457,22 L2.82054295,22 C0.958984605,22 0,21.0874525 0,19.1596958 L0,19.1596958 L0,2.85171103 C0,0.923954373 0.958984605,0 2.82054295,0 L2.82054295,0 Z M11.2152121,4.48705422 L9.42967485,8.10736877 L5.43477318,8.68978392 C4.7183633,8.79368458 4.43125461,9.67688026 4.95078462,10.1827384 L7.84101745,12.999138 L7.15742533,16.9776441 C7.03437874,17.6968044 7.79177745,18.2354536 8.42615628,17.8991316 L11.9999812,16.0206151 L15.5738062,17.8991316 C16.208185,18.2327299 16.9655837,17.6968044 16.8425371,16.9776441 L16.158945,12.999138 L19.0491778,10.1827384 C19.5687078,9.67688026 19.2815991,8.79368458 18.5651893,8.68978392 L14.5702876,8.10736877 L12.7847503,4.48705422 C12.4648239,3.84175394 11.5378623,3.83355618 11.2152121,4.48705422 Z" id="Combined-Shape"></path>
            </g>
        </g>
    </g>
</svg>