<?xml version="1.0" encoding="UTF-8"?>
<svg width="24px" height="24px" viewBox="0 0 24 24" version="1.1" xmlns="http://www.w3.org/2000/svg" xmlns:xlink="http://www.w3.org/1999/xlink">
    <!-- Generator: sketchtool 61.2 (101010) - https://sketch.com -->
    <title>384130F8-A772-4267-B870-7A5874D60984</title>
    <desc>Created with sketchtool.</desc>
    <g id="Symbols" stroke="none" stroke-width="1" fill="none" fill-rule="evenodd">
        <g id="Icons-/-Exit" fill="#FF725C" fill-rule="nonzero">
            <path d="M9.62498659,17.9999714 C9.83122389,17.9999714 9.99998569,17.8312096 9.99998569,17.6249723 L9.99998569,16.8749741 C9.99998569,16.6687368 9.83122389,16.499975 9.62498659,16.499975 L7,16.499975 C6.17186982,16.499975 5.5,15.8281016 5.5,14.9999785 L5.5,9 C5.5,8.17186982 6.17186982,7.5 7,7.5 L9.62498659,7.5 C9.83122389,7.5 9.99998569,7.33123462 9.99998569,7.12499732 L9.99998569,6.37499911 C9.99998569,6.1687618 9.83122389,6 9.62498659,6 L7,6 C5.3437468,6 4,7.3437468 4,9 L4,14.9999785 C4,16.6562246 5.3437468,17.9999714 7,17.9999714 L9.62498659,17.9999714 Z M14.7530872,17.3874851 L19.8905871,12.2624973 C20.0374679,12.1156165 20.0374679,11.8780988 19.8905871,11.7312485 L14.7530872,6.60626076 C14.6062369,6.46249279 14.3687192,6.46249279 14.2218384,6.60937355 L13.6093521,7.22185988 C13.4593586,7.37188394 13.4624713,7.61248395 13.6156082,7.75625192 L17.1499625,11.1874876 L9.37498718,11.1874876 C9.16874988,11.1874876 8.99998808,11.3562494 8.99998808,11.5624867 L8.99998808,12.4374847 C8.99998808,12.643722 9.16874988,12.8124838 9.37498718,12.8124838 L17.1499625,12.8124838 L13.6156082,16.2406067 C13.4656146,16.3874874 13.4624713,16.6280875 13.6093521,16.7749682 L14.2218384,17.3874851 C14.3687192,17.5343353 14.6062369,17.5343353 14.7530872,17.3874851 Z" id=""></path>
        </g>
    </g>
</svg>