<svg xmlns="http://www.w3.org/2000/svg" width="32" height="32" viewBox="0 0 32 32">
    <defs>
        <linearGradient id="prefix__a" x1="87.19%" x2="50%" y1="6.069%" y2="100%">
            <stop offset="0%" stop-color="#303030"/>
            <stop offset="100%" stop-color="#141414"/>
        </linearGradient>
    </defs>
    <g fill="none" fill-rule="evenodd">
        <path fill="url(#prefix__a)" d="M17.874.008c.94.019 1.882.048 2.822.088.758.032 1.516.081 2.273.13 1.01.065 2.018.155 3.012.354.865.174 1.7.433 2.476.867.82.46 1.477 1.088 1.969 1.889.52.846.808 1.777.997 2.745.15.768.232 1.544.295 2.324.074.916.128 1.834.17 2.752.05 1.097.083 2.195.1 3.293.013.883.016 1.765.007 2.648-.007.688-.02 1.377-.043 2.065-.03.856-.068 1.711-.112 2.566-.035.658-.075 1.315-.13 1.971-.092 1.091-.22 2.178-.534 3.232-.33 1.108-.848 2.105-1.717 2.892-.556.505-1.196.87-1.895 1.138-.828.316-1.69.494-2.567.61-.848.113-1.702.173-2.556.225-.716.043-1.433.08-2.15.112-.7.03-1.399.047-2.098.066-1.37.038-2.74.026-4.11.01-.893-.012-1.785-.05-2.678-.088-.78-.034-1.56-.078-2.34-.13-1.12-.074-2.24-.17-3.34-.419-.765-.174-1.505-.42-2.191-.81-.963-.546-1.692-1.315-2.194-2.302-.451-.886-.693-1.835-.85-2.81-.126-.794-.194-1.595-.248-2.397-.054-.802-.101-1.605-.135-2.408C.08 19.985.06 19.35.039 18.713c-.043-1.314-.044-2.629-.033-3.943.005-.7.023-1.4.045-2.1.022-.677.049-1.354.088-2.03.049-.843.094-1.687.169-2.528.085-.95.202-1.895.45-2.818.242-.9.601-1.746 1.183-2.484.688-.874 1.585-1.452 2.62-1.83C5.453.657 6.378.489 7.315.379c.842-.1 1.688-.156 2.535-.203.784-.044 1.568-.081 2.353-.112 1.23-.049 2.462-.075 3.695-.058.659 0 1.318-.01 1.977.003z"/>
        <path fill="#F8DF52" d="M17 10v5h5v2h-5v5h-2v-5h-5v-2h5v-5h2z"/>
    </g>
</svg>
