<svg width="24" height="24" viewBox="0 0 24 24" fill="none" xmlns="http://www.w3.org/2000/svg">
<path fill-rule="evenodd" clip-rule="evenodd" d="M21.6562 21.375C22.7431 21.375 23.6249 20.4931 23.6249 19.4062V4.96875C23.6249 3.88183 22.7431 3 21.6562 3H1.96875C0.881834 3 0 3.88183 0 4.96875V19.4062C0 20.4931 0.881834 21.375 1.96875 21.375H21.6562ZM7.21873 12.1875C5.77089 12.1875 4.59374 11.0103 4.59374 9.56248C4.59374 8.11464 5.77089 6.93749 7.21873 6.93749C8.66657 6.93749 9.84373 8.11464 9.84373 9.56248C9.84373 11.0103 8.66657 12.1875 7.21873 12.1875ZM3.54376 17.4375H10.8937C11.4023 17.4375 11.8125 17.0847 11.8125 16.65V15.8625C11.8125 14.5582 10.5779 13.5 9.05622 13.5H8.85114C8.35075 13.7091 7.79704 13.8281 7.21873 13.8281C6.64043 13.8281 6.09081 13.7091 5.58632 13.5H5.38125C3.85954 13.5 2.62499 14.5582 2.62499 15.8625V16.65C2.62499 17.0847 3.03515 17.4375 3.54376 17.4375ZM13.25 12.6621V11.3379C13.25 11.2053 13.3449 11.0912 13.4767 11.0651L14.1859 10.9371C14.3608 10.9055 14.5132 10.799 14.6031 10.6456C14.6981 10.4833 14.7127 10.2861 14.6427 10.1115L14.3758 9.44607C14.3327 9.32047 14.3855 9.18233 14.5019 9.11603L15.6647 8.45395C15.7812 8.38765 15.9289 8.41162 16.0176 8.51122L16.512 9.05873C16.6367 9.19679 16.814 9.27559 17 9.27559C17.186 9.27559 17.3633 9.19679 17.488 9.05873L17.9824 8.51122C18.0711 8.41162 18.2188 8.38765 18.3353 8.45395L19.4981 9.11603C19.6145 9.18233 19.6673 9.32047 19.6242 9.44607L19.3573 10.1115C19.2873 10.2861 19.3019 10.4833 19.3969 10.6456C19.4868 10.799 19.6392 10.9055 19.8141 10.9371L20.5233 11.0651C20.6551 11.0912 20.75 11.2053 20.75 11.3379V12.6621C20.75 12.7947 20.6551 12.9088 20.5233 12.9349L19.8141 13.0629C19.6392 13.0945 19.4868 13.201 19.3969 13.3544C19.3019 13.5167 19.2873 13.7139 19.3573 13.8885L19.6242 14.5539C19.6673 14.6795 19.6145 14.8177 19.4981 14.884L18.3353 15.5461C18.2188 15.6124 18.0711 15.5884 17.9824 15.4888L17.488 14.9413C17.3633 14.8032 17.186 14.7244 17 14.7244C16.814 14.7244 16.6367 14.8032 16.512 14.9413L16.0176 15.4888C15.9289 15.5884 15.7812 15.6124 15.6647 15.5461L14.5019 14.884C14.3855 14.8177 14.3327 14.6795 14.3758 14.5539L14.6427 13.8885C14.7127 13.7139 14.6981 13.5167 14.6031 13.3544C14.5132 13.201 14.3608 13.0945 14.1859 13.0629L13.4767 12.9349C13.3449 12.9088 13.25 12.7947 13.25 12.6621ZM17 13.3333C17.7364 13.3333 18.3333 12.7364 18.3333 12C18.3333 11.2636 17.7364 10.6667 17 10.6667C16.2636 10.6667 15.6667 11.2636 15.6667 12C15.6667 12.7364 16.2636 13.3333 17 13.3333Z" fill="white"/>
</svg>
