<svg xmlns="http://www.w3.org/2000/svg" width="24" height="24" style="background:#181818" viewBox="0 0 24 24">
    <g fill="none" fill-rule="evenodd">
        <path fill="transparent" d="M0 0h24v24H0z"/>
        <path fill="#5AE4AA" d="M15.142 17.97l1.644 1.644A8.928 8.928 0 0 1 12 21c-1.76 0-3.4-.51-4.786-1.386l1.644-1.644c.938.497 2.006.78 3.142.78a6.693 6.693 0 0 0 3.142-.78zM4.386 7.214L6.03 8.858A6.693 6.693 0 0 0 5.25 12c0 1.136.283 2.204.78 3.142l-1.644 1.644A8.928 8.928 0 0 1 3 12c0-1.76.51-3.4 1.386-4.786zM21 12c0 1.76-.51 3.4-1.386 4.786l-1.644-1.644c.497-.938.78-2.006.78-3.142a6.693 6.693 0 0 0-.78-3.142l1.644-1.644A8.928 8.928 0 0 1 21 12zm-9-9c1.76 0 3.4.51 4.786 1.386L15.142 6.03A6.693 6.693 0 0 0 12 5.25a6.693 6.693 0 0 0-3.142.78L7.214 4.386A8.928 8.928 0 0 1 12 3z"/>
    </g>
</svg>
