<svg width="24" height="24" viewBox="0 0 24 24" fill="none" xmlns="http://www.w3.org/2000/svg">
<path fill-rule="evenodd" clip-rule="evenodd" d="M18.0002 11.9998C18.0002 11.7458 17.9844 11.4955 17.9538 11.2498H20.9644V12.7498H17.9538C17.9844 12.5041 18.0002 12.2538 18.0002 11.9998ZM15.6794 16.7397C16.0756 16.4317 16.4321 16.0752 16.7401 15.679L18.8701 17.8091L17.8095 18.8697L15.6794 16.7397ZM12.0002 17.9998C12.2536 17.9998 12.5034 17.9841 12.7485 17.9536V20.9653H11.2485V17.9532C11.4948 17.9839 11.7456 17.9998 12.0002 17.9998ZM7.2598 15.6784C7.56771 16.0746 7.9242 16.4312 8.32032 16.7392L6.18982 18.8697L5.12915 17.8091L7.2598 15.6784ZM6.00018 11.9998C6.00018 12.2538 6.01596 12.5041 6.0466 12.7498H3.0332V11.2498H6.0466C6.01596 11.4955 6.00018 11.7458 6.00018 11.9998ZM8.32096 7.25989C7.92479 7.56785 7.56826 7.92438 7.2603 8.32055L5.13022 6.19047L6.19088 5.12981L8.32096 7.25989ZM12.0002 5.9998C11.7456 5.9998 11.4948 6.01565 11.2485 6.04642V3.03418H12.7485V6.04601C12.5034 6.01551 12.2536 5.9998 12.0002 5.9998ZM16.7396 8.31994L18.8691 6.19047L17.8084 5.12981L15.6788 7.25942C16.075 7.56733 16.4316 7.92382 16.7396 8.31994ZM12.0002 15C13.657 15 15.0002 13.6569 15.0002 12C15.0002 10.3431 13.657 9 12.0002 9C10.3433 9 9.00018 10.3431 9.00018 12C9.00018 13.6569 10.3433 15 12.0002 15Z" fill="#ADADAD"/>
</svg>
