<svg width="24" height="24" viewBox="0 0 24 24" fill="none" xmlns="http://www.w3.org/2000/svg">
<path fill-rule="evenodd" clip-rule="evenodd" d="M7.03085 0.96376C6.61664 0.96376 6.28085 1.29955 6.28085 1.71376V6.28114H1.71249C1.29828 6.28114 0.962494 6.61693 0.962494 7.03114V22.2922C0.962494 22.7064 1.29828 23.0422 1.71249 23.0422H16.968C17.3822 23.0422 17.718 22.7064 17.718 22.2922V17.7248H22.2863C22.7005 17.7248 23.0363 17.389 23.0363 16.9748V1.71376C23.0363 1.29955 22.7005 0.96376 22.2863 0.96376H7.03085ZM16.218 17.7248H7.03085C6.61664 17.7248 6.28085 17.389 6.28085 16.9748V7.78114H2.46249V21.5422H16.218V17.7248ZM7.78085 16.2248V2.46376H21.5363V16.2248H7.78085Z" fill="#5AE4AF"/>
</svg>
