<svg width="24" height="24" viewBox="0 0 24 24" fill="none" xmlns="http://www.w3.org/2000/svg">
<g clip-path="url(#clip0_3226_42305)">
<path fill-rule="evenodd" clip-rule="evenodd" d="M8.75 0V2H11.25V0H12.75V2H15.25V0H16.75V2H20C21.1046 2 22 2.89543 22 4V7.25H24V8.75H22V11.25H24V12.75H22V15.25H24V16.75H22V20C22 21.1046 21.1046 22 20 22H16.75V24H15.25V22H12.75V24H11.25V22H8.75V24H7.25V22H4C2.89543 22 2 21.1046 2 20V16.75H0V15.25H2V12.75H0V11.25H2V8.75H0V7.25H2V4C2 2.89543 2.89543 2 4 2H7.25V0H8.75ZM4 3.5H20C20.2761 3.5 20.5 3.72386 20.5 4V20C20.5 20.2761 20.2761 20.5 20 20.5H4C3.72386 20.5 3.5 20.2761 3.5 20V4C3.5 3.72386 3.72386 3.5 4 3.5ZM10 9H14C14.5523 9 15 9.44771 15 10V14C15 14.5523 14.5523 15 14 15H10C9.44772 15 9 14.5523 9 14V10C9 9.44772 9.44771 9 10 9Z" fill="#303030"/>
</g>
<defs>
<clipPath id="clip0_3226_42305">
<rect width="24" height="24" fill="white"/>
</clipPath>
</defs>
</svg>
