<svg width="88" height="88" viewBox="0 0 88 88" fill="none" xmlns="http://www.w3.org/2000/svg">
<path d="M41.4783 10.754C42.2972 10.7511 43.1375 10.75 44 10.75C44.8625 10.75 45.7028 10.7511 46.5217 10.754L46.527 9.25401C45.7059 9.25115 44.8638 9.25 44 9.25C43.1362 9.25 42.2941 9.25115 41.473 9.25401L41.4783 10.754Z" fill="#DBDBDB"/>
<path d="M51.5438 10.802C53.33 10.8333 54.9924 10.882 56.5403 10.956L56.612 9.45767C55.0448 9.38277 53.3666 9.33372 51.5701 9.3022L51.5438 10.802Z" fill="#DBDBDB"/>
<path d="M31.4597 10.956C33.0075 10.882 34.67 10.8333 36.4562 10.802L36.4299 9.3022C34.6334 9.33372 32.9551 9.38277 31.388 9.45767L31.4597 10.956Z" fill="#DBDBDB"/>
<path d="M61.5041 11.331C63.3291 11.5343 64.9346 11.8056 66.3489 12.1647L66.7181 10.7108C65.2187 10.3301 63.542 10.0487 61.6702 9.84021L61.5041 11.331Z" fill="#DBDBDB"/>
<path d="M21.6511 12.1647C23.0654 11.8056 24.6709 11.5343 26.4959 11.331L26.3298 9.84021C24.458 10.0487 22.7813 10.3301 21.2819 10.7108L21.6511 12.1647Z" fill="#DBDBDB"/>
<path d="M13.9436 17.221C14.7883 15.8567 15.8567 14.7883 17.2209 13.9436L16.4313 12.6683C14.8698 13.6352 13.6352 14.8698 12.6683 16.4313L13.9436 17.221Z" fill="#DBDBDB"/>
<path d="M70.7791 13.9436C72.1433 14.7883 73.2117 15.8567 74.0564 17.2209L75.3317 16.4312C74.3648 14.8698 73.1302 13.6352 71.5688 12.6683L70.7791 13.9436Z" fill="#DBDBDB"/>
<path d="M75.8353 21.6511C76.1945 23.0654 76.4657 24.6709 76.669 26.4959L78.1598 26.3298C77.9513 24.458 77.6699 22.7813 77.2892 21.2819L75.8353 21.6511Z" fill="#DBDBDB"/>
<path d="M11.331 26.4959C11.5343 24.6709 11.8055 23.0654 12.1647 21.6511L10.7108 21.2819C10.3301 22.7813 10.0487 24.458 9.8402 26.3298L11.331 26.4959Z" fill="#DBDBDB"/>
<path d="M77.044 31.4597C77.118 33.0076 77.1667 34.67 77.198 36.4562L78.6978 36.4299C78.6663 34.6334 78.6172 32.9552 78.5423 31.388L77.044 31.4597Z" fill="#DBDBDB"/>
<path d="M10.802 36.4562C10.8333 34.67 10.882 33.0076 10.956 31.4597L9.45767 31.388C9.38277 32.9552 9.33372 34.6334 9.3022 36.4299L10.802 36.4562Z" fill="#DBDBDB"/>
<path d="M77.246 41.4783C77.2488 42.2972 77.25 43.1375 77.25 44C77.25 44.8625 77.2488 45.7028 77.246 46.5217L78.746 46.527C78.7488 45.7059 78.75 44.8638 78.75 44C78.75 43.1362 78.7488 42.2941 78.746 41.473L77.246 41.4783Z" fill="#DBDBDB"/>
<path d="M10.75 44C10.75 43.1375 10.7511 42.2972 10.754 41.4783L9.25401 41.473C9.25115 42.2941 9.25 43.1362 9.25 44C9.25 44.8638 9.25115 45.7059 9.25401 46.527L10.754 46.5217C10.7511 45.7028 10.75 44.8625 10.75 44Z" fill="#DBDBDB"/>
<path d="M77.198 51.5438C77.1667 53.33 77.118 54.9924 77.044 56.5403L78.5423 56.612C78.6172 55.0448 78.6663 53.3666 78.6978 51.5701L77.198 51.5438Z" fill="#DBDBDB"/>
<path d="M10.956 56.5403C10.882 54.9925 10.8333 53.33 10.802 51.5438L9.3022 51.5701C9.33372 53.3666 9.38277 55.0448 9.45767 56.612L10.956 56.5403Z" fill="#DBDBDB"/>
<path d="M76.669 61.5041C76.4657 63.3291 76.1945 64.9346 75.8353 66.3489L77.2892 66.7181C77.6699 65.2187 77.9513 63.542 78.1598 61.6702L76.669 61.5041Z" fill="#DBDBDB"/>
<path d="M12.1647 66.3489C11.8055 64.9346 11.5343 63.3291 11.331 61.5041L9.8402 61.6702C10.0487 63.542 10.3301 65.2187 10.7108 66.7181L12.1647 66.3489Z" fill="#DBDBDB"/>
<path d="M74.0564 70.779C73.2117 72.1433 72.1433 73.2117 70.7791 74.0564L71.5688 75.3317C73.1302 74.3648 74.3648 73.1302 75.3317 71.5687L74.0564 70.779Z" fill="#DBDBDB"/>
<path d="M17.2209 74.0564C15.8567 73.2117 14.7883 72.1433 13.9436 70.7791L12.6683 71.5688C13.6352 73.1302 14.8698 74.3648 16.4313 75.3317L17.2209 74.0564Z" fill="#DBDBDB"/>
<path d="M26.4959 76.669C24.6709 76.4657 23.0654 76.1944 21.6511 75.8353L21.2819 77.2892C22.7813 77.6699 24.458 77.9513 26.3298 78.1598L26.4959 76.669Z" fill="#DBDBDB"/>
<path d="M66.3489 75.8353C64.9346 76.1944 63.3291 76.4657 61.5041 76.669L61.6702 78.1598C63.542 77.9513 65.2187 77.6699 66.7181 77.2892L66.3489 75.8353Z" fill="#DBDBDB"/>
<path d="M36.4562 77.198C34.67 77.1667 33.0076 77.118 31.4597 77.044L31.388 78.5423C32.9552 78.6172 34.6334 78.6663 36.4299 78.6978L36.4562 77.198Z" fill="#DBDBDB"/>
<path d="M56.5403 77.044C54.9925 77.118 53.33 77.1667 51.5438 77.198L51.5701 78.6978C53.3666 78.6663 55.0449 78.6172 56.612 78.5423L56.5403 77.044Z" fill="#DBDBDB"/>
<path d="M44 77.25C43.1375 77.25 42.2972 77.2488 41.4783 77.246L41.473 78.746C42.2941 78.7488 43.1362 78.75 44 78.75C44.8638 78.75 45.7059 78.7488 46.527 78.746L46.5217 77.246C45.7028 77.2488 44.8625 77.25 44 77.25Z" fill="#DBDBDB"/>
<path d="M35.8197 42.6367V45.3635H52.1803V42.6367H35.8197Z" fill="#DBDBDB"/>
</svg>