<svg width="41" height="40" viewBox="0 0 41 40" fill="none" xmlns="http://www.w3.org/2000/svg">
<path d="M39.6663 20C39.6663 30.5854 31.0851 39.1666 20.4997 39.1666C9.91422 39.1666 1.33301 30.5854 1.33301 20C1.33301 9.41452 9.91422 0.833313 20.4997 0.833313C31.0851 0.833313 39.6663 9.41452 39.6663 20Z" fill="#DBDBDB"/>
<path fill-rule="evenodd" clip-rule="evenodd" d="M22.0003 11.5734C22.0003 10.745 21.3288 10.0734 20.5003 10.0734C19.6719 10.0734 19.0003 10.745 19.0003 11.5734L19.0003 11.7602C19.0003 12.5886 19.6719 13.2602 20.5003 13.2602C21.3288 13.2602 22.0003 12.5886 22.0003 11.7602L22.0003 11.5734ZM20.5003 16.9476H17.167V18.9476L19.5003 18.9476V29.9999H21.5003V17.9476V16.9476H20.5003Z" fill="black"/>
</svg>
