<svg width="16" height="16" viewBox="0 0 16 16" fill="none" xmlns="http://www.w3.org/2000/svg">
<path fill-rule="evenodd" clip-rule="evenodd" d="M5.98333 3.33327C5.98333 2.21949 6.88622 1.3166 8 1.3166C9.11377 1.3166 10.0167 2.21949 10.0167 3.33327V5.34993H5.98333V3.33327ZM4.68333 5.34993V3.33327C4.68333 1.50152 6.16825 0.0166016 8 0.0166016C9.83174 0.0166016 11.3167 1.50152 11.3167 3.33327V5.34993H12.3333C13.2446 5.34993 13.9833 6.08866 13.9833 6.99993V13.8333C13.9833 14.7445 13.2446 15.4833 12.3333 15.4833H3.66666C2.75539 15.4833 2.01666 14.7445 2.01666 13.8333V6.99993C2.01666 6.08866 2.75539 5.34993 3.66666 5.34993H4.68333ZM3.31666 6.99993C3.31666 6.80663 3.47336 6.64993 3.66666 6.64993H12.3333C12.5266 6.64993 12.6833 6.80664 12.6833 6.99993V13.8333C12.6833 14.0266 12.5266 14.1833 12.3333 14.1833H3.66666C3.47336 14.1833 3.31666 14.0266 3.31666 13.8333V6.99993Z" fill="#303030"/>
</svg>
