<svg width="16" height="16" viewBox="0 0 16 16" fill="none" xmlns="http://www.w3.org/2000/svg">
<path fill-rule="evenodd" clip-rule="evenodd" d="M0.722382 1.3707C0.722382 1.01172 1.0134 0.720703 1.37238 0.720703H14.6305C14.9895 0.720703 15.2805 1.01172 15.2805 1.3707V14.6288C15.2805 14.9878 14.9895 15.2788 14.6305 15.2788H10.0227V13.9788H13.9805V8.65055H10.2399V7.35055H13.9805V2.0207H2.02238V7.34983H5.25852V6.32001H6.55852V9.67925H5.25852V8.64983H2.02238V13.9788H6.50745L8.43177 11.8231L9.40158 12.6888L7.28343 15.0617C7.1601 15.1998 6.98371 15.2788 6.79852 15.2788H1.37238C1.0134 15.2788 0.722382 14.9878 0.722382 14.6288V1.3707Z" fill="#303030"/>
</svg>
