<svg width="24" height="24" viewBox="0 0 24 24" fill="none" xmlns="http://www.w3.org/2000/svg">
<path fill-rule="evenodd" clip-rule="evenodd" d="M2.53009 2.51782L21.1664 21.1541L20.1057 22.2148L16.1776 18.2867C14.9034 18.8913 13.4937 19.2957 11.9998 19.2957C8.86356 19.2957 6.09861 17.5134 4.17848 15.8381C3.20651 14.99 2.42201 14.144 1.8804 13.5102C1.60914 13.1928 1.39763 12.9273 1.25282 12.7395C1.18038 12.6456 1.12455 12.5711 1.08618 12.5191C1.067 12.4931 1.05217 12.4727 1.04182 12.4584L1.02965 12.4415L1.02611 12.4366L1.02497 12.435L1.02457 12.4344C1.02441 12.4342 1.02427 12.434 1.63613 12.0002C1.02427 11.5665 1.02441 11.5663 1.02457 11.5661L1.02497 11.5655L1.02611 11.5639L1.02965 11.5589L1.04182 11.542C1.05217 11.5277 1.067 11.5074 1.08618 11.4814C1.12455 11.4294 1.18038 11.3548 1.25282 11.2609C1.39763 11.0732 1.60914 10.8076 1.8804 10.4902C2.42201 9.85649 3.20651 9.01044 4.17848 8.16238C4.49995 7.88188 4.84511 7.5984 5.21172 7.32078L1.46943 3.57848L2.53009 2.51782ZM6.28338 8.39243C5.89075 8.68198 5.51685 8.98532 5.16465 9.29263C4.26117 10.0809 3.52795 10.8712 3.0207 11.4648C2.84502 11.6703 2.69701 11.8516 2.579 12.0002C2.69701 12.1488 2.84502 12.3301 3.0207 12.5357C3.52795 13.1292 4.26117 13.9195 5.16465 14.7078C6.99542 16.3052 9.41228 17.7957 11.9998 17.7957C13.0511 17.7957 14.0742 17.5496 15.0413 17.1503L13.4318 15.5409C12.9896 15.7198 12.5063 15.8184 12 15.8184C9.89123 15.8184 8.18177 14.1089 8.18177 12.0002C8.18177 11.4939 8.28034 11.0106 8.45933 10.5684L6.28338 8.39243ZM1.63613 12.0002L1.02427 11.5665L0.716797 12.0002L1.02427 12.434L1.63613 12.0002ZM19.821 15.8381C19.4666 16.1474 19.0833 16.4603 18.6742 16.765L17.6012 15.692C18.0359 15.3774 18.4485 15.045 18.8349 14.7078C19.7384 13.9195 20.4716 13.1292 20.9788 12.5357C21.1545 12.3301 21.3025 12.1488 21.4205 12.0002C21.3025 11.8516 21.1545 11.6703 20.9788 11.4648C20.4716 10.8712 19.7384 10.0809 18.8349 9.29263C17.0041 7.69525 14.5872 6.20478 11.9998 6.20478C10.8976 6.20478 9.82645 6.4752 8.81833 6.90911L7.68768 5.77846C8.9969 5.13819 10.4532 4.70478 11.9998 4.70478C15.136 4.70478 17.9009 6.48703 19.821 8.16238C20.793 9.01044 21.5775 9.85649 22.1191 10.4902C22.3904 10.8076 22.6019 11.0732 22.7467 11.2609C22.8191 11.3548 22.875 11.4294 22.9133 11.4814C22.9325 11.5074 22.9473 11.5277 22.9577 11.542L22.9699 11.5589L22.9734 11.5639L22.9746 11.5655L22.975 11.5661C22.9751 11.5663 22.9753 11.5665 22.3634 12.0002C22.9753 12.434 22.9751 12.4342 22.975 12.4344L22.9746 12.435L22.9734 12.4366L22.9699 12.4415L22.9577 12.4584C22.9473 12.4727 22.9325 12.4931 22.9133 12.5191C22.875 12.5711 22.8191 12.6456 22.7467 12.7395C22.6019 12.9273 22.3904 13.1928 22.1191 13.5102C21.5775 14.144 20.793 14.99 19.821 15.8381ZM22.3634 12.0002L22.9753 11.5665L23.2827 12.0002L22.9753 12.434L22.3634 12.0002ZM15.8181 12.0002C15.8181 12.5604 15.6975 13.0924 15.4808 13.5716L10.4286 8.51936C10.9078 8.30267 11.4398 8.18205 12 8.18205C14.1087 8.18205 15.8181 9.8915 15.8181 12.0002Z" fill="#5AE4AF"/>
</svg>
