<svg width="16" height="16" viewBox="0 0 17 16" fill="none" xmlns="http://www.w3.org/2000/svg">
<path fill-rule="evenodd" clip-rule="evenodd" d="M9.62711 0.999988C9.62711 0.743296 9.47604 0.510645 9.24155 0.406213C9.00706 0.30178 8.73308 0.345129 8.54228 0.516846L3.72768 4.84999H1.14377C0.784789 4.84999 0.493774 5.141 0.493774 5.49999V10.5C0.493774 10.859 0.784789 11.15 1.14377 11.15H3.72768L8.54228 15.4831C8.73308 15.6548 9.00706 15.6982 9.24155 15.5938C9.47604 15.4893 9.62711 15.2567 9.62711 15V0.999988ZM4.41193 5.98313L8.32711 2.45947V13.5405L4.41193 10.0168C4.29258 9.90943 4.13768 9.84999 3.97711 9.84999H1.79377V6.14999H3.97711C4.13768 6.14999 4.29258 6.09055 4.41193 5.98313ZM10.5713 9.84514L12.4196 7.99683L10.5778 6.15496L11.497 5.23572L13.3389 7.07759L15.1807 5.23572L16.1 6.15496L14.2581 7.99683L16.1064 9.84513L15.1872 10.7644L13.3389 8.91606L11.4906 10.7644L10.5713 9.84514Z" fill="#FF725C"/>
</svg>
