<svg width="24" height="24" viewBox="0 0 24 24" fill="none" xmlns="http://www.w3.org/2000/svg">
<path fill-rule="evenodd" clip-rule="evenodd" d="M3 13.0862V3.35583L12 0.959961L21 3.35583V13.0862C21 20.1112 12 23.04 12 23.04C12 23.04 3 20.1112 3 13.0862ZM12 2.36172L12.1312 2.3974L19.1312 4.30097L19.5 4.40126V4.78345V13.0887C19.5 15.6692 18.0618 17.627 16.4683 19.0019C14.8741 20.3773 13.0685 21.2208 12.1903 21.5822L11.9999 21.6606L11.8095 21.5822C10.9326 21.2208 9.12694 20.3779 7.53253 19.0027C5.93871 17.628 4.5 15.6702 4.5 13.0887V4.78345V4.40126L4.8688 4.30097L11.8688 2.3974L12 2.36172ZM5.5 5.16564V13.0887C5.5 15.2643 6.70676 16.9699 8.18566 18.2454C9.3271 19.2299 10.5974 19.9277 11.5001 20.3525L11.5 3.53401L5.5 5.16564ZM12.5 3.53401L12.5001 20.3526C13.4031 19.9278 14.6736 19.2296 15.815 18.2448C17.2937 16.969 18.5 15.2634 18.5 13.0887V5.16564L12.5 3.53401Z" fill="#C7C7C7"/>
</svg>
