<svg width="24" height="24" viewBox="0 0 24 24" fill="none" xmlns="http://www.w3.org/2000/svg">
<path fill-rule="evenodd" clip-rule="evenodd" d="M17.848 4.36364L21.8182 7.09091L21.7888 10.9091H24V13.0909H21.2727C20.3748 13.0909 19.6364 12.2874 19.6364 11.3719L19.6353 8.91055L15.4276 14.5211L19.0682 17.1601C19.3415 17.3488 19.5196 17.6187 19.5947 17.9228C19.6251 18.0462 19.635 18.1283 19.637 18.2378L19.6364 24H17.4545V18.6902L10.8563 13.9102C10.1486 13.4187 9.99311 12.4435 10.5367 11.7622L12.5918 9.19925L12.9022 8.81127L13.6364 7.63636L14.7273 6.54545H12.9352L10.7739 9.13022L9.10011 7.73065L11.416 4.96229C11.7115 4.58006 12.1699 4.36364 12.6487 4.36364H17.848ZM12 16.3636V20.1818C12 21.0179 11.2203 21.8182 10.3744 21.8182H5.45455V19.6364H9.81818V16.3636H12ZM7.63636 14.1818V16.3636H3.27273V14.1818H7.63636ZM7.63636 10.9091V13.0909H0V10.9091H7.63636ZM7.63636 7.63636V9.81818H3.27273V7.63636H7.63636ZM21.8176 0C23.0227 0 24 0.976779 24 2.18182C24 3.38686 23.0227 4.36364 21.8176 4.36364C20.6135 4.36364 19.6364 3.38666 19.6364 2.18182C19.6364 0.976979 20.6135 0 21.8176 0Z" fill="#C7C7C7"/>
</svg>
