<svg width="24" height="24" viewBox="0 0 24 24" fill="none" xmlns="http://www.w3.org/2000/svg">
<path fill-rule="evenodd" clip-rule="evenodd" d="M13.1109 20.7272V22.909H10.889V20.7272H13.1109ZM18.1227 18.4192L19.4287 20.1843L17.6311 21.4668L16.3251 19.7016L18.1227 18.4192ZM5.87712 18.4192L7.67468 19.7016L6.36867 21.4668L4.57112 20.1843L5.87712 18.4192ZM11.9999 6.54537C15.0677 6.54537 17.5547 8.98745 17.5547 11.9999C17.5547 15.0124 15.0677 17.4545 11.9999 17.4545C8.9321 17.4545 6.44515 15.0124 6.44515 11.9999C6.44515 8.98745 8.9321 6.54537 11.9999 6.54537ZM20.7958 13.6593L22.909 14.3335L22.2224 16.4085L20.1092 15.7343L20.7958 13.6593ZM3.20398 13.6593L3.89058 15.7343L1.77743 16.4085L1.09082 14.3335L3.20398 13.6593ZM22.2224 7.5913L22.909 9.66633L20.7958 10.3406L20.1092 8.26552L22.2224 7.5913ZM1.77743 7.5913L3.89058 8.26552L3.20398 10.3406L1.09082 9.66633L1.77743 7.5913ZM17.6311 2.53305L19.4287 3.81549L18.1227 5.58062L16.3251 4.29818L17.6311 2.53305ZM6.36867 2.53305L7.67468 4.29818L5.87712 5.58062L4.57112 3.81549L6.36867 2.53305ZM13.1109 1.09082V3.27264H10.889V1.09082H13.1109Z" fill="#C7C7C7"/>
</svg>
