<svg width="24" height="24" viewBox="0 0 24 24" fill="none" xmlns="http://www.w3.org/2000/svg">
<path fill-rule="evenodd" clip-rule="evenodd" d="M10.9091 2.18164L13.0909 21.818H7.63636V5.45437C7.63636 3.71144 8.99882 2.28674 10.7168 2.1872L10.9091 2.18164ZM18.5455 15.2726V21.818H13.0909L13.8185 15.2726H18.5455ZM24 10.9089V13.0907H14.1818C13.8182 12.7271 13.6364 12.3635 13.6364 11.9998C13.6364 11.6362 13.8182 11.2725 14.1818 10.9089H24ZM5.45455 10.9089V13.0907H0V10.9089H5.45455ZM15.2727 2.18164L15.465 2.1872C17.1194 2.28305 18.444 3.60773 18.5399 5.26207L18.5455 5.45437V8.7271H14.5451L15.2727 2.18164Z" fill="#C7C7C7"/>
</svg>
