<svg xmlns="http://www.w3.org/2000/svg" width="24" height="24" style="background:#181818" viewBox="0 0 24 24">
    <g fill="none" fill-rule="evenodd">
        <path fill="#EA5949" d="M5.237 12A6.772 6.772 0 0 0 12 18.764 6.77 6.77 0 0 0 18.763 12 6.77 6.77 0 0 0 12 5.238 6.77 6.77 0 0 0 5.237 12zM12 3c4.962 0 9 4.038 9 9 0 4.964-4.038 9-9 9-4.963 0-9-4.036-9-9 0-4.962 4.037-9 9-9zm.677 12.359c-.357-.35-.997-.35-1.354 0a.965.965 0 0 0 0 1.36c.179.179.428.281.677.281a.968.968 0 0 0 .677-.28.969.969 0 0 0 .28-.677.975.975 0 0 0-.28-.684zM12 7a.958.958 0 0 0-.958.958v5.193a.958.958 0 0 0 1.916 0V7.958c0-.53-.43-.958-.958-.958z"/>
    </g>
</svg>
