<svg width="24" height="24" viewBox="0 0 24 24" fill="none" xmlns="http://www.w3.org/2000/svg">
<path d="M23 14.2749V9.72662L19.8447 9.24125C19.744 8.95511 19.6286 8.67742 19.4978 8.4059L21.3862 5.8306L18.1694 2.61456L15.5941 4.50295C15.3233 4.37219 15.0457 4.25681 14.7587 4.15527L14.2734 1H9.72585L9.24048 4.15527C8.95357 4.25604 8.67589 4.37219 8.40513 4.50219L5.8306 2.61379L2.61533 5.82983L4.50372 8.40513C4.37296 8.67589 4.25758 8.95357 4.15681 9.23971L1 9.72585V14.2734L4.15681 14.7587C4.25758 15.0441 4.37296 15.3218 4.50219 15.5926L2.61379 18.1702L5.82906 21.3862L8.4059 19.4963C8.67666 19.6263 8.95434 19.7417 9.23971 19.8432L9.72508 23H14.2742L14.7595 19.844C15.0449 19.7432 15.3226 19.6278 15.5933 19.4978L18.1702 21.387L21.3854 18.1709L19.497 15.5956C19.6278 15.3241 19.7432 15.0464 19.844 14.7603L23 14.2749ZM11.9996 16.551C9.48586 16.551 7.44901 14.5118 7.44901 11.9988C7.44901 9.48432 9.48586 7.4467 12.0012 7.44593C14.5149 7.4467 16.5518 9.48432 16.5518 11.9981C16.5518 14.5134 14.5149 16.5518 11.9996 16.551Z" fill="#C7C7C7"/>
</svg>
