<?xml version="1.0" encoding="UTF-8"?>
<svg width="96px" height="96px" viewBox="0 0 96 96" version="1.1" xmlns="http://www.w3.org/2000/svg" xmlns:xlink="http://www.w3.org/1999/xlink">
    <!-- Generator: Sketch 62 (91390) - https://sketch.com -->
    <title>Layer / Shapes / a.Logo</title>
    <desc>Created with Sketch.</desc>
    <g id="Symbols" stroke="none" stroke-width="1" fill="none" fill-rule="evenodd">
        <g id="Artboard" fill="#FFFFFF">
            <g id="Layer-/-Shapes-/-a.Logo">
                <g id="Atom-/-Graphics-/-Logo-/-logo_pro" transform="translate(19.500000, 25.500000)">
                    <path d="M44.1863767,33 C47.3163192,33 49.5,35.3639503 49.5,38.25 C49.5,41.1070442 47.2872035,43.5 44.157261,43.5 C41.0273185,43.5 38.8436377,41.1360497 38.8436377,38.25 C38.8436377,35.3929558 41.0564342,33 44.1863767,33 Z M13.0179727,33.1740331 C15.3909058,33.1740331 16.8903666,34.5227901 16.8903666,36.5966851 C16.8903666,38.8736188 15.0560748,40.0628453 12.8141625,40.0628453 L10.7906183,40.0628453 L10.7906183,43.3259669 L9,43.3259669 L9,33.1740331 L13.0179727,33.1740331 Z M28.5075485,33.1740331 C30.8950395,33.1740331 32.2925953,34.4502762 32.2925953,36.4081492 C32.2925953,38.0759669 31.2881021,39.0766575 29.8614306,39.4827348 L32.6128684,43.3259669 L30.501977,43.3259669 L27.9689073,39.7872928 L25.7561107,39.7872928 L25.7561107,43.3259669 L23.9654925,43.3259669 L23.9654925,33.1740331 L28.5075485,33.1740331 Z M44.157261,34.6388122 C42.1337168,34.6388122 40.7216032,36.2486188 40.7216032,38.25 C40.7216032,40.2223757 42.1628325,41.8611878 44.1863767,41.8611878 C46.2099209,41.8611878 47.6220345,40.2513812 47.6220345,38.25 C47.6220345,36.2776243 46.1808052,34.6388122 44.157261,34.6388122 Z M12.872394,34.7983425 L10.7906183,34.7983425 L10.7906183,38.4530387 L12.872394,38.4530387 C14.2262761,38.4530387 15.0706326,37.698895 15.0706326,36.6111878 C15.0706326,35.4219613 14.2117182,34.7983425 12.872394,34.7983425 Z M28.3619698,34.7983425 L25.7561107,34.7983425 L25.7561107,38.2064917 L28.3765277,38.2064917 C29.6576204,38.2064917 30.4728613,37.5393646 30.4728613,36.480663 C30.4728613,35.3929558 29.6867362,34.7983425 28.3619698,34.7983425 Z M0,0 L4.81641671,1.24941573 L5.74018778,9.05262846 L26.6058733,18.0731296 L26.6058733,24 L1.35038406,10.7253794 L0,0 Z M57,0 L55.7792106,10.7253794 L30.5703246,24 L30.5703246,18.0731296 L51.3764996,9.05262846 L52.1821253,1.24941573 L57,0 Z M48.8068006,2.13333333 L48.4292182,7.49871982 L28.6470687,14.9333333 L8.80594937,7.49871982 L8.36939722,2.13333333 L28.6470687,7.38750353 L48.8068006,2.13333333 Z" id="Combined-Shape" fill-rule="nonzero"></path>
                </g>
            </g>
        </g>
    </g>
</svg>