<svg width="15" height="16" viewBox="0 0 15 16" fill="none" xmlns="http://www.w3.org/2000/svg">
<path fill-rule="evenodd" clip-rule="evenodd" d="M7.50028 2.08175C8.93301 3.62238 10.8084 4.68306 12.8668 5.11716V5.20607C12.8668 8.96453 10.8949 12.4474 7.67207 14.3812L7.50036 14.4842L7.32852 14.3811C4.10555 12.4474 2.1335 8.96441 2.1335 5.20584V5.11715C4.19201 4.68304 6.06744 3.62237 7.50028 2.08175ZM8.34093 15.4959L7.50038 16.0002L6.65969 15.4958C3.04514 13.3272 0.833496 9.42106 0.833496 5.20584V4.00024C3.09045 3.79504 5.17288 2.73881 6.66865 1.06442L6.69534 1.03442C6.87516 0.831278 7.0464 0.619142 7.2083 0.398418L7.41835 0.112076L7.47573 0.0338504C7.48794 0.0171973 7.51282 0.0172001 7.52503 0.0338558L7.58239 0.112093L7.79152 0.397311C7.95367 0.618463 8.12518 0.830997 8.30531 1.0345L8.33197 1.06448C9.8276 2.73885 11.9099 3.79508 14.1668 4.00024V5.20607C14.1668 9.42116 11.9553 13.3272 8.34093 15.4959ZM5.75979 7.55466L7.0072 8.80207L9.96165 5.84763L10.8809 6.76686L7.46682 10.1809L7.0072 10.6405L6.54758 10.1809L4.84055 8.4739L5.75979 7.55466Z" fill="#ADF75E"/>
</svg>
