<svg width="15" height="16" viewBox="0 0 15 16" fill="none" xmlns="http://www.w3.org/2000/svg">
<path fill-rule="evenodd" clip-rule="evenodd" d="M12.8668 5.11716C10.8084 4.68306 8.93301 3.62238 7.50028 2.08175C6.06744 3.62237 4.19201 4.68304 2.1335 5.11715V5.20584C2.1335 8.96441 4.10555 12.4474 7.32852 14.3811L7.50036 14.4842L7.67207 14.3812C10.8949 12.4474 12.8668 8.96453 12.8668 5.20607V5.11716ZM7.50038 16.0002L8.34093 15.4959C11.9553 13.3272 14.1668 9.42116 14.1668 5.20607V4.00024C11.9099 3.79508 9.8276 2.73885 8.33197 1.06448L8.30531 1.0345C8.12518 0.830997 7.95367 0.618463 7.79152 0.397311L7.58239 0.112093L7.52503 0.0338558C7.51282 0.0172001 7.48794 0.0171973 7.47573 0.0338504L7.41835 0.112076L7.2083 0.398418C7.0464 0.619142 6.87516 0.831278 6.69534 1.03442L6.66865 1.06442C5.17288 2.73881 3.09045 3.79504 0.833496 4.00024V5.20584C0.833496 9.42106 3.04514 13.3272 6.65969 15.4958L7.50038 16.0002ZM5.51683 10.6666V5.99995H6.81683V10.6666H5.51683ZM8.1835 5.99995V10.6666H9.4835V5.99995H8.1835Z" fill="#ADADAD"/>
</svg>
