<?xml version="1.0" encoding="UTF-8"?>
<svg width="40px" height="40px" viewBox="0 0 40 40" version="1.1" xmlns="http://www.w3.org/2000/svg" xmlns:xlink="http://www.w3.org/1999/xlink">
    <!-- Generator: Sketch 61.2 (89653) - https://sketch.com -->
    <title>Cell / a.PlaceholderIcon</title>
    <desc>Created with Sketch.</desc>
    <g id="2.-Company" stroke="none" stroke-width="1" fill="none" fill-rule="evenodd">
        <g id="Artboard" transform="translate(-8.000000, -8.000000)" fill="#F7F7F7" fill-rule="nonzero">
            <g id="Navigation-/-m.PrimaryNavigationItem">
                <g id="Icon-/-Category-/-CompanyInfo" transform="translate(8.000000, 8.000000)">
                    <path d="M26.7499481,31.9999237 C27.9921327,31.9999237 28.9999428,30.9921136 28.9999428,29.7499291 L28.9999428,13.2499684 C28.9999428,12.0077839 27.9921327,10.9999809 26.7499481,10.9999809 L22.9999571,10.9999809 C22.9999571,9.34529937 21.6546386,7.99998093 19.9999642,7.99998093 C18.3452898,7.99998093 16.9999714,9.34529937 16.9999714,10.9999809 L13.2499803,10.9999809 C12.0077958,10.9999809 10.9999857,12.0077839 10.9999857,13.2499684 L10.9999857,29.7499291 C10.9999857,30.9921136 12.0077958,31.9999237 13.2499803,31.9999237 L26.7499481,31.9999237 Z M19.9999642,12.1249711 C19.3765374,12.1249711 18.8749669,11.6234006 18.8749669,10.9999738 C18.8749669,10.3765469 19.3765374,9.87497646 19.9999642,9.87497646 C20.6233911,9.87497646 21.1249616,10.3765469 21.1249616,10.9999738 C21.1249616,11.6234006 20.6233911,12.1249711 19.9999642,12.1249711 Z M15.499975,18.874955 C14.8765481,18.874955 14.3749776,18.3733845 14.3749776,17.7499577 C14.3749776,17.1265308 14.8765481,16.6249604 15.499975,16.6249604 C16.1234018,16.6249604 16.6249723,17.1265308 16.6249723,17.7499577 C16.6249723,18.3733845 16.1234018,18.874955 15.499975,18.874955 Z M25.6249508,18.4999595 L18.8749669,18.4999595 C18.6686991,18.4999595 18.4999678,18.3312246 18.4999678,18.1249568 L18.4999678,17.3749586 C18.4999678,17.1686908 18.6686991,16.9999595 18.8749669,16.9999595 L25.6249508,16.9999595 C25.8312186,16.9999595 25.9999499,17.1686908 25.9999499,17.3749586 L25.9999499,18.1249568 C25.9999499,18.3312246 25.8312186,18.4999595 25.6249508,18.4999595 Z M15.499975,23.3749443 C14.8765481,23.3749443 14.3749776,22.8733738 14.3749776,22.249947 C14.3749776,21.6265201 14.8765481,21.1249496 15.499975,21.1249496 C16.1234018,21.1249496 16.6249723,21.6265201 16.6249723,22.249947 C16.6249723,22.8733738 16.1234018,23.3749443 15.499975,23.3749443 Z M25.6249508,22.9999487 L18.8749669,22.9999487 C18.6686991,22.9999487 18.4999678,22.8312139 18.4999678,22.6249461 L18.4999678,21.8749478 C18.4999678,21.66868 18.6686991,21.4999487 18.8749669,21.4999487 L25.6249508,21.4999487 C25.8312186,21.4999487 25.9999499,21.66868 25.9999499,21.8749478 L25.9999499,22.6249461 C25.9999499,22.8312139 25.8312186,22.9999487 25.6249508,22.9999487 Z M15.499975,27.8749335 C14.8765481,27.8749335 14.3749776,27.3733631 14.3749776,26.7499362 C14.3749776,26.1265094 14.8765481,25.6249389 15.499975,25.6249389 C16.1234018,25.6249389 16.6249723,26.1265094 16.6249723,26.7499362 C16.6249723,27.3733631 16.1234018,27.8749335 15.499975,27.8749335 Z M25.6249508,27.499938 L18.8749669,27.499938 C18.6686991,27.499938 18.4999678,27.3312031 18.4999678,27.1249353 L18.4999678,26.3749371 C18.4999678,26.1686693 18.6686991,25.999938 18.8749669,25.999938 L25.6249508,25.999938 C25.8312186,25.999938 25.9999499,26.1686693 25.9999499,26.3749371 L25.9999499,27.1249353 C25.9999499,27.3312031 25.8312186,27.499938 25.6249508,27.499938 Z" id="companyinfo-icon"></path>
                </g>
            </g>
        </g>
    </g>
</svg>