<svg xmlns="http://www.w3.org/2000/svg" width="40" height="40" viewBox="0 0 40 40">
    <g fill="none" fill-rule="evenodd" transform="translate(-4 -4)">
        <circle cx="24" cy="24" r="19.5" stroke="#EA5949" opacity=".3"/>
        <path fill="#EA5949" fill-rule="nonzero" d="M40.047 12.063l-.802.597c-2.74-3.685-6.71-6.27-11.295-7.245l.208-.978c4.825 1.026 9.007 3.748 11.89 7.626zm3.388 16.658l-.972-.235.087-.374.044-.207c.924-4.396.267-8.88-1.789-12.77l.885-.468c2.163 4.096 2.855 8.817 1.883 13.445-.049.228-.091.417-.138.61zm-10.616 13.23l-.441-.897c4.134-2.034 7.413-5.501 9.18-9.787l.925.382c-1.861 4.512-5.312 8.161-9.664 10.303zm-17 .304l.409-.913c1.229.55 2.51.964 3.928 1.265 3.21.664 6.471.488 9.532-.475l.3.954c-3.222 1.014-6.656 1.199-10.037.5-1.49-.317-2.838-.753-4.132-1.331zM4.733 29.38l.963-.27c1.244 4.44 4.073 8.303 7.94 10.82l-.546.839c-4.071-2.65-7.048-6.716-8.357-11.39zm2.826-16.777l.822.57c-1.43 2.06-2.437 4.387-2.98 6.945-.427 2.045-.515 4.114-.271 6.146l-.993.12c-.256-2.14-.164-4.318.285-6.472.572-2.69 1.632-5.14 3.137-7.31zm14.644-8.527l.09.996c-4.602.413-8.903 2.508-12.08 5.85l-.724-.689c3.343-3.517 7.87-5.722 12.714-6.157zm5.909.351l-.206.979c-.882-.185-1.769-.308-2.656-.367l.067-.998c.934.063 1.867.191 2.795.386z"/>
        <path fill="#FF725C" fill-rule="nonzero" d="M28.062 31c.725 0 1.313-.588 1.313-1.313V20.5h.437c.242 0 .438-.196.438-.438v-.437c0-.242-.196-.438-.438-.438H27.56l-.93-1.55c-.19-.316-.617-.58-1-.629L25.503 17h-2.756c-.41 0-.915.285-1.126.637l-.93 1.55h-2.254c-.241 0-.437.196-.437.438v.437c0 .242.196.438.437.438h.438v9.187c0 .725.588 1.313 1.312 1.313h7.875zm-2.034-11.813h-3.806l.477-.795c.02-.033.06-.061.1-.073l.04-.007h2.571c.052 0 .115.036.141.08l.477.795zm2.034 10.5h-7.875V20.5h7.875v9.187zm-2.078-1.312c.181 0 .328-.147.328-.328V22.14c0-.182-.147-.329-.328-.329h-.656c-.181 0-.328.147-.328.329v5.906c0 .181.147.328.328.328h.656zm-3.062 0c.181 0 .328-.147.328-.328V22.14c0-.182-.147-.329-.328-.329h-.656c-.182 0-.329.147-.329.329v5.906c0 .181.147.328.329.328h.656z"/>
    </g>
</svg>
