<svg width="40" height="40" viewBox="0 0 40 40" fill="none" xmlns="http://www.w3.org/2000/svg">
<path d="M0 20C0 8.95431 8.95431 0 20 0C31.0457 0 40 8.95431 40 20C40 31.0457 31.0457 40 20 40C8.95431 40 0 31.0457 0 20Z" fill="#333333"/>
<path fill-rule="evenodd" clip-rule="evenodd" d="M21 12.2V13.2V13.3334V14.3334H19V13.3334V13.2V12.2H21ZM21 18.9333V19.9333V20.0667V21.0667H19V20.0667V19.9333V18.9333H21ZM21 26.6665V25.6665H19V26.6665L19 26.7999L19 27.7999H21L21 26.7999L21 26.6665Z" fill="#DBDBDB"/>
</svg>
