<svg xmlns="http://www.w3.org/2000/svg" width="24" height="24" style="background:#181818" viewBox="0 0 24 24">
    <g fill="none" fill-rule="evenodd">
        <path fill="none" d="M0 0h24v24H0z"/>
        <path fill="#303030" d="M3 12a9 9 0 1 1 18 0 9 9 0 0 1-18 0zm9-7a7 7 0 0 1 7 7 7 7 0 0 1-7 7 7 7 0 0 1-7-7 7 7 0 0 1 7-7zm0 3.063c-1.78 0-3.268 1.19-3.754 2.812h1.179A2.81 2.81 0 0 1 14.812 12a2.812 2.812 0 0 1-5.387 1.125h-1.18c.487 1.622 1.974 2.813 3.755 2.813a3.937 3.937 0 1 0 0-7.876z"/>
    </g>
</svg>
