<?xml version="1.0" encoding="UTF-8"?>
<svg width="16px" height="16px" viewBox="0 0 16 16" version="1.1" xmlns="http://www.w3.org/2000/svg" xmlns:xlink="http://www.w3.org/1999/xlink">
    <!-- Generator: sketchtool 64 (101010) - https://sketch.com -->
    <title>8B0E3D6B-0CCA-4BBA-B55F-EF1FC6A07A80</title>
    <desc>Created with sketchtool.</desc>
    <g id="Symbols" stroke="none" stroke-width="1" fill="none" fill-rule="evenodd">
        <g id="Icon-/-Mini-/-Gear" fill="#5AE4AA">
            <path d="M8.8944,1.058275 C8.2958,0.980575 7.6898,0.980575 7.0912,1.058275 C7.1989,1.887275 6.8643,2.456075 6.0873,2.764675 C5.2938,3.027675 4.6718,2.807075 4.2214,2.102775 C3.7129,2.427975 3.2487,2.817575 2.8401,3.261875 C3.4555,3.827675 3.5648,4.478575 3.1679,5.214375 C2.7291,5.925875 2.1109,6.156675 1.3131,5.906675 C1.1326,6.482675 1.0274,7.079475 1,7.682475 C1.8351,7.720375 2.3372,8.148675 2.5061,8.967375 C2.6274,9.794575 2.3021,10.368775 1.5303,10.690075 C1.7623,11.247275 2.0653,11.772175 2.4319,12.251575 C3.096,11.743875 3.7559,11.749275 4.4116,12.267875 C5.0362,12.823575 5.1561,13.472475 4.7714,14.214675 C5.3073,14.492475 5.8768,14.699775 6.4658,14.831375 C6.6482,14.015575 7.1572,13.595475 7.9928,13.571275 C8.8284,13.595475 9.3374,14.015575 9.5198,14.831375 C10.1088,14.699775 10.6783,14.492475 11.2142,14.214675 C10.8295,13.472475 10.9494,12.823575 11.574,12.267875 C12.2297,11.749275 12.8896,11.743875 13.5537,12.251575 C13.9203,11.772175 14.2233,11.247275 14.4553,10.690075 C13.6835,10.368775 13.3582,9.794575 13.4795,8.967375 C13.6484,8.148675 14.1505,7.720375 14.9856,7.682475 C14.9582,7.079475 14.853,6.482675 14.6725,5.906675 C13.8747,6.156675 13.2565,5.925875 12.8177,5.214375 C12.4208,4.478575 12.5301,3.827675 13.1455,3.261875 C12.7369,2.817575 12.2727,2.427975 11.7642,2.102775 C11.3138,2.807075 10.6918,3.027675 9.8983,2.764675 C9.1213,2.456075 8.7867,1.887275 8.8944,1.058275 Z M7.9928,3.866475 C10.2741,3.866475 12.1263,5.718675 12.1263,7.999975 C12.1263,10.281275 10.2741,12.133475 7.9928,12.133475 C5.7115,12.133475 3.8593,10.281275 3.8593,7.999975 C3.8593,5.718675 5.7115,3.866475 7.9928,3.866475 Z" id="Fill-1"></path>
        </g>
    </g>
</svg>