<svg width="136" height="136" viewBox="0 0 136 136" fill="none" xmlns="http://www.w3.org/2000/svg">
<path d="M0 68C0 30.4446 30.4446 0 68 0V0C105.555 0 136 30.4446 136 68V68C136 105.555 105.555 136 68 136V136C30.4446 136 0 105.555 0 68V68Z" fill="#303030"/>
<path d="M28 48L81 48" stroke="#DBDBDB" stroke-width="1.5"/>
<path fill-rule="evenodd" clip-rule="evenodd" d="M94.9075 42.0357C95.5558 41.997 96.2033 42.0001 96.8515 42.0001C96.856 42.0001 100.136 42.0001 100.136 42.0001C100.797 42.0001 101.445 41.997 102.093 42.0357C102.682 42.0705 103.255 42.1448 103.826 42.3109C105.029 42.6601 106.078 43.3894 106.837 44.4233C107.592 45.4507 108 46.7083 108 47.9997C108 49.2926 107.592 50.5495 106.837 51.5769C106.078 52.6104 105.029 53.3401 103.826 53.6893C103.255 53.8553 102.682 53.9293 102.093 53.9645C101.445 54.0032 100.797 53.9997 100.149 53.9997C100.144 53.9997 96.8634 54.0001 96.8634 54.0001C96.2033 53.9997 95.5558 54.0032 94.9075 53.9645C94.3189 53.9293 93.7452 53.8553 93.1741 53.6893C91.9718 53.3401 90.922 52.6104 90.1631 51.5769C89.4087 50.5495 89 49.2926 89 48.0001C89 46.7083 89.4087 45.4507 90.1631 44.4233C90.922 43.3894 91.9718 42.6601 93.1741 42.3109C93.7452 42.1448 94.3189 42.0705 94.9075 42.0357Z" fill="#DBDBDB"/>
<path fill-rule="evenodd" clip-rule="evenodd" d="M102 53C104.761 53 107 50.7614 107 48C107 45.2386 104.761 43 102 43C99.2386 43 97 45.2386 97 48C97 50.7614 99.2386 53 102 53Z" fill="#303030"/>
<path d="M28 68L64 68" stroke="#DBDBDB" stroke-width="1.5"/>
<path fill-rule="evenodd" clip-rule="evenodd" d="M94.9075 62.0357C95.5558 61.997 96.2033 62.0001 96.8515 62.0001C96.856 62.0001 100.136 62.0001 100.136 62.0001C100.797 62.0001 101.445 61.997 102.093 62.0357C102.682 62.0705 103.255 62.1448 103.826 62.3109C105.029 62.6601 106.078 63.3894 106.837 64.4233C107.592 65.4507 108 66.7083 108 67.9997C108 69.2926 107.592 70.5495 106.837 71.5769C106.078 72.6104 105.029 73.3401 103.826 73.6893C103.255 73.8553 102.682 73.9293 102.093 73.9645C101.445 74.0032 100.797 73.9997 100.149 73.9997C100.144 73.9997 96.8634 74.0001 96.8634 74.0001C96.2033 73.9997 95.5558 74.0032 94.9075 73.9645C94.3189 73.9293 93.7452 73.8553 93.1741 73.6893C91.9718 73.3401 90.922 72.6104 90.1631 71.5769C89.4087 70.5495 89 69.2926 89 68.0001C89 66.7083 89.4087 65.4507 90.1631 64.4233C90.922 63.3894 91.9718 62.6601 93.1741 62.3109C93.7452 62.1448 94.3189 62.0705 94.9075 62.0357Z" fill="#DBDBDB"/>
<path fill-rule="evenodd" clip-rule="evenodd" d="M102 73C104.761 73 107 70.7614 107 68C107 65.2386 104.761 63 102 63C99.2386 63 97 65.2386 97 68C97 70.7614 99.2386 73 102 73Z" fill="#303030"/>
<path d="M28 88.0001L71 88.0001" stroke="#DBDBDB" stroke-width="1.5"/>
<path fill-rule="evenodd" clip-rule="evenodd" d="M94.9075 82.0357C95.5558 81.997 96.2033 82.0001 96.8515 82.0001C96.856 82.0001 100.136 82.0001 100.136 82.0001C100.797 82.0001 101.445 81.997 102.093 82.0357C102.682 82.0705 103.255 82.1448 103.826 82.3109C105.029 82.6601 106.078 83.3894 106.837 84.4233C107.592 85.4507 108 86.7083 108 87.9997C108 89.2926 107.592 90.5495 106.837 91.5769C106.078 92.6104 105.029 93.3401 103.826 93.6893C103.255 93.8553 102.682 93.9293 102.093 93.9645C101.445 94.0032 100.797 93.9997 100.149 93.9997C100.144 93.9997 96.8634 94.0001 96.8634 94.0001C96.2033 93.9997 95.5558 94.0032 94.9075 93.9645C94.3189 93.9293 93.7452 93.8553 93.1741 93.6893C91.9718 93.3401 90.922 92.6104 90.1631 91.5769C89.4087 90.5495 89 89.2926 89 88.0001C89 86.7083 89.4087 85.4507 90.1631 84.4233C90.922 83.3894 91.9718 82.6601 93.1741 82.3109C93.7452 82.1448 94.3189 82.0705 94.9075 82.0357Z" fill="#DBDBDB"/>
<path fill-rule="evenodd" clip-rule="evenodd" d="M102 93C104.761 93 107 90.7614 107 88C107 85.2386 104.761 83 102 83C99.2386 83 97 85.2386 97 88C97 90.7614 99.2386 93 102 93Z" fill="#303030"/>
</svg>
