<svg width="24" height="24" viewBox="0 0 24 24" fill="none" xmlns="http://www.w3.org/2000/svg">
<path d="M0 12C0 5.37258 5.37258 0 12 0C18.6274 0 24 5.37258 24 12C24 18.6274 18.6274 24 12 24C5.37258 24 0 18.6274 0 12Z" fill="#5AE4AA"/>
<path fill-rule="evenodd" clip-rule="evenodd" d="M8.22307 16.1954H6.14648V15.6523L7.56544 14.2743V10.5296C7.56544 8.39073 8.85771 6.66658 10.9038 6.18245V5.70083C10.9038 5.1498 11.3954 4.6665 11.9598 4.6665C12.523 4.6665 13.0159 5.1498 13.0159 5.70083V6.18245C14.3425 6.49601 15.3856 7.33133 15.9554 8.46306C16.2639 9.0768 16.4341 9.77749 16.4341 10.5296V14.2743L17.8526 15.6523V16.1954H8.22307Z" stroke="black" stroke-width="1.3"/>
<path fill-rule="evenodd" clip-rule="evenodd" d="M10.2764 18.1599C10.2764 19.0728 11.0626 19.7178 12.046 19.7178C13.0139 19.7178 13.7246 19.0837 13.7246 18.1599V17.9653H10.2764V18.1599Z" fill="black"/>
</svg>
