<svg width="375" height="166" viewBox="0 0 375 166" fill="none" xmlns="http://www.w3.org/2000/svg">
<path d="M159 54H115C113.895 54 113 54.8954 113 56V92M215 54H260C261.105 54 262 54.8954 262 56V138C262 139.104 261.105 140 260 140H238M113 110V138C113 139.104 113.895 140 115 140H137M174 140H201" stroke="#DBDBDB" stroke-width="1.5"/>
<path fill-rule="evenodd" clip-rule="evenodd" d="M188.115 16H207L215 22V78L207 85H188.578H167L159 78V22L167 16H188.115Z" stroke="#DBDBDB" stroke-width="1.5"/>
<path d="M159 22L176 75L167 85" stroke="#DBDBDB" stroke-width="1.5"/>
<path d="M215 22L198 75L207 85" stroke="#DBDBDB" stroke-width="1.5"/>
<path fill-rule="evenodd" clip-rule="evenodd" d="M179 72V69H195V72H179Z" fill="#DBDBDB"/>
<path d="M176 75H198" stroke="#DBDBDB" stroke-width="1.5"/>
<path d="M183 16L185.128 20H188.867L191 16" stroke="#DBDBDB" stroke-width="1.5"/>
<path d="M183 85L185.128 81H188.867L191 85" stroke="#DBDBDB" stroke-width="1.5"/>
<path d="M226.117 48.0801V49H220.34V48.0801H226.117ZM225.93 41.2891L220.609 49H219.912V48.1562L225.227 40.4688H225.93V41.2891ZM225.449 40.4688V41.3945H219.988V40.4688H225.449Z" fill="#DBDBDB"/>
<path d="M134.363 45.2871H135.488C135.43 45.8262 135.275 46.3086 135.025 46.7344C134.775 47.1602 134.422 47.498 133.965 47.748C133.508 47.9941 132.938 48.1172 132.254 48.1172C131.754 48.1172 131.299 48.0234 130.889 47.8359C130.482 47.6484 130.133 47.3828 129.84 47.0391C129.547 46.6914 129.32 46.2754 129.16 45.791C129.004 45.3027 128.926 44.7598 128.926 44.1621V43.3125C128.926 42.7148 129.004 42.1738 129.16 41.6895C129.32 41.2012 129.549 40.7832 129.846 40.4355C130.146 40.0879 130.508 39.8203 130.93 39.6328C131.352 39.4453 131.826 39.3516 132.354 39.3516C132.998 39.3516 133.543 39.4727 133.988 39.7148C134.434 39.957 134.779 40.293 135.025 40.7227C135.275 41.1484 135.43 41.6426 135.488 42.2051H134.363C134.309 41.8066 134.207 41.4648 134.059 41.1797C133.91 40.8906 133.699 40.668 133.426 40.5117C133.152 40.3555 132.795 40.2773 132.354 40.2773C131.975 40.2773 131.641 40.3496 131.352 40.4941C131.066 40.6387 130.826 40.8438 130.631 41.1094C130.439 41.375 130.295 41.6934 130.197 42.0645C130.1 42.4355 130.051 42.8477 130.051 43.3008V44.1621C130.051 44.5801 130.094 44.9727 130.18 45.3398C130.27 45.707 130.404 46.0293 130.584 46.3066C130.764 46.584 130.992 46.8027 131.27 46.9629C131.547 47.1191 131.875 47.1973 132.254 47.1973C132.734 47.1973 133.117 47.1211 133.402 46.9688C133.688 46.8164 133.902 46.5977 134.047 46.3125C134.195 46.0273 134.301 45.6855 134.363 45.2871ZM143.598 43.4648V44.0039C143.598 44.6445 143.518 45.2188 143.357 45.7266C143.197 46.2344 142.967 46.666 142.666 47.0215C142.365 47.377 142.004 47.6484 141.582 47.8359C141.164 48.0234 140.695 48.1172 140.176 48.1172C139.672 48.1172 139.209 48.0234 138.787 47.8359C138.369 47.6484 138.006 47.377 137.697 47.0215C137.393 46.666 137.156 46.2344 136.988 45.7266C136.82 45.2188 136.736 44.6445 136.736 44.0039V43.4648C136.736 42.8242 136.818 42.252 136.982 41.748C137.15 41.2402 137.387 40.8086 137.691 40.4531C137.996 40.0938 138.357 39.8203 138.775 39.6328C139.197 39.4453 139.66 39.3516 140.164 39.3516C140.684 39.3516 141.152 39.4453 141.57 39.6328C141.992 39.8203 142.354 40.0938 142.654 40.4531C142.959 40.8086 143.191 41.2402 143.352 41.748C143.516 42.252 143.598 42.8242 143.598 43.4648ZM142.479 44.0039V43.4531C142.479 42.9453 142.426 42.4961 142.32 42.1055C142.219 41.7148 142.068 41.3867 141.869 41.1211C141.67 40.8555 141.426 40.6543 141.137 40.5176C140.852 40.3809 140.527 40.3125 140.164 40.3125C139.812 40.3125 139.494 40.3809 139.209 40.5176C138.928 40.6543 138.686 40.8555 138.482 41.1211C138.283 41.3867 138.129 41.7148 138.02 42.1055C137.91 42.4961 137.855 42.9453 137.855 43.4531V44.0039C137.855 44.5156 137.91 44.9688 138.02 45.3633C138.129 45.7539 138.285 46.084 138.488 46.3535C138.695 46.6191 138.939 46.8203 139.221 46.957C139.506 47.0938 139.824 47.1621 140.176 47.1621C140.543 47.1621 140.869 47.0938 141.154 46.957C141.439 46.8203 141.68 46.6191 141.875 46.3535C142.074 46.084 142.225 45.7539 142.326 45.3633C142.428 44.9688 142.479 44.5156 142.479 44.0039ZM145.648 39.4688H146.744L149.539 46.4238L152.328 39.4688H153.43L149.961 48H149.105L145.648 39.4688ZM145.291 39.4688H146.258L146.416 44.6719V48H145.291V39.4688ZM152.814 39.4688H153.781V48H152.656V44.6719L152.814 39.4688Z" fill="#DBDBDB"/>
<path d="M124.6 103.844C124.6 103.645 124.568 103.469 124.506 103.316C124.447 103.16 124.342 103.02 124.189 102.895C124.041 102.77 123.834 102.65 123.568 102.537C123.307 102.424 122.975 102.309 122.572 102.191C122.15 102.066 121.77 101.928 121.43 101.775C121.09 101.619 120.799 101.441 120.557 101.242C120.314 101.043 120.129 100.814 120 100.557C119.871 100.299 119.807 100.004 119.807 99.6719C119.807 99.3398 119.875 99.0332 120.012 98.752C120.148 98.4707 120.344 98.2266 120.598 98.0195C120.855 97.8086 121.162 97.6445 121.518 97.5273C121.873 97.4102 122.27 97.3516 122.707 97.3516C123.348 97.3516 123.891 97.4746 124.336 97.7207C124.785 97.9629 125.127 98.2812 125.361 98.6758C125.596 99.0664 125.713 99.4844 125.713 99.9297H124.588C124.588 99.6094 124.52 99.3262 124.383 99.0801C124.246 98.8301 124.039 98.6348 123.762 98.4941C123.484 98.3496 123.133 98.2773 122.707 98.2773C122.305 98.2773 121.973 98.3379 121.711 98.459C121.449 98.5801 121.254 98.7441 121.125 98.9512C121 99.1582 120.938 99.3945 120.938 99.6602C120.938 99.8398 120.975 100.004 121.049 100.152C121.127 100.297 121.246 100.432 121.406 100.557C121.57 100.682 121.777 100.797 122.027 100.902C122.281 101.008 122.584 101.109 122.936 101.207C123.42 101.344 123.838 101.496 124.189 101.664C124.541 101.832 124.83 102.021 125.057 102.232C125.287 102.439 125.457 102.676 125.566 102.941C125.68 103.203 125.736 103.5 125.736 103.832C125.736 104.18 125.666 104.494 125.525 104.775C125.385 105.057 125.184 105.297 124.922 105.496C124.66 105.695 124.346 105.85 123.979 105.959C123.615 106.064 123.209 106.117 122.76 106.117C122.365 106.117 121.977 106.062 121.594 105.953C121.215 105.844 120.869 105.68 120.557 105.461C120.248 105.242 120 104.973 119.812 104.652C119.629 104.328 119.537 103.953 119.537 103.527H120.662C120.662 103.82 120.719 104.072 120.832 104.283C120.945 104.49 121.1 104.662 121.295 104.799C121.494 104.936 121.719 105.037 121.969 105.104C122.223 105.166 122.486 105.197 122.76 105.197C123.154 105.197 123.488 105.143 123.762 105.033C124.035 104.924 124.242 104.768 124.383 104.564C124.527 104.361 124.6 104.121 124.6 103.844ZM130.459 97.4219V106H129.375V98.7754L127.189 99.5723V98.5938L130.289 97.4219H130.459Z" fill="#DBDBDB"/>
<path d="M217.6 103.844C217.6 103.645 217.568 103.469 217.506 103.316C217.447 103.16 217.342 103.02 217.189 102.895C217.041 102.77 216.834 102.65 216.568 102.537C216.307 102.424 215.975 102.309 215.572 102.191C215.15 102.066 214.77 101.928 214.43 101.775C214.09 101.619 213.799 101.441 213.557 101.242C213.314 101.043 213.129 100.814 213 100.557C212.871 100.299 212.807 100.004 212.807 99.6719C212.807 99.3398 212.875 99.0332 213.012 98.752C213.148 98.4707 213.344 98.2266 213.598 98.0195C213.855 97.8086 214.162 97.6445 214.518 97.5273C214.873 97.4102 215.27 97.3516 215.707 97.3516C216.348 97.3516 216.891 97.4746 217.336 97.7207C217.785 97.9629 218.127 98.2812 218.361 98.6758C218.596 99.0664 218.713 99.4844 218.713 99.9297H217.588C217.588 99.6094 217.52 99.3262 217.383 99.0801C217.246 98.8301 217.039 98.6348 216.762 98.4941C216.484 98.3496 216.133 98.2773 215.707 98.2773C215.305 98.2773 214.973 98.3379 214.711 98.459C214.449 98.5801 214.254 98.7441 214.125 98.9512C214 99.1582 213.938 99.3945 213.938 99.6602C213.938 99.8398 213.975 100.004 214.049 100.152C214.127 100.297 214.246 100.432 214.406 100.557C214.57 100.682 214.777 100.797 215.027 100.902C215.281 101.008 215.584 101.109 215.936 101.207C216.42 101.344 216.838 101.496 217.189 101.664C217.541 101.832 217.83 102.021 218.057 102.232C218.287 102.439 218.457 102.676 218.566 102.941C218.68 103.203 218.736 103.5 218.736 103.832C218.736 104.18 218.666 104.494 218.525 104.775C218.385 105.057 218.184 105.297 217.922 105.496C217.66 105.695 217.346 105.85 216.979 105.959C216.615 106.064 216.209 106.117 215.76 106.117C215.365 106.117 214.977 106.062 214.594 105.953C214.215 105.844 213.869 105.68 213.557 105.461C213.248 105.242 213 104.973 212.812 104.652C212.629 104.328 212.537 103.953 212.537 103.527H213.662C213.662 103.82 213.719 104.072 213.832 104.283C213.945 104.49 214.1 104.662 214.295 104.799C214.494 104.936 214.719 105.037 214.969 105.104C215.223 105.166 215.486 105.197 215.76 105.197C216.154 105.197 216.488 105.143 216.762 105.033C217.035 104.924 217.242 104.768 217.383 104.564C217.527 104.361 217.6 104.121 217.6 103.844ZM225.486 105.109V106H219.902V105.221L222.697 102.109C223.041 101.727 223.307 101.402 223.494 101.137C223.686 100.867 223.818 100.627 223.893 100.416C223.971 100.201 224.01 99.9824 224.01 99.7598C224.01 99.4785 223.951 99.2246 223.834 98.998C223.721 98.7676 223.553 98.584 223.33 98.4473C223.107 98.3105 222.838 98.2422 222.521 98.2422C222.143 98.2422 221.826 98.3164 221.572 98.4648C221.322 98.6094 221.135 98.8125 221.01 99.0742C220.885 99.3359 220.822 99.6367 220.822 99.9766H219.738C219.738 99.4961 219.844 99.0566 220.055 98.6582C220.266 98.2598 220.578 97.9434 220.992 97.709C221.406 97.4707 221.916 97.3516 222.521 97.3516C223.061 97.3516 223.521 97.4473 223.904 97.6387C224.287 97.8262 224.58 98.0918 224.783 98.4355C224.99 98.7754 225.094 99.1738 225.094 99.6309C225.094 99.8809 225.051 100.135 224.965 100.393C224.883 100.646 224.768 100.9 224.619 101.154C224.475 101.408 224.305 101.658 224.109 101.904C223.918 102.15 223.713 102.393 223.494 102.631L221.209 105.109H225.486Z" fill="#DBDBDB"/>
<path d="M245 140V119C245 117.895 244.105 117 243 117H228M194 140V119C194 117.895 194.895 117 196 117H210" stroke="#DBDBDB" stroke-width="1.5"/>
<path d="M113 92V109" stroke="#DBDBDB" stroke-width="1.5"/>
<circle cx="113" cy="109" r="2" fill="#DBDBDB"/>
<circle cx="113" cy="92" r="2" fill="#DBDBDB"/>
<path d="M211 117L228 117" stroke="#DBDBDB" stroke-width="1.5"/>
<circle cx="228" cy="117" r="2" fill="#DBDBDB"/>
<circle cx="211" cy="117" r="2" fill="#DBDBDB"/>
<rect x="137" y="129" width="37" height="22" rx="2" fill="#5AE4AF"/>
<path d="M149.925 136.18H152.514C153.101 136.18 153.597 136.269 154.001 136.448C154.41 136.627 154.719 136.892 154.931 137.243C155.146 137.59 155.253 138.018 155.253 138.527C155.253 138.885 155.18 139.213 155.033 139.51C154.889 139.803 154.682 140.054 154.41 140.262C154.141 140.466 153.819 140.618 153.443 140.718L153.153 140.831H150.72L150.709 139.988H152.546C152.918 139.988 153.228 139.923 153.475 139.794C153.722 139.662 153.908 139.485 154.034 139.263C154.159 139.041 154.222 138.795 154.222 138.527C154.222 138.226 154.163 137.963 154.044 137.737C153.926 137.512 153.74 137.338 153.486 137.216C153.235 137.091 152.911 137.028 152.514 137.028H150.961V144H149.925V136.18ZM154.496 144L152.594 140.455L153.674 140.45L155.602 143.936V144H154.496ZM159.711 136.137V144H158.717V137.377L156.714 138.108V137.211L159.555 136.137H159.711Z" fill="black"/>
<rect x="200.75" y="129.75" width="35.5" height="20.5" rx="1.25" stroke="#DBDBDB" stroke-width="1.5"/>
<path d="M212.925 136.18H215.514C216.101 136.18 216.597 136.269 217.001 136.448C217.41 136.627 217.719 136.892 217.931 137.243C218.146 137.59 218.253 138.018 218.253 138.527C218.253 138.885 218.18 139.213 218.033 139.51C217.889 139.803 217.682 140.054 217.41 140.262C217.141 140.466 216.819 140.618 216.443 140.718L216.153 140.831H213.72L213.709 139.988H215.546C215.918 139.988 216.228 139.923 216.475 139.794C216.722 139.662 216.908 139.485 217.034 139.263C217.159 139.041 217.222 138.795 217.222 138.527C217.222 138.226 217.163 137.963 217.044 137.737C216.926 137.512 216.74 137.338 216.486 137.216C216.235 137.091 215.911 137.028 215.514 137.028H213.961V144H212.925V136.18ZM217.496 144L215.594 140.455L216.674 140.45L218.602 143.936V144H217.496ZM224.569 143.184V144H219.451V143.286L222.013 140.434C222.328 140.083 222.571 139.785 222.743 139.542C222.919 139.295 223.04 139.075 223.108 138.881C223.18 138.684 223.216 138.484 223.216 138.28C223.216 138.022 223.162 137.789 223.055 137.582C222.951 137.37 222.797 137.202 222.593 137.077C222.389 136.951 222.142 136.889 221.852 136.889C221.504 136.889 221.214 136.957 220.981 137.093C220.752 137.225 220.58 137.411 220.466 137.651C220.351 137.891 220.294 138.167 220.294 138.479H219.3C219.3 138.038 219.397 137.635 219.59 137.27C219.784 136.905 220.07 136.615 220.45 136.4C220.829 136.181 221.297 136.072 221.852 136.072C222.346 136.072 222.768 136.16 223.119 136.335C223.47 136.507 223.739 136.751 223.925 137.066C224.115 137.377 224.209 137.743 224.209 138.162C224.209 138.391 224.17 138.624 224.091 138.86C224.016 139.093 223.91 139.325 223.774 139.558C223.642 139.791 223.486 140.02 223.307 140.246C223.132 140.471 222.944 140.693 222.743 140.912L220.648 143.184H224.569Z" fill="#DBDBDB"/>
</svg>
