<svg width="376" height="166" viewBox="0 0 376 166" fill="none" xmlns="http://www.w3.org/2000/svg">
<path d="M159.5 54H115.5C114.395 54 113.5 54.8954 113.5 56V92M215.5 54H260.5C261.605 54 262.5 54.8954 262.5 56V138C262.5 139.104 261.605 140 260.5 140H238.5M113.5 110V138C113.5 139.104 114.395 140 115.5 140H137.5M174.5 140H201.5" stroke="#DBDBDB" stroke-width="1.5"/>
<path fill-rule="evenodd" clip-rule="evenodd" d="M188.615 16H207.5L215.5 22V78L207.5 85H189.078H167.5L159.5 78V22L167.5 16H188.615Z" stroke="#DBDBDB" stroke-width="1.5"/>
<path d="M159.5 22L176.5 75L167.5 85" stroke="#DBDBDB" stroke-width="1.5"/>
<path d="M215.5 22L198.5 75L207.5 85" stroke="#DBDBDB" stroke-width="1.5"/>
<path fill-rule="evenodd" clip-rule="evenodd" d="M179.5 72V69H195.5V72H179.5Z" fill="#DBDBDB"/>
<path d="M176.5 75H198.5" stroke="#DBDBDB" stroke-width="1.5"/>
<path d="M183.5 16L185.628 20H189.367L191.5 16" stroke="#DBDBDB" stroke-width="1.5"/>
<path d="M183.5 85L185.628 81H189.367L191.5 85" stroke="#DBDBDB" stroke-width="1.5"/>
<path d="M226.617 48.0801V49H220.84V48.0801H226.617ZM226.43 41.2891L221.109 49H220.412V48.1562L225.727 40.4688H226.43V41.2891ZM225.949 40.4688V41.3945H220.488V40.4688H225.949Z" fill="#DBDBDB"/>
<path d="M134.863 45.2871H135.988C135.93 45.8262 135.775 46.3086 135.525 46.7344C135.275 47.1602 134.922 47.498 134.465 47.748C134.008 47.9941 133.438 48.1172 132.754 48.1172C132.254 48.1172 131.799 48.0234 131.389 47.8359C130.982 47.6484 130.633 47.3828 130.34 47.0391C130.047 46.6914 129.82 46.2754 129.66 45.791C129.504 45.3027 129.426 44.7598 129.426 44.1621V43.3125C129.426 42.7148 129.504 42.1738 129.66 41.6895C129.82 41.2012 130.049 40.7832 130.346 40.4355C130.646 40.0879 131.008 39.8203 131.43 39.6328C131.852 39.4453 132.326 39.3516 132.854 39.3516C133.498 39.3516 134.043 39.4727 134.488 39.7148C134.934 39.957 135.279 40.293 135.525 40.7227C135.775 41.1484 135.93 41.6426 135.988 42.2051H134.863C134.809 41.8066 134.707 41.4648 134.559 41.1797C134.41 40.8906 134.199 40.668 133.926 40.5117C133.652 40.3555 133.295 40.2773 132.854 40.2773C132.475 40.2773 132.141 40.3496 131.852 40.4941C131.566 40.6387 131.326 40.8438 131.131 41.1094C130.939 41.375 130.795 41.6934 130.697 42.0645C130.6 42.4355 130.551 42.8477 130.551 43.3008V44.1621C130.551 44.5801 130.594 44.9727 130.68 45.3398C130.77 45.707 130.904 46.0293 131.084 46.3066C131.264 46.584 131.492 46.8027 131.77 46.9629C132.047 47.1191 132.375 47.1973 132.754 47.1973C133.234 47.1973 133.617 47.1211 133.902 46.9688C134.188 46.8164 134.402 46.5977 134.547 46.3125C134.695 46.0273 134.801 45.6855 134.863 45.2871ZM144.098 43.4648V44.0039C144.098 44.6445 144.018 45.2188 143.857 45.7266C143.697 46.2344 143.467 46.666 143.166 47.0215C142.865 47.377 142.504 47.6484 142.082 47.8359C141.664 48.0234 141.195 48.1172 140.676 48.1172C140.172 48.1172 139.709 48.0234 139.287 47.8359C138.869 47.6484 138.506 47.377 138.197 47.0215C137.893 46.666 137.656 46.2344 137.488 45.7266C137.32 45.2188 137.236 44.6445 137.236 44.0039V43.4648C137.236 42.8242 137.318 42.252 137.482 41.748C137.65 41.2402 137.887 40.8086 138.191 40.4531C138.496 40.0938 138.857 39.8203 139.275 39.6328C139.697 39.4453 140.16 39.3516 140.664 39.3516C141.184 39.3516 141.652 39.4453 142.07 39.6328C142.492 39.8203 142.854 40.0938 143.154 40.4531C143.459 40.8086 143.691 41.2402 143.852 41.748C144.016 42.252 144.098 42.8242 144.098 43.4648ZM142.979 44.0039V43.4531C142.979 42.9453 142.926 42.4961 142.82 42.1055C142.719 41.7148 142.568 41.3867 142.369 41.1211C142.17 40.8555 141.926 40.6543 141.637 40.5176C141.352 40.3809 141.027 40.3125 140.664 40.3125C140.312 40.3125 139.994 40.3809 139.709 40.5176C139.428 40.6543 139.186 40.8555 138.982 41.1211C138.783 41.3867 138.629 41.7148 138.52 42.1055C138.41 42.4961 138.355 42.9453 138.355 43.4531V44.0039C138.355 44.5156 138.41 44.9688 138.52 45.3633C138.629 45.7539 138.785 46.084 138.988 46.3535C139.195 46.6191 139.439 46.8203 139.721 46.957C140.006 47.0938 140.324 47.1621 140.676 47.1621C141.043 47.1621 141.369 47.0938 141.654 46.957C141.939 46.8203 142.18 46.6191 142.375 46.3535C142.574 46.084 142.725 45.7539 142.826 45.3633C142.928 44.9688 142.979 44.5156 142.979 44.0039ZM146.148 39.4688H147.244L150.039 46.4238L152.828 39.4688H153.93L150.461 48H149.605L146.148 39.4688ZM145.791 39.4688H146.758L146.916 44.6719V48H145.791V39.4688ZM153.314 39.4688H154.281V48H153.156V44.6719L153.314 39.4688Z" fill="#DBDBDB"/>
<path d="M125.1 103.844C125.1 103.645 125.068 103.469 125.006 103.316C124.947 103.16 124.842 103.02 124.689 102.895C124.541 102.77 124.334 102.65 124.068 102.537C123.807 102.424 123.475 102.309 123.072 102.191C122.65 102.066 122.27 101.928 121.93 101.775C121.59 101.619 121.299 101.441 121.057 101.242C120.814 101.043 120.629 100.814 120.5 100.557C120.371 100.299 120.307 100.004 120.307 99.6719C120.307 99.3398 120.375 99.0332 120.512 98.752C120.648 98.4707 120.844 98.2266 121.098 98.0195C121.355 97.8086 121.662 97.6445 122.018 97.5273C122.373 97.4102 122.77 97.3516 123.207 97.3516C123.848 97.3516 124.391 97.4746 124.836 97.7207C125.285 97.9629 125.627 98.2812 125.861 98.6758C126.096 99.0664 126.213 99.4844 126.213 99.9297H125.088C125.088 99.6094 125.02 99.3262 124.883 99.0801C124.746 98.8301 124.539 98.6348 124.262 98.4941C123.984 98.3496 123.633 98.2773 123.207 98.2773C122.805 98.2773 122.473 98.3379 122.211 98.459C121.949 98.5801 121.754 98.7441 121.625 98.9512C121.5 99.1582 121.438 99.3945 121.438 99.6602C121.438 99.8398 121.475 100.004 121.549 100.152C121.627 100.297 121.746 100.432 121.906 100.557C122.07 100.682 122.277 100.797 122.527 100.902C122.781 101.008 123.084 101.109 123.436 101.207C123.92 101.344 124.338 101.496 124.689 101.664C125.041 101.832 125.33 102.021 125.557 102.232C125.787 102.439 125.957 102.676 126.066 102.941C126.18 103.203 126.236 103.5 126.236 103.832C126.236 104.18 126.166 104.494 126.025 104.775C125.885 105.057 125.684 105.297 125.422 105.496C125.16 105.695 124.846 105.85 124.479 105.959C124.115 106.064 123.709 106.117 123.26 106.117C122.865 106.117 122.477 106.062 122.094 105.953C121.715 105.844 121.369 105.68 121.057 105.461C120.748 105.242 120.5 104.973 120.312 104.652C120.129 104.328 120.037 103.953 120.037 103.527H121.162C121.162 103.82 121.219 104.072 121.332 104.283C121.445 104.49 121.6 104.662 121.795 104.799C121.994 104.936 122.219 105.037 122.469 105.104C122.723 105.166 122.986 105.197 123.26 105.197C123.654 105.197 123.988 105.143 124.262 105.033C124.535 104.924 124.742 104.768 124.883 104.564C125.027 104.361 125.1 104.121 125.1 103.844ZM130.959 97.4219V106H129.875V98.7754L127.689 99.5723V98.5938L130.789 97.4219H130.959Z" fill="#DBDBDB"/>
<path d="M218.1 103.844C218.1 103.645 218.068 103.469 218.006 103.316C217.947 103.16 217.842 103.02 217.689 102.895C217.541 102.77 217.334 102.65 217.068 102.537C216.807 102.424 216.475 102.309 216.072 102.191C215.65 102.066 215.27 101.928 214.93 101.775C214.59 101.619 214.299 101.441 214.057 101.242C213.814 101.043 213.629 100.814 213.5 100.557C213.371 100.299 213.307 100.004 213.307 99.6719C213.307 99.3398 213.375 99.0332 213.512 98.752C213.648 98.4707 213.844 98.2266 214.098 98.0195C214.355 97.8086 214.662 97.6445 215.018 97.5273C215.373 97.4102 215.77 97.3516 216.207 97.3516C216.848 97.3516 217.391 97.4746 217.836 97.7207C218.285 97.9629 218.627 98.2812 218.861 98.6758C219.096 99.0664 219.213 99.4844 219.213 99.9297H218.088C218.088 99.6094 218.02 99.3262 217.883 99.0801C217.746 98.8301 217.539 98.6348 217.262 98.4941C216.984 98.3496 216.633 98.2773 216.207 98.2773C215.805 98.2773 215.473 98.3379 215.211 98.459C214.949 98.5801 214.754 98.7441 214.625 98.9512C214.5 99.1582 214.438 99.3945 214.438 99.6602C214.438 99.8398 214.475 100.004 214.549 100.152C214.627 100.297 214.746 100.432 214.906 100.557C215.07 100.682 215.277 100.797 215.527 100.902C215.781 101.008 216.084 101.109 216.436 101.207C216.92 101.344 217.338 101.496 217.689 101.664C218.041 101.832 218.33 102.021 218.557 102.232C218.787 102.439 218.957 102.676 219.066 102.941C219.18 103.203 219.236 103.5 219.236 103.832C219.236 104.18 219.166 104.494 219.025 104.775C218.885 105.057 218.684 105.297 218.422 105.496C218.16 105.695 217.846 105.85 217.479 105.959C217.115 106.064 216.709 106.117 216.26 106.117C215.865 106.117 215.477 106.062 215.094 105.953C214.715 105.844 214.369 105.68 214.057 105.461C213.748 105.242 213.5 104.973 213.312 104.652C213.129 104.328 213.037 103.953 213.037 103.527H214.162C214.162 103.82 214.219 104.072 214.332 104.283C214.445 104.49 214.6 104.662 214.795 104.799C214.994 104.936 215.219 105.037 215.469 105.104C215.723 105.166 215.986 105.197 216.26 105.197C216.654 105.197 216.988 105.143 217.262 105.033C217.535 104.924 217.742 104.768 217.883 104.564C218.027 104.361 218.1 104.121 218.1 103.844ZM225.986 105.109V106H220.402V105.221L223.197 102.109C223.541 101.727 223.807 101.402 223.994 101.137C224.186 100.867 224.318 100.627 224.393 100.416C224.471 100.201 224.51 99.9824 224.51 99.7598C224.51 99.4785 224.451 99.2246 224.334 98.998C224.221 98.7676 224.053 98.584 223.83 98.4473C223.607 98.3105 223.338 98.2422 223.021 98.2422C222.643 98.2422 222.326 98.3164 222.072 98.4648C221.822 98.6094 221.635 98.8125 221.51 99.0742C221.385 99.3359 221.322 99.6367 221.322 99.9766H220.238C220.238 99.4961 220.344 99.0566 220.555 98.6582C220.766 98.2598 221.078 97.9434 221.492 97.709C221.906 97.4707 222.416 97.3516 223.021 97.3516C223.561 97.3516 224.021 97.4473 224.404 97.6387C224.787 97.8262 225.08 98.0918 225.283 98.4355C225.49 98.7754 225.594 99.1738 225.594 99.6309C225.594 99.8809 225.551 100.135 225.465 100.393C225.383 100.646 225.268 100.9 225.119 101.154C224.975 101.408 224.805 101.658 224.609 101.904C224.418 102.15 224.213 102.393 223.994 102.631L221.709 105.109H225.986Z" fill="#DBDBDB"/>
<path d="M245.5 140V119C245.5 117.895 244.605 117 243.5 117H228.5M194.5 140V119C194.5 117.895 195.395 117 196.5 117H210.5" stroke="#DBDBDB" stroke-width="1.5"/>
<path d="M113.5 92V109" stroke="#DBDBDB" stroke-width="1.5"/>
<circle cx="113.5" cy="109" r="2" fill="#DBDBDB"/>
<circle cx="113.5" cy="92" r="2" fill="#DBDBDB"/>
<path d="M211.5 117L228.5 117" stroke="#DBDBDB" stroke-width="1.5"/>
<circle cx="228.5" cy="117" r="2" fill="#DBDBDB"/>
<circle cx="211.5" cy="117" r="2" fill="#DBDBDB"/>
<rect x="137.5" y="129" width="37" height="22" rx="2" fill="#5AE4AF"/>
<path d="M150.425 136.18H153.014C153.601 136.18 154.097 136.269 154.501 136.448C154.91 136.627 155.219 136.892 155.431 137.243C155.646 137.59 155.753 138.018 155.753 138.527C155.753 138.885 155.68 139.213 155.533 139.51C155.389 139.803 155.182 140.054 154.91 140.262C154.641 140.466 154.319 140.618 153.943 140.718L153.653 140.831H151.22L151.209 139.988H153.046C153.418 139.988 153.728 139.923 153.975 139.794C154.222 139.662 154.408 139.485 154.534 139.263C154.659 139.041 154.722 138.795 154.722 138.527C154.722 138.226 154.663 137.963 154.544 137.737C154.426 137.512 154.24 137.338 153.986 137.216C153.735 137.091 153.411 137.028 153.014 137.028H151.461V144H150.425V136.18ZM154.996 144L153.094 140.455L154.174 140.45L156.102 143.936V144H154.996ZM160.211 136.137V144H159.217V137.377L157.214 138.108V137.211L160.055 136.137H160.211Z" fill="black"/>
<rect x="201.25" y="129.75" width="35.5" height="20.5" rx="1.25" stroke="#DBDBDB" stroke-width="1.5"/>
<path d="M213.425 136.18H216.014C216.601 136.18 217.097 136.269 217.501 136.448C217.91 136.627 218.219 136.892 218.431 137.243C218.646 137.59 218.753 138.018 218.753 138.527C218.753 138.885 218.68 139.213 218.533 139.51C218.389 139.803 218.182 140.054 217.91 140.262C217.641 140.466 217.319 140.618 216.943 140.718L216.653 140.831H214.22L214.209 139.988H216.046C216.418 139.988 216.728 139.923 216.975 139.794C217.222 139.662 217.408 139.485 217.534 139.263C217.659 139.041 217.722 138.795 217.722 138.527C217.722 138.226 217.663 137.963 217.544 137.737C217.426 137.512 217.24 137.338 216.986 137.216C216.735 137.091 216.411 137.028 216.014 137.028H214.461V144H213.425V136.18ZM217.996 144L216.094 140.455L217.174 140.45L219.102 143.936V144H217.996ZM225.069 143.184V144H219.951V143.286L222.513 140.434C222.828 140.083 223.071 139.785 223.243 139.542C223.419 139.295 223.54 139.075 223.608 138.881C223.68 138.684 223.716 138.484 223.716 138.28C223.716 138.022 223.662 137.789 223.555 137.582C223.451 137.37 223.297 137.202 223.093 137.077C222.889 136.951 222.642 136.889 222.352 136.889C222.004 136.889 221.714 136.957 221.481 137.093C221.252 137.225 221.08 137.411 220.966 137.651C220.851 137.891 220.794 138.167 220.794 138.479H219.8C219.8 138.038 219.897 137.635 220.09 137.27C220.284 136.905 220.57 136.615 220.95 136.4C221.329 136.181 221.797 136.072 222.352 136.072C222.846 136.072 223.268 136.16 223.619 136.335C223.97 136.507 224.239 136.751 224.425 137.066C224.615 137.377 224.709 137.743 224.709 138.162C224.709 138.391 224.67 138.624 224.591 138.86C224.516 139.093 224.41 139.325 224.274 139.558C224.142 139.791 223.986 140.02 223.807 140.246C223.632 140.471 223.444 140.693 223.243 140.912L221.148 143.184H225.069Z" fill="#DBDBDB"/>
</svg>
