<svg width="40" height="40" viewBox="0 0 40 40" fill="none" xmlns="http://www.w3.org/2000/svg">
<path d="M0 8C0 3.58172 3.58172 0 8 0H32C36.4183 0 40 3.58172 40 8V32C40 36.4183 36.4183 40 32 40H8C3.58172 40 0 36.4183 0 32V8Z" fill="#262626"/>
<path d="M10.1465 21.3775V24.2857H8V15.7142H11.553C12.2338 15.7142 12.8352 15.8359 13.357 16.0792C13.8829 16.3186 14.2886 16.662 14.574 17.1094C14.8634 17.5529 15.0082 18.0572 15.0082 18.6224C15.0082 19.4583 14.6963 20.1275 14.0725 20.6299C13.4528 21.1283 12.6008 21.3775 11.5163 21.3775H10.1465ZM10.1465 19.7821H11.553C11.9688 19.7821 12.2848 19.6821 12.5009 19.4819C12.721 19.2817 12.8311 18.9992 12.8311 18.6342C12.8311 18.2339 12.719 17.914 12.4948 17.6746C12.2705 17.4352 11.9648 17.3135 11.5775 17.3096H10.1465V19.7821Z" fill="#787878"/>
<path d="M17.0524 24.2857V15.7142H19.9205C20.7073 15.7142 21.4147 15.8869 22.0425 16.2323C22.6704 16.5737 23.1596 17.0584 23.5102 17.6864C23.8649 18.3104 24.0443 19.0109 24.0483 19.788V20.1824C24.0483 20.9674 23.8751 21.6718 23.5285 22.2959C23.1861 22.916 22.7009 23.4026 22.0731 23.7558C21.4493 24.1051 20.7522 24.2817 19.9817 24.2857H17.0524ZM19.1989 17.3096V22.6962H19.945C20.5606 22.6962 21.0335 22.4862 21.3637 22.0663C21.6939 21.6424 21.8591 21.0145 21.8591 20.1824V19.8116C21.8591 18.9835 21.6939 18.3594 21.3637 17.9395C21.0335 17.5196 20.5524 17.3096 19.9205 17.3096H19.1989Z" fill="#787878"/>
<path d="M31.6514 20.8712H28.1902V24.2857H26.0437V15.7142H32V17.3096H28.1902V19.2817H31.6514V20.8712Z" fill="#787878"/>
</svg>
