<svg width="24" height="24" viewBox="0 0 24 24" fill="none" xmlns="http://www.w3.org/2000/svg">
<path fill-rule="evenodd" clip-rule="evenodd" d="M5.23674 12C5.23674 15.7293 8.27071 18.764 12 18.764C15.7293 18.764 18.7625 15.7293 18.7625 12C18.7625 8.27076 15.7293 5.23751 12 5.23751C8.27071 5.23751 5.23674 8.27076 5.23674 12ZM3 12C3 7.03792 7.03717 3 12 3C16.9621 3 21 7.03792 21 12C21 16.9636 16.9621 21 12 21C7.03717 21 3 16.9636 3 12ZM11.0425 13.1515L11.0421 7.95791C11.0421 7.42832 11.4712 7 12 7C12.5288 7 12.9579 7.42832 12.9579 7.95791L12.9584 13.1515C12.9584 13.6803 12.5293 14.1086 12.0005 14.1086C11.4716 14.1086 11.0425 13.6803 11.0425 13.1515ZM11.3234 16.7195C11.1441 16.5409 11.0421 16.2919 11.0421 16.0428C11.0421 15.787 11.1441 15.538 11.3234 15.3587C11.6804 15.0084 12.3196 15.0084 12.6766 15.3587C12.8551 15.538 12.9579 15.787 12.9579 16.0428C12.9579 16.2919 12.8551 16.5409 12.6766 16.7195C12.4981 16.898 12.249 17 12 17C11.751 17 11.5019 16.898 11.3234 16.7195Z" fill="#EA5949"/>
</svg>
