<svg width="40" height="40" viewBox="0 0 40 40" fill="none" xmlns="http://www.w3.org/2000/svg">
<circle cx="20" cy="20" r="19.25" stroke="#5AE4AF" stroke-width="1.5"/>
<path fill-rule="evenodd" clip-rule="evenodd" d="M16.75 13C16.75 11.2051 18.2051 9.75 20 9.75C21.7949 9.75 23.25 11.2051 23.25 13V16.25H16.75V13ZM15.25 16.25V13C15.25 10.3766 17.3766 8.25 20 8.25C22.6234 8.25 24.75 10.3766 24.75 13V16.25H27C27.9665 16.25 28.75 17.0335 28.75 18V29.25C28.75 30.2165 27.9665 31 27 31H13C12.0335 31 11.25 30.2165 11.25 29.25V18C11.25 17.0335 12.0335 16.25 13 16.25H15.25ZM12.75 18C12.75 17.8619 12.8619 17.75 13 17.75H27C27.1381 17.75 27.25 17.8619 27.25 18V29.25C27.25 29.3881 27.1381 29.5 27 29.5H13C12.8619 29.5 12.75 29.3881 12.75 29.25V18Z" fill="#5AE4AF"/>
</svg>
