<svg width="40" height="40" viewBox="0 0 40 40" fill="none" xmlns="http://www.w3.org/2000/svg">
<circle cx="20" cy="20" r="19.25" stroke="#5AE4AF" stroke-width="1.5"/>
<path fill-rule="evenodd" clip-rule="evenodd" d="M17.6275 11.5288C18.2205 10.8956 19.064 10.5 20 10.5C20.936 10.5 21.7795 10.8956 22.3725 11.5288H17.6275ZM15.3044 13.0288C15.2686 13.264 15.25 13.5048 15.25 13.75C15.25 16.3734 17.3766 18.5 20 18.5C22.6234 18.5 24.75 16.3734 24.75 13.75C24.75 11.1266 22.6234 9 20 9C18.1791 9 16.5974 10.0246 15.8003 11.5288H13.0142V13.0288H15.3044ZM16.8303 13.0288H23.1697C23.2223 13.2608 23.25 13.5021 23.25 13.75C23.25 15.5449 21.7949 17 20 17C18.2051 17 16.75 15.5449 16.75 13.75C16.75 13.5021 16.7777 13.2608 16.8303 13.0288ZM11.75 30C11.75 25.4437 15.4437 21.75 20 21.75C24.5563 21.75 28.25 25.4437 28.25 30H29.75C29.75 24.6152 25.3848 20.25 20 20.25C14.6152 20.25 10.25 24.6152 10.25 30H11.75ZM25 26.75H21V25.25H25V26.75Z" fill="#5AE4AF"/>
</svg>
